<svg width="393" height="650" viewBox="0 0 393 650" fill="none" xmlns="http://www.w3.org/2000/svg">
<path fill-rule="evenodd" clip-rule="evenodd" d="M16.0413 0.0013227H376.372C380.511 -0.0523934 384.504 1.53188 387.48 4.40892C390.456 7.28595 392.174 11.2226 392.26 15.3609V634.639C392.174 638.777 390.456 642.714 387.48 645.591C384.504 648.468 380.511 650.052 376.372 649.999H16.0413C11.9025 650.052 7.91017 648.468 4.93428 645.591C1.95839 642.714 0.240138 638.777 0.154053 634.639V15.3609C0.240138 11.2226 1.95839 7.28595 4.93428 4.40892C7.91017 1.53188 11.9025 -0.0523934 16.0413 0.0013227Z" fill="#5A0E32"/>
<path d="M356.172 35.0791H38.3713V612.064H356.172V35.0791Z" fill="#F4E5CC"/>
<path d="M69.2073 523.26C99.8516 500.017 146.796 485.228 199.387 485.228C251.979 485.228 298.893 500.061 329.582 523.26" stroke="black" stroke-width="2.98703" stroke-miterlimit="10"/>
<path d="M355.936 456.783V421.813C354.549 418.672 334.149 415.236 331.235 413.247C328.322 411.259 324.884 410.075 321.304 409.826C317.69 409.545 314.063 410.195 310.806 411.707C307.548 413.218 304.781 415.536 302.796 418.415C299.991 414.804 296.265 411.928 291.967 410.058C287.669 408.187 282.941 407.384 278.226 407.723C268.631 408.429 259.733 414.076 256.059 421.813C250.417 415.694 239.969 413.944 231.443 416.488C223.169 419.205 216.292 424.804 212.206 432.152C210.656 434.711 209.106 437.711 205.897 438.476C203.96 438.932 201.882 438.476 199.883 438.476C194.039 438.814 190.892 443.903 189.419 449.139C187.869 443.903 184.769 438.844 178.956 438.476C176.956 438.358 174.879 438.873 172.941 438.476C169.733 437.711 168.136 434.711 166.617 432.152C162.541 424.802 155.668 419.201 147.395 416.488C138.87 413.944 128.406 415.694 122.779 421.813C119.105 414.076 110.192 408.429 100.597 407.723C95.8846 407.387 91.1596 408.191 86.8648 410.061C82.5701 411.932 78.8463 414.806 76.0427 418.415C74.0576 415.536 71.2903 413.218 68.0328 411.707C64.7754 410.195 61.1483 409.545 57.5341 409.826C53.9543 410.075 50.517 411.259 47.6031 413.247C44.6892 415.236 36.1189 413.348 34.7317 416.488V470.95C36.0648 491.079 37.9585 529.427 39.2813 549.596C92.2183 548.125 139.263 558.361 191.239 549.596C243.215 558.42 299.359 546.335 352.296 547.776L355.936 456.783Z" fill="#FFEEC7" stroke="black" stroke-width="3.20947" stroke-miterlimit="10"/>
<path d="M222.711 216.152C223.427 216.547 240.688 223.243 237.821 234.282C235.291 244.019 227.435 244.18 219.551 240.364C211.667 236.548 215.558 236.373 215.558 236.373L220.092 230.861C220.092 230.861 227.977 237.045 230.127 230.861C232.277 224.676 223.427 223.55 223.427 223.55L222.711 216.152Z" fill="#3B218F" stroke="#060D34" stroke-width="2.51038" stroke-linejoin="round"/>
<path d="M227.377 223.886C227.191 219.12 225.658 214.504 222.955 210.573C220.252 206.643 216.49 203.558 212.105 201.677C212.105 201.677 222.345 200.01 220.458 189.279C218.571 178.547 204.513 174.336 204.513 174.336L179.149 180.682C179.149 180.682 172.215 198.577 180.261 212.189C185.044 220.249 186.572 229.828 184.532 238.975C184.532 238.975 186.741 239.15 189.973 239.37C191.612 235.67 194.932 227.439 194.815 222.205L198.063 239.896C201.456 240.101 204.952 240.276 207.863 240.349C216.772 240.598 214.724 237.937 214.724 237.937C214.724 237.937 228.342 240.832 227.377 223.886Z" fill="#3B218F" stroke="#060D34" stroke-width="2.51038" stroke-linejoin="round"/>
<path d="M180.261 144.875C180.261 144.875 179.383 138.91 176.282 140.811C173.181 142.712 169.246 161.587 168.705 166.119C168.164 170.652 177.233 189.513 181.534 189.279C185.834 189.045 185.234 187.305 183.786 182.129C182.338 176.954 185.074 172.596 183.304 167.333C181.534 162.07 178.447 156.397 182.514 155.636C186.58 154.876 193.47 154.087 195.298 155.534C197.127 156.981 198.019 161.148 196.103 166.076C194.187 171.003 194.903 171.558 194.903 171.558V183.738C194.903 183.738 196.366 191.37 200.637 183.738C204.909 176.105 207.293 165.125 205.392 160.11C203.49 155.095 204.704 146.557 202.788 143.633C200.872 140.709 199.394 139.817 197.624 143.165C197.624 143.209 187.75 141.673 180.261 144.875Z" fill="#F0A41A" stroke="#110034" stroke-width="2.31972" stroke-linecap="round" stroke-linejoin="round"/>
<path d="M183.566 181.194C184.035 176.427 184.547 168.985 182.206 163.97C179.866 158.956 177.73 155.198 188.057 154.906C196.176 154.716 198.458 155.622 197.916 162.304C197.375 168.985 194.991 171.603 194.991 171.603V183.782" fill="#3B218F"/>
<path d="M183.566 181.194C184.035 176.427 184.547 168.985 182.206 163.97C179.866 158.956 177.73 155.198 188.057 154.906C196.176 154.716 198.458 155.622 197.916 162.304C197.375 168.985 194.991 171.603 194.991 171.603V183.782" stroke="#060D34" stroke-width="2.51038" stroke-linejoin="round"/>
<path d="M187.355 143.208C187.516 146.936 187.662 150.679 187.809 154.408C187.809 154.539 187.809 154.685 187.97 154.715C188.131 154.744 188.101 154.481 187.97 154.539" fill="#3B218F"/>
<path d="M187.355 143.208C187.516 146.936 187.662 150.679 187.809 154.408C187.809 154.539 187.809 154.685 187.97 154.715C188.131 154.744 188.101 154.481 187.97 154.539" stroke="#060D34" stroke-width="2.51038" stroke-linejoin="round"/>
<path d="M194.816 155.14C194.956 151.134 195.767 147.18 197.215 143.443Z" fill="#3B218F"/>
<path d="M194.816 155.14C194.956 151.134 195.767 147.18 197.215 143.443" stroke="#060D34" stroke-width="2.51038" stroke-linejoin="round"/>
<path d="M197.639 157.888C199.736 156.219 202.135 154.968 204.704 154.203Z" fill="#3B218F"/>
<path d="M197.639 157.888C199.736 156.219 202.135 154.968 204.704 154.203" stroke="#060D34" stroke-width="2.51038" stroke-linejoin="round"/>
<path d="M197.199 166.325C199.87 164.694 203.021 164.033 206.122 164.453Z" fill="#3B218F"/>
<path d="M197.199 166.325C199.87 164.694 203.021 164.033 206.122 164.453" stroke="#060D34" stroke-width="2.51038" stroke-linejoin="round"/>
<path d="M195.371 173.006C198.582 171.83 202.07 171.636 205.391 172.45Z" fill="#3B218F"/>
<path d="M195.371 173.006C198.582 171.83 202.07 171.636 205.391 172.45" stroke="#060D34" stroke-width="2.51038" stroke-linejoin="round"/>
<path d="M195.108 179.921C197.443 179.698 199.799 179.881 202.071 180.462Z" fill="#3B218F"/>
<path d="M195.108 179.921C197.443 179.698 199.799 179.881 202.071 180.462" stroke="#060D34" stroke-width="2.51038" stroke-linejoin="round"/>
<path d="M183.216 181.252C180.566 181.021 177.907 181.586 175.58 182.876Z" fill="#3B218F"/>
<path d="M183.216 181.252C180.566 181.021 177.907 181.586 175.58 182.876" stroke="#060D34" stroke-width="2.51038" stroke-linejoin="round"/>
<path d="M183.772 172.333C179.339 171.675 174.839 171.601 170.387 172.114Z" fill="#3B218F"/>
<path d="M183.772 172.333C179.339 171.675 174.839 171.601 170.387 172.114" stroke="#060D34" stroke-width="2.51038" stroke-linejoin="round"/>
<path d="M181.972 163.591C178.315 161.803 174.237 161.049 170.182 161.412C170.051 161.412 169.875 161.412 169.817 161.309C169.758 161.207 170.007 161.06 170.007 161.207" fill="#3B218F"/>
<path d="M181.972 163.591C178.315 161.803 174.237 161.049 170.182 161.412C170.051 161.412 169.875 161.412 169.817 161.309C169.758 161.207 170.007 161.06 170.007 161.207" stroke="#060D34" stroke-width="2.51038" stroke-linejoin="round"/>
<path d="M182.324 156.046C178.959 151.981 178.506 146.089 174.512 143.384Z" fill="#3B218F"/>
<path d="M182.324 156.046C178.959 151.981 178.506 146.089 174.512 143.384" stroke="#060D34" stroke-width="2.51038" stroke-linejoin="round"/>
<path d="M182.338 164.014L184.547 168.4C184.887 169.158 185.336 169.862 185.878 170.491C186.943 171.415 188.227 172.049 189.608 172.333" fill="#3B218F"/>
<path d="M182.338 164.014L184.547 168.4C184.887 169.158 185.336 169.862 185.878 170.491C186.943 171.415 188.227 172.049 189.608 172.333" stroke="#060D34" stroke-width="2.51038" stroke-linejoin="round"/>
<path d="M206.693 206.121C206.693 206.121 197.405 209.601 197.639 219.148C197.873 228.696 208.99 234.427 209.165 234.179C209.341 233.93 198.311 231.43 199.233 240.363" fill="#3B218F"/>
<path d="M206.693 206.121C206.693 206.121 197.405 209.601 197.639 219.148C197.873 228.696 208.99 234.427 209.165 234.179C209.341 233.93 198.311 231.43 199.233 240.363" stroke="#060D34" stroke-width="2.51038" stroke-linejoin="round"/>
<path d="M186.58 203.827L223.091 152.683L227.523 151.177L227.655 155.081L191.115 207.482L186.58 203.827Z" fill="#F0A41A" stroke="#110034" stroke-width="2.31972" stroke-linecap="round" stroke-linejoin="round"/>
<path d="M227.523 151.177L189.403 204.719" stroke="#060D34" stroke-width="2.51038" stroke-linejoin="round"/>
<path d="M190.296 210.464L183.772 206.297C183.288 205.983 182.947 205.49 182.824 204.927C182.701 204.363 182.805 203.773 183.113 203.286C183.428 202.802 183.921 202.461 184.485 202.338C185.049 202.215 185.639 202.319 186.127 202.628L192.651 206.78C193.136 207.097 193.477 207.592 193.6 208.159C193.723 208.725 193.619 209.317 193.309 209.806C192.994 210.29 192.502 210.631 191.938 210.754C191.373 210.877 190.784 210.773 190.296 210.464Z" fill="#F0A41A" stroke="#110034" stroke-width="2.31972" stroke-linecap="round" stroke-linejoin="round"/>
<path d="M189.798 210.552C189.793 211.346 189.552 212.12 189.106 212.778C188.661 213.435 188.03 213.946 187.295 214.246C186.559 214.546 185.752 214.621 184.973 214.463C184.195 214.304 183.481 213.919 182.921 213.355C182.361 212.792 181.981 212.076 181.828 211.296C181.676 210.517 181.757 209.71 182.062 208.977C182.367 208.244 182.883 207.618 183.544 207.178C184.205 206.737 184.981 206.502 185.776 206.502C186.306 206.502 186.832 206.607 187.322 206.811C187.812 207.015 188.257 207.313 188.631 207.69C189.004 208.066 189.3 208.513 189.501 209.004C189.701 209.495 189.802 210.021 189.798 210.552Z" fill="#F0A41A" stroke="#110034" stroke-width="2.31972" stroke-linecap="round" stroke-linejoin="round"/>
<path d="M205.099 189.279C202.847 188.539 200.417 188.539 198.166 189.279C194.114 190.419 189.301 193.343 188.423 194.805C187.546 196.267 189.038 201.487 193.338 202.204C197.639 202.92 200.74 197.671 200.74 197.671C200.74 197.671 209.414 201.078 212.047 201.721" fill="#3B218F"/>
<path d="M205.099 189.279C202.847 188.539 200.417 188.539 198.166 189.279C194.114 190.419 189.301 193.343 188.423 194.805C187.546 196.267 189.038 201.487 193.338 202.204C197.639 202.92 200.74 197.671 200.74 197.671C200.74 197.671 209.414 201.078 212.047 201.721" stroke="#060D34" stroke-width="2.51038" stroke-linejoin="round"/>
<path d="M195.883 197.452L193.397 202.174" stroke="#060D34" stroke-width="2.51038" stroke-linejoin="round"/>
<path d="M192.197 195.493L189.403 199.396" stroke="#060D34" stroke-width="2.51038" stroke-linejoin="round"/>
<path d="M201.208 407.451C249.05 407.451 287.834 368.685 287.834 320.866C287.834 273.047 249.05 234.282 201.208 234.282C153.366 234.282 114.582 273.047 114.582 320.866C114.582 368.685 153.366 407.451 201.208 407.451Z" fill="#F0A41A" stroke="#110034" stroke-width="3.65435" stroke-linecap="round" stroke-linejoin="round"/>
<path d="M201.208 379.905C233.829 379.905 260.274 353.472 260.274 320.866C260.274 288.26 233.829 261.827 201.208 261.827C168.586 261.827 142.141 288.26 142.141 320.866C142.141 353.472 168.586 379.905 201.208 379.905Z" fill="#F0A41A" stroke="#110034" stroke-width="3.65435" stroke-linecap="round" stroke-linejoin="round"/>
<g style="mix-blend-mode:multiply" opacity="0.61">
<path d="M201.705 295.031C200.783 295.031 199.876 295.031 198.969 295.177C205.105 295.859 210.774 298.778 214.891 303.376C219.008 307.974 221.284 313.928 221.284 320.098C221.284 326.269 219.008 332.223 214.891 336.821C210.774 341.419 205.105 344.338 198.969 345.02C199.877 345.125 200.791 345.178 201.705 345.18C208.358 345.18 214.739 342.539 219.444 337.836C224.148 333.134 226.791 326.756 226.791 320.106C226.791 313.455 224.148 307.078 219.444 302.375C214.739 297.673 208.358 295.031 201.705 295.031Z" fill="#7B297A"/>
</g>
<path d="M201.207 330.808C206.701 330.808 211.154 326.357 211.154 320.866C211.154 315.375 206.701 310.924 201.207 310.924C195.714 310.924 191.26 315.375 191.26 320.866C191.26 326.357 195.714 330.808 201.207 330.808Z" fill="#F0A41A" stroke="#110034" stroke-width="2.31972" stroke-linecap="round" stroke-linejoin="round"/>
<path d="M235.027 314.257V328.585L249.83 320.866L235.027 314.257Z" fill="#F0A41A" stroke="#110034" stroke-width="2.31972" stroke-linecap="round" stroke-linejoin="round"/>
<path d="M200.96 285.527C205.225 285.527 208.683 282.071 208.683 277.808C208.683 273.544 205.225 270.088 200.96 270.088C196.694 270.088 193.236 273.544 193.236 277.808C193.236 282.071 196.694 285.527 200.96 285.527Z" fill="#F0A41A" stroke="#110034" stroke-width="2.31972" stroke-linecap="round" stroke-linejoin="round"/>
<path d="M164.258 328.586C168.523 328.586 171.981 325.13 171.981 320.866C171.981 316.603 168.523 313.146 164.258 313.146C159.992 313.146 156.534 316.603 156.534 320.866C156.534 325.13 159.992 328.586 164.258 328.586Z" fill="#F0A41A" stroke="#110034" stroke-width="2.31972" stroke-linecap="round" stroke-linejoin="round"/>
<path d="M201.208 261.827V379.861" stroke="#110034" stroke-width="2.31972" stroke-linecap="round" stroke-linejoin="round"/>
<path d="M142.141 320.866H260.274" stroke="#110034" stroke-width="2.31972" stroke-linecap="round" stroke-linejoin="round"/>
<path d="M162.137 365.138L240.088 276.434" stroke="#110034" stroke-width="2.31972" stroke-linecap="round" stroke-linejoin="round"/>
<path d="M156.754 281.829L245.486 359.743" stroke="#110034" stroke-width="2.31972" stroke-linecap="round" stroke-linejoin="round"/>
<path d="M205.421 290.28H196.805C196.175 290.28 195.571 290.031 195.124 289.587C194.677 289.143 194.425 288.541 194.421 287.911C194.424 287.28 194.677 286.676 195.123 286.23C195.57 285.784 196.174 285.532 196.805 285.528H205.421C206.052 285.532 206.656 285.784 207.102 286.23C207.549 286.676 207.801 287.28 207.805 287.911C207.801 288.541 207.548 289.143 207.102 289.587C206.655 290.031 206.051 290.28 205.421 290.28Z" fill="#F0A41A" stroke="#110034" stroke-width="2.31972" stroke-linecap="round" stroke-linejoin="round"/>
<path d="M189.169 354.567C191.232 354.567 191.232 356.981 193.309 356.981C195.386 356.981 195.371 354.567 197.449 354.567C199.526 354.567 199.511 356.981 201.574 356.981C203.636 356.981 203.651 354.567 205.713 354.567C207.776 354.567 207.79 356.981 209.867 356.981C211.945 356.981 211.93 354.567 214.007 354.567" stroke="#110034" stroke-width="2.60571" stroke-linecap="round" stroke-linejoin="round"/>
<path d="M189.169 347.578C191.232 347.578 191.232 349.992 193.309 349.992C195.386 349.992 195.371 347.578 197.449 347.578C199.526 347.578 199.511 349.992 201.574 349.992C203.636 349.992 203.651 347.578 205.713 347.578C207.776 347.578 207.79 349.992 209.867 349.992C211.945 349.992 211.93 347.578 214.007 347.578" stroke="#110034" stroke-width="2.60571" stroke-linecap="round" stroke-linejoin="round"/>
<path d="M208.229 241.182C207.63 239.896 205.816 239.998 204.587 239.91C203.358 239.823 201.998 239.793 200.711 239.808C199.412 239.83 198.116 239.947 196.834 240.159C196.222 240.252 195.616 240.384 195.021 240.554C194.509 240.7 193.806 240.831 193.558 241.358C193.504 241.432 193.475 241.522 193.475 241.614C193.475 241.706 193.504 241.795 193.558 241.87C193.747 242.02 193.966 242.131 194.2 242.193C194.434 242.256 194.678 242.27 194.918 242.235C195.532 242.235 196.147 242.235 196.776 242.235H200.638H201.164C201.048 242.346 200.949 242.474 200.872 242.615C200.781 242.852 200.713 243.097 200.667 243.346C200.518 243.924 200.406 244.509 200.33 245.101C200.184 246.27 200.009 247.425 199.935 248.595C199.777 250.423 199.728 252.259 199.789 254.093C199.657 254.233 199.562 254.404 199.511 254.59C199.437 254.97 199.493 255.365 199.671 255.71C199.849 256.055 200.138 256.33 200.491 256.49C200.667 256.589 200.866 256.64 201.068 256.639C201.269 256.638 201.468 256.585 201.643 256.485C201.818 256.385 201.964 256.241 202.067 256.068C202.171 255.895 202.227 255.698 202.232 255.496C202.232 254.283 202.232 253.054 202.144 251.856C202.056 250.657 202.144 249.604 202.144 248.464C202.144 247.323 202.144 246.227 202.144 245.101C202.144 244.487 202.144 243.887 202.144 243.288C202.142 243.062 202.118 242.836 202.071 242.615C202.012 242.484 201.944 242.357 201.866 242.235C202.729 242.235 203.592 242.235 204.455 242.352C205.655 242.44 207.264 242.937 208.156 241.913C208.255 241.821 208.318 241.696 208.331 241.562C208.344 241.427 208.308 241.292 208.229 241.182Z" fill="#110034"/>
<path d="M280.3 318.76C280.364 317.495 279.981 316.248 279.218 315.237C278.464 314.471 277.52 313.921 276.482 313.643C275.05 313.185 273.582 312.847 272.094 312.634C271.369 312.5 270.636 312.417 269.9 312.386C269.534 312.386 269.154 312.386 268.788 312.386C268.422 312.386 267.984 312.649 267.53 312.664C267.465 312.667 267.404 312.693 267.356 312.737C267.309 312.781 267.278 312.84 267.269 312.904C267.261 312.968 267.275 313.033 267.309 313.088C267.343 313.143 267.396 313.184 267.457 313.205C267.806 313.344 268.143 313.51 268.466 313.702C268.82 313.826 269.182 313.929 269.549 314.009C270.178 314.184 270.807 314.33 271.45 314.491L273.045 314.944C272.825 316.67 272.738 318.38 272.679 320.12C272.679 321.056 272.679 321.992 272.679 322.913C272.514 323.805 272.686 324.727 273.162 325.501C273.294 325.64 273.463 325.74 273.649 325.789C273.835 325.838 274.031 325.834 274.215 325.778C274.771 325.559 275.327 325.004 274.961 324.316C274.956 324.243 274.956 324.17 274.961 324.097C274.929 323.61 274.929 323.122 274.961 322.635C274.961 321.743 274.961 320.851 274.961 319.959C274.961 318.395 274.815 316.845 274.639 315.295L275.649 315.617C276.599 315.939 277.696 316.304 278.004 317.357C278.133 317.987 278.182 318.63 278.15 319.272C278.15 320.018 278.15 320.734 278.15 321.524L278.238 325.998C278.238 326.392 278.238 326.802 278.238 327.197V327.299H277.579H271.992C271.304 327.299 270.529 327.299 269.929 327.299C269.329 327.299 268.978 327.007 268.466 327.167C268.268 327.233 268.094 327.358 267.968 327.525C267.843 327.692 267.772 327.894 267.764 328.103C267.618 329.419 269.417 329.697 270.353 329.697H274.625C275.926 329.697 277.272 329.785 278.574 329.697C278.866 329.675 279.15 329.595 279.411 329.462C279.671 329.329 279.903 329.146 280.092 328.923C280.281 328.7 280.424 328.441 280.513 328.163C280.601 327.884 280.633 327.59 280.607 327.299C280.578 324.506 280.403 321.611 280.3 318.76Z" fill="#110034"/>
<path d="M205.713 391.821C205.582 390.622 205.465 389.423 205.304 388.239C205.318 387.011 205.037 385.797 204.485 384.7C204.44 384.631 204.378 384.574 204.305 384.535C204.232 384.495 204.151 384.474 204.068 384.474C203.985 384.474 203.903 384.495 203.831 384.535C203.758 384.574 203.696 384.631 203.651 384.7C203.271 385.784 203.165 386.944 203.344 388.078C203.344 389.335 203.461 390.578 203.534 391.821C203.666 393.999 203.826 396.207 204.002 398.371C202.77 398.627 201.504 398.671 200.257 398.503C198.741 398.334 197.29 397.797 196.03 396.938C195.65 396.646 195.211 396.222 195.401 395.71C195.716 395.129 196.187 394.648 196.761 394.321C197.987 393.475 199.48 393.106 200.959 393.283C202.422 393.283 202.422 391.075 200.959 390.944C200.156 390.895 199.378 390.647 198.695 390.22C198.013 389.794 197.449 389.203 197.054 388.502C196.644 387.745 196.452 386.89 196.498 386.031C196.541 385.588 196.615 385.148 196.717 384.715C196.738 384.258 196.637 383.804 196.425 383.399C196.408 383.338 196.379 383.28 196.34 383.229C196.3 383.179 196.251 383.137 196.195 383.106C196.14 383.074 196.078 383.054 196.015 383.047C195.951 383.04 195.887 383.045 195.825 383.063C195.225 383.282 194.728 383.458 194.465 384.101C194.239 384.72 194.116 385.372 194.099 386.031C194.061 387.317 194.37 388.589 194.991 389.715C195.427 390.475 196.002 391.145 196.688 391.689C196.171 391.941 195.681 392.245 195.225 392.596C193.616 393.824 192.3 395.812 193.646 397.757C195 399.338 196.881 400.377 198.941 400.681C201.14 401.155 203.424 401.07 205.582 400.432C205.824 400.363 206.037 400.218 206.19 400.017C206.343 399.817 206.427 399.573 206.43 399.321C206.167 396.792 205.977 394.306 205.713 391.821Z" fill="#110034"/>
<path d="M133.306 319.301C133.032 317.404 132.064 315.677 130.588 314.453C129.112 313.229 127.235 312.597 125.319 312.678C123.125 312.75 121.037 313.642 119.468 315.178C118.643 315.922 118.092 316.92 117.903 318.014C117.864 318.322 117.887 318.634 117.97 318.933C118.053 319.231 118.194 319.511 118.386 319.754C118.112 321.047 118.188 322.39 118.605 323.643C119.32 325.379 120.654 326.788 122.348 327.598C124.042 328.408 125.976 328.562 127.777 328.03C129.638 327.571 131.251 326.414 132.282 324.799C133.264 323.145 133.627 321.197 133.306 319.301ZM127.894 325.763C126.646 326.312 125.245 326.408 123.933 326.034C122.622 325.661 121.482 324.841 120.712 323.717C120.006 322.37 119.76 320.83 120.009 319.33C120.082 318.827 120.219 318.336 120.419 317.868C120.738 317.398 121.117 316.97 121.545 316.596C122.556 315.762 123.795 315.253 125.1 315.134C126.424 314.992 127.754 315.335 128.845 316.099C129.884 316.937 130.611 318.101 130.907 319.403C131.24 320.649 131.12 321.971 130.568 323.136C130.016 324.301 129.068 325.232 127.894 325.763Z" fill="#110034"/>
<path d="M149.631 274.869C149.287 274.269 148.858 273.723 148.358 273.246L147.056 271.711C146.573 271.184 146.076 270.673 145.593 270.146L144.774 269.357C144.557 269.156 144.322 268.975 144.072 268.816C143.902 268.653 143.721 268.501 143.531 268.362C143.339 268.273 143.138 268.204 142.931 268.158C142.889 268.146 142.845 268.145 142.802 268.154C142.759 268.162 142.719 268.181 142.685 268.208C142.651 268.235 142.624 268.27 142.605 268.309C142.587 268.349 142.578 268.392 142.58 268.436C142.584 268.71 142.649 268.979 142.77 269.225C142.931 269.532 143.092 269.854 143.268 270.161C143.606 270.701 143.973 271.223 144.365 271.725C145.154 272.822 146.047 273.86 146.924 274.898C147.321 275.468 147.817 275.963 148.387 276.36C148.575 276.481 148.797 276.537 149.019 276.518C149.241 276.5 149.451 276.408 149.616 276.258C149.776 276.062 149.865 275.818 149.867 275.566C149.87 275.313 149.786 275.067 149.631 274.869Z" fill="#110034"/>
<path d="M160.821 265.555C160.689 265.555 160.645 265.555 160.66 265.555C160.607 265.508 160.548 265.469 160.484 265.438L159.899 265.073C159.544 264.842 159.215 264.572 158.919 264.269C158.198 263.419 157.524 262.531 156.9 261.608C156.257 260.672 155.628 259.722 155.043 258.683C154.457 257.645 154.033 256.68 152.965 256.403C151.885 256.318 150.812 256.636 149.952 257.294C148.944 257.86 147.967 258.48 147.027 259.151C146.032 259.853 145.081 260.613 144.101 261.374C143.709 261.686 143.333 262.018 142.975 262.368C142.513 262.805 142.105 263.296 141.761 263.83C141.742 263.86 141.733 263.894 141.734 263.929C141.735 263.963 141.747 263.997 141.767 264.025C141.788 264.054 141.816 264.075 141.849 264.087C141.881 264.099 141.917 264.101 141.951 264.093C142.505 263.954 143.041 263.748 143.545 263.479C144.1 263.243 144.634 262.959 145.14 262.631L147.977 260.891C149.001 260.263 150.04 259.663 151.122 259.122C151.371 259.005 151.62 258.874 151.868 258.771C152.117 258.669 152.424 258.64 152.19 258.523C152.497 258.683 152.775 259.531 152.922 259.795C154.083 261.775 155.383 263.671 156.813 265.468C157.363 266.327 158.195 266.968 159.168 267.281C159.591 267.409 160.047 267.375 160.447 267.186C160.847 266.997 161.163 266.666 161.333 266.257C161.375 266.177 161.394 266.087 161.388 265.996C161.382 265.906 161.35 265.819 161.297 265.746C161.243 265.672 161.17 265.616 161.086 265.582C161.002 265.548 160.91 265.539 160.821 265.555Z" fill="#110034"/>
<path d="M154.501 367.331C154.535 367.204 154.584 367.081 154.647 366.966C154.735 366.761 154.472 366.498 154.296 366.702C154.141 366.881 153.958 367.034 153.755 367.156C153.592 367.156 153.435 367.219 153.316 367.331C152.687 368.091 152.029 368.793 151.458 369.627C150.888 370.46 150.332 371.235 149.776 372.054L148.138 374.495C147.705 375.018 147.386 375.626 147.202 376.279C147.057 376.412 146.938 376.571 146.851 376.747L147.085 376.513C145.695 377.522 147.085 379.437 148.036 380.227C148.679 380.738 149.279 381.221 149.937 381.689L150.961 382.434C151.137 382.549 151.323 382.647 151.517 382.727C151.671 382.806 151.841 382.851 152.014 382.858H152.278C152.406 382.819 152.525 382.754 152.629 382.668C152.678 382.668 152.727 382.656 152.771 382.634C152.816 382.612 152.854 382.579 152.884 382.54C152.913 382.5 152.934 382.454 152.943 382.405C152.952 382.357 152.949 382.307 152.936 382.259C152.936 382.186 152.936 381.981 152.936 381.893C152.928 381.682 152.857 381.479 152.731 381.309C152.609 381.128 152.461 380.965 152.292 380.826C152 380.592 151.678 380.373 151.371 380.154C150.786 379.715 150.171 379.32 149.571 378.896L149.25 378.677L149.089 378.56L148.986 378.472C148.776 378.315 148.584 378.133 148.416 377.931L148.314 377.77C148.262 377.701 148.227 377.621 148.211 377.536C148.211 377.536 148.211 377.463 148.211 377.419C148.437 377.395 148.653 377.314 148.84 377.186C149.239 376.817 149.57 376.381 149.82 375.899L151.415 373.413C151.941 372.595 152.453 371.761 152.98 370.928C153.506 370.094 153.945 369.144 154.443 368.238C154.504 368.128 154.536 368.005 154.536 367.879C154.536 367.754 154.504 367.631 154.443 367.521C154.472 367.58 154.501 367.521 154.501 367.331Z" fill="#110034"/>
<path d="M259.558 265.468C258.645 264.974 257.795 264.37 257.027 263.67C256.645 263.288 256.324 262.849 256.076 262.369C255.857 261.915 255.813 261.389 255.565 260.907C255.539 260.851 255.498 260.803 255.446 260.77C255.394 260.737 255.334 260.719 255.272 260.719C255.21 260.719 255.15 260.737 255.098 260.77C255.046 260.803 255.005 260.851 254.979 260.907C254.793 261.893 254.91 262.913 255.316 263.831C255.714 264.82 256.389 265.673 257.261 266.287C258.007 266.843 259.046 267.369 259.046 268.422C259.011 268.907 258.871 269.379 258.636 269.806C258.401 270.232 258.077 270.603 257.686 270.893C256.223 272.223 253.049 273.159 253.019 275.542C253.216 276.777 253.719 277.943 254.482 278.934L255.433 280.557C255.604 280.877 255.856 281.147 256.164 281.339C256.472 281.532 256.825 281.64 257.188 281.654C257.273 281.672 257.362 281.659 257.438 281.616C257.514 281.572 257.571 281.503 257.598 281.42C257.763 281.122 257.85 280.788 257.85 280.447C257.85 280.107 257.763 279.773 257.598 279.475C257.291 278.89 256.91 278.305 256.574 277.735C256.237 277.165 255.872 276.609 255.565 276.025C255.374 275.659 255.345 275.527 255.638 275.22C256.49 274.521 257.4 273.895 258.358 273.349C259.275 272.748 260.045 271.948 260.611 271.01C261.176 270.126 261.382 269.06 261.186 268.03C260.99 267 260.408 266.083 259.558 265.468Z" fill="#110034"/>
<path d="M261.255 362.272C260.787 361.848 260.304 361.409 259.792 361C259.28 360.591 258.827 360.167 258.329 359.786C257.832 359.406 257.861 359.406 257.642 359.202C257.422 358.997 257.452 359.041 257.349 358.982L257.086 358.836C256.968 358.761 256.856 358.678 256.749 358.587C256.616 358.505 256.456 358.476 256.301 358.506C256.147 358.536 256.009 358.622 255.916 358.748C255.813 358.866 255.756 359.016 255.756 359.172C255.756 359.328 255.813 359.479 255.916 359.596L256.047 359.772C256.128 359.936 256.237 360.084 256.369 360.21L257.027 360.927C257.437 361.38 257.876 361.819 258.285 362.272C258.695 362.725 259.119 363.149 259.529 363.588C259.938 364.026 260.787 364.904 261.591 364.553C261.694 364.553 261.792 364.513 261.865 364.442C261.939 364.371 261.982 364.275 261.986 364.173C262.542 363.427 261.811 362.769 261.255 362.272Z" fill="#110034"/>
<path d="M265.101 367.156C264.68 367.301 264.273 367.487 263.887 367.711C263.419 368.077 262.937 368.442 262.425 368.822C261.547 369.554 260.772 370.402 259.952 371.191C258.49 372.565 257.129 373.998 255.74 375.416L250.518 371.279C249.682 370.514 248.681 369.953 247.592 369.641C247.09 369.51 246.565 369.497 246.057 369.604C245.549 369.711 245.073 369.934 244.666 370.255C244.571 370.316 244.5 370.409 244.466 370.518C244.432 370.626 244.437 370.743 244.481 370.847C244.525 370.952 244.604 371.038 244.705 371.09C244.805 371.142 244.921 371.157 245.032 371.133C245.881 370.928 246.787 371.63 247.46 372.054C248.133 372.478 249.128 373.238 249.947 373.867C251.693 375.241 253.443 376.606 255.198 377.96C255.427 378.101 255.697 378.159 255.964 378.125C256.23 378.09 256.476 377.965 256.661 377.77C258.27 376.089 259.909 374.437 261.474 372.712C262.234 371.864 263.054 371.059 263.77 370.168C264.136 369.7 264.502 369.203 264.838 368.706C264.959 368.539 265.067 368.363 265.16 368.179C265.262 367.945 265.262 367.682 265.365 367.463C265.378 367.424 265.381 367.383 265.374 367.342C265.366 367.302 265.348 367.265 265.321 367.234C265.295 367.202 265.26 367.179 265.222 367.165C265.183 367.152 265.142 367.148 265.101 367.156Z" fill="#110034"/>
<path d="M285.113 318.556C285.113 318.556 282.188 303.643 285.113 303.76C288.039 303.877 291.549 315.062 291.549 315.062H295.206C295.206 315.062 294.855 303.277 297.357 303.76C299.858 304.242 314.222 332.241 311.458 342.183C308.693 352.125 295.85 338.967 295.85 338.967L294.387 354.567C294.387 354.567 291.257 386.645 273.835 400.93C256.413 415.214 216.787 421.677 207.776 422.028C198.765 422.378 188.848 432.408 189.14 427.759C189.433 423.109 197.2 412.729 201.589 413.445C205.977 414.161 208.815 415.945 211.141 413.445C213.466 410.945 260.509 385.943 273.864 358.485C287.22 331.028 285.113 318.556 285.113 318.556Z" fill="#F051BD" stroke="#110034" stroke-width="2.76459" stroke-linecap="round" stroke-linejoin="round"/>
<path d="M296.055 333.03C297.549 333.03 298.761 330.923 298.761 328.322C298.761 325.722 297.549 323.615 296.055 323.615C294.56 323.615 293.348 325.722 293.348 328.322C293.348 330.923 294.56 333.03 296.055 333.03Z" fill="#FFE873"/>
<path d="M296.055 324.273C297.181 324.273 298.088 326.086 298.088 328.308C298.088 330.531 297.181 332.344 296.055 332.344C294.928 332.344 294.021 330.531 294.021 328.308C294.021 326.086 294.928 324.273 296.055 324.273ZM296.055 322.928C294.094 322.928 292.676 325.194 292.676 328.308C292.676 331.422 294.138 333.689 296.055 333.689C297.971 333.689 299.434 331.437 299.434 328.308C299.434 325.179 297.971 322.928 296.055 322.928Z" fill="#110034"/>
<path d="M306.206 330.238C305.439 330.115 304.717 329.798 304.107 329.317C303.498 328.836 303.022 328.207 302.725 327.49C302.238 326.593 301.991 325.585 302.008 324.565C301.989 324.134 302.087 323.706 302.29 323.326C302.493 322.945 302.795 322.626 303.163 322.401C303.438 322.255 303.745 322.18 304.056 322.182C304.822 322.307 305.544 322.624 306.153 323.105C306.762 323.586 307.239 324.215 307.537 324.931C308.634 327.051 308.429 329.317 307.084 329.96C306.82 330.127 306.518 330.223 306.206 330.238Z" fill="#FFE873"/>
<path d="M304.056 322.928C304.706 323.043 305.316 323.322 305.828 323.74C306.34 324.157 306.737 324.698 306.981 325.311C307.903 327.066 307.83 328.908 306.835 329.42C306.658 329.508 306.462 329.553 306.264 329.551C305.614 329.435 305.005 329.155 304.493 328.738C303.981 328.321 303.584 327.781 303.339 327.168C302.432 325.413 302.49 323.571 303.485 323.059C303.668 322.973 303.868 322.928 304.07 322.928M304.07 321.568C303.653 321.567 303.241 321.668 302.871 321.861C302.404 322.143 302.022 322.546 301.765 323.027C301.507 323.508 301.384 324.05 301.408 324.595C301.396 325.712 301.667 326.813 302.198 327.797C302.544 328.629 303.103 329.355 303.82 329.902C304.536 330.449 305.385 330.797 306.279 330.911C306.696 330.909 307.107 330.809 307.478 330.618C307.941 330.331 308.32 329.927 308.576 329.447C308.833 328.967 308.959 328.428 308.941 327.884C308.946 326.768 308.675 325.668 308.151 324.682C307.803 323.852 307.243 323.127 306.527 322.581C305.811 322.034 304.964 321.685 304.07 321.568Z" fill="#110034"/>
<path d="M287.892 364.758C287.321 365.459 276.19 378.121 276.19 378.121L267.281 394.452C259.719 396.967 253.063 397.07 253.063 394.452C253.063 390.066 262.352 387.464 262.352 387.464C262.352 387.464 268.32 373.281 270.47 367.126" fill="#F051BD"/>
<path d="M287.892 364.758C287.321 365.459 276.19 378.121 276.19 378.121L267.281 394.452C259.719 396.967 253.063 397.07 253.063 394.452C253.063 390.066 262.352 387.464 262.352 387.464C262.352 387.464 268.32 373.281 270.47 367.126" stroke="#110034" stroke-width="2.76459" stroke-linecap="round" stroke-linejoin="round"/>
<path d="M147.978 118.909C147.978 118.909 153.346 119.143 149.996 121.833C147.077 123.829 143.91 125.436 140.576 126.614C140.576 126.614 149.045 126.249 144.628 128.88C142.089 130.425 139.234 131.375 136.275 131.658C136.275 131.658 144.145 132.155 140.093 134.816C137.546 136.438 134.702 137.536 131.726 138.048C131.726 138.048 139.376 137.828 134.959 140.094C130.541 142.361 128.61 141.776 128.61 141.776C128.61 141.776 123.491 138.852 122.964 133.53C122.437 128.208 126.592 122.608 147.978 118.909Z" fill="#F0A41A" stroke="#110034" stroke-width="2.31972" stroke-linecap="round" stroke-linejoin="round"/>
<path d="M118.956 131.439C118.956 131.439 118.473 126.555 120.214 123.924C121.955 121.292 129.708 121.774 135.193 119.625C140.678 117.476 149.528 113.894 151.284 113.543C153.039 113.192 152.6 116.467 147.948 118.909C147.948 118.909 129.883 124.158 127.63 125.956C125.378 127.754 124.705 131.6 124.705 131.6L118.956 131.439Z" fill="#F0A41A" stroke="#110034" stroke-width="2.31972" stroke-linecap="round" stroke-linejoin="round"/>
<path d="M115.738 144.686C115.825 144.174 111.861 143.969 112.3 139.554C112.739 135.138 113.763 131.922 118.956 131.439C124.149 130.957 127.601 131.337 128.157 135.738" fill="#F0A41A"/>
<path d="M115.738 144.686C115.825 144.174 111.861 143.969 112.3 139.554C112.739 135.138 113.763 131.922 118.956 131.439C124.149 130.957 127.601 131.337 128.157 135.738" stroke="#110034" stroke-width="2.31972" stroke-linecap="round" stroke-linejoin="round"/>
<path d="M78.7153 131.337C78.7153 131.337 73.5224 132.726 77.3549 134.568C80.6401 135.88 84.0821 136.76 87.5943 137.185C87.5943 137.185 79.2419 138.647 84.1276 140.285C86.9457 141.252 89.9478 141.562 92.9042 141.191C92.9042 141.191 85.3124 143.384 89.8616 145.095C92.6919 146.131 95.7012 146.588 98.7114 146.44C98.7114 146.44 91.2074 147.902 96.0053 149.145C100.803 150.388 107.912 151.762 107.912 151.762C107.912 151.762 113.763 147.785 106.713 137.989C103.495 133.603 100.335 130.328 78.7153 131.337Z" fill="#F0A41A" stroke="#110034" stroke-width="2.31972" stroke-linecap="round" stroke-linejoin="round"/>
<path d="M113.324 148.867C113.324 148.867 109.126 132.419 106.859 130.225C104.591 128.032 97.1313 130.225 91.2948 129.275C85.4583 128.325 76.0673 126.775 74.3266 126.819C72.5859 126.863 73.683 130.006 78.7149 131.337C78.7149 131.337 97.4824 132.55 100.071 133.822C102.661 135.094 109.799 150.607 109.799 150.607L113.324 148.867Z" fill="#F0A41A" stroke="#110034" stroke-width="2.31972" stroke-linecap="round" stroke-linejoin="round"/>
<path d="M117.289 147.2V144.802C116.929 144.773 116.58 144.664 116.268 144.484C115.955 144.303 115.687 144.056 115.481 143.76C115.275 143.464 115.138 143.125 115.079 142.77C115.019 142.414 115.04 142.049 115.138 141.702C115.621 138.778 118.839 140.153 118.839 140.153C118.839 140.153 117.888 137.228 118.839 135.766C119.79 134.304 126.957 134.568 128.157 135.766C129.356 136.965 128.45 147.317 126.987 148.15C125.524 148.984 124.836 148.867 124.836 148.867C124.836 148.867 130.571 155.066 131.521 159.847C132.472 164.628 134.301 173.24 134.301 173.24C134.301 173.24 139.786 178.108 141.936 182.158C144.087 186.208 157.281 205.142 157.881 206.37C158.48 207.598 154.779 211.926 152.512 213.037C148.641 214.781 144.596 216.109 140.444 217C137.943 217.248 130.892 201.019 130.307 200.668C129.722 200.317 114.656 201.253 110.838 195.288C108.553 191.491 107.528 187.069 107.912 182.655C106.052 179.62 104.376 176.476 102.895 173.24C101.885 170.593 105.045 154.598 106.903 152.566C108.761 150.533 117.289 147.2 117.289 147.2Z" fill="#F0A41A" stroke="#110034" stroke-width="2.31972" stroke-linecap="round" stroke-linejoin="round"/>
<path d="M111.788 159.847L110.486 170.228L115.738 176.193L111.437 185.17C110.147 184.478 108.943 183.634 107.853 182.656" fill="#F0A41A"/>
<path d="M111.788 159.847L110.486 170.228L115.738 176.193L111.437 185.17C110.147 184.478 108.943 183.634 107.853 182.656" stroke="#110034" stroke-width="2.31972" stroke-linecap="round" stroke-linejoin="round"/>
<path d="M139.61 172.508C140.889 173.005 141.934 173.966 142.536 175.199C143.37 176.909 141.497 181.515 140.985 180.769C140.538 179.444 140.258 178.069 140.152 176.675C140.152 176.675 139.318 178.371 138.572 177.552C137.826 176.734 139.61 172.508 139.61 172.508Z" fill="#F0A41A" stroke="#110034" stroke-width="2.31972" stroke-linecap="round" stroke-linejoin="round"/>
<path d="M115.737 176.193L123.607 172.509L125.64 158.78L140.575 163.312L138.337 178.109C138.337 178.109 126.635 188.343 126.357 188.007C126.079 187.671 114.553 178.723 114.743 178.27L115.737 176.193Z" fill="#F0A41A" stroke="#110034" stroke-width="2.31972" stroke-linecap="round" stroke-linejoin="round"/>
<path d="M123.622 172.508L138.352 178.108" stroke="#110034" stroke-width="2.31972" stroke-linecap="round" stroke-linejoin="round"/>
<path d="M124.807 148.867H121.106" stroke="#110034" stroke-width="2.31972" stroke-linecap="round" stroke-linejoin="round"/>
<path d="M114.743 148.867C114.743 148.867 119.015 154.716 127.192 151.791Z" fill="#F0A41A"/>
<path d="M114.743 148.867C114.743 148.867 119.015 154.716 127.192 151.791" stroke="#110034" stroke-width="2.31972" stroke-linecap="round" stroke-linejoin="round"/>
<path d="M107.853 151.762C107.853 151.762 109.228 160.037 118.897 160.534C128.566 161.031 130.673 157.361 130.673 157.361" fill="#F0A41A"/>
<path d="M107.853 151.762C107.853 151.762 109.228 160.037 118.897 160.534C128.566 161.031 130.673 157.361 130.673 157.361" stroke="#110034" stroke-width="2.31972" stroke-linecap="round" stroke-linejoin="round"/>
<path d="M145.827 215.596C145.827 215.596 152.424 221.108 154.604 218.344C156.783 215.581 152.556 213.037 152.556 213.037L145.827 215.596Z" fill="#F0A41A" stroke="#110034" stroke-width="2.31972" stroke-linecap="round" stroke-linejoin="round"/>
<path d="M157.295 208.314C157.295 208.314 165.721 210.99 162.283 213.11C158.846 215.23 154.56 211.546 154.56 211.546L157.295 208.314Z" fill="#F0A41A" stroke="#110034" stroke-width="2.31972" stroke-linecap="round" stroke-linejoin="round"/>
<path d="M114.378 179.044L115.738 180.214C116.824 179.872 117.988 179.872 119.073 180.214C120.156 180.857 120.624 182.582 121.34 183.138C122.057 183.693 120.39 184.863 118.415 182.758C118.415 182.758 117.464 183.459 118.781 185.097C120.097 186.734 122.832 186.442 121.999 188.738C121.999 188.738 116.513 186.501 115.197 186.267C113.88 186.033 112.271 183.342 112.271 183.342L114.378 179.044Z" fill="#F0A41A" stroke="#110034" stroke-width="2.31972" stroke-linecap="round" stroke-linejoin="round"/>
<path d="M138.762 185.155C140.815 195.504 141.771 206.041 141.614 216.59" stroke="#110034" stroke-width="2.31972" stroke-linecap="round" stroke-linejoin="round"/>
<path d="M144.54 197.32C144.91 201.999 145.495 206.658 146.295 211.298" stroke="#110034" stroke-width="2.31972" stroke-linecap="round" stroke-linejoin="round"/>
<g style="mix-blend-mode:multiply" opacity="0.61">
<path d="M154.56 218.345C156.696 215.581 152.512 213.037 152.512 213.037C153.256 212.642 153.945 212.151 154.56 211.575C154.56 211.575 158.831 215.245 162.284 213.14C165.736 211.034 157.295 208.344 157.295 208.344C157.807 207.511 158.071 206.794 157.881 206.399C157.281 205.171 144.028 186.252 141.878 182.187C140.91 180.5 139.757 178.926 138.44 177.494C138.458 177.541 138.483 177.585 138.513 177.626C139.259 178.444 140.093 176.748 140.093 176.748C140.237 178.147 140.557 179.523 141.044 180.842C141.556 181.588 143.428 176.982 142.595 175.272C141.993 174.039 140.948 173.079 139.669 172.581C139.669 172.581 139.303 173.429 138.967 174.438L140.634 163.385L131.638 160.592C131.638 160.344 131.536 160.081 131.492 159.847C130.624 156.887 129.161 154.136 127.192 151.761C125.89 150.036 124.807 148.837 124.807 148.837C124.807 148.837 125.407 148.954 126.957 148.121C127.762 147.682 128.42 144.656 128.61 141.688C128.61 141.688 130.541 142.272 134.959 140.006C139.376 137.74 131.726 137.959 131.726 137.959C134.72 137.464 137.585 136.375 140.152 134.757C144.204 132.096 136.334 131.599 136.334 131.599C139.292 131.316 142.148 130.366 144.686 128.821C149.075 126.19 140.634 126.555 140.634 126.555C143.969 125.377 147.136 123.77 150.055 121.774C153.404 119.142 148.036 118.85 148.036 118.85C152.688 116.467 153.17 113.119 151.371 113.484C149.572 113.85 140.751 117.417 135.281 119.566C129.81 121.716 122.028 121.233 120.302 123.865C118.576 126.497 119.044 131.38 119.044 131.38H118.81C120.548 132.018 122.078 133.119 123.234 134.565C124.391 136.01 125.129 137.745 125.368 139.58C125.608 141.415 125.34 143.281 124.594 144.975C123.848 146.669 122.652 148.126 121.136 149.188C123.637 153.121 126.241 157.42 125.904 162.054C125.699 164.979 124.324 167.757 124.339 170.681C124.354 173.605 125.89 176.529 126.402 179.629C126.914 182.728 125.787 186.471 122.789 187.144C125.188 191.53 132.384 190.682 135.266 194.732C136.117 196.141 136.656 197.717 136.846 199.352L139.859 215.976L141.088 216.897C142.691 216.554 144.274 216.12 145.827 215.596C145.827 215.596 152.424 221.122 154.56 218.345Z" fill="#7B297A"/>
</g>
<path d="M303.647 258.786C303.486 258.787 303.33 258.732 303.205 258.63C303.08 258.529 302.993 258.388 302.96 258.231C301.76 252.938 300.941 252.119 295.646 250.92C295.491 250.881 295.354 250.792 295.256 250.666C295.158 250.54 295.105 250.385 295.105 250.226C295.105 250.067 295.158 249.912 295.256 249.786C295.354 249.66 295.491 249.571 295.646 249.532C300.956 248.347 301.775 247.514 302.96 242.221C302.993 242.064 303.08 241.923 303.205 241.822C303.33 241.72 303.486 241.665 303.647 241.666C303.808 241.668 303.962 241.724 304.087 241.825C304.212 241.925 304.299 242.065 304.335 242.221C305.534 247.514 306.354 248.347 311.649 249.532C311.803 249.571 311.94 249.66 312.038 249.786C312.136 249.912 312.19 250.067 312.19 250.226C312.19 250.385 312.136 250.54 312.038 250.666C311.94 250.792 311.803 250.881 311.649 250.92C306.339 252.119 305.52 252.938 304.335 258.231C304.299 258.387 304.212 258.527 304.087 258.627C303.962 258.728 303.808 258.784 303.647 258.786Z" fill="#F0414D"/>
<path d="M303.647 242.367C304.905 247.952 305.929 248.961 311.502 250.233C305.929 251.491 304.905 252.514 303.647 258.084C302.389 252.514 301.365 251.491 295.792 250.233C301.365 248.961 302.389 247.952 303.647 242.367ZM303.647 240.905C303.33 240.914 303.025 241.026 302.777 241.224C302.528 241.421 302.352 241.694 302.272 242.002C301.131 247.017 300.502 247.66 295.47 248.786C295.183 248.885 294.934 249.072 294.757 249.319C294.581 249.567 294.486 249.863 294.486 250.167C294.486 250.471 294.581 250.768 294.757 251.015C294.934 251.263 295.183 251.45 295.47 251.549C300.502 252.675 301.131 253.318 302.272 258.333C302.375 258.615 302.562 258.859 302.808 259.032C303.054 259.204 303.347 259.296 303.647 259.296C303.948 259.296 304.241 259.204 304.487 259.032C304.733 258.859 304.92 258.615 305.022 258.333C306.163 253.318 306.792 252.675 311.81 251.549C312.097 251.45 312.346 251.263 312.523 251.015C312.699 250.768 312.794 250.471 312.794 250.167C312.794 249.863 312.699 249.567 312.523 249.319C312.346 249.072 312.097 248.885 311.81 248.786C306.792 247.66 306.163 247.017 305.022 242.002C304.943 241.694 304.766 241.421 304.518 241.224C304.27 241.026 303.965 240.914 303.647 240.905Z" fill="#110034"/>
<path d="M99.6327 258.786C99.4725 258.784 99.3177 258.728 99.1931 258.627C99.0685 258.527 98.9812 258.387 98.9452 258.231C97.7458 252.938 96.9266 252.119 91.6313 250.92C91.4768 250.881 91.3396 250.792 91.2417 250.666C91.1438 250.54 91.0906 250.385 91.0906 250.226C91.0906 250.067 91.1438 249.912 91.2417 249.786C91.3396 249.66 91.4768 249.571 91.6313 249.532C96.9412 248.347 97.7604 247.514 98.9452 242.221C98.9812 242.065 99.0685 241.925 99.1931 241.825C99.3177 241.724 99.4725 241.668 99.6327 241.666C99.7937 241.665 99.9498 241.72 100.075 241.822C100.2 241.923 100.287 242.064 100.32 242.221C101.52 247.514 102.339 248.347 107.634 249.532C107.789 249.571 107.926 249.66 108.024 249.786C108.122 249.912 108.175 250.067 108.175 250.226C108.175 250.385 108.122 250.54 108.024 250.666C107.926 250.792 107.789 250.881 107.634 250.92C102.324 252.119 101.505 252.938 100.32 258.231C100.287 258.388 100.2 258.529 100.075 258.63C99.9498 258.732 99.7937 258.787 99.6327 258.786Z" fill="#F0414D"/>
<path d="M99.6327 242.367C100.891 247.952 101.915 248.961 107.488 250.233C101.915 251.491 100.891 252.514 99.6327 258.084C98.3747 252.514 97.3508 251.491 91.7776 250.233C97.3508 248.961 98.3747 247.952 99.6327 242.367ZM99.6327 240.905C99.3156 240.914 99.0099 241.026 98.7619 241.224C98.5139 241.421 98.3369 241.694 98.2577 242.002C97.1168 247.017 96.4878 247.66 91.4704 248.786C91.183 248.885 90.9337 249.072 90.7573 249.319C90.5809 249.567 90.4861 249.863 90.4861 250.167C90.4861 250.471 90.5809 250.768 90.7573 251.015C90.9337 251.263 91.183 251.45 91.4704 251.549C96.4878 252.675 97.1168 253.318 98.2577 258.333C98.3602 258.615 98.5472 258.859 98.7932 259.032C99.0392 259.204 99.3323 259.296 99.6327 259.296C99.9331 259.296 100.226 259.204 100.472 259.032C100.718 258.859 100.905 258.615 101.008 258.333C102.149 253.318 102.778 252.675 107.81 251.549C108.097 251.45 108.346 251.263 108.523 251.015C108.699 250.768 108.794 250.471 108.794 250.167C108.794 249.863 108.699 249.567 108.523 249.319C108.346 249.072 108.097 248.885 107.81 248.786C102.778 247.66 102.149 247.017 101.008 242.002C100.929 241.694 100.752 241.421 100.504 241.224C100.256 241.026 99.9499 240.914 99.6327 240.905Z" fill="#110034"/>
<path d="M95.8736 394.599C95.7134 394.597 95.5586 394.541 95.4339 394.44C95.3093 394.339 95.2221 394.2 95.1861 394.044C93.9866 388.736 93.1675 387.918 87.8722 386.733C87.7162 386.699 87.5769 386.612 87.4781 386.487C87.3794 386.361 87.3273 386.206 87.331 386.046C87.3301 385.887 87.3831 385.733 87.4814 385.608C87.5797 385.483 87.7175 385.395 87.8722 385.359C93.1821 384.16 94.0013 383.341 95.1861 378.048C95.2225 377.894 95.3104 377.756 95.4352 377.658C95.5601 377.56 95.7147 377.507 95.8736 377.508C96.0332 377.504 96.1891 377.556 96.3146 377.655C96.44 377.753 96.5272 377.893 96.5611 378.048C97.7606 383.356 98.5797 384.175 103.875 385.359C104.03 385.395 104.167 385.483 104.266 385.608C104.364 385.733 104.417 385.887 104.416 386.046C104.42 386.206 104.368 386.361 104.269 386.487C104.17 386.612 104.031 386.699 103.875 386.733C98.5651 387.932 97.746 388.751 96.5611 394.044C96.5276 394.201 96.441 394.342 96.3158 394.443C96.1907 394.544 96.0346 394.599 95.8736 394.599Z" fill="#F0414D"/>
<path d="M95.8733 378.179C97.1313 383.75 98.1553 384.773 103.728 386.031C98.1553 387.288 97.1313 388.312 95.8733 393.882C94.6153 388.312 93.5914 387.288 88.0182 386.031C93.5914 384.773 94.6153 383.75 95.8733 378.179ZM95.8733 376.717C95.5562 376.726 95.2505 376.838 95.0025 377.036C94.7545 377.234 94.5775 377.507 94.4983 377.814C93.3573 382.829 92.7284 383.457 87.711 384.598C87.4286 384.7 87.1847 384.887 87.0122 385.133C86.8398 385.379 86.7473 385.672 86.7473 385.972C86.7473 386.273 86.8398 386.566 87.0122 386.811C87.1847 387.057 87.4286 387.244 87.711 387.347C92.7284 388.487 93.3573 389.116 94.4983 394.145C94.6008 394.428 94.7878 394.671 95.0338 394.844C95.2798 395.016 95.5729 395.109 95.8733 395.109C96.1737 395.109 96.4669 395.016 96.7129 394.844C96.9589 394.671 97.1458 394.428 97.2483 394.145C98.3893 389.116 99.0183 388.487 104.036 387.347C104.318 387.244 104.562 387.057 104.734 386.811C104.907 386.566 104.999 386.273 104.999 385.972C104.999 385.672 104.907 385.379 104.734 385.133C104.562 384.887 104.318 384.7 104.036 384.598C99.0183 383.457 98.3893 382.829 97.2483 377.814C97.1691 377.507 96.9922 377.234 96.7442 377.036C96.4961 376.838 96.1905 376.726 95.8733 376.717Z" fill="#110034"/>
<path d="M311.501 394.599C311.34 394.599 311.184 394.544 311.059 394.443C310.934 394.342 310.847 394.201 310.814 394.044C309.614 388.736 308.795 387.918 303.5 386.733C303.343 386.7 303.201 386.613 303.1 386.488C302.999 386.363 302.944 386.207 302.944 386.046C302.947 385.886 303.003 385.731 303.103 385.607C303.204 385.482 303.344 385.395 303.5 385.359C308.81 384.16 309.629 383.341 310.814 378.048C310.848 377.893 310.935 377.753 311.06 377.655C311.186 377.556 311.342 377.504 311.501 377.508C311.66 377.507 311.815 377.56 311.94 377.658C312.065 377.756 312.152 377.894 312.189 378.048C313.388 383.356 314.207 384.175 319.503 385.359C319.657 385.395 319.795 385.483 319.894 385.608C319.992 385.733 320.045 385.887 320.044 386.046C320.048 386.206 319.996 386.361 319.897 386.487C319.798 386.612 319.659 386.699 319.503 386.733C314.193 387.932 313.374 388.751 312.189 394.044C312.153 394.2 312.066 394.339 311.941 394.44C311.816 394.541 311.662 394.597 311.501 394.599Z" fill="#F0414D"/>
<path d="M311.502 378.179C312.76 383.75 313.784 384.773 319.357 386.031C313.784 387.288 312.76 388.312 311.502 393.882C310.244 388.312 309.22 387.288 303.647 386.031C309.22 384.773 310.244 383.75 311.502 378.179ZM311.502 376.717C311.185 376.726 310.879 376.838 310.631 377.036C310.383 377.234 310.206 377.507 310.127 377.814C308.986 382.829 308.357 383.457 303.339 384.598C303.057 384.7 302.813 384.887 302.641 385.133C302.468 385.379 302.376 385.672 302.376 385.972C302.376 386.273 302.468 386.566 302.641 386.811C302.813 387.057 303.057 387.244 303.339 387.347C308.357 388.487 308.986 389.116 310.127 394.145C310.229 394.428 310.416 394.671 310.662 394.844C310.908 395.016 311.201 395.109 311.502 395.109C311.802 395.109 312.095 395.016 312.341 394.844C312.587 394.671 312.774 394.428 312.877 394.145C314.018 389.116 314.647 388.487 319.664 387.347C319.946 387.244 320.19 387.057 320.363 386.811C320.535 386.566 320.628 386.273 320.628 385.972C320.628 385.672 320.535 385.379 320.363 385.133C320.19 384.887 319.946 384.7 319.664 384.598C314.647 383.457 314.018 382.829 312.877 377.814C312.798 377.507 312.621 377.234 312.373 377.036C312.125 376.838 311.819 376.726 311.502 376.717Z" fill="#110034"/>
<path d="M68.0955 419.074C70.9897 418.403 74.0018 418.427 76.885 419.144C79.7682 419.861 82.4406 421.25 84.6833 423.197" stroke="black" stroke-width="3.20947" stroke-miterlimit="10"/>
<path d="M308.035 422.89C309.42 420.374 311.635 418.417 314.302 417.35C316.969 416.284 319.924 416.175 322.663 417.041" stroke="black" stroke-width="3.20947" stroke-miterlimit="10"/>
<path d="M71.6208 162.289C71.8108 164.73 72.5725 167.093 73.8445 169.185C75.1165 171.278 76.8632 173.043 78.9434 174.336C81.0236 175.63 83.379 176.417 85.8194 176.632C88.2599 176.848 90.7169 176.487 92.992 175.579" stroke="black" stroke-width="3.20947" stroke-miterlimit="10"/>
<path d="M91.4116 196.604C91.7625 199.125 92.8296 201.493 94.4864 203.426C96.1432 205.359 98.3201 206.777 100.759 207.511C105.264 208.783 110.135 207.511 114.363 205.508" stroke="black" stroke-width="3.20947" stroke-miterlimit="10"/>
<path d="M163.337 93.2639C163.451 96.1994 164.379 99.0455 166.016 101.485C167.653 103.925 169.937 105.862 172.611 107.081C175.32 108.228 178.296 108.6 181.205 108.153C184.114 107.706 186.841 106.459 189.082 104.551" stroke="black" stroke-width="3.20947" stroke-miterlimit="10"/>
<path d="M226.601 90.8806C226.075 97.0798 231.282 102.577 237.133 104.653C241.477 106.14 246.163 106.31 250.604 105.142C255.044 103.974 259.039 101.52 262.088 98.0887" stroke="black" stroke-width="3.20947" stroke-miterlimit="10"/>
<path d="M258.315 102.036C260.102 103.879 262.471 105.05 265.021 105.351C267.571 105.652 270.147 105.064 272.314 103.688" stroke="black" stroke-width="3.20947" stroke-miterlimit="10"/>
<path d="M307.903 205.756C308.286 207.621 309.128 209.362 310.352 210.82C311.576 212.279 313.145 213.409 314.916 214.11C316.687 214.811 318.605 215.06 320.496 214.834C322.387 214.609 324.193 213.916 325.749 212.818" stroke="black" stroke-width="3.20947" stroke-miterlimit="10"/>
<path d="M306.557 199.996L307.142 200.567" stroke="black" stroke-width="3.20947" stroke-miterlimit="10"/>
<path d="M280.095 162.756C280.095 162.756 290.803 174.014 301.73 175.915C312.657 177.816 300.267 179.322 293.626 176.895C293.626 176.895 303.866 180.477 305.401 181.281C306.937 182.085 303.778 184.6 296.625 181.734C296.625 181.734 299.214 183.43 300.384 184.424C301.554 185.419 301.642 187.553 293.626 183.62C288.519 180.89 284.266 176.802 281.339 171.807C281.339 171.807 282.743 164.745 280.095 162.756Z" fill="#F0A41A" stroke="#110034" stroke-width="2.31972" stroke-linecap="round" stroke-linejoin="round"/>
<path d="M281.704 167.494C281.704 167.494 286.648 174.482 293.626 176.968Z" fill="#F0A41A"/>
<path d="M281.704 167.494C281.704 167.494 286.648 174.482 293.626 176.968" stroke="#110034" stroke-width="2.31972" stroke-linecap="round" stroke-linejoin="round"/>
<path d="M296.669 181.807C296.669 181.807 287.161 176.792 281.748 170.71Z" fill="#F0A41A"/>
<path d="M296.669 181.807C296.669 181.807 287.161 176.792 281.748 170.71" stroke="#110034" stroke-width="2.31972" stroke-linecap="round" stroke-linejoin="round"/>
<path d="M264.327 186.281C265.043 186.281 282.465 186.998 282.465 186.998V196.662L276.029 205.8L254.833 203.11L264.327 193.796V186.281Z" fill="#F0A41A" stroke="#110034" stroke-width="2.31972" stroke-linecap="round" stroke-linejoin="round"/>
<path d="M222.242 128.573C222.242 128.573 219.317 130.342 219.317 132.492C219.317 134.641 233.286 134.641 233.286 134.641C233.286 134.641 223.983 136.615 223.617 138.574C223.252 140.533 235.319 141.498 235.319 141.498C235.319 141.498 232.994 143.472 234.427 145.446C235.861 147.419 245.354 146.381 245.354 146.381C245.354 146.381 239.254 148.121 240.161 149.92C241.068 151.718 250.401 153.487 254.584 152.844C254.584 152.844 255.023 147.127 256.457 144.612C256.457 144.612 245.705 132.258 245.179 132.082C244.652 131.907 222.242 128.573 222.242 128.573Z" fill="#F0A41A" stroke="#110034" stroke-width="2.31972" stroke-linecap="round" stroke-linejoin="round"/>
<path d="M253.181 125.503C253.222 124.618 253.492 123.758 253.964 123.008C254.435 122.257 255.092 121.641 255.872 121.219C258.564 119.757 265.907 121.029 266.975 123.354C268.042 125.678 265.512 140.372 271.451 140.007C277.39 139.641 271.992 128.559 273.425 126.044C274.859 123.529 303.88 110.107 309.6 109.961C315.319 109.815 314.793 111.423 308.357 113.002C301.92 114.581 279.335 128.588 279.335 128.588C279.335 128.588 280.418 134.846 279.511 137.711C278.742 139.852 277.721 141.894 276.468 143.793C277.379 149.324 278.754 154.767 280.578 160.066C283.08 166.5 279.32 180.112 277.536 181.544C277.339 181.75 277.103 181.913 276.842 182.025C276.58 182.136 276.299 182.194 276.015 182.194C275.73 182.194 275.449 182.136 275.188 182.025C274.926 181.913 274.69 181.75 274.493 181.544C274.493 181.544 271.568 183.708 270.003 182.173C265.638 177.037 262.077 171.269 259.441 165.067C255.682 156.484 252.274 154.511 256.399 144.481C252.195 143.316 248.601 140.577 246.364 136.834C242.254 130.342 233.111 129.801 227.026 129.275C220.941 128.749 215.924 127.126 218.25 125.503C220.575 123.88 242.605 127.842 244.214 128.427C245.823 129.012 250.665 138.808 254.79 140.124C258.915 141.44 260.641 135.825 260.641 132.433C260.641 129.041 249.86 130.693 249.86 130.693C249.688 129.572 249.93 128.427 250.541 127.472C251.152 126.517 252.091 125.817 253.181 125.503Z" fill="#F0A41A" stroke="#110034" stroke-width="2.31972" stroke-linecap="round" stroke-linejoin="round"/>
<path d="M310.111 112.49C310.111 112.49 314.266 115.663 301.905 121.394C301.905 121.394 309.965 124.786 294.738 131.234C294.738 131.234 299.389 133.383 289.91 137.857C289.91 137.857 294.913 141.089 283.811 145.168L277.097 147.127L276.468 143.735C276.468 143.735 279.554 139.524 279.7 136.805C279.728 134.042 279.606 131.279 279.335 128.529C279.335 128.529 302.183 113.791 310.111 112.49Z" fill="#F0A41A" stroke="#110034" stroke-width="2.31972" stroke-linecap="round" stroke-linejoin="round"/>
<path d="M274.508 181.544C272.358 177.718 270.73 173.622 269.666 169.365Z" fill="#F0A41A"/>
<path d="M274.508 181.544C272.358 177.718 270.73 173.622 269.666 169.365" stroke="#110034" stroke-width="2.31972" stroke-linecap="round" stroke-linejoin="round"/>
<path d="M277.55 181.544V183.957C278.873 183.843 280.206 183.967 281.485 184.322C282.378 184.848 283.548 186.281 282.29 186.822C281.032 187.363 280.681 184.936 278.618 185.565C276.556 186.194 276.556 186.281 276.468 187.451C276.38 188.621 275.663 189.688 274.508 189.322C273.352 188.957 275.122 186.735 273.425 186.735C271.729 186.735 270.734 188.197 269.666 187.992C268.598 187.787 268.057 186.53 269.666 185.477C271.275 184.424 271.992 186.018 273.425 184.673C274.233 183.948 274.752 182.957 274.888 181.88L277.55 181.544Z" fill="#F0A41A" stroke="#110034" stroke-width="2.31972" stroke-linecap="round" stroke-linejoin="round"/>
<path d="M270.339 182.729C270.339 182.729 271.684 183.328 268.013 184.191C264.341 185.053 264.692 186.618 264.517 188.138C264.341 189.659 268.188 190.361 268.598 187.144C268.579 186.879 268.616 186.613 268.708 186.364C268.801 186.115 268.945 185.889 269.132 185.7C269.319 185.512 269.545 185.366 269.793 185.272C270.042 185.178 270.308 185.138 270.573 185.156C272.621 185.156 274.317 185.317 274.888 181.939L270.339 182.729Z" fill="#F0A41A" stroke="#110034" stroke-width="2.31972" stroke-linecap="round" stroke-linejoin="round"/>
<path d="M264.326 193.811L282.465 196.664" stroke="#110034" stroke-width="2.31972" stroke-linecap="round" stroke-linejoin="round"/>
<path d="M268.671 168.488C267.375 167.835 266.25 166.886 265.388 165.718C264.527 164.549 263.953 163.194 263.713 161.763" stroke="black" stroke-width="3.20947" stroke-miterlimit="10"/>
<path d="M279.919 128.222C287.228 125.242 294.792 122.932 302.519 121.321" stroke="black" stroke-width="3.20947" stroke-miterlimit="10"/>
<path d="M294.943 130.284L279.935 131.937C279.657 131.937 279.306 132.098 279.291 132.376C279.276 132.654 279.891 132.566 279.701 132.376" stroke="black" stroke-width="3.20947" stroke-miterlimit="10"/>
<path d="M290.891 137.317C286.991 137.5 283.083 137.446 279.189 137.156" stroke="black" stroke-width="3.20947" stroke-miterlimit="10"/>
<path d="M243.277 146.982L256.661 144.949" stroke="black" stroke-width="3.20947" stroke-miterlimit="10"/>
<path d="M233.462 142.171C238.212 141.452 242.902 140.377 247.49 138.954" stroke="black" stroke-width="3.20947" stroke-miterlimit="10"/>
<path d="M232.306 134.261L240.351 133.106" stroke="black" stroke-width="3.20947" stroke-miterlimit="10"/>
<path d="M104.943 289.504C104.943 289.504 110.911 289.943 105.894 292.823C100.876 295.703 93.7087 299.125 97.5411 304.812C101.374 310.5 111.145 310.266 104.226 314.082C97.3071 317.898 86.5557 322.006 90.1395 330.077C93.7233 338.148 104.431 335.296 102.178 340.194C99.9255 345.092 85.795 349.903 93.8111 356.701C101.827 363.5 120.141 360.634 116.25 366.117C112.359 371.6 116.645 376.352 119.029 374.963C121.414 373.574 120.229 370.576 120.229 370.576C120.229 370.576 121.692 374.012 121.999 368.764C122.306 363.515 123.081 359.83 114.963 358.441C106.844 357.052 98.0092 357.535 100.335 351.219C102.661 344.902 113.69 344.186 108.687 334.361C105.762 328.512 96.2685 334.916 96.5026 327.372C96.7366 319.828 104.007 319.521 109.404 316.962C114.202 314.696 115.694 309.242 109.945 306.903C104.197 304.564 95.7858 304.607 104.387 299.095C112.988 293.583 113.061 289.036 104.943 289.504Z" fill="#FFEEC7" stroke="black" stroke-width="2.60571" stroke-miterlimit="10"/>
<path d="M121.999 368.793C122.364 363.529 123.081 359.86 114.963 358.471C106.844 357.082 98.0091 357.564 100.335 351.248C102.661 344.932 113.69 344.215 108.687 334.39C105.762 328.542 96.2684 334.946 96.5024 327.401C96.7365 319.857 104.006 319.55 109.404 316.991C114.202 314.725 115.694 309.272 109.945 306.932C104.197 304.593 95.7857 304.637 104.387 299.125C112.988 293.613 112.988 289.08 104.87 289.548C104.87 289.548 110.838 289.987 105.82 292.867C100.803 295.747 93.6354 299.169 97.4678 304.856C101.3 310.544 111.072 310.31 104.153 314.126C97.2338 317.942 86.5555 322.006 90.1393 330.077C93.7231 338.148 104.431 335.297 102.178 340.195C99.9253 345.093 85.7949 349.903 93.8109 356.702C101.827 363.5 120.141 360.635 116.25 366.117C112.359 371.6 116.645 376.352 119.029 374.963C121.414 373.574 120.229 370.577 120.229 370.577C120.229 370.577 121.633 373.998 121.999 368.793Z" fill="#F0A41A" stroke="#110034" stroke-width="2.31972" stroke-linecap="round" stroke-linejoin="round"/>
<path d="M203.958 468.229L215.426 461.065L219.478 454.383L240.264 457.731L233.097 463.697L228.313 470.934L203.958 468.229Z" fill="#F0A41A" stroke="#110034" stroke-width="2.31972" stroke-linecap="round" stroke-linejoin="round"/>
<path d="M233.096 463.698L215.426 461.065" stroke="#110034" stroke-width="2.31972" stroke-linecap="round" stroke-linejoin="round"/>
<path d="M288.053 417.276C288.053 417.276 294.313 414.907 291.783 419.556C289.252 424.206 283.357 429.659 283.357 429.659C283.357 429.659 292.865 425.069 289.106 430.259C286.97 433.284 284.174 435.784 280.929 437.569C280.929 437.569 290.174 434.25 286.78 439.295C284.675 442.41 281.963 445.07 278.808 447.117C278.808 447.117 287.438 443.096 283.503 447.862C279.569 452.629 277.082 452.907 277.082 452.907C277.082 452.907 269.768 452.146 266.55 446.269C263.332 440.391 265.423 432.043 288.053 417.276Z" fill="#F0A41A" stroke="#110034" stroke-width="2.31972" stroke-linecap="round" stroke-linejoin="round"/>
<path d="M261.05 445.903C261.05 445.903 258.125 440.552 258.769 436.692C259.412 432.832 268.569 429.557 273.791 424.396C279.013 419.235 287.351 410.784 289.224 409.483C291.096 408.181 292.149 412.261 288.053 417.275C288.053 417.275 269.988 432.189 268.291 435.347C266.594 438.505 267.823 443.213 267.823 443.213L261.05 445.903Z" fill="#F0A41A" stroke="#110034" stroke-width="2.31972" stroke-linecap="round" stroke-linejoin="round"/>
<path d="M240.016 433.374C240.016 433.374 235.715 429.324 240.016 428.607C244.316 427.891 245.033 433.374 245.033 433.374C245.033 433.374 258.637 442.146 261.021 442.921C263.406 443.696 283.709 440.772 291.593 446.021C299.478 451.27 307.113 465.115 301.379 467.513C295.645 469.911 287.293 473.362 283.475 470.92C279.657 468.478 277.273 466.797 277.273 466.797L263.171 466.314C263.171 466.314 263.42 470.043 252.435 470.92C241.449 471.797 229.264 473.391 228.313 470.92C227.363 468.449 227.363 466.534 234.516 465.072C238.23 464.435 241.845 463.314 245.267 461.738C245.267 461.738 247.9 457.673 245.501 455.524C243.79 453.915 242.196 452.185 240.732 450.348C240.732 450.348 238.099 454.808 234.516 453.375C230.932 451.942 226.88 448.375 229.03 446.942C231.181 445.509 234.048 444.31 234.282 441.693C234.516 439.076 235.32 434.69 240.016 433.374Z" fill="#F0A41A" stroke="#110034" stroke-width="2.31972" stroke-linecap="round" stroke-linejoin="round"/>
<path d="M239.913 450.918L244.609 444.719C245.15 444.003 245.589 442.833 244.814 442.409" fill="#F0A41A"/>
<path d="M239.913 450.918L244.609 444.719C245.15 444.003 245.589 442.833 244.814 442.409" stroke="#110034" stroke-width="2.31972" stroke-linecap="round" stroke-linejoin="round"/>
<path d="M69.7336 506.711C86.623 493.603 106.705 485.235 127.908 482.47" stroke="black" stroke-width="3.20947" stroke-miterlimit="10"/>
<path d="M286.693 486.988C288.667 484.362 291.145 482.155 293.984 480.498C296.822 478.842 299.963 477.768 303.222 477.34C306.481 476.913 309.792 477.14 312.962 478.008C316.132 478.877 319.097 480.369 321.682 482.398" stroke="black" stroke-width="3.20947" stroke-miterlimit="10"/>
<path d="M313.476 473.741C314.37 471.609 315.934 469.826 317.932 468.663C319.93 467.499 322.253 467.018 324.55 467.293" stroke="black" stroke-width="3.20947" stroke-miterlimit="10"/>
<path d="M72.0884 473.77C76.55 473.845 80.98 474.533 85.2534 475.817C87.401 476.476 89.3911 477.567 91.1016 479.023C92.8121 480.479 94.2068 482.269 95.2003 484.283" stroke="black" stroke-width="3.20947" stroke-miterlimit="10"/>
<path d="M193.221 468.229L181.753 461.065L177.701 454.383L156.93 457.731L164.083 463.697L168.866 470.934L193.221 468.229Z" fill="#F0A41A" stroke="#110034" stroke-width="2.31972" stroke-linecap="round" stroke-linejoin="round"/>
<path d="M164.083 463.698L181.753 461.065" stroke="#110034" stroke-width="2.31972" stroke-linecap="round" stroke-linejoin="round"/>
<path d="M109.126 417.276C109.126 417.276 102.865 414.907 105.381 419.556C107.897 424.206 113.821 429.659 113.821 429.659C113.821 429.659 104.313 425.069 108.072 430.259C110.208 433.284 113.004 435.784 116.249 437.569C116.249 437.569 107.005 434.25 110.398 439.295C112.496 442.411 115.203 445.072 118.356 447.117C118.356 447.117 109.725 443.096 113.66 447.862C117.595 452.629 120.082 452.907 120.082 452.907C120.082 452.907 127.396 452.146 130.614 446.269C133.832 440.391 131.74 432.043 109.126 417.276Z" fill="#F0A41A" stroke="#110034" stroke-width="2.31972" stroke-linecap="round" stroke-linejoin="round"/>
<path d="M136.114 445.903C136.114 445.903 139.04 440.552 138.396 436.692C137.753 432.832 128.596 429.557 123.373 424.396C118.151 419.234 109.814 410.784 107.941 409.482C106.069 408.181 105.016 412.26 109.126 417.275C109.126 417.275 127.177 432.188 128.874 435.347C130.57 438.505 129.356 443.213 129.356 443.213L136.114 445.903Z" fill="#F0A41A" stroke="#110034" stroke-width="2.31972" stroke-linecap="round" stroke-linejoin="round"/>
<path d="M157.149 433.374L152.893 425.917C151.284 425.917 152.147 433.374 152.147 433.374C152.147 433.374 138.528 442.146 136.144 442.921C133.76 443.696 113.456 440.772 105.572 446.021C97.6875 451.269 90.0518 465.115 95.7859 467.513C101.52 469.911 109.872 473.362 113.69 470.92C117.508 468.478 119.907 466.753 119.907 466.753L133.994 466.27C133.994 466.27 133.76 469.999 144.745 470.876C155.73 471.753 167.901 473.347 168.852 470.876C169.802 468.405 169.817 466.49 162.649 465.028C158.924 464.423 155.295 463.332 151.854 461.782C151.854 461.782 149.236 457.717 151.62 455.568C153.331 453.959 154.925 452.229 156.389 450.392C156.389 450.392 159.022 454.852 162.606 453.419C166.189 451.986 170.241 448.418 168.091 446.986C165.941 445.553 163.088 444.354 162.84 441.737C162.591 439.12 161.845 434.689 157.149 433.374Z" fill="#F0A41A" stroke="#110034" stroke-width="2.31972" stroke-linecap="round" stroke-linejoin="round"/>
<path d="M159.723 434.587C159.723 434.587 165.238 431.151 164.112 427.525C164.605 428.264 164.943 429.095 165.105 429.968C165.266 430.842 165.248 431.739 165.051 432.605C164.854 433.472 164.482 434.288 163.958 435.006C163.435 435.724 162.77 436.327 162.005 436.78L159.723 434.587Z" fill="#F0A41A" stroke="#110034" stroke-width="2.31972" stroke-linecap="round" stroke-linejoin="round"/>
<path d="M152.893 437.511C152.893 437.511 149.675 435.903 147.334 441.269C147.81 441.687 148.375 441.99 148.987 442.155C149.599 442.321 150.24 442.343 150.862 442.222C151.483 442.101 152.069 441.838 152.573 441.455C153.078 441.072 153.487 440.578 153.77 440.011" fill="#F0A41A"/>
<path d="M152.893 437.511C152.893 437.511 149.675 435.903 147.334 441.269C147.81 441.687 148.375 441.99 148.987 442.155C149.599 442.321 150.24 442.343 150.862 442.222C151.483 442.101 152.069 441.838 152.573 441.455C153.078 441.072 153.487 440.578 153.77 440.011" stroke="#110034" stroke-width="2.31972" stroke-linecap="round" stroke-linejoin="round"/>
<path d="M156.433 450.392C156.433 450.392 146.588 451.957 147.334 445.904Z" fill="#F0A41A"/>
<path d="M156.433 450.392C156.433 450.392 146.588 451.957 147.334 445.904" stroke="#110034" stroke-width="2.31972" stroke-linecap="round" stroke-linejoin="round"/>
<path d="M106.713 455.247C109.676 455.714 112.501 456.822 114.992 458.492C117.347 460.335 118.839 463.654 117.654 466.402" stroke="black" stroke-width="3.20947" stroke-miterlimit="10"/>
<g style="mix-blend-mode:multiply" opacity="0.61">
<path d="M154.311 427.481C153.097 429.791 154.311 432.642 155.774 434.791C157.237 436.941 159.139 439.031 159.373 441.634C159.436 443.165 158.983 444.673 158.086 445.917C157.19 447.16 155.902 448.067 154.428 448.491C152.941 448.869 151.38 448.851 149.901 448.438C148.423 448.025 147.079 447.232 146.003 446.137C141.904 450.161 138.643 454.956 136.407 460.246L141.614 458.682C140.883 461.708 140.239 465.203 142.156 467.673C144.072 470.144 147.29 470.393 150.245 470.598L164.2 471.475C166.248 471.606 169.202 470.641 168.588 468.712C167.725 469.252 169.173 470.276 170.183 470.174L192.227 468.624C189.915 463.565 181.987 463.273 179.617 458.214C179.018 456.883 178.784 455.202 177.54 454.442C176.478 453.97 175.278 453.912 174.176 454.281L158.085 457.556L164.346 464.588C161.552 464.885 158.73 464.441 156.162 463.302C153.594 462.162 151.372 460.367 149.718 458.097L155.73 450.128C156.421 451.153 157.385 451.964 158.512 452.471C159.639 452.977 160.885 453.16 162.11 452.997C163.335 452.835 164.491 452.334 165.447 451.55C166.402 450.767 167.121 449.733 167.52 448.564C167.675 448.159 167.73 447.723 167.681 447.292C167.447 446.093 166.028 445.655 165.063 444.923C162.649 443.096 163.132 439.382 164.039 436.502C164.946 433.622 165.984 430.2 164.156 427.729C165.048 430.317 162.401 433.168 159.68 433.037C158.321 432.869 157.051 432.275 156.052 431.339C155.053 430.404 154.377 429.176 154.121 427.832C153.997 427.273 153.909 426.706 153.858 426.136" fill="#7B297A"/>
</g>
<path fill-rule="evenodd" clip-rule="evenodd" d="M130.354 613.993H45.1123C43.5006 614.102 41.883 614.102 40.2712 613.993H36.923C36.4129 613.988 35.9246 613.784 35.5639 613.423C35.2031 613.062 34.9986 612.574 34.9938 612.064V570.535C34.5207 530.717 34.7937 490.752 34.9938 450.807V241.378C34.9938 190.883 34.9938 140.382 34.9938 89.875V53.6599C34.9938 53.2595 34.9938 52.8592 34.9938 52.4588V49.5288C34.9938 45.8891 34.7755 42.2494 34.9938 38.6097V37.9728C34.9938 37.7908 34.9938 37.6088 34.9938 37.4268L35.1578 35.9709C35.2509 35.7125 35.3665 35.4628 35.5035 35.2248V35.0792C35.5035 34.1147 36.2312 33.8235 37.1411 33.7689C38.1144 33.3539 39.1587 33.1314 40.2166 33.1137C41.9455 32.9863 43.8563 33.1137 45.6762 33.1137H90.8997C112.059 33.1137 133.223 33.1137 154.394 33.1137C204.113 32.859 253.849 32.4586 303.331 33.1137C319.71 33.1137 336.089 33.1744 352.467 33.2957C352.992 33.3737 353.505 33.5143 353.996 33.7143C354.196 33.6963 354.397 33.6963 354.596 33.7143C354.767 33.7265 354.933 33.7697 355.088 33.8417C355.297 33.9514 355.472 34.1163 355.594 34.3184C355.716 34.5205 355.78 34.7521 355.78 34.9882C355.788 35.0668 355.788 35.1461 355.78 35.2248C356.399 36.5333 356.614 37.997 356.398 39.4286C356.453 40.4774 356.453 41.5282 356.398 42.577V608.224C356.453 608.738 356.453 609.257 356.398 609.771C356.398 610.608 356.398 611.427 356.398 612.264C356.333 612.726 356.104 613.149 355.753 613.456C355.403 613.763 354.954 613.934 354.488 613.938H350.666C348.646 614.102 346.425 613.938 344.605 613.938H130.354V613.993ZM352.668 544.729C352.668 503.601 352.71 462.472 352.795 421.343C352.795 326.383 352.795 231.429 352.795 136.481C352.795 134.662 352.795 132.842 352.795 131.022C352.795 130.203 352.576 129.366 352.431 128.547C352.285 127.728 352.194 127.273 352.049 126.727C351.849 125.581 351.576 124.452 351.321 123.324L351.048 122.287C351.048 121.995 350.902 121.704 350.811 121.413C350.755 121.252 350.706 121.088 350.666 120.922C346.735 99.2108 330.374 81.2489 312.449 69.2014C244.004 24.9972 131.064 26.0163 67.2963 78.5373C54.9212 89.4564 44.7847 103.251 41.418 119.557C41.2178 120.558 41.0357 121.54 40.8902 122.541C40.69 123.269 40.5079 124.015 40.3623 124.743C40.2167 125.471 40.1441 125.89 40.0349 126.563L39.7074 128.001H39.5435C39.5435 128.401 39.5435 128.783 39.5435 129.111C39.5435 129.439 39.4523 129.675 39.3977 129.948C39.2522 130.822 39.1431 131.768 39.0521 132.569C39.0521 225.054 39.0521 317.551 39.0521 410.06C39.1249 454.95 39.1675 499.84 39.1796 544.729H162.093C209.482 544.729 256.876 544.729 304.278 544.729H352.849H352.668Z" fill="#5A0E32"/>
<path d="M115.037 562.208L115.416 567.284H113.993L113.186 564.122H106.434V584.348L109.913 584.711V586.056H100.029V584.711L103.477 584.348V564.122H96.7556L95.9016 567.284H94.51L94.8895 562.208H115.037ZM118.674 562.208H126.423V563.552L124.003 563.916V572.946H137.208V563.916L134.804 563.552V562.208H142.553V563.552L140.165 563.916V584.348L142.553 584.711V586.056H134.804V584.711L137.208 584.348V574.843H124.003V584.348L126.423 584.711V586.056H118.674V584.711L121.078 584.348V563.916L118.674 563.552V562.208ZM156.628 574.622H150.808V584.158H159.616L160.755 581.359H161.957L161.435 586.056H145.431V584.711L147.835 584.348V563.916L145.431 563.552V562.208H160.739L161.103 566.905H159.711L158.857 564.122H150.808V572.724H156.628L157.102 571.048H158.225V576.283H157.102L156.628 574.622ZM185.868 582.26L189.932 569.04L189.774 571.143L187.022 563.916L185.045 563.552V562.208H192.446L192.462 563.552L190.153 563.916L196.305 582.15C196.864 580.653 197.386 579.14 197.871 577.611L200.717 568.439C201.202 566.921 201.724 565.413 202.283 563.916L200.006 563.552V562.208H206.078V563.552L204.323 563.853L196.669 586.056H194.961L189.964 571.697L190.738 571.87L186.231 586.056H184.524L175.81 563.916L174.007 563.552V562.208H180.934L181.044 563.552L178.941 563.916L185.868 582.26ZM207.833 562.208H215.582V563.552L213.163 563.916V572.946H226.368V563.916L223.964 563.552V562.208H231.713V563.552L229.325 563.916V584.348L231.713 584.711V586.056H223.964V584.711L226.368 584.348V574.843H213.163V584.348L215.582 584.711V586.056H207.833V584.711L210.237 584.348V563.916L207.833 563.552V562.208ZM245.787 574.622H239.968V584.158H248.776L249.915 581.359H251.117L250.595 586.056H234.591V584.711L236.995 584.348V563.916L234.591 563.552V562.208H249.899L250.263 566.905H248.871L248.017 564.122H239.968V572.724H245.787L246.262 571.048H247.384V576.283H246.262L245.787 574.622ZM264.701 574.622H258.881V584.158H267.69L268.828 581.359H270.03L269.508 586.056H253.504V584.711L255.908 584.348V563.916L253.504 563.552V562.208H268.812L269.176 566.905H267.785L266.931 564.122H258.881V572.724H264.701L265.175 571.048H266.298V576.283H265.175L264.701 574.622ZM280.009 562.208V563.552L277.637 563.916V584.158H286.303L287.236 580.616H288.533L288.39 586.056H272.26V584.711L274.664 584.348V563.916L272.26 563.552V562.208H280.009ZM91.6793 622.988C90.6566 621.923 89.8765 620.668 89.3388 619.224C88.8116 617.769 88.5481 616.304 88.5481 614.828C88.5481 613.341 88.6957 612.029 88.9909 610.89C89.2861 609.751 89.692 608.713 90.2085 607.775C90.7357 606.836 91.363 605.998 92.0904 605.26C92.8284 604.522 93.6349 603.9 94.51 603.394C96.2917 602.361 98.1999 601.844 100.235 601.844C102.269 601.844 104.035 602.145 105.532 602.746C107.029 603.336 108.289 604.153 109.312 605.197C111.389 607.316 112.427 610.099 112.427 613.547C112.427 617.384 111.262 620.515 108.932 622.94C107.857 624.058 106.602 624.917 105.169 625.518C103.745 626.119 102.148 626.419 100.377 626.419C98.6164 626.419 96.9822 626.114 95.4746 625.502C93.9776 624.891 92.7124 624.053 91.6793 622.988ZM94.0039 606.668C93.2343 607.564 92.6386 608.607 92.2169 609.799C91.8058 610.99 91.6002 612.155 91.6002 613.294C91.6002 614.432 91.6845 615.455 91.8532 616.362C92.0219 617.268 92.2696 618.128 92.5965 618.939C92.9338 619.741 93.3503 620.484 93.8458 621.169C94.3518 621.854 94.937 622.445 95.6011 622.94C97.0139 623.995 98.6796 624.522 100.598 624.522C103.224 624.522 105.358 623.631 107.003 621.849C108.616 620.099 109.423 617.817 109.423 615.002C109.423 611.902 108.722 609.324 107.319 607.269C105.717 604.918 103.376 603.742 100.298 603.742C97.7571 603.742 95.6591 604.717 94.0039 606.668ZM127.039 615.002H120.919V624.348L124.509 624.711V626.056H115.543V624.711L117.946 624.348V603.916L115.543 603.552V602.208H131.641L132.005 606.905H130.613L129.759 604.122H120.919V613.088H127.039L127.514 611.412H128.494V616.678H127.514L127.039 615.002ZM156.802 615.002H150.681V624.348L154.271 624.711V626.056H145.305V624.711L147.708 624.348V603.916L145.305 603.552V602.208H161.403L161.767 606.905H160.376L159.522 604.122H150.681V613.088H156.802L157.276 611.412H158.256V616.678H157.276L156.802 615.002ZM167.429 622.988C166.406 621.923 165.626 620.668 165.088 619.224C164.561 617.769 164.297 616.304 164.297 614.828C164.297 613.341 164.445 612.029 164.74 610.89C165.035 609.751 165.441 608.713 165.958 607.775C166.485 606.836 167.112 605.998 167.84 605.26C168.578 604.522 169.384 603.9 170.259 603.394C172.041 602.361 173.949 601.844 175.984 601.844C178.019 601.844 179.785 602.145 181.282 602.746C182.779 603.336 184.039 604.153 185.061 605.197C187.138 607.316 188.177 610.099 188.177 613.547C188.177 617.384 187.012 620.515 184.682 622.94C183.606 624.058 182.352 624.917 180.918 625.518C179.495 626.119 177.897 626.419 176.126 626.419C174.366 626.419 172.732 626.114 171.224 625.502C169.727 624.891 168.462 624.053 167.429 622.988ZM169.753 606.668C168.984 607.564 168.388 608.607 167.966 609.799C167.555 610.99 167.35 612.155 167.35 613.294C167.35 614.432 167.434 615.455 167.603 616.362C167.771 617.268 168.019 618.128 168.346 618.939C168.683 619.741 169.1 620.484 169.595 621.169C170.101 621.854 170.686 622.445 171.35 622.94C172.763 623.995 174.429 624.522 176.348 624.522C178.973 624.522 181.108 623.631 182.752 621.849C184.365 620.099 185.172 617.817 185.172 615.002C185.172 611.902 184.471 609.324 183.069 607.269C181.466 604.918 179.126 603.742 176.047 603.742C173.506 603.742 171.408 604.717 169.753 606.668ZM208.118 605.829C208.403 606.557 208.545 607.385 208.545 608.312C208.545 609.24 208.398 610.083 208.102 610.843C207.818 611.602 207.401 612.255 206.853 612.803C205.809 613.847 204.275 614.58 202.251 615.002L202.536 614.48L208.782 623.968L209.889 624.458L212.119 624.711V626.056H206.695L199.579 614.685L200.907 615.255H196.669V624.348L199.041 624.711V626.056H191.292V624.711L193.743 624.348V603.916L191.292 603.552V602.208H199.088C204.138 602.208 207.148 603.415 208.118 605.829ZM196.669 604.122V613.547H199.009C202.425 613.547 204.491 612.55 205.208 610.558C205.43 609.957 205.54 609.309 205.54 608.613C205.54 607.906 205.44 607.274 205.24 606.715C205.04 606.156 204.702 605.687 204.228 605.308C203.247 604.517 201.587 604.122 199.246 604.122H196.669ZM233.99 602.208L234.369 607.284H232.946L232.14 604.122H225.387V624.348L228.866 624.711V626.056H218.982V624.711L222.43 624.348V604.122H215.709L214.855 607.284H213.463L213.843 602.208H233.99ZM248.555 626.419C242.24 626.419 239.082 623.446 239.082 617.5V603.916L236.631 603.552V602.208H244.538V603.552L242.008 603.916V617.026C242.008 620.916 243.246 623.283 245.724 624.126C246.515 624.39 247.469 624.522 248.586 624.522C249.714 624.522 250.726 624.379 251.623 624.095C252.519 623.81 253.262 623.362 253.852 622.751C255.023 621.538 255.608 619.63 255.608 617.026V603.916L253.188 603.552V602.208H259.814V603.552L257.426 603.916V617.5C257.426 620.347 256.662 622.545 255.133 624.095C253.605 625.644 251.412 626.419 248.555 626.419ZM266.172 606.794V624.348L268.575 624.711V626.056H261.902V624.711L264.353 624.348V603.916L261.902 603.552V602.208H266.266L281.59 621.47V603.916L279.202 603.552V602.208H285.828V603.552L283.44 603.916V626.056H281.48L266.172 606.794ZM299.903 614.622H294.083V624.158H302.892L304.03 621.359H305.232L304.71 626.056H288.707V624.711L291.11 624.348V603.916L288.707 603.552V602.208H304.015L304.378 606.905H302.987L302.133 604.122H294.083V612.724H299.903L300.377 611.048H301.5V616.283H300.377L299.903 614.622Z" fill="#F4E5CC"/>
</svg>
