<svg width="394" height="650" viewBox="0 0 394 650" fill="none" xmlns="http://www.w3.org/2000/svg">
<path fill-rule="evenodd" clip-rule="evenodd" d="M16.8299 0.0013227H377.161C381.3 -0.0523934 385.293 1.53188 388.269 4.40892C391.244 7.28595 392.962 11.2226 393.048 15.3609V634.639C392.962 638.777 391.244 642.714 388.269 645.591C385.293 648.468 381.3 650.052 377.161 649.999H16.8299C12.691 650.052 8.69875 648.468 5.72285 645.591C2.74696 642.714 1.02871 638.777 0.942627 634.639V15.3609C1.02871 11.2226 2.74696 7.28595 5.72285 4.40892C8.69875 1.53188 12.691 -0.0523934 16.8299 0.0013227Z" fill="#5A0E32"/>
<path d="M355.512 34.6865H37.7112V611.671H355.512V34.6865Z" fill="#F4E5CC"/>
<path fill-rule="evenodd" clip-rule="evenodd" d="M131.142 613.6H45.9004C44.2887 613.709 42.6711 613.709 41.0593 613.6H37.7111C37.2009 613.595 36.7127 613.391 36.352 613.03C35.9912 612.669 35.7867 612.181 35.7819 611.671V570.142C35.3088 530.324 35.5817 490.36 35.7819 450.414V240.985C35.7819 190.49 35.7819 139.989 35.7819 89.4822V53.2671C35.7819 52.8667 35.7819 52.4663 35.7819 52.066V49.136C35.7819 45.4963 35.5635 41.8566 35.7819 38.2169V37.5799C35.7819 37.3979 35.7819 37.216 35.7819 37.034L35.9459 35.5781C36.039 35.3197 36.1546 35.07 36.2915 34.8319V34.6864C36.2915 33.7218 37.0193 33.4307 37.9292 33.3761C38.9025 32.9611 39.9468 32.7386 41.0047 32.7209C42.7335 32.5935 44.6444 32.7209 46.4642 32.7209H91.6878C112.847 32.7209 134.011 32.7209 155.182 32.7209C204.901 32.4661 254.638 32.0658 304.119 32.7209C320.498 32.7209 336.877 32.7816 353.255 32.9029C353.78 32.9809 354.293 33.1214 354.784 33.3215C354.984 33.3035 355.185 33.3035 355.384 33.3215C355.555 33.3337 355.721 33.3768 355.876 33.4489C356.085 33.5586 356.26 33.7234 356.382 33.9256C356.504 34.1277 356.568 34.3593 356.568 34.5954C356.576 34.674 356.576 34.7533 356.568 34.8319C357.187 36.1405 357.403 37.6042 357.186 39.0358C357.241 40.0845 357.241 41.1354 357.186 42.1842V607.831C357.241 608.345 357.241 608.864 357.186 609.378C357.186 610.215 357.186 611.034 357.186 611.871C357.121 612.333 356.892 612.756 356.541 613.063C356.191 613.37 355.742 613.542 355.276 613.546H351.454C349.434 613.709 347.213 613.546 345.394 613.546H131.142V613.6ZM353.456 544.337C353.456 503.208 353.498 462.079 353.583 420.95C353.583 325.99 353.583 231.036 353.583 136.089C353.583 134.269 353.583 132.449 353.583 130.629C353.583 129.81 353.365 128.973 353.219 128.154C353.073 127.335 352.982 126.88 352.837 126.334C352.637 125.188 352.364 124.059 352.109 122.931L351.836 121.894C351.836 121.603 351.69 121.311 351.599 121.02C351.543 120.859 351.494 120.695 351.454 120.529C347.523 98.818 331.162 80.8561 313.237 68.8086C244.792 24.6044 131.852 25.6235 68.0843 78.1445C55.7093 89.0636 45.5728 102.858 42.2061 119.164C42.0059 120.165 41.8238 121.148 41.6782 122.149C41.4781 122.877 41.296 123.623 41.1504 124.351C41.0048 125.079 40.9322 125.497 40.823 126.17L40.4955 127.608H40.3316C40.3316 128.008 40.3316 128.391 40.3316 128.718C40.3316 129.046 40.2404 129.282 40.1858 129.555C40.0402 130.429 39.9312 131.375 39.8402 132.176C39.8402 224.661 39.8402 317.158 39.8402 409.667C39.913 454.557 39.9556 499.447 39.9677 544.337H162.881C210.27 544.337 257.665 544.337 305.066 544.337H353.638H353.456Z" fill="#5A0E32"/>
<path d="M103.596 602.437C104.453 602.437 105.229 602.356 105.923 602.194C106.63 602.021 107.237 601.754 107.747 601.395C108.835 600.643 109.379 599.543 109.379 598.096C109.379 596.869 108.98 595.862 108.181 595.074C107.336 594.264 105.964 593.448 104.065 592.626C102.178 591.792 100.737 591.051 99.7411 590.403C98.7571 589.743 97.9814 589.077 97.4141 588.406C96.3838 587.225 95.8686 585.795 95.8686 584.117C95.8686 582.172 96.7079 580.568 98.3866 579.306C99.9495 578.114 101.842 577.518 104.065 577.518C105.813 577.518 107.561 577.836 109.31 578.473C110.039 578.762 110.699 579.081 111.289 579.428L110.682 584.065H109.223C109.223 582.467 108.789 581.309 107.92 580.591C107.052 579.862 105.796 579.497 104.152 579.497C101.883 579.497 100.332 580.238 99.498 581.72C99.2317 582.206 99.0986 582.751 99.0986 583.353C99.0986 583.955 99.1854 584.499 99.3591 584.985C99.5327 585.46 99.8685 585.928 100.366 586.392C101.339 587.329 103.168 588.36 105.854 589.483C109.605 591.08 111.793 592.967 112.418 595.144C112.603 595.827 112.696 596.556 112.696 597.332C112.696 598.096 112.563 598.825 112.297 599.52C112.042 600.203 111.689 600.817 111.237 601.361C110.786 601.893 110.259 602.356 109.657 602.75C109.066 603.144 108.436 603.468 107.764 603.722C104.789 604.88 101.663 604.788 98.3866 603.445C97.1942 602.947 96.1407 602.339 95.2261 601.621L95.9554 596.637H97.4315C97.4315 598.964 98.1666 600.585 99.6369 601.5C100.644 602.125 101.964 602.437 103.596 602.437ZM138.605 577.917L139.022 583.491H137.459L136.574 580.018H129.159V602.229L132.979 602.628V604.104H122.125V602.628L125.911 602.229V580.018H118.531L117.593 583.491H116.065L116.482 577.917H138.605ZM160.625 581.894C160.938 582.693 161.094 583.601 161.094 584.62C161.094 585.639 160.932 586.565 160.608 587.399C160.295 588.232 159.838 588.95 159.236 589.552C158.09 590.698 156.405 591.503 154.182 591.966L154.495 591.393L161.355 601.812L162.57 602.351L165.019 602.628V604.104H159.062L151.248 591.619L152.706 592.244H148.052V602.229L150.657 602.628V604.104H142.148V602.628L144.84 602.229V579.793L142.148 579.393V577.917H150.709C156.255 577.917 159.56 579.243 160.625 581.894ZM148.052 580.018V590.368H150.623C154.374 590.368 156.643 589.274 157.43 587.086C157.673 586.426 157.795 585.714 157.795 584.95C157.795 584.175 157.685 583.48 157.465 582.866C157.245 582.253 156.874 581.738 156.353 581.321C155.277 580.452 153.453 580.018 150.883 580.018H148.052ZM178.338 591.549H171.948V602.021H181.62L182.871 598.947H184.19L183.617 604.104H166.043V602.628L168.683 602.229V579.793L166.043 579.393V577.917H182.853L183.253 583.075H181.724L180.787 580.018H171.948V589.465H178.338L178.859 587.624H180.092V593.373H178.859L178.338 591.549ZM191.727 582.953V602.229L194.367 602.628V604.104H187.038V602.628L189.73 602.229V579.793L187.038 579.393V577.917H191.831L208.659 599.068V579.793L206.036 579.393V577.917H213.313V579.393L210.69 579.793V604.104H208.537L191.727 582.953ZM232.45 592.313H242.713V594.189H241.74C241.393 594.189 241.127 594.247 240.941 594.362C240.768 594.467 240.681 594.669 240.681 594.97V602.472C239.847 602.472 238.921 602.646 237.902 602.993L235.68 603.722C234.024 604.243 232.235 604.504 230.314 604.504C228.403 604.504 226.592 604.162 224.878 603.479C223.176 602.785 221.723 601.841 220.519 600.649C219.315 599.456 218.383 598.055 217.723 596.446C217.075 594.837 216.751 593.222 216.751 591.601C216.751 589.969 216.919 588.533 217.255 587.295C217.602 586.056 218.082 584.927 218.696 583.908C219.31 582.889 220.039 581.986 220.884 581.199C221.741 580.4 222.678 579.729 223.697 579.185C225.793 578.073 228.073 577.518 230.539 577.518C234.348 577.518 237.37 578.108 239.604 579.289L239.205 583.578H238.059C238.059 582.513 237.399 581.604 236.079 580.852C234.62 580.018 232.745 579.602 230.452 579.602C227.477 579.602 225.005 580.672 223.037 582.814C221.116 584.898 220.155 587.428 220.155 590.403C220.155 593.668 221.058 596.446 222.864 598.739C224.809 601.193 227.431 602.42 230.73 602.42C234.366 602.42 236.507 601.639 237.156 600.076C237.352 599.589 237.451 599.063 237.451 598.495V594.97C237.451 594.658 237.358 594.449 237.173 594.345C236.999 594.241 236.762 594.189 236.461 594.189H232.45V592.313ZM269.126 577.917L269.543 583.491H267.98L267.094 580.018H259.679V602.229L263.499 602.628V604.104H252.646V602.628L256.432 602.229V580.018H249.051L248.113 583.491H246.585L247.002 577.917H269.126ZM273.12 577.917H281.629V579.393L278.972 579.793V589.708H293.472V579.793L290.833 579.393V577.917H299.342V579.393L296.72 579.793V602.229L299.342 602.628V604.104H290.833V602.628L293.472 602.229V591.792H278.972V602.229L281.629 602.628V604.104H273.12V602.628L275.759 602.229V579.793L273.12 579.393V577.917Z" fill="#F4E5CC"/>
<path d="M210.073 142.869C211.886 122.187 215.851 101.752 221.905 81.8933" stroke="#7A4E04" stroke-width="2.38327" stroke-linecap="round" stroke-linejoin="round"/>
<path d="M251.025 153.992C262.217 136.401 275.207 120.02 289.785 105.113" stroke="#7A4E04" stroke-width="2.38327" stroke-linecap="round" stroke-linejoin="round"/>
<path d="M277.771 179.025C291.399 167.142 306.015 156.44 321.459 147.038" stroke="#7A4E04" stroke-width="2.38327" stroke-linecap="round" stroke-linejoin="round"/>
<path d="M288.912 211.013C304.928 209.273 320.719 205.865 336.028 200.845" stroke="#7A4E04" stroke-width="2.38327" stroke-linecap="round" stroke-linejoin="round"/>
<path d="M290.444 244.072C308.023 248.334 325.337 253.366 342.388 259.167" stroke="#7A4E04" stroke-width="2.38327" stroke-linecap="round" stroke-linejoin="round"/>
<path d="M266.071 273.817C280.499 283.86 294.1 295.041 306.743 307.255" stroke="#7A4E04" stroke-width="2.38327" stroke-linecap="round" stroke-linejoin="round"/>
<path d="M242.06 297.927L274.442 337.874" stroke="#7A4E04" stroke-width="2.38327" stroke-linecap="round" stroke-linejoin="round"/>
<path d="M211.935 312.973C215.692 329.013 219.169 345.114 222.366 361.275" stroke="#7A4E04" stroke-width="2.38327" stroke-linecap="round" stroke-linejoin="round"/>
<path d="M180.359 308.754C178.625 327.637 175.496 346.365 170.999 364.786" stroke="#7A4E04" stroke-width="2.38327" stroke-linecap="round" stroke-linejoin="round"/>
<path d="M147.268 303.069C135.556 316.572 124.048 330.239 112.743 344.071" stroke="#7A4E04" stroke-width="2.38327" stroke-linecap="round" stroke-linejoin="round"/>
<path d="M73.2075 302.196C103.448 290.066 111.523 278.382 122.07 276.718" stroke="#7A4E04" stroke-width="2.38327" stroke-linecap="round" stroke-linejoin="round"/>
<path d="M50.7292 253.58C70.768 253.631 90.7226 250.987 110.057 245.719" stroke="#7A4E04" stroke-width="2.38327" stroke-linecap="round" stroke-linejoin="round"/>
<path d="M59.4304 199.362C77.3542 202.23 95.4117 204.188 113.534 205.228" stroke="#7A4E04" stroke-width="2.38327" stroke-linecap="round" stroke-linejoin="round"/>
<path d="M82.7493 140.825C98.2732 151.241 113.424 162.189 128.201 173.67" stroke="#7A4E04" stroke-width="2.38327" stroke-linecap="round" stroke-linejoin="round"/>
<path d="M142.521 100.829L171.839 152.361" stroke="#7A4E04" stroke-width="2.38327" stroke-linecap="round" stroke-linejoin="round"/>
<path d="M186.424 146.313C182.993 133.697 181.368 120.658 181.595 107.585" stroke="#7A4E04" stroke-width="2.38327" stroke-linecap="round" stroke-linejoin="round"/>
<path d="M233.029 147.137C234.301 139.034 236.896 131.195 240.708 123.933" stroke="#7A4E04" stroke-width="2.38327" stroke-linecap="round" stroke-linejoin="round"/>
<path d="M265.428 163.32C271.066 157.124 277.493 151.694 284.544 147.17" stroke="#7A4E04" stroke-width="2.38327" stroke-linecap="round" stroke-linejoin="round"/>
<path d="M284.627 193.676L311.242 185.865" stroke="#7A4E04" stroke-width="2.38327" stroke-linecap="round" stroke-linejoin="round"/>
<path d="M290.609 225.416C298.237 226.984 306.039 227.539 313.813 227.064" stroke="#7A4E04" stroke-width="2.38327" stroke-linecap="round" stroke-linejoin="round"/>
<path d="M283.16 262.562L304.222 272.104" stroke="#7A4E04" stroke-width="2.38327" stroke-linecap="round" stroke-linejoin="round"/>
<path d="M259.94 288.682C264.252 292.712 268.144 297.168 271.559 301.981" stroke="#7A4E04" stroke-width="2.38327" stroke-linecap="round" stroke-linejoin="round"/>
<path d="M229.173 307.7C233.096 315.231 236.403 323.068 239.06 331.134" stroke="#7A4E04" stroke-width="2.38327" stroke-linecap="round" stroke-linejoin="round"/>
<path d="M196.888 313.072V337.133" stroke="#7A4E04" stroke-width="2.38327" stroke-linecap="round" stroke-linejoin="round"/>
<path d="M163.253 310.436C158.932 319.956 153.512 328.939 147.103 337.199" stroke="#7A4E04" stroke-width="2.38327" stroke-linecap="round" stroke-linejoin="round"/>
<path d="M127.278 295.9C119.205 300.367 111.958 306.187 105.854 313.105" stroke="#7A4E04" stroke-width="2.38327" stroke-linecap="round" stroke-linejoin="round"/>
<path d="M79.9478 273.422C89.3529 272.191 98.5901 269.908 107.486 266.616" stroke="#7A4E04" stroke-width="2.38327" stroke-linecap="round" stroke-linejoin="round"/>
<path d="M77.3936 226.24C86.2361 227.284 95.1539 227.537 104.041 226.999" stroke="#7A4E04" stroke-width="2.38327" stroke-linecap="round" stroke-linejoin="round"/>
<path d="M90.231 179.091C99.2839 182.826 108.474 186.21 117.802 189.243" stroke="#7A4E04" stroke-width="2.38327" stroke-linecap="round" stroke-linejoin="round"/>
<path d="M123.521 137.117L146.493 159.711" stroke="#7A4E04" stroke-width="2.38327" stroke-linecap="round" stroke-linejoin="round"/>
<path d="M196.559 123.785C198.665 123.818 200.751 123.367 202.656 122.467C201.269 125.475 200.597 128.763 200.695 132.075C203.488 132.038 206.167 130.963 208.21 129.059C209.14 132.212 209.541 135.498 209.397 138.782C208.326 137.745 206.994 137.019 205.543 136.679C204.092 136.34 202.576 136.4 201.157 136.854C201.585 146.56 202.475 147.582 196.641 144.682C190.807 147.582 191.697 146.56 192.142 136.854C190.709 136.381 189.173 136.31 187.703 136.65C186.232 136.99 184.884 137.728 183.804 138.782C183.668 135.498 184.069 132.214 184.99 129.059C187.035 130.96 189.713 132.035 192.505 132.075C192.618 128.764 191.952 125.473 190.56 122.467C192.434 123.354 194.485 123.805 196.559 123.785Z" fill="#FFC259" stroke="#3C3930" stroke-width="2.38327" stroke-linecap="round" stroke-linejoin="round"/>
<path d="M196.559 156.926C231.331 156.926 266.104 174.51 262.083 209.661C258.506 240.973 236.687 224.691 196.559 222.021C156.447 224.691 134.628 240.923 131.052 209.661C126.998 174.51 161.786 156.926 196.559 156.926Z" fill="#F0433D" stroke="#3C3930" stroke-width="2.38327" stroke-linecap="round" stroke-linejoin="round"/>
<path d="M196.559 223.504C209.15 220.076 210.072 184.2 199.426 162.265C230.211 182.041 241.483 197.68 226.849 229.289C245.372 237.314 274.64 193.313 207.716 163.369C220.999 160.386 243.79 170.653 253.052 189.407C263.731 211.045 251.058 226.042 250.942 229.354C250.464 242.538 282.254 207.057 260.253 181.464C246.114 164.984 221.345 156.86 196.559 156.843C171.773 156.827 147.021 165.083 132.881 181.464C110.782 207.057 142.654 242.555 142.192 229.354C142.077 226.058 129.404 211.045 140.083 189.407C149.328 170.653 172.136 160.386 185.419 163.369C118.395 193.363 147.762 237.364 166.286 229.289C151.635 197.68 162.99 182.09 193.708 162.265C183.029 184.216 183.985 220.076 196.559 223.504Z" fill="#FFC259" stroke="#3C3930" stroke-width="2.38327" stroke-linecap="round" stroke-linejoin="round"/>
<path d="M196.559 240.413C254.354 240.578 245.669 256.085 255.326 230.706C255.854 229.306 255.54 228.762 254.255 228.383C229.535 221.329 213.055 217.786 196.576 217.786C180.096 217.786 163.616 221.329 138.896 228.383C137.611 228.762 137.248 229.306 137.842 230.706C147.466 256.085 138.781 240.578 196.559 240.413Z" fill="#E28E40" stroke="#3C3930" stroke-width="2.38327" stroke-linecap="round" stroke-linejoin="round"/>
<path d="M196.559 142.49C210.534 142.226 205.837 161.128 196.559 161.079C187.281 161.03 182.6 142.226 196.559 142.49Z" fill="#E28E40" stroke="#3C3930" stroke-width="2.38327" stroke-linecap="round" stroke-linejoin="round"/>
<path d="M197.696 175.384C201.223 174.477 201.388 168.594 196.971 169.368C196.116 169.487 195.341 169.937 194.814 170.622C194.287 171.306 194.05 172.169 194.153 173.027C194.172 173.441 194.288 173.845 194.492 174.206C194.696 174.567 194.982 174.874 195.327 175.104C195.672 175.333 196.066 175.478 196.478 175.527C196.89 175.576 197.307 175.526 197.696 175.384Z" fill="#F0433D" stroke="#3C3930" stroke-width="2.38327" stroke-linecap="round" stroke-linejoin="round"/>
<path d="M232.468 186.787C235.995 185.881 236.16 179.998 231.743 180.772C230.888 180.891 230.113 181.341 229.586 182.025C229.059 182.71 228.822 183.573 228.925 184.431C228.947 184.843 229.066 185.245 229.27 185.604C229.475 185.963 229.761 186.269 230.105 186.498C230.45 186.727 230.842 186.873 231.253 186.923C231.663 186.973 232.079 186.927 232.468 186.787Z" fill="#F0433D" stroke="#3C3930" stroke-width="2.38327" stroke-linecap="round" stroke-linejoin="round"/>
<path d="M240.708 199.823C244.218 198.917 244.4 193.034 239.983 193.808C239.128 193.927 238.353 194.377 237.826 195.061C237.299 195.746 237.062 196.609 237.165 197.467C237.187 197.879 237.305 198.281 237.51 198.64C237.715 198.999 238.001 199.305 238.345 199.534C238.689 199.763 239.082 199.908 239.492 199.959C239.903 200.009 240.319 199.962 240.708 199.823Z" fill="#F0433D" stroke="#3C3930" stroke-width="2.38327" stroke-linecap="round" stroke-linejoin="round"/>
<path d="M240.708 215.314C244.218 214.392 244.4 208.525 239.983 209.299C239.128 209.418 238.353 209.868 237.826 210.552C237.299 211.237 237.062 212.1 237.165 212.958C237.187 213.371 237.305 213.772 237.51 214.131C237.715 214.49 238.001 214.796 238.345 215.025C238.689 215.254 239.082 215.4 239.492 215.45C239.903 215.5 240.319 215.454 240.708 215.314Z" fill="#F0433D" stroke="#3C3930" stroke-width="2.38327" stroke-linecap="round" stroke-linejoin="round"/>
<path d="M253.727 183.195C257.254 182.288 257.419 176.405 253.002 177.18C252.571 177.238 252.155 177.382 251.779 177.602C251.404 177.822 251.075 178.115 250.813 178.463C250.551 178.81 250.361 179.207 250.253 179.629C250.145 180.051 250.122 180.49 250.184 180.921C250.215 181.328 250.34 181.722 250.549 182.072C250.758 182.423 251.046 182.72 251.389 182.94C251.733 183.161 252.123 183.299 252.528 183.343C252.934 183.387 253.345 183.336 253.727 183.195Z" fill="#F0433D" stroke="#3C3930" stroke-width="2.38327" stroke-linecap="round" stroke-linejoin="round"/>
<path d="M261.704 196.725C265.23 195.802 265.395 189.919 260.979 190.71C260.123 190.829 259.349 191.279 258.822 191.963C258.295 192.647 258.057 193.511 258.161 194.368C258.183 194.781 258.301 195.183 258.506 195.542C258.711 195.901 258.997 196.207 259.341 196.436C259.685 196.665 260.078 196.81 260.488 196.86C260.898 196.91 261.315 196.864 261.704 196.725Z" fill="#F0433D" stroke="#3C3930" stroke-width="2.38327" stroke-linecap="round" stroke-linejoin="round"/>
<path d="M263.319 211.721C266.829 210.815 266.994 204.932 262.577 205.706C261.725 205.829 260.954 206.281 260.431 206.965C259.907 207.648 259.672 208.51 259.775 209.365C259.797 209.778 259.916 210.179 260.12 210.538C260.325 210.897 260.611 211.204 260.955 211.432C261.3 211.661 261.692 211.807 262.103 211.857C262.513 211.907 262.929 211.861 263.319 211.721Z" fill="#F0433D" stroke="#3C3930" stroke-width="2.38327" stroke-linecap="round" stroke-linejoin="round"/>
<path d="M137.693 183.195C134.166 182.288 134.002 176.405 138.418 177.18C138.85 177.238 139.265 177.382 139.641 177.602C140.017 177.822 140.345 178.115 140.607 178.463C140.869 178.81 141.06 179.207 141.168 179.629C141.276 180.051 141.299 180.49 141.236 180.921C141.205 181.328 141.081 181.722 140.871 182.072C140.662 182.423 140.375 182.72 140.031 182.94C139.688 183.161 139.298 183.299 138.892 183.343C138.486 183.387 138.076 183.336 137.693 183.195Z" fill="#F0433D" stroke="#3C3930" stroke-width="2.38327" stroke-linecap="round" stroke-linejoin="round"/>
<path d="M129.717 196.725C126.19 195.802 126.025 189.919 130.442 190.71C131.297 190.829 132.072 191.279 132.599 191.963C133.126 192.647 133.363 193.511 133.26 194.368C133.238 194.781 133.12 195.183 132.915 195.542C132.71 195.901 132.424 196.207 132.08 196.436C131.736 196.665 131.343 196.81 130.933 196.86C130.522 196.91 130.106 196.864 129.717 196.725Z" fill="#F0433D" stroke="#3C3930" stroke-width="2.38327" stroke-linecap="round" stroke-linejoin="round"/>
<path d="M128.118 211.721C124.591 210.815 124.427 204.932 128.843 205.706C129.699 205.825 130.473 206.275 131 206.96C131.527 207.644 131.765 208.507 131.661 209.365C131.639 209.778 131.521 210.179 131.316 210.538C131.111 210.897 130.825 211.204 130.481 211.432C130.137 211.661 129.744 211.807 129.334 211.857C128.924 211.907 128.507 211.861 128.118 211.721Z" fill="#F0433D" stroke="#3C3930" stroke-width="2.38327" stroke-linecap="round" stroke-linejoin="round"/>
<path d="M160.056 186.787C156.529 185.881 156.365 179.998 160.781 180.772C161.637 180.891 162.411 181.341 162.938 182.025C163.465 182.71 163.703 183.573 163.599 184.431C163.577 184.843 163.459 185.245 163.254 185.604C163.049 185.963 162.763 186.269 162.419 186.498C162.075 186.727 161.682 186.873 161.272 186.923C160.862 186.973 160.445 186.927 160.056 186.787Z" fill="#F0433D" stroke="#3C3930" stroke-width="2.38327" stroke-linecap="round" stroke-linejoin="round"/>
<path d="M151.816 199.823C148.289 198.917 148.125 193.034 152.541 193.808C153.384 193.927 154.148 194.368 154.673 195.037C155.198 195.707 155.444 196.554 155.359 197.401C155.347 197.819 155.236 198.229 155.036 198.596C154.835 198.963 154.55 199.278 154.205 199.514C153.859 199.751 153.463 199.902 153.048 199.955C152.632 200.009 152.21 199.964 151.816 199.823Z" fill="#F0433D" stroke="#3C3930" stroke-width="2.38327" stroke-linecap="round" stroke-linejoin="round"/>
<path d="M151.816 215.314C148.289 214.392 148.125 208.525 152.541 209.299C153.397 209.418 154.171 209.868 154.698 210.552C155.225 211.237 155.463 212.1 155.359 212.958C155.337 213.371 155.219 213.772 155.014 214.131C154.809 214.49 154.523 214.796 154.179 215.025C153.835 215.254 153.442 215.4 153.032 215.45C152.622 215.5 152.205 215.454 151.816 215.314Z" fill="#F0433D" stroke="#3C3930" stroke-width="2.38327" stroke-linecap="round" stroke-linejoin="round"/>
<path d="M197.696 191.319C201.223 190.413 201.388 184.53 196.971 185.304C196.116 185.423 195.341 185.873 194.814 186.557C194.287 187.242 194.05 188.105 194.153 188.963C194.172 189.377 194.288 189.781 194.492 190.142C194.696 190.502 194.982 190.81 195.327 191.04C195.672 191.269 196.066 191.414 196.478 191.463C196.89 191.511 197.307 191.462 197.696 191.319Z" fill="#F0433D" stroke="#3C3930" stroke-width="2.38327" stroke-linecap="round" stroke-linejoin="round"/>
<path d="M197.696 207.288C201.223 206.382 201.388 200.499 196.971 201.273C196.116 201.392 195.341 201.842 194.814 202.526C194.287 203.211 194.05 204.074 194.153 204.932C194.175 205.344 194.293 205.746 194.498 206.105C194.703 206.464 194.989 206.77 195.333 206.999C195.677 207.228 196.07 207.374 196.48 207.424C196.891 207.474 197.307 207.428 197.696 207.288Z" fill="#F0433D" stroke="#3C3930" stroke-width="2.38327" stroke-linecap="round" stroke-linejoin="round"/>
<path d="M251.981 261.408C241.961 257.436 236.918 240.709 252.936 234.002C257.287 232.189 272.135 229.272 275.349 232.684C280.639 238.287 272.02 269.302 251.981 261.408Z" fill="#F6DB86" stroke="#3C3930" stroke-width="2.38327" stroke-linecap="round" stroke-linejoin="round"/>
<path d="M141.154 261.408C151.157 257.436 156.216 240.709 140.198 234.002C135.831 232.189 120.999 229.272 117.785 232.684C112.495 238.287 121.197 269.302 141.154 261.408Z" fill="#F6DB86" stroke="#3C3930" stroke-width="2.38327" stroke-linecap="round" stroke-linejoin="round"/>
<path d="M254.469 242.357C259.413 239.062 277.343 233.079 268.164 248.257C257.798 265.396 239.571 252.657 254.469 242.357Z" fill="#FFC259" stroke="#3C3930" stroke-width="2.38327" stroke-linecap="round" stroke-linejoin="round"/>
<path d="M138.649 242.357C133.705 239.062 115.792 233.079 124.971 248.257C135.337 265.396 153.547 252.657 138.649 242.357Z" fill="#FFC259" stroke="#3C3930" stroke-width="2.38327" stroke-linecap="round" stroke-linejoin="round"/>
<path d="M196.559 216.55C210.089 247.647 194.515 219.417 209.874 210.304C207.897 213.171 208.226 216.896 208.671 220.423C211.391 242.687 206.282 214.374 221.855 209.332C219.575 212.072 217.91 215.272 216.975 218.712C216.04 222.153 215.855 225.754 216.433 229.272C218.081 223.175 221.74 217.258 227.541 214.786C225.545 216.696 223.971 219.002 222.921 221.557C221.871 224.111 221.367 226.857 221.443 229.618C222.59 226.123 224.536 222.945 227.129 220.335C229.721 217.726 232.887 215.758 236.374 214.589C233.956 216.699 232.078 219.358 230.897 222.342C229.716 225.327 229.266 228.55 229.584 231.744C231.524 228.645 234.229 226.096 237.438 224.344C240.647 222.592 244.254 221.696 247.91 221.741C244.591 222.764 241.731 224.907 239.818 227.806C227.59 245.027 244.169 232.337 249.871 224.889C248.552 231.794 243.955 237.726 238.335 242.077C241.518 241.26 244.506 239.819 247.129 237.839C249.751 235.859 251.954 233.378 253.612 230.541C253.694 238.039 246.443 242.769 243.559 249.279C243.889 249.378 258.391 247.631 260.039 253.695C258.283 253.223 256.432 253.244 254.687 253.756C252.943 254.267 251.373 255.25 250.151 256.596C257.6 254.124 268.938 261.688 272.811 267.736C275.233 271.51 276.733 276.256 280.655 278.448C273.816 281.892 268.592 272.219 275.86 285.6C277.277 288.221 279.633 290.676 282.616 290.857C281.193 291.498 279.637 291.785 278.079 291.697C276.522 291.608 275.008 291.144 273.668 290.346C274.488 292.245 275.884 293.839 277.657 294.903C279.431 295.968 281.494 296.449 283.556 296.279C272.976 307.634 281.693 285.304 285.78 316.549C287.033 326.206 291.878 325.481 292.01 328.085C285.747 328.959 281.512 323.273 278.299 318.494C301.7 349.707 275.25 359.562 291.482 373.009C289.126 373.623 286.639 373.501 284.353 372.662C282.068 371.823 280.093 370.305 278.694 368.312C284.709 372.614 282.418 383.276 279.732 390.165C279.658 388.567 279.202 387.01 278.402 385.625C277.602 384.24 276.481 383.067 275.134 382.205C276.535 385.616 275.662 389.637 277.161 392.999C280.276 399.954 288.483 398.668 283.951 417.307C282.325 413.452 279.632 410.142 276.189 407.765C289.373 426.651 271.146 426.453 281.133 441.862C278.524 441.54 276.027 440.613 273.84 439.154C271.654 437.694 269.84 435.743 268.543 433.457C273.734 442.092 269.581 454.535 262.84 463.549C263.155 462.022 263.143 460.445 262.805 458.923C262.467 457.4 261.811 455.967 260.879 454.716C260.711 457.921 259.782 461.039 258.168 463.813C256.555 466.587 254.304 468.937 251.601 470.668C253.348 469.531 252.244 467.372 250.942 465.724C239.555 451.519 252.046 460.583 236.456 472.926C231.71 476.684 226.173 479.848 223.157 485.088C222.482 480.018 223.188 474.86 225.201 470.158C208.572 482.847 205.194 493.658 196.526 500.678C187.857 493.658 184.479 482.847 167.867 470.158C169.882 474.859 170.583 480.02 169.894 485.088C166.895 479.848 161.341 476.684 156.612 472.926C141.005 460.583 153.513 451.502 142.126 465.724C140.808 467.372 139.72 469.515 141.45 470.668C138.751 468.934 136.502 466.584 134.889 463.81C133.276 461.037 132.345 457.92 132.172 454.716C131.241 455.985 130.592 457.439 130.268 458.979C129.944 460.519 129.953 462.111 130.293 463.648C123.537 454.634 119.4 442.224 124.575 433.556C123.28 435.844 121.466 437.796 119.279 439.256C117.093 440.716 114.594 441.642 111.984 441.961C122.021 426.552 103.876 426.75 116.928 407.864C113.494 410.25 110.803 413.557 109.166 417.406C104.651 398.767 112.858 400.052 115.956 393.098C117.456 389.802 116.599 385.715 117.999 382.304C116.653 383.168 115.532 384.342 114.73 385.726C113.928 387.11 113.467 388.666 113.385 390.263C110.715 383.375 108.441 372.712 114.423 368.411C113.026 370.406 111.051 371.925 108.765 372.764C106.479 373.604 103.991 373.724 101.635 373.108C117.884 359.66 91.434 349.806 114.819 318.593C111.622 323.372 107.37 329.057 101.108 328.184C101.24 325.547 106.052 326.272 107.354 316.648C111.441 285.337 120.158 307.733 109.562 296.378C111.605 296.501 113.636 295.987 115.375 294.906C117.113 293.826 118.474 292.233 119.268 290.346C117.931 291.144 116.42 291.608 114.865 291.696C113.31 291.785 111.756 291.498 110.336 290.857C113.303 290.676 115.676 288.221 117.093 285.6C124.344 272.219 119.12 281.892 112.281 278.448C116.203 276.256 117.703 271.51 120.125 267.736C123.998 261.688 135.336 254.124 142.802 256.596C141.579 255.25 140.01 254.267 138.265 253.756C136.521 253.244 134.669 253.223 132.914 253.695C134.479 247.664 149.031 249.378 149.393 249.279C146.493 242.687 139.258 238.039 139.324 230.541C140.984 233.377 143.188 235.856 145.81 237.836C148.432 239.816 151.42 241.257 154.601 242.077C149.08 237.726 144.466 231.794 143.164 224.889C148.866 232.337 165.445 245.027 153.2 227.806C151.295 224.904 148.44 222.755 145.125 221.724C148.784 221.678 152.393 222.574 155.605 224.326C158.817 226.078 161.525 228.627 163.467 231.728C163.784 228.533 163.331 225.308 162.147 222.324C160.963 219.339 159.082 216.681 156.661 214.572C160.129 215.756 163.275 217.73 165.849 220.338C168.423 222.947 170.355 226.118 171.493 229.602C171.571 226.842 171.07 224.097 170.023 221.542C168.975 218.988 167.405 216.681 165.412 214.77C171.196 217.242 174.888 223.158 176.519 229.256C177.095 225.738 176.908 222.137 175.973 218.697C175.038 215.257 173.375 212.058 171.097 209.315C186.72 214.358 181.612 242.67 184.281 220.406C184.71 216.962 185.039 213.155 183.062 210.287C198.619 219.417 183.029 247.647 196.559 216.55Z" fill="#FFC259" stroke="#3C3930" stroke-width="2.38327" stroke-linecap="round" stroke-linejoin="round"/>
<path d="M196.559 245.192C210.797 231.332 232.699 241.122 239.654 256.728C246.608 272.334 238.78 298.999 232.402 303.531C227.92 306.711 231.892 306.925 228.661 314.193C221.509 330.376 211.275 328.168 220.29 335.617C219.548 336.562 218.466 337.18 217.275 337.34C216.084 337.5 214.877 337.189 213.912 336.474C214.494 338.889 215.92 341.016 217.933 342.472C216.496 342.92 214.984 343.079 213.485 342.941C211.986 342.802 210.53 342.368 209.199 341.665C208.31 343.261 207.805 345.042 207.725 346.867C207.645 348.692 207.992 350.511 208.737 352.179C207.215 351.884 205.813 351.147 204.708 350.06C203.603 348.972 202.843 347.582 202.525 346.065C201.319 348.079 200.869 350.457 201.256 352.772C196.509 345.95 202.03 342.324 196.559 352.245C191.088 342.357 196.559 345.95 191.879 352.772C192.265 350.457 191.815 348.079 190.61 346.065C190.289 347.581 189.528 348.97 188.424 350.057C187.319 351.145 185.918 351.882 184.397 352.179C185.135 350.509 185.476 348.69 185.393 346.866C185.31 345.041 184.806 343.261 183.919 341.665C182.588 342.368 181.131 342.802 179.632 342.941C178.133 343.079 176.622 342.92 175.185 342.472C177.203 341.021 178.63 338.892 179.206 336.474C178.239 337.185 177.033 337.494 175.844 337.334C174.654 337.174 173.573 336.558 172.828 335.617C181.842 328.217 171.625 330.426 164.473 314.193C161.177 306.925 165.198 306.711 160.732 303.531C154.338 298.999 146.543 272.219 153.464 256.728C160.386 241.237 182.337 231.398 196.559 245.192Z" fill="#F6DB86" stroke="#3C3930" stroke-width="2.38327" stroke-linecap="round" stroke-linejoin="round"/>
<path d="M220.224 298.355C221.872 300.399 228.793 306.678 230.656 305.145" stroke="#3C3930" stroke-width="2.38327" stroke-linecap="round" stroke-linejoin="round"/>
<path d="M172.91 298.355C171.262 300.399 164.341 306.678 162.479 305.145" stroke="#3C3930" stroke-width="2.38327" stroke-linecap="round" stroke-linejoin="round"/>
<path d="M196.559 300.185C198.965 300.712 200.415 298.537 202.541 298.01C206.232 297.186 210.484 302.459 208.919 303.695C205.853 306.134 203.645 301.569 202.03 304.602C201.256 306.085 202.03 307.898 201.239 309.546C200.448 311.194 198.174 311.721 196.559 312.842C194.911 311.721 192.703 311.309 191.879 309.546C191.055 307.782 191.879 306.134 191.088 304.602C189.44 301.569 187.264 306.134 184.199 303.695C182.65 302.459 186.902 297.186 190.593 298.01C192.719 298.488 194.169 300.712 196.559 300.185Z" fill="#F06E4E" stroke="#3C3930" stroke-width="2.38327" stroke-linecap="round" stroke-linejoin="round"/>
<path d="M220.932 254.981C221.262 269.401 203.958 264.358 210.764 291.236C211.654 294.746 210.517 299.147 209.116 302.508" stroke="#3C3930" stroke-width="2.38327" stroke-linecap="round" stroke-linejoin="round"/>
<path d="M172.169 254.981C171.823 269.401 189.143 264.358 182.32 291.236C181.43 294.746 182.584 299.147 183.968 302.508" stroke="#3C3930" stroke-width="2.38327" stroke-linecap="round" stroke-linejoin="round"/>
<path d="M201.157 320.554V320.637C199.113 322.12 197.861 322.861 196.608 322.861C195.356 322.861 194.103 322.12 192.076 320.637V320.538C193.215 319.917 194.211 319.066 195.003 318.039C195.795 317.012 196.364 315.831 196.674 314.572C196.973 315.822 197.525 316.998 198.296 318.027C199.067 319.056 200.041 319.916 201.157 320.554Z" fill="#F0433D"/>
<path d="M222.993 323.454C220.883 325.794 213.616 325.547 207.205 323.454C205.077 322.762 203.045 321.804 201.157 320.603C200.019 319.977 199.024 319.123 198.232 318.093C197.441 317.064 196.871 315.881 196.559 314.621C196.249 315.88 195.679 317.061 194.888 318.088C194.096 319.115 193.1 319.966 191.961 320.587C190.079 321.803 188.046 322.767 185.913 323.454C179.519 325.597 172.235 325.844 170.125 323.454" stroke="#3C3930" stroke-width="2.38327" stroke-linecap="round" stroke-linejoin="round"/>
<path d="M207.205 323.405C204.203 325.866 200.441 327.211 196.559 327.211C192.677 327.211 188.915 325.866 185.913 323.405" stroke="#3C3930" stroke-width="2.38327" stroke-linecap="round" stroke-linejoin="round"/>
<path d="M201.157 320.636C199.113 322.119 197.861 322.861 196.608 322.861C195.356 322.861 194.103 322.119 192.076 320.636" stroke="#3C3930" stroke-width="2.38327" stroke-linecap="round" stroke-linejoin="round"/>
<path d="M216.252 308.096C218.104 308.188 219.949 307.807 221.613 306.988C223.277 306.169 224.704 304.939 225.761 303.415" stroke="#3C3930" stroke-width="2.38327" stroke-linecap="round" stroke-linejoin="round"/>
<path d="M176.882 308.096C175.028 308.188 173.18 307.806 171.514 306.988C169.848 306.169 168.417 304.939 167.357 303.415" stroke="#3C3930" stroke-width="2.38327" stroke-linecap="round" stroke-linejoin="round"/>
<path d="M213.747 313.254C218.493 314.506 226.47 313.748 229.914 310.271" stroke="#3C3930" stroke-width="2.38327" stroke-linecap="round" stroke-linejoin="round"/>
<path d="M179.387 313.254C174.641 314.506 166.664 313.748 163.204 310.271" stroke="#3C3930" stroke-width="2.38327" stroke-linecap="round" stroke-linejoin="round"/>
<path d="M211.753 317.802C214.163 319.029 216.845 319.621 219.547 319.523C222.249 319.425 224.881 318.64 227.195 317.241" stroke="#3C3930" stroke-width="2.38327" stroke-linecap="round" stroke-linejoin="round"/>
<path d="M181.381 317.802C178.975 319.029 176.295 319.621 173.596 319.523C170.896 319.425 168.267 318.64 165.956 317.241" stroke="#3C3930" stroke-width="2.38327" stroke-linecap="round" stroke-linejoin="round"/>
<path d="M204.7 314.028C204.797 314.26 204.939 314.47 205.118 314.647C205.297 314.824 205.508 314.964 205.741 315.058C205.973 315.153 206.223 315.201 206.474 315.2C206.725 315.199 206.974 315.148 207.205 315.05" stroke="#3C3930" stroke-width="2.38327" stroke-linecap="round" stroke-linejoin="round"/>
<path d="M188.418 314.028C188.321 314.26 188.179 314.47 188 314.647C187.821 314.824 187.61 314.964 187.377 315.058C187.144 315.153 186.895 315.201 186.644 315.2C186.393 315.199 186.144 315.148 185.913 315.05" stroke="#3C3930" stroke-width="2.38327" stroke-linecap="round" stroke-linejoin="round"/>
<path d="M207.073 311.111L208.721 311.424" stroke="#3C3930" stroke-width="2.38327" stroke-linecap="round" stroke-linejoin="round"/>
<path d="M186.045 311.111L184.397 311.424" stroke="#3C3930" stroke-width="2.38327" stroke-linecap="round" stroke-linejoin="round"/>
<path d="M209.001 307.815C209.45 307.887 209.91 307.842 210.336 307.683" stroke="#3C3930" stroke-width="2.38327" stroke-linecap="round" stroke-linejoin="round"/>
<path d="M184.133 307.815C183.684 307.887 183.224 307.842 182.798 307.683" stroke="#3C3930" stroke-width="2.38327" stroke-linecap="round" stroke-linejoin="round"/>
<path d="M227.393 290.297C229.944 288.869 232.119 286.856 233.741 284.424C235.362 281.992 236.384 279.209 236.72 276.305" stroke="#3C3930" stroke-width="2.38327" stroke-linecap="round" stroke-linejoin="round"/>
<path d="M165.725 290.297C163.176 288.867 161.002 286.854 159.381 284.422C157.759 281.99 156.737 279.208 156.398 276.305" stroke="#3C3930" stroke-width="2.38327" stroke-linecap="round" stroke-linejoin="round"/>
<path d="M219.993 267.39C223.767 266.912 227.508 268.494 231.298 268.346C229.304 278.827 215.742 279.618 211.852 275.515C208.573 272.054 217.538 267.703 219.993 267.39Z" fill="#5C7B5C" stroke="#3C3930" stroke-width="2.38327" stroke-linecap="round" stroke-linejoin="round"/>
<path d="M173.141 267.39C169.384 266.912 165.626 268.494 161.836 268.346C163.846 278.827 177.409 279.618 181.299 275.515C184.545 272.054 175.58 267.703 173.141 267.39Z" fill="#5C7B5C" stroke="#3C3930" stroke-width="2.38327" stroke-linecap="round" stroke-linejoin="round"/>
<path d="M218.807 271.214C219.351 274.74 223.092 274.955 223.619 270.077C224.014 266.336 217.999 266.072 218.807 271.214Z" fill="#3C3930" stroke="#3C3930" stroke-width="2.38327" stroke-linecap="round" stroke-linejoin="round"/>
<path d="M174.328 271.214C173.767 274.74 170.026 274.955 169.516 270.077C169.12 266.336 175.135 266.072 174.328 271.214Z" fill="#3C3930" stroke="#3C3930" stroke-width="2.38327" stroke-linecap="round" stroke-linejoin="round"/>
<path d="M227.343 259.579C230.87 260.485 232.287 264.309 231.298 268.346" stroke="#3C3930" stroke-width="2.38327" stroke-linecap="round" stroke-linejoin="round"/>
<path d="M165.791 259.579C162.248 260.485 160.847 264.309 161.819 268.346" stroke="#3C3930" stroke-width="2.38327" stroke-linecap="round" stroke-linejoin="round"/>
<path d="M214.34 285.732C216.252 280.607 227.689 285.073 230.82 279.239" stroke="#3C3930" stroke-width="2.38327" stroke-linecap="round" stroke-linejoin="round"/>
<path d="M178.761 285.732C176.849 280.607 165.412 285.073 162.281 279.239" stroke="#3C3930" stroke-width="2.38327" stroke-linecap="round" stroke-linejoin="round"/>
<path d="M205.821 248.175C206.134 252.732 204.781 257.247 202.014 260.881" stroke="#3C3930" stroke-width="2.38327" stroke-linecap="round" stroke-linejoin="round"/>
<path d="M187.297 248.175C186.999 252.73 188.35 257.24 191.104 260.881" stroke="#3C3930" stroke-width="2.38327" stroke-linecap="round" stroke-linejoin="round"/>
<path d="M208.078 332.321C211.374 330.986 213.302 334.628 214.39 337.594" stroke="#3C3930" stroke-width="2.38327" stroke-linecap="round" stroke-linejoin="round"/>
<path d="M185.056 332.321C181.76 330.986 179.815 334.628 178.744 337.594" stroke="#3C3930" stroke-width="2.38327" stroke-linecap="round" stroke-linejoin="round"/>
<path d="M204.914 336.737C206.895 337.81 208.418 339.568 209.199 341.681" stroke="#3C3930" stroke-width="2.38327" stroke-linecap="round" stroke-linejoin="round"/>
<path d="M188.22 336.737C186.239 337.814 184.712 339.57 183.919 341.681" stroke="#3C3930" stroke-width="2.38327" stroke-linecap="round" stroke-linejoin="round"/>
<path d="M200.531 339.654C201.621 341.635 202.299 343.815 202.525 346.065" stroke="#3C3930" stroke-width="2.38327" stroke-linecap="round" stroke-linejoin="round"/>
<path d="M192.604 339.654C191.506 341.632 190.827 343.814 190.61 346.065" stroke="#3C3930" stroke-width="2.38327" stroke-linecap="round" stroke-linejoin="round"/>
<path d="M229.024 329.783C230.491 340.775 248.108 335.37 254.617 337.314C251.697 336.475 249.115 334.739 247.234 332.353C245.354 329.967 244.27 327.05 244.136 324.015C245.547 325.451 247.254 326.562 249.138 327.271C251.022 327.98 253.038 328.269 255.046 328.119C253.098 326.662 251.497 324.793 250.358 322.644C249.218 320.496 248.568 318.122 248.454 315.693C249.663 317.08 251.204 318.138 252.934 318.766C254.663 319.395 256.524 319.573 258.342 319.285C254.328 314.732 252.108 308.875 252.096 302.806C264.34 314.028 255.919 308.903 256.562 297.301C259.446 302.361 267.06 304.272 268.098 310.007C267.869 302.87 265.472 295.972 261.226 290.231C262.793 290.366 264.286 290.958 265.519 291.933C266.752 292.909 267.672 294.225 268.164 295.719C268.642 286.655 268.675 275.943 260.039 271.263" stroke="#3C3930" stroke-width="2.38327" stroke-linecap="round" stroke-linejoin="round"/>
<path d="M164.11 329.783C162.627 340.775 145.026 335.37 138.5 337.314C141.422 336.477 144.006 334.742 145.887 332.356C147.768 329.969 148.85 327.051 148.982 324.015C147.572 325.452 145.865 326.564 143.98 327.273C142.096 327.981 140.08 328.27 138.072 328.119C140.019 326.662 141.621 324.793 142.76 322.644C143.9 320.496 144.55 318.122 144.664 315.693C143.453 317.078 141.911 318.134 140.182 318.762C138.453 319.39 136.593 319.57 134.776 319.285C138.804 314.741 141.026 308.878 141.022 302.806C128.794 314.028 137.215 308.903 136.572 297.301C133.688 302.361 126.075 304.272 125.036 310.007C125.281 302.873 127.676 295.98 131.909 290.231C130.344 290.369 128.855 290.962 127.625 291.937C126.395 292.913 125.477 294.228 124.987 295.719C124.509 286.655 124.46 275.943 133.112 271.263" stroke="#3C3930" stroke-width="2.38327" stroke-linecap="round" stroke-linejoin="round"/>
<path d="M236.934 352.789C249.723 364.885 230.952 380.804 236.077 389.835C233.969 388.234 232.198 386.232 230.866 383.944C229.533 381.656 228.667 379.127 228.315 376.503C226.355 382.025 226.585 388.087 228.958 393.444C226.678 392.875 224.626 391.624 223.077 389.856C221.528 388.089 220.555 385.891 220.29 383.557C219.697 388.238 220.222 392.993 221.822 397.433C219.682 396.203 217.819 394.544 216.353 392.558C214.886 390.572 213.847 388.304 213.302 385.897C211.938 390.152 211.938 394.727 213.302 398.982C209.585 396.256 206.868 392.381 205.573 387.957C205.525 391.611 204.688 395.212 203.121 398.514C201.554 401.816 199.293 404.741 196.493 407.09C193.696 404.738 191.437 401.813 189.87 398.511C188.304 395.21 187.465 391.61 187.412 387.957C186.128 392.369 183.43 396.237 179.733 398.965C181.084 394.708 181.084 390.137 179.733 385.88C179.188 388.288 178.149 390.556 176.682 392.541C175.216 394.527 173.354 396.187 171.213 397.416C172.818 392.978 173.349 388.223 172.762 383.54C172.495 385.877 171.52 388.077 169.968 389.844C168.416 391.611 166.36 392.862 164.077 393.428C166.45 388.071 166.68 382.008 164.72 376.487C164.368 379.111 163.502 381.64 162.17 383.928C160.838 386.216 159.066 388.218 156.958 389.819C162.099 380.837 143.313 364.868 156.117 352.772" stroke="#3C3930" stroke-width="2.38327" stroke-linecap="round" stroke-linejoin="round"/>
<path d="M253.266 356.282C253.53 359.223 254.441 362.068 255.934 364.615C257.427 367.162 259.465 369.348 261.901 371.015C256.677 350.778 268.032 363.105 269.103 369.037C270.52 364.555 268.905 359.726 267.307 355.293C268.865 355.717 270.306 356.489 271.522 357.551C272.738 358.613 273.697 359.937 274.327 361.424C274.809 355.38 273.551 349.324 270.702 343.972C272.239 344.51 273.604 345.449 274.656 346.692C275.707 347.935 276.408 349.437 276.684 351.041C276.935 346.33 275.695 341.659 273.141 337.693C275.213 339.016 277.009 340.729 278.431 342.736C279.204 339.528 279.071 336.168 278.047 333.031C277.022 329.895 275.147 327.104 272.63 324.97" stroke="#3C3930" stroke-width="2.38327" stroke-linecap="round" stroke-linejoin="round"/>
<path d="M139.868 356.282C139.6 359.221 138.687 362.065 137.194 364.612C135.702 367.158 133.666 369.344 131.233 371.015C136.457 350.778 125.086 363.105 124.015 369.037C122.597 364.555 124.212 359.726 125.811 355.293C124.247 355.713 122.799 356.482 121.577 357.545C120.355 358.607 119.391 359.933 118.758 361.424C118.267 355.379 119.525 349.321 122.383 343.972C120.844 344.509 119.476 345.447 118.422 346.69C117.367 347.933 116.664 349.435 116.385 351.041C116.141 346.331 117.38 341.663 119.928 337.693C117.86 339.017 116.069 340.729 114.654 342.736C113.877 339.528 114.008 336.167 115.033 333.03C116.057 329.892 117.935 327.102 120.455 324.97" stroke="#3C3930" stroke-width="2.38327" stroke-linecap="round" stroke-linejoin="round"/>
<path d="M257.913 387.446C272.069 396.295 261.357 410.649 263.467 419.796C262.28 419.586 261.198 418.985 260.391 418.089C259.585 417.193 259.101 416.054 259.017 414.852C257.921 419.278 257.575 423.857 257.995 428.398C255.093 426.378 252.902 423.495 251.733 420.158C250.496 424.956 250.673 430.01 252.244 434.71C241.862 427.772 243.098 418.906 245.652 439.242C235.55 431.15 240.032 424.822 239.637 443.56C237.262 440.494 235.576 436.953 234.693 433.177" stroke="#3C3930" stroke-width="2.38327" stroke-linecap="round" stroke-linejoin="round"/>
<path d="M135.238 387.446C121.081 396.295 131.793 410.649 129.684 419.796C130.872 419.588 131.956 418.988 132.762 418.092C133.569 417.196 134.052 416.055 134.133 414.852C135.235 419.277 135.586 423.856 135.172 428.398C138.074 426.378 140.265 423.495 141.434 420.158C142.692 424.973 142.532 430.05 140.973 434.776C151.355 427.838 150.119 418.972 147.564 439.308C157.683 431.216 153.184 424.888 153.58 443.625C155.96 440.564 157.647 437.021 158.524 433.243" stroke="#3C3930" stroke-width="2.38327" stroke-linecap="round" stroke-linejoin="round"/>
<path d="M221.773 422.877C231.43 431.875 214.423 442.142 212.66 458.507C211.469 457.54 210.653 456.187 210.353 454.683C210.052 453.179 210.285 451.618 211.012 450.267C204.189 452.937 204.041 476.206 202.772 456.546C200.112 460.252 198.044 464.35 196.641 468.691C195.252 464.348 193.188 460.249 190.527 456.546C189.176 476.206 189.044 452.937 182.287 450.267C183.014 451.618 183.247 453.179 182.947 454.683C182.646 456.187 181.83 457.54 180.639 458.507C178.893 442.142 161.885 431.875 171.526 422.877" stroke="#3C3930" stroke-width="2.38327" stroke-linecap="round" stroke-linejoin="round"/>
<path d="M243.905 399.097C245.481 400.778 246.582 402.849 247.094 405.096C247.607 407.343 247.513 409.686 246.822 411.885" stroke="#3C3930" stroke-width="2.38327" stroke-linecap="round" stroke-linejoin="round"/>
<path d="M149.229 399.097C147.655 400.78 146.554 402.849 146.039 405.095C145.523 407.342 145.612 409.684 146.296 411.885" stroke="#3C3930" stroke-width="2.38327" stroke-linecap="round" stroke-linejoin="round"/>
<path d="M249.459 397.894C250.735 399.349 251.597 401.119 251.957 403.02C252.316 404.921 252.159 406.884 251.503 408.704" stroke="#3C3930" stroke-width="2.38327" stroke-linecap="round" stroke-linejoin="round"/>
<path d="M143.659 397.894C142.386 399.35 141.526 401.12 141.167 403.021C140.807 404.922 140.962 406.884 141.615 408.704" stroke="#3C3930" stroke-width="2.38327" stroke-linecap="round" stroke-linejoin="round"/>
<path d="M204.222 427.228C205.004 431.3 204.296 435.517 202.228 439.11" stroke="#3C3930" stroke-width="2.38327" stroke-linecap="round" stroke-linejoin="round"/>
<path d="M188.896 427.228C188.123 431.3 188.83 435.514 190.89 439.11" stroke="#3C3930" stroke-width="2.38327" stroke-linecap="round" stroke-linejoin="round"/>
<path d="M209.561 428.843C210.02 432.07 209.533 435.361 208.161 438.318" stroke="#3C3930" stroke-width="2.38327" stroke-linecap="round" stroke-linejoin="round"/>
<path d="M183.573 428.843C183.109 432.069 183.59 435.36 184.957 438.318" stroke="#3C3930" stroke-width="2.38327" stroke-linecap="round" stroke-linejoin="round"/>
<path d="M206.859 365.627C208.079 368.527 208.243 371.764 207.32 374.773" stroke="#3C3930" stroke-width="2.38327" stroke-linecap="round" stroke-linejoin="round"/>
<path d="M186.325 365.627C185.118 368.531 184.961 371.765 185.88 374.773" stroke="#3C3930" stroke-width="2.38327" stroke-linecap="round" stroke-linejoin="round"/>
<path d="M216.417 362.891C217.463 367.167 216.875 371.681 214.769 375.547" stroke="#3C3930" stroke-width="2.38327" stroke-linecap="round" stroke-linejoin="round"/>
<path d="M176.717 362.891C175.656 367.167 176.244 371.686 178.365 375.547" stroke="#3C3930" stroke-width="2.38327" stroke-linecap="round" stroke-linejoin="round"/>
<path d="M204.651 479.782C205.316 477.254 206.497 474.89 208.119 472.84C209.741 470.789 211.77 469.096 214.077 467.867" stroke="#3C3930" stroke-width="2.38327" stroke-linecap="round" stroke-linejoin="round"/>
<path d="M188.484 479.782C187.812 477.254 186.627 474.892 185.003 472.842C183.378 470.792 181.349 469.099 179.041 467.867" stroke="#3C3930" stroke-width="2.38327" stroke-linecap="round" stroke-linejoin="round"/>
</svg>
