<svg width="393" height="650" viewBox="0 0 393 650" fill="none" xmlns="http://www.w3.org/2000/svg">
<g clip-path="url(#clip0_28_14433)">
<path fill-rule="evenodd" clip-rule="evenodd" d="M15.8784 -1.71669H376.419C380.558 -1.7705 384.551 -0.181431 387.526 2.70375C390.501 5.58894 392.216 9.53602 392.297 13.6837V634.609C392.216 638.757 390.501 642.704 387.526 645.589C384.551 648.474 380.558 650.063 376.419 650.01H15.8784C11.7388 650.063 7.74603 648.474 4.77131 645.589C1.79658 642.704 0.0813921 638.757 0 634.609L0 13.6837C0.0813921 9.53602 1.79658 5.58894 4.77131 2.70375C7.74603 -0.181431 11.7388 -1.7705 15.8784 -1.71669Z" fill="url(#paint0_radial_28_14433)"/>
<path d="M352.315 135.846C353.111 136.871 353.851 137.939 354.53 139.045C356.789 143.229 356.413 145.662 352.88 148.948C350.853 150.83 348.71 152.524 345.641 152.553C343.76 152.685 341.879 152.312 340.191 151.472C338.503 150.632 337.071 149.356 336.042 147.776C334.777 145.804 333.975 143.572 333.697 141.246C333.19 136.743 333.48 132.472 336.809 128.592C340.334 124.159 345.065 120.841 350.433 119.037C356.746 117.068 362.653 117.589 367.633 122.352C370.731 125.248 371.513 129.2 371.426 133.254C371.412 138.226 370.046 143.101 367.474 147.356C365.664 149.863 363.732 152.279 361.682 154.595C358.787 158.431 354.444 160.386 350.375 162.586C346.679 164.357 342.567 165.078 338.489 164.671C335.992 164.603 333.506 164.307 331.062 163.788C327.152 162.755 323.505 160.905 320.363 158.359C318.779 157.213 317.471 155.728 316.534 154.012C315.597 152.297 315.055 150.393 314.948 148.442C314.731 145.879 314.036 143.345 314.036 140.797C314.051 136.905 315.354 133.128 317.742 130.055C320.88 125.921 324.264 121.981 327.877 118.255C332.644 113.107 338.01 108.548 343.86 104.675C347.755 102.228 351.577 99.6221 355.587 97.4359C360.162 94.8589 365.056 92.8609 369.544 90.197C374.409 87.3014 379.07 83.8991 383.66 80.5113C389.306 76.3417 394.938 72.1286 400.281 67.5825C403.867 64.383 407.251 60.9645 410.415 57.3467C413.832 53.6403 417.22 49.8761 420.275 45.8657C422.89 42.3569 425.251 38.6653 427.34 34.8191C428.788 32.1407 429.671 29.1148 430.901 26.2916C431.944 23.8449 433.145 21.4705 434.231 19.0527C434.399 18.506 434.534 17.9501 434.637 17.3877C435.027 16.0992 434.868 14.4921 437.286 15.1002C438.488 15.4187 438.372 15.8096 438.198 16.548C436.434 24.464 433.702 32.1323 430.062 39.3796C426.639 45.8073 422.244 51.6676 417.031 56.7531C410.878 62.993 404.595 69.1317 397.993 74.9083C390.05 81.768 381.298 87.6316 371.933 92.3687C368.864 93.9468 365.852 95.6407 362.87 97.378C358.251 100.085 353.604 102.749 349.116 105.659C345.713 107.874 342.485 110.35 339.329 112.898C335.738 115.794 332.206 118.689 328.818 121.875C322.636 127.593 318.553 134.441 318.495 143.143C318.495 147.718 319.349 152.133 322.665 155.579C323.837 156.81 325.661 157.389 327.008 158.475C330.845 161.761 335.507 160.009 339.763 160.603C344.309 161.254 348.58 159.503 352.561 157.519C357.901 155.015 362.278 150.837 365.027 145.618C366.898 142.28 368.07 138.595 368.473 134.789C368.598 132.368 367.969 129.967 366.673 127.919C365.376 125.87 363.476 124.274 361.234 123.351C354.748 120.905 349.492 123.047 344.512 127.13C341.683 129.429 339.441 132.367 337.968 135.701C337.116 137.874 336.994 140.266 337.621 142.515C338.248 144.763 339.589 146.747 341.442 148.166C342.803 149.238 347.364 149.267 348.681 148.007C350.122 146.685 351.335 145.134 352.272 143.418C352.38 142.901 352.382 142.367 352.277 141.849C352.173 141.332 351.964 140.841 351.664 140.406C350.65 138.741 350.202 137.308 352.315 135.846Z" fill="#C40962"/>
<path d="M277.334 120.542C278.637 117.343 279.593 114.534 280.91 111.856C282.656 108.347 284.589 104.935 286.701 101.634C289.119 97.8845 291.841 94.3953 294.462 90.7179C297.444 86.6062 301.556 83.8699 305.827 81.2639C310.098 78.6578 314.209 75.7767 318.437 73.0839C321.217 71.332 324.228 69.9132 326.863 67.9732C333.233 63.2823 340.632 60.6474 347.639 57.2306C352.836 54.6969 358.034 52.0909 362.956 49.0795C367.231 46.3582 371.341 43.385 375.263 40.1756C379.389 36.9181 383.414 33.5013 387.294 29.9542C389.679 27.87 391.813 25.5134 393.65 22.9325C395.524 20.1661 397.01 17.1556 398.065 13.9851C399.18 10.4815 399.412 6.7462 400.266 3.12673C400.75 1.30795 401.48 -0.435969 402.438 -2.05636C403.352 -3.72931 404.46 -5.28913 405.739 -6.70377C406.274 -7.31184 407.404 -7.3987 408.272 -7.73169C408.359 -7.02227 408.721 -6.28392 408.518 -5.64689C407.071 -1.30353 405.42 2.85163 403.972 7.13708C402.64 11.104 401.612 15.1868 400.223 19.1393C398.351 23.8886 395.302 28.0837 391.362 31.3296C386.411 35.7599 381.141 39.8426 376.03 44.0847C368.791 50.1219 360.481 54.4798 352.257 58.9534C346.881 61.849 341.505 64.7446 336.129 67.6402C331.467 70.1593 326.588 72.3455 322.172 75.2411C314.34 80.3807 306.044 84.8689 299.123 91.4129C294.293 95.8931 290.186 101.094 286.948 106.832C285.091 110.332 283.419 113.928 281.938 117.603C281.576 118.458 281.938 119.601 281.75 120.571C281.513 121.342 281.182 122.081 280.766 122.772L277.334 120.542Z" fill="#C40962"/>
<path d="M338.59 186.851C343.12 186.63 347.567 185.549 351.693 183.666C355.66 181.654 360.003 180.206 363.55 177.643C366.958 174.919 370.03 171.799 372.7 168.349C377.381 163.035 380.911 156.809 383.066 150.063C384.239 146.154 384.514 141.97 385.397 137.945C386.845 131.155 388.38 124.394 391.739 118.27C394.353 113.306 398.183 109.087 402.872 106.007C406.463 103.676 409.865 101.07 413.296 98.5218C416.727 95.9737 420.535 93.3098 423.894 90.4142C427.253 87.5186 430.105 84.4204 433.189 81.3945C433.852 80.5729 434.621 79.8427 435.476 79.2228C436.026 78.9188 436.924 79.2228 437.706 79.4544C437.87 79.9283 437.844 80.4471 437.633 80.9022C434.361 84.4783 431.22 88.1412 427.658 91.4711C423.46 95.3367 418.899 98.8258 414.469 102.431C410.039 106.036 405.087 109.67 400.715 113.709C398.269 116.13 396.111 118.826 394.287 121.744C391.652 125.61 390.841 130.113 390.349 134.702C390.001 138.075 389.335 141.405 388.901 144.764C388.597 146.878 388.481 149.021 388.119 151.134C387.332 155.322 385.488 159.239 382.762 162.514C378.593 167.77 374.466 173.097 369.848 177.947C365.993 182.233 361.132 185.492 355.703 187.431C351.809 188.705 347.943 190.08 343.976 191.05C342.086 191.466 340.124 191.416 338.257 190.905C337.374 190.674 336.809 189.023 336.288 188.01C336.216 187.865 336.867 187.213 337.302 186.982C337.72 186.861 338.156 186.817 338.59 186.851Z" fill="#C40962"/>
<path d="M300.673 127.087C300.673 126.623 300.673 126.145 300.571 125.639L298.646 125.335C298.884 123.306 299.311 121.305 299.92 119.355C302.458 113.333 306.03 107.801 310.474 103.01C314.672 98.127 319.582 93.905 325.039 90.4864C330.584 87.171 336.057 83.7253 341.674 80.5257C346.495 77.7893 351.49 75.3426 356.384 72.7365C361.596 69.9568 366.895 67.2929 371.962 64.2815C376.343 61.6807 380.586 58.8537 384.673 55.8119C387.902 53.4231 390.812 50.6143 393.838 47.9504C396.574 45.5471 399.441 43.2596 401.931 40.6101C406.738 35.5284 411.515 30.3453 414.02 23.6275C415.468 19.8488 416.438 15.9398 417.683 12.0452C418.928 8.15068 420.144 4.64705 421.505 0.998624C421.635 0.636676 422.721 0.506373 423.373 0.520851C423.561 0.520851 423.995 1.40399 423.894 1.75146C422.345 6.92006 420.926 12.1176 419.073 17.1704C417.546 21.9118 415.553 26.4899 413.122 30.8376C409.035 37.5721 404.003 43.6861 398.181 48.9928C394.651 52.339 390.929 55.4764 387.033 58.389C380.764 62.8337 374.322 67.0757 367.734 71.0282C363.029 73.8369 357.933 75.9506 353.083 78.5277C350.274 79.9755 347.711 81.959 344.903 83.4502C341.153 85.4192 337.302 87.1565 333.465 88.9518C328.566 91.2765 324.214 94.6119 320.696 98.7388C318.046 101.75 314.687 104.24 312.501 107.527C308.693 113.318 305.552 119.428 302.135 125.407C301.773 126.03 301.44 126.667 301.093 127.289L300.673 127.087Z" fill="#C40962"/>
<path d="M346.756 211.811C345.409 207.555 348.696 208.134 350.202 207.671C354.833 206.447 359.268 204.575 363.377 202.111C369.022 198.537 374.147 194.201 378.607 189.226C382.877 184.098 386.567 178.514 389.61 172.576C391.275 169.536 392.506 166.235 393.852 163.035C395.778 158.518 397.718 154.016 399.557 149.455C401.193 145.445 402.554 141.318 404.277 137.337C405.514 134.457 406.966 131.674 408.62 129.012C410.632 125.798 412.876 122.714 415.149 119.674C417.828 116.069 421.693 114.013 425.646 112.175C428.541 110.843 431.437 109.554 434.492 108.512C435.216 108.251 436.302 109.033 437.214 109.322C436.721 109.873 436.331 110.611 435.766 110.915C432.233 112.652 428.527 114.187 425.081 115.982C422.397 117.398 420.236 119.636 418.914 122.367C418.074 124.003 416.843 125.451 415.931 127.072C413.472 131.088 411.215 135.224 409.17 139.465C405.985 146.704 403.379 154.262 400.237 161.53C398.104 166.835 395.588 171.979 392.709 176.92C389.283 182.345 385.44 187.496 381.213 192.324C376.403 198.244 370.241 202.921 363.246 205.962C359.772 207.41 356.63 209.582 353.256 211.276C351.853 212.009 350.336 212.499 348.768 212.723C347.987 212.767 347.089 211.971 346.756 211.811Z" fill="#C40962"/>
<path d="M366.185 235.526C368.125 234.918 370.08 234.324 371.976 233.673C380.815 230.698 389.182 226.471 396.82 221.12C401.229 218.048 405.41 214.661 409.329 210.986C412.335 207.898 415.145 204.624 417.741 201.184C423.098 194.698 425.675 186.706 429.613 179.467C431.22 176.572 433.073 173.676 434.912 170.897C435.766 169.608 436.562 169.637 437.561 170.636C437.691 170.766 438.01 170.636 438.227 170.752C439.327 171.056 439.675 171.62 438.879 172.605C433.609 179.163 431.307 187.257 427.441 194.539C424.965 199.23 423.011 204.398 419.652 208.38C415.52 213.093 410.806 217.262 405.623 220.787C399.556 224.881 393.246 228.604 386.729 231.935C382.535 234.196 377.995 235.747 373.294 236.525C369.92 237.075 366.663 238.262 363.333 239.131C362.32 239.391 360.047 237.828 360.437 237.061C360.828 236.293 361.885 235.917 362.739 235.7C363.863 235.508 365.001 235.411 366.142 235.41L366.185 235.526Z" fill="#C40962"/>
<path d="M359.569 226.029C359.103 225.714 358.653 225.376 358.222 225.015C357.838 224.664 357.489 224.276 357.18 223.857C356.898 223.59 356.697 223.249 356.601 222.872C356.619 222.691 356.683 222.518 356.787 222.368C356.891 222.219 357.031 222.098 357.194 222.018C364.418 220.38 371.228 217.276 377.203 212.897C380.258 210.754 383.327 208.554 386.179 206.223C392.205 201.133 396.997 194.742 400.194 187.532C401.135 185.476 402.655 183.666 403.408 181.552C405.826 174.893 409.416 168.725 411.052 161.689C412.612 154.855 415.729 148.474 420.159 143.041C424.043 138.568 428.542 134.669 433.522 131.459C434.304 130.923 435.592 131.126 436.664 130.981C436.113 131.951 435.795 133.24 434.984 133.877C430.497 136.934 426.577 140.75 423.402 145.155C420.594 148.873 418.063 152.793 415.83 156.882C414.064 160.473 413.427 164.599 412.138 168.464C410.169 174.256 409.344 180.51 405.666 185.737C404.168 188.234 402.823 190.82 401.642 193.482C398.022 200.388 393.592 206.672 387.164 211.305C384.717 213.085 382.154 214.692 379.635 216.357C377.199 218.149 374.65 219.784 372.005 221.251C368.458 223.017 364.665 224.335 360.973 225.811C360.511 225.918 360.042 225.99 359.569 226.029Z" fill="#C40962"/>
<path d="M264.579 12.4793C264.261 12.7689 264.188 12.8847 264.116 12.8847C263.045 13.0005 262.668 15.2446 261.22 13.9561C260.367 13.2291 259.604 12.4028 258.947 11.4948C258.455 10.8289 258.397 9.8154 257.847 9.25076C255.791 7.10803 253.504 8.55582 251.433 9.25076C246.308 10.8578 244.774 15.0419 244.412 19.892C244.194 22.7876 247.828 26.5663 251.433 25.6108C255.545 24.5249 258.412 21.6873 261.742 19.4866C267.75 15.5197 272.774 10.4379 277.827 5.37068C280.143 3.05421 282.764 1.02732 285.065 -1.24571C287.034 -3.18574 288.801 -5.34295 290.741 -7.32642C290.943 -7.52963 291.189 -7.6846 291.46 -7.77984C291.731 -7.87509 292.019 -7.90815 292.304 -7.87658C292.548 -7.72611 292.746 -7.5115 292.876 -7.25616C293.007 -7.00083 293.064 -6.71461 293.043 -6.42879C292.813 -5.56454 292.409 -4.75646 291.856 -4.05442C287.141 2.08976 281.762 7.69306 275.814 12.6531C272.18 15.65 269.01 19.2115 265.376 22.2229C261.51 25.4225 257.717 28.9841 252.592 29.9397C251.195 30.1505 249.77 30.0811 248.401 29.7356C247.031 29.3901 245.744 28.7753 244.614 27.9272C241.487 25.77 241.009 22.7007 240.445 19.1681C238.997 10.4814 249.131 4.00975 255.632 4.69021C257.241 4.84898 258.759 5.5071 259.975 6.57234C261.657 8.42189 263.196 10.3966 264.579 12.4793Z" fill="#C40962"/>
<path d="M363.709 117.213C364.897 116.286 366.04 115.316 367.256 114.433C371.296 111.537 375.306 108.511 379.432 105.746C382.212 103.85 385.354 102.431 388.032 100.418C393.143 96.5672 398.094 92.5134 403.002 88.4162C408.287 84.0004 413.528 79.5267 418.624 74.8938C421.317 72.4326 423.662 69.5949 426.152 66.902C428.643 64.2091 431.365 61.1833 433.942 58.2877C434.796 57.3466 435.476 56.2318 436.374 55.3921C436.736 55.0157 437.431 54.9867 437.981 54.813C438.126 55.3776 438.531 56.0291 438.372 56.4779C436.548 61.6321 432.725 65.3818 429.149 69.2764C426.051 72.6497 422.765 75.8638 419.406 78.9621C416.047 82.0604 412.341 85.1152 408.75 88.1121C405.16 91.1091 401.511 94.1204 397.747 96.9147C393.983 99.7089 390.117 102.141 386.353 104.834C383.24 107.064 380.258 109.496 377.145 111.726C374.032 113.955 371.122 116.069 367.937 117.864C366.938 118.443 365.389 118.11 364.086 118.197L363.709 117.213Z" fill="#C40962"/>
<path d="M375.625 308.972L365.07 307.669C364.94 307.669 364.795 307.553 364.679 307.582C363.55 307.857 362.16 308.002 362.392 306.467C362.645 305.976 363.02 305.557 363.481 305.253C363.943 304.949 364.475 304.769 365.027 304.73C369.836 305.999 374.918 305.767 379.592 304.064C383.164 303.084 386.642 301.79 389.987 300.199C394.691 297.864 399.182 295.122 403.408 292.004C408.128 288.399 412.297 284.099 416.698 280.089C421.1 276.078 425.125 271.952 430.525 269.795C433.594 268.564 437.228 267.073 440.659 269.317C440.881 269.45 441.074 269.626 441.225 269.835C441.377 270.044 441.485 270.281 441.543 270.533C441.511 270.782 441.416 271.017 441.266 271.218C441.116 271.418 440.917 271.577 440.688 271.677C438.918 272.055 437.123 272.312 435.317 272.444C430.481 272.734 426.833 275.34 423.373 278.351C419.261 281.927 415.106 285.46 411.081 289.137C407.809 292.105 405.058 295.783 401.439 298.201C396.356 301.577 390.977 304.484 385.368 306.887C382.169 308.234 378.361 308.407 375.625 308.972Z" fill="#C40962"/>
<path d="M389.335 321.307L378.795 320.004C378.651 320.004 378.506 319.888 378.39 319.917C377.275 320.193 375.885 320.337 376.117 318.803C376.369 318.314 376.743 317.898 377.201 317.593C377.66 317.289 378.189 317.108 378.737 317.065C383.551 318.334 388.638 318.102 393.317 316.399C396.888 315.417 400.366 314.123 403.712 312.534C408.414 310.196 412.905 307.455 417.133 304.339C421.838 300.734 426.008 296.434 430.423 292.424C434.839 288.414 438.835 284.287 444.235 282.13C447.305 280.9 450.953 279.408 454.37 281.652C454.592 281.785 454.784 281.961 454.936 282.17C455.088 282.379 455.196 282.617 455.253 282.869C455.223 283.115 455.13 283.35 454.983 283.55C454.836 283.751 454.64 283.91 454.413 284.012C452.638 284.39 450.838 284.647 449.028 284.78C444.192 285.069 440.543 287.675 437.083 290.687C432.972 294.263 428.831 297.795 424.792 301.473C421.534 304.441 418.769 308.118 415.164 310.536C410.075 313.881 404.696 316.764 399.093 319.15C395.879 320.569 392.072 320.743 389.335 321.307Z" fill="#C40962"/>
<path d="M277.667 32.5024C277.495 31.3868 277.437 30.2565 277.494 29.1291C277.738 26.8924 278.223 24.6886 278.941 22.5561C280.101 19.6667 281.441 16.8525 282.952 14.13C285.772 8.98442 289.449 4.35754 293.825 0.448393C297.389 -3.14112 301.985 -5.52983 306.971 -6.38517C307.608 -6.47204 308.187 -7.0801 308.824 -7.12354C309.566 -7.07225 310.297 -6.91628 310.995 -6.66025C310.691 -5.74815 310.633 -4.22797 310.069 -3.99633C302.704 -0.81125 296.09 3.88431 290.654 9.78663C286.125 14.1103 282.921 19.6343 281.417 25.7123C280.742 28.0807 279.925 30.4062 278.97 32.6762L277.667 32.5024Z" fill="#C40962"/>
<path d="M228.472 26.8271C228.79 21.1952 228.805 15.3751 231.7 10.4092C234.051 6.69019 236.788 3.23005 239.866 0.0864776C241.661 -1.78723 243.69 -3.42217 245.903 -4.77809C247.593 -5.77052 249.39 -6.56712 251.26 -7.15247C251.752 -7.34068 252.896 -7.05111 252.983 -6.76156C253.287 -5.70467 254.966 -4.47406 252.867 -3.48956C251.092 -2.82 249.382 -1.99138 247.756 -1.01383C245.038 0.99345 242.428 3.14404 239.938 5.42882C238.44 6.68413 237.129 8.14664 236.043 9.77219C232.934 14.4 231.683 20.0295 232.54 25.5386C232.887 27.5655 231.628 29.0278 230.426 30.4176C230.131 30.4094 229.841 30.3424 229.573 30.2206C229.304 30.0988 229.063 29.9246 228.862 29.7082C228.622 28.766 228.491 27.7993 228.472 26.8271Z" fill="#C40962"/>
<path d="M298.284 31.6337C298.09 29.027 298.605 26.4164 299.775 24.079C300.945 21.7415 302.726 19.7644 304.929 18.3575C308.679 15.8673 312.356 14.767 316.642 17.1124C319.117 18.4589 319.624 21.2241 319.61 23.6854C319.682 26.325 318.786 28.8998 317.091 30.9243C316.581 31.5938 315.854 32.0647 315.035 32.2563C313.587 32.4011 313.196 31.127 313.761 29.7082C314.64 27.891 315.18 25.9283 315.353 23.917C315.353 20.674 313.442 18.6905 308.997 19.979C304.031 21.4268 301.628 24.9884 300.977 30.1136C300.733 32.7376 301.376 35.3675 302.801 37.5841C303.025 38.2566 303.142 38.9601 303.148 39.669C302.381 39.669 301.15 39.8861 300.919 39.5097C299.899 37.8086 299.032 36.0209 298.327 34.1674C298.164 33.3319 298.149 32.4743 298.284 31.6337Z" fill="#C40962"/>
<path d="M403.697 254.695C405.377 256.012 405.377 257.257 403.147 258.517C398.283 261.282 393.534 264.467 388.336 266.393C382.878 268.434 376.971 269.288 371.238 270.504C369.939 270.786 368.614 270.932 367.285 270.939C367.03 270.875 366.794 270.747 366.602 270.568C366.409 270.388 366.266 270.162 366.185 269.911C366.227 269.622 366.327 269.345 366.478 269.097C366.63 268.848 366.831 268.632 367.068 268.463C371.18 265.814 376.291 267.131 380.634 265.075C385.209 262.918 390.03 261.253 394.678 259.212C397.66 257.851 400.541 256.273 403.697 254.695Z" fill="#C40962"/>
<path d="M219.437 18.6471C219.518 16.4647 219.765 14.2916 220.176 12.1465C220.885 9.45677 221.88 6.85047 223.143 4.37191C225.587 -0.00354349 228.834 -3.87897 232.713 -7.05116C233.346 -7.65018 234.174 -7.99989 235.044 -8.03564C235.797 -8.03564 236.492 -7.16698 237.202 -6.68921C236.801 -5.96759 236.315 -5.29678 235.754 -4.69126C228.935 1.27363 225.619 9.07721 223.853 17.706C223.476 19.4579 221.493 19.8777 219.437 18.6471Z" fill="#C40962"/>
<path d="M337.736 29.4188C337.504 29.274 336.867 29.0568 336.867 28.8252C336.866 28.5786 336.915 28.3343 337.012 28.1076C337.11 27.881 337.252 27.6768 337.432 27.5077C341.891 24.3226 346.452 21.2822 350.824 17.9813C354.106 15.5693 357.216 12.9328 360.133 10.0908C363.314 6.83715 366.302 3.40001 369.081 -0.202966C370.295 -2.07601 371.35 -4.04702 372.237 -6.09548C372.445 -6.42465 372.687 -6.73044 372.961 -7.00757C373.323 -6.67458 374.032 -6.28368 373.989 -6.02308C373.821 -4.56169 373.455 -3.12981 372.903 -1.76658C370.152 3.90875 365.577 8.09286 361.32 12.552C357.271 16.5751 352.834 20.188 348.073 23.3381C345.178 25.3939 342.05 27.2616 339.01 29.1292C338.605 29.2965 338.174 29.3944 337.736 29.4188Z" fill="#C40962"/>
<path d="M331.8 15.0999C331.308 14.5208 330.57 14.0141 330.613 13.6522C330.766 12.8442 331.136 12.0934 331.684 11.4805C333.465 9.45356 335.289 7.45562 337.215 5.55902C339.575 3.19912 342.051 0.955052 344.454 -1.36141C345.902 -2.8092 347.349 -4.38729 348.797 -5.70478C349.698 -6.22687 350.675 -6.60313 351.693 -6.81958C351.896 -5.84956 352.518 -4.70581 352.214 -3.924C351.597 -2.85714 350.775 -1.92239 349.796 -1.17319C344.975 3.57556 340.154 8.33876 335.318 13.0151C334.218 13.8261 333.04 14.5246 331.8 15.0999Z" fill="#C40962"/>
<path d="M401.439 273.545C403.263 275.528 403.031 275.746 399.991 277.439C395.72 279.814 391.608 282.463 387.439 284.997C386.575 285.584 385.681 286.125 384.76 286.618C383.718 287.125 382.589 287.589 381.778 286.155C380.967 284.722 380.489 283.535 382.284 282.608C385.803 280.813 389.306 278.974 392.868 277.28C395.648 275.948 398.5 274.819 401.439 273.545Z" fill="#C40962"/>
<path d="M373.598 325.231C374.307 327.837 373.989 327.924 370.514 328.025C365.635 328.155 360.756 328.604 355.877 328.908C354.834 328.908 353.792 329.154 352.764 329.125C351.736 329.097 350.39 328.966 350.332 327.316C350.274 325.665 350.332 324.42 352.431 324.42C356.369 324.42 360.321 324.42 364.274 324.579C367.343 324.681 370.413 324.999 373.598 325.231Z" fill="#C40962"/>
<path d="M270.023 -10.3086C271.045 -9.94824 272.017 -9.46189 272.919 -8.86081C273.223 -8.61468 273.121 -7.413 272.759 -6.92075C270.573 -4.34369 268.271 -1.86797 265.984 0.607746C265.206 1.69201 264.222 2.61205 263.088 3.3151C262.162 3.72048 260.844 3.18481 259.7 3.06898C259.936 2.12522 260.322 1.22567 260.844 0.405056C263.74 -2.78008 266.708 -5.82044 269.618 -8.96214C270.023 -9.20826 269.907 -9.8453 270.023 -10.3086Z" fill="#C40962"/>
<path d="M315.122 2.34519C316.468 0.752619 317.786 -0.868908 319.161 -2.43252C320.536 -3.99613 322.245 -5.86378 323.779 -7.58664C323.779 -7.58664 323.852 -7.67351 323.881 -7.67351C325.329 -7.67351 327.196 -8.10785 328.065 -7.38395C329.353 -6.31259 327.703 -5.06748 326.921 -4.2712C324.286 -1.62174 321.492 0.882914 318.727 3.40207C318.161 3.95218 317.485 4.37648 316.743 4.64717C316.555 4.71956 316.019 3.89431 315.701 3.4455C315.609 3.23376 315.55 3.00913 315.527 2.77953L315.122 2.34519Z" fill="#C40962"/>
<path d="M288.381 69.7832L287.527 70.1017L287.281 69.8411C287.57 69.6529 287.86 69.4358 288.178 69.262C289.785 68.3354 291.378 67.4089 292.999 66.5402C293.516 66.3601 294.043 66.2103 294.577 66.0914C295.07 65.9176 295.518 65.5267 296.025 65.4978C296.532 65.4688 297.082 65.7729 297.14 66.0479C297.197 66.2969 297.199 66.5552 297.147 66.8052C297.094 67.0551 296.988 67.2907 296.836 67.4957C294.91 68.9435 292.84 70.1162 290.9 71.5351C289.64 72.4617 288.627 73.7647 287.31 74.6044C285.446 75.7321 283.512 76.738 281.518 77.6158C281.127 77.804 280.461 77.442 279.926 77.3262C280.302 76.6168 280.519 75.6902 281.098 75.2703C283.56 73.4896 286.122 71.8536 288.656 70.1741L288.381 69.7832Z" fill="#C40962"/>
<path d="M352.315 510.591C353.111 509.571 353.851 508.508 354.53 507.406C356.789 503.222 356.413 500.775 352.88 497.489C350.853 495.621 348.71 493.927 345.641 493.884C343.761 493.755 341.88 494.129 340.193 494.969C338.506 495.809 337.073 497.083 336.042 498.661C334.781 500.635 333.98 502.866 333.697 505.191C333.19 509.693 333.48 513.979 336.809 517.845C340.337 522.277 345.067 525.599 350.433 527.414C356.746 529.369 362.653 528.862 367.633 524.084C370.731 521.189 371.513 517.237 371.426 513.197C371.41 508.221 370.044 503.342 367.474 499.081C365.838 496.461 363.521 494.275 361.682 491.842C358.787 488.006 354.444 486.051 350.375 483.85C346.677 482.086 342.567 481.365 338.489 481.766C335.992 481.834 333.506 482.129 331.062 482.649C327.154 483.688 323.509 485.538 320.363 488.078C318.781 489.226 317.475 490.711 316.538 492.427C315.602 494.142 315.058 496.044 314.948 497.995C314.731 500.558 314.036 503.092 314.036 505.64C314.049 509.532 315.352 513.31 317.742 516.382C320.88 520.516 324.264 524.456 327.877 528.182C332.644 533.33 338.01 537.889 343.86 541.762C347.755 544.209 351.577 546.815 355.587 549.001C360.162 551.564 365.056 553.576 369.544 556.24C374.409 559.135 379.07 562.523 383.66 565.911C389.306 570.081 394.938 574.308 400.281 578.84C403.867 582.039 407.251 585.458 410.415 589.076C413.832 592.797 417.22 596.546 420.275 600.557C422.89 604.07 425.252 607.767 427.34 611.618C428.788 614.296 429.671 617.308 430.901 620.145C431.944 622.578 433.145 624.952 434.231 627.384C434.395 627.932 434.531 628.488 434.637 629.049C435.027 630.352 434.868 631.945 437.286 631.351C438.488 631.018 438.372 630.627 438.198 629.903C436.441 621.953 433.708 614.25 430.062 606.97C426.648 600.515 422.252 594.63 417.031 589.525C410.878 583.285 404.595 577.146 397.993 571.384C390.047 564.524 381.296 558.656 371.933 553.909C368.864 552.331 365.852 550.637 362.87 548.9C358.251 546.192 353.604 543.543 349.116 540.618C345.729 538.378 342.462 535.962 339.329 533.379C335.738 530.484 332.206 527.588 328.818 524.403C322.636 518.684 318.553 511.836 318.495 503.135C318.495 498.575 319.349 494.144 322.665 490.713C323.837 489.482 325.661 488.889 327.008 487.817C330.845 484.545 335.507 486.37 339.763 485.689C344.309 485.038 348.58 486.79 352.561 488.773C357.898 491.282 362.274 495.459 365.027 500.674C366.917 504.056 368.09 507.792 368.473 511.648C368.59 514.081 367.947 516.49 366.631 518.54C365.315 520.59 363.393 522.179 361.132 523.086C354.646 525.532 349.391 523.39 344.41 519.307C341.583 517.013 339.34 514.08 337.866 510.75C337.016 508.575 336.895 506.181 337.521 503.931C338.148 501.68 339.488 499.694 341.341 498.27C342.702 497.214 347.263 497.17 348.58 498.43C350.021 499.752 351.234 501.303 352.171 503.019C352.279 503.538 352.281 504.074 352.177 504.594C352.072 505.114 351.863 505.608 351.562 506.045C350.65 507.71 350.202 509.143 352.315 510.591Z" fill="#C40962"/>
<path d="M338.59 459.6C343.119 459.817 347.566 460.893 351.693 462.771C355.66 464.783 360.003 466.231 363.55 468.794C366.961 471.52 370.033 474.645 372.7 478.103C377.381 483.411 380.911 489.633 383.066 496.374C384.239 500.298 384.514 504.467 385.397 508.507C386.845 515.282 388.38 522.043 391.739 528.167C394.352 533.135 398.183 537.359 402.872 540.445C406.463 542.761 409.865 545.382 413.296 547.93C416.727 550.478 420.535 553.142 423.894 556.037C427.253 558.933 430.105 562.017 433.189 565.043C433.849 565.868 434.618 566.598 435.476 567.214C436.222 567.403 437.01 567.326 437.706 566.997C437.797 566.75 437.838 566.486 437.826 566.222C437.813 565.959 437.748 565.7 437.633 565.463C434.361 561.887 431.22 558.224 427.658 554.894C423.46 551.028 418.899 547.553 414.469 543.934C410.039 540.314 405.087 536.695 400.715 532.67C398.269 530.249 396.111 527.553 394.287 524.635C391.652 520.755 390.841 516.252 390.349 511.605C390.001 508.246 389.335 504.902 388.901 501.557C388.597 499.429 388.481 497.286 388.119 495.172C387.329 490.986 385.486 487.069 382.762 483.793C378.593 478.537 374.466 473.209 369.848 468.374C365.993 464.088 361.132 460.83 355.703 458.891C351.809 457.617 347.943 456.227 343.976 455.257C342.086 454.841 340.124 454.891 338.257 455.402C337.374 455.633 336.809 457.284 336.288 458.37C336.216 458.514 336.867 459.18 337.302 459.398C337.717 459.537 338.152 459.605 338.59 459.6Z" fill="#C40962"/>
<path d="M346.756 434.626C345.409 438.882 348.696 438.303 350.202 438.766C354.833 439.99 359.268 441.862 363.377 444.326C369.022 447.905 374.147 452.246 378.607 457.226C382.892 462.343 386.593 467.922 389.639 473.861C391.304 476.901 392.535 480.187 393.881 483.387C395.807 487.904 397.747 492.421 399.586 496.967C401.222 500.978 402.583 505.104 404.305 509.085C405.543 511.97 406.994 514.757 408.649 517.425C410.661 520.639 412.905 523.708 415.178 526.748C417.857 530.353 421.722 532.409 425.675 534.248C428.559 535.618 431.512 536.841 434.521 537.911C435.245 538.171 436.331 537.404 437.243 537.1C436.75 536.564 436.36 535.811 435.795 535.507C432.262 533.77 428.556 532.235 425.11 530.44C422.43 529.025 420.27 526.794 418.943 524.07C418.103 522.419 416.872 520.972 415.96 519.35C413.485 515.356 411.214 511.239 409.156 507.015C405.97 499.776 403.364 492.233 400.223 484.965C398.097 479.659 395.586 474.515 392.709 469.575C389.283 464.145 385.44 458.99 381.213 454.156C376.415 448.199 370.252 443.487 363.246 440.417C359.772 438.969 356.63 436.797 353.256 435.103C351.853 434.37 350.336 433.88 348.768 433.656C347.987 433.67 347.089 434.466 346.756 434.626Z" fill="#C40962"/>
<path d="M366.185 410.911C368.125 411.533 370.08 412.112 371.976 412.764C380.816 415.744 389.182 419.976 396.82 425.331C401.236 428.394 405.417 431.781 409.329 435.465C412.339 438.545 415.148 441.814 417.741 445.252C423.098 451.738 425.675 459.73 429.613 466.969C431.22 469.865 433.073 472.76 434.912 475.555C435.766 476.843 436.562 476.814 437.561 475.801C437.691 475.67 438.01 475.801 438.227 475.685C439.327 475.381 439.675 474.816 438.879 473.832C433.609 467.273 431.307 459.18 427.441 451.898C424.965 447.207 423.011 442.038 419.652 438.071C415.524 433.35 410.809 429.175 405.623 425.649C399.559 421.555 393.249 417.836 386.729 414.516C382.538 412.244 377.997 410.688 373.294 409.912C369.92 409.376 366.663 408.174 363.333 407.306C362.32 407.045 360.047 408.609 360.437 409.391C361.008 410.116 361.829 410.602 362.739 410.752C363.863 410.946 365.002 411.038 366.142 411.027L366.185 410.911Z" fill="#C40962"/>
<path d="M359.569 420.409C359.221 420.684 358.686 421.017 358.222 421.422C357.841 421.777 357.492 422.164 357.18 422.58C356.895 422.851 356.694 423.198 356.601 423.579C356.622 423.76 356.687 423.932 356.79 424.081C356.894 424.23 357.033 424.351 357.194 424.434C364.42 426.065 371.232 429.17 377.203 433.555C380.258 435.697 383.327 437.826 386.179 440.229C392.206 445.311 396.999 451.698 400.194 458.905C401.135 460.961 402.655 462.785 403.408 464.885C405.826 471.559 409.416 477.712 411.052 484.763C412.612 491.592 415.729 497.969 420.159 503.396C424.039 507.873 428.539 511.773 433.522 514.978C434.304 515.514 435.592 515.311 436.664 515.456C436.113 514.486 435.795 513.197 434.984 512.56C430.5 509.505 426.581 505.693 423.402 501.297C420.601 497.574 418.07 493.655 415.83 489.57C414.064 485.979 413.427 481.838 412.138 477.987C410.169 472.196 409.344 465.942 405.666 460.715C404.171 458.221 402.827 455.64 401.642 452.984C398.022 446.078 393.592 439.795 387.164 435.147C384.717 433.366 382.154 431.759 379.635 430.094C377.195 428.307 374.647 426.673 372.005 425.201C368.458 423.435 364.665 422.132 360.973 420.64C360.51 420.536 360.041 420.459 359.569 420.409Z" fill="#C40962"/>
<path d="M264.579 633.958C264.261 633.668 264.188 633.552 264.116 633.552C263.045 633.451 262.668 631.192 261.22 632.481C260.364 633.209 259.6 634.041 258.947 634.957C258.455 635.608 258.397 636.622 257.847 637.201C255.791 639.343 253.504 637.896 251.433 637.201C246.308 635.594 244.774 631.41 244.412 626.574C244.194 623.606 247.828 619.885 251.433 620.783C255.545 621.869 258.412 624.721 261.742 626.921C267.75 630.888 272.774 635.97 277.827 641.023C280.143 643.354 282.763 645.366 285.065 647.639C287.034 649.579 288.801 651.737 290.741 653.734C290.946 653.934 291.192 654.087 291.462 654.182C291.732 654.277 292.019 654.312 292.304 654.285C292.547 654.133 292.744 653.918 292.874 653.663C293.004 653.408 293.063 653.122 293.043 652.837C292.813 651.973 292.409 651.165 291.856 650.462C287.143 644.33 281.763 638.741 275.814 633.798C272.18 630.787 269.009 627.225 265.376 624.214C261.51 621.029 257.717 617.453 252.592 616.497C251.195 616.29 249.771 616.361 248.402 616.706C247.033 617.052 245.745 617.665 244.614 618.51C241.487 620.681 241.009 623.751 240.445 627.197C238.997 635.883 249.131 642.355 255.632 641.674C257.24 641.503 258.757 640.841 259.975 639.778C261.654 637.956 263.193 636.01 264.579 633.958Z" fill="#C40962"/>
<path d="M363.709 529.224C364.897 530.165 366.04 531.121 367.256 532.004C371.296 534.9 375.306 537.94 379.432 540.691C382.212 542.587 385.354 543.992 388.032 546.019C393.143 549.855 398.094 553.924 403.002 558.021C408.287 562.437 413.528 566.91 418.624 571.543C421.317 573.99 423.662 576.842 426.152 579.535C428.643 582.228 431.365 585.326 433.942 588.135C434.796 589.09 435.476 590.191 436.374 591.03C436.736 591.392 437.431 591.421 437.981 591.595C438.126 591.045 438.531 590.393 438.372 589.93C436.548 584.79 432.725 581.026 429.149 577.132C426.051 573.773 422.765 570.544 419.406 567.446C416.047 564.348 412.341 561.293 408.75 558.31C405.16 555.328 401.511 552.302 397.747 549.493C393.983 546.685 390.117 544.267 386.353 541.574C383.24 539.344 380.258 536.912 377.145 534.682C374.032 532.453 371.122 530.339 367.937 528.558C366.938 527.965 365.389 528.298 364.086 528.211L363.709 529.224Z" fill="#C40962"/>
<path d="M375.625 337.465L365.07 338.768C364.94 338.768 364.795 338.898 364.679 338.869C363.55 338.579 362.16 338.435 362.392 339.969C362.644 340.463 363.019 340.883 363.48 341.19C363.942 341.497 364.474 341.68 365.027 341.721C369.835 340.448 374.917 340.675 379.592 342.373C383.162 343.359 386.639 344.653 389.987 346.238C394.688 348.578 399.179 351.319 403.408 354.433C408.128 358.038 412.297 362.352 416.698 366.348C421.1 370.344 425.125 374.499 430.525 376.656C433.594 377.872 437.228 379.364 440.659 377.12C440.881 376.99 441.073 376.816 441.225 376.61C441.377 376.403 441.485 376.168 441.543 375.918C441.513 375.667 441.419 375.428 441.27 375.225C441.12 375.022 440.919 374.861 440.688 374.76C438.917 374.386 437.123 374.135 435.317 374.007C430.481 373.717 426.833 371.111 423.373 368.085C419.261 364.509 415.106 360.977 411.081 357.314C407.809 354.331 405.058 350.668 401.439 348.251C396.356 344.875 390.977 341.967 385.368 339.564C382.169 338.203 378.361 338.029 375.625 337.465Z" fill="#C40962"/>
<path d="M398.239 326.433L387.685 327.736C387.554 327.736 387.41 327.852 387.294 327.823C386.165 327.548 384.775 327.403 385.006 328.938C385.257 329.431 385.632 329.851 386.094 330.156C386.556 330.46 387.089 330.639 387.641 330.675C392.451 329.406 397.533 329.638 402.206 331.341C405.778 332.321 409.257 333.615 412.601 335.206C417.306 337.541 421.797 340.283 426.022 343.401C430.742 347.006 434.912 351.306 439.313 355.316C443.714 359.327 447.739 363.453 453.139 365.61C456.209 366.841 459.857 368.332 463.274 366.088C463.496 365.955 463.688 365.779 463.84 365.57C463.992 365.361 464.1 365.124 464.157 364.872C464.126 364.623 464.03 364.388 463.881 364.187C463.731 363.987 463.532 363.829 463.303 363.728C461.531 363.357 459.737 363.101 457.931 362.961C453.096 362.671 449.447 360.065 445.987 357.054C441.876 353.478 437.72 349.945 433.695 346.268C430.438 343.3 427.673 339.637 424.053 337.204C418.971 333.856 413.597 330.973 407.997 328.59C404.783 327.171 400.975 326.997 398.239 326.433Z" fill="#C40962"/>
<path d="M277.667 613.935C277.495 615.05 277.437 616.181 277.494 617.308C277.738 619.55 278.223 621.758 278.941 623.896C280.107 626.783 281.446 629.596 282.952 632.322C285.78 637.462 289.456 642.087 293.825 646.003C297.39 649.589 301.986 651.973 306.97 652.822C307.608 652.909 308.187 653.532 308.824 653.561C309.564 653.508 310.294 653.357 310.995 653.112C310.691 652.185 310.633 650.68 310.069 650.448C302.71 647.253 296.098 642.558 290.654 636.665C286.127 632.34 282.923 626.817 281.417 620.739C280.74 618.376 279.923 616.056 278.97 613.79L277.667 613.935Z" fill="#C40962"/>
<path d="M228.472 619.61C228.79 625.256 228.805 631.062 231.7 636.028C234.047 639.75 236.784 643.21 239.866 646.351C241.661 648.228 243.69 649.868 245.903 651.23C247.596 652.216 249.392 653.013 251.26 653.604C251.752 653.778 252.896 653.503 252.983 653.199C253.287 652.156 254.966 650.911 252.867 649.927C251.087 649.269 249.375 648.44 247.756 647.451C245.034 645.448 242.424 643.297 239.938 641.008C238.436 639.757 237.124 638.294 236.043 636.665C232.936 632.031 231.685 626.398 232.54 620.884C232.887 618.857 231.628 617.395 230.426 616.005C230.13 616.013 229.838 616.081 229.569 616.205C229.3 616.33 229.06 616.508 228.862 616.729C228.62 617.671 228.489 618.638 228.472 619.61Z" fill="#C40962"/>
<path d="M298.284 614.803C298.09 617.41 298.605 620.02 299.775 622.358C300.945 624.695 302.726 626.672 304.929 628.079C308.679 630.569 312.356 631.67 316.642 629.339C319.118 627.978 319.624 625.213 319.61 622.766C319.678 620.127 318.782 617.554 317.091 615.527C316.581 614.858 315.854 614.387 315.035 614.195C313.587 614.05 313.196 615.339 313.761 616.743C314.637 618.562 315.176 620.524 315.353 622.534C315.353 625.763 313.442 627.761 308.998 626.458C304.032 625.01 301.628 621.463 300.977 616.396C300.731 613.767 301.374 611.132 302.801 608.911C303.025 608.243 303.143 607.544 303.149 606.84C302.381 606.84 301.151 606.623 300.919 606.985C299.902 608.688 299.035 610.475 298.327 612.327C298.171 613.144 298.156 613.981 298.284 614.803Z" fill="#C40962"/>
<path d="M403.697 391.757C405.377 390.439 405.377 389.194 403.147 387.935C398.283 385.169 393.534 381.984 388.336 380.044C382.878 378.017 376.971 377.221 371.238 375.947C369.94 375.658 368.615 375.512 367.285 375.513C367.025 375.567 366.785 375.691 366.591 375.872C366.397 376.054 366.257 376.285 366.185 376.541C366.225 376.83 366.324 377.107 366.476 377.356C366.628 377.605 366.83 377.82 367.068 377.988C371.18 380.638 376.291 379.335 380.634 381.376C385.209 383.533 390.03 385.213 394.678 387.24C397.66 388.586 400.541 390.179 403.697 391.757Z" fill="#C40962"/>
<path d="M219.437 627.79C219.518 629.972 219.765 632.145 220.176 634.29C222.079 641.917 226.496 648.679 232.713 653.488C233.344 654.091 234.172 654.446 235.044 654.487C235.797 654.415 236.492 653.604 237.202 653.126C236.794 652.409 236.308 651.739 235.754 651.128C228.935 645.163 225.619 637.36 223.853 628.731C223.476 626.994 221.493 626.574 219.437 627.79Z" fill="#C40962"/>
<path d="M337.736 617.047C337.504 617.192 336.867 617.409 336.867 617.641C336.866 617.888 336.915 618.132 337.012 618.359C337.11 618.585 337.252 618.789 337.432 618.958C341.891 622.158 346.452 625.184 350.824 628.485C354.109 630.898 357.22 633.539 360.133 636.39C363.317 639.635 366.305 643.068 369.081 646.669C370.292 648.549 371.347 650.524 372.237 652.576C372.448 652.903 372.691 653.208 372.961 653.488C373.323 653.155 374.032 652.764 373.989 652.504C373.825 651.042 373.46 649.609 372.903 648.247C370.152 642.572 365.577 638.388 361.32 633.929C357.275 629.897 352.837 626.279 348.073 623.128C345.178 621.072 342.05 619.205 339.01 617.337C338.602 617.177 338.173 617.079 337.736 617.047Z" fill="#C40962"/>
<path d="M331.8 631.337C331.308 631.931 330.57 632.437 330.613 632.785C330.766 633.593 331.136 634.343 331.684 634.956C333.465 636.983 335.289 638.981 337.215 640.892C339.575 643.252 342.051 645.482 344.454 647.813C345.902 649.261 347.349 650.824 348.797 652.156C349.695 652.684 350.673 653.061 351.693 653.271C351.896 652.301 352.518 651.157 352.214 650.375C351.593 649.307 350.772 648.368 349.796 647.61C344.975 642.861 340.154 638.098 335.318 633.422C334.218 632.611 333.04 631.912 331.8 631.337Z" fill="#C40962"/>
<path d="M401.439 372.907C403.263 370.923 403.031 370.691 399.991 368.998C395.72 366.623 391.608 363.974 387.439 361.44C386.541 360.904 385.701 360.267 384.76 359.819C383.819 359.37 382.589 358.863 381.778 360.296C380.967 361.73 380.489 362.902 382.284 363.829C385.803 365.624 389.306 367.463 392.868 369.171C395.648 370.489 398.5 371.632 401.439 372.907Z" fill="#C40962"/>
<path d="M270.023 656.76C271.039 656.387 272.011 655.902 272.919 655.312C273.223 655.052 273.121 653.864 272.759 653.358C270.573 650.795 268.271 648.305 265.984 645.829C265.198 644.752 264.216 643.833 263.088 643.122C262.162 642.731 260.844 643.252 259.7 643.368C259.933 644.313 260.319 645.213 260.844 646.032C263.74 649.217 266.708 652.272 269.618 655.399C270.023 655.66 269.907 656.253 270.023 656.76Z" fill="#C40962"/>
<path d="M315.122 644.106C316.468 645.699 317.786 647.306 319.161 648.884C320.536 650.462 322.245 652.315 323.779 654.024C323.779 654.024 323.852 654.125 323.881 654.125C325.329 654.125 327.196 654.559 328.065 653.836C329.353 652.75 327.703 651.519 326.921 650.723C324.286 648.059 321.492 645.554 318.727 643.035C318.153 642.495 317.479 642.072 316.743 641.79C316.555 641.79 316.019 642.543 315.701 642.992C315.611 643.204 315.552 643.428 315.527 643.658L315.122 644.106Z" fill="#C40962"/>
<path d="M408.519 652.04C407.071 647.769 405.42 643.542 403.972 639.271C402.64 635.289 401.613 631.206 400.223 627.269C398.355 622.513 395.305 618.312 391.362 615.064C386.411 610.72 381.141 606.565 376.03 602.309C368.791 596.286 360.481 591.913 352.257 587.44C346.881 584.544 341.505 581.649 336.129 578.753C331.467 576.234 326.588 574.062 322.172 571.152L318.524 568.821L316.352 571.948L318.452 573.309C321.231 575.076 324.243 576.495 326.878 578.42C333.248 583.111 340.646 585.746 347.653 589.163C352.851 591.711 358.049 594.302 362.971 597.314C367.25 600.035 371.359 603.013 375.277 606.232C379.404 609.475 383.428 612.892 387.308 616.439C389.698 618.525 391.831 620.887 393.664 623.475C395.542 626.24 397.028 629.251 398.08 632.423C399.195 635.912 399.426 639.662 400.281 643.281C400.77 645.098 401.5 646.841 402.452 648.464C403.374 650.133 404.482 651.692 405.753 653.111C406.289 653.72 407.418 653.806 408.287 654.125C408.359 653.43 408.721 652.634 408.519 652.04Z" fill="#C40962"/>
<path d="M423.909 644.555C422.359 639.401 420.941 634.189 419.087 629.136C417.559 624.396 415.566 619.818 413.137 615.469C409.053 608.736 404.021 602.627 398.196 597.328C394.673 593.974 390.95 590.836 387.048 587.932C380.784 583.473 374.351 579.26 367.749 575.293C363.044 572.397 357.947 570.356 353.097 567.779C350.288 566.331 347.726 564.348 344.917 562.871C341.167 560.902 337.316 559.15 333.48 557.355C331.858 556.595 330.29 555.725 328.789 554.749C328.26 554.68 327.722 554.766 327.24 554.995C326.559 555.371 328.528 557.992 328.528 557.992C332.872 560.641 337.215 563.32 341.674 565.839C346.495 568.575 351.49 571.022 356.384 573.628C361.596 576.408 366.895 579.072 371.962 582.083C376.343 584.684 380.586 587.511 384.673 590.553C387.902 592.956 390.812 595.765 393.838 598.429C396.574 600.832 399.441 603.119 401.931 605.754C406.738 610.836 411.515 616.034 414.02 622.751C415.468 626.516 416.438 630.425 417.683 634.334C418.928 638.243 420.144 641.732 421.505 645.366C421.636 645.742 422.721 645.858 423.373 645.858C423.576 645.858 424.01 644.96 423.909 644.555Z" fill="#C40962"/>
<path d="M40.013 135.846C39.212 136.868 38.4723 137.936 37.7979 139.045C35.5249 143.229 35.9013 145.662 39.4484 148.948C41.4608 150.83 43.6035 152.524 46.6873 152.553C48.5676 152.682 50.4483 152.308 52.1355 151.468C53.8228 150.628 55.2555 149.353 56.2861 147.776C57.5453 145.801 58.3467 143.57 58.6316 141.246C59.1238 136.743 58.8487 132.472 55.5043 128.592C51.9858 124.16 47.2591 120.841 41.8951 119.037C35.5683 117.068 29.6758 117.589 24.6809 122.352C21.5971 125.248 20.8008 129.2 20.8877 133.254C20.9017 138.226 22.268 143.101 24.8402 147.356C26.6452 149.866 28.5782 152.282 30.6313 154.595C33.5269 158.431 37.8703 160.386 41.9386 162.586C45.6292 164.359 49.7368 165.08 53.8104 164.671C56.3079 164.604 58.7939 164.308 61.2376 163.788C65.15 162.761 68.7978 160.91 71.9367 158.359C73.5258 157.218 74.8376 155.734 75.775 154.018C76.7124 152.301 77.2512 150.395 77.3515 148.442C77.5686 145.879 78.278 143.345 78.278 140.797C78.2502 136.905 76.9427 133.13 74.5572 130.055C71.4201 125.921 68.0357 121.98 64.4227 118.255C59.6718 113.118 54.3312 108.56 48.5115 104.675C44.6025 102.228 40.7803 99.6221 36.77 97.4359C32.2094 94.8589 27.3014 92.8609 22.8278 90.197C17.9487 87.3014 13.3013 83.8991 8.71182 80.5113C3.06544 76.3417 -2.56647 72.1286 -7.92328 67.5825C-11.5059 64.3792 -14.8903 60.961 -18.0578 57.3467C-21.4601 53.6403 -24.8624 49.8761 -27.9028 45.8657C-30.5183 42.3537 -32.884 38.6624 -34.9824 34.8191C-36.4302 32.1407 -37.3134 29.1148 -38.5295 26.2916C-39.5864 23.8449 -40.7881 21.4705 -41.8739 19.0527C-42.0432 18.5076 -42.1738 17.9512 -42.2648 17.3877C-42.6557 16.0992 -42.5109 14.4921 -44.9143 15.1002C-46.1304 15.4187 -46.0001 15.8096 -45.8264 16.548C-44.0816 24.4615 -41.3683 32.1298 -37.7477 39.3796C-34.3202 45.8042 -29.9255 51.6638 -24.7176 56.7531C-18.5645 62.993 -12.2666 69.1317 -5.67921 74.9083C2.26673 81.7645 11.0179 87.6278 20.381 92.3687C23.4358 93.9468 26.4617 95.6407 29.4297 97.378C34.0481 100.085 38.71 102.749 43.1981 105.659C46.586 107.874 49.8145 110.35 52.9852 112.898C56.5757 115.794 60.1083 118.689 63.4816 121.875C69.6637 127.593 73.7609 134.441 73.8044 143.143C73.8044 147.718 72.9502 152.133 69.6492 155.579C68.462 156.81 66.6523 157.389 65.3059 158.475C61.4547 161.761 56.7929 160.009 52.5364 160.603C47.9903 161.254 43.7193 159.503 39.7379 157.519C34.398 155.015 30.0212 150.837 27.2725 145.618C25.3703 142.242 24.178 138.512 23.7688 134.659C23.6808 132.244 24.3417 129.861 25.661 127.837C26.9803 125.813 28.8934 124.246 31.1381 123.351C37.6241 120.905 42.8941 123.047 47.86 127.13C50.6969 129.425 52.9453 132.363 54.4185 135.701C55.2631 137.875 55.3811 140.265 54.7547 142.512C54.1284 144.759 52.7914 146.743 50.9438 148.166C49.5829 149.238 45.0223 149.267 43.7049 148.007C42.2633 146.689 41.0544 145.138 40.1288 143.418C40.0136 142.901 40.0083 142.366 40.113 141.847C40.2178 141.329 40.4303 140.838 40.7369 140.406C41.678 138.741 42.1268 137.308 40.013 135.846Z" fill="#C40962"/>
<path d="M114.979 120.543C113.676 117.343 112.721 114.534 111.403 111.856C109.658 108.347 107.725 104.935 105.612 101.635C103.194 97.8847 100.473 94.3956 97.8521 90.7182C94.8552 86.6065 90.7579 83.8701 86.4725 81.2641C82.187 78.6581 78.0897 75.777 73.8622 73.0841C71.0969 71.3323 68.0711 69.9135 65.4361 67.9734C59.0658 63.2826 51.6676 60.6476 44.6603 57.2308C39.4628 54.6972 34.2652 52.0912 29.3427 49.0798C25.0725 46.3515 20.9635 43.3786 17.0365 40.1759C12.9248 36.9522 8.93855 33.5595 5.07778 29.9979C2.68831 27.9176 0.55473 25.5604 -1.27801 22.9762C-3.13832 20.2122 -4.60044 17.2003 -5.62138 14.0288C-6.75065 10.5252 -6.9823 6.7899 -7.83649 3.17043C-8.32158 1.35439 -9.04707 -0.38872 -9.9937 -2.01266C-10.9185 -3.67929 -12.0256 -5.238 -13.2947 -6.66007C-13.8448 -7.26814 -14.9741 -7.355 -15.8283 -7.68799C-15.9296 -6.97857 -16.2916 -6.24022 -16.0889 -5.60319C-14.6411 -1.25983 -12.9906 2.89533 -11.5428 7.18078C-10.2109 11.1477 -9.18294 15.2305 -7.79306 19.183C-5.91585 23.933 -2.8619 28.1278 1.08188 31.3733C6.03332 35.8036 11.2164 39.8863 16.414 44.1284C23.6529 50.1656 31.9487 54.5235 40.1722 58.9972C45.5483 61.8927 50.9244 64.7883 56.3005 67.6839C60.9624 70.203 65.8415 72.3892 70.2572 75.2848C78.1042 80.4244 86.3856 84.9126 93.3205 91.4566C98.1508 95.9368 102.258 101.138 105.496 106.876C107.342 110.379 109.009 113.974 110.491 117.647C110.853 118.501 110.491 119.645 110.679 120.615C110.923 121.384 111.253 122.122 111.664 122.816L114.979 120.543Z" fill="#C40962"/>
<path d="M53.7379 186.851C49.2033 186.63 44.752 185.549 40.621 183.666C36.6685 181.654 32.3251 180.206 28.7781 177.643C25.3458 174.922 22.2499 171.802 19.5556 168.349C14.8734 163.038 11.348 156.811 9.20396 150.063C8.01677 146.154 7.75617 141.97 6.87302 137.945C5.42523 131.155 3.87609 124.394 0.517223 118.27C-2.07143 113.303 -5.87704 109.074 -10.5439 105.978C-14.1344 103.647 -17.5367 101.041 -20.9824 98.4927C-24.4282 95.9446 -28.2214 93.2807 -31.5658 90.3851C-34.9102 87.4896 -37.7913 84.3913 -40.8751 81.3654C-41.537 80.5475 -42.3009 79.8177 -43.1481 79.1937C-43.8956 79.0097 -44.6839 79.0916 -45.3777 79.4254C-45.566 79.8896 -45.566 80.4089 -45.3777 80.8732C-42.1057 84.4492 -38.9495 88.1121 -35.4024 91.442C-31.1893 95.3076 -26.6433 98.7968 -22.2131 102.402C-17.7828 106.007 -12.8169 109.641 -8.45906 113.68C-6.01276 116.101 -3.85562 118.797 -2.03089 121.715C0.604088 125.581 1.42933 130.084 1.9071 134.673C2.25457 138.046 2.92055 141.376 3.35489 144.735C3.65893 146.849 3.78923 148.992 4.1367 151.105C4.92896 155.294 6.7778 159.211 9.50799 162.485C13.6631 167.74 17.7893 173.068 22.4078 177.918C26.264 182.21 31.1312 185.469 36.5672 187.401C40.4472 188.675 44.3273 190.051 48.2942 191.021C50.2073 191.449 52.1961 191.399 54.0854 190.876C54.9541 190.645 55.5332 188.994 56.0544 187.981C56.0544 187.836 55.4608 187.184 55.041 186.953C54.6163 186.84 54.1748 186.806 53.7379 186.851Z" fill="#C40962"/>
<path d="M91.6408 127.087C91.6408 126.623 91.7132 126.145 91.7422 125.639L93.6678 125.335C93.4342 123.307 93.0125 121.305 92.4082 119.355C89.8586 113.325 86.2717 107.788 81.8104 102.995C77.6339 98.1284 72.7541 93.9122 67.3325 90.4864C61.7875 87.171 56.3293 83.7253 50.7119 80.5257C45.8907 77.7893 40.8959 75.3426 35.9879 72.7365C30.7758 69.9568 25.4914 67.2929 20.4096 64.2815C16.0327 61.6739 11.7901 58.8472 7.69807 55.8119C4.48398 53.4231 1.55945 50.6143 -1.46643 47.9504C-4.18827 45.5471 -7.0549 43.2596 -9.55957 40.6101C-14.3662 35.5284 -19.1439 30.3453 -21.6341 23.6275C-23.0819 19.8488 -24.0664 15.9398 -25.3115 12.0452C-26.5566 8.15068 -27.7583 4.64705 -29.1192 0.998624C-29.264 0.636676 -30.3498 0.506373 -30.9868 0.520851C-31.1751 0.520851 -31.6239 1.40399 -31.5225 1.75146C-29.9734 6.92006 -28.5401 12.1176 -26.7014 17.1704C-25.1749 21.9118 -23.1817 26.4899 -20.751 30.8376C-16.6582 37.5724 -11.6219 43.6862 -5.79532 48.9928C-2.27331 52.3424 1.4444 55.4799 5.33818 58.389C11.6071 62.8337 18.0498 67.0757 24.6517 71.0282C29.3425 73.8369 34.4532 75.9506 39.2888 78.5277C42.0975 79.9755 44.6746 81.959 47.4833 83.4502C51.2186 85.4192 55.0842 87.1565 58.9064 88.9518C63.8051 91.2776 68.1568 94.6129 71.6759 98.7388C74.3108 101.75 77.6697 104.24 79.8558 107.527C83.6635 113.318 86.8197 119.428 90.2365 125.407L91.2644 127.289L91.6408 127.087Z" fill="#C40962"/>
<path d="M45.6156 211.811C46.962 207.555 43.69 208.134 42.1699 207.671C37.5404 206.441 33.1057 204.57 28.995 202.111C23.3525 198.533 18.2278 194.197 13.7642 189.226C9.47941 184.097 5.77019 178.514 2.70314 172.576C1.03819 169.536 -0.19243 166.235 -1.5244 163.035C-3.46443 158.518 -5.40447 154.016 -7.31555 149.455C-8.93707 145.445 -10.3125 141.318 -12.0353 137.337C-13.2724 134.457 -14.7243 131.674 -16.3787 129.012C-18.3911 125.798 -20.6352 122.714 -22.9082 119.674C-25.5866 116.069 -29.4522 114.013 -33.4047 112.175C-36.3003 110.843 -39.1959 109.554 -42.2362 108.512C-42.9601 108.251 -44.0459 109.033 -44.9725 109.322C-44.4658 109.873 -44.0749 110.611 -43.5247 110.915C-39.9777 112.652 -36.2858 114.187 -32.8256 115.982C-30.1457 117.399 -27.9896 119.637 -26.6725 122.367C-25.8183 124.003 -24.5877 125.451 -23.6756 127.072C-21.221 131.088 -18.9693 135.224 -16.9289 139.465C-13.7293 146.704 -11.1377 154.262 -7.98153 161.53C-5.82984 166.837 -3.29433 171.981 -0.395122 176.92C3.04014 182.339 6.88306 187.489 11.1003 192.324C15.9159 198.244 22.0826 202.921 29.0819 205.962C32.5421 207.41 35.6838 209.582 39.0571 211.276C40.461 212.008 41.9784 212.497 43.5453 212.723C44.3415 212.767 45.2392 211.971 45.6156 211.811Z" fill="#C40962"/>
<path d="M26.1286 235.526C24.1886 234.918 22.2341 234.324 20.3375 233.673C11.5032 230.698 3.14145 226.47 -4.49213 221.12C-8.90553 218.049 -13.0909 214.662 -17.0155 210.986C-20.0216 207.898 -22.831 204.624 -25.4271 201.184C-30.7695 194.698 -33.361 186.706 -37.299 179.467C-38.8916 176.572 -40.7448 173.676 -42.5979 170.897C-43.4376 169.608 -44.2484 169.637 -45.2329 170.636C-45.3632 170.766 -45.6962 170.636 -45.9134 170.752C-47.0137 171.056 -47.3611 171.62 -46.5504 172.605C-41.2949 179.163 -38.9929 187.257 -35.1273 194.539C-32.6371 199.23 -30.6826 204.398 -27.3238 208.38C-23.1967 213.093 -18.4874 217.262 -13.3092 220.787C-7.26366 224.876 -0.978651 228.599 5.5121 231.935C9.70759 234.194 14.2471 235.745 18.9476 236.525C22.3209 237.075 25.5929 238.262 28.9084 239.131C29.9218 239.391 32.1948 237.828 31.8039 237.061C31.413 236.293 30.3561 235.917 29.5164 235.7C28.3876 235.508 27.2447 235.411 26.0996 235.41L26.1286 235.526Z" fill="#C40962"/>
<path d="M32.7447 226.029C33.2132 225.718 33.6628 225.379 34.0911 225.015C34.4758 224.664 34.8249 224.276 35.1336 223.857C35.3797 223.553 35.7127 223.205 35.7271 222.872C35.7061 222.69 35.6394 222.516 35.533 222.367C35.4267 222.218 35.2843 222.098 35.1191 222.018C27.8997 220.38 21.0942 217.276 15.1251 212.897C12.0703 210.754 9.00096 208.554 6.14882 206.223C0.119781 201.133 -4.6768 194.742 -7.88025 187.532C-8.82131 185.476 -10.327 183.666 -11.0943 181.552C-13.4977 174.893 -17.0882 168.725 -18.7387 161.689C-20.2989 154.855 -23.4153 148.474 -27.8453 143.041C-31.7279 138.572 -36.2217 134.673 -41.1939 131.459C-41.9757 130.923 -43.2787 131.126 -44.3356 130.981C-43.7999 131.951 -43.4814 133.24 -42.6561 133.877C-38.1914 136.912 -34.2872 140.698 -31.1173 145.068C-28.3145 148.79 -25.784 152.709 -23.5453 156.795C-21.779 160.386 -21.1565 164.512 -19.8535 168.378C-17.8989 174.169 -17.0592 180.423 -13.3963 185.65C-11.8863 188.141 -10.5418 190.728 -9.37148 193.395C-5.73753 200.301 -1.30729 206.585 5.10641 211.218C7.53869 212.998 10.1013 214.605 12.6204 216.27C15.059 218.059 17.6073 219.694 20.2503 221.164C23.8119 222.93 27.5906 224.248 31.2824 225.724C31.7614 225.863 32.2502 225.965 32.7447 226.029Z" fill="#C40962"/>
<path d="M127.749 12.4793C128.067 12.7689 128.125 12.8847 128.198 12.8847C129.269 13.0005 129.645 15.2446 131.093 13.9561C131.942 13.2253 132.705 12.3995 133.366 11.4948C133.844 10.8289 133.902 9.8154 134.452 9.25076C136.508 7.10803 138.795 8.55582 140.866 9.25076C145.991 10.8578 147.526 15.0419 147.888 19.892C148.119 22.7876 144.471 26.5663 140.866 25.6108C136.754 24.5249 133.887 21.6872 130.558 19.4866C124.549 15.5197 119.525 10.4379 114.473 5.37067C112.171 3.05421 109.55 1.02732 107.234 -1.24571C105.25 -3.18575 103.484 -5.34295 101.558 -7.32642C101.356 -7.52963 101.11 -7.6846 100.839 -7.77984C100.569 -7.87509 100.28 -7.90815 99.9947 -7.87658C99.7508 -7.72611 99.5529 -7.5115 99.4226 -7.25616C99.2924 -7.00083 99.2349 -6.71461 99.2563 -6.42879C99.4806 -5.5654 99.8797 -4.75725 100.429 -4.05442C105.174 2.09102 110.583 7.69408 116.557 12.653C120.206 15.65 123.376 19.2115 127.01 22.2229C130.862 25.4225 134.669 28.9841 139.78 29.9396C141.177 30.1513 142.602 30.0823 143.971 29.7368C145.341 29.3912 146.628 28.776 147.757 27.9272C150.884 25.77 151.377 22.7007 151.941 19.1681C153.302 10.4814 143.255 4.00975 136.74 4.69021C135.133 4.85554 133.616 5.51283 132.396 6.57234C130.699 8.42002 129.145 10.3948 127.749 12.4793Z" fill="#C40962"/>
<path d="M28.6188 117.213C27.4316 116.286 26.2734 115.316 25.0572 114.433C21.0179 111.537 17.0075 108.511 12.8813 105.746C10.1016 103.85 6.97435 102.431 4.29594 100.418C-0.814751 96.5672 -5.83858 92.5133 -10.6887 88.4161C-15.9731 84.0003 -21.2141 79.5267 -26.2958 74.8938C-28.9887 72.4325 -31.3486 69.5948 -33.8243 66.902C-36.3 64.2091 -39.0508 61.0963 -41.6279 58.2008C-42.4676 57.2597 -43.1626 56.1449 -44.0602 55.3052C-44.4077 54.9288 -45.1171 54.8998 -45.6672 54.7261C-45.812 55.2907 -46.2174 55.9422 -46.0581 56.391C-44.2339 61.5452 -40.3973 65.2949 -36.8357 69.1895C-33.7375 72.5628 -30.451 75.7769 -27.0776 78.8752C-23.7043 81.9734 -20.0269 85.0283 -16.4219 88.0252C-12.8169 91.0221 -9.18297 94.0335 -5.41872 96.8278C-1.65447 99.622 2.21113 102.054 5.9609 104.747C9.08813 106.977 12.0561 109.409 15.1688 111.639C18.2816 113.868 21.1916 115.982 24.3768 117.777C25.3902 118.356 26.9394 118.023 28.2279 118.11L28.6188 117.213Z" fill="#C40962"/>
<path d="M16.6601 308.972L27.2 307.669C27.3303 307.669 27.4895 307.553 27.6054 307.582C28.7202 307.857 30.11 308.002 29.8784 306.467C29.6257 305.976 29.2504 305.557 28.7888 305.253C28.3273 304.949 27.795 304.769 27.2434 304.73C22.4342 305.999 17.352 305.767 12.6787 304.064C9.10746 303.081 5.62915 301.788 2.28354 300.199C-2.42098 297.864 -6.91183 295.122 -11.1375 292.004C-15.8428 288.399 -20.0269 284.099 -24.4282 280.089C-28.8294 276.078 -32.8398 271.952 -38.2401 269.795C-41.3094 268.564 -44.9578 267.073 -48.3746 269.317C-48.8226 269.588 -49.1453 270.025 -49.2722 270.533C-49.2408 270.782 -49.1456 271.017 -48.9959 271.218C-48.8462 271.418 -48.6471 271.577 -48.418 271.677C-46.6423 272.055 -44.8429 272.312 -43.0322 272.444C-38.1966 272.734 -34.5627 275.34 -31.1025 278.351C-26.9763 281.927 -22.8356 285.46 -18.7963 289.137C-15.5387 292.105 -12.7735 295.783 -9.16847 298.201C-4.08218 301.571 1.29619 304.478 6.90199 306.887C10.1595 308.234 13.9672 308.407 16.6601 308.972Z" fill="#C40962"/>
<path d="M114.646 32.5024C114.823 31.3873 114.887 30.257 114.834 29.1291C114.59 26.8924 114.104 24.6887 113.387 22.5561C112.232 19.6641 110.893 16.8495 109.376 14.13C106.561 8.98126 102.883 4.35362 98.5033 0.448393C94.941 -3.14427 90.3447 -5.53354 85.3574 -6.38517C84.7204 -6.47204 84.1413 -7.0801 83.5187 -7.12354C82.7766 -7.07225 82.0455 -6.91628 81.347 -6.66025C81.6366 -5.74815 81.6945 -4.22797 82.2737 -3.99633C89.6364 -0.807491 96.2498 3.88755 101.688 9.78663C106.218 14.1071 109.418 19.6329 110.911 25.7123C111.584 28.0831 112.406 30.409 113.372 32.6762L114.646 32.5024Z" fill="#C40962"/>
<path d="M163.842 26.8271C163.524 21.1952 163.509 15.3751 160.628 10.4092C158.268 6.6968 155.532 3.23759 152.463 0.0864776C150.664 -1.78384 148.635 -3.41841 146.425 -4.77809C144.731 -5.77063 142.929 -6.5672 141.054 -7.15247C140.562 -7.34068 139.432 -7.05111 139.346 -6.76156C139.027 -5.70467 137.362 -4.47406 139.461 -3.48956C141.23 -2.81735 142.936 -1.98882 144.558 -1.01383C147.278 0.996972 149.892 3.1474 152.39 5.42882C153.881 6.6919 155.191 8.15329 156.285 9.77219C159.381 14.4057 160.63 20.03 159.788 25.5386C159.441 27.5655 160.7 29.0278 161.902 30.4176C162.195 30.4108 162.483 30.3443 162.75 30.2224C163.016 30.1004 163.255 29.9255 163.451 29.7082C163.698 28.7674 163.83 27.7998 163.842 26.8271Z" fill="#C40962"/>
<path d="M94.0444 31.6337C94.2369 29.0256 93.7194 26.4141 92.5467 24.0765C91.3741 21.7389 89.5903 19.7626 87.3846 18.3575C83.6348 15.8673 79.9574 14.767 75.6865 17.1124C73.1963 18.4589 72.6895 21.2241 72.7185 23.6854C72.6341 26.3244 73.5259 28.9018 75.2232 30.9243C75.7385 31.5876 76.463 32.0571 77.279 32.2563C78.7268 32.4011 79.1322 31.127 78.5531 29.7082C77.6737 27.891 77.134 25.9283 76.9605 23.917C76.9605 20.674 78.8861 18.6905 83.3163 19.979C88.2822 21.4268 90.7 24.9884 91.3371 30.1136C91.5857 32.736 90.9485 35.3662 89.5273 37.5841C89.2889 38.253 89.1713 38.9589 89.1798 39.669C89.9472 39.669 91.1778 39.8861 91.395 39.5097C92.4258 37.8149 93.2935 36.0261 93.9865 34.1674C94.1565 33.333 94.1761 32.475 94.0444 31.6337Z" fill="#C40962"/>
<path d="M-11.3838 254.695C-13.0633 256.012 -13.0488 257.257 -10.8337 258.517C-5.95462 261.282 -1.22035 264.467 3.97721 266.393C9.43537 268.434 15.3568 269.288 21.0756 270.504C22.3744 270.786 23.6991 270.932 25.0281 270.939C25.419 270.939 26.1429 270.258 26.1284 269.911C26.0892 269.623 25.992 269.347 25.8426 269.098C25.6933 268.849 25.495 268.633 25.2597 268.463C21.1335 265.814 16.0373 267.131 11.6939 265.075C7.10443 262.918 2.29778 261.253 -2.34962 259.212C-5.34654 257.851 -8.22765 256.273 -11.3838 254.695Z" fill="#C40962"/>
<path d="M-30.6829 308.364C-32.3623 309.682 -32.3479 310.927 -30.1327 312.186C-25.2537 314.952 -20.5194 318.137 -15.3219 320.077C-9.8637 322.104 -3.94224 322.9 1.77652 324.174C3.07532 324.456 4.39997 324.601 5.72898 324.608C6.11988 324.608 6.84378 323.942 6.8293 323.58C6.79177 323.292 6.69526 323.015 6.5458 322.766C6.39634 322.517 6.19714 322.301 5.96063 322.133C1.83443 319.483 -3.26179 320.786 -7.60515 318.745C-12.1946 316.588 -17.0013 314.908 -21.6487 312.867C-24.6456 311.564 -27.5267 309.942 -30.6829 308.364Z" fill="#C40962"/>
<path d="M172.876 18.6471C172.802 16.4641 172.555 14.2905 172.138 12.1465C171.458 9.4576 170.487 6.85072 169.242 4.37191C166.79 0.00270391 163.545 -3.87115 159.673 -7.05116C159.04 -7.65018 158.212 -7.99989 157.342 -8.03564C156.574 -8.03564 155.894 -7.16698 155.17 -6.68921C155.571 -5.96759 156.057 -5.29678 156.618 -4.69126C163.451 1.27363 166.752 9.07721 168.533 17.706C168.837 19.4579 170.835 19.8777 172.876 18.6471Z" fill="#C40962"/>
<path d="M54.5921 29.4188C54.8093 29.274 55.4463 29.0568 55.4463 28.8252C55.4513 28.5781 55.4035 28.3327 55.3062 28.1055C55.2088 27.8783 55.0641 27.6745 54.8817 27.5077C50.4369 24.3226 45.8619 21.2822 41.4896 17.9813C38.2127 15.5691 35.107 12.9327 32.1948 10.0908C29.0059 6.84457 26.018 3.40694 23.2475 -0.202966C22.0228 -2.06965 20.9665 -4.0416 20.0913 -6.09548C19.8738 -6.42163 19.6266 -6.72695 19.3529 -7.00757C18.991 -6.67458 18.296 -6.28368 18.3395 -6.02308C18.5005 -4.56043 18.866 -3.12761 19.4253 -1.76658C22.1616 3.90875 26.6643 8.09286 31.0076 12.552C35.0603 16.5717 39.4972 20.1843 44.2549 23.3381C47.1505 25.3939 50.2922 27.2616 53.3325 29.1292C53.6221 29.3609 53.9985 29.3174 54.5921 29.4188Z" fill="#C40962"/>
<path d="M60.528 15.0999C61.0202 14.5208 61.7586 14.0141 61.7007 13.6522C61.5527 12.8455 61.1873 12.0946 60.6438 11.4805C58.8485 9.45356 57.0243 7.45562 55.1132 5.55902C52.7533 3.19912 50.2776 0.955052 47.8743 -1.36141C46.4265 -2.8092 45.0656 -4.38729 43.5309 -5.70478C42.6313 -6.22821 41.6537 -6.60455 40.6353 -6.81958C40.4182 -5.84956 39.7956 -4.70581 40.0997 -3.924C40.7216 -2.86039 41.5425 -1.92645 42.5175 -1.17319C47.3386 3.57556 52.1597 8.33876 56.9954 13.0151C58.0984 13.8292 59.2821 14.5279 60.528 15.0999Z" fill="#C40962"/>
<path d="M-9.12529 273.545C-10.9495 275.528 -10.7034 275.746 -7.6775 277.439C-3.33413 279.814 0.705197 282.463 4.88931 284.997C5.7483 285.584 6.63749 286.125 7.55323 286.618C8.61012 287.125 9.73939 287.589 10.5357 286.155C11.332 284.722 11.8242 283.535 10.029 282.608C6.51082 280.813 3.02166 278.974 -0.554382 277.28C-3.31966 275.948 -6.18628 274.819 -9.12529 273.545Z" fill="#C40962"/>
<path d="M122.349 -10.3086C121.328 -9.94473 120.356 -9.45859 119.453 -8.86081C119.149 -8.61468 119.25 -7.413 119.612 -6.92075C121.798 -4.34369 124.1 -1.86797 126.388 0.607746C127.165 1.69201 128.149 2.61205 129.283 3.3151C130.196 3.72048 131.513 3.18481 132.657 3.06898C132.426 2.12602 132.045 1.22648 131.528 0.405056C128.632 -2.78008 125.736 -5.82044 122.754 -8.96214C122.349 -9.20826 122.349 -9.8453 122.349 -10.3086Z" fill="#C40962"/>
<path d="M77.2065 2.34519C75.8601 0.752619 74.5281 -0.868908 73.1527 -2.43252C71.7773 -3.99613 70.0689 -5.86378 68.5343 -7.58664C68.5343 -7.58664 68.4619 -7.67351 68.4329 -7.67351C66.9851 -7.67351 65.132 -8.10785 64.2633 -7.38395C62.9603 -6.31259 64.6252 -5.06748 65.407 -4.2712C68.042 -1.62174 70.8218 0.882914 73.5871 3.40207C74.1608 3.94951 74.8408 4.3733 75.585 4.64717C75.7587 4.71956 76.2944 3.89431 76.6129 3.4455C76.7113 3.23607 76.7702 3.01031 76.7867 2.77953L77.2065 2.34519Z" fill="#C40962"/>
<path d="M103.933 69.7832L104.802 70.1017L105.048 69.8411C104.744 69.6529 104.454 69.4358 104.15 69.262C102.543 68.3354 100.95 67.4089 99.3144 66.5402C98.7987 66.3563 98.2716 66.2064 97.7363 66.0914C97.2441 65.9176 96.7952 65.5267 96.2885 65.4978C95.7818 65.4688 95.2461 65.7729 95.1737 66.0479C95.1167 66.2969 95.1144 66.5552 95.1669 66.8052C95.2193 67.0551 95.3254 67.2907 95.4778 67.4957C97.4178 68.9435 99.4881 70.1162 101.414 71.5351C102.688 72.4617 103.701 73.7647 105.019 74.6044C106.882 75.7326 108.816 76.7385 110.81 77.6158C111.215 77.804 111.867 77.442 112.402 77.3262C112.026 76.6168 111.809 75.6902 111.23 75.2703C108.768 73.4896 106.206 71.8536 103.687 70.1741L103.933 69.7832Z" fill="#C40962"/>
<path d="M40.013 510.591C39.2121 509.574 38.4724 508.511 37.7979 507.406C35.5249 503.222 35.9013 500.775 39.4484 497.489C41.4608 495.621 43.6035 493.927 46.6873 493.884C48.5672 493.758 50.4468 494.134 52.1335 494.973C53.8202 495.813 55.2533 497.085 56.2861 498.661C57.5409 500.638 58.3419 502.868 58.6316 505.191C59.1238 509.693 58.8487 513.979 55.5043 517.844C51.9821 522.276 47.2571 525.599 41.8951 527.414C35.5683 529.369 29.6758 528.862 24.6809 524.084C21.5971 521.189 20.8008 517.236 20.8877 513.197C20.9042 508.221 22.2701 503.342 24.8402 499.081C26.4762 496.461 28.7926 494.275 30.6313 491.842C33.5269 488.006 37.8703 486.051 41.9386 483.85C45.6314 482.085 49.737 481.364 53.8104 481.766C56.3079 481.833 58.7939 482.129 61.2376 482.649C65.1476 483.682 68.7942 485.532 71.9367 488.078C73.5205 489.224 74.8286 490.709 75.7653 492.425C76.7021 494.14 77.244 496.044 77.3515 497.995C77.5686 500.558 78.278 503.092 78.278 505.64C78.2534 509.532 76.9456 513.308 74.5572 516.382C71.4201 520.516 68.0357 524.457 64.4227 528.182C59.6718 533.319 54.3312 537.877 48.5115 541.762C44.6025 544.209 40.7803 546.815 36.77 549.001C32.2094 551.564 27.3014 553.576 22.8278 556.24C17.9487 559.135 13.3013 562.523 8.71182 565.911C3.06544 570.081 -2.56647 574.308 -7.92328 578.84C-11.5059 582.043 -14.8903 585.461 -18.0578 589.076C-21.4601 592.797 -24.8624 596.546 -27.9028 600.557C-30.5184 604.074 -32.8841 607.77 -34.9824 611.618C-36.4302 614.296 -37.3134 617.308 -38.5295 620.145C-39.5864 622.578 -40.7881 624.952 -41.8739 627.384C-42.04 627.93 -42.1706 628.486 -42.2648 629.049C-42.6557 630.352 -42.5109 631.945 -44.9143 631.351C-46.1304 631.018 -46.0001 630.627 -45.8264 629.903C-44.0744 621.954 -41.3464 614.251 -37.7043 606.97C-34.2846 600.519 -29.8895 594.635 -24.6742 589.525C-18.5211 583.285 -12.2232 577.146 -5.63578 571.384C2.31346 564.528 11.0639 558.66 20.4244 553.909C23.4793 552.331 26.5051 550.637 29.4731 548.9C34.0915 546.192 38.7534 543.543 43.2416 540.618C46.6235 538.371 49.89 535.955 53.0286 533.379C56.6191 530.484 60.1517 527.588 63.5251 524.403C69.7071 518.684 73.8044 511.836 73.8478 503.135C73.8478 498.574 72.9936 494.144 69.6927 490.713C68.5055 489.482 66.6957 488.889 65.3493 487.817C61.4982 484.545 56.8363 486.37 52.5798 485.689C48.0337 485.038 43.7628 486.789 39.7814 488.773C34.4444 491.281 30.0689 495.459 27.3159 500.674C25.4137 504.05 24.2215 507.78 23.8122 511.634C23.6945 514.067 24.3383 516.476 25.6539 518.526C26.9695 520.576 28.8916 522.165 31.1525 523.071C37.6386 525.518 42.9086 523.375 47.8745 519.292C50.7107 517.003 52.9592 514.07 54.433 510.736C55.2787 508.559 55.3972 506.168 54.7709 503.918C54.1446 501.669 52.8071 499.682 50.9583 498.256C49.5974 497.199 45.0368 497.156 43.7193 498.415C42.2778 499.733 41.0689 501.285 40.1433 503.005C40.0278 503.524 40.0223 504.061 40.127 504.582C40.2317 505.103 40.4444 505.597 40.7514 506.031C41.678 507.71 42.1268 509.143 40.013 510.591Z" fill="#C40962"/>
<path d="M53.7378 459.6C49.204 459.816 44.7527 460.892 40.6208 462.771C36.6683 464.783 32.325 466.231 28.7779 468.793C25.3445 471.502 22.2482 474.613 19.5555 478.059C14.8736 483.365 11.3481 489.587 9.20378 496.33C8.01659 500.254 7.75599 504.424 6.87284 508.463C5.42505 515.239 3.87592 522 0.51705 528.124C-2.09136 533.091 -5.91699 537.315 -10.602 540.401C-14.1925 542.718 -17.5948 545.338 -21.0405 547.886C-24.4863 550.434 -28.2795 553.098 -31.6239 555.994C-34.9682 558.889 -37.8493 561.973 -40.9331 564.999C-41.5912 565.82 -42.3556 566.551 -43.2062 567.171C-43.952 567.36 -44.7406 567.284 -45.4358 566.954C-45.5385 566.711 -45.5914 566.45 -45.5914 566.186C-45.5914 565.923 -45.5385 565.662 -45.4358 565.419C-42.1638 561.843 -39.0076 558.18 -35.4605 554.85C-31.2474 550.984 -26.7014 547.51 -22.2711 543.89C-17.8409 540.271 -12.875 536.651 -8.51715 532.627C-6.07085 530.206 -3.91369 527.509 -2.08896 524.591C0.546012 520.711 1.37124 516.209 1.84901 511.561C2.19648 508.202 2.86246 504.858 3.2968 501.514C3.60084 499.385 3.73114 497.243 4.07861 495.129C4.93662 490.961 6.8397 487.081 9.60916 483.851C13.7643 478.595 17.8905 473.267 22.509 468.432C26.3652 464.14 31.2323 460.881 36.6683 458.949C40.5484 457.674 44.4285 456.285 48.3954 455.315C50.3084 454.887 52.2973 454.937 54.1866 455.459C55.0553 455.691 55.6344 457.341 56.1556 458.427C56.1556 458.572 55.562 459.238 55.1421 459.455C54.6864 459.587 54.2108 459.636 53.7378 459.6Z" fill="#C40962"/>
<path d="M45.6156 434.626C46.962 438.882 43.69 438.303 42.1698 438.766C37.5404 439.996 33.1057 441.867 28.995 444.326C23.3521 447.909 18.2275 452.249 13.7642 457.226C9.48396 462.346 5.78402 467.925 2.73207 473.861C1.06712 476.901 -0.163501 480.187 -1.49547 483.387C-3.4355 487.904 -5.37554 492.421 -7.28662 496.967C-8.90814 500.978 -10.2835 505.104 -12.0064 509.085C-13.2435 511.97 -14.6953 514.757 -16.3498 517.425C-18.3622 520.639 -20.6063 523.708 -22.8793 526.748C-25.5577 530.353 -29.4233 532.409 -33.3758 534.248C-36.2565 535.616 -39.2041 536.838 -42.2073 537.911C-42.9312 538.171 -44.017 537.404 -44.9436 537.1C-44.4369 536.564 -44.046 535.811 -43.4958 535.507C-39.9487 533.77 -36.2569 532.235 -32.7967 530.44C-30.1209 529.024 -27.9657 526.793 -26.6436 524.07C-25.7894 522.419 -24.5587 520.972 -23.6466 519.35C-21.1711 515.356 -18.9 511.239 -16.842 507.015C-13.6424 499.776 -11.0509 492.233 -7.89469 484.965C-5.77394 479.659 -3.26739 474.515 -0.395144 469.575C3.04001 464.151 6.88292 458.997 11.1003 454.156C15.9042 448.199 22.0719 443.487 29.0818 440.417C32.5421 438.969 35.6838 436.797 39.0571 435.103C40.461 434.371 41.9783 433.882 43.5452 433.656C44.3415 433.67 45.2392 434.466 45.6156 434.626Z" fill="#C40962"/>
<path d="M26.1286 410.911C24.1886 411.534 22.2341 412.113 20.3375 412.764C11.5026 415.744 3.14091 419.976 -4.49212 425.331C-8.91212 428.394 -13.0981 431.781 -17.0155 435.465C-20.025 438.545 -22.8346 441.814 -25.4271 445.253C-30.7695 451.739 -33.361 459.73 -37.299 466.969C-38.8916 469.865 -40.7447 472.761 -42.5979 475.555C-43.4376 476.843 -44.2484 476.814 -45.2329 475.801C-45.3632 475.671 -45.6962 475.801 -45.9134 475.685C-47.0137 475.381 -47.3611 474.816 -46.5504 473.832C-41.2515 467.375 -39.0219 459.238 -35.1563 451.999C-32.6661 447.308 -30.7116 442.14 -27.3527 438.173C-23.2298 433.452 -18.5201 429.277 -13.3381 425.751C-7.29573 421.662 -1.01039 417.944 5.48315 414.617C9.69768 412.34 14.2633 410.784 18.991 410.013C22.3644 409.478 25.6364 408.276 28.9518 407.407C29.9653 407.147 32.2383 408.71 31.8474 409.492C31.2835 410.218 30.4666 410.704 29.5599 410.853C28.4315 411.047 27.288 411.139 26.1431 411.128L26.1286 410.911Z" fill="#C40962"/>
<path d="M32.7447 420.409C33.1066 420.684 33.6279 421.017 34.0911 421.422C34.4723 421.777 34.8212 422.164 35.1336 422.58C35.3797 422.884 35.7127 423.232 35.7271 423.579C35.7036 423.761 35.6358 423.933 35.5298 424.082C35.4238 424.231 35.2827 424.352 35.1191 424.434C27.8976 426.065 21.0908 429.17 15.1251 433.555C12.0703 435.697 9.00096 437.826 6.14882 440.229C0.117108 445.31 -4.68017 451.697 -7.88025 458.905C-8.82131 460.961 -10.327 462.785 -11.0943 464.885C-13.4977 471.559 -17.0882 477.712 -18.7387 484.763C-20.299 491.592 -23.4155 497.969 -27.8453 503.396C-31.724 507.869 -36.2184 511.769 -41.1939 514.978C-41.9757 515.514 -43.2787 515.311 -44.3356 515.456C-43.7999 514.486 -43.4814 513.197 -42.6561 512.56C-38.1724 509.505 -34.2534 505.693 -31.0738 501.297C-28.2775 497.57 -25.7473 493.652 -23.5019 489.57C-21.7356 485.979 -21.113 481.838 -19.81 477.987C-17.8555 472.196 -17.0158 465.942 -13.3529 460.715C-11.8459 458.228 -10.5014 455.645 -9.32803 452.984C-5.69408 446.078 -1.26385 439.795 5.14985 435.147C7.58214 433.366 10.1447 431.759 12.6639 430.094C15.1059 428.311 17.6539 426.676 20.2937 425.201C23.8553 423.435 27.634 422.132 31.3259 420.64C31.7939 420.535 32.2676 420.458 32.7447 420.409Z" fill="#C40962"/>
<path d="M127.749 633.958C128.067 633.668 128.125 633.552 128.198 633.552C129.269 633.451 129.645 631.192 131.093 632.481C131.946 633.213 132.709 634.044 133.366 634.957C133.844 635.608 133.902 636.622 134.452 637.201C136.508 639.343 138.795 637.896 140.866 637.201C145.991 635.594 147.526 631.41 147.888 626.574C148.119 623.606 144.471 619.885 140.866 620.783C136.754 621.869 133.887 624.721 130.558 626.921C124.549 630.888 119.525 635.97 114.473 641.023C112.171 643.354 109.55 645.366 107.234 647.639C105.25 649.579 103.484 651.737 101.558 653.734C101.353 653.934 101.107 654.087 100.837 654.182C100.567 654.277 100.28 654.312 99.9947 654.285C99.7519 654.133 99.5549 653.918 99.4248 653.663C99.2948 653.408 99.2365 653.122 99.2564 652.837C99.4806 651.973 99.8797 651.165 100.429 650.462C105.172 644.328 110.582 638.74 116.557 633.798C120.206 630.787 123.377 627.225 127.01 624.214C130.862 621.029 134.669 617.453 139.78 616.497C141.177 616.289 142.601 616.36 143.97 616.705C145.339 617.05 146.627 617.664 147.757 618.51C150.884 620.681 151.377 623.751 151.941 627.196C153.302 635.883 143.255 642.355 136.74 641.674C135.133 641.498 133.618 640.836 132.396 639.778C130.702 637.958 129.149 636.012 127.749 633.958Z" fill="#C40962"/>
<path d="M28.6188 529.224C27.4316 530.165 26.2734 531.121 25.0572 532.004C21.0179 534.899 17.0075 537.94 12.8813 540.691C10.1016 542.587 6.97435 543.992 4.29594 546.018C-0.814751 549.855 -5.83858 553.923 -10.6887 558.021C-15.9731 562.436 -21.2141 566.91 -26.2958 571.543C-28.9887 573.99 -31.3486 576.842 -33.8243 579.535C-36.3 582.228 -39.0508 585.326 -41.6279 588.135C-42.4676 589.09 -43.1626 590.191 -44.0602 591.03C-44.4077 591.392 -45.1171 591.421 -45.6672 591.595C-45.812 591.045 -46.2174 590.393 -46.0581 589.93C-44.2339 584.79 -40.3973 581.026 -36.8357 577.131C-33.7375 573.773 -30.451 570.544 -27.0776 567.446C-23.7043 564.347 -20.0269 561.293 -16.4219 558.31C-12.8169 555.328 -9.18297 552.302 -5.41872 549.493C-1.65447 546.684 2.18217 544.397 5.9609 541.762C9.08813 539.532 12.0561 537.1 15.1688 534.87C18.2816 532.641 21.1916 530.527 24.3768 528.746C25.3902 528.153 26.9394 528.486 28.2279 528.399L28.6188 529.224Z" fill="#C40962"/>
<path d="M16.6601 337.465L27.2 338.768C27.3303 338.768 27.4896 338.898 27.6054 338.869C28.7202 338.579 30.1101 338.435 29.8784 339.969C29.6265 340.463 29.2517 340.883 28.7902 341.19C28.3288 341.497 27.7961 341.68 27.2434 341.721C22.4357 340.448 17.3535 340.675 12.6787 342.373C9.12211 343.388 5.65891 344.705 2.32699 346.311C-2.37455 348.65 -6.86494 351.392 -11.094 354.505C-15.7993 358.11 -19.9834 362.424 -24.3847 366.42C-28.786 370.416 -32.7964 374.571 -38.1966 376.729C-41.2659 377.945 -44.9144 379.436 -48.3311 377.192C-48.5525 377.061 -48.7458 376.887 -48.8998 376.681C-49.0538 376.474 -49.1656 376.24 -49.2288 375.99C-49.1997 375.739 -49.1056 375.501 -48.9558 375.297C-48.8059 375.094 -48.6056 374.934 -48.3746 374.832C-46.5986 374.459 -44.7991 374.207 -42.9888 374.079C-38.1532 373.79 -34.5192 371.184 -31.059 368.158C-26.9328 364.582 -22.7921 361.049 -18.7528 357.386C-15.4953 354.404 -12.73 350.741 -9.12501 348.323C-4.03852 344.953 1.33982 342.046 6.94544 339.636C10.1595 338.203 13.9672 338.029 16.6601 337.465Z" fill="#C40962"/>
<path d="M114.646 613.935C114.823 615.05 114.886 616.18 114.834 617.308C114.59 619.55 114.104 621.758 113.387 623.896C112.227 626.785 110.887 629.599 109.376 632.322C106.553 637.465 102.877 642.092 98.5033 646.003C94.9396 649.591 90.3432 651.976 85.3574 652.822C84.7204 652.909 84.1413 653.532 83.5187 653.561C82.7782 653.508 82.048 653.357 81.347 653.112C81.6366 652.185 81.6945 650.68 82.2737 650.448C89.6301 647.248 96.2414 642.555 101.688 636.665C106.217 632.343 109.416 626.818 110.911 620.739C111.586 618.374 112.408 616.053 113.372 613.79L114.646 613.935Z" fill="#C40962"/>
<path d="M163.842 619.61C163.524 625.256 163.509 631.062 160.628 636.028C158.272 639.743 155.535 643.203 152.463 646.351C150.664 648.226 148.636 649.865 146.425 651.23C144.728 652.216 142.926 653.013 141.054 653.604C140.562 653.778 139.432 653.503 139.346 653.199C139.027 652.156 137.362 650.911 139.461 649.927C141.235 649.266 142.942 648.437 144.558 647.451C147.281 645.445 149.896 643.294 152.39 641.008C153.885 639.749 155.196 638.287 156.285 636.665C159.379 632.025 160.629 626.397 159.788 620.884C159.441 618.857 160.7 617.395 161.902 616.005C162.196 616.012 162.486 616.08 162.753 616.205C163.019 616.329 163.257 616.508 163.451 616.729C163.701 617.669 163.832 618.637 163.842 619.61Z" fill="#C40962"/>
<path d="M94.0443 614.803C94.2368 617.411 93.7192 620.023 92.5466 622.36C91.374 624.698 89.5901 626.674 87.3845 628.079C83.6347 630.569 79.9573 631.67 75.6863 629.339C73.1961 627.978 72.6894 625.213 72.7184 622.766C72.6381 620.128 73.5294 617.552 75.223 615.527C75.7383 614.864 76.4629 614.394 77.2789 614.195C78.7267 614.05 79.1321 615.339 78.553 616.743C77.6769 618.562 77.1374 620.524 76.9604 622.534C76.9604 625.763 78.8859 627.761 83.3162 626.458C88.2821 625.01 90.6999 621.463 91.3369 616.396C91.5866 613.769 90.9495 611.133 89.5272 608.911C89.289 608.247 89.1713 607.546 89.1797 606.84C89.947 606.84 91.1777 606.623 91.3948 606.985C92.4231 608.681 93.2908 610.47 93.9864 612.327C94.1495 613.143 94.1691 613.981 94.0443 614.803Z" fill="#C40962"/>
<path d="M-11.3838 391.757C-13.0633 390.439 -13.0488 389.194 -10.8337 387.935C-5.95462 385.169 -1.22035 381.984 3.97721 380.044C9.43537 378.017 15.3568 377.221 21.0756 375.947C22.3732 375.658 23.6986 375.512 25.0281 375.513C25.419 375.513 26.1429 376.179 26.1284 376.541C26.0908 376.829 25.9943 377.106 25.8449 377.355C25.6954 377.604 25.4962 377.82 25.2597 377.988C21.1335 380.638 16.0373 379.335 11.6939 381.376C7.10443 383.533 2.29778 385.213 -2.34962 387.24C-5.34654 388.586 -8.22765 390.179 -11.3838 391.757Z" fill="#C40962"/>
<path d="M-37.2701 344.718C-38.9351 343.386 -38.9351 342.156 -36.72 340.881C-31.8409 338.131 -27.0922 334.946 -21.8946 333.006C-16.4509 330.979 -10.5295 330.182 -4.81069 328.894C-3.51063 328.62 -2.18677 328.474 -0.858226 328.459C-0.600469 328.522 -0.3629 328.649 -0.167878 328.829C0.027144 329.009 0.173202 329.236 0.256566 329.487C0.21645 329.776 0.117359 330.054 -0.0345669 330.303C-0.186493 330.552 -0.388009 330.767 -0.626586 330.935C-4.75278 333.585 -9.84899 332.282 -14.1924 334.323C-18.7818 336.48 -23.5885 338.16 -28.2359 340.187C-31.2328 341.547 -34.0995 343.14 -37.2701 344.718Z" fill="#C40962"/>
<path d="M172.876 627.79C172.802 629.973 172.555 632.146 172.138 634.29C171.455 636.983 170.485 639.595 169.242 642.079C166.793 646.447 163.547 650.317 159.673 653.488C159.041 654.091 158.214 654.446 157.342 654.487C156.574 654.415 155.894 653.604 155.17 653.126C155.578 652.409 156.063 651.739 156.618 651.128C163.451 645.163 166.752 637.36 168.533 628.731C168.837 626.994 170.835 626.574 172.876 627.79Z" fill="#C40962"/>
<path d="M54.5921 617.047C54.8093 617.192 55.4463 617.409 55.4463 617.641C55.4513 617.888 55.4035 618.133 55.3062 618.361C55.2088 618.588 55.0641 618.792 54.8817 618.958C50.4369 622.158 45.8619 625.184 41.4896 628.485C38.209 630.898 35.103 633.539 32.1948 636.39C29.0026 639.628 26.0144 643.061 23.2475 646.669C22.0254 648.542 20.9693 650.519 20.0913 652.576C19.8703 652.9 19.6233 653.205 19.3529 653.488C18.991 653.155 18.296 652.764 18.3395 652.504C18.497 651.04 18.8626 649.607 19.4253 648.247C22.1616 642.572 26.6643 638.388 31.0076 633.929C35.0563 629.9 39.4936 626.282 44.2549 623.128C47.1505 621.072 50.2922 619.205 53.3325 617.337C53.7356 617.178 54.1601 617.081 54.5921 617.047Z" fill="#C40962"/>
<path d="M60.528 631.337C61.0202 631.931 61.7586 632.437 61.7007 632.785C61.5527 633.591 61.1873 634.342 60.6438 634.956C58.8485 636.983 57.0243 638.981 55.1132 640.892C52.7533 643.252 50.2776 645.482 47.8743 647.813C46.4265 649.261 45.0656 650.824 43.5309 652.156C42.6343 652.686 41.6557 653.063 40.6353 653.271C40.4182 652.301 39.7956 651.157 40.0997 650.375C40.725 649.31 41.5452 648.372 42.5175 647.61C47.3386 642.861 52.1597 638.098 56.9954 633.422C58.0984 632.608 59.2821 631.909 60.528 631.337Z" fill="#C40962"/>
<path d="M-9.12529 372.907C-10.9495 370.923 -10.7034 370.691 -7.6775 368.998C-3.33413 366.623 0.705197 363.974 4.88931 361.44C5.77246 360.904 6.62665 360.267 7.55323 359.819C8.47982 359.37 9.73939 358.863 10.5357 360.296C11.332 361.73 11.8242 362.902 10.029 363.829C6.51082 365.624 3.02166 367.463 -0.554382 369.171C-3.31966 370.489 -6.18628 371.632 -9.12529 372.907Z" fill="#C40962"/>
<path d="M13.4461 326.041C12.5485 323.493 12.8525 323.378 16.3417 323.03C21.1918 322.523 26.0274 321.713 30.8196 321.032C31.8475 320.887 32.8754 320.627 33.9178 320.583C34.9602 320.54 36.2922 320.583 36.4659 322.19C36.6397 323.797 36.6252 325.086 34.5983 325.245C30.6603 325.52 26.7223 325.824 22.7843 325.984C19.7295 326.041 16.6602 326.041 13.4461 326.041Z" fill="#C40962"/>
<path d="M122.349 656.76C121.333 656.385 120.362 655.899 119.453 655.312C119.149 655.052 119.25 653.864 119.612 653.358C121.798 650.795 124.1 648.305 126.388 645.829C127.174 644.752 128.156 643.834 129.283 643.122C130.196 642.731 131.513 643.252 132.657 643.368C132.429 644.312 132.047 645.212 131.528 646.032C128.632 649.217 125.736 652.272 122.754 655.399C122.349 655.66 122.349 656.253 122.349 656.76Z" fill="#C40962"/>
<path d="M77.2065 644.106C75.8601 645.699 74.5281 647.306 73.1527 648.884C71.7773 650.462 70.0689 652.315 68.5343 654.024C68.5343 654.024 68.4619 654.125 68.4329 654.125C66.9851 654.125 65.132 654.559 64.2633 653.836C62.9603 652.75 64.6252 651.519 65.407 650.723C68.042 648.059 70.8218 645.554 73.5871 643.035C74.1682 642.497 74.8462 642.075 75.585 641.79C75.7587 641.79 76.2944 642.543 76.6129 642.992C76.7095 643.202 76.7683 643.427 76.7867 643.658L77.2065 644.106Z" fill="#C40962"/>
<path d="M-16.2048 652.04C-14.757 647.769 -13.1065 643.542 -11.6587 639.271C-10.3268 635.289 -9.29886 631.206 -7.90898 627.269C-6.03615 622.512 -2.98165 618.311 0.965972 615.064C5.91741 610.72 11.1005 606.565 16.298 602.309C23.537 596.286 31.8328 591.913 40.0563 587.44C45.4324 584.544 50.8085 581.649 56.1846 578.753C60.8465 576.234 65.7256 574.062 70.1413 571.152C71.3575 570.37 72.5736 569.589 73.8042 568.821L75.9904 571.992L73.8766 573.353C71.1113 575.119 68.0854 576.538 65.4505 578.464C59.0802 583.154 51.682 585.789 44.6747 589.206C39.4771 591.754 34.2796 594.346 29.3571 597.357C25.0834 600.086 20.9742 603.064 17.0509 606.276C12.9247 609.519 8.91433 612.935 5.03425 616.482C2.64108 618.564 0.507147 620.927 -1.32154 623.519C-3.18453 626.281 -4.64685 629.294 -5.6649 632.466C-6.79418 635.955 -7.02582 639.705 -7.88002 643.325C-8.3704 645.139 -9.09561 646.881 -10.0372 648.508C-10.9691 650.17 -12.0757 651.728 -13.3382 653.155C-13.8883 653.763 -15.0176 653.85 -15.8718 654.168C-16.0456 653.43 -16.4075 652.634 -16.2048 652.04Z" fill="#C40962"/>
<path d="M-31.5945 644.555C-30.0454 639.401 -28.6121 634.189 -26.7734 629.136C-25.2368 624.44 -23.2438 619.907 -20.823 615.599C-16.734 608.866 -11.6971 602.757 -5.86732 597.459C-2.3527 594.101 1.36551 590.963 5.26616 588.062C11.5399 583.603 17.9778 579.39 24.5797 575.423C29.2705 572.528 34.3812 570.486 39.2168 567.909C42.0255 566.461 44.6026 564.478 47.4113 563.001C51.1466 561.032 55.0122 559.28 58.8343 557.485C60.4578 556.729 62.0254 555.858 63.5252 554.879C64.0498 554.811 64.5828 554.897 65.0598 555.125C65.7403 555.502 63.7713 558.122 63.7713 558.122C59.4279 560.772 55.0846 563.45 50.6254 565.969C45.8042 568.706 40.8094 571.152 35.9014 573.758C30.6893 576.538 25.4049 579.202 20.3232 582.213C15.9462 584.821 11.7036 587.648 7.61159 590.683C4.3975 593.086 1.47296 595.895 -1.55292 598.559C-4.27476 600.962 -7.14138 603.25 -9.64605 605.885C-14.4527 610.966 -19.2304 616.164 -21.7206 622.882C-23.1684 626.646 -24.1529 630.555 -25.398 634.464C-26.6431 638.373 -27.8448 641.862 -29.2057 645.496C-29.3505 645.873 -30.4363 645.988 -31.0733 645.988C-31.2471 645.858 -31.6959 644.961 -31.5945 644.555Z" fill="#C40962"/>
<path d="M267.89 322.958L209.247 316.349L236.315 282.461L202.412 309.484L195.804 250.841L189.196 309.484L155.307 282.461L182.345 316.349L123.703 322.958L182.345 329.566L155.277 363.454L189.165 336.431L195.774 395.074L202.382 336.431L236.315 363.454L209.247 329.566L267.89 322.958ZM249.441 322.958L207.735 327.66L203.985 322.958L207.735 318.255L249.441 322.958ZM225.927 292.82L207.327 316.122L203.077 315.639L202.609 311.404L225.927 292.82ZM195.774 269.244L200.476 310.966L195.774 314.716L191.086 310.966L195.774 269.244ZM165.636 292.774L188.954 311.374L188.485 315.608L184.236 316.092L165.636 292.774ZM142.121 322.912L183.827 318.209L187.577 322.912L183.827 327.615L142.121 322.912ZM165.636 353.05L184.236 329.732L188.485 330.201L188.954 334.45L165.636 353.05ZM195.774 376.61L191.086 334.904L195.774 331.154L200.476 334.904L195.774 376.61ZM201.217 328.386L201.036 330.019L200.703 332.968L196.802 329.944L195.774 329.127L194.76 329.944L190.859 332.968L190.526 330.019L190.345 328.386L188.712 328.19L185.687 327.857L188.802 323.971L189.619 322.942L188.802 321.929L185.687 318.028L188.712 317.695L190.345 317.514L190.526 315.88L190.859 312.856L194.76 315.971L195.774 316.773L196.802 315.971L200.703 312.856L201.036 315.88L201.217 317.514L202.851 317.695L205.875 318.028L202.775 321.929L201.958 322.942L202.775 323.971L205.875 327.857L202.851 328.19L201.217 328.386ZM225.927 353.08L202.609 334.496L203.077 330.246L207.327 329.778L225.927 353.08Z" fill="#F52185"/>
</g>
<defs>
<radialGradient id="paint0_radial_28_14433" cx="0" cy="0" r="1" gradientUnits="userSpaceOnUse" gradientTransform="translate(196.149 324.146) rotate(90) scale(325.864 196.149)">
<stop stop-color="#AF2265"/>
<stop offset="1" stop-color="#690032"/>
</radialGradient>
<clipPath id="clip0_28_14433">
<rect width="392.069" height="650" fill="white"/>
</clipPath>
</defs>
</svg>
