<svg width="393" height="650" viewBox="0 0 393 650" fill="none" xmlns="http://www.w3.org/2000/svg">
<path fill-rule="evenodd" clip-rule="evenodd" d="M16.7413 0.0013227H377.072C381.211 -0.0523934 385.204 1.53188 388.18 4.40892C391.156 7.28595 392.874 11.2226 392.96 15.3609V634.639C392.874 638.777 391.156 642.714 388.18 645.591C385.204 648.468 381.211 650.052 377.072 649.999H16.7413C12.6024 650.052 8.61012 648.468 5.63423 645.591C2.65834 642.714 0.940089 638.777 0.854004 634.639V15.3609C0.940089 11.2226 2.65834 7.28595 5.63423 4.40892C8.61012 1.53188 12.6024 -0.0523934 16.7413 0.0013227Z" fill="#5A0E32"/>
<path d="M355.423 35.0796H37.6226V612.064H355.423V35.0796Z" fill="#F4E5CC"/>
<path d="M238.892 84.041C237.845 83.7437 236.914 83.1309 236.228 82.286C235.542 81.4412 235.132 80.4052 235.056 79.3193C234.923 80.6298 234.477 81.8891 233.755 82.9907C233.033 84.0923 232.057 85.0036 230.908 85.6476C232.058 85.7551 233.13 86.2793 233.921 87.1217C234.712 87.9641 235.168 89.0666 235.203 90.2217C235.242 88.9629 235.601 87.7348 236.247 86.6534C236.892 85.572 237.802 84.6728 238.892 84.041Z" stroke="#5A0E32" stroke-width="2.38327" stroke-linecap="round" stroke-linejoin="round"/>
<path d="M296.141 143.242C295.097 142.936 294.171 142.319 293.488 141.472C292.805 140.625 292.398 139.589 292.321 138.504C292.189 139.814 291.743 141.073 291.021 142.175C290.299 143.277 289.322 144.188 288.173 144.832C289.323 144.943 290.392 145.468 291.183 146.31C291.973 147.151 292.43 148.252 292.469 149.406C292.503 148.15 292.858 146.924 293.501 145.845C294.144 144.766 295.053 143.869 296.141 143.242Z" stroke="#5A0E32" stroke-width="2.38327" stroke-linecap="round" stroke-linejoin="round"/>
<path d="M305.797 208.229C304.752 207.923 303.825 207.305 303.14 206.459C302.455 205.612 302.044 204.577 301.961 203.491C301.831 204.8 301.387 206.059 300.668 207.16C299.949 208.262 298.975 209.174 297.83 209.82C298.979 209.931 300.049 210.456 300.839 211.298C301.629 212.139 302.086 213.24 302.125 214.394C302.159 213.138 302.514 211.912 303.157 210.833C303.8 209.753 304.709 208.857 305.797 208.229Z" stroke="#5A0E32" stroke-width="2.38327" stroke-linecap="round" stroke-linejoin="round"/>
<path d="M243.908 499.643C242.863 499.341 241.935 498.727 241.249 497.883C240.564 497.039 240.153 496.005 240.071 494.921C239.941 496.23 239.498 497.488 238.778 498.59C238.059 499.691 237.086 500.603 235.94 501.249C237.091 501.357 238.162 501.881 238.953 502.723C239.744 503.566 240.2 504.668 240.235 505.823C240.271 504.566 240.627 503.338 241.27 502.257C241.912 501.175 242.82 500.275 243.908 499.643Z" stroke="#5A0E32" stroke-width="2.38327" stroke-linecap="round" stroke-linejoin="round"/>
<path d="M78.7483 443.36C77.7021 443.056 76.774 442.439 76.0883 441.592C75.4027 440.745 74.9922 439.709 74.912 438.622C74.7799 439.933 74.3339 441.192 73.6119 442.294C72.8899 443.395 71.9131 444.307 70.7642 444.951C71.9122 445.065 72.9799 445.591 73.7696 446.432C74.5594 447.273 75.0176 448.372 75.0595 449.525C75.0982 448.268 75.4574 447.042 76.1029 445.963C76.7485 444.884 77.6591 443.988 78.7483 443.36Z" stroke="#5A0E32" stroke-width="2.38327" stroke-linecap="round" stroke-linejoin="round"/>
<path d="M303.11 478.527C302.065 478.22 301.138 477.602 300.453 476.756C299.767 475.91 299.356 474.875 299.274 473.789C299.143 475.097 298.7 476.356 297.981 477.457C297.262 478.559 296.288 479.471 295.142 480.117C296.291 480.228 297.361 480.753 298.152 481.595C298.942 482.436 299.399 483.537 299.437 484.691C299.471 483.435 299.827 482.209 300.47 481.13C301.113 480.051 302.022 479.154 303.11 478.527Z" stroke="#5A0E32" stroke-width="2.38327" stroke-linecap="round" stroke-linejoin="round"/>
<path d="M304.912 420.014C303.859 419.714 302.925 419.096 302.235 418.245C301.546 417.395 301.135 416.352 301.059 415.26C300.927 416.57 300.481 417.83 299.759 418.931C299.037 420.033 298.061 420.944 296.912 421.588C298.062 421.696 299.134 422.22 299.925 423.062C300.716 423.905 301.172 425.007 301.207 426.162C301.253 424.908 301.617 423.685 302.265 422.61C302.914 421.534 303.824 420.641 304.912 420.014Z" stroke="#5A0E32" stroke-width="2.38327" stroke-linecap="round" stroke-linejoin="round"/>
<path d="M193.986 237.035C192.941 236.733 192.013 236.119 191.327 235.275C190.642 234.431 190.23 233.398 190.149 232.313C190.015 233.621 189.568 234.877 188.846 235.975C188.124 237.074 187.148 237.983 186.001 238.625C187.152 238.74 188.222 239.268 189.012 240.113C189.802 240.957 190.259 242.06 190.297 243.216C190.336 241.957 190.695 240.729 191.34 239.647C191.986 238.566 192.896 237.667 193.986 237.035Z" stroke="#5A0E32" stroke-width="2.38327" stroke-linecap="round" stroke-linejoin="round"/>
<path d="M166.067 485.117C165.02 484.813 164.092 484.196 163.407 483.349C162.721 482.502 162.311 481.466 162.23 480.379C162.098 481.69 161.652 482.949 160.93 484.051C160.208 485.152 159.231 486.064 158.083 486.708C159.231 486.822 160.298 487.348 161.088 488.189C161.878 489.03 162.336 490.129 162.378 491.282C162.417 490.025 162.776 488.799 163.421 487.72C164.067 486.641 164.977 485.745 166.067 485.117Z" stroke="#5A0E32" stroke-width="2.38327" stroke-linecap="round" stroke-linejoin="round"/>
<path d="M255.679 323.664C254.634 323.36 253.707 322.743 253.023 321.896C252.34 321.048 251.934 320.012 251.859 318.926C251.727 320.236 251.281 321.495 250.559 322.597C249.837 323.698 248.86 324.61 247.711 325.254C248.859 325.368 249.927 325.894 250.717 326.735C251.507 327.576 251.965 328.675 252.007 329.828C252.042 328.572 252.398 327.347 253.041 326.268C253.684 325.189 254.592 324.292 255.679 323.664Z" stroke="#5A0E32" stroke-width="2.38327" stroke-linecap="round" stroke-linejoin="round"/>
<path d="M84.8323 213C83.7861 212.696 82.858 212.079 82.1723 211.232C81.4867 210.385 81.0762 209.349 80.996 208.262C80.8639 209.573 80.4179 210.832 79.6959 211.934C78.9739 213.035 77.9971 213.947 76.8481 214.591C77.9974 214.702 79.0671 215.227 79.8575 216.069C80.648 216.91 81.1051 218.011 81.1435 219.165C81.1806 217.908 81.5391 216.681 82.1849 215.602C82.8306 214.523 83.7421 213.627 84.8323 213Z" stroke="#5A0E32" stroke-width="2.38327" stroke-linecap="round" stroke-linejoin="round"/>
<path d="M237.793 186.457C236.745 186.157 235.814 185.541 235.128 184.693C234.441 183.846 234.033 182.807 233.957 181.719C233.825 183.03 233.379 184.289 232.657 185.391C231.935 186.492 230.958 187.404 229.809 188.048C230.958 188.158 232.028 188.684 232.818 189.525C233.609 190.367 234.066 191.468 234.104 192.622C234.138 191.364 234.496 190.136 235.142 189.056C235.788 187.977 236.701 187.082 237.793 186.457Z" stroke="#5A0E32" stroke-width="2.38327" stroke-linecap="round" stroke-linejoin="round"/>
<path d="M221.612 443.524C220.568 443.221 219.642 442.606 218.956 441.763C218.271 440.919 217.859 439.886 217.775 438.803C217.643 440.109 217.198 441.364 216.479 442.462C215.76 443.561 214.788 444.47 213.644 445.115C214.79 445.229 215.856 445.756 216.643 446.597C217.43 447.439 217.885 448.537 217.923 449.689C217.962 448.432 218.321 447.206 218.966 446.127C219.612 445.048 220.523 444.152 221.612 443.524Z" stroke="#5A0E32" stroke-width="2.38327" stroke-linecap="round" stroke-linejoin="round"/>
<path d="M78.2739 331.582C77.2277 331.277 76.2996 330.66 75.6139 329.813C74.9283 328.967 74.5178 327.93 74.4376 326.844C74.2997 328.144 73.8527 329.392 73.134 330.485C72.4153 331.577 71.4457 332.482 70.3062 333.123C71.4555 333.234 72.5252 333.759 73.3156 334.601C74.106 335.442 74.5631 336.543 74.6015 337.697C74.6437 336.45 75.003 335.234 75.6455 334.164C76.288 333.094 77.1926 332.205 78.2739 331.582Z" stroke="#5A0E32" stroke-width="2.38327" stroke-linecap="round" stroke-linejoin="round"/>
<path d="M164.836 79.3359C163.792 79.0344 162.864 78.4204 162.178 77.5764C161.492 76.7324 161.081 75.6987 161 74.6143C160.867 75.9203 160.423 77.1753 159.704 78.2737C158.985 79.3721 158.012 80.2818 156.869 80.9262C158.028 81.0419 159.104 81.5776 159.895 82.4323C160.687 83.2869 161.138 84.4014 161.164 85.5658C161.188 84.2991 161.539 83.0602 162.182 81.9688C162.826 80.8774 163.74 79.9705 164.836 79.3359Z" stroke="#5A0E32" stroke-width="2.38327" stroke-linecap="round" stroke-linejoin="round"/>
<path d="M152.033 191.737C150.988 191.43 150.062 190.813 149.376 189.966C148.691 189.12 148.28 188.085 148.197 186.999C148.065 188.309 147.619 189.569 146.897 190.67C146.175 191.772 145.198 192.683 144.049 193.327C145.199 193.438 146.268 193.963 147.059 194.805C147.849 195.647 148.306 196.747 148.345 197.901C148.382 196.644 148.74 195.418 149.386 194.339C150.032 193.26 150.943 192.364 152.033 191.737Z" stroke="#5A0E32" stroke-width="2.38327" stroke-linecap="round" stroke-linejoin="round"/>
<path d="M144.902 422.195C143.857 421.888 142.93 421.271 142.245 420.424C141.559 419.578 141.148 418.543 141.066 417.457C140.935 418.766 140.492 420.024 139.773 421.125C139.054 422.227 138.08 423.139 136.934 423.785C138.083 423.896 139.153 424.421 139.943 425.263C140.734 426.105 141.191 427.205 141.229 428.359C141.263 427.103 141.619 425.877 142.262 424.798C142.905 423.719 143.814 422.822 144.902 422.195Z" stroke="#5A0E32" stroke-width="2.38327" stroke-linecap="round" stroke-linejoin="round"/>
<path d="M76.3559 150.242C75.3116 149.937 74.3858 149.319 73.7029 148.472C73.02 147.625 72.6128 146.589 72.536 145.504C72.4039 146.815 71.9579 148.074 71.2359 149.176C70.5139 150.277 69.5371 151.188 68.3882 151.832C69.5375 151.943 70.6072 152.469 71.3976 153.31C72.188 154.152 72.6451 155.253 72.6836 156.407C72.7174 155.151 73.0728 153.925 73.7158 152.845C74.3587 151.766 75.2677 150.87 76.3559 150.242Z" stroke="#5A0E32" stroke-width="2.38327" stroke-linecap="round" stroke-linejoin="round"/>
<path d="M83.7171 387.504C82.6722 387.203 81.7445 386.589 81.0588 385.745C80.373 384.901 79.9619 383.867 79.8807 382.783C79.7486 384.093 79.3027 385.353 78.5807 386.454C77.8586 387.556 76.8818 388.467 75.7329 389.111C76.8835 389.218 77.9552 389.743 78.7463 390.585C79.5374 391.428 79.9933 392.53 80.0283 393.685C80.0673 392.426 80.4264 391.198 81.0718 390.117C81.7173 389.035 82.6277 388.136 83.7171 387.504Z" stroke="#5A0E32" stroke-width="2.38327" stroke-linecap="round" stroke-linejoin="round"/>
<path d="M309.601 352.649C308.556 352.348 307.628 351.734 306.943 350.89C306.257 350.046 305.846 349.012 305.765 347.928C305.63 349.235 305.183 350.491 304.461 351.59C303.739 352.688 302.763 353.597 301.617 354.24C302.767 354.354 303.837 354.883 304.627 355.727C305.418 356.572 305.874 357.674 305.912 358.83C305.948 357.571 306.306 356.341 306.952 355.259C307.597 354.177 308.509 353.279 309.601 352.649Z" stroke="#5A0E32" stroke-width="2.38327" stroke-linecap="round" stroke-linejoin="round"/>
<path d="M194.102 376.421C193.057 376.115 192.13 375.497 191.445 374.651C190.759 373.804 190.348 372.769 190.265 371.683C190.133 372.994 189.687 374.253 188.965 375.354C188.243 376.456 187.267 377.367 186.118 378.011C187.267 378.122 188.337 378.648 189.127 379.489C189.917 380.331 190.375 381.431 190.413 382.585C190.45 381.328 190.809 380.102 191.454 379.023C192.1 377.944 193.012 377.048 194.102 376.421Z" stroke="#5A0E32" stroke-width="2.38327" stroke-linecap="round" stroke-linejoin="round"/>
<path d="M304.929 82.7617C303.874 82.4723 302.935 81.8626 302.242 81.0168C301.549 80.171 301.136 79.1309 301.059 78.04C300.925 79.3476 300.478 80.6036 299.756 81.7022C299.034 82.8007 298.058 83.7095 296.912 84.3519C298.062 84.4666 299.132 84.9952 299.922 85.8396C300.712 86.684 301.169 87.7866 301.207 88.9424C301.245 87.6794 301.607 86.4473 302.259 85.3648C302.91 84.2823 303.83 83.3859 304.929 82.7617Z" stroke="#5A0E32" stroke-width="2.38327" stroke-linecap="round" stroke-linejoin="round"/>
<path d="M84.6512 82.1392C83.5916 81.8427 82.6502 81.2244 81.9571 80.3698C81.264 79.5152 80.8535 78.4664 80.7821 77.3684C80.65 78.6789 80.204 79.9382 79.482 81.0398C78.76 82.1413 77.7832 83.0527 76.6343 83.6967C77.7836 83.8075 78.8533 84.3328 79.6437 85.1745C80.4341 86.0162 80.8912 87.1168 80.9296 88.2708C80.9741 87.0159 81.3395 85.7933 81.9911 84.7198C82.6426 83.6464 83.5585 82.7579 84.6512 82.1392Z" stroke="#5A0E32" stroke-width="2.38327" stroke-linecap="round" stroke-linejoin="round"/>
<path d="M308.864 280.087C307.819 279.786 306.891 279.172 306.205 278.328C305.519 277.484 305.108 276.45 305.027 275.365C304.893 276.673 304.445 277.929 303.724 279.028C303.002 280.126 302.026 281.035 300.879 281.677C302.03 281.792 303.1 282.321 303.89 283.165C304.68 284.009 305.137 285.112 305.175 286.268C305.214 285.009 305.573 283.781 306.218 282.7C306.864 281.618 307.774 280.719 308.864 280.087Z" stroke="#5A0E32" stroke-width="2.38327" stroke-linecap="round" stroke-linejoin="round"/>
<path d="M134.311 131.667C133.282 131.35 132.374 130.729 131.704 129.887C131.034 129.044 130.634 128.019 130.557 126.946C130.422 128.253 129.975 129.509 129.253 130.608C128.531 131.706 127.555 132.615 126.409 133.257C127.533 133.405 128.568 133.948 129.328 134.789C130.088 135.63 130.523 136.715 130.557 137.848C130.599 136.582 130.967 135.349 131.624 134.266C132.282 133.183 133.207 132.288 134.311 131.667Z" stroke="#5A0E32" stroke-width="2.38327" stroke-linecap="round" stroke-linejoin="round"/>
<path d="M197.774 306.089C196.728 305.784 195.799 305.167 195.114 304.32C194.428 303.474 194.018 302.437 193.937 301.351C193.805 302.661 193.359 303.921 192.637 305.022C191.915 306.124 190.938 307.035 189.79 307.679C190.939 307.79 192.009 308.315 192.799 309.157C193.589 309.999 194.046 311.099 194.085 312.253C194.122 310.996 194.481 309.77 195.126 308.691C195.772 307.611 196.683 306.716 197.774 306.089Z" stroke="#5A0E32" stroke-width="2.38327" stroke-linecap="round" stroke-linejoin="round"/>
<path d="M205.234 137.241C204.187 136.936 203.259 136.319 202.574 135.473C201.888 134.626 201.478 133.59 201.397 132.503C201.265 133.813 200.819 135.073 200.097 136.174C199.375 137.276 198.398 138.187 197.25 138.831C198.398 138.945 199.465 139.472 200.255 140.313C201.045 141.154 201.503 142.252 201.545 143.405C201.584 142.149 201.943 140.923 202.588 139.844C203.234 138.765 204.144 137.869 205.234 137.241Z" stroke="#5A0E32" stroke-width="2.38327" stroke-linecap="round" stroke-linejoin="round"/>
<path d="M77.6665 274.103C76.6216 273.802 75.694 273.188 75.0082 272.344C74.3224 271.5 73.9113 270.466 73.8302 269.382C73.7131 270.699 73.2753 271.967 72.5551 273.076C71.835 274.185 70.8543 275.1 69.6987 275.743C70.8494 275.857 71.9193 276.386 72.7095 277.23C73.4996 278.075 73.9561 279.177 73.9941 280.333C74.0215 279.067 74.3736 277.829 75.0167 276.739C75.6597 275.648 76.5721 274.74 77.6665 274.103Z" stroke="#5A0E32" stroke-width="2.38327" stroke-linecap="round" stroke-linejoin="round"/>
<path d="M90.3733 493.249C89.3283 492.942 88.4014 492.325 87.7161 491.478C87.0308 490.632 86.6195 489.597 86.537 488.511C86.4049 489.821 85.9589 491.081 85.2369 492.182C84.5149 493.284 83.5381 494.195 82.3892 494.839C83.5385 494.95 84.6082 495.475 85.3986 496.317C86.189 497.159 86.6461 498.259 86.6845 499.413C86.7216 498.156 87.0802 496.93 87.7259 495.851C88.3717 494.772 89.2831 493.876 90.3733 493.249Z" stroke="#5A0E32" stroke-width="2.38327" stroke-linecap="round" stroke-linejoin="round"/>
<path d="M139.687 341.534C138.641 341.229 137.713 340.612 137.027 339.765C136.341 338.918 135.931 337.882 135.851 336.796C135.72 338.105 135.277 339.363 134.558 340.464C133.839 341.566 132.865 342.478 131.719 343.124C132.867 343.235 133.935 343.761 134.722 344.603C135.51 345.445 135.964 346.545 135.998 347.698C136.035 346.441 136.394 345.214 137.04 344.135C137.685 343.056 138.597 342.161 139.687 341.534Z" stroke="#5A0E32" stroke-width="2.38327" stroke-linecap="round" stroke-linejoin="round"/>
<path d="M252.384 253.987C251.339 253.684 250.412 253.067 249.728 252.219C249.045 251.372 248.639 250.335 248.564 249.249C248.432 250.559 247.986 251.819 247.264 252.92C246.542 254.022 245.565 254.933 244.417 255.577C245.566 255.688 246.636 256.213 247.426 257.055C248.216 257.897 248.673 258.997 248.712 260.151C248.746 258.896 249.101 257.669 249.744 256.59C250.387 255.511 251.296 254.615 252.384 253.987Z" stroke="#5A0E32" stroke-width="2.38327" stroke-linecap="round" stroke-linejoin="round"/>
<path d="M138.836 268.447C137.791 268.14 136.864 267.523 136.179 266.676C135.494 265.83 135.082 264.795 135 263.709C134.868 265.019 134.422 266.279 133.7 267.38C132.978 268.482 132.001 269.393 130.852 270.037C132.001 270.148 133.071 270.673 133.861 271.515C134.652 272.357 135.109 273.457 135.147 274.611C135.185 273.354 135.543 272.128 136.189 271.048C136.835 269.969 137.746 269.074 138.836 268.447Z" stroke="#5A0E32" stroke-width="2.38327" stroke-linecap="round" stroke-linejoin="round"/>
<path d="M268.402 227.034C257.253 289.661 197.79 294.563 164.362 274.3C142.77 261.184 102.456 189.572 160.755 151.176C224.53 109.157 281.878 151.488 268.402 227.034Z" fill="#F6DB86" stroke="#3C3930" stroke-width="2.38327" stroke-linecap="round" stroke-linejoin="round"/>
<path d="M199.412 296.039C105.668 299.679 78.6502 192.753 136.572 144.127C171.542 114.797 224.545 116.814 248.727 137.848C250.268 139.192 249.94 144.734 240.399 143.357C215.118 139.668 193.379 138.635 174.28 160.227C142.474 196.196 174.017 203.377 172.64 213.738C172.05 218.28 165.968 221.624 167.443 225.952C167.82 227.067 171.001 230.74 167.591 233.658C168.559 233.459 169.564 233.556 170.476 233.936C170.784 234.074 171.061 234.272 171.29 234.519C171.519 234.766 171.695 235.057 171.808 235.374C171.922 235.691 171.97 236.028 171.949 236.364C171.929 236.7 171.84 237.029 171.689 237.33C166.771 247.364 170.591 260.561 179.083 268.07C208.479 294.104 265.86 256.413 248.613 277.136C237.956 289.973 215.364 295.416 199.412 296.039Z" fill="#FFC259" stroke="#3C3930" stroke-width="2.38327" stroke-linecap="round" stroke-linejoin="round"/>
<path d="M120.21 175.424C124.925 163.648 132.969 153.501 143.36 146.226" stroke="#3C3930" stroke-width="2.38327" stroke-linecap="round" stroke-linejoin="round"/>
<path d="M153.508 138.864C157.988 134.525 163.594 131.527 169.69 130.208" stroke="#3C3930" stroke-width="2.38327" stroke-linecap="round" stroke-linejoin="round"/>
<path d="M129.802 259.233C136.311 270.298 146.319 278.881 158.247 283.628" stroke="#3C3930" stroke-width="2.38327" stroke-linecap="round" stroke-linejoin="round"/>
<path d="M169.149 286.76C177.271 289.835 185.963 291.11 194.626 290.497" stroke="#3C3930" stroke-width="2.38327" stroke-linecap="round" stroke-linejoin="round"/>
<path d="M138.294 194.999C139.964 192.076 142.287 189.579 145.083 187.704C147.88 185.83 151.072 184.629 154.41 184.195" stroke="#3C3930" stroke-width="2.38327" stroke-linecap="round" stroke-linejoin="round"/>
<path d="M155.148 205.918C155.672 205.681 156.141 205.338 156.526 204.913C156.912 204.487 157.206 203.987 157.391 203.442C157.575 202.898 157.646 202.322 157.598 201.75C157.551 201.177 157.387 200.62 157.116 200.114C155.821 198.327 154.739 200.803 147.525 202.967C149.427 203.721 152.87 206.492 155.148 205.918Z" fill="#7E978A" stroke="#3C3930" stroke-width="2.38327" stroke-linecap="round" stroke-linejoin="round"/>
<path d="M141.409 202.492C143.499 203.319 145.804 203.434 147.967 202.82" stroke="#3C3930" stroke-width="2.38327" stroke-linecap="round" stroke-linejoin="round"/>
<path d="M155.557 199.622C157.688 198.95 158.836 197.819 158.836 195.835" stroke="#3C3930" stroke-width="2.38327" stroke-linecap="round" stroke-linejoin="round"/>
<path d="M149.589 207.869C150.376 209.246 152.147 210.591 155.557 210.574" stroke="#3C3930" stroke-width="2.38327" stroke-linecap="round" stroke-linejoin="round"/>
<path d="M153.821 205.934C155.279 206.345 156.654 207.005 157.887 207.885" stroke="#3C3930" stroke-width="2.38327" stroke-linecap="round" stroke-linejoin="round"/>
<path d="M160.836 214.279C160.136 214.978 159.633 215.849 159.377 216.804C159.255 217.282 159.27 217.785 159.421 218.254C159.572 218.724 159.852 219.142 160.229 219.46C160.753 219.802 161.378 219.953 162 219.886C162.839 219.833 163.638 219.511 164.279 218.968C165.017 218.345 165.525 217.46 166.279 216.869C166.634 216.541 167.099 216.359 167.582 216.359C168.066 216.359 168.531 216.541 168.886 216.869" stroke="#3C3930" stroke-width="2.38327" stroke-linecap="round" stroke-linejoin="round"/>
<path d="M159.542 233.986C160.779 234.699 162.194 235.047 163.622 234.989C165.05 234.931 166.432 234.469 167.608 233.658" stroke="#3C3930" stroke-width="2.38327" stroke-linecap="round" stroke-linejoin="round"/>
<path d="M129.752 225.313C129.357 226.979 129.494 228.728 130.144 230.313C130.793 231.898 131.923 233.24 133.375 234.149C134.866 234.987 136.598 235.294 138.286 235.02C139.975 234.746 141.521 233.907 142.671 232.641C145.212 229.608 144.687 224.821 142.326 221.657C138.392 216.345 131.162 219.542 129.752 225.313Z" fill="#F0433D" stroke="#3C3930" stroke-width="2.38327" stroke-linecap="round" stroke-linejoin="round"/>
<path d="M166.903 161.308C173.128 151.85 182.484 144.885 193.331 141.635" stroke="#3C3930" stroke-width="2.38327" stroke-linecap="round" stroke-linejoin="round"/>
<path d="M202.938 138.307C210.098 137.274 217.369 137.274 224.53 138.307" stroke="#3C3930" stroke-width="2.38327" stroke-linecap="round" stroke-linejoin="round"/>
<path d="M157.409 204.18C155.622 206.984 153.229 200.262 155.966 199.623C157.573 199.245 158.426 202.606 157.409 204.18Z" fill="#3C3930" stroke="#3C3930" stroke-width="2.38327" stroke-linecap="round" stroke-linejoin="round"/>
<path d="M223.529 270.168C235.645 265.663 246.103 257.577 253.514 246.986" stroke="#3C3930" stroke-width="2.38327" stroke-linecap="round" stroke-linejoin="round"/>
<path d="M256.794 238.608C259.389 234.188 261.234 229.368 262.254 224.345" stroke="#3C3930" stroke-width="2.38327" stroke-linecap="round" stroke-linejoin="round"/>
<path d="M353.905 466.793C330.056 444.011 321.694 440.025 318.127 432.784C316.108 428.706 314.619 423.585 310.639 421.931C306.424 420.197 301.913 423.537 298.847 427.037C285.346 442.658 285.582 433.635 275.912 436.172C272.567 437.071 269.736 439.977 266.287 440.138C261.187 440.362 256.382 434.47 251.68 436.638C251.268 436.83 239.992 448.887 229.32 430.216C213.976 403.436 210.542 432.977 204.101 417.195C201.875 411.752 196.967 406.117 191.793 408.028C187.798 409.505 186.177 414.61 183.214 417.853C179.22 422.22 172.897 423.135 168.917 427.583C166.146 430.794 164.878 435.417 161.547 437.745C153.838 443.043 145.967 432.816 135.148 458.36C95.4688 425.078 103.384 423.794 95.1151 432.672C91.0616 437.023 84.0455 435.369 79.1372 438.5C69.7775 444.44 85.5637 440.715 43.9683 465.954C37.7039 469.759 39.2958 472.376 39.1484 553.164C39.1484 556.375 40.1212 556.921 42.0963 556.873C374.285 547.754 353.591 548.845 354.947 547.24C357.88 543.836 354.332 471.465 353.905 466.793Z" fill="#7B6E5E" stroke="#3C3930" stroke-width="2.38327" stroke-linecap="round" stroke-linejoin="round"/>
<path d="M192.822 408.02C193.888 408.237 197.057 413.136 197.472 414.221C199.5 419.429 198.538 426.048 202.24 430.156C204.816 433.04 209.348 434.14 210.592 437.907C211.599 440.899 210.029 444.635 211.821 447.208C214.249 450.696 219.788 448.494 220.321 457.625C220.558 461.454 220.587 469.561 226.244 468.476C233.648 467.065 226.688 475.482 237.868 477.281C244.116 478.313 249.74 481.835 253.565 487.108" stroke="#3C3930" stroke-width="2.38327" stroke-linecap="round" stroke-linejoin="round"/>
<path d="M100.389 427.35C104.491 449.393 112.769 450.075 117.33 453.826C127.059 461.825 115.079 468.382 116.886 475.094C118.366 480.706 125.682 480.396 129.709 482.969C132.301 484.628 134.048 487.48 136.669 489.077C142.045 492.347 148.871 489.433 155.031 490.363C161.636 491.355 167.219 496.796 173.897 497.044" stroke="#3C3930" stroke-width="2.38327" stroke-linecap="round" stroke-linejoin="round"/>
<path d="M198.405 419.909C188.631 426.11 180.798 439.642 171.32 446.386C165.13 450.773 152.766 453.098 147.02 469.033" stroke="#3C3930" stroke-width="2.38327" stroke-linecap="round" stroke-linejoin="round"/>
<path d="M194.57 460.569C187.032 466.475 194.081 465.514 176.978 475.404C174.016 477.125 171.054 479.559 170.136 482.984" stroke="#3C3930" stroke-width="2.38327" stroke-linecap="round" stroke-linejoin="round"/>
<path d="M240.238 438.868C245.82 440.418 246.28 453.439 251.981 454.37C253.358 454.587 254.75 454.199 256.127 454.37C262.717 454.866 264.212 463.903 269.825 466.662" stroke="#3C3930" stroke-width="2.38327" stroke-linecap="round" stroke-linejoin="round"/>
<path d="M265.885 438.868C269.958 440.279 272.416 447.409 276.488 448.805C281.641 450.587 290.141 443.906 301.129 452.447" stroke="#3C3930" stroke-width="2.38327" stroke-linecap="round" stroke-linejoin="round"/>
<path d="M314.679 422.979C308.934 472.955 302.211 450.059 290.808 461.469C286.159 466.119 290.349 465.871 281.316 469.219C274.608 471.684 272.742 481.853 265.99 484.194" stroke="#3C3930" stroke-width="2.38327" stroke-linecap="round" stroke-linejoin="round"/>
<path d="M313.552 458.09C324.14 475.839 324.51 465.732 339.437 479.28" stroke="#3C3930" stroke-width="2.38327" stroke-linecap="round" stroke-linejoin="round"/>
<path d="M93.7109 433.303C91.0751 439.999 89.3573 450.354 83.5377 454.323C79.4506 457.097 74.6527 458.973 71.5134 462.864C66.6415 468.692 75.9559 469.064 78.1031 469.561C91.9043 472.955 78.8139 495.324 91.8747 495.758C111.125 496.393 119.107 507.477 127.222 507.601C133.264 507.694 140.771 501.695 151.67 508.33" stroke="#3C3930" stroke-width="2.38327" stroke-linecap="round" stroke-linejoin="round"/>
<path d="M328.124 457.098C330.334 459.523 332.892 461.573 335.705 463.174" stroke="#3C3930" stroke-width="2.38327" stroke-linecap="round" stroke-linejoin="round"/>
<path d="M332.878 455.609L337.543 458.709" stroke="#3C3930" stroke-width="2.38327" stroke-linecap="round" stroke-linejoin="round"/>
<path d="M96.198 485.729C94.8266 482.759 94.3961 479.408 94.969 476.164" stroke="#3C3930" stroke-width="2.38327" stroke-linecap="round" stroke-linejoin="round"/>
<path d="M100.862 481.683C100.553 478.783 100.993 475.849 102.136 473.188" stroke="#3C3930" stroke-width="2.38327" stroke-linecap="round" stroke-linejoin="round"/>
<path d="M52.855 490.1C54.6714 489.8 56.4109 489.118 57.9685 488.095C59.5262 487.072 60.8696 485.729 61.9176 484.148" stroke="#3C3930" stroke-width="2.38327" stroke-linecap="round" stroke-linejoin="round"/>
<path d="M56.6597 495.618C59.1824 494.436 61.4647 492.757 63.3826 490.674" stroke="#3C3930" stroke-width="2.38327" stroke-linecap="round" stroke-linejoin="round"/>
<path d="M230.569 454.664C232.595 458.313 235.603 461.257 239.217 463.128" stroke="#3C3930" stroke-width="2.38327" stroke-linecap="round" stroke-linejoin="round"/>
<path d="M237.735 453.16C238.432 454.31 239.345 455.299 240.42 456.067C241.494 456.834 242.707 457.365 243.984 457.625" stroke="#3C3930" stroke-width="2.38327" stroke-linecap="round" stroke-linejoin="round"/>
<path d="M219.136 501.199C221.747 501.166 224.33 500.641 226.762 499.649" stroke="#3C3930" stroke-width="2.38327" stroke-linecap="round" stroke-linejoin="round"/>
<path d="M221.506 507.368C224.742 507.688 228.005 507.248 231.058 506.082" stroke="#3C3930" stroke-width="2.38327" stroke-linecap="round" stroke-linejoin="round"/>
<path d="M254.188 363.531C253.343 365.081 258.082 363.329 259.148 363.422C258.289 365.422 256.69 367.158 256.557 369.344C256.557 370.321 256.942 370.894 258.038 370.352C262.599 367.685 263.339 369.08 258.63 361.19C256.868 358.353 255.935 360.229 254.188 363.531Z" fill="#5A0E32" stroke="#3C3930" stroke-width="2.38327" stroke-linecap="round" stroke-linejoin="round"/>
<path d="M252.29 380.071C253.534 378.877 253.638 382.21 253.771 383.791C254.053 383.466 256.378 379.776 257.192 380.474C257.459 380.707 257.947 385.652 256.111 385.543C250.795 385.186 248.351 383.869 252.29 380.071Z" fill="#5A0E32" stroke="#3C3930" stroke-width="2.38327" stroke-linecap="round" stroke-linejoin="round"/>
<path d="M355.724 442.225C356.287 427.824 356.526 417.302 353.905 411.287C351.994 406.869 328.051 405.649 320.07 397.727C315.138 392.813 300.669 364.291 286.009 364.012C275.821 363.81 260.346 339.52 256.985 350.929C252.365 366.585 268.965 377.281 267.899 384.846C267.01 391.046 251.61 380.846 248.381 382.551C246.693 383.42 245.805 386.086 248.381 389.744C254.216 398.239 260.42 398.037 267.558 406.005C283.966 424.312 282.085 442.309 294.553 456.974C300.802 464.337 341.272 484.475 355.724 485.901C357.679 466.943 355.236 454.765 355.724 442.225Z" fill="#7E978A" stroke="#3C3930" stroke-width="2.38327" stroke-linecap="round" stroke-linejoin="round"/>
<path d="M294.806 389.108C294.147 392.118 294.417 395.268 295.577 398.107C296.737 400.946 298.728 403.326 301.263 404.904C305.483 407.4 310.843 407.462 314.664 410.593C314.931 410.826 315.301 411.074 315.612 410.888C315.923 410.702 315.893 410.407 315.923 410.113C316.357 404.45 315.297 398.772 312.857 393.697C311.625 391.177 309.907 388.952 307.812 387.162C305.717 385.371 303.29 384.055 300.685 383.295" stroke="#3C3930" stroke-width="2.38327" stroke-linecap="round" stroke-linejoin="round"/>
<path d="M299.204 386.349C298.879 398.378 312.858 391 315.612 410.888" stroke="#3C3930" stroke-width="2.38327" stroke-linecap="round" stroke-linejoin="round"/>
<path d="M283.936 415.089C284.312 416.752 284.894 418.358 285.669 419.863C286.098 420.7 286.853 421.63 287.742 421.413C288.05 421.302 288.329 421.116 288.556 420.871C289.368 420.072 290.014 419.106 290.452 418.034C291.162 418.793 291.547 420.158 292.569 420.173C293.339 420.173 293.843 419.336 294.198 418.623C294.554 417.91 295.101 416.716 295.56 415.755C295.85 416.034 296.189 416.251 296.559 416.391C296.928 416.531 297.321 416.593 297.714 416.573C298.107 416.553 298.492 416.451 298.847 416.273C299.202 416.096 299.519 415.846 299.781 415.538C300.816 414.231 301.382 412.586 301.38 410.888" stroke="#3C3930" stroke-width="2.38327" stroke-linecap="round" stroke-linejoin="round"/>
<path d="M291.193 436.915C292.126 437.38 292.674 438.465 293.562 439.007C294.182 439.237 294.859 439.234 295.478 438.999C296.096 438.764 296.617 438.313 296.953 437.721C297.602 436.516 297.963 435.165 298.005 433.783C298.726 434.411 299.541 434.909 300.418 435.256C300.859 435.426 301.332 435.483 301.798 435.424C302.264 435.365 302.71 435.19 303.099 434.915C304.224 434 304.224 432.264 304.12 430.776C304.941 431.165 305.855 431.284 306.741 431.117C307.265 430.911 307.726 430.563 308.077 430.107C308.429 429.652 308.658 429.107 308.741 428.528C308.891 427.371 308.841 426.195 308.593 425.056" stroke="#3C3930" stroke-width="2.38327" stroke-linecap="round" stroke-linejoin="round"/>
<path d="M302.995 450.773C303.884 451.455 304.889 451.955 305.956 452.245C306.478 452.389 307.026 452.385 307.546 452.235C308.066 452.086 308.54 451.795 308.918 451.393C309.258 450.946 309.473 450.409 309.54 449.843C309.712 448.632 309.443 447.398 308.785 446.386C310.021 446.941 311.368 447.17 312.709 447.052C313.375 446.973 313.994 446.649 314.455 446.139C314.915 445.628 315.189 444.963 315.226 444.262C315.226 443.379 314.752 442.2 315.508 441.828C315.781 441.766 316.064 441.766 316.337 441.828C317.017 441.77 317.663 441.497 318.192 441.046C318.721 440.595 319.106 439.987 319.298 439.302C319.654 437.923 319.73 436.481 319.521 435.07" stroke="#3C3930" stroke-width="2.38327" stroke-linecap="round" stroke-linejoin="round"/>
<path d="M283.36 368.336C283.044 369.825 283.264 371.383 283.977 372.713C284.69 374.042 285.846 375.051 287.225 375.544" stroke="#3C3930" stroke-width="2.38327" stroke-linecap="round" stroke-linejoin="round"/>
<path d="M259.147 347.642C256.66 348.169 255.49 352.835 255.845 353.408C256.482 354.462 255.845 352.54 261.25 351.858C270.95 350.51 261.457 347.146 259.147 347.642Z" fill="#3C3930" stroke="#3C3930" stroke-width="2.38327" stroke-linecap="round" stroke-linejoin="round"/>
<path d="M125.504 363.531C126.348 365.081 121.624 363.329 120.558 363.422C121.402 365.422 123.016 367.158 123.15 369.344C123.15 370.321 122.75 370.894 121.669 370.352C117.108 367.685 116.367 369.08 121.076 361.19C122.779 358.353 123.771 360.229 125.504 363.531Z" fill="#5A0E32" stroke="#3C3930" stroke-width="2.38327" stroke-linecap="round" stroke-linejoin="round"/>
<path d="M127.399 380.071C126.17 378.877 126.066 382.21 125.918 383.791C125.652 383.466 123.327 379.776 122.512 380.474C122.231 380.707 121.742 385.652 123.593 385.543C128.895 385.186 131.353 383.869 127.399 380.071Z" fill="#5A0E32" stroke="#3C3930" stroke-width="2.38327" stroke-linecap="round" stroke-linejoin="round"/>
<path d="M38.1603 441.315C37.5976 426.914 35.5545 413.662 38.1607 407.648C40.071 403.23 49.8192 405.649 57.8008 397.727C62.7468 392.813 79.021 364.291 93.6959 364.012C103.884 363.81 119.344 339.52 122.705 350.929C127.325 366.585 110.725 377.281 111.806 384.846C112.68 391.046 128.021 380.846 131.309 382.551C133.012 383.42 133.885 386.086 131.383 389.744C125.548 398.239 119.359 398.037 112.221 406.005C95.8135 424.312 97.6941 442.309 85.2256 456.974C78.9618 464.337 52.628 482.655 38.1604 484.081C36.1316 465.123 38.649 453.855 38.1603 441.315Z" fill="#83ACC8" stroke="#3C3930" stroke-width="2.38327" stroke-linecap="round" stroke-linejoin="round"/>
<path d="M84.8997 389.108C85.5567 392.118 85.2857 395.268 84.1257 398.106C82.9657 400.944 80.9763 403.324 78.4434 404.904C74.223 407.4 68.8476 407.462 65.116 410.593C64.8346 410.826 64.4792 411.074 64.1682 410.888C63.8573 410.702 63.8721 410.407 63.8573 410.113C63.4107 404.451 64.4663 398.77 66.9078 393.697C68.144 391.18 69.8631 388.957 71.9576 387.167C74.052 385.377 76.4768 384.059 79.0801 383.295" stroke="#3C3930" stroke-width="2.38327" stroke-linecap="round" stroke-linejoin="round"/>
<path d="M80.486 386.349C80.8117 398.378 66.8476 391 64.0933 410.888" stroke="#3C3930" stroke-width="2.38327" stroke-linecap="round" stroke-linejoin="round"/>
<path d="M95.7537 415.088C95.3845 416.754 94.8017 418.361 94.0211 419.863C93.5917 420.7 92.8364 421.63 91.9628 421.413C91.6525 421.306 91.3726 421.119 91.1483 420.87C90.3319 420.076 89.6858 419.109 89.2529 418.034C88.5272 418.793 88.1422 420.157 87.1353 420.173C86.1283 420.188 85.847 419.336 85.5064 418.623L84.1292 415.755C83.8401 416.034 83.5008 416.25 83.131 416.391C82.7612 416.531 82.3684 416.593 81.9756 416.573C81.5827 416.553 81.1976 416.451 80.8427 416.273C80.4879 416.095 80.1704 415.846 79.9089 415.538C78.9054 414.245 78.3565 412.631 78.354 410.965" stroke="#3C3930" stroke-width="2.38327" stroke-linecap="round" stroke-linejoin="round"/>
<path d="M88.5132 436.915C87.5654 437.38 87.0324 438.465 86.1439 439.007C85.5215 439.238 84.8423 439.235 84.2214 439.001C83.6006 438.766 83.0764 438.314 82.738 437.721C82.0957 436.514 81.7354 435.164 81.6866 433.783C80.9657 434.411 80.15 434.909 79.2728 435.256C78.8322 435.426 78.3594 435.483 77.8934 435.424C77.4274 435.365 76.9815 435.19 76.5926 434.915C75.4671 434 75.4671 432.264 75.5856 430.776C74.7651 431.165 73.8511 431.284 72.9645 431.117C72.4386 430.913 71.9743 430.566 71.6202 430.111C71.266 429.655 71.0348 429.109 70.9506 428.528C70.8 427.371 70.8501 426.195 71.0987 425.056" stroke="#3C3930" stroke-width="2.38327" stroke-linecap="round" stroke-linejoin="round"/>
<path d="M76.7096 450.773C75.8182 451.452 74.8139 451.951 73.748 452.246C73.3567 452.386 72.94 452.431 72.5295 452.378C72.119 452.325 71.7254 452.175 71.3786 451.939C71.0318 451.703 70.7409 451.387 70.528 451.016C70.315 450.645 70.1856 450.228 70.1496 449.796C69.9771 448.586 70.2468 447.351 70.9048 446.339C69.6689 446.896 68.3211 447.125 66.9806 447.006C66.3151 446.924 65.6983 446.599 65.2382 446.089C64.778 445.579 64.5037 444.916 64.4632 444.216C64.4632 443.332 64.9519 442.154 64.1818 441.782C63.9087 441.719 63.6258 441.719 63.3526 441.782C62.6729 441.723 62.0262 441.45 61.4975 440.999C60.9688 440.548 60.5831 439.94 60.3909 439.255C60.0351 437.876 59.9594 436.435 60.1688 435.023" stroke="#3C3930" stroke-width="2.38327" stroke-linecap="round" stroke-linejoin="round"/>
<path d="M96.3459 368.336C96.6611 369.825 96.4412 371.383 95.7282 372.713C95.0152 374.042 93.8592 375.051 92.481 375.544" stroke="#3C3930" stroke-width="2.38327" stroke-linecap="round" stroke-linejoin="round"/>
<path d="M120.558 347.642C123.045 348.169 124.201 352.835 123.86 353.408C123.208 354.462 123.86 352.54 118.44 351.858C108.741 350.51 118.233 347.146 120.558 347.642Z" fill="#3C3930" stroke="#3C3930" stroke-width="2.38327" stroke-linecap="round" stroke-linejoin="round"/>
<path d="M196.544 331.057C205.086 331.91 221.923 315.269 201.2 337.205C199.987 338.5 204.479 339.5 212.676 346.075C198.511 348.353 197.02 338.697 200.692 359.354C189.216 347.878 193.56 345.681 183.953 361.715C181.838 342.648 185.117 347.944 168.542 350.829C180.756 336.959 180.641 343.451 164.034 332.139C188.134 328.434 180.789 338.189 176.739 316.499C193.134 333.369 185.953 332.336 198.052 313.777C196.912 319.464 196.406 325.259 196.544 331.057Z" fill="#FFC259" stroke="#3C3930" stroke-width="2.38327" stroke-linecap="round" stroke-linejoin="round"/>
<path d="M292.026 187.687C296.945 182.67 305.978 184.408 309.732 190.212C315.995 199.819 304.339 217.017 295.781 206.787C285.796 220.771 273.976 215.738 272.222 209.197C271.73 212.476 255.925 227.542 245.646 210.557C240.219 214.361 235.711 217.935 228.842 218.574C225.63 218.769 222.455 217.808 219.89 215.866C217.325 213.924 215.54 211.128 214.857 207.984C212.898 208.987 210.718 209.482 208.518 209.422C206.317 209.362 204.167 208.749 202.266 207.639C189.347 199.835 199.774 181.162 212.611 187.146C206.316 178.391 228.12 157.636 235.563 171.538C238.842 153.275 275.156 162.243 270.943 182.424C276.32 172.096 292.157 176.047 292.026 187.687Z" stroke="#3C3930" stroke-width="2.38327" stroke-linecap="round" stroke-linejoin="round"/>
<path d="M258.908 185.244C258.482 174.243 244.301 175.571 243.793 188.359C243.219 202.655 267.843 197.36 271.024 182.08" stroke="#3C3930" stroke-width="2.38327" stroke-linecap="round" stroke-linejoin="round"/>
<path d="M210.381 196.344C210.84 197.247 211.6 197.961 212.53 198.364C213.459 198.766 214.5 198.831 215.473 198.547C216.445 198.263 217.288 197.648 217.855 196.809C218.422 195.969 218.678 194.958 218.579 193.95C218.398 190.671 214.464 188.294 212.578 187.146" stroke="#3C3930" stroke-width="2.38327" stroke-linecap="round" stroke-linejoin="round"/>
<path d="M300.699 200.786C303.174 194.655 297.567 194.032 295.78 194.72C290.731 196.704 292.321 203.918 295.78 206.787" stroke="#3C3930" stroke-width="2.38327" stroke-linecap="round" stroke-linejoin="round"/>
<path d="M237.628 207.77C233.398 211.049 229.431 205.065 231.07 201.459C236.218 190.13 253.334 201.459 245.596 210.558" stroke="#3C3930" stroke-width="2.38327" stroke-linecap="round" stroke-linejoin="round"/>
<path d="M226.612 177.228C222.021 179.638 226.005 187.638 232.055 184.523C235.432 182.884 238.4 177.67 235.58 171.539" stroke="#3C3930" stroke-width="2.38327" stroke-linecap="round" stroke-linejoin="round"/>
<path fill-rule="evenodd" clip-rule="evenodd" d="M131.053 613.993H45.8118C44.2 614.103 42.5825 614.103 40.9707 613.993H37.6225C37.1123 613.989 36.6241 613.784 36.2633 613.423C35.9026 613.062 35.6981 612.574 35.6933 612.064V570.535C35.2201 530.717 35.4931 490.753 35.6933 450.807V241.378C35.6933 190.883 35.6933 140.382 35.6933 89.8752V53.6601C35.6933 53.2598 35.6933 52.8594 35.6933 52.459V49.5291C35.6933 45.8894 35.4749 42.2496 35.6933 38.6099V37.973C35.6933 37.791 35.6933 37.609 35.6933 37.427L35.8573 35.9712C35.9504 35.7128 36.066 35.4631 36.2029 35.225V35.0794C36.2029 34.1149 36.9307 33.8237 37.8406 33.7691C38.8138 33.3541 39.8582 33.1316 40.9161 33.114C42.6449 32.9866 44.5558 33.114 46.3756 33.114H91.5992C112.758 33.114 133.923 33.114 155.094 33.114C204.812 32.8592 254.549 32.4588 304.031 33.114C320.409 33.114 336.788 33.1746 353.167 33.296C353.691 33.374 354.205 33.5145 354.696 33.7145C354.895 33.6965 355.096 33.6965 355.296 33.7145C355.466 33.7267 355.633 33.7699 355.787 33.8419C355.996 33.9516 356.171 34.1165 356.293 34.3186C356.415 34.5207 356.479 34.7524 356.479 34.9884C356.488 35.067 356.488 35.1464 356.479 35.225C357.099 36.5336 357.314 37.9972 357.098 39.4289C357.152 40.4776 357.152 41.5285 357.098 42.5772V608.224C357.152 608.738 357.152 609.257 357.098 609.771C357.098 610.608 357.098 611.427 357.098 612.264C357.032 612.726 356.803 613.149 356.453 613.456C356.102 613.763 355.653 613.935 355.187 613.939H351.365C349.345 614.102 347.125 613.939 345.305 613.939H131.053V613.993ZM353.367 544.73C353.367 503.601 353.409 462.472 353.494 421.343C353.494 326.383 353.494 231.43 353.494 136.482C353.494 134.662 353.494 132.842 353.494 131.022C353.494 130.203 353.276 129.366 353.13 128.547C352.985 127.728 352.894 127.273 352.748 126.727C352.548 125.581 352.275 124.452 352.02 123.324L351.747 122.287C351.747 121.996 351.602 121.704 351.511 121.413C351.454 121.252 351.405 121.088 351.365 120.922C347.434 99.2111 331.074 81.2491 313.148 69.2017C244.703 24.9974 131.763 26.0166 67.9957 78.5375C55.6207 89.4567 45.4842 103.251 42.1174 119.557C41.9173 120.558 41.7352 121.541 41.5896 122.542C41.3894 123.27 41.2074 124.016 41.0618 124.744C40.9162 125.472 40.8435 125.89 40.7343 126.564L40.4069 128.001H40.2429C40.2429 128.402 40.2429 128.784 40.2429 129.111C40.2429 129.439 40.1518 129.675 40.0972 129.948C39.9516 130.822 39.8425 131.768 39.7515 132.569C39.7515 225.054 39.7515 317.551 39.7515 410.06C39.8243 454.95 39.8669 499.84 39.8791 544.73H162.792C210.181 544.73 257.576 544.73 304.977 544.73H353.549H353.367Z" fill="#5A0E32"/>
<path fill-rule="evenodd" clip-rule="evenodd" d="M131.053 613.6H45.8118C44.2 613.71 42.5825 613.71 40.9707 613.6H37.6225C37.1123 613.596 36.6241 613.391 36.2633 613.03C35.9026 612.669 35.6981 612.182 35.6933 611.671V570.142C35.2201 530.324 35.4931 490.36 35.6933 450.414V240.985C35.6933 190.49 35.6933 139.989 35.6933 89.4824V53.2673C35.6933 52.8669 35.6933 52.4666 35.6933 52.0662V49.1362C35.6933 45.4965 35.4749 41.8568 35.6933 38.2171V37.5802C35.6933 37.3982 35.6933 37.2162 35.6933 37.0342L35.8573 35.5783C35.9504 35.3199 36.066 35.0703 36.2029 34.8322V34.6866C36.2029 33.7221 36.9307 33.4309 37.8406 33.3763C38.8138 32.9613 39.8582 32.7388 40.9161 32.7212C42.6449 32.5938 44.5558 32.7212 46.3756 32.7212H91.5992C112.758 32.7212 133.923 32.7212 155.094 32.7212C204.812 32.4664 254.549 32.066 304.031 32.7212C320.409 32.7212 336.788 32.7818 353.167 32.9031C353.691 32.9812 354.205 33.1217 354.696 33.3217C354.895 33.3037 355.096 33.3037 355.296 33.3217C355.466 33.3339 355.633 33.3771 355.787 33.4491C355.996 33.5588 356.171 33.7237 356.293 33.9258C356.415 34.1279 356.479 34.3596 356.479 34.5956C356.488 34.6742 356.488 34.7536 356.479 34.8322C357.099 36.1408 357.314 37.6044 357.098 39.0361C357.152 40.0848 357.152 41.1357 357.098 42.1844V607.832C357.152 608.346 357.152 608.864 357.098 609.378C357.098 610.216 357.098 611.034 357.098 611.872C357.032 612.333 356.803 612.756 356.453 613.063C356.102 613.37 355.653 613.542 355.187 613.546H351.365C349.345 613.71 347.125 613.546 345.305 613.546H131.053V613.6ZM353.367 544.337C353.367 503.208 353.409 462.079 353.494 420.951C353.494 325.991 353.494 231.037 353.494 136.089C353.494 134.269 353.494 132.449 353.494 130.629C353.494 129.81 353.276 128.973 353.13 128.154C352.985 127.335 352.894 126.88 352.748 126.334C352.548 125.188 352.275 124.06 352.02 122.931L351.747 121.894C351.747 121.603 351.602 121.312 351.511 121.02C351.454 120.859 351.405 120.695 351.365 120.529C347.434 98.8183 331.074 80.8563 313.148 68.8089C244.703 24.6046 131.763 25.6237 67.9957 78.1447C55.6207 89.0639 45.4842 102.858 42.1174 119.164C41.9173 120.165 41.7352 121.148 41.5896 122.149C41.3894 122.877 41.2074 123.623 41.0618 124.351C40.9162 125.079 40.8435 125.497 40.7343 126.171L40.4069 127.608H40.2429C40.2429 128.009 40.2429 128.391 40.2429 128.718C40.2429 129.046 40.1518 129.283 40.0972 129.556C39.9516 130.429 39.8425 131.375 39.7515 132.176C39.7515 224.661 39.7515 317.158 39.7515 409.668C39.8243 454.557 39.8669 499.447 39.8791 544.337H162.792C210.181 544.337 257.576 544.337 304.977 544.337H353.549H353.367Z" fill="#5A0E32"/>
<path d="M115.819 577.917L116.236 583.492H114.673L113.787 580.019H106.372V602.229L110.193 602.629V604.105H99.3392V602.629L103.125 602.229V580.019H95.7446L94.8068 583.492H93.2786L93.6954 577.917H115.819ZM119.813 577.917H128.323V579.393L125.666 579.793V589.709H140.166V579.793L137.526 579.393V577.917H146.036V579.393L143.413 579.793V602.229L146.036 602.629V604.105H137.526V602.629L140.166 602.229V591.792H125.666V602.229L128.323 602.629V604.105H119.813V602.629L122.453 602.229V579.793L119.813 579.393V577.917ZM161.491 591.549H155.1V602.021H164.773L166.023 598.947H167.343L166.77 604.105H149.196V602.629L151.836 602.229V579.793L149.196 579.393V577.917H166.006L166.405 583.075H164.877L163.94 580.019H155.1V589.465H161.491L162.012 587.625H163.245V593.373H162.012L161.491 591.549ZM187.487 582.259C187.487 582.259 187.244 588.916 186.758 602.229L189.172 602.629V604.105H181.965V602.629L184.431 602.229L185.681 579.793L183.233 579.393V577.917H189.172L198.497 598.253L207.892 577.917H213.327V579.393L210.723 579.793C210.908 583.567 211.105 587.324 211.313 591.063C211.521 594.803 211.712 598.525 211.886 602.229L214.56 602.629V604.105H206.069V602.629L208.673 602.229L207.892 582.519L197.785 604.105L187.487 582.259ZM220.864 600.736C219.741 599.567 218.884 598.189 218.294 596.603C217.715 595.005 217.426 593.396 217.426 591.775C217.426 590.143 217.588 588.701 217.912 587.451C218.236 586.201 218.682 585.06 219.249 584.03C219.828 583 220.517 582.079 221.316 581.269C222.126 580.458 223.012 579.775 223.973 579.22C225.929 578.085 228.025 577.518 230.259 577.518C232.493 577.518 234.433 577.848 236.076 578.508C237.72 579.156 239.104 580.053 240.227 581.199C242.508 583.526 243.648 586.583 243.648 590.368C243.648 594.583 242.369 598.021 239.81 600.684C238.629 601.911 237.252 602.854 235.677 603.514C234.114 604.174 232.36 604.504 230.415 604.504C228.482 604.504 226.687 604.168 225.032 603.497C223.388 602.825 221.999 601.905 220.864 600.736ZM223.417 582.814C222.572 583.798 221.918 584.945 221.455 586.253C221.003 587.561 220.777 588.84 220.777 590.091C220.777 591.341 220.87 592.464 221.055 593.46C221.24 594.455 221.512 595.399 221.871 596.29C222.242 597.17 222.699 597.986 223.243 598.739C223.799 599.491 224.441 600.14 225.171 600.684C226.722 601.841 228.551 602.42 230.658 602.42C233.541 602.42 235.885 601.442 237.691 599.485C239.463 597.564 240.348 595.057 240.348 591.966C240.348 588.562 239.579 585.732 238.039 583.474C236.279 580.893 233.709 579.602 230.328 579.602C227.538 579.602 225.235 580.673 223.417 582.814ZM250.594 600.736C249.471 599.567 248.614 598.189 248.024 596.603C247.445 595.005 247.156 593.396 247.156 591.775C247.156 590.143 247.318 588.701 247.642 587.451C247.966 586.201 248.412 585.06 248.979 584.03C249.558 583 250.247 582.079 251.046 581.269C251.856 580.458 252.742 579.775 253.703 579.22C255.659 578.085 257.755 577.518 259.989 577.518C262.223 577.518 264.163 577.848 265.806 578.508C267.45 579.156 268.834 580.053 269.957 581.199C272.238 583.526 273.378 586.583 273.378 590.368C273.378 594.583 272.099 598.021 269.54 600.684C268.359 601.911 266.982 602.854 265.407 603.514C263.844 604.174 262.09 604.504 260.145 604.504C258.212 604.504 256.417 604.168 254.762 603.497C253.118 602.825 251.729 601.905 250.594 600.736ZM253.147 582.814C252.302 583.798 251.648 584.945 251.185 586.253C250.733 587.561 250.507 588.84 250.507 590.091C250.507 591.341 250.6 592.464 250.785 593.46C250.97 594.455 251.242 595.399 251.601 596.29C251.972 597.17 252.429 597.986 252.973 598.739C253.529 599.491 254.171 600.14 254.901 600.684C256.452 601.841 258.281 602.42 260.388 602.42C263.271 602.42 265.615 601.442 267.421 599.485C269.193 597.564 270.078 595.057 270.078 591.966C270.078 588.562 269.309 585.732 267.769 583.474C266.009 580.893 263.439 579.602 260.058 579.602C257.268 579.602 254.965 580.673 253.147 582.814ZM281.887 582.953V602.229L284.527 602.629V604.105H277.198V602.629L279.89 602.229V579.793L277.198 579.393V577.917H281.991L298.819 599.069V579.793L296.196 579.393V577.917H303.473V579.393L300.85 579.793V604.105H298.697L281.887 582.953Z" fill="#F4E5CC"/>
</svg>
