<svg width="394" height="650" viewBox="0 0 394 650" fill="none" xmlns="http://www.w3.org/2000/svg">
<path d="M323.01 161.463C326.4 158.206 329.22 154.403 331.353 150.214" stroke="#8D4500" stroke-width="2.38327" stroke-linecap="round" stroke-linejoin="round"/>
<path d="M317.886 302.242L317.198 305.023" stroke="#3C3930" stroke-width="2.38327" stroke-linecap="round" stroke-linejoin="round"/>
<path d="M327.873 461.347C330.232 455.488 324.889 454.91 323.186 455.551C318.374 457.457 319.889 464.331 323.186 467.065" stroke="#3C3930" stroke-width="2.38327" stroke-linecap="round" stroke-linejoin="round"/>
<path fill-rule="evenodd" clip-rule="evenodd" d="M16.8468 0.0013227H377.178C381.317 -0.0523934 385.309 1.53188 388.285 4.40892C391.261 7.28595 392.979 11.2226 393.065 15.3609V634.639C392.979 638.777 391.261 642.714 388.285 645.591C385.309 648.468 381.317 650.052 377.178 649.999H16.8468C12.7079 650.052 8.71559 648.468 5.7397 645.591C2.76381 642.714 1.04556 638.777 0.959473 634.639V15.3609C1.04556 11.2226 2.76381 7.28595 5.7397 4.40892C8.71559 1.53188 12.7079 -0.0523934 16.8468 0.0013227Z" fill="#5A0E32"/>
<path d="M355.529 35.0793H37.728V612.064H355.529V35.0793Z" fill="#F4E5CC"/>
<path fill-rule="evenodd" clip-rule="evenodd" d="M131.159 613.993H45.9173C44.3055 614.102 42.6879 614.102 41.0762 613.993H37.7279C37.2178 613.988 36.7296 613.784 36.3688 613.423C36.0081 613.062 35.8035 612.574 35.7988 612.064V570.535C35.3256 530.717 35.5986 490.752 35.7988 450.807V241.378C35.7988 190.883 35.7988 140.382 35.7988 89.875V53.6599C35.7988 53.2595 35.7988 52.8592 35.7988 52.4588V49.5288C35.7988 45.8891 35.5804 42.2494 35.7988 38.6097V37.9728C35.7988 37.7908 35.7988 37.6088 35.7988 37.4268L35.9627 35.9709C36.0558 35.7125 36.1714 35.4628 36.3084 35.2248V35.0792C36.3084 34.1147 37.0362 33.8235 37.9461 33.7689C38.9193 33.3539 39.9636 33.1314 41.0215 33.1137C42.7504 32.9863 44.6612 33.1137 46.4811 33.1137H91.7046C112.863 33.1137 134.028 33.1137 155.199 33.1137C204.918 32.859 254.654 32.4586 304.136 33.1137C320.515 33.1137 336.894 33.1744 353.272 33.2957C353.797 33.3737 354.31 33.5143 354.801 33.7143C355.001 33.6963 355.202 33.6963 355.401 33.7143C355.572 33.7265 355.738 33.7697 355.893 33.8417C356.102 33.9514 356.277 34.1163 356.399 34.3184C356.521 34.5205 356.585 34.7521 356.585 34.9882C356.593 35.0668 356.593 35.1461 356.585 35.2248C357.204 36.5333 357.419 37.997 357.203 39.4286C357.258 40.4774 357.258 41.5282 357.203 42.577V608.224C357.258 608.738 357.258 609.257 357.203 609.771C357.203 610.608 357.203 611.427 357.203 612.264C357.138 612.726 356.909 613.149 356.558 613.456C356.208 613.763 355.759 613.934 355.292 613.938H351.471C349.451 614.102 347.23 613.938 345.41 613.938H131.159V613.993ZM353.473 544.729C353.473 503.601 353.515 462.472 353.6 421.343C353.6 326.383 353.6 231.429 353.6 136.481C353.6 134.662 353.6 132.842 353.6 131.022C353.6 130.203 353.381 129.366 353.236 128.547C353.09 127.728 352.999 127.273 352.854 126.727C352.654 125.581 352.381 124.452 352.126 123.324L351.853 122.287C351.853 121.995 351.707 121.704 351.616 121.413C351.559 121.252 351.511 121.088 351.471 120.922C347.54 99.2108 331.179 81.2489 313.254 69.2014C244.809 24.9972 131.869 26.0163 68.1012 78.5373C55.7262 89.4564 45.5896 103.251 42.2229 119.557C42.0227 120.558 41.8407 121.54 41.6951 122.541C41.4949 123.269 41.3128 124.015 41.1673 124.743C41.0217 125.471 40.949 125.89 40.8398 126.563L40.5124 128.001H40.3484C40.3484 128.401 40.3484 128.783 40.3484 129.111C40.3484 129.439 40.2573 129.675 40.2027 129.948C40.0571 130.822 39.948 131.768 39.857 132.569C39.857 225.054 39.857 317.551 39.857 410.06C39.9298 454.95 39.9724 499.84 39.9845 544.729H162.898C210.287 544.729 257.681 544.729 305.083 544.729H353.654H353.473Z" fill="#5A0E32"/>
<path d="M208.836 248.764C211.854 240.778 214.083 232.516 215.491 224.095" stroke="#8D4500" stroke-width="2.38327" stroke-linecap="round" stroke-linejoin="round"/>
<path d="M217.038 209.535C218.319 199.583 220.053 189.678 222.225 179.851" stroke="#8D4500" stroke-width="2.38327" stroke-linecap="round" stroke-linejoin="round"/>
<path d="M222.271 170.352L223.834 161.947" stroke="#8D4500" stroke-width="2.38327" stroke-linecap="round" stroke-linejoin="round"/>
<path d="M228.896 145.167C230.703 140.129 231.848 134.877 232.302 129.544" stroke="#8D4500" stroke-width="2.38327" stroke-linecap="round" stroke-linejoin="round"/>
<path d="M233.316 116.608C235.837 107.765 237.983 98.829 239.753 89.7988" stroke="#8D4500" stroke-width="2.38327" stroke-linecap="round" stroke-linejoin="round"/>
<path d="M228.989 223.018L236.301 206.285" stroke="#8D4500" stroke-width="2.38327" stroke-linecap="round" stroke-linejoin="round"/>
<path d="M245.785 186.631C247.67 182.913 249.566 179.195 251.472 175.477" stroke="#8D4500" stroke-width="2.38327" stroke-linecap="round" stroke-linejoin="round"/>
<path d="M259.658 154.729C264.504 146.597 268.579 138.029 271.829 129.138" stroke="#8D4500" stroke-width="2.38327" stroke-linecap="round" stroke-linejoin="round"/>
<path d="M280.953 107.109C284.092 102.266 286.895 97.213 289.343 91.9861" stroke="#8D4500" stroke-width="2.38327" stroke-linecap="round" stroke-linejoin="round"/>
<path d="M233.208 250.873C240.639 236.434 249.054 222.523 258.393 209.238" stroke="#8D4500" stroke-width="2.38327" stroke-linecap="round" stroke-linejoin="round"/>
<path d="M269.047 192.646L277.046 179.304" stroke="#8D4500" stroke-width="2.38327" stroke-linecap="round" stroke-linejoin="round"/>
<path d="M282.701 167.602L288.326 160.338" stroke="#8D4500" stroke-width="2.38327" stroke-linecap="round" stroke-linejoin="round"/>
<path d="M297.871 142.434C299.871 139.424 301.876 136.408 303.886 133.388" stroke="#8D4500" stroke-width="2.38327" stroke-linecap="round" stroke-linejoin="round"/>
<path d="M314.104 118.374C318.479 112.02 323.166 105.88 328.165 99.9539" stroke="#8D4500" stroke-width="2.38327" stroke-linecap="round" stroke-linejoin="round"/>
<path d="M260.643 237.938C264.809 232.064 269.194 226.335 273.797 220.752" stroke="#8D4500" stroke-width="2.38327" stroke-linecap="round" stroke-linejoin="round"/>
<path d="M286.092 206.285L292.747 197.833" stroke="#8D4500" stroke-width="2.38327" stroke-linecap="round" stroke-linejoin="round"/>
<path d="M303.918 184.413C307.673 180.65 311.048 176.526 313.995 172.102" stroke="#8D4500" stroke-width="2.38327" stroke-linecap="round" stroke-linejoin="round"/>
<path d="M254.565 266.559C257.646 262.929 261.062 259.597 264.767 256.607" stroke="#8D4500" stroke-width="2.38327" stroke-linecap="round" stroke-linejoin="round"/>
<path d="M277.938 246.187L299.513 228.673" stroke="#8D4500" stroke-width="2.38327" stroke-linecap="round" stroke-linejoin="round"/>
<path d="M311.745 217.941C317.048 212.131 323.545 207.537 330.79 204.473" stroke="#8D4500" stroke-width="2.38327" stroke-linecap="round" stroke-linejoin="round"/>
<path d="M277.062 267.216C280.601 264.837 284.344 262.777 288.248 261.06" stroke="#8D4500" stroke-width="2.38327" stroke-linecap="round" stroke-linejoin="round"/>
<path d="M302.621 251.78C308.714 248.291 314.963 245.057 321.369 242.078" stroke="#8D4500" stroke-width="2.38327" stroke-linecap="round" stroke-linejoin="round"/>
<path d="M259.767 290.869L283.201 282.198" stroke="#8D4500" stroke-width="2.38327" stroke-linecap="round" stroke-linejoin="round"/>
<path d="M297.184 277.792L302.839 275.683" stroke="#8D4500" stroke-width="2.38327" stroke-linecap="round" stroke-linejoin="round"/>
<path d="M313.98 272.652C317.435 272.153 320.828 271.294 324.104 270.09" stroke="#8D4500" stroke-width="2.38327" stroke-linecap="round" stroke-linejoin="round"/>
<path d="M265.812 302.321C269.313 301.442 272.893 300.919 276.499 300.759" stroke="#8D4500" stroke-width="2.38327" stroke-linecap="round" stroke-linejoin="round"/>
<path d="M292.17 299.665C294.052 299.804 295.944 299.619 297.763 299.118" stroke="#8D4500" stroke-width="2.38327" stroke-linecap="round" stroke-linejoin="round"/>
<path d="M310.089 297.431C315.688 297.696 321.299 297.508 326.868 296.868" stroke="#8D4500" stroke-width="2.38327" stroke-linecap="round" stroke-linejoin="round"/>
<path d="M257.517 314.21L269.25 317.616" stroke="#8D4500" stroke-width="2.38327" stroke-linecap="round" stroke-linejoin="round"/>
<path d="M279.842 319.897L284.888 320.975" stroke="#8D4500" stroke-width="2.38327" stroke-linecap="round" stroke-linejoin="round"/>
<path d="M299.513 324.13C307.4 327.074 315.673 328.858 324.072 329.427" stroke="#8D4500" stroke-width="2.38327" stroke-linecap="round" stroke-linejoin="round"/>
<path d="M266.985 332.13C269.433 332.45 271.751 333.415 273.703 334.926" stroke="#8D4500" stroke-width="2.38327" stroke-linecap="round" stroke-linejoin="round"/>
<path d="M281.516 340.035L288.28 342.707" stroke="#8D4500" stroke-width="2.38327" stroke-linecap="round" stroke-linejoin="round"/>
<path d="M297.871 351.581C308.495 357.059 318.91 362.944 329.117 369.235" stroke="#8D4500" stroke-width="2.38327" stroke-linecap="round" stroke-linejoin="round"/>
<path d="M256.282 338.91C261.17 343.945 266.44 348.594 272.046 352.815" stroke="#8D4500" stroke-width="2.38327" stroke-linecap="round" stroke-linejoin="round"/>
<path d="M279.891 359.502C283.775 361.367 287.199 364.066 289.921 367.407" stroke="#8D4500" stroke-width="2.38327" stroke-linecap="round" stroke-linejoin="round"/>
<path d="M303.543 377.874C310.067 384.303 317.054 390.246 324.447 395.653" stroke="#8D4500" stroke-width="2.38327" stroke-linecap="round" stroke-linejoin="round"/>
<path d="M261.471 359.392C263.264 360.758 264.89 362.331 266.314 364.079" stroke="#8D4500" stroke-width="2.38327" stroke-linecap="round" stroke-linejoin="round"/>
<path d="M274.828 372.984C276.844 375.437 278.859 377.906 280.89 380.359" stroke="#8D4500" stroke-width="2.38327" stroke-linecap="round" stroke-linejoin="round"/>
<path d="M293.889 395.326C302.76 407.205 312.885 418.095 324.088 427.806" stroke="#8D4500" stroke-width="2.38327" stroke-linecap="round" stroke-linejoin="round"/>
<path d="M236.082 352.362C239.264 357.838 242.863 363.061 246.846 367.985" stroke="#8D4500" stroke-width="2.38327" stroke-linecap="round" stroke-linejoin="round"/>
<path d="M256.814 385.952C263.222 397.873 270.606 409.244 278.89 419.948" stroke="#8D4500" stroke-width="2.38327" stroke-linecap="round" stroke-linejoin="round"/>
<path d="M289.404 436.805L295.56 447.429" stroke="#8D4500" stroke-width="2.38327" stroke-linecap="round" stroke-linejoin="round"/>
<path d="M304.575 461.38L318.495 483.253" stroke="#8D4500" stroke-width="2.38327" stroke-linecap="round" stroke-linejoin="round"/>
<path d="M236.832 377.453C237.717 380.077 238.603 382.707 239.488 385.342" stroke="#8D4500" stroke-width="2.38327" stroke-linecap="round" stroke-linejoin="round"/>
<path d="M246.58 398.091L252.532 411.605" stroke="#8D4500" stroke-width="2.38327" stroke-linecap="round" stroke-linejoin="round"/>
<path d="M260.125 429.025C261.094 431.821 262.062 434.602 263.015 437.399" stroke="#8D4500" stroke-width="2.38327" stroke-linecap="round" stroke-linejoin="round"/>
<path d="M271.578 455.834C274.788 467.756 279.387 479.261 285.28 490.111" stroke="#8D4500" stroke-width="2.38327" stroke-linecap="round" stroke-linejoin="round"/>
<path d="M214.772 364.079L216.507 375.828" stroke="#8D4500" stroke-width="2.38327" stroke-linecap="round" stroke-linejoin="round"/>
<path d="M218.991 385.28C219.975 389.967 220.944 394.654 221.928 399.341" stroke="#8D4500" stroke-width="2.38327" stroke-linecap="round" stroke-linejoin="round"/>
<path d="M224.943 416.104C225.459 421.956 226.425 427.759 227.834 433.462" stroke="#8D4500" stroke-width="2.38327" stroke-linecap="round" stroke-linejoin="round"/>
<path d="M233.16 451.303L239.987 487.237" stroke="#8D4500" stroke-width="2.38327" stroke-linecap="round" stroke-linejoin="round"/>
<path d="M203.711 380.843L202.633 393.716" stroke="#8D4500" stroke-width="2.38327" stroke-linecap="round" stroke-linejoin="round"/>
<path d="M203.164 413.87V432.337" stroke="#8D4500" stroke-width="2.38327" stroke-linecap="round" stroke-linejoin="round"/>
<path d="M203.82 450.256C203.648 454.74 203.461 459.208 203.289 463.692" stroke="#8D4500" stroke-width="2.38327" stroke-linecap="round" stroke-linejoin="round"/>
<path d="M203.164 471.52V488.314" stroke="#8D4500" stroke-width="2.38327" stroke-linecap="round" stroke-linejoin="round"/>
<path d="M191.511 366.313C188.855 375.343 186.59 384.499 184.699 393.716" stroke="#8D4500" stroke-width="2.38327" stroke-linecap="round" stroke-linejoin="round"/>
<path d="M184.636 410.495C184.292 413.12 183.933 415.729 183.589 418.307" stroke="#8D4500" stroke-width="2.38327" stroke-linecap="round" stroke-linejoin="round"/>
<path d="M181.402 437.93C181.631 442.48 181.05 447.035 179.684 451.381" stroke="#8D4500" stroke-width="2.38327" stroke-linecap="round" stroke-linejoin="round"/>
<path d="M179.964 466.442C178.256 475.431 176.548 484.419 174.84 493.408" stroke="#8D4500" stroke-width="2.38327" stroke-linecap="round" stroke-linejoin="round"/>
<path d="M173.356 385.826C172.466 388.076 171.591 390.342 170.7 392.591" stroke="#8D4500" stroke-width="2.38327" stroke-linecap="round" stroke-linejoin="round"/>
<path d="M165.247 407.824L158.482 429.696" stroke="#8D4500" stroke-width="2.38327" stroke-linecap="round" stroke-linejoin="round"/>
<path d="M153.888 445.21L150.514 455.287" stroke="#8D4500" stroke-width="2.38327" stroke-linecap="round" stroke-linejoin="round"/>
<path d="M149.343 468.145L143.344 490.626" stroke="#8D4500" stroke-width="2.38327" stroke-linecap="round" stroke-linejoin="round"/>
<path d="M169.559 356.767C166.033 363.487 163.407 370.641 161.747 378.046" stroke="#8D4500" stroke-width="2.38327" stroke-linecap="round" stroke-linejoin="round"/>
<path d="M153.265 392.56L147.688 403.137" stroke="#8D4500" stroke-width="2.38327" stroke-linecap="round" stroke-linejoin="round"/>
<path d="M139.687 416.589C137.687 421.808 135.392 426.91 132.812 431.868" stroke="#8D4500" stroke-width="2.38327" stroke-linecap="round" stroke-linejoin="round"/>
<path d="M126.517 448.585C121.59 463.573 115.976 478.31 109.675 492.798" stroke="#8D4500" stroke-width="2.38327" stroke-linecap="round" stroke-linejoin="round"/>
<path d="M148.234 362.314C146.151 365.689 144.114 369.063 142.125 372.438" stroke="#8D4500" stroke-width="2.38327" stroke-linecap="round" stroke-linejoin="round"/>
<path d="M130.971 386.967C126.221 395.716 121.3 404.371 116.207 412.933" stroke="#8D4500" stroke-width="2.38327" stroke-linecap="round" stroke-linejoin="round"/>
<path d="M105.207 426.743L101.285 435.133" stroke="#8D4500" stroke-width="2.38327" stroke-linecap="round" stroke-linejoin="round"/>
<path d="M97.3959 445.32C89.7405 454.152 82.5018 463.323 75.6797 472.832" stroke="#8D4500" stroke-width="2.38327" stroke-linecap="round" stroke-linejoin="round"/>
<path d="M147.296 341.722L141.047 350.674" stroke="#8D4500" stroke-width="2.38327" stroke-linecap="round" stroke-linejoin="round"/>
<path d="M134.095 357.142C128.028 362.865 122.291 368.926 116.909 375.296" stroke="#8D4500" stroke-width="2.38327" stroke-linecap="round" stroke-linejoin="round"/>
<path d="M107.441 383.639L103.52 389.795" stroke="#8D4500" stroke-width="2.38327" stroke-linecap="round" stroke-linejoin="round"/>
<path d="M96.3332 398.841C88.3029 407.444 80.6424 416.385 73.3516 425.666" stroke="#8D4500" stroke-width="2.38327" stroke-linecap="round" stroke-linejoin="round"/>
<path d="M121.376 343.269L113.564 350.581" stroke="#8D4500" stroke-width="2.38327" stroke-linecap="round" stroke-linejoin="round"/>
<path d="M104.722 355.174L100.207 359.611" stroke="#8D4500" stroke-width="2.38327" stroke-linecap="round" stroke-linejoin="round"/>
<path d="M92.912 363.516C86.82 367.587 81.0106 372.066 75.5234 376.921" stroke="#8D4500" stroke-width="2.38327" stroke-linecap="round" stroke-linejoin="round"/>
<path d="M139.328 316.975L123.158 326.052" stroke="#8D4500" stroke-width="2.38327" stroke-linecap="round" stroke-linejoin="round"/>
<path d="M112.411 328.661L75.9775 348.722" stroke="#8D4500" stroke-width="2.38327" stroke-linecap="round" stroke-linejoin="round"/>
<path d="M121.439 304.711H110.237" stroke="#8D4500" stroke-width="2.38327" stroke-linecap="round" stroke-linejoin="round"/>
<path d="M97.3641 304.711C91.3789 304.817 85.4031 305.229 79.46 305.945" stroke="#8D4500" stroke-width="2.38327" stroke-linecap="round" stroke-linejoin="round"/>
<path d="M136.078 289.354C131.699 287.699 127.167 286.479 122.549 285.714" stroke="#8D4500" stroke-width="2.38327" stroke-linecap="round" stroke-linejoin="round"/>
<path d="M108.566 279.526C96.7836 277.665 85.2691 274.387 74.2734 269.762" stroke="#8D4500" stroke-width="2.38327" stroke-linecap="round" stroke-linejoin="round"/>
<path d="M127.048 268.872C124.29 266.369 121.061 264.441 117.549 263.2" stroke="#8D4500" stroke-width="2.38327" stroke-linecap="round" stroke-linejoin="round"/>
<path d="M107.442 257.123L97.9277 251.592" stroke="#8D4500" stroke-width="2.38327" stroke-linecap="round" stroke-linejoin="round"/>
<path d="M88.4742 243.593C81.7042 239.062 75.1216 234.282 68.7266 229.251" stroke="#8D4500" stroke-width="2.38327" stroke-linecap="round" stroke-linejoin="round"/>
<path d="M147.062 260.654L128.221 246.39" stroke="#8D4500" stroke-width="2.38327" stroke-linecap="round" stroke-linejoin="round"/>
<path d="M116.909 236.953L110.207 230.782" stroke="#8D4500" stroke-width="2.38327" stroke-linecap="round" stroke-linejoin="round"/>
<path d="M98.848 219.315C87.9664 210.872 77.9214 201.402 68.8516 191.037" stroke="#8D4500" stroke-width="2.38327" stroke-linecap="round" stroke-linejoin="round"/>
<path d="M139.233 233.703L131.516 224.095" stroke="#8D4500" stroke-width="2.38327" stroke-linecap="round" stroke-linejoin="round"/>
<path d="M121.001 210.019C117.666 205.215 113.879 200.742 109.689 196.661" stroke="#8D4500" stroke-width="2.38327" stroke-linecap="round" stroke-linejoin="round"/>
<path d="M95.4424 176.133C87.2246 164.988 78.9964 153.854 70.7578 142.73" stroke="#8D4500" stroke-width="2.38327" stroke-linecap="round" stroke-linejoin="round"/>
<path d="M168.464 247.03C167.411 244.014 165.916 241.171 164.027 238.594" stroke="#8D4500" stroke-width="2.38327" stroke-linecap="round" stroke-linejoin="round"/>
<path d="M158.935 227.47C158.215 225.388 157.077 223.474 155.592 221.846" stroke="#8D4500" stroke-width="2.38327" stroke-linecap="round" stroke-linejoin="round"/>
<path d="M147.64 204.004C138.266 188.287 128.7 172.664 118.94 157.135" stroke="#8D4500" stroke-width="2.38327" stroke-linecap="round" stroke-linejoin="round"/>
<path d="M109.411 136.887C107.643 132.901 105.553 129.066 103.162 125.42" stroke="#8D4500" stroke-width="2.38327" stroke-linecap="round" stroke-linejoin="round"/>
<path d="M93.3802 116.655L87.9277 108.172" stroke="#8D4500" stroke-width="2.38327" stroke-linecap="round" stroke-linejoin="round"/>
<path d="M178.995 240.922C177.745 235.714 176.49 230.475 175.229 225.205" stroke="#8D4500" stroke-width="2.38327" stroke-linecap="round" stroke-linejoin="round"/>
<path d="M166.607 204.02C165.216 200.426 163.842 196.833 162.451 193.255" stroke="#8D4500" stroke-width="2.38327" stroke-linecap="round" stroke-linejoin="round"/>
<path d="M156.622 172.633C153.749 163.609 150.236 154.801 146.107 146.277" stroke="#8D4500" stroke-width="2.38327" stroke-linecap="round" stroke-linejoin="round"/>
<path d="M140.673 124.045C138.59 119.004 136.668 113.911 134.908 108.766" stroke="#8D4500" stroke-width="2.38327" stroke-linecap="round" stroke-linejoin="round"/>
<path d="M188.994 238.125C187.328 228.679 186.285 219.134 185.869 209.551" stroke="#8D4500" stroke-width="2.38327" stroke-linecap="round" stroke-linejoin="round"/>
<path d="M183.917 192.771C183.604 189.975 183.276 187.163 182.948 184.366" stroke="#8D4500" stroke-width="2.38327" stroke-linecap="round" stroke-linejoin="round"/>
<path d="M179.183 164.196C178.809 160.65 178.449 157.103 178.074 153.557" stroke="#8D4500" stroke-width="2.38327" stroke-linecap="round" stroke-linejoin="round"/>
<path d="M175.496 133.419C175.236 123.909 174.96 114.39 174.668 104.86" stroke="#8D4500" stroke-width="2.38327" stroke-linecap="round" stroke-linejoin="round"/>
<path d="M198.617 214.097L199.18 207.379" stroke="#8D4500" stroke-width="2.38327" stroke-linecap="round" stroke-linejoin="round"/>
<path d="M200.367 184.913V167.009" stroke="#8D4500" stroke-width="2.38327" stroke-linecap="round" stroke-linejoin="round"/>
<path d="M201.398 143.496L202.055 123.904" stroke="#8D4500" stroke-width="2.38327" stroke-linecap="round" stroke-linejoin="round"/>
<path d="M200.852 104.297C201.547 96.8498 201.688 89.3613 201.273 81.8933" stroke="#8D4500" stroke-width="2.38327" stroke-linecap="round" stroke-linejoin="round"/>
<path d="M243.081 204.004C247.627 201.661 251.283 196.083 248.955 191.506C251.055 192.38 252.944 193.692 254.495 195.355C256.047 197.018 257.225 198.993 257.952 201.148C258.678 203.303 258.935 205.589 258.707 207.852C258.478 210.114 257.769 212.302 256.626 214.269C251.377 223.236 238.847 225.439 237.441 241.844C237.207 244.531 236.551 245.624 233.77 244.968C224.943 243.094 214.803 240.672 214.881 230.345C215.053 207.66 237.207 207.067 243.081 204.004Z" fill="#C17B34" stroke="#3C3930" stroke-width="2.38327" stroke-linecap="round" stroke-linejoin="round"/>
<path d="M266.891 252.78C277.905 248.765 281.733 259.982 290.326 261.482C292.947 261.84 295.606 261.187 297.762 259.654C299.918 258.122 301.41 255.826 301.934 253.233C303.435 255.981 304.242 259.054 304.286 262.185C304.329 265.316 303.608 268.411 302.184 271.2C294.372 286.073 279.139 279.433 271.687 281.417C264.235 283.401 263.657 289.65 260.751 288.776C257.954 288.01 247.628 259.779 266.891 252.78Z" fill="#C17B34" stroke="#3C3930" stroke-width="2.38327" stroke-linecap="round" stroke-linejoin="round"/>
<path d="M267.876 309.523C279.468 309.101 281.077 321.49 282.765 325.912C287.264 337.598 297.732 338.801 302.169 333.567C293.92 350.19 283.077 351.471 277.172 346.69C272.204 342.613 272.719 333.848 260.33 337.035C255.034 338.395 252.003 337.582 252.675 331.567C253.768 322.631 257.065 309.914 267.876 309.523Z" fill="#C17B34" stroke="#3C3930" stroke-width="2.38327" stroke-linecap="round" stroke-linejoin="round"/>
<path d="M240.004 354.393C239.16 359.345 231.13 368.703 239.597 379.499C241.362 381.687 243.568 383.479 246.072 384.757C248.575 386.036 251.32 386.773 254.127 386.92C237.41 399.153 212.132 378.374 213.069 361.61C213.772 349.112 228.536 340.269 233.973 342.066C238.316 343.488 240.691 350.377 240.004 354.393Z" fill="#C17B34" stroke="#3C3930" stroke-width="2.38327" stroke-linecap="round" stroke-linejoin="round"/>
<path d="M156.998 204.004C152.467 201.661 148.811 196.083 151.139 191.506C149.033 192.377 147.138 193.689 145.582 195.354C144.026 197.019 142.845 198.998 142.118 201.158C141.391 203.318 141.136 205.608 141.369 207.875C141.601 210.142 142.317 212.333 143.468 214.3C148.702 223.268 161.231 225.471 162.653 241.875C162.872 244.562 163.528 245.656 166.325 245C175.136 243.125 185.291 240.703 185.213 230.376C185.041 207.66 162.888 207.067 156.998 204.004Z" fill="#C17B34" stroke="#3C3930" stroke-width="2.38327" stroke-linecap="round" stroke-linejoin="round"/>
<path d="M133.204 252.78C122.174 248.765 118.362 259.982 109.769 261.482C107.147 261.848 104.484 261.197 102.326 259.664C100.168 258.13 98.6781 255.829 98.1612 253.233C96.6535 255.979 95.8423 259.053 95.7987 262.185C95.7551 265.317 96.4805 268.413 97.9113 271.2C105.723 286.073 120.955 279.433 128.408 281.417C135.86 283.401 136.422 289.65 139.344 288.776C142.14 288.01 152.467 259.779 133.204 252.78Z" fill="#C17B34" stroke="#3C3930" stroke-width="2.38327" stroke-linecap="round" stroke-linejoin="round"/>
<path d="M132.221 309.523C120.628 309.101 119.019 321.49 117.316 325.912C112.832 337.598 102.365 338.801 97.9277 333.567C106.177 350.19 117.004 351.471 122.831 346.69C127.799 342.613 127.299 333.848 139.688 337.035C144.969 338.395 148.016 337.582 147.328 331.567C146.313 322.631 143.016 309.914 132.221 309.523Z" fill="#C17B34" stroke="#3C3930" stroke-width="2.38327" stroke-linecap="round" stroke-linejoin="round"/>
<path d="M160.075 354.393C160.935 359.345 168.965 368.703 160.497 379.499C158.728 381.686 156.519 383.477 154.013 384.755C151.508 386.034 148.761 386.771 145.952 386.92C162.685 399.153 187.963 378.374 187.01 361.61C186.307 349.112 171.543 340.269 166.106 342.066C161.778 343.488 159.388 350.377 160.075 354.393Z" fill="#C17B34" stroke="#3C3930" stroke-width="2.38327" stroke-linecap="round" stroke-linejoin="round"/>
<path d="M200.04 167.946C209.331 191.495 217.663 215.404 225.037 239.672C222.147 238.516 211.117 237.875 200.04 237.844C188.963 237.813 177.98 238.516 175.043 239.672C182.417 215.425 190.749 191.516 200.04 167.946Z" fill="#E28E40" stroke="#3C3930" stroke-width="2.38327" stroke-linecap="round" stroke-linejoin="round"/>
<path d="M293.45 212.956C289.325 224.502 276.264 235.422 258.626 270.762C260.188 267.544 246.862 252.873 241.268 248.358C239.081 246.577 235.019 244.968 233.457 242.672C230.098 237.735 243.69 233.798 247.268 232.11C262.313 225.033 277.827 218.628 293.45 212.956Z" fill="#E28E40" stroke="#3C3930" stroke-width="2.38327" stroke-linecap="round" stroke-linejoin="round"/>
<path d="M106.645 212.956C110.785 224.502 123.83 235.422 141.484 270.762C139.922 267.544 153.248 252.873 158.826 248.358C161.029 246.577 165.075 244.968 166.637 242.672C170.012 237.735 156.42 233.798 152.842 232.11C137.761 225.028 122.361 218.643 106.645 212.956Z" fill="#E28E40" stroke="#3C3930" stroke-width="2.38327" stroke-linecap="round" stroke-linejoin="round"/>
<path d="M325.055 302.477C303.744 309.572 281.958 315.148 259.859 319.163C268.468 301.696 259.094 285.245 263.125 281.526C265.64 279.167 278.56 286.401 281.763 287.635C283.528 288.323 323.258 303.149 325.055 302.477Z" fill="#E28E40" stroke="#3C3930" stroke-width="2.38327" stroke-linecap="round" stroke-linejoin="round"/>
<path d="M75.0234 302.477C96.3397 309.57 118.131 315.146 140.234 319.163C131.611 301.696 140.984 285.245 136.969 281.526C134.438 279.167 121.534 286.401 118.315 287.635C116.565 288.323 76.8201 303.149 75.0234 302.477Z" fill="#E28E40" stroke="#3C3930" stroke-width="2.38327" stroke-linecap="round" stroke-linejoin="round"/>
<path d="M287.046 389.42C267.434 378.046 248.217 365.995 229.396 353.268C236.281 347.873 243.093 342.394 249.832 336.832C259.877 328.536 254.737 325.615 281.375 378.296C282.609 380.624 286.046 386.701 287.046 389.42Z" fill="#E28E40" stroke="#3C3930" stroke-width="2.38327" stroke-linecap="round" stroke-linejoin="round"/>
<path d="M113.033 389.42C132.656 378.046 151.852 365.995 170.62 353.268C163.746 347.873 156.934 342.394 150.185 336.832C140.155 328.536 145.279 325.615 118.658 378.296C117.47 380.624 114.033 386.701 113.033 389.42Z" fill="#E28E40" stroke="#3C3930" stroke-width="2.38327" stroke-linecap="round" stroke-linejoin="round"/>
<path d="M200.039 413.808C206.413 394.945 212.173 375.89 217.318 356.643C212.631 357.143 206.382 357.392 200.039 357.392C193.696 357.392 187.54 357.143 182.76 356.643C187.905 375.88 193.665 394.935 200.039 413.808Z" fill="#E28E40" stroke="#3C3930" stroke-width="2.38327" stroke-linecap="round" stroke-linejoin="round"/>
<path d="M246.377 253.155C261.61 239.094 277.826 226.595 293.45 212.956" stroke="#3C3930" stroke-width="2.38327" stroke-linecap="round" stroke-linejoin="round"/>
<path d="M153.701 253.155C138.485 239.094 122.283 226.502 106.645 212.91" stroke="#3C3930" stroke-width="2.38327" stroke-linecap="round" stroke-linejoin="round"/>
<path d="M263.595 300.102C285.264 300.789 303.387 301.789 325.056 302.477" stroke="#3C3930" stroke-width="2.38327" stroke-linecap="round" stroke-linejoin="round"/>
<path d="M136.485 300.102C114.816 300.789 96.6928 301.789 75.0234 302.477" stroke="#3C3930" stroke-width="2.38327" stroke-linecap="round" stroke-linejoin="round"/>
<path d="M243.207 342.301C258.83 358.361 272.047 372.719 287.046 389.42" stroke="#3C3930" stroke-width="2.38327" stroke-linecap="round" stroke-linejoin="round"/>
<path d="M156.887 342.301C141.186 358.361 128.047 372.719 113.033 389.42" stroke="#3C3930" stroke-width="2.38327" stroke-linecap="round" stroke-linejoin="round"/>
<path d="M200.039 167.946V237.86" stroke="#3C3930" stroke-width="2.38327" stroke-linecap="round" stroke-linejoin="round"/>
<path d="M200.039 413.823V357.408" stroke="#3C3930" stroke-width="2.38327" stroke-linecap="round" stroke-linejoin="round"/>
<path d="M200.039 220.612L220.334 224.72" stroke="#3C3930" stroke-width="2.38327" stroke-linecap="round" stroke-linejoin="round"/>
<path d="M200.039 212.972L218.099 217.846" stroke="#3C3930" stroke-width="2.38327" stroke-linecap="round" stroke-linejoin="round"/>
<path d="M200.039 205.864L215.443 209.941" stroke="#3C3930" stroke-width="2.38327" stroke-linecap="round" stroke-linejoin="round"/>
<path d="M200.039 200.005L212.678 201.926" stroke="#3C3930" stroke-width="2.38327" stroke-linecap="round" stroke-linejoin="round"/>
<path d="M200.039 195.349L210.85 196.724" stroke="#3C3930" stroke-width="2.38327" stroke-linecap="round" stroke-linejoin="round"/>
<path d="M200.039 190.568L209.069 191.803" stroke="#3C3930" stroke-width="2.38327" stroke-linecap="round" stroke-linejoin="round"/>
<path d="M200.039 185.256L207.148 186.553" stroke="#3C3930" stroke-width="2.38327" stroke-linecap="round" stroke-linejoin="round"/>
<path d="M200.039 180.397L205.445 181.975" stroke="#3C3930" stroke-width="2.38327" stroke-linecap="round" stroke-linejoin="round"/>
<path d="M200.039 176.21L203.601 177.101" stroke="#3C3930" stroke-width="2.38327" stroke-linecap="round" stroke-linejoin="round"/>
<path d="M200.039 226.814L222.38 231.173" stroke="#3C3930" stroke-width="2.38327" stroke-linecap="round" stroke-linejoin="round"/>
<path d="M252.674 247.53L262.251 263.716" stroke="#3C3930" stroke-width="2.38327" stroke-linecap="round" stroke-linejoin="round"/>
<path d="M257.455 243.328L265.454 257.826" stroke="#3C3930" stroke-width="2.38327" stroke-linecap="round" stroke-linejoin="round"/>
<path d="M261.736 239.672L268.829 251.921" stroke="#3C3930" stroke-width="2.38327" stroke-linecap="round" stroke-linejoin="round"/>
<path d="M265.282 236.672L271.844 246.937" stroke="#3C3930" stroke-width="2.38327" stroke-linecap="round" stroke-linejoin="round"/>
<path d="M269.547 233.079L275.093 241.796" stroke="#3C3930" stroke-width="2.38327" stroke-linecap="round" stroke-linejoin="round"/>
<path d="M273.078 230.142L277.984 237.438" stroke="#3C3930" stroke-width="2.38327" stroke-linecap="round" stroke-linejoin="round"/>
<path d="M276.609 227.205L280.984 233.079" stroke="#3C3930" stroke-width="2.38327" stroke-linecap="round" stroke-linejoin="round"/>
<path d="M279.859 224.502L283.468 229.533" stroke="#3C3930" stroke-width="2.38327" stroke-linecap="round" stroke-linejoin="round"/>
<path d="M282.826 222.018L285.857 226.127" stroke="#3C3930" stroke-width="2.38327" stroke-linecap="round" stroke-linejoin="round"/>
<path d="M285.732 219.565L288.232 222.658" stroke="#3C3930" stroke-width="2.38327" stroke-linecap="round" stroke-linejoin="round"/>
<path d="M288.327 217.362L290.093 219.737" stroke="#3C3930" stroke-width="2.38327" stroke-linecap="round" stroke-linejoin="round"/>
<path d="M272.093 300.399L267.141 317.787" stroke="#3C3930" stroke-width="2.38327" stroke-linecap="round" stroke-linejoin="round"/>
<path d="M277.421 300.603L273.703 316.444" stroke="#3C3930" stroke-width="2.38327" stroke-linecap="round" stroke-linejoin="round"/>
<path d="M282.922 300.821L279.859 315.085" stroke="#3C3930" stroke-width="2.38327" stroke-linecap="round" stroke-linejoin="round"/>
<path d="M287.732 301.024L285.139 313.866" stroke="#3C3930" stroke-width="2.38327" stroke-linecap="round" stroke-linejoin="round"/>
<path d="M293.451 301.165L291.436 312.319" stroke="#3C3930" stroke-width="2.38327" stroke-linecap="round" stroke-linejoin="round"/>
<path d="M299.34 301.509L297.668 310.695" stroke="#3C3930" stroke-width="2.38327" stroke-linecap="round" stroke-linejoin="round"/>
<path d="M304.247 301.711L303.044 309.226" stroke="#3C3930" stroke-width="2.38327" stroke-linecap="round" stroke-linejoin="round"/>
<path d="M309.168 301.915L308.293 307.726" stroke="#3C3930" stroke-width="2.38327" stroke-linecap="round" stroke-linejoin="round"/>
<path d="M313.636 302.086L312.87 306.367" stroke="#3C3930" stroke-width="2.38327" stroke-linecap="round" stroke-linejoin="round"/>
<path d="M248.737 348.003L262.954 340.894" stroke="#3C3930" stroke-width="2.38327" stroke-linecap="round" stroke-linejoin="round"/>
<path d="M251.893 351.283L265.125 345.253" stroke="#3C3930" stroke-width="2.38327" stroke-linecap="round" stroke-linejoin="round"/>
<path d="M255.846 355.596L267.516 350.128" stroke="#3C3930" stroke-width="2.38327" stroke-linecap="round" stroke-linejoin="round"/>
<path d="M259.859 359.705L270.171 355.596" stroke="#3C3930" stroke-width="2.38327" stroke-linecap="round" stroke-linejoin="round"/>
<path d="M263.078 363.157L272.233 359.814" stroke="#3C3930" stroke-width="2.38327" stroke-linecap="round" stroke-linejoin="round"/>
<path d="M265.939 366.22L274.001 363.407" stroke="#3C3930" stroke-width="2.38327" stroke-linecap="round" stroke-linejoin="round"/>
<path d="M269.001 369.532L275.953 367.344" stroke="#3C3930" stroke-width="2.38327" stroke-linecap="round" stroke-linejoin="round"/>
<path d="M271.609 372.39L277.734 370.922" stroke="#3C3930" stroke-width="2.38327" stroke-linecap="round" stroke-linejoin="round"/>
<path d="M274.672 375.734L279.578 374.64" stroke="#3C3930" stroke-width="2.38327" stroke-linecap="round" stroke-linejoin="round"/>
<path d="M277.422 378.749L281.437 378.296" stroke="#3C3930" stroke-width="2.38327" stroke-linecap="round" stroke-linejoin="round"/>
<path d="M280.076 381.686L282.904 381.077" stroke="#3C3930" stroke-width="2.38327" stroke-linecap="round" stroke-linejoin="round"/>
<path d="M200.039 365.86L215.693 362.688" stroke="#3C3930" stroke-width="2.38327" stroke-linecap="round" stroke-linejoin="round"/>
<path d="M200.039 370.563L214.397 367.313" stroke="#3C3930" stroke-width="2.38327" stroke-linecap="round" stroke-linejoin="round"/>
<path d="M200.039 375.187L213.178 371.656" stroke="#3C3930" stroke-width="2.38327" stroke-linecap="round" stroke-linejoin="round"/>
<path d="M200.039 379.39L211.928 375.968" stroke="#3C3930" stroke-width="2.38327" stroke-linecap="round" stroke-linejoin="round"/>
<path d="M200.039 384.405L210.382 381.233" stroke="#3C3930" stroke-width="2.38327" stroke-linecap="round" stroke-linejoin="round"/>
<path d="M200.039 389.42L208.757 386.639" stroke="#3C3930" stroke-width="2.38327" stroke-linecap="round" stroke-linejoin="round"/>
<path d="M200.039 394.247L207.226 391.654" stroke="#3C3930" stroke-width="2.38327" stroke-linecap="round" stroke-linejoin="round"/>
<path d="M200.039 398.372L205.757 396.341" stroke="#3C3930" stroke-width="2.38327" stroke-linecap="round" stroke-linejoin="round"/>
<path d="M200.039 402.84L204.179 401.278" stroke="#3C3930" stroke-width="2.38327" stroke-linecap="round" stroke-linejoin="round"/>
<path d="M150.295 349.112L164.496 357.408" stroke="#3C3930" stroke-width="2.38327" stroke-linecap="round" stroke-linejoin="round"/>
<path d="M146.328 353.268L159.373 360.798" stroke="#3C3930" stroke-width="2.38327" stroke-linecap="round" stroke-linejoin="round"/>
<path d="M142.75 357.033L155.483 363.345" stroke="#3C3930" stroke-width="2.38327" stroke-linecap="round" stroke-linejoin="round"/>
<path d="M139.22 360.798L151.031 366.219" stroke="#3C3930" stroke-width="2.38327" stroke-linecap="round" stroke-linejoin="round"/>
<path d="M135.969 364.282L146.78 368.937" stroke="#3C3930" stroke-width="2.38327" stroke-linecap="round" stroke-linejoin="round"/>
<path d="M132.954 367.516L142.281 371.781" stroke="#3C3930" stroke-width="2.38327" stroke-linecap="round" stroke-linejoin="round"/>
<path d="M129.924 370.812L137.626 374.687" stroke="#3C3930" stroke-width="2.38327" stroke-linecap="round" stroke-linejoin="round"/>
<path d="M126.251 374.828L132.766 377.671" stroke="#3C3930" stroke-width="2.38327" stroke-linecap="round" stroke-linejoin="round"/>
<path d="M122.674 378.749L127.673 380.764" stroke="#3C3930" stroke-width="2.38327" stroke-linecap="round" stroke-linejoin="round"/>
<path d="M119.486 382.264L122.673 383.764" stroke="#3C3930" stroke-width="2.38327" stroke-linecap="round" stroke-linejoin="round"/>
<path d="M83.8828 302.18L85.367 305.789" stroke="#3C3930" stroke-width="2.38327" stroke-linecap="round" stroke-linejoin="round"/>
<path d="M87.5684 302.04L90.3024 307.289" stroke="#3C3930" stroke-width="2.38327" stroke-linecap="round" stroke-linejoin="round"/>
<path d="M92.1621 301.867L95.8492 308.882" stroke="#3C3930" stroke-width="2.38327" stroke-linecap="round" stroke-linejoin="round"/>
<path d="M97.1777 301.665L101.802 310.523" stroke="#3C3930" stroke-width="2.38327" stroke-linecap="round" stroke-linejoin="round"/>
<path d="M102.708 301.43L107.629 312.054" stroke="#3C3930" stroke-width="2.38327" stroke-linecap="round" stroke-linejoin="round"/>
<path d="M108.879 301.165L114.191 313.679" stroke="#3C3930" stroke-width="2.38327" stroke-linecap="round" stroke-linejoin="round"/>
<path d="M114.144 300.946L120.237 315.085" stroke="#3C3930" stroke-width="2.38327" stroke-linecap="round" stroke-linejoin="round"/>
<path d="M120.236 300.696L127.079 316.585" stroke="#3C3930" stroke-width="2.38327" stroke-linecap="round" stroke-linejoin="round"/>
<path d="M126.766 300.446L133.655 317.928" stroke="#3C3930" stroke-width="2.38327" stroke-linecap="round" stroke-linejoin="round"/>
<path d="M110.566 220.643L113.519 218.846" stroke="#3C3930" stroke-width="2.38327" stroke-linecap="round" stroke-linejoin="round"/>
<path d="M112.784 224.033L117.112 221.877" stroke="#3C3930" stroke-width="2.38327" stroke-linecap="round" stroke-linejoin="round"/>
<path d="M115.441 227.845L120.91 225.064" stroke="#3C3930" stroke-width="2.38327" stroke-linecap="round" stroke-linejoin="round"/>
<path d="M117.769 231.173L124.19 227.782" stroke="#3C3930" stroke-width="2.38327" stroke-linecap="round" stroke-linejoin="round"/>
<path d="M120.236 234.704L127.642 230.658" stroke="#3C3930" stroke-width="2.38327" stroke-linecap="round" stroke-linejoin="round"/>
<path d="M122.971 238.734L131.72 234.079" stroke="#3C3930" stroke-width="2.38327" stroke-linecap="round" stroke-linejoin="round"/>
<path d="M125.549 242.671L135.345 237.11" stroke="#3C3930" stroke-width="2.38327" stroke-linecap="round" stroke-linejoin="round"/>
<path d="M128.408 247.202L139.141 240.344" stroke="#3C3930" stroke-width="2.38327" stroke-linecap="round" stroke-linejoin="round"/>
<path d="M131.251 251.92L143.14 243.765" stroke="#3C3930" stroke-width="2.38327" stroke-linecap="round" stroke-linejoin="round"/>
<path d="M133.781 256.295L146.202 246.452" stroke="#3C3930" stroke-width="2.38327" stroke-linecap="round" stroke-linejoin="round"/>
<path d="M136.375 260.982L149.811 249.655" stroke="#3C3930" stroke-width="2.38327" stroke-linecap="round" stroke-linejoin="round"/>
<path d="M200.04 231.157C285.67 231.157 293.247 362.657 200.04 361.923C106.847 362.657 114.409 231.11 200.04 231.157Z" fill="#FFC259" stroke="#3C3930" stroke-width="2.38327" stroke-linecap="round" stroke-linejoin="round"/>
<path d="M200.041 264.888C203.868 264.888 207.696 261.919 208.821 255.982C213.508 255.123 214.633 274.308 200.041 274.293C185.449 274.277 186.636 255.123 191.276 255.982C192.401 261.919 196.229 264.888 200.041 264.888Z" fill="#E28E40" stroke="#3C3930" stroke-width="2.38327" stroke-linecap="round" stroke-linejoin="round"/>
<path d="M209.321 309.226C211.82 310.132 212.039 315.241 205.634 315.085C203.212 315.085 202.415 318.49 200.041 318.49C197.666 318.49 196.916 315.022 194.463 315.085C188.058 315.241 188.214 310.132 190.776 309.226" stroke="#3C3930" stroke-width="2.38327" stroke-linecap="round" stroke-linejoin="round"/>
<path d="M208.398 291.119C205.921 296.024 205.268 301.65 206.555 306.992" stroke="#3C3930" stroke-width="2.38327" stroke-linecap="round" stroke-linejoin="round"/>
<path d="M191.696 291.119C194.166 296.026 194.819 301.649 193.54 306.992" stroke="#3C3930" stroke-width="2.38327" stroke-linecap="round" stroke-linejoin="round"/>
<path d="M210.726 285.307C219.709 274.058 232.426 271.387 246.378 282.557" stroke="#3C3930" stroke-width="2.38327" stroke-linecap="round" stroke-linejoin="round"/>
<path d="M189.37 285.307C180.371 274.058 167.669 271.387 153.702 282.557" stroke="#3C3930" stroke-width="2.38327" stroke-linecap="round" stroke-linejoin="round"/>
<path d="M183.199 328.849C190.027 332.927 192.573 318.991 200.041 327.802C207.446 318.991 210.055 332.927 216.883 328.849" stroke="#3C3930" stroke-width="2.38327" stroke-linecap="round" stroke-linejoin="round"/>
<path d="M206.914 329.614C203.024 330.552 203.79 332.739 200.04 332.739C196.291 332.739 197.072 330.489 193.182 329.614" stroke="#3C3930" stroke-width="2.38327" stroke-linecap="round" stroke-linejoin="round"/>
<path d="M206.43 335.098C205.615 335.979 204.627 336.683 203.527 337.164C202.428 337.645 201.241 337.893 200.04 337.893C198.84 337.893 197.653 337.645 196.553 337.164C195.453 336.683 194.465 335.979 193.65 335.098" stroke="#3C3930" stroke-width="2.38327" stroke-linecap="round" stroke-linejoin="round"/>
<path d="M207.68 348.55C206.711 345.738 203.383 344.347 200.04 344.347C196.697 344.347 193.369 345.738 192.416 348.55" stroke="#3C3930" stroke-width="2.38327" stroke-linecap="round" stroke-linejoin="round"/>
<path d="M239.208 332.505C246.519 330.255 247.019 316.522 237.083 315.616C223.897 314.382 227.131 336.208 239.208 332.505Z" fill="#F06E4E" stroke="#3C3930" stroke-width="2.38327" stroke-linecap="round" stroke-linejoin="round"/>
<path d="M160.889 332.505C153.561 330.255 153.077 316.522 162.998 315.616C176.184 314.382 172.965 336.208 160.889 332.505Z" fill="#F06E4E" stroke="#3C3930" stroke-width="2.38327" stroke-linecap="round" stroke-linejoin="round"/>
<path d="M243.628 290.4C240.127 293.146 235.927 294.856 231.504 295.337H231.067H230.567H230.473C225.952 295.353 221.475 294.444 217.318 292.666C222.771 284.51 234.879 288.041 243.628 290.4Z" fill="#FFFBF8"/>
<path d="M235.645 288.447C236.848 292.728 234.427 294.915 231.521 295.337H231.083H230.49C226.834 295.337 223.006 292.681 224.865 287.916V287.838C225.771 287.654 226.691 287.55 227.615 287.525V287.619C227.443 288.122 227.402 288.66 227.496 289.183C227.591 289.706 227.816 290.196 228.153 290.607C228.489 291.018 228.924 291.337 229.418 291.533C229.912 291.729 230.447 291.796 230.974 291.728C231.401 291.692 231.811 291.547 232.166 291.308C232.521 291.069 232.81 290.743 233.004 290.361C233.198 289.979 233.291 289.555 233.275 289.127C233.259 288.699 233.133 288.282 232.911 287.916C233.833 288.041 234.739 288.213 235.645 288.4V288.447Z" fill="#7E978A"/>
<path d="M227.584 287.604C229.361 287.552 231.139 287.662 232.896 287.932C233.118 288.298 233.243 288.715 233.259 289.143C233.276 289.57 233.182 289.995 232.988 290.377C232.794 290.759 232.506 291.085 232.151 291.324C231.796 291.563 231.385 291.708 230.958 291.744C230.432 291.812 229.896 291.745 229.402 291.549C228.909 291.353 228.473 291.034 228.137 290.623C227.801 290.212 227.575 289.722 227.481 289.199C227.387 288.676 227.428 288.138 227.599 287.635L227.584 287.604Z" fill="#3C3930"/>
<path d="M224.849 287.995C221.286 297.087 238.441 298.478 235.629 288.448" stroke="#3C3930" stroke-width="2.38327" stroke-linecap="round" stroke-linejoin="round"/>
<path d="M217.303 292.744C223.802 295.119 232.926 298.321 243.628 290.4" stroke="#3C3930" stroke-width="2.38327" stroke-linecap="round" stroke-linejoin="round"/>
<path d="M227.584 287.698C227.412 288.2 227.371 288.739 227.465 289.261C227.559 289.784 227.785 290.274 228.121 290.686C228.458 291.097 228.893 291.416 229.387 291.612C229.881 291.808 230.416 291.875 230.943 291.807C231.368 291.766 231.775 291.619 232.128 291.379C232.481 291.139 232.767 290.814 232.96 290.434C233.154 290.053 233.248 289.63 233.234 289.204C233.22 288.777 233.098 288.361 232.88 287.995" stroke="#3C3930" stroke-width="2.38327" stroke-linecap="round" stroke-linejoin="round"/>
<path d="M245.549 290.9C240.253 287.26 240.253 282.761 231.035 281.839C224.661 281.198 220.224 287.041 217.303 292.775C223.146 283.885 236.738 288.635 245.549 290.9Z" fill="#E28E40" stroke="#3C3930" stroke-width="2.38327" stroke-linecap="round" stroke-linejoin="round"/>
<path d="M156.468 290.4C159.969 293.146 164.168 294.856 168.591 295.337H169.029H169.529H169.622C174.144 295.353 178.62 294.444 182.777 292.666C177.325 284.51 165.217 288.041 156.468 290.4Z" fill="#FFFBF8"/>
<path d="M164.466 288.447C163.263 292.728 165.685 294.915 168.591 295.337H169.028H169.622C173.277 295.337 177.105 292.681 175.246 287.916V287.838C174.34 287.654 173.42 287.55 172.496 287.525V287.619C172.668 288.122 172.709 288.66 172.615 289.183C172.521 289.706 172.295 290.196 171.959 290.607C171.622 291.018 171.187 291.337 170.693 291.533C170.2 291.729 169.664 291.796 169.137 291.728C168.711 291.692 168.3 291.547 167.945 291.308C167.59 291.069 167.302 290.743 167.108 290.361C166.914 289.979 166.82 289.555 166.836 289.127C166.853 288.699 166.978 288.282 167.2 287.916C166.278 288.041 165.372 288.213 164.466 288.4V288.447Z" fill="#7E978A"/>
<path d="M172.512 287.604C170.735 287.552 168.957 287.662 167.2 287.932C166.978 288.298 166.853 288.715 166.837 289.143C166.821 289.57 166.914 289.995 167.108 290.377C167.302 290.759 167.59 291.085 167.945 291.324C168.301 291.563 168.711 291.708 169.138 291.744C169.664 291.812 170.2 291.745 170.694 291.549C171.187 291.353 171.623 291.034 171.959 290.623C172.295 290.212 172.521 289.722 172.615 289.199C172.709 288.676 172.668 288.138 172.497 287.635L172.512 287.604Z" fill="#3C3930"/>
<path d="M175.247 287.995C178.793 297.087 161.639 298.478 164.467 288.448" stroke="#3C3930" stroke-width="2.38327" stroke-linecap="round" stroke-linejoin="round"/>
<path d="M182.777 292.744C176.294 295.119 167.154 298.321 156.468 290.4" stroke="#3C3930" stroke-width="2.38327" stroke-linecap="round" stroke-linejoin="round"/>
<path d="M172.512 287.698C172.685 288.202 172.726 288.742 172.631 289.266C172.536 289.79 172.309 290.282 171.971 290.693C171.633 291.105 171.195 291.423 170.699 291.618C170.203 291.813 169.666 291.878 169.138 291.807C168.713 291.766 168.305 291.619 167.953 291.379C167.6 291.139 167.314 290.814 167.12 290.434C166.927 290.053 166.833 289.63 166.847 289.204C166.861 288.777 166.983 288.361 167.201 287.995" stroke="#3C3930" stroke-width="2.38327" stroke-linecap="round" stroke-linejoin="round"/>
<path d="M154.545 290.9C159.841 287.26 159.841 282.761 169.043 281.839C175.417 281.198 179.87 287.041 182.776 292.775C176.917 283.885 163.341 288.635 154.545 290.9Z" fill="#E28E40" stroke="#3C3930" stroke-width="2.38327" stroke-linecap="round" stroke-linejoin="round"/>
<path d="M220.35 298.321C223.008 300.144 226.149 301.132 229.372 301.16C232.594 301.188 235.752 300.254 238.441 298.477" stroke="#3C3930" stroke-width="2.38327" stroke-linecap="round" stroke-linejoin="round"/>
<path d="M179.746 298.321C177.085 300.143 173.941 301.131 170.716 301.159C167.491 301.186 164.331 300.253 161.639 298.477" stroke="#3C3930" stroke-width="2.38327" stroke-linecap="round" stroke-linejoin="round"/>
<path d="M229.396 244.89C234.622 246.622 239.346 249.604 243.157 253.577C246.969 257.549 249.753 262.392 251.269 267.684" stroke="#3C3930" stroke-width="2.38327" stroke-linecap="round" stroke-linejoin="round"/>
<path d="M170.779 244.89C165.554 246.624 160.831 249.606 157.019 253.578C153.208 257.55 150.423 262.392 148.906 267.684" stroke="#3C3930" stroke-width="2.38327" stroke-linecap="round" stroke-linejoin="round"/>
<path d="M258.532 285.339C260.977 294.663 260.728 304.49 257.813 313.679" stroke="#3C3930" stroke-width="2.38327" stroke-linecap="round" stroke-linejoin="round"/>
<path d="M141.546 285.339C139.107 294.665 139.361 304.492 142.281 313.679" stroke="#3C3930" stroke-width="2.38327" stroke-linecap="round" stroke-linejoin="round"/>
<path d="M216.584 355.58C223.169 354.681 229.283 351.665 234.004 346.987" stroke="#3C3930" stroke-width="2.38327" stroke-linecap="round" stroke-linejoin="round"/>
<path d="M183.494 355.58C176.913 354.684 170.803 351.668 166.09 346.987" stroke="#3C3930" stroke-width="2.38327" stroke-linecap="round" stroke-linejoin="round"/>
<path d="M157.625 139.473C162.312 134.692 170.92 136.349 174.498 141.895C180.466 151.128 169.358 167.423 161.203 157.69C151.688 171.001 140.424 166.204 138.752 159.971C138.283 163.095 123.223 177.453 113.443 161.283C108.256 164.892 103.959 168.314 97.4132 168.907C94.3529 169.093 91.3271 168.177 88.883 166.326C86.4388 164.475 84.7375 161.811 84.0867 158.815C82.2198 159.771 80.1423 160.243 78.0454 160.185C75.9486 160.128 73.8999 159.544 72.0881 158.487C59.8239 151.128 69.729 133.271 81.9463 138.958C75.947 130.615 96.7414 110.836 103.819 124.1C106.943 106.68 141.549 115.226 137.534 134.458C142.627 124.569 157.75 128.381 157.625 139.473Z" fill="#FDECDC" stroke="#3C3930" stroke-width="2.38327" stroke-linecap="round" stroke-linejoin="round"/>
<path d="M126.066 137.145C125.66 126.662 112.146 127.943 111.661 140.129C111.13 153.753 134.58 148.691 137.611 134.146" stroke="#3C3930" stroke-width="2.38327" stroke-linecap="round" stroke-linejoin="round"/>
<path d="M79.8213 147.738C80.2584 148.601 80.9839 149.283 81.872 149.667C82.76 150.051 83.7543 150.112 84.6825 149.839C85.6106 149.566 86.4139 148.977 86.9528 148.174C87.4918 147.37 87.7324 146.403 87.6329 145.441C87.461 142.317 83.7271 140.051 81.9148 138.958" stroke="#3C3930" stroke-width="2.38327" stroke-linecap="round" stroke-linejoin="round"/>
<path d="M165.89 151.972C168.25 146.113 162.906 145.52 161.203 146.176C156.392 148.082 157.907 154.956 161.203 157.69" stroke="#3C3930" stroke-width="2.38327" stroke-linecap="round" stroke-linejoin="round"/>
<path d="M105.787 158.611C101.757 161.736 97.9759 156.033 99.5382 152.596C104.491 141.754 120.754 152.69 113.443 161.283" stroke="#3C3930" stroke-width="2.38327" stroke-linecap="round" stroke-linejoin="round"/>
<path d="M95.2887 129.506C90.9142 131.818 94.7106 139.442 100.491 136.474C103.694 134.818 106.522 129.928 103.835 124.1" stroke="#3C3930" stroke-width="2.38327" stroke-linecap="round" stroke-linejoin="round"/>
<path d="M319.607 448.848C324.293 444.067 332.902 445.724 336.48 451.27C342.448 460.425 331.339 476.798 323.184 467.065C313.67 480.376 302.405 475.579 300.734 469.346C300.265 472.47 285.204 486.828 275.424 470.658C270.237 474.267 265.941 477.673 259.395 478.282C256.336 478.467 253.313 477.551 250.871 475.7C248.43 473.849 246.731 471.184 246.084 468.19C244.215 469.149 242.135 469.622 240.035 469.564C237.935 469.507 235.883 468.921 234.07 467.862C221.774 460.441 231.711 442.646 243.928 448.333C237.929 439.99 258.723 420.211 265.8 433.475C268.925 416.055 303.53 424.601 299.515 443.833C304.64 434.006 319.732 437.771 319.607 448.848Z" fill="#FDECDC" stroke="#3C3930" stroke-width="2.38327" stroke-linecap="round" stroke-linejoin="round"/>
<path d="M288.048 446.536C287.642 436.068 274.144 437.334 273.644 449.52C273.112 463.143 296.563 458.082 299.594 443.536" stroke="#3C3930" stroke-width="2.38327" stroke-linecap="round" stroke-linejoin="round"/>
<path d="M241.803 457.128C242.24 457.991 242.965 458.674 243.853 459.058C244.741 459.442 245.736 459.503 246.664 459.23C247.592 458.957 248.395 458.368 248.934 457.564C249.473 456.761 249.714 455.794 249.614 454.832C249.442 451.707 245.709 449.442 243.896 448.348" stroke="#3C3930" stroke-width="2.38327" stroke-linecap="round" stroke-linejoin="round"/>
<path d="M267.769 468.002C263.754 471.221 259.957 465.424 261.52 461.987C266.425 451.192 282.736 461.987 275.377 470.674" stroke="#3C3930" stroke-width="2.38327" stroke-linecap="round" stroke-linejoin="round"/>
<path d="M257.271 438.897C252.897 441.209 256.693 448.833 262.474 445.865C265.598 444.208 268.504 439.318 265.817 433.491" stroke="#3C3930" stroke-width="2.38327" stroke-linecap="round" stroke-linejoin="round"/>
<path fill-rule="evenodd" clip-rule="evenodd" d="M131.159 613.6H45.9173C44.3055 613.71 42.6879 613.71 41.0762 613.6H37.7279C37.2178 613.596 36.7296 613.391 36.3688 613.03C36.0081 612.669 35.8035 612.182 35.7988 611.671V570.142C35.3256 530.324 35.5986 490.36 35.7988 450.414V240.985C35.7988 190.49 35.7988 139.989 35.7988 89.4824V53.2673C35.7988 52.8669 35.7988 52.4666 35.7988 52.0662V49.1362C35.7988 45.4965 35.5804 41.8568 35.7988 38.2171V37.5802C35.7988 37.3982 35.7988 37.2162 35.7988 37.0342L35.9627 35.5783C36.0558 35.3199 36.1714 35.0703 36.3084 34.8322V34.6866C36.3084 33.7221 37.0362 33.4309 37.9461 33.3763C38.9193 32.9613 39.9636 32.7388 41.0215 32.7212C42.7504 32.5938 44.6612 32.7212 46.4811 32.7212H91.7046C112.863 32.7212 134.028 32.7212 155.199 32.7212C204.918 32.4664 254.654 32.066 304.136 32.7212C320.515 32.7212 336.894 32.7818 353.272 32.9031C353.797 32.9812 354.31 33.1217 354.801 33.3217C355.001 33.3037 355.202 33.3037 355.401 33.3217C355.572 33.3339 355.738 33.3771 355.893 33.4491C356.102 33.5588 356.277 33.7237 356.399 33.9258C356.521 34.1279 356.585 34.3596 356.585 34.5956C356.593 34.6742 356.593 34.7536 356.585 34.8322C357.204 36.1408 357.419 37.6044 357.203 39.0361C357.258 40.0848 357.258 41.1357 357.203 42.1844V607.832C357.258 608.346 357.258 608.864 357.203 609.378C357.203 610.216 357.203 611.034 357.203 611.872C357.138 612.333 356.909 612.756 356.558 613.063C356.208 613.37 355.759 613.542 355.292 613.546H351.471C349.451 613.71 347.23 613.546 345.41 613.546H131.159V613.6ZM353.473 544.337C353.473 503.208 353.515 462.079 353.6 420.951C353.6 325.991 353.6 231.037 353.6 136.089C353.6 134.269 353.6 132.449 353.6 130.629C353.6 129.81 353.381 128.973 353.236 128.154C353.09 127.335 352.999 126.88 352.854 126.334C352.654 125.188 352.381 124.06 352.126 122.931L351.853 121.894C351.853 121.603 351.707 121.312 351.616 121.02C351.559 120.859 351.511 120.695 351.471 120.529C347.54 98.8183 331.179 80.8563 313.254 68.8089C244.809 24.6046 131.869 25.6237 68.1012 78.1447C55.7262 89.0639 45.5896 102.858 42.2229 119.164C42.0227 120.165 41.8407 121.148 41.6951 122.149C41.4949 122.877 41.3128 123.623 41.1673 124.351C41.0217 125.079 40.949 125.497 40.8398 126.171L40.5124 127.608H40.3484C40.3484 128.009 40.3484 128.391 40.3484 128.718C40.3484 129.046 40.2573 129.283 40.2027 129.556C40.0571 130.429 39.948 131.375 39.857 132.176C39.857 224.661 39.857 317.158 39.857 409.668C39.9298 454.557 39.9724 499.447 39.9845 544.337H162.898C210.287 544.337 257.681 544.337 305.083 544.337H353.654H353.473Z" fill="#5A0E32"/>
<path d="M137.216 577.917L137.633 583.492H136.07L135.185 580.019H127.769V602.229L131.59 602.629V604.105H120.736V602.629L124.522 602.229V580.019H117.142L116.204 583.492H114.676L115.093 577.917H137.216ZM141.21 577.917H149.72V579.393L147.063 579.793V589.709H161.563V579.793L158.923 579.393V577.917H167.433V579.393L164.81 579.793V602.229L167.433 602.629V604.105H158.923V602.629L161.563 602.229V591.792H147.063V602.229L149.72 602.629V604.105H141.21V602.629L143.85 602.229V579.793L141.21 579.393V577.917ZM182.888 591.549H176.498V602.021H186.17L187.421 598.947H188.74L188.167 604.105H170.593V602.629L173.233 602.229V579.793L170.593 579.393V577.917H187.403L187.803 583.075H186.274L185.337 580.019H176.498V589.465H182.888L183.409 587.625H184.642V593.373H183.409L182.888 591.549ZM212.097 602.438C212.954 602.438 213.729 602.357 214.424 602.195C215.13 602.021 215.738 601.755 216.248 601.396C217.336 600.643 217.88 599.543 217.88 598.096C217.88 596.869 217.48 595.862 216.682 595.075C215.837 594.264 214.465 593.448 212.566 592.626C210.679 591.792 209.238 591.052 208.242 590.403C207.258 589.743 206.482 589.078 205.915 588.406C204.885 587.225 204.369 585.796 204.369 584.117C204.369 582.172 205.209 580.568 206.887 579.307C208.45 578.114 210.343 577.518 212.566 577.518C214.314 577.518 216.062 577.836 217.81 578.473C218.54 578.762 219.2 579.081 219.79 579.428L219.182 584.065H217.724C217.724 582.467 217.289 581.309 216.421 580.592C215.553 579.862 214.297 579.498 212.653 579.498C210.384 579.498 208.832 580.239 207.999 581.72C207.733 582.207 207.599 582.751 207.599 583.353C207.599 583.955 207.686 584.499 207.86 584.985C208.034 585.46 208.369 585.929 208.867 586.392C209.84 587.33 211.669 588.36 214.355 589.483C218.106 591.08 220.294 592.968 220.919 595.144C221.104 595.827 221.197 596.556 221.197 597.332C221.197 598.096 221.064 598.826 220.797 599.52C220.543 600.203 220.19 600.817 219.738 601.361C219.287 601.894 218.76 602.357 218.158 602.75C217.567 603.144 216.936 603.468 216.265 603.723C213.29 604.88 210.164 604.788 206.887 603.445C205.695 602.947 204.641 602.339 203.727 601.621L204.456 596.638H205.932C205.932 598.965 206.667 600.585 208.138 601.5C209.145 602.125 210.465 602.438 212.097 602.438ZM236.392 604.504C229.457 604.504 225.99 601.239 225.99 594.71V579.793L223.298 579.393V577.917H231.981V579.393L229.202 579.793V594.189C229.202 598.461 230.563 601.06 233.283 601.986C234.152 602.276 235.199 602.42 236.426 602.42C237.665 602.42 238.777 602.264 239.761 601.951C240.745 601.639 241.561 601.147 242.209 600.475C243.494 599.144 244.137 597.048 244.137 594.189V579.793L241.48 579.393V577.917H248.756V579.393L246.134 579.793V594.71C246.134 597.836 245.294 600.25 243.616 601.951C241.937 603.653 239.529 604.504 236.392 604.504ZM255.737 582.953V602.229L258.377 602.629V604.105H251.048V602.629L253.74 602.229V579.793L251.048 579.393V577.917H255.841L272.669 599.069V579.793L270.046 579.393V577.917H277.323V579.393L274.7 579.793V604.105H272.547L255.737 582.953Z" fill="#F4E5CC"/>
</svg>
