<svg width="122" height="122" viewBox="0 0 122 122" fill="none" xmlns="http://www.w3.org/2000/svg">
<path d="M61.0285 86.8034C75.2951 86.8034 86.8605 75.2381 86.8605 60.9715C86.8605 46.7049 75.2951 35.1395 61.0285 35.1395C46.762 35.1395 35.1966 46.7049 35.1966 60.9715C35.1966 75.2381 46.762 86.8034 61.0285 86.8034Z" stroke="#6C2C19" stroke-width="1.2" stroke-linecap="round" stroke-linejoin="round"/>
<path d="M53.1468 53.8425C53.1422 50.3445 53.8499 46.8823 55.2269 43.6668C56.604 40.4513 58.6214 37.5499 61.1563 35.1395H61.0001C56.778 35.1379 52.62 36.1712 48.8898 38.1489C45.1596 40.1266 41.971 42.9885 39.6031 46.484C37.2353 49.9796 35.7603 54.0023 35.3073 58.1999C34.8543 62.3976 35.4371 66.6423 37.0047 70.5626C38.5723 74.4828 41.0769 77.9591 44.2993 80.6871C47.5217 83.4151 51.3636 85.3117 55.4888 86.2108C59.614 87.11 63.8967 86.9843 67.9621 85.8448C72.0274 84.7053 75.7515 82.5867 78.8084 79.6744C71.9869 79.6294 65.4601 76.888 60.6525 72.0485C55.8449 67.2089 53.1467 60.6641 53.1468 53.8425Z" stroke="#6C2C19" stroke-width="1.2" stroke-linecap="round" stroke-linejoin="round"/>
<path d="M52.9483 27.4852C52.9483 27.4852 49.0288 12.7018 63.3151 1C62.6285 3.5249 62.7729 6.20376 63.727 8.64022C64.8205 11.4805 67.6607 14.8603 68.9388 19.5893" stroke="#6C2C19" stroke-width="1.2" stroke-linecap="round" stroke-linejoin="round"/>
<path d="M63.0876 1.25562C63.0876 1.25562 57.4071 10.3728 59.2674 20.3278" stroke="#6C2C19" stroke-width="0.75" stroke-linecap="round" stroke-linejoin="round"/>
<path d="M69.0946 94.5148C69.0946 94.5148 73.0142 109.284 58.7278 121C59.4134 118.475 59.269 115.796 58.3159 113.36C57.2224 110.52 54.3538 107.097 53.0757 102.325" stroke="#6C2C19" stroke-width="1.2" stroke-linecap="round" stroke-linejoin="round"/>
<path d="M58.9125 120.688C58.9125 120.688 64.593 111.57 62.7326 101.615" stroke="#6C2C19" stroke-width="0.75" stroke-linecap="round" stroke-linejoin="round"/>
<path d="M40.7352 33.0805C40.7352 33.0805 31.4476 20.9243 40.1671 4.6781C40.5079 7.27208 41.667 9.68981 43.476 11.5799C45.5636 13.7953 49.4547 15.8402 52.4369 19.6461" stroke="#6C2C19" stroke-width="1.2" stroke-linecap="round" stroke-linejoin="round"/>
<path d="M40.11 4.99048C40.11 4.99048 38.4201 15.5704 43.8876 24.0769" stroke="#6C2C19" stroke-width="0.75" stroke-linecap="round" stroke-linejoin="round"/>
<path d="M81.3079 88.8768C81.3079 88.8768 90.5955 101.019 81.8759 117.279C81.5352 114.685 80.3761 112.267 78.567 110.377C76.4937 108.176 72.6025 106.117 69.6203 102.34" stroke="#6C2C19" stroke-width="1.2" stroke-linecap="round" stroke-linejoin="round"/>
<path d="M81.9327 116.953C81.9327 116.953 83.6369 106.387 78.1552 97.8662" stroke="#6C2C19" stroke-width="0.75" stroke-linecap="round" stroke-linejoin="round"/>
<path d="M31.6035 42.9644C31.6035 42.9644 18.3822 35.2958 20.2426 16.9053C21.5412 19.1726 23.5319 20.9643 25.923 22.0177C28.7633 23.2674 33.1514 23.6366 37.426 26.1218" stroke="#6C2C19" stroke-width="1.2" stroke-linecap="round" stroke-linejoin="round"/>
<path d="M20.2855 17.2603C20.2855 17.2603 22.7565 27.6697 31.0784 33.4354" stroke="#6C2C19" stroke-width="0.75" stroke-linecap="round" stroke-linejoin="round"/>
<path d="M90.4391 78.9788C90.4391 78.9788 103.66 86.6616 101.8 105.038C100.497 102.774 98.5074 100.984 96.1195 99.9255C93.3645 98.69 89.0189 98.3208 84.7586 95.935" stroke="#6C2C19" stroke-width="1.2" stroke-linecap="round" stroke-linejoin="round"/>
<path d="M101.758 104.683C101.758 104.683 99.2866 94.2734 90.9647 88.5077" stroke="#6C2C19" stroke-width="0.75" stroke-linecap="round" stroke-linejoin="round"/>
<path d="M26.9459 55.5894C26.9459 55.5894 11.7932 53.5586 6.43936 35.8782C8.51569 37.4754 11.0487 38.3662 13.6678 38.4202C16.721 38.5196 20.953 37.1563 25.8382 37.8095" stroke="#6C2C19" stroke-width="1.2" stroke-linecap="round" stroke-linejoin="round"/>
<path d="M6.65225 36.1764C6.65225 36.1764 12.9292 44.8533 22.8132 46.9977" stroke="#6C2C19" stroke-width="0.75" stroke-linecap="round" stroke-linejoin="round"/>
<path d="M95.0971 66.3539C95.0971 66.3539 110.25 68.3847 115.604 86.0651C113.527 84.4679 110.994 83.5771 108.375 83.5231C105.35 83.4379 101.161 84.7728 96.3327 84.1622" stroke="#6C2C19" stroke-width="1.2" stroke-linecap="round" stroke-linejoin="round"/>
<path d="M115.391 85.7101C115.391 85.7101 109.114 77.0331 99.2296 74.903" stroke="#6C2C19" stroke-width="0.75" stroke-linecap="round" stroke-linejoin="round"/>
<path d="M27.4852 69.0379C27.4852 69.0379 12.7018 72.929 1.00003 58.7278C3.52697 59.4049 6.20427 59.2556 8.64027 58.3018C11.4805 57.2225 14.8462 54.3822 19.5752 53.1041" stroke="#6C2C19" stroke-width="1.2" stroke-linecap="round" stroke-linejoin="round"/>
<path d="M1.29823 58.8699C1.29823 58.8699 10.4154 64.5503 20.3846 62.6758" stroke="#6C2C19" stroke-width="0.75" stroke-linecap="round" stroke-linejoin="round"/>
<path d="M94.5573 52.9053C94.5573 52.9053 109.341 48.9858 121.043 63.2722C118.517 62.5866 115.839 62.731 113.402 63.6841C110.562 64.7633 107.253 67.561 102.595 68.8533" stroke="#6C2C19" stroke-width="1.2" stroke-linecap="round" stroke-linejoin="round"/>
<path d="M120.744 63.0734C120.744 63.0734 111.627 57.464 101.658 59.2675" stroke="#6C2C19" stroke-width="0.75" stroke-linecap="round" stroke-linejoin="round"/>
<path d="M33.1233 81.2652C33.1233 81.2652 20.9671 90.5385 4.72096 81.819C7.31409 81.4851 9.73247 80.3307 11.6227 78.5243C13.8665 76.3942 15.8831 72.3894 19.902 69.3788" stroke="#6C2C19" stroke-width="1.2" stroke-linecap="round" stroke-linejoin="round"/>
<path d="M5.04767 81.8757C5.04767 81.8757 15.6133 83.5798 24.1199 78.0981" stroke="#6C2C19" stroke-width="0.75" stroke-linecap="round" stroke-linejoin="round"/>
<path d="M88.9196 40.6923C88.9196 40.6923 101.076 31.4047 117.322 40.1242C114.726 40.4592 112.307 41.6191 110.42 43.4331C108.233 45.4923 106.231 49.3408 102.453 52.3231" stroke="#6C2C19" stroke-width="1.2" stroke-linecap="round" stroke-linejoin="round"/>
<path d="M117.052 40.0675C117.052 40.0675 106.487 38.3634 97.98 43.845" stroke="#6C2C19" stroke-width="0.75" stroke-linecap="round" stroke-linejoin="round"/>
<path d="M43.0073 90.3965C43.0073 90.3965 35.3386 103.618 16.9623 101.757C19.2237 100.456 21.01 98.4655 22.0605 96.077C23.3102 93.2368 23.6795 88.9764 26.1079 84.7161" stroke="#6C2C19" stroke-width="1.2" stroke-linecap="round" stroke-linejoin="round"/>
<path d="M17.3031 101.715C17.3031 101.715 27.7267 99.2438 33.4924 90.9219" stroke="#6C2C19" stroke-width="0.75" stroke-linecap="round" stroke-linejoin="round"/>
<path d="M79.0356 31.5609C79.0356 31.5609 86.7042 18.3254 105.081 20.1999C102.815 21.4969 101.028 23.4887 99.9823 25.8804C98.7468 28.6212 98.3776 32.981 96.0202 37.1277" stroke="#6C2C19" stroke-width="1.2" stroke-linecap="round" stroke-linejoin="round"/>
<path d="M104.74 20.2426C104.74 20.2426 94.316 22.7136 88.5503 31.0355" stroke="#6C2C19" stroke-width="0.75" stroke-linecap="round" stroke-linejoin="round"/>
<path d="M55.6463 95.0403C55.6463 95.0403 53.6156 110.207 35.9351 115.533C37.5339 113.463 38.4251 110.933 38.4771 108.318C38.5623 105.308 37.2558 101.218 37.8238 96.4036" stroke="#6C2C19" stroke-width="1.2" stroke-linecap="round" stroke-linejoin="round"/>
<path d="M36.219 115.334C36.219 115.334 44.8959 109.071 47.0403 99.1729" stroke="#6C2C19" stroke-width="0.75" stroke-linecap="round" stroke-linejoin="round"/>
<path d="M66.4109 26.9029C66.4109 26.9029 68.4275 11.7502 86.108 6.39636C84.5127 8.46832 83.622 10.9962 83.566 13.6106C83.4808 16.6496 84.8157 20.839 84.205 25.6816" stroke="#6C2C19" stroke-width="1.2" stroke-linecap="round" stroke-linejoin="round"/>
<path d="M85.8097 6.6095C85.8097 6.6095 77.1328 12.8864 74.9884 22.7704" stroke="#6C2C19" stroke-width="0.75" stroke-linecap="round" stroke-linejoin="round"/>
<path d="M61.0286 95.2675C79.9697 95.2675 95.3245 79.9127 95.3245 60.9717C95.3245 42.0306 79.9697 26.6758 61.0286 26.6758C42.0875 26.6758 26.7328 42.0306 26.7328 60.9717C26.7328 79.9127 42.0875 95.2675 61.0286 95.2675Z" stroke="#6C2C19" stroke-width="2" stroke-linecap="round" stroke-linejoin="round"/>
<path d="M61.0286 90.6947C77.4442 90.6947 90.7517 77.3872 90.7517 60.9716C90.7517 44.556 77.4442 31.2485 61.0286 31.2485C44.613 31.2485 31.3055 44.556 31.3055 60.9716C31.3055 77.3872 44.613 90.6947 61.0286 90.6947Z" stroke="#6C2C19" stroke-width="0.75" stroke-linecap="round" stroke-linejoin="round" stroke-dasharray="0.49 2.97"/>
</svg>
