<svg width="109" height="107" viewBox="0 0 109 107" fill="none" xmlns="http://www.w3.org/2000/svg">
<path fill-rule="evenodd" clip-rule="evenodd" d="M108.945 53.6158C108.628 124.795 0.40473 124.795 0.0483398 53.6158C0.305732 -17.5632 108.529 -17.5632 108.945 53.6158Z" fill="url(#paint0_radial_10_2590)"/>
<path style="mix-blend-mode:multiply" opacity="0.2" fill-rule="evenodd" clip-rule="evenodd" d="M5.65174 40.3897C5.77053 38.4097 -3.77279 77.5532 17.0364 75.4941C21.8081 74.2665 27.2925 54.7839 32.1434 58.625C36.9942 62.466 40.6967 75.3753 46.003 77.6126C51.3092 79.8499 70.3959 82.3645 84.8297 66.7229C99.2634 51.0814 97.0657 21.4416 91.1259 18.3133C85.186 15.185 85.0078 13.4823 79.8798 9.12639C62.7929 -3.40664 51.8834 22.4514 41.1719 27.916C39.4098 28.1338 49.8044 7.48302 45.8248 4.15672C41.8451 0.830414 16.7592 10.0174 5.65174 40.3897Z" fill="url(#paint1_linear_10_2590)"/>
<path style="mix-blend-mode:screen" fill-rule="evenodd" clip-rule="evenodd" d="M68.396 53.6157C68.6534 71.752 40.1818 71.752 40.4392 53.6157C40.1818 35.4794 68.6534 35.4794 68.396 53.6157Z" fill="url(#paint2_radial_10_2590)"/>
<path style="mix-blend-mode:screen" fill-rule="evenodd" clip-rule="evenodd" d="M62.278 53.6157C62.4166 63.8124 46.4385 63.8124 46.5573 53.6157C46.6761 43.419 62.4166 43.419 62.278 53.6157Z" fill="url(#paint3_radial_10_2590)"/>
<path fill-rule="evenodd" clip-rule="evenodd" d="M60.0605 53.6157C60.1595 60.9415 48.656 60.9415 48.7748 53.6157C48.8936 46.29 60.1595 46.29 60.0605 53.6157Z" fill="url(#paint4_radial_10_2590)"/>
<path fill-rule="evenodd" clip-rule="evenodd" d="M59.7634 53.6157C59.8624 60.5455 48.9727 60.5455 49.0717 53.6157C49.1707 46.6859 59.8624 46.6463 59.7634 53.6157Z" fill="url(#paint5_radial_10_2590)"/>
<path style="mix-blend-mode:screen" fill-rule="evenodd" clip-rule="evenodd" d="M70.0393 64.941C70.1779 74.7219 54.3582 74.7219 54.5166 64.941C54.3582 55.1799 70.1779 55.1799 70.0393 64.941Z" fill="url(#paint6_radial_10_2590)"/>
<path style="mix-blend-mode:screen" fill-rule="evenodd" clip-rule="evenodd" d="M66.1191 64.9411C66.1191 69.7919 58.3577 69.7919 58.4171 64.9411C58.4765 60.0902 66.1983 60.11 66.1191 64.9411Z" fill="url(#paint7_radial_10_2590)"/>
<path style="mix-blend-mode:screen" fill-rule="evenodd" clip-rule="evenodd" d="M58.0408 39.7759C58.1793 49.5568 42.3596 49.5568 42.4982 39.7759C42.6368 29.995 58.1793 29.995 58.0408 39.7759Z" fill="url(#paint8_radial_10_2590)"/>
<path style="mix-blend-mode:screen" fill-rule="evenodd" clip-rule="evenodd" d="M54.1208 39.7759C54.1208 44.6268 46.3396 44.6268 46.4188 39.7759C46.498 34.9251 54.1802 34.9449 54.1208 39.7759Z" fill="url(#paint9_radial_10_2590)"/>
<path style="mix-blend-mode:screen" fill-rule="evenodd" clip-rule="evenodd" d="M27.9262 32.7867C27.9262 37.6375 20.1648 37.6375 20.244 32.7867C20.3232 27.9358 28.0054 27.8764 27.9262 32.7867Z" fill="url(#paint10_radial_10_2590)"/>
<path style="mix-blend-mode:screen" fill-rule="evenodd" clip-rule="evenodd" d="M25.9856 32.7867C25.8656 33.198 25.6155 33.5592 25.2728 33.8163C24.9301 34.0733 24.5132 34.2123 24.0848 34.2123C23.6564 34.2123 23.2396 34.0733 22.8969 33.8163C22.5541 33.5592 22.304 33.198 22.1841 32.7867C22.304 32.3754 22.5541 32.0142 22.8969 31.7571C23.2396 31.5001 23.6564 31.3611 24.0848 31.3611C24.5132 31.3611 24.9301 31.5001 25.2728 31.7571C25.6155 32.0142 25.8656 32.3754 25.9856 32.7867Z" fill="url(#paint11_radial_10_2590)"/>
<path style="mix-blend-mode:screen" fill-rule="evenodd" clip-rule="evenodd" d="M42.1025 62.2483C42.1025 67.0793 34.3411 67.0793 34.4203 62.2483C34.4995 57.4172 42.1817 57.3974 42.1025 62.2483Z" fill="url(#paint12_radial_10_2590)"/>
<path style="mix-blend-mode:screen" fill-rule="evenodd" clip-rule="evenodd" d="M40.1623 62.2483C40.0424 62.6595 39.7923 63.0208 39.4495 63.2778C39.1068 63.5348 38.69 63.6738 38.2616 63.6738C37.8332 63.6738 37.4163 63.5348 37.0736 63.2778C36.7309 63.0208 36.4808 62.6595 36.3608 62.2483C36.4808 61.837 36.7309 61.4757 37.0736 61.2187C37.4163 60.9616 37.8332 60.8227 38.2616 60.8227C38.69 60.8227 39.1068 60.9616 39.4495 61.2187C39.7923 61.4757 40.0424 61.837 40.1623 62.2483Z" fill="url(#paint13_radial_10_2590)"/>
<path style="mix-blend-mode:screen" fill-rule="evenodd" clip-rule="evenodd" d="M88.7299 42.3102C88.7299 47.1413 80.9685 47.1413 81.0279 42.3102C81.0873 37.4792 88.8091 37.4594 88.7299 42.3102Z" fill="url(#paint14_radial_10_2590)"/>
<path style="mix-blend-mode:screen" fill-rule="evenodd" clip-rule="evenodd" d="M86.7898 42.3102C86.6758 42.7296 86.427 43.0999 86.0817 43.3639C85.7364 43.6279 85.3138 43.7709 84.8791 43.7709C84.4445 43.7709 84.0219 43.6279 83.6766 43.3639C83.3313 43.0999 83.0825 42.7296 82.9685 42.3102C83.0825 41.8907 83.3313 41.5205 83.6766 41.2565C84.0219 40.9925 84.4445 40.8495 84.8791 40.8495C85.3138 40.8495 85.7364 40.9925 86.0817 41.2565C86.427 41.5205 86.6758 41.8907 86.7898 42.3102Z" fill="url(#paint15_radial_10_2590)"/>
<path style="mix-blend-mode:screen" fill-rule="evenodd" clip-rule="evenodd" d="M95.6799 52.5862C95.6799 57.437 87.8987 57.437 87.9779 52.5862C88.0571 47.7353 95.7393 47.6561 95.6799 52.5862Z" fill="url(#paint16_radial_10_2590)"/>
<path style="mix-blend-mode:screen" fill-rule="evenodd" clip-rule="evenodd" d="M93.739 52.5861C93.625 53.0056 93.3762 53.3758 93.0309 53.6398C92.6856 53.9038 92.263 54.0468 91.8284 54.0468C91.3937 54.0468 90.9712 53.9038 90.6259 53.6398C90.2806 53.3758 90.0317 53.0056 89.9177 52.5861C90.0317 52.1667 90.2806 51.7964 90.6259 51.5324C90.9712 51.2685 91.3937 51.1254 91.8284 51.1254C92.263 51.1254 92.6856 51.2685 93.0309 51.5324C93.3762 51.7964 93.625 52.1667 93.739 52.5861Z" fill="url(#paint17_radial_10_2590)"/>
<path style="mix-blend-mode:screen" fill-rule="evenodd" clip-rule="evenodd" d="M51.5268 90.8386C51.5268 94.9371 44.9535 94.9371 45.0129 90.8386C45.0722 86.7402 51.5268 86.7402 51.5268 90.8386Z" fill="url(#paint18_radial_10_2590)"/>
<path style="mix-blend-mode:screen" fill-rule="evenodd" clip-rule="evenodd" d="M49.8638 90.8387C49.8197 91.2358 49.6307 91.6028 49.333 91.8693C49.0353 92.1358 48.6497 92.2832 48.2501 92.2832C47.8505 92.2832 47.465 92.1358 47.1672 91.8693C46.8695 91.6028 46.6805 91.2358 46.6365 90.8387C46.6805 90.4415 46.8695 90.0745 47.1672 89.808C47.465 89.5415 47.8505 89.3941 48.2501 89.3941C48.6497 89.3941 49.0353 89.5415 49.333 89.808C49.6307 90.0745 49.8197 90.4415 49.8638 90.8387Z" fill="url(#paint19_radial_10_2590)"/>
<path fill-rule="evenodd" clip-rule="evenodd" d="M39.4096 55.5363C39.4096 55.6361 39.37 55.7317 39.2994 55.8023C39.2289 55.8728 39.1332 55.9125 39.0334 55.9125C38.9336 55.9125 38.838 55.8728 38.7674 55.8023C38.6969 55.7317 38.6572 55.6361 38.6572 55.5363C38.6572 55.4365 38.6969 55.3408 38.7674 55.2703C38.838 55.1997 38.9336 55.1601 39.0334 55.1601C39.1332 55.1601 39.2289 55.1997 39.2994 55.2703C39.37 55.3408 39.4096 55.4365 39.4096 55.5363Z" fill="white"/>
<path fill-rule="evenodd" clip-rule="evenodd" d="M27.3914 77.6126C27.4043 77.6678 27.4046 77.7252 27.3922 77.7805C27.3798 77.8358 27.3551 77.8877 27.3199 77.9321C27.2847 77.9765 27.2398 78.0124 27.1888 78.037C27.1378 78.0617 27.0818 78.0745 27.0251 78.0745C26.9684 78.0745 26.9125 78.0617 26.8614 78.037C26.8104 78.0124 26.7656 77.9765 26.7303 77.9321C26.6951 77.8877 26.6704 77.8358 26.658 77.7805C26.6456 77.7252 26.6459 77.6678 26.6588 77.6126C26.6782 77.53 26.7249 77.4563 26.7914 77.4036C26.8579 77.3508 26.9402 77.3221 27.0251 77.3221C27.11 77.3221 27.1924 77.3508 27.2589 77.4036C27.3254 77.4563 27.3721 77.53 27.3914 77.6126Z" fill="white"/>
<path fill-rule="evenodd" clip-rule="evenodd" d="M83.3448 75.494C83.3255 75.5767 83.2787 75.6503 83.2122 75.703C83.1457 75.7558 83.0633 75.7845 82.9785 75.7845C82.8936 75.7845 82.8113 75.7558 82.7448 75.703C82.6783 75.6503 82.6315 75.5767 82.6122 75.494C82.5993 75.4388 82.599 75.3814 82.6114 75.3261C82.6238 75.2708 82.6485 75.219 82.6837 75.1746C82.719 75.1301 82.7638 75.0942 82.8148 75.0696C82.8658 75.0449 82.9218 75.0321 82.9785 75.0321C83.0352 75.0321 83.0911 75.0449 83.1422 75.0696C83.1932 75.0942 83.238 75.1301 83.2733 75.1746C83.3085 75.219 83.3332 75.2708 83.3456 75.3261C83.358 75.3814 83.3577 75.4388 83.3448 75.494Z" fill="white"/>
<path fill-rule="evenodd" clip-rule="evenodd" d="M74.019 58.0507C74.019 58.1505 73.9794 58.2462 73.9088 58.3167C73.8383 58.3873 73.7426 58.4269 73.6428 58.4269C73.543 58.4269 73.4473 58.3873 73.3768 58.3167C73.3062 58.2462 73.2666 58.1505 73.2666 58.0507C73.3062 57.5755 74.0388 57.5755 74.019 58.0507Z" fill="white"/>
<path fill-rule="evenodd" clip-rule="evenodd" d="M54.8731 44.0328C54.886 44.088 54.8863 44.1454 54.8739 44.2007C54.8615 44.256 54.8368 44.3078 54.8015 44.3523C54.7663 44.3967 54.7215 44.4326 54.6705 44.4572C54.6194 44.4819 54.5635 44.4947 54.5068 44.4947C54.4501 44.4947 54.3942 44.4819 54.3431 44.4572C54.2921 44.4326 54.2473 44.3967 54.212 44.3523C54.1768 44.3078 54.1521 44.256 54.1397 44.2007C54.1273 44.1454 54.1276 44.088 54.1405 44.0328C54.1599 43.9501 54.2066 43.8765 54.2731 43.8238C54.3396 43.771 54.4219 43.7423 54.5068 43.7423C54.5917 43.7423 54.674 43.771 54.7405 43.8238C54.807 43.8765 54.8537 43.9501 54.8731 44.0328Z" fill="white"/>
<path fill-rule="evenodd" clip-rule="evenodd" d="M56.6152 58.8031C56.6152 58.9029 56.5755 58.9986 56.505 59.0691C56.4344 59.1397 56.3388 59.1793 56.239 59.1793C56.1392 59.1793 56.0435 59.1397 55.973 59.0691C55.9024 58.9986 55.8628 58.9029 55.8628 58.8031C55.8628 58.7034 55.9024 58.6077 55.973 58.5371C56.0435 58.4666 56.1392 58.4269 56.239 58.4269C56.3388 58.4269 56.4344 58.4666 56.505 58.5371C56.5755 58.6077 56.6152 58.7034 56.6152 58.8031Z" fill="white"/>
<path fill-rule="evenodd" clip-rule="evenodd" d="M24.4611 33.0836C24.4611 33.1834 24.4215 33.2791 24.3509 33.3496C24.2804 33.4202 24.1847 33.4598 24.0849 33.4598C23.9852 33.4598 23.8895 33.4202 23.8189 33.3496C23.7484 33.2791 23.7087 33.1834 23.7087 33.0836C23.7087 32.9839 23.7484 32.8882 23.8189 32.8176C23.8895 32.7471 23.9852 32.7075 24.0849 32.7075C24.1847 32.7075 24.2804 32.7471 24.3509 32.8176C24.4215 32.8882 24.4611 32.9839 24.4611 33.0836Z" fill="white"/>
<path fill-rule="evenodd" clip-rule="evenodd" d="M50.8933 39.7759C50.8672 39.9222 50.7903 40.0547 50.6763 40.1502C50.5623 40.2456 50.4184 40.2979 50.2697 40.2979C50.121 40.2979 49.977 40.2456 49.863 40.1502C49.749 40.0547 49.6722 39.9222 49.646 39.7759C49.6722 39.6295 49.749 39.497 49.863 39.4016C49.977 39.3061 50.121 39.2538 50.2697 39.2538C50.4184 39.2538 50.5623 39.3061 50.6763 39.4016C50.7903 39.497 50.8672 39.6295 50.8933 39.7759Z" fill="white"/>
<path fill-rule="evenodd" clip-rule="evenodd" d="M63.4065 64.941C63.3704 65.2121 63.237 65.4608 63.0313 65.641C62.8255 65.8211 62.5613 65.9204 62.2879 65.9204C62.0144 65.9204 61.7502 65.8211 61.5444 65.641C61.3387 65.4608 61.2053 65.2121 61.1692 64.941C61.2053 64.67 61.3387 64.4212 61.5444 64.2411C61.7502 64.0609 62.0144 63.9616 62.2879 63.9616C62.5613 63.9616 62.8255 64.0609 63.0313 64.2411C63.237 64.4212 63.3704 64.67 63.4065 64.941Z" fill="white"/>
<path fill-rule="evenodd" clip-rule="evenodd" d="M91.8186 52.5862C91.8186 52.77 91.7456 52.9462 91.6156 53.0762C91.4857 53.2061 91.3094 53.2792 91.1256 53.2792C90.9418 53.2792 90.7656 53.2061 90.6356 53.0762C90.5056 52.9462 90.4326 52.77 90.4326 52.5862C90.4326 52.4024 90.5056 52.2261 90.6356 52.0962C90.7656 51.9662 90.9418 51.8932 91.1256 51.8932C91.3094 51.8932 91.4857 51.9662 91.6156 52.0962C91.7456 52.2261 91.8186 52.4024 91.8186 52.5862Z" fill="white"/>
<path fill-rule="evenodd" clip-rule="evenodd" d="M47.8242 91.2149C47.7962 91.381 47.7103 91.5319 47.5816 91.6408C47.4529 91.7496 47.2898 91.8093 47.1213 91.8093C46.9528 91.8093 46.7898 91.7496 46.6611 91.6408C46.5324 91.5319 46.4464 91.381 46.4185 91.2149C46.4464 91.0487 46.5324 90.8978 46.6611 90.789C46.7898 90.6802 46.9528 90.6205 47.1213 90.6205C47.2898 90.6205 47.4529 90.6802 47.5816 90.789C47.7103 90.8978 47.7962 91.0487 47.8242 91.2149Z" fill="white"/>
<path fill-rule="evenodd" clip-rule="evenodd" d="M60.1397 20.1349C60.1117 20.3011 60.0257 20.4519 59.897 20.5607C59.7684 20.6696 59.6053 20.7293 59.4368 20.7293C59.2682 20.7293 59.1052 20.6696 58.9765 20.5607C58.8478 20.4519 58.7619 20.3011 58.7339 20.1349C58.7619 19.9687 58.8478 19.8178 58.9765 19.709C59.1052 19.6002 59.2682 19.5405 59.4368 19.5405C59.6053 19.5405 59.7684 19.6002 59.897 19.709C60.0257 19.8178 60.1117 19.9687 60.1397 20.1349Z" fill="white"/>
<path fill-rule="evenodd" clip-rule="evenodd" d="M38.6374 61.8722C38.6374 61.9719 38.5978 62.0676 38.5272 62.1382C38.4567 62.2087 38.361 62.2484 38.2612 62.2484C38.1614 62.2484 38.0657 62.2087 37.9952 62.1382C37.9246 62.0676 37.885 61.9719 37.885 61.8722C37.885 61.7724 37.9246 61.6767 37.9952 61.6062C38.0657 61.5356 38.1614 61.496 38.2612 61.496C38.361 61.496 38.4567 61.5356 38.5272 61.6062C38.5978 61.6767 38.6374 61.7724 38.6374 61.8722Z" fill="white"/>
<path fill-rule="evenodd" clip-rule="evenodd" d="M85.1859 42.3103C85.1859 42.7855 84.4137 42.7855 84.4335 42.3103C84.4335 42.2106 84.4731 42.1149 84.5437 42.0443C84.6142 41.9738 84.7099 41.9341 84.8097 41.9341C84.9094 41.9341 85.0051 41.9738 85.0757 42.0443C85.1462 42.1149 85.1859 42.2106 85.1859 42.3103Z" fill="white"/>
<path fill-rule="evenodd" clip-rule="evenodd" d="M66.1191 28.2923C66.1191 28.392 66.0794 28.4877 66.0089 28.5583C65.9383 28.6288 65.8426 28.6685 65.7429 28.6685C65.6431 28.6685 65.5474 28.6288 65.4769 28.5583C65.4063 28.4877 65.3667 28.392 65.3667 28.2923C65.3667 28.1925 65.4063 28.0968 65.4769 28.0263C65.5474 27.9557 65.6431 27.9161 65.7429 27.9161C65.8426 27.9161 65.9383 27.9557 66.0089 28.0263C66.0794 28.0968 66.1191 28.1925 66.1191 28.2923Z" fill="white"/>
<path fill-rule="evenodd" clip-rule="evenodd" d="M73.6429 77.6126C73.6558 77.6678 73.6561 77.7252 73.6437 77.7805C73.6313 77.8358 73.6066 77.8877 73.5714 77.9321C73.5361 77.9765 73.4913 78.0124 73.4403 78.037C73.3892 78.0617 73.3333 78.0745 73.2766 78.0745C73.2199 78.0745 73.1639 78.0617 73.1129 78.037C73.0618 78.0124 73.017 77.9765 72.9818 77.9321C72.9466 77.8877 72.9219 77.8358 72.9095 77.7805C72.8971 77.7252 72.8974 77.6678 72.9103 77.6126C72.9296 77.53 72.9763 77.4563 73.0428 77.4036C73.1093 77.3508 73.1917 77.3221 73.2766 77.3221C73.3614 77.3221 73.4438 77.3508 73.5103 77.4036C73.5768 77.4563 73.6235 77.53 73.6429 77.6126Z" fill="white"/>
<path fill-rule="evenodd" clip-rule="evenodd" d="M12.6606 54.5661C12.6606 55.0413 11.9082 55.0413 11.9082 54.5661C11.9082 54.4664 11.9478 54.3707 12.0184 54.3001C12.0889 54.2296 12.1846 54.1899 12.2844 54.1899C12.3842 54.1899 12.4799 54.2296 12.5504 54.3001C12.621 54.3707 12.6606 54.4664 12.6606 54.5661Z" fill="white"/>
<path fill-rule="evenodd" clip-rule="evenodd" d="M35.6873 17.3431C35.668 17.4258 35.6213 17.4994 35.5548 17.5522C35.4883 17.6049 35.4059 17.6336 35.321 17.6336C35.2361 17.6336 35.1538 17.6049 35.0873 17.5522C35.0208 17.4994 34.9741 17.4258 34.9547 17.3431C34.9418 17.2879 34.9415 17.2305 34.9539 17.1752C34.9663 17.1199 34.991 17.0681 35.0262 17.0237C35.0615 16.9793 35.1063 16.9434 35.1573 16.9187C35.2084 16.894 35.2643 16.8812 35.321 16.8812C35.3777 16.8812 35.4337 16.894 35.4847 16.9187C35.5357 16.9434 35.5805 16.9793 35.6158 17.0237C35.651 17.0681 35.6757 17.1199 35.6881 17.1752C35.7005 17.2305 35.7002 17.2879 35.6873 17.3431Z" fill="white"/>
<path fill-rule="evenodd" clip-rule="evenodd" d="M62.6343 42.3102C62.615 42.3929 62.5682 42.4665 62.5017 42.5193C62.4353 42.572 62.3529 42.6007 62.268 42.6007C62.1832 42.6007 62.1008 42.572 62.0343 42.5193C61.9678 42.4665 61.9211 42.3929 61.9017 42.3102C61.8888 42.255 61.8885 42.1976 61.9009 42.1423C61.9133 42.087 61.938 42.0352 61.9733 41.9908C62.0085 41.9464 62.0533 41.9105 62.1043 41.8858C62.1554 41.8611 62.2113 41.8483 62.268 41.8483C62.3247 41.8483 62.3807 41.8611 62.4317 41.8858C62.4828 41.9105 62.5276 41.9464 62.5628 41.9908C62.598 42.0352 62.6227 42.087 62.6351 42.1423C62.6475 42.1976 62.6472 42.255 62.6343 42.3102Z" fill="white"/>
<path fill-rule="evenodd" clip-rule="evenodd" d="M62.2777 93.0759C62.2777 93.1757 62.2381 93.2714 62.1676 93.3419C62.097 93.4125 62.0014 93.4521 61.9016 93.4521C61.8018 93.4521 61.7061 93.4125 61.6356 93.3419C61.565 93.2714 61.5254 93.1757 61.5254 93.0759C61.5254 92.9761 61.565 92.8804 61.6356 92.8099C61.7061 92.7393 61.8018 92.6997 61.9016 92.6997C62.0014 92.6997 62.097 92.7393 62.1676 92.8099C62.2381 92.8804 62.2777 92.9761 62.2777 93.0759Z" fill="white"/>
<g style="mix-blend-mode:soft-light">
<path fill-rule="evenodd" clip-rule="evenodd" d="M69.1678 54.8235C69.0646 54.7164 69.0024 54.5764 68.992 54.428C68.9817 54.2796 69.0239 54.1323 69.1112 54.0118C69.1986 53.8914 69.3256 53.8056 69.4698 53.7694C69.6141 53.7332 69.7665 53.7489 69.9004 53.8137C70.0036 53.9209 70.0659 54.0609 70.0762 54.2093C70.0866 54.3577 70.0444 54.505 69.957 54.6254C69.8697 54.7459 69.7427 54.8317 69.5984 54.8679C69.4541 54.9041 69.3017 54.8884 69.1678 54.8235Z" fill="#90FFFF"/>
<path fill-rule="evenodd" clip-rule="evenodd" d="M41.4686 50.1311C41.2641 49.9448 41.1352 49.6899 41.1063 49.4149C41.0774 49.1398 41.1504 48.8637 41.3116 48.639C41.4729 48.4143 41.711 48.2566 41.9808 48.1958C42.2506 48.1351 42.5334 48.1755 42.7753 48.3095C43.9633 49.1609 42.6169 51.0022 41.4686 50.1311Z" fill="#90FFFF"/>
<path fill-rule="evenodd" clip-rule="evenodd" d="M34.816 80.4441C34.0637 79.9293 34.9151 78.7809 35.6278 79.3155C35.7775 79.4231 35.8782 79.5858 35.908 79.7678C35.9377 79.9497 35.8939 80.136 35.7862 80.2857C35.6786 80.4353 35.5159 80.5361 35.3339 80.5658C35.152 80.5955 34.9657 80.5517 34.816 80.4441Z" fill="#90FFFF"/>
<path fill-rule="evenodd" clip-rule="evenodd" d="M29.3713 22.0951C29.2217 21.9848 29.1219 21.8196 29.0941 21.6358C29.0662 21.452 29.1126 21.2647 29.2228 21.115C29.3331 20.9654 29.4983 20.8657 29.6821 20.8378C29.8659 20.81 30.0532 20.8563 30.2029 20.9665C30.9355 21.4813 30.1039 22.6297 29.3713 22.0951Z" fill="#90FFFF"/>
<path fill-rule="evenodd" clip-rule="evenodd" d="M85.4826 72.4846C85.333 72.3744 85.2333 72.2092 85.2054 72.0254C85.1776 71.8416 85.2239 71.6542 85.3342 71.5046C85.4444 71.3549 85.6096 71.2552 85.7934 71.2273C85.9772 71.1995 86.1646 71.2458 86.3142 71.3561C87.0468 71.8709 86.2152 73.0192 85.4826 72.4846Z" fill="#90FFFF"/>
<path fill-rule="evenodd" clip-rule="evenodd" d="M58.5159 31.9156C58.4345 31.8579 58.3794 31.7701 58.3627 31.6717C58.346 31.5733 58.3691 31.4723 58.4268 31.3909C58.4846 31.3095 58.5723 31.2544 58.6707 31.2377C58.7691 31.221 58.8701 31.2441 58.9515 31.3018C59.4465 31.5988 58.8921 32.2126 58.5159 31.9156Z" fill="#90FFFF"/>
<path fill-rule="evenodd" clip-rule="evenodd" d="M46.9133 81.1172C46.5173 80.84 46.9133 80.2263 47.3489 80.5233C47.4067 80.5875 47.4407 80.6697 47.445 80.7561C47.4493 80.8424 47.4237 80.9276 47.3726 80.9974C47.3215 81.0671 47.2479 81.1171 47.1643 81.1389C47.0806 81.1607 46.992 81.1531 46.9133 81.1172Z" fill="#90FFFF"/>
<path fill-rule="evenodd" clip-rule="evenodd" d="M69.5046 73.8903C69.1086 73.6132 69.5046 72.9994 69.96 73.2964C70.4154 73.5934 69.9006 74.1873 69.5046 73.8903Z" fill="#90FFFF"/>
<path fill-rule="evenodd" clip-rule="evenodd" d="M25.1737 50.9825C25.0924 50.9221 25.0383 50.8318 25.0234 50.7316C25.0086 50.6313 25.0341 50.5293 25.0945 50.4479C25.1549 50.3665 25.2452 50.3124 25.3454 50.2976C25.4457 50.2827 25.5477 50.3083 25.6291 50.3687C26.0251 50.6063 25.5697 51.2597 25.1737 50.9825Z" fill="#90FFFF"/>
<path fill-rule="evenodd" clip-rule="evenodd" d="M79.6616 15.1851C79.2656 14.9079 79.6616 14.2942 80.0971 14.5714C80.5327 14.8485 80.0378 15.4623 79.6616 15.1851Z" fill="#90FFFF"/>
<path fill-rule="evenodd" clip-rule="evenodd" d="M96.2536 55.7146C95.8576 55.4374 96.2536 54.8236 96.6892 55.1206C96.747 55.1849 96.781 55.2671 96.7853 55.3534C96.7896 55.4398 96.7641 55.525 96.713 55.5947C96.6618 55.6644 96.5882 55.7144 96.5046 55.7363C96.4209 55.7581 96.3323 55.7504 96.2536 55.7146Z" fill="#90FFFF"/>
<path fill-rule="evenodd" clip-rule="evenodd" d="M60.2186 62.8423C60.1783 62.8137 60.144 62.7775 60.1177 62.7356C60.0914 62.6938 60.0737 62.6472 60.0654 62.5984C60.0571 62.5497 60.0585 62.4999 60.0695 62.4517C60.0805 62.4035 60.1009 62.3579 60.1295 62.3176C60.1581 62.2773 60.1943 62.2431 60.2362 62.2168C60.278 62.1905 60.3247 62.1727 60.3734 62.1644C60.4221 62.1562 60.472 62.1576 60.5202 62.1686C60.5683 62.1796 60.6139 62.1999 60.6542 62.2285C61.0502 62.4859 60.5948 63.1195 60.2186 62.8423Z" fill="#90FFFF"/>
<path fill-rule="evenodd" clip-rule="evenodd" d="M19.3724 32.6679C19.3146 32.6037 19.2807 32.5215 19.2763 32.4351C19.272 32.3488 19.2976 32.2636 19.3487 32.1938C19.3998 32.1241 19.4734 32.0741 19.5571 32.0523C19.6407 32.0305 19.7293 32.0381 19.808 32.074C20.204 32.3511 19.8476 32.9649 19.3724 32.6679Z" fill="#90FFFF"/>
</g>
<path style="mix-blend-mode:screen" fill-rule="evenodd" clip-rule="evenodd" d="M58.7339 53.2C68.8712 53.4574 75.3654 30.3119 86.5917 27.1638C88.7751 26.4609 90.7184 25.1614 92.2019 23.4119C93.6855 21.6625 94.65 19.533 94.9866 17.264L98.9465 22.1545C66.0795 33.658 78.4145 54.7443 104.748 32.668L105.381 34.2321C100.613 37.2237 95.6377 39.8703 90.4922 42.1519C82.0576 46.0128 74.6526 41.4985 67.7426 49.0619C63.5452 53.299 60.9514 57.5163 58.7339 53.2Z" fill="url(#paint20_linear_10_2590)"/>
<path style="mix-blend-mode:screen" fill-rule="evenodd" clip-rule="evenodd" d="M58.4172 54.3087C58.4172 54.3087 68.6535 62.3473 73.2667 63.8322C80.2559 66.0696 77.781 71.2372 79.5036 76.4049C81.2261 81.5725 90.6308 80.0282 92.6702 82.1863C94.7095 84.3445 99.9762 83.3941 99.9762 83.3941L98.6298 85.374C98.6298 85.374 94.3135 86.2848 92.69 83.8297C80.4143 78.464 80.0183 85.9878 76.6128 69.5939C74.9299 67.4555 71.267 77.0385 71.267 82.7011C71.267 88.3638 84.295 89.6903 86.8096 97.3923L85.285 98.4812C85.285 98.4812 83.899 92.9374 75.1081 88.5815C60.5753 74.9001 90.9476 65.238 56.259 58.427L58.4172 54.3087Z" fill="url(#paint21_linear_10_2590)"/>
<path style="mix-blend-mode:screen" fill-rule="evenodd" clip-rule="evenodd" d="M54.5311 52.0362C58.1755 39.4329 41.3642 19.2599 53.14 4.21795C53.3204 2.82355 53.2001 1.40687 52.7873 0.0623779L58.6654 0.237958C53.8845 5.52509 45.3221 17.4455 51.5137 29.1123C55.4324 38.5355 58.2539 43.0227 63.2699 41.3059C80.3359 36.7601 72.6748 13.9923 74.3207 3.86676L77.8279 5.38852C72.714 8.74419 77.6124 26.0688 75.4571 31.2779C74.3795 37.3844 56.9999 44.642 57.9796 50.7876L54.5311 52.0362Z" fill="url(#paint22_linear_10_2590)"/>
<path style="mix-blend-mode:screen" fill-rule="evenodd" clip-rule="evenodd" d="M20.2438 11.2648C20.0246 14.7749 20.8888 18.2677 22.7196 21.2707C24.5504 24.2736 27.2594 26.6417 30.4801 28.0547C42.0826 33.7173 51.5072 51.0418 51.5072 51.0418L50.8933 53.6949C42.736 24.9066 18.6995 45.3792 3.59253 35.4597L3.84992 33.4797C3.84992 33.4797 8.44337 39.6175 19.2143 37.7564C29.9851 35.8952 38.2217 37.4792 38.6375 35.9547C38.8751 33.9747 14.2842 20.6695 16.5611 14.5317L20.2438 11.2648Z" fill="url(#paint23_linear_10_2590)"/>
<path style="mix-blend-mode:screen" fill-rule="evenodd" clip-rule="evenodd" d="M52.7543 55.1601C52.3979 62.4463 9.86878 64.248 3.92896 73.9696L4.97832 76.3851C8.54222 69.2177 31.5294 60.2089 36.3604 75.8703C39.5679 85.3146 24.9164 92.6404 22.7384 97.8873L24.461 99.0554C24.461 99.0554 30.6186 90.7991 36.3406 84.2059C44.6168 67.0595 23.3918 65.1984 51.4872 60.4465C52.3775 59.9819 53.1266 59.2865 53.656 58.4331C54.1854 57.5797 54.4758 56.5997 54.4967 55.5957L52.7543 55.1601Z" fill="url(#paint24_linear_10_2590)"/>
<path style="mix-blend-mode:screen" fill-rule="evenodd" clip-rule="evenodd" d="M50.8931 103.154C63.0895 88.5815 48.1608 70.2671 55.8627 55.1601C48.2004 71.5738 66.0198 88.4429 54.853 103.154H50.8931Z" fill="url(#paint25_linear_10_2590)"/>
<path style="mix-blend-mode:screen" opacity="0.8" fill-rule="evenodd" clip-rule="evenodd" d="M3.59253 51.0418C4.30531 61.3771 29.1734 47.9333 48.6164 37.6574C70.1582 26.2925 92.0762 25.2629 94.6699 21.1842C75.4248 -15.0487 1.63238 2.41439 3.59253 51.0418Z" fill="url(#paint26_linear_10_2590)"/>
<path style="mix-blend-mode:screen" opacity="0.83" fill-rule="evenodd" clip-rule="evenodd" d="M74.0188 96.5409C94.0954 94.561 106.292 57.2391 105.005 46.0326C110.945 54.9621 96.0555 95.1154 82.0178 97.8873L74.0188 96.5409Z" fill="url(#paint27_linear_10_2590)"/>
<path fill-rule="evenodd" clip-rule="evenodd" d="M17.8677 17.3828C17.8677 17.3828 23.8075 19.8577 26.619 21.2437C26.619 21.2437 34.4002 13.8189 36.8751 11.6805C34.7555 10.1611 32.2935 9.18857 29.7077 8.84924C25.3749 11.1156 21.388 13.9892 17.8677 17.3828Z" fill="white"/>
<path fill-rule="evenodd" clip-rule="evenodd" d="M16.5214 18.4124C16.5214 18.4124 20.4813 20.3923 24.758 23.0059L21.4515 26.352C18.3066 25.8675 15.1978 25.1729 12.1458 24.273C13.4324 22.1968 14.8965 20.236 16.5214 18.4124Z" fill="white"/>
<path style="mix-blend-mode:screen" opacity="0.78" fill-rule="evenodd" clip-rule="evenodd" d="M28.3416 99.4514C28.3416 99.4514 38.9144 87.5717 42.2012 83.2555C50.188 83.7828 58.2061 83.5907 66.1585 82.6813L80.0181 101.134C80.0181 101.134 49.7843 113.469 28.3416 99.4514Z" fill="url(#paint28_linear_10_2590)"/>
<path style="mix-blend-mode:screen" opacity="0.83" fill-rule="evenodd" clip-rule="evenodd" d="M4.68164 65.9706C4.68164 65.9706 4.68164 84.2059 24.7583 97.8873C24.7583 97.8873 7.69115 77.9888 4.68164 65.9706Z" fill="url(#paint29_linear_10_2590)"/>
<path style="mix-blend-mode:screen" fill-rule="evenodd" clip-rule="evenodd" d="M100.788 29.9555C103.282 37.8753 95.1646 40.271 92.8678 32.4106C90.5711 24.5502 98.4513 22.0951 100.788 29.9555Z" fill="url(#paint30_radial_10_2590)"/>
<path style="mix-blend-mode:screen" fill-rule="evenodd" clip-rule="evenodd" d="M98.7883 30.5691C100.016 34.529 95.9966 35.6774 94.8284 31.7967C93.6602 27.916 97.6201 26.6884 98.7883 30.5691Z" fill="url(#paint31_radial_10_2590)"/>
<path d="M64.337 7.44351C62.0403 12.6112 65.5646 15.8187 70.7323 14.9871C72.1776 10.2352 70.5541 3.10746 64.337 6.75055V7.44351Z" fill="white"/>
<path d="M4.10708 53.0415C4.02908 53.5931 4.02908 54.153 4.10708 54.7046C4.98499 54.9296 5.91611 54.8017 6.7008 54.3482C6.79055 53.6508 6.69295 52.942 6.41805 52.2948C6.14315 51.6476 5.70087 51.0852 5.13665 50.6655C4.42387 51.2793 4.62187 52.2495 4.10708 53.0415Z" fill="white"/>
<path d="M73.8013 6.55246C72.059 9.95796 77.4246 8.43341 73.9597 6.37427L73.8013 6.55246Z" fill="white"/>
<path d="M13.1555 56.7242C12.8585 57.3182 12.5021 56.348 12.6407 56.0312C12.7595 54.5265 15.5116 55.8926 15.67 56.9816C15.4522 59.1001 12.7199 58.8625 13.1555 56.3876V56.7242Z" fill="white"/>
<path d="M71.0094 35.2814H70.851C71.2866 34.232 72.831 35.9744 72.3162 36.6674C71.445 37.4791 70.4947 35.9942 70.6729 35.1428L71.0094 35.2814Z" fill="white"/>
<path d="M101.243 38.7266C100.61 39.3998 99.501 41.1025 100.154 42.0133C101.877 42.8053 105.144 43.9932 105.5 41.1421C108.114 36.0141 103.778 34.9647 100.729 38.3702L101.243 38.7266Z" fill="white"/>
<path d="M106.965 41.934H106.807C106.807 41.5974 107.163 41.34 107.342 41.1223C109.737 43.1022 108.233 44.8049 106.451 41.9538L106.965 41.934Z" fill="white"/>
<path d="M4.22597 65.0598C2.38463 63.9709 5.86932 62.5849 6.7603 63.4957C8.74024 65.9904 4.89915 68.7029 4.22597 65.0598Z" fill="white"/>
<path d="M100.412 47.9333C100.669 46.3494 103.778 45.4584 105.223 45.5772C107.084 46.4682 109.401 50.824 107.955 52.5664C104.55 58.5062 98.0556 52.5664 100.214 47.9729L100.412 47.9333Z" fill="white"/>
<path d="M101.896 31.5593C101.845 31.565 101.792 31.5548 101.746 31.5301C101.7 31.5053 101.663 31.4672 101.639 31.4207C100.53 32.4898 103.203 33.2818 103.876 32.8264C104.193 31.7573 102.688 30.1931 101.639 31.0445L101.896 31.5593Z" fill="white"/>
<defs>
<radialGradient id="paint0_radial_10_2590" cx="0" cy="0" r="1" gradientUnits="userSpaceOnUse" gradientTransform="translate(34.0044 35.8161) scale(82.4646 82.4646)">
<stop stop-color="#8600B1"/>
<stop offset="0.89" stop-color="#70C7FF"/>
<stop offset="1" stop-color="#91A1FF"/>
</radialGradient>
<linearGradient id="paint1_linear_10_2590" x1="3.5728" y1="41.34" x2="95.7589" y2="41.34" gradientUnits="userSpaceOnUse">
<stop stop-color="#770064"/>
<stop offset="1" stop-color="#BA74AE"/>
</linearGradient>
<radialGradient id="paint2_radial_10_2590" cx="0" cy="0" r="1" gradientUnits="userSpaceOnUse" gradientTransform="translate(54.4176 53.6157) scale(13.7804 13.7804)">
<stop stop-color="#0043A6"/>
<stop offset="0.12" stop-color="#003F9C"/>
<stop offset="0.32" stop-color="#003481"/>
<stop offset="0.58" stop-color="#002255"/>
<stop offset="0.89" stop-color="#000A18"/>
<stop offset="1"/>
</radialGradient>
<radialGradient id="paint3_radial_10_2590" cx="0" cy="0" r="1" gradientUnits="userSpaceOnUse" gradientTransform="translate(54.4177 53.6157) scale(7.74156 7.74158)">
<stop offset="0.77" stop-color="#0043A6"/>
<stop offset="0.79" stop-color="#003F9C"/>
<stop offset="0.84" stop-color="#003481"/>
<stop offset="0.9" stop-color="#002255"/>
<stop offset="0.97" stop-color="#000A18"/>
<stop offset="1"/>
</radialGradient>
<radialGradient id="paint4_radial_10_2590" cx="0" cy="0" r="1" gradientUnits="userSpaceOnUse" gradientTransform="translate(52.2991 51.7942) scale(8.51375 8.51375)">
<stop stop-color="#73C4FF"/>
<stop offset="1" stop-color="white"/>
</radialGradient>
<radialGradient id="paint5_radial_10_2590" cx="0" cy="0" r="1" gradientUnits="userSpaceOnUse" gradientTransform="translate(52.4178 51.8733) scale(8.07818 8.07817)">
<stop stop-color="#73C4FF"/>
<stop offset="1" stop-color="#91FFFF"/>
</radialGradient>
<radialGradient id="paint6_radial_10_2590" cx="0" cy="0" r="1" gradientUnits="userSpaceOnUse" gradientTransform="translate(67.5458 64.8802) scale(7.6216 7.42102)">
<stop stop-color="#511F00"/>
<stop offset="0.27" stop-color="#311300"/>
<stop offset="0.55" stop-color="#160800"/>
<stop offset="0.81" stop-color="#060200"/>
<stop offset="1"/>
</radialGradient>
<radialGradient id="paint7_radial_10_2590" cx="0" cy="0" r="1" gradientUnits="userSpaceOnUse" gradientTransform="translate(67.5458 64.8803) scale(3.77694 3.67755)">
<stop stop-color="#511F00"/>
<stop offset="0.62" stop-color="#1C0B00"/>
<stop offset="1"/>
</radialGradient>
<radialGradient id="paint8_radial_10_2590" cx="0" cy="0" r="1" gradientUnits="userSpaceOnUse" gradientTransform="translate(55.6054 39.7527) scale(7.62158 7.42102)">
<stop stop-color="#511F00"/>
<stop offset="0.27" stop-color="#311300"/>
<stop offset="0.55" stop-color="#160800"/>
<stop offset="0.81" stop-color="#060200"/>
<stop offset="1"/>
</radialGradient>
<radialGradient id="paint9_radial_10_2590" cx="0" cy="0" r="1" gradientUnits="userSpaceOnUse" gradientTransform="translate(55.6057 39.7528) scale(3.77694 3.67755)">
<stop stop-color="#511F00"/>
<stop offset="0.62" stop-color="#1C0B00"/>
<stop offset="1"/>
</radialGradient>
<radialGradient id="paint10_radial_10_2590" cx="0" cy="0" r="1" gradientUnits="userSpaceOnUse" gradientTransform="translate(29.566 32.7053) scale(3.77694 3.67755)">
<stop stop-color="#511F00"/>
<stop offset="0.27" stop-color="#311300"/>
<stop offset="0.55" stop-color="#160800"/>
<stop offset="0.81" stop-color="#060200"/>
<stop offset="1"/>
</radialGradient>
<radialGradient id="paint11_radial_10_2590" cx="0" cy="0" r="1" gradientUnits="userSpaceOnUse" gradientTransform="translate(29.5658 32.7053) scale(1.87343 1.82412)">
<stop stop-color="#511F00"/>
<stop offset="0.62" stop-color="#1C0B00"/>
<stop offset="1"/>
</radialGradient>
<radialGradient id="paint12_radial_10_2590" cx="0" cy="0" r="1" gradientUnits="userSpaceOnUse" gradientTransform="translate(43.6654 62.177) scale(3.77694 3.67755)">
<stop stop-color="#511F00"/>
<stop offset="0.27" stop-color="#311300"/>
<stop offset="0.55" stop-color="#160800"/>
<stop offset="0.81" stop-color="#060200"/>
<stop offset="1"/>
</radialGradient>
<radialGradient id="paint13_radial_10_2590" cx="0" cy="0" r="1" gradientUnits="userSpaceOnUse" gradientTransform="translate(43.6656 62.177) scale(1.87342 1.82412)">
<stop stop-color="#511F00"/>
<stop offset="0.62" stop-color="#1C0B00"/>
<stop offset="1"/>
</radialGradient>
<radialGradient id="paint14_radial_10_2590" cx="0" cy="0" r="1" gradientUnits="userSpaceOnUse" gradientTransform="translate(90.0418 42.2801) scale(3.77694 3.67755)">
<stop stop-color="#511F00"/>
<stop offset="0.27" stop-color="#311300"/>
<stop offset="0.55" stop-color="#160800"/>
<stop offset="0.81" stop-color="#060200"/>
<stop offset="1"/>
</radialGradient>
<radialGradient id="paint15_radial_10_2590" cx="0" cy="0" r="1" gradientUnits="userSpaceOnUse" gradientTransform="translate(90.042 42.2801) scale(1.87341 1.82411)">
<stop stop-color="#511F00"/>
<stop offset="0.62" stop-color="#1C0B00"/>
<stop offset="1"/>
</radialGradient>
<radialGradient id="paint16_radial_10_2590" cx="0" cy="0" r="1" gradientUnits="userSpaceOnUse" gradientTransform="translate(96.949 52.4484) scale(3.77694 3.67755)">
<stop stop-color="#511F00"/>
<stop offset="0.27" stop-color="#311300"/>
<stop offset="0.55" stop-color="#160800"/>
<stop offset="0.81" stop-color="#060200"/>
<stop offset="1"/>
</radialGradient>
<radialGradient id="paint17_radial_10_2590" cx="0" cy="0" r="1" gradientUnits="userSpaceOnUse" gradientTransform="translate(96.9485 52.4483) scale(1.87343 1.82411)">
<stop stop-color="#511F00"/>
<stop offset="0.62" stop-color="#1C0B00"/>
<stop offset="1"/>
</radialGradient>
<radialGradient id="paint18_radial_10_2590" cx="0" cy="0" r="1" gradientUnits="userSpaceOnUse" gradientTransform="translate(53.5967 90.7183) scale(3.19008 3.10613)">
<stop stop-color="#511F00"/>
<stop offset="0.27" stop-color="#311300"/>
<stop offset="0.55" stop-color="#160800"/>
<stop offset="0.81" stop-color="#060200"/>
<stop offset="1"/>
</radialGradient>
<radialGradient id="paint19_radial_10_2590" cx="0" cy="0" r="1" gradientUnits="userSpaceOnUse" gradientTransform="translate(53.5968 90.7183) scale(1.58 1.53843)">
<stop stop-color="#511F00"/>
<stop offset="0.62" stop-color="#1C0B00"/>
<stop offset="1"/>
</radialGradient>
<linearGradient id="paint20_linear_10_2590" x1="58.7339" y1="36.1725" x2="105.322" y2="36.1725" gradientUnits="userSpaceOnUse">
<stop/>
<stop offset="0.11" stop-color="#000A18"/>
<stop offset="0.42" stop-color="#002255"/>
<stop offset="0.68" stop-color="#003481"/>
<stop offset="0.88" stop-color="#003F9C"/>
<stop offset="1" stop-color="#0043A6"/>
</linearGradient>
<linearGradient id="paint21_linear_10_2590" x1="56.2392" y1="76.3851" x2="99.9762" y2="76.3851" gradientUnits="userSpaceOnUse">
<stop/>
<stop offset="0.11" stop-color="#000A18"/>
<stop offset="0.42" stop-color="#002255"/>
<stop offset="0.68" stop-color="#003481"/>
<stop offset="0.88" stop-color="#003F9C"/>
<stop offset="1" stop-color="#0043A6"/>
</linearGradient>
<linearGradient id="paint22_linear_10_2590" x1="63.3874" y1="52.0362" x2="63.3874" y2="0.0623779" gradientUnits="userSpaceOnUse">
<stop/>
<stop offset="0.11" stop-color="#000A18"/>
<stop offset="0.42" stop-color="#002255"/>
<stop offset="0.68" stop-color="#003481"/>
<stop offset="0.88" stop-color="#003F9C"/>
<stop offset="1" stop-color="#0043A6"/>
</linearGradient>
<linearGradient id="paint23_linear_10_2590" x1="3.59253" y1="32.4699" x2="51.5072" y2="32.4699" gradientUnits="userSpaceOnUse">
<stop stop-color="#0043A6"/>
<stop offset="0.12" stop-color="#003F9C"/>
<stop offset="0.32" stop-color="#003481"/>
<stop offset="0.58" stop-color="#002255"/>
<stop offset="0.89" stop-color="#000A18"/>
<stop offset="1"/>
</linearGradient>
<linearGradient id="paint24_linear_10_2590" x1="29.2128" y1="99.0554" x2="29.2128" y2="55.1601" gradientUnits="userSpaceOnUse">
<stop stop-color="#0043A6"/>
<stop offset="0.12" stop-color="#003F9C"/>
<stop offset="0.32" stop-color="#003481"/>
<stop offset="0.58" stop-color="#002255"/>
<stop offset="0.89" stop-color="#000A18"/>
<stop offset="1"/>
</linearGradient>
<linearGradient id="paint25_linear_10_2590" x1="54.7738" y1="103.154" x2="54.7738" y2="55.1601" gradientUnits="userSpaceOnUse">
<stop/>
<stop offset="0.11" stop-color="#000A18"/>
<stop offset="0.42" stop-color="#002255"/>
<stop offset="0.68" stop-color="#003481"/>
<stop offset="0.88" stop-color="#003F9C"/>
<stop offset="1" stop-color="#0043A6"/>
</linearGradient>
<linearGradient id="paint26_linear_10_2590" x1="3.55293" y1="28.312" x2="94.6699" y2="28.312" gradientUnits="userSpaceOnUse">
<stop stop-color="#6D5277"/>
<stop offset="1"/>
</linearGradient>
<linearGradient id="paint27_linear_10_2590" x1="90.1949" y1="97.8873" x2="90.1949" y2="46.0326" gradientUnits="userSpaceOnUse">
<stop/>
<stop offset="0.99" stop-color="#9ACEEA"/>
</linearGradient>
<linearGradient id="paint28_linear_10_2590" x1="54.1204" y1="106.144" x2="54.1204" y2="82.6813" gradientUnits="userSpaceOnUse">
<stop stop-color="#F2D8D6"/>
<stop offset="1"/>
</linearGradient>
<linearGradient id="paint29_linear_10_2590" x1="4.68164" y1="81.9289" x2="24.7583" y2="81.9289" gradientUnits="userSpaceOnUse">
<stop offset="0.01" stop-color="#9ACEEA"/>
<stop offset="1"/>
</linearGradient>
<radialGradient id="paint30_radial_10_2590" cx="0" cy="0" r="1" gradientUnits="userSpaceOnUse" gradientTransform="translate(108.801 27.1962) rotate(-16.9275) scale(4.04133 6.16687)">
<stop stop-color="#BDF6DD"/>
<stop offset="0.14" stop-color="#94C1AE"/>
<stop offset="0.31" stop-color="#688779"/>
<stop offset="0.48" stop-color="#43574E"/>
<stop offset="0.63" stop-color="#26312C"/>
<stop offset="0.78" stop-color="#111614"/>
<stop offset="0.9" stop-color="#040605"/>
<stop offset="1"/>
</radialGradient>
<radialGradient id="paint31_radial_10_2590" cx="0" cy="0" r="1" gradientUnits="userSpaceOnUse" gradientTransform="translate(108.802 27.1961) rotate(-16.9275) scale(2.004 3.05801)">
<stop stop-color="#51FBFF"/>
<stop offset="0.15" stop-color="#43D1D4"/>
<stop offset="0.57" stop-color="#206263"/>
<stop offset="0.87" stop-color="#091B1C"/>
<stop offset="1"/>
</radialGradient>
</defs>
</svg>
