<svg width="104" height="121" viewBox="0 0 104 121" fill="none" xmlns="http://www.w3.org/2000/svg">
<path d="M72.529 89.7203H14.7459C12.8962 89.7203 11.3968 91.2198 11.3968 93.0694V96.746C11.3968 98.5957 12.8962 100.095 14.7459 100.095H72.529C74.3787 100.095 75.8782 98.5957 75.8782 96.746V93.0694C75.8782 91.2198 74.3787 89.7203 72.529 89.7203Z" stroke="#6C2C19" stroke-width="1.2" stroke-linecap="round" stroke-linejoin="round"/>
<path d="M15.7732 100.14L7.80975 119.758" stroke="#6C2C19" stroke-width="1.2" stroke-linecap="round" stroke-linejoin="round"/>
<path d="M71.5022 100.14L79.4656 119.758" stroke="#6C2C19" stroke-width="1.2" stroke-linecap="round" stroke-linejoin="round"/>
<path d="M2.01947 120.398H85.2707" stroke="#6C2C19" stroke-width="1.2" stroke-linecap="round" stroke-linejoin="round"/>
<path d="M43.7488 89.8589C67.2435 89.8015 86.2432 70.7154 86.1858 47.2289C86.1284 23.7424 67.0357 4.74941 43.541 4.80682C20.0463 4.86423 1.04658 23.9503 1.10397 47.4368C1.16136 70.9233 20.2541 89.9163 43.7488 89.8589Z" stroke="#6C2C19" stroke-width="1.2" stroke-linecap="round" stroke-linejoin="round"/>
<path d="M16.5024 34.2443C18.9683 29.144 22.8222 24.8424 27.6219 21.833C32.4216 18.8237 37.9725 17.2286 43.6375 17.2308" stroke="#6C2C19" stroke-width="1.2" stroke-linecap="round" stroke-linejoin="round"/>
<path d="M13.5106 47.343C13.5088 44.7759 13.839 42.2192 14.493 39.7368" stroke="#6C2C19" stroke-width="1.2" stroke-linecap="round" stroke-linejoin="round"/>
<path d="M74.9852 0.29187L77.7984 17.0672L94.5588 19.8655L77.7984 22.6788L74.9852 39.454L72.172 22.6788L55.3967 19.8655L72.172 17.0672L74.9852 0.29187Z" fill="#6C2C19"/>
<path d="M63.1814 31.9818L64.3871 39.0968L71.5021 40.2876L64.3871 41.4933L63.1814 48.6082L61.9906 41.4933L54.8608 40.2876L61.9906 39.0968L63.1814 31.9818Z" fill="#6C2C19"/>
<path d="M91.0311 36.9683L92.7727 47.2984L103.103 49.0399L92.7727 50.7666L91.0311 61.0967L89.3045 50.7666L78.9595 49.0399L89.3045 47.2984L91.0311 36.9683Z" fill="#6C2C19"/>
<path d="M21.6909 107.459L18.2071 110.943L21.6909 114.427L25.1748 110.943L21.6909 107.459Z" fill="#6C2C19"/>
<path d="M36.3241 107.458L32.8402 110.942L36.3241 114.425L39.8079 110.942L36.3241 107.458Z" fill="#6C2C19"/>
<path d="M50.9679 107.446L47.4841 110.93L50.9679 114.414L54.4518 110.93L50.9679 107.446Z" fill="#6C2C19"/>
<path d="M65.6175 107.507L62.1331 110.99L65.6163 114.475L69.1007 110.992L65.6175 107.507Z" fill="#6C2C19"/>
</svg>
