<svg width="122" height="122" viewBox="0 0 122 122" fill="none" xmlns="http://www.w3.org/2000/svg">
<path d="M74.939 32.1001L61 1L47.0469 32.1001" stroke="#6C2C19" stroke-width="1.2" stroke-linecap="round" stroke-linejoin="round"/>
<path d="M61.0001 2.5614V29.0341" stroke="#6C2C19" stroke-width="1.2" stroke-linecap="round" stroke-linejoin="round"/>
<path d="M47.0469 89.8999L61 121L74.939 89.8999" stroke="#6C2C19" stroke-width="1.2" stroke-linecap="round" stroke-linejoin="round"/>
<path d="M61.0001 119.439V93.0511" stroke="#6C2C19" stroke-width="1.2" stroke-linecap="round" stroke-linejoin="round"/>
<path d="M32.0859 47.0469L1 61L32.0859 74.9532" stroke="#6C2C19" stroke-width="1.2" stroke-linecap="round" stroke-linejoin="round"/>
<path d="M2.56152 61H29.02" stroke="#6C2C19" stroke-width="1.2" stroke-linecap="round" stroke-linejoin="round"/>
<path d="M89.8998 74.9532L120.986 61L89.8998 47.0469" stroke="#6C2C19" stroke-width="1.2" stroke-linecap="round" stroke-linejoin="round"/>
<path d="M119.424 61H93.0511" stroke="#6C2C19" stroke-width="1.2" stroke-linecap="round" stroke-linejoin="round"/>
<path d="M47.9126 29.7438L18.5726 18.5728L29.7721 48.0121" stroke="#6C2C19" stroke-width="1.2" stroke-linecap="round" stroke-linejoin="round"/>
<path d="M19.6796 19.6799L38.3879 38.3882" stroke="#6C2C19" stroke-width="1.2" stroke-linecap="round" stroke-linejoin="round"/>
<path d="M74.0448 92.242L103.413 103.427L92.2137 73.9879" stroke="#6C2C19" stroke-width="1.2" stroke-linecap="round" stroke-linejoin="round"/>
<path d="M102.306 102.32L83.6685 83.6685" stroke="#6C2C19" stroke-width="1.2" stroke-linecap="round" stroke-linejoin="round"/>
<path d="M29.7153 74.1583L18.5726 103.427L48.0829 92.1852" stroke="#6C2C19" stroke-width="1.2" stroke-linecap="round" stroke-linejoin="round"/>
<path d="M19.6796 102.32L38.3879 83.5976" stroke="#6C2C19" stroke-width="1.2" stroke-linecap="round" stroke-linejoin="round"/>
<path d="M92.2136 47.9979L103.413 18.5728L74.0588 29.7438" stroke="#6C2C19" stroke-width="1.2" stroke-linecap="round" stroke-linejoin="round"/>
<path d="M102.306 19.6799L83.6685 38.3314" stroke="#6C2C19" stroke-width="1.2" stroke-linecap="round" stroke-linejoin="round"/>
<path d="M92.0538 68.2327C96.0612 51.0795 85.4045 33.9254 68.2513 29.9179C51.0981 25.9105 33.944 36.5672 29.9366 53.7204C25.9291 70.8736 36.5858 88.0277 53.739 92.0351C70.8922 96.0426 88.0463 85.3859 92.0538 68.2327Z" stroke="#6C2C19" stroke-width="2" stroke-linecap="round" stroke-linejoin="round"/>
<path d="M81.2839 61.0852C81.2867 65.101 80.0983 69.0274 77.869 72.3676C75.6397 75.7077 72.4697 78.3116 68.7601 79.8497C65.0506 81.3877 60.9681 81.7909 57.0294 81.0082C53.0906 80.2254 49.4725 78.2919 46.6329 75.4523C43.7933 72.6127 41.8598 68.9947 41.0771 65.0559C40.2943 61.1171 40.6975 57.0347 42.2356 53.3251C43.7736 49.6155 46.3775 46.4456 49.7177 44.2163C53.0579 41.987 56.9842 40.7985 61 40.8013C66.3796 40.8013 71.5389 42.9384 75.3429 46.7423C79.1469 50.5463 81.2839 55.7056 81.2839 61.0852Z" stroke="#6C2C19" stroke-width="0.75" stroke-linecap="round" stroke-linejoin="round"/>
<path d="M61.0002 41L65.514 54.9248H80.1627L68.3103 63.5266L72.8384 77.4514L61.0002 68.8495L49.1478 77.4514L53.6758 63.5266L41.8376 54.9248H56.4721L61.0002 41Z" stroke="#6C2C19" stroke-width="0.75" stroke-linecap="round" stroke-linejoin="round"/>
<path d="M56.4864 54.9247L53.6759 63.5266" stroke="#6C2C19" stroke-width="0.75" stroke-linecap="round" stroke-linejoin="round"/>
<path d="M65.5137 54.9247L68.31 63.5266" stroke="#6C2C19" stroke-width="0.75" stroke-linecap="round" stroke-linejoin="round"/>
<path d="M56.5714 54.9247H65.4146" stroke="#6C2C19" stroke-width="0.75" stroke-linecap="round" stroke-linejoin="round"/>
<path d="M61.0001 68.8495L68.3103 63.5266" stroke="#6C2C19" stroke-width="0.75" stroke-linecap="round" stroke-linejoin="round"/>
<path d="M61.0003 68.8495L53.6759 63.5266" stroke="#6C2C19" stroke-width="0.75" stroke-linecap="round" stroke-linejoin="round"/>
<path d="M60.8156 33.3207V36.4009" stroke="#6C2C19" stroke-width="0.75" stroke-linecap="round" stroke-linejoin="round"/>
<path d="M60.8156 85.7836V88.8638" stroke="#6C2C19" stroke-width="0.75" stroke-linecap="round" stroke-linejoin="round"/>
<path d="M50.1837 35.4358L51.3619 38.2747" stroke="#6C2C19" stroke-width="0.75" stroke-linecap="round" stroke-linejoin="round"/>
<path d="M70.2693 83.9099L71.4474 86.7487" stroke="#6C2C19" stroke-width="0.75" stroke-linecap="round" stroke-linejoin="round"/>
<path d="M41.1707 41.4543L43.3566 43.626" stroke="#6C2C19" stroke-width="0.75" stroke-linecap="round" stroke-linejoin="round"/>
<path d="M78.2743 78.5585L80.4602 80.7303" stroke="#6C2C19" stroke-width="0.75" stroke-linecap="round" stroke-linejoin="round"/>
<path d="M35.1519 50.4677L38.0049 51.6459" stroke="#6C2C19" stroke-width="0.75" stroke-linecap="round" stroke-linejoin="round"/>
<path d="M83.626 70.5387L86.4791 71.7168" stroke="#6C2C19" stroke-width="0.75" stroke-linecap="round" stroke-linejoin="round"/>
<path d="M33.0372 61.0851H36.1174" stroke="#6C2C19" stroke-width="0.75" stroke-linecap="round" stroke-linejoin="round"/>
<path d="M85.5138 61.0851H88.594" stroke="#6C2C19" stroke-width="0.75" stroke-linecap="round" stroke-linejoin="round"/>
<path d="M35.1519 71.7168L38.0049 70.5387" stroke="#6C2C19" stroke-width="0.75" stroke-linecap="round" stroke-linejoin="round"/>
<path d="M83.626 51.6459L86.4791 50.4677" stroke="#6C2C19" stroke-width="0.75" stroke-linecap="round" stroke-linejoin="round"/>
<path d="M41.1707 80.7303L43.3566 78.5585" stroke="#6C2C19" stroke-width="0.75" stroke-linecap="round" stroke-linejoin="round"/>
<path d="M78.2743 43.626L80.4602 41.4543" stroke="#6C2C19" stroke-width="0.75" stroke-linecap="round" stroke-linejoin="round"/>
<path d="M50.1837 86.7487L51.3619 83.9099" stroke="#6C2C19" stroke-width="0.75" stroke-linecap="round" stroke-linejoin="round"/>
<path d="M70.2693 38.2747L71.4474 35.4358" stroke="#6C2C19" stroke-width="0.75" stroke-linecap="round" stroke-linejoin="round"/>
</svg>
