<svg width="85" height="120" viewBox="0 0 85 120" fill="none" xmlns="http://www.w3.org/2000/svg">
<path d="M52.6345 111.572L52.0103 110.957L52.627 110.336C52.6551 110.307 52.6708 110.269 52.6708 110.229C52.6708 110.189 52.6551 110.151 52.627 110.123C52.613 110.109 52.5963 110.098 52.5779 110.09C52.5595 110.082 52.5398 110.078 52.5199 110.078C52.5 110.078 52.4803 110.082 52.462 110.09C52.4436 110.098 52.4269 110.109 52.4129 110.123L51.7947 110.746L51.169 110.131C51.1404 110.103 51.1019 110.087 51.0619 110.087C51.0219 110.088 50.9837 110.104 50.9557 110.133C50.9277 110.161 50.9122 110.2 50.9126 110.24C50.913 110.28 50.9293 110.318 50.9579 110.346L51.5821 110.96L50.964 111.581C50.9427 111.602 50.9282 111.629 50.9223 111.658C50.9164 111.688 50.9194 111.718 50.9309 111.746C50.9424 111.773 50.9618 111.797 50.9868 111.814C51.0117 111.83 51.0411 111.839 51.071 111.839C51.0909 111.839 51.1107 111.835 51.1291 111.827C51.1475 111.819 51.1641 111.808 51.1781 111.794L51.7977 111.171L52.4235 111.786C52.4515 111.814 52.4894 111.83 52.529 111.83C52.5489 111.83 52.5687 111.826 52.587 111.818C52.6054 111.81 52.6221 111.799 52.636 111.784C52.6639 111.756 52.6794 111.718 52.6791 111.678C52.6789 111.638 52.6628 111.6 52.6345 111.572Z" fill="#6C2C19"/>
<path d="M35.7872 110.753L34.5539 109.539L35.7736 108.314C35.7878 108.3 35.799 108.283 35.8067 108.265C35.8143 108.246 35.8183 108.226 35.8183 108.207C35.8183 108.187 35.8143 108.167 35.8067 108.149C35.799 108.13 35.7878 108.114 35.7736 108.1C35.7454 108.071 35.7072 108.056 35.6674 108.056C35.6275 108.056 35.5893 108.071 35.5611 108.1L34.3413 109.327L33.1065 108.121C33.0923 108.107 33.0756 108.096 33.0572 108.088C33.0388 108.081 33.0191 108.077 32.9993 108.078C32.9795 108.078 32.9599 108.082 32.9417 108.09C32.9235 108.097 32.907 108.109 32.8931 108.123C32.8793 108.137 32.8684 108.154 32.861 108.172C32.8536 108.191 32.8499 108.21 32.8501 108.23C32.8503 108.25 32.8544 108.269 32.8622 108.288C32.87 108.306 32.8813 108.322 32.8954 108.336L34.1287 109.542L32.909 110.77C32.8809 110.798 32.8651 110.836 32.8651 110.876C32.8651 110.916 32.8809 110.954 32.909 110.982C32.923 110.996 32.9397 111.008 32.958 111.015C32.9764 111.023 32.9961 111.027 33.016 111.027C33.0359 111.027 33.0556 111.023 33.074 111.015C33.0924 111.008 33.1091 110.996 33.1231 110.982L34.3428 109.753L35.5776 110.96C35.6057 110.988 35.6437 111.003 35.6832 111.003C35.7032 111.003 35.7229 110.999 35.7413 110.991C35.7596 110.984 35.7763 110.972 35.7902 110.958C35.8157 110.93 35.8295 110.893 35.829 110.855C35.8284 110.817 35.8135 110.781 35.7872 110.753Z" fill="#6C2C19"/>
<path d="M60.7282 9.72329L61.9887 8.87444L60.202 8.84881L60.5804 7.73309L59.7436 8.3392L59.2356 6.76965L58.6294 8.28793L57.7625 7.65017L58.0836 8.83976L56.2336 8.8277L57.6826 9.85446L56.8277 10.4817L57.8288 10.4741L57.1096 12.297L58.7802 11.219L59.0983 12.3874L59.5431 11.1556L61.0644 12.1553L60.5382 10.4274L61.5921 10.3822L60.7282 9.72329Z" fill="#6C2C19"/>
<path d="M16.8713 85.9344C18.3203 85.1007 18.6972 84.5775 19.3621 82.1455C19.8039 83.9699 20.3391 85.3268 21.7066 86.0204C20.1672 86.9793 19.8687 88.3408 19.3847 89.6977C18.7243 87.8492 18.2449 86.8632 16.8713 85.9344Z" fill="#6C2C19"/>
<path d="M11.9622 92.8338C12.8789 92.3468 13.1171 92.0408 13.5377 90.6205C13.8182 91.6864 14.1574 92.4795 15.0229 92.8821C14.0489 93.4429 13.8589 94.239 13.5528 95.0306C13.1352 93.9526 12.8306 93.3751 11.9622 92.8338Z" fill="#6C2C19"/>
<path d="M9.84384 85.2695C10.1253 85.2695 10.3535 85.0413 10.3535 84.7599C10.3535 84.4784 10.1253 84.2502 9.84384 84.2502C9.56239 84.2502 9.33423 84.4784 9.33423 84.7599C9.33423 85.0413 9.56239 85.2695 9.84384 85.2695Z" fill="#6C2C19"/>
<path d="M13.4926 82.8602C13.6899 82.8602 13.8499 82.7002 13.8499 82.5028C13.8499 82.3055 13.6899 82.1455 13.4926 82.1455C13.2952 82.1455 13.1353 82.3055 13.1353 82.5028C13.1353 82.7002 13.2952 82.8602 13.4926 82.8602Z" fill="#6C2C19"/>
<path d="M27.8206 87.6516C27.8206 87.581 27.8415 87.5119 27.8808 87.4531C27.92 87.3944 27.9759 87.3486 28.0412 87.3215C28.1065 87.2945 28.1783 87.2874 28.2476 87.3012C28.3169 87.315 28.3806 87.349 28.4306 87.399C28.4805 87.4489 28.5146 87.5126 28.5284 87.5819C28.5422 87.6512 28.5351 87.7231 28.508 87.7884C28.481 87.8537 28.4352 87.9095 28.3764 87.9488C28.3177 87.988 28.2486 88.009 28.1779 88.009C28.0833 88.0086 27.9926 87.9708 27.9256 87.9039C27.8587 87.8369 27.821 87.7463 27.8206 87.6516Z" fill="#6C2C19"/>
<path d="M28.8925 83.2175C29.0899 83.2175 29.2498 83.0575 29.2498 82.8601C29.2498 82.6628 29.0899 82.5028 28.8925 82.5028C28.6952 82.5028 28.5352 82.6628 28.5352 82.8601C28.5352 83.0575 28.6952 83.2175 28.8925 83.2175Z" fill="#6C2C19"/>
<path d="M29.2092 16.8804C29.3982 16.8804 29.5515 16.7272 29.5515 16.5382C29.5515 16.3492 29.3982 16.1959 29.2092 16.1959C29.0202 16.1959 28.8669 16.3492 28.8669 16.5382C28.8669 16.7272 29.0202 16.8804 29.2092 16.8804Z" fill="#6C2C19"/>
<path d="M29.963 12.4177C29.784 12.4177 29.6092 12.3646 29.4604 12.2652C29.3116 12.1658 29.1957 12.0245 29.1272 11.8592C29.0587 11.6939 29.0408 11.512 29.0757 11.3365C29.1106 11.1611 29.1968 10.9999 29.3233 10.8734C29.4498 10.7468 29.611 10.6607 29.7865 10.6258C29.962 10.5909 30.1439 10.6088 30.3092 10.6773C30.4745 10.7457 30.6158 10.8617 30.7152 11.0104C30.8146 11.1592 30.8676 11.3341 30.8676 11.513C30.8676 11.753 30.7723 11.9831 30.6026 12.1527C30.433 12.3224 30.2029 12.4177 29.963 12.4177ZM29.963 10.9099C29.8437 10.9099 29.7271 10.9453 29.6279 11.0116C29.5287 11.0779 29.4515 11.172 29.4058 11.2822C29.3602 11.3924 29.3482 11.5137 29.3715 11.6307C29.3947 11.7477 29.4522 11.8551 29.5365 11.9395C29.6209 12.0238 29.7283 12.0813 29.8453 12.1045C29.9623 12.1278 30.0836 12.1159 30.1938 12.0702C30.304 12.0246 30.3982 11.9473 30.4644 11.8481C30.5307 11.7489 30.5661 11.6323 30.5661 11.513C30.5661 11.3531 30.5025 11.1997 30.3894 11.0866C30.2763 10.9735 30.1229 10.9099 29.963 10.9099Z" fill="#6C2C19"/>
<path d="M30.4425 21.5062C30.3179 21.5062 30.196 21.4692 30.0924 21.4C29.9887 21.3307 29.9079 21.2323 29.8602 21.1171C29.8125 21.002 29.8 20.8753 29.8244 20.753C29.8487 20.6308 29.9087 20.5185 29.9968 20.4303C30.085 20.3422 30.1973 20.2822 30.3195 20.2578C30.4418 20.2335 30.5685 20.246 30.6837 20.2937C30.7988 20.3414 30.8973 20.4222 30.9665 20.5258C31.0358 20.6295 31.0727 20.7513 31.0727 20.876C31.0727 21.0431 31.0063 21.2034 30.8881 21.3216C30.7699 21.4398 30.6097 21.5062 30.4425 21.5062ZM30.4425 20.5473C30.3775 20.5473 30.3139 20.5666 30.2599 20.6027C30.2058 20.6388 30.1637 20.6901 30.1388 20.7502C30.1139 20.8102 30.1074 20.8763 30.1201 20.9401C30.1328 21.0038 30.1641 21.0624 30.2101 21.1084C30.2561 21.1543 30.3146 21.1856 30.3784 21.1983C30.4421 21.211 30.5082 21.2045 30.5683 21.1796C30.6283 21.1547 30.6797 21.1126 30.7158 21.0586C30.7519 21.0045 30.7712 20.941 30.7712 20.876C30.7708 20.7889 30.736 20.7055 30.6745 20.644C30.6129 20.5824 30.5296 20.5477 30.4425 20.5473Z" fill="#6C2C19"/>
<path d="M12.0738 48.4161L11.4496 47.8009L12.0677 47.1798C12.0959 47.1514 12.1117 47.1129 12.1116 47.0729C12.1114 47.0329 12.0954 46.9946 12.067 46.9664C12.0386 46.9382 12.0002 46.9225 11.9602 46.9226C11.9201 46.9227 11.8818 46.9388 11.8536 46.9672L11.234 47.5899L10.6083 46.9747C10.58 46.9466 10.5418 46.9309 10.502 46.9309C10.4621 46.9309 10.4239 46.9466 10.3957 46.9747C10.3815 46.9887 10.3703 47.0054 10.3627 47.0238C10.355 47.0421 10.3511 47.0619 10.3511 47.0818C10.3511 47.1017 10.355 47.1214 10.3627 47.1397C10.3703 47.1581 10.3815 47.1748 10.3957 47.1888L11.0199 47.8024L10.4032 48.4236C10.3891 48.4377 10.3779 48.4543 10.3702 48.4727C10.3625 48.4911 10.3586 48.5108 10.3586 48.5307C10.3586 48.5506 10.3625 48.5703 10.3702 48.5887C10.3779 48.607 10.3891 48.6237 10.4032 48.6377C10.4173 48.6517 10.434 48.6628 10.4524 48.6703C10.4707 48.6778 10.4904 48.6816 10.5103 48.6815C10.5302 48.6814 10.5499 48.6773 10.5683 48.6696C10.5867 48.6618 10.6033 48.6505 10.6173 48.6362L11.2355 48.0135L11.8612 48.6287C11.8893 48.6565 11.9272 48.6722 11.9667 48.6724C11.9869 48.6725 12.0069 48.6686 12.0256 48.6608C12.0442 48.653 12.0611 48.6416 12.0753 48.6272C12.1027 48.5988 12.1179 48.5608 12.1176 48.5213C12.1173 48.4819 12.1016 48.4441 12.0738 48.4161Z" fill="#6C2C19"/>
<path d="M13.4155 69.0117L12.1822 67.8055L13.4019 66.5782C13.4301 66.5498 13.4459 66.5114 13.4457 66.4714C13.4456 66.4314 13.4296 66.393 13.4012 66.3649C13.3728 66.3367 13.3343 66.3209 13.2943 66.321C13.2543 66.3212 13.216 66.3372 13.1878 66.3656L11.9666 67.5944L10.7332 66.3882C10.7048 66.36 10.6664 66.3443 10.6264 66.3444C10.5864 66.3446 10.5481 66.3606 10.5199 66.389C10.4917 66.4174 10.4759 66.4558 10.4761 66.4958C10.4762 66.5358 10.4922 66.5741 10.5206 66.6023L11.754 67.8085L10.5357 69.0358C10.5076 69.064 10.4919 69.1023 10.4919 69.1421C10.4919 69.1819 10.5076 69.2201 10.5357 69.2484C10.5498 69.2624 10.5665 69.2734 10.5849 69.2809C10.6033 69.2884 10.6229 69.2922 10.6428 69.2921C10.6626 69.2922 10.6823 69.2884 10.7007 69.2809C10.719 69.2734 10.7357 69.2624 10.7498 69.2484L11.9696 68.0211L13.2044 69.2273C13.2327 69.2546 13.2706 69.2697 13.3099 69.2695C13.3299 69.2694 13.3496 69.2654 13.368 69.2576C13.3864 69.2498 13.403 69.2385 13.417 69.2243C13.4449 69.1958 13.4604 69.1575 13.4601 69.1177C13.4598 69.0778 13.4438 69.0397 13.4155 69.0117Z" fill="#6C2C19"/>
<path d="M3.73771 111.068C3.73801 111.135 3.71842 111.201 3.68143 111.256C3.64443 111.312 3.59169 111.356 3.52992 111.381C3.46814 111.407 3.40013 111.414 3.33447 111.401C3.26882 111.388 3.2085 111.356 3.16117 111.308C3.11385 111.261 3.08166 111.201 3.06867 111.135C3.05569 111.07 3.06251 111.001 3.08825 110.94C3.114 110.878 3.15753 110.825 3.2133 110.788C3.26907 110.751 3.33456 110.732 3.40149 110.732C3.49066 110.732 3.57619 110.767 3.63924 110.83C3.7023 110.893 3.73771 110.979 3.73771 111.068Z" fill="#6C2C19"/>
<path d="M3.68924 109.829C3.68924 109.886 3.67235 109.942 3.64071 109.989C3.60906 110.036 3.56409 110.073 3.51147 110.095C3.45885 110.117 3.40095 110.123 3.34509 110.111C3.28922 110.1 3.2379 110.073 3.19763 110.033C3.15735 109.992 3.12993 109.941 3.11882 109.885C3.1077 109.829 3.1134 109.771 3.1352 109.719C3.15699 109.666 3.19391 109.621 3.24126 109.59C3.28862 109.558 3.3443 109.541 3.40126 109.541C3.47751 109.541 3.55053 109.572 3.60445 109.626C3.65837 109.68 3.68884 109.753 3.68924 109.829Z" fill="#6C2C19"/>
<path d="M3.61259 108.715C3.61259 108.756 3.60021 108.797 3.57702 108.832C3.55382 108.867 3.52086 108.894 3.48229 108.91C3.44372 108.926 3.40128 108.93 3.36034 108.922C3.31939 108.914 3.28176 108.893 3.25224 108.864C3.22272 108.834 3.20263 108.797 3.19449 108.756C3.18634 108.715 3.19051 108.672 3.20649 108.634C3.22246 108.595 3.24952 108.562 3.28423 108.539C3.31894 108.516 3.35976 108.504 3.40151 108.504C3.45749 108.504 3.51118 108.526 3.55077 108.565C3.59036 108.605 3.61259 108.659 3.61259 108.715Z" fill="#6C2C19"/>
<path d="M8.96203 117.024C8.89511 117.024 8.82961 117.004 8.77384 116.967C8.71807 116.93 8.67455 116.878 8.6488 116.816C8.62305 116.754 8.61624 116.686 8.62922 116.62C8.6422 116.555 8.6744 116.495 8.72172 116.447C8.76904 116.4 8.82937 116.368 8.89502 116.355C8.96068 116.342 9.02869 116.349 9.09046 116.374C9.15224 116.4 9.20498 116.444 9.24197 116.499C9.27897 116.555 9.29855 116.621 9.29825 116.688C9.29825 116.777 9.26284 116.862 9.19979 116.925C9.13673 116.988 9.05121 117.024 8.96203 117.024Z" fill="#6C2C19"/>
<path d="M10.201 116.974C10.144 116.974 10.0883 116.957 10.0409 116.925C9.99351 116.894 9.95661 116.849 9.93486 116.796C9.9131 116.743 9.9075 116.685 9.91873 116.629C9.92997 116.573 9.95754 116.522 9.99797 116.482C10.0384 116.442 10.0898 116.414 10.1458 116.403C10.2018 116.392 10.2597 116.398 10.3123 116.42C10.3649 116.442 10.4098 116.48 10.4412 116.527C10.4727 116.575 10.4893 116.631 10.489 116.688C10.489 116.725 10.4816 116.763 10.4671 116.798C10.4526 116.832 10.4313 116.864 10.4046 116.891C10.3778 116.917 10.3461 116.938 10.3111 116.953C10.2762 116.967 10.2388 116.974 10.201 116.974Z" fill="#6C2C19"/>
<path d="M11.317 116.899C11.4336 116.899 11.5281 116.804 11.5281 116.688C11.5281 116.571 11.4336 116.476 11.317 116.476C11.2005 116.476 11.106 116.571 11.106 116.688C11.106 116.804 11.2005 116.899 11.317 116.899Z" fill="#6C2C19"/>
<path d="M22.8542 117.749H5.8305C4.91635 117.748 4.04 117.384 3.3936 116.738C2.7472 116.091 2.38352 115.215 2.38232 114.301V94.4245C2.38232 94.3845 2.39822 94.3461 2.4265 94.3178C2.45477 94.2896 2.49311 94.2737 2.5331 94.2737C2.57308 94.2737 2.61144 94.2896 2.63972 94.3178C2.66799 94.3461 2.68387 94.3845 2.68387 94.4245V114.301C2.68467 115.135 3.01644 115.935 3.60638 116.525C4.19631 117.115 4.9962 117.447 5.8305 117.447H22.8542C22.8942 117.447 22.9326 117.463 22.9608 117.492C22.9891 117.52 23.005 117.558 23.005 117.598C23.005 117.638 22.9891 117.677 22.9608 117.705C22.9326 117.733 22.8942 117.749 22.8542 117.749Z" fill="#6C2C19"/>
<path d="M6.03247 115.029C5.81204 115.029 5.59647 114.964 5.41304 114.842C5.22961 114.72 5.08657 114.546 5.002 114.342C4.91744 114.139 4.89515 113.915 4.93797 113.698C4.98079 113.482 5.08679 113.283 5.24255 113.127C5.39832 112.971 5.59685 112.865 5.81303 112.822C6.02921 112.779 6.25332 112.801 6.457 112.885C6.66068 112.969 6.83478 113.112 6.95728 113.296C7.07978 113.479 7.14518 113.694 7.14518 113.915C7.14518 114.21 7.02798 114.493 6.81935 114.702C6.61073 114.911 6.32772 115.029 6.03247 115.029ZM6.03247 113.104C5.87161 113.103 5.71429 113.151 5.58041 113.24C5.44654 113.329 5.34215 113.456 5.28045 113.605C5.21875 113.753 5.20252 113.917 5.23383 114.074C5.26514 114.232 5.34258 114.377 5.45633 114.491C5.57007 114.605 5.71501 114.682 5.87279 114.713C6.03057 114.745 6.19409 114.728 6.34265 114.667C6.49121 114.605 6.61811 114.501 6.70729 114.367C6.79647 114.233 6.84393 114.076 6.84363 113.915C6.84323 113.7 6.75764 113.494 6.6056 113.342C6.45357 113.19 6.24748 113.104 6.03247 113.104Z" fill="#6C2C19"/>
<path d="M78.4093 117.749H61.381C61.341 117.749 61.3027 117.733 61.2744 117.705C61.2461 117.677 61.2302 117.638 61.2302 117.598C61.2302 117.558 61.2461 117.52 61.2744 117.492C61.3027 117.463 61.341 117.447 61.381 117.447H78.4093C79.2434 117.446 80.0431 117.114 80.6329 116.524C81.2228 115.935 81.5547 115.135 81.5559 114.301V94.4245C81.5559 94.3845 81.5718 94.3461 81.6 94.3178C81.6283 94.2896 81.6667 94.2737 81.7067 94.2737C81.7467 94.2737 81.785 94.2896 81.8133 94.3178C81.8416 94.3461 81.8574 94.3845 81.8574 94.4245V114.301C81.8563 115.215 81.4926 116.091 80.8462 116.738C80.1998 117.384 79.3234 117.748 78.4093 117.749Z" fill="#6C2C19"/>
<path d="M78.2072 115.029C77.9868 115.029 77.7713 114.964 77.5878 114.842C77.4044 114.72 77.2614 114.546 77.1768 114.342C77.0922 114.139 77.07 113.915 77.1128 113.698C77.1556 113.482 77.2616 113.283 77.4173 113.127C77.5731 112.971 77.7716 112.865 77.9878 112.822C78.204 112.779 78.4281 112.801 78.6318 112.885C78.8355 112.969 79.0096 113.112 79.1321 113.296C79.2546 113.479 79.32 113.694 79.32 113.915C79.32 114.21 79.2028 114.493 78.9942 114.702C78.7855 114.911 78.5025 115.029 78.2072 115.029ZM78.2072 113.104C78.0464 113.103 77.8891 113.151 77.7552 113.24C77.6213 113.329 77.517 113.456 77.4553 113.605C77.3936 113.753 77.3773 113.917 77.4086 114.074C77.4399 114.232 77.5174 114.377 77.6311 114.491C77.7448 114.605 77.8898 114.682 78.0476 114.713C78.2053 114.745 78.3689 114.728 78.5174 114.667C78.666 114.605 78.7929 114.501 78.8821 114.367C78.9713 114.233 79.0187 114.076 79.0184 113.915C79.0176 113.7 78.9319 113.494 78.78 113.342C78.628 113.19 78.4221 113.104 78.2072 113.104Z" fill="#6C2C19"/>
<path d="M80.5352 111.068C80.5349 111.135 80.5544 111.2 80.5913 111.256C80.6283 111.312 80.6809 111.355 80.7426 111.381C80.8043 111.407 80.8722 111.414 80.9378 111.401C81.0034 111.388 81.0638 111.356 81.1112 111.309C81.1585 111.262 81.1908 111.202 81.204 111.136C81.2171 111.071 81.2106 111.003 81.185 110.941C81.1595 110.879 81.1162 110.826 81.0607 110.789C81.0051 110.752 80.9397 110.732 80.8729 110.732C80.7836 110.732 80.6979 110.767 80.6346 110.83C80.5713 110.893 80.5356 110.979 80.5352 111.068Z" fill="#6C2C19"/>
<path d="M80.5847 109.829C80.5847 109.886 80.6016 109.942 80.6333 109.989C80.6649 110.036 80.7099 110.073 80.7625 110.095C80.8151 110.117 80.873 110.123 80.9289 110.111C80.9847 110.1 81.0361 110.073 81.0763 110.033C81.1166 109.992 81.144 109.941 81.1552 109.885C81.1663 109.829 81.1606 109.771 81.1388 109.719C81.117 109.666 81.08 109.621 81.0327 109.59C80.9853 109.558 80.9297 109.541 80.8727 109.541C80.7963 109.541 80.7231 109.571 80.6691 109.625C80.6151 109.679 80.5847 109.753 80.5847 109.829Z" fill="#6C2C19"/>
<path d="M80.873 108.926C80.9895 108.926 81.084 108.831 81.084 108.715C81.084 108.598 80.9895 108.504 80.873 108.504C80.7564 108.504 80.6619 108.598 80.6619 108.715C80.6619 108.831 80.7564 108.926 80.873 108.926Z" fill="#6C2C19"/>
<path d="M75.3111 117.024C75.378 117.024 75.4435 117.004 75.4993 116.967C75.5551 116.93 75.5986 116.878 75.6243 116.816C75.6501 116.754 75.6569 116.686 75.6439 116.62C75.6309 116.555 75.5987 116.495 75.5514 116.447C75.5041 116.4 75.4438 116.368 75.3781 116.355C75.3125 116.342 75.2444 116.349 75.1826 116.374C75.1209 116.4 75.0681 116.444 75.0311 116.499C74.9941 116.555 74.9746 116.621 74.9749 116.688C74.9749 116.777 75.0103 116.862 75.0734 116.925C75.1364 116.988 75.2219 117.024 75.3111 117.024Z" fill="#6C2C19"/>
<path d="M74.0714 116.974C74.1284 116.974 74.1842 116.957 74.2316 116.925C74.279 116.894 74.3159 116.849 74.3376 116.796C74.3594 116.743 74.365 116.685 74.3537 116.629C74.3425 116.573 74.315 116.522 74.2745 116.482C74.2341 116.442 74.1826 116.414 74.1267 116.403C74.0707 116.392 74.0128 116.398 73.9602 116.42C73.9076 116.442 73.8627 116.48 73.8312 116.527C73.7998 116.575 73.7832 116.631 73.7835 116.688C73.7838 116.764 73.8144 116.837 73.8683 116.89C73.9223 116.944 73.9953 116.974 74.0714 116.974Z" fill="#6C2C19"/>
<path d="M72.9574 116.899C72.9992 116.899 73.04 116.886 73.0747 116.863C73.1094 116.84 73.1365 116.807 73.1525 116.768C73.1684 116.73 73.1726 116.687 73.1645 116.646C73.1563 116.605 73.1362 116.568 73.1067 116.538C73.0772 116.509 73.0395 116.489 72.9986 116.48C72.9576 116.472 72.9152 116.477 72.8766 116.493C72.8381 116.508 72.8051 116.536 72.7819 116.57C72.7587 116.605 72.7463 116.646 72.7463 116.688C72.7463 116.744 72.7686 116.797 72.8082 116.837C72.8478 116.876 72.9015 116.899 72.9574 116.899Z" fill="#6C2C19"/>
<path d="M2.5331 25.7851C2.49311 25.7851 2.45477 25.7692 2.4265 25.741C2.39822 25.7127 2.38232 25.6743 2.38232 25.6344V5.75799C2.38352 4.84384 2.7472 3.96748 3.3936 3.32108C4.04 2.67468 4.91635 2.31101 5.8305 2.30981H22.8542C22.8942 2.30981 22.9326 2.3257 22.9608 2.35397C22.9891 2.38225 23.005 2.4206 23.005 2.46059C23.005 2.50057 22.9891 2.53892 22.9608 2.5672C22.9326 2.59548 22.8942 2.61136 22.8542 2.61136H5.8305C4.9962 2.61216 4.19631 2.94393 3.60638 3.53387C3.01644 4.1238 2.68467 4.92369 2.68387 5.75799V25.6344C2.68387 25.6743 2.66799 25.7127 2.63972 25.741C2.61144 25.7692 2.57308 25.7851 2.5331 25.7851Z" fill="#6C2C19"/>
<path d="M6.03247 7.25662C5.81204 7.25692 5.59647 7.19182 5.41304 7.06957C5.22961 6.94732 5.08657 6.77341 5.002 6.56984C4.91744 6.36627 4.89515 6.1422 4.93797 5.92596C4.98079 5.70973 5.08679 5.51105 5.24255 5.35508C5.39832 5.1991 5.59685 5.09283 5.81303 5.04972C6.02921 5.0066 6.25332 5.02858 6.457 5.11287C6.66068 5.19716 6.83478 5.33997 6.95728 5.52323C7.07978 5.70649 7.14518 5.92197 7.14518 6.14241C7.14478 6.43753 7.02746 6.72048 6.81891 6.9293C6.61037 7.13813 6.3276 7.25582 6.03247 7.25662ZM6.03247 5.33125C5.87161 5.33095 5.71429 5.3784 5.58041 5.46758C5.44654 5.55676 5.34215 5.68367 5.28045 5.83223C5.21875 5.98078 5.20252 6.14431 5.23383 6.30209C5.26514 6.45987 5.34258 6.60481 5.45633 6.71855C5.57007 6.8323 5.71501 6.90973 5.87279 6.94104C6.03057 6.97235 6.19409 6.95612 6.34265 6.89443C6.49121 6.83273 6.61811 6.72834 6.70729 6.59447C6.79647 6.46059 6.84393 6.30327 6.84363 6.14241C6.84363 5.92728 6.75816 5.72096 6.60604 5.56883C6.45392 5.41671 6.24761 5.33125 6.03247 5.33125Z" fill="#6C2C19"/>
<path d="M3.70574 8.98897C3.70574 8.92211 3.6859 8.85676 3.64873 8.80118C3.61155 8.74561 3.5587 8.70233 3.4969 8.67681C3.4351 8.65129 3.36713 8.64469 3.30157 8.65785C3.23602 8.671 3.17583 8.70332 3.12866 8.7507C3.08149 8.79808 3.04944 8.8584 3.03658 8.92401C3.02372 8.98963 3.03063 9.05758 3.05642 9.11926C3.08221 9.18095 3.12574 9.23359 3.18148 9.27052C3.23722 9.30745 3.30266 9.327 3.36952 9.3267C3.4138 9.3267 3.45765 9.31796 3.49854 9.30097C3.53943 9.28398 3.57655 9.25908 3.60779 9.22769C3.63903 9.19631 3.66378 9.15907 3.68058 9.1181C3.69739 9.07714 3.70594 9.03325 3.70574 8.98897Z" fill="#6C2C19"/>
<path d="M3.65335 10.2299C3.65365 10.1728 3.63697 10.1169 3.60544 10.0694C3.57391 10.0218 3.52896 9.98462 3.47628 9.96264C3.42359 9.94066 3.36557 9.93483 3.30956 9.94589C3.25356 9.95695 3.2021 9.98441 3.16174 10.0248C3.12137 10.0651 3.09392 10.1166 3.08285 10.1726C3.07179 10.2286 3.07762 10.2866 3.0996 10.3393C3.12158 10.392 3.15873 10.4369 3.20631 10.4685C3.2539 10.5 3.30979 10.5167 3.36688 10.5164C3.44273 10.516 3.51536 10.4857 3.569 10.432C3.62264 10.3784 3.65295 10.3058 3.65335 10.2299Z" fill="#6C2C19"/>
<path d="M3.57768 11.3441C3.57768 11.3024 3.5653 11.2616 3.5421 11.2269C3.51891 11.1922 3.48594 11.1651 3.44737 11.1491C3.4088 11.1331 3.36637 11.129 3.32542 11.1371C3.28448 11.1453 3.24685 11.1654 3.21733 11.1949C3.18781 11.2244 3.16772 11.262 3.15958 11.303C3.15143 11.3439 3.1556 11.3863 3.17158 11.4249C3.18755 11.4635 3.21461 11.4965 3.24932 11.5196C3.28403 11.5428 3.32485 11.5552 3.36659 11.5552C3.39431 11.5552 3.42176 11.5498 3.44737 11.5392C3.47298 11.5285 3.49626 11.513 3.51586 11.4934C3.53546 11.4738 3.551 11.4505 3.56161 11.4249C3.57222 11.3993 3.57768 11.3719 3.57768 11.3441Z" fill="#6C2C19"/>
<path d="M8.92704 3.03503C8.86055 3.03503 8.79554 3.05475 8.74025 3.0917C8.68496 3.12864 8.64185 3.18115 8.61641 3.24259C8.59096 3.30403 8.58431 3.37163 8.59728 3.43685C8.61026 3.50207 8.64227 3.56198 8.68929 3.609C8.73631 3.65602 8.79623 3.68805 8.86145 3.70102C8.92667 3.71399 8.99428 3.70733 9.05571 3.68189C9.11715 3.65644 9.16965 3.61334 9.2066 3.55805C9.24354 3.50276 9.26326 3.43776 9.26326 3.37126C9.26326 3.28208 9.22783 3.19656 9.16478 3.13351C9.10173 3.07046 9.01622 3.03503 8.92704 3.03503Z" fill="#6C2C19"/>
<path d="M10.1666 3.08325C10.1097 3.08325 10.054 3.10014 10.0066 3.13178C9.95928 3.16343 9.92239 3.2084 9.90059 3.26102C9.8788 3.31364 9.87308 3.37155 9.88419 3.42741C9.8953 3.48327 9.92273 3.53458 9.963 3.57486C10.0033 3.61513 10.0546 3.64256 10.1105 3.65367C10.1663 3.66478 10.2242 3.65908 10.2768 3.63728C10.3295 3.61549 10.3744 3.57858 10.4061 3.53122C10.4377 3.48386 10.4546 3.42818 10.4546 3.37123C10.4546 3.29485 10.4243 3.2216 10.3703 3.1676C10.3163 3.11359 10.243 3.08325 10.1666 3.08325Z" fill="#6C2C19"/>
<path d="M11.2807 3.16028C11.2389 3.16028 11.1981 3.17266 11.1634 3.19585C11.1287 3.21905 11.1016 3.25201 11.0856 3.29058C11.0697 3.32915 11.0655 3.37159 11.0736 3.41254C11.0818 3.45349 11.1019 3.4911 11.1314 3.52062C11.1609 3.55014 11.1985 3.57024 11.2395 3.57839C11.2804 3.58653 11.3229 3.58235 11.3614 3.56637C11.4 3.5504 11.433 3.52334 11.4562 3.48863C11.4794 3.45392 11.4917 3.41311 11.4917 3.37136C11.4917 3.34364 11.4863 3.31619 11.4757 3.29058C11.4651 3.26497 11.4495 3.2417 11.4299 3.2221C11.4103 3.2025 11.387 3.18695 11.3614 3.17635C11.3358 3.16574 11.3084 3.16028 11.2807 3.16028Z" fill="#6C2C19"/>
<path d="M81.7067 25.7851C81.6667 25.7851 81.6283 25.7692 81.6 25.741C81.5718 25.7127 81.5559 25.6743 81.5559 25.6344V5.75799C81.5547 4.92382 81.2228 4.12415 80.6329 3.53431C80.0431 2.94446 79.2434 2.61256 78.4093 2.61136H61.381C61.341 2.61136 61.3027 2.59548 61.2744 2.5672C61.2461 2.53892 61.2302 2.50057 61.2302 2.46059C61.2302 2.4206 61.2461 2.38225 61.2744 2.35397C61.3027 2.3257 61.341 2.30981 61.381 2.30981H78.4093C79.3234 2.31101 80.1998 2.67468 80.8462 3.32108C81.4926 3.96748 81.8563 4.84384 81.8574 5.75799V25.6344C81.8574 25.6743 81.8416 25.7127 81.8133 25.741C81.785 25.7692 81.7467 25.7851 81.7067 25.7851Z" fill="#6C2C19"/>
<path d="M78.2072 7.25662C77.9868 7.25692 77.7713 7.19182 77.5878 7.06957C77.4044 6.94732 77.2614 6.77341 77.1768 6.56984C77.0922 6.36627 77.07 6.1422 77.1128 5.92596C77.1556 5.70973 77.2616 5.51105 77.4173 5.35508C77.5731 5.1991 77.7716 5.09283 77.9878 5.04972C78.204 5.0066 78.4281 5.02858 78.6318 5.11287C78.8355 5.19716 79.0096 5.33997 79.1321 5.52323C79.2546 5.70649 79.32 5.92197 79.32 6.14241C79.3196 6.43753 79.2023 6.72048 78.9937 6.9293C78.7852 7.13813 78.5024 7.25582 78.2072 7.25662ZM78.2072 5.33125C78.0464 5.33095 77.8891 5.3784 77.7552 5.46758C77.6213 5.55676 77.517 5.68367 77.4553 5.83223C77.3936 5.98078 77.3773 6.14431 77.4086 6.30209C77.4399 6.45987 77.5174 6.60481 77.6311 6.71855C77.7448 6.8323 77.8898 6.90973 78.0476 6.94104C78.2053 6.97235 78.3689 6.95612 78.5174 6.89443C78.666 6.83273 78.7929 6.72834 78.8821 6.59447C78.9713 6.46059 79.0187 6.30327 79.0184 6.14241C79.018 5.9274 78.9324 5.72131 78.7804 5.56927C78.6284 5.41724 78.4223 5.33165 78.2072 5.33125Z" fill="#6C2C19"/>
<path d="M80.5352 8.98898C80.5352 8.92218 80.555 8.85688 80.5921 8.80134C80.6292 8.7458 80.6819 8.70252 80.7437 8.67695C80.8054 8.65139 80.8733 8.6447 80.9388 8.65773C81.0043 8.67077 81.0644 8.70293 81.1117 8.75017C81.1589 8.7974 81.1911 8.85758 81.2041 8.92309C81.2172 8.9886 81.2105 9.05651 81.1849 9.11822C81.1593 9.17993 81.116 9.23268 81.0605 9.26979C81.005 9.3069 80.9397 9.32671 80.8729 9.32671C80.8285 9.32691 80.7845 9.31831 80.7434 9.30141C80.7023 9.2845 80.665 9.25964 80.6336 9.22823C80.6022 9.19683 80.5773 9.15952 80.5604 9.11846C80.5435 9.07739 80.535 9.03338 80.5352 8.98898Z" fill="#6C2C19"/>
<path d="M80.5847 10.2299C80.5844 10.1729 80.6011 10.1171 80.6325 10.0695C80.664 10.022 80.7089 9.98481 80.7614 9.96279C80.814 9.94076 80.872 9.93484 80.928 9.94578C80.9839 9.95672 81.0354 9.98403 81.0758 10.0242C81.1162 10.0645 81.1438 10.1158 81.1551 10.1717C81.1663 10.2276 81.1606 10.2856 81.1389 10.3383C81.1171 10.391 81.0802 10.436 81.0328 10.4677C80.9855 10.4995 80.9297 10.5164 80.8727 10.5164C80.7966 10.5164 80.7236 10.4863 80.6696 10.4326C80.6156 10.3789 80.5851 10.306 80.5847 10.2299Z" fill="#6C2C19"/>
<path d="M80.6619 11.3441C80.6619 11.3024 80.6743 11.2616 80.6975 11.2269C80.7207 11.1922 80.7536 11.1651 80.7922 11.1491C80.8307 11.1331 80.8732 11.129 80.9141 11.1371C80.9551 11.1453 80.9927 11.1654 81.0222 11.1949C81.0518 11.2244 81.0718 11.262 81.08 11.303C81.0881 11.3439 81.084 11.3863 81.068 11.4249C81.052 11.4635 81.025 11.4965 80.9902 11.5196C80.9555 11.5428 80.9147 11.5552 80.873 11.5552C80.8452 11.5552 80.8178 11.5498 80.7922 11.5392C80.7666 11.5285 80.7433 11.513 80.7237 11.4934C80.7041 11.4738 80.6886 11.4505 80.678 11.4249C80.6673 11.3993 80.6619 11.3719 80.6619 11.3441Z" fill="#6C2C19"/>
<path d="M75.3111 3.03503C75.3776 3.03503 75.4426 3.05475 75.4979 3.0917C75.5532 3.12864 75.5963 3.18115 75.6217 3.24259C75.6472 3.30403 75.6538 3.37163 75.6409 3.43685C75.6279 3.50207 75.5958 3.56198 75.5488 3.609C75.5018 3.65602 75.4419 3.68805 75.3767 3.70102C75.3114 3.71399 75.2439 3.70733 75.1824 3.68189C75.121 3.65644 75.0685 3.61334 75.0315 3.55805C74.9946 3.50276 74.9749 3.43776 74.9749 3.37126C74.9749 3.28208 75.0103 3.19656 75.0734 3.13351C75.1364 3.07046 75.2219 3.03503 75.3111 3.03503Z" fill="#6C2C19"/>
<path d="M74.0714 3.08325C74.1284 3.08325 74.1841 3.10014 74.2314 3.13178C74.2788 3.16343 74.3157 3.2084 74.3375 3.26102C74.3593 3.31364 74.365 3.37155 74.3539 3.42741C74.3427 3.48327 74.3153 3.53458 74.275 3.57486C74.2348 3.61513 74.1834 3.64256 74.1276 3.65367C74.0717 3.66478 74.0138 3.65908 73.9612 3.63728C73.9086 3.61549 73.8636 3.57858 73.832 3.53122C73.8003 3.48386 73.7834 3.42818 73.7834 3.37123C73.7838 3.29497 73.8143 3.22196 73.8682 3.16804C73.9221 3.11411 73.9952 3.08365 74.0714 3.08325Z" fill="#6C2C19"/>
<path d="M72.9574 3.16028C72.9992 3.16028 73.04 3.17266 73.0747 3.19585C73.1094 3.21905 73.1365 3.25201 73.1525 3.29058C73.1684 3.32915 73.1726 3.37159 73.1645 3.41254C73.1563 3.45349 73.1362 3.4911 73.1067 3.52062C73.0772 3.55014 73.0395 3.57024 72.9986 3.57839C72.9576 3.58653 72.9152 3.58235 72.8766 3.56637C72.8381 3.5504 72.8051 3.52334 72.7819 3.48863C72.7587 3.45392 72.7463 3.41311 72.7463 3.37136C72.7463 3.31538 72.7686 3.26169 72.8082 3.2221C72.8478 3.18252 72.9015 3.16028 72.9574 3.16028Z" fill="#6C2C19"/>
<path d="M40.9468 118.69C40.9462 118.427 41.0332 118.171 41.194 117.963C41.2883 117.841 41.4058 117.739 41.5397 117.662C41.6737 117.586 41.8215 117.537 41.9745 117.518C42.1276 117.498 42.283 117.51 42.4316 117.551C42.5802 117.592 42.7192 117.663 42.8405 117.758C42.9816 117.869 43.0956 118.01 43.174 118.172C43.2524 118.333 43.293 118.51 43.2928 118.69H40.9468Z" fill="#6C2C19"/>
<path d="M43.2913 1.46554C43.2921 1.72856 43.2051 1.98433 43.044 2.19226C42.9497 2.31408 42.8322 2.41601 42.6982 2.49217C42.5643 2.56832 42.4166 2.6172 42.2636 2.63599C42.1107 2.65477 41.9556 2.64308 41.8072 2.6016C41.6588 2.56012 41.5201 2.48966 41.3991 2.3943C41.2578 2.28359 41.1437 2.14212 41.0653 1.98067C40.9869 1.81921 40.9464 1.642 40.9468 1.46252L43.2913 1.46554Z" fill="#6C2C19"/>
<path d="M82.7517 61.8184V60.7509C82.9285 60.7192 83.0885 60.6263 83.2038 60.4885C83.3191 60.3507 83.3822 60.1767 83.3822 59.9971C83.3822 59.8174 83.3191 59.6435 83.2038 59.5057C83.0885 59.3679 82.9285 59.275 82.7517 59.2432V58.1757C82.8584 58.1442 82.9521 58.079 83.0187 57.9899C83.0853 57.9008 83.1213 57.7925 83.1213 57.6812C83.1213 57.5699 83.0853 57.4616 83.0187 57.3725C82.9521 57.2834 82.8584 57.2182 82.7517 57.1867V7.92319H80.769V6.00084C80.7682 5.32675 80.5002 4.68049 80.0237 4.2037C79.5472 3.72691 78.9011 3.4585 78.227 3.4573H76.463V1.31482H44.2956C44.2556 1.31482 44.2173 1.3307 44.189 1.35898C44.1607 1.38725 44.1448 1.4256 44.1448 1.46559C44.1304 1.99326 43.9107 2.49447 43.5324 2.8626C43.1541 3.23073 42.647 3.43671 42.1192 3.43671C41.5913 3.43671 41.0843 3.23073 40.706 2.8626C40.3277 2.49447 40.108 1.99326 40.0936 1.46559C40.0936 1.4256 40.0777 1.38725 40.0494 1.35898C40.0211 1.3307 39.9828 1.31482 39.9428 1.31482H7.77692V3.46032H6.01289C5.33869 3.46111 4.69234 3.7294 4.21575 4.20627C3.73915 4.68315 3.47124 5.32965 3.47085 6.00385V7.9262H1.4882V57.1927C1.38148 57.2242 1.2878 57.2894 1.22118 57.3785C1.15456 57.4677 1.11857 57.576 1.11857 57.6872C1.11857 57.7985 1.15456 57.9068 1.22118 57.9959C1.2878 58.0851 1.38148 58.1503 1.4882 58.1818V59.2492C1.31137 59.281 1.15133 59.3739 1.03606 59.5117C0.920804 59.6495 0.857666 59.8234 0.857666 60.0031C0.857666 60.1827 0.920804 60.3567 1.03606 60.4945C1.15133 60.6323 1.31137 60.7252 1.4882 60.757V61.8244C1.38123 61.8555 1.28724 61.9204 1.22035 62.0094C1.15346 62.0985 1.11729 62.2068 1.11729 62.3182C1.11729 62.4296 1.15346 62.5379 1.22035 62.627C1.28724 62.716 1.38123 62.781 1.4882 62.812V112.133H3.47085V114.055C3.47124 114.729 3.7392 115.376 4.21584 115.852C4.69247 116.329 5.33882 116.597 6.01289 116.597H7.77692V118.744H39.9443C39.9843 118.744 40.0226 118.728 40.0509 118.7C40.0792 118.672 40.0951 118.633 40.0951 118.593C40.1095 118.066 40.3292 117.564 40.7075 117.196C41.0858 116.828 41.5928 116.622 42.1207 116.622C42.6485 116.622 43.1556 116.828 43.5339 117.196C43.9122 117.564 44.1319 118.066 44.1463 118.593C44.1463 118.633 44.1622 118.672 44.1905 118.7C44.2188 118.728 44.2571 118.744 44.2971 118.744H76.4645V116.6H78.2285C78.9024 116.599 79.5486 116.331 80.0251 115.855C80.5017 115.378 80.7697 114.732 80.7705 114.058V112.133H82.7532V62.806C82.8593 62.774 82.9523 62.7088 83.0184 62.6198C83.0846 62.5309 83.1203 62.423 83.1203 62.3122C83.1203 62.2014 83.0846 62.0935 83.0184 62.0045C82.9523 61.9156 82.8593 61.8503 82.7532 61.8184H82.7517ZM82.4501 57.1113V57.1927C82.3434 57.2242 82.2497 57.2894 82.1831 57.3785C82.1165 57.4677 82.0805 57.576 82.0805 57.6872C82.0805 57.7985 82.1165 57.9068 82.1831 57.9959C82.2497 58.0851 82.3434 58.1503 82.4501 58.1818V59.2492C82.2733 59.281 82.1133 59.3739 81.998 59.5117C81.8827 59.6495 81.8196 59.8234 81.8196 60.0031C81.8196 60.1827 81.8827 60.3567 81.998 60.4945C82.1133 60.6323 82.2733 60.7252 82.4501 60.757V61.8244C82.3432 61.8555 82.2492 61.9204 82.1823 62.0094C82.1154 62.0985 82.0792 62.2068 82.0792 62.3182C82.0792 62.4296 82.1154 62.5379 82.1823 62.627C82.2492 62.716 82.3432 62.781 82.4501 62.812V111.831H80.4675V114.055C80.4667 114.649 80.2304 115.218 79.8104 115.638C79.3904 116.058 78.821 116.295 78.227 116.296H76.1614V118.443H44.4388C44.4019 117.853 44.1416 117.299 43.7108 116.894C43.28 116.489 42.7111 116.264 42.1199 116.264C41.5288 116.264 40.9599 116.489 40.5291 116.894C40.0983 117.299 39.8379 117.853 39.801 118.443H8.07847V116.299H6.01289C5.4188 116.298 4.84914 116.062 4.42906 115.642C4.00897 115.222 3.77279 114.652 3.77239 114.058V111.831H1.78974V62.806C1.89587 62.774 1.98887 62.7088 2.055 62.6198C2.12112 62.5309 2.15683 62.423 2.15683 62.3122C2.15683 62.2014 2.12112 62.0935 2.055 62.0045C1.98887 61.9156 1.89587 61.8503 1.78974 61.8184V60.7509C1.96657 60.7192 2.1266 60.6263 2.24186 60.4885C2.35712 60.3507 2.42028 60.1767 2.42028 59.9971C2.42028 59.8174 2.35712 59.6435 2.24186 59.5057C2.1266 59.3679 1.96657 59.275 1.78974 59.2432V58.1757C1.89647 58.1442 1.99013 58.079 2.05674 57.9899C2.12336 57.9008 2.15935 57.7925 2.15935 57.6812C2.15935 57.5699 2.12336 57.4616 2.05674 57.3725C1.99013 57.2834 1.89647 57.2182 1.78974 57.1867V8.22473H3.77239V6.00084C3.77279 5.40661 4.00892 4.83681 4.42897 4.41648C4.84901 3.99616 5.41866 3.75964 6.01289 3.75884H8.07847V1.61636H39.801C39.8379 2.20634 40.0983 2.76007 40.5291 3.16481C40.9599 3.56955 41.5288 3.79487 42.1199 3.79487C42.7111 3.79487 43.28 3.56955 43.7108 3.16481C44.1416 2.76007 44.4019 2.20634 44.4388 1.61636H76.1614V3.76186H78.227C78.8212 3.76266 79.3909 3.99917 79.8109 4.4195C80.231 4.83982 80.4671 5.40962 80.4675 6.00385V8.22775H82.4501V57.1113Z" fill="#6C2C19"/>
<path d="M2.5331 55.9035C2.49311 55.9035 2.45477 55.8876 2.4265 55.8593C2.39822 55.8311 2.38232 55.7927 2.38232 55.7527V27.4813C2.38232 27.4414 2.39822 27.403 2.4265 27.3747C2.45477 27.3465 2.49311 27.3306 2.5331 27.3306C2.57308 27.3306 2.61144 27.3465 2.63972 27.3747C2.66799 27.403 2.68387 27.4414 2.68387 27.4813V55.7527C2.68387 55.7927 2.66799 55.8311 2.63972 55.8593C2.61144 55.8876 2.57308 55.9035 2.5331 55.9035Z" fill="#6C2C19"/>
<path d="M2.5331 92.879C2.49311 92.879 2.45477 92.8631 2.4265 92.8348C2.39822 92.8065 2.38232 92.7682 2.38232 92.7282V64.4568C2.38232 64.4168 2.39822 64.3785 2.4265 64.3502C2.45477 64.3219 2.49311 64.306 2.5331 64.306C2.57308 64.306 2.61144 64.3219 2.63972 64.3502C2.66799 64.3785 2.68387 64.4168 2.68387 64.4568V92.7282C2.68387 92.7682 2.66799 92.8065 2.63972 92.8348C2.61144 92.8631 2.57308 92.879 2.5331 92.879Z" fill="#6C2C19"/>
<path d="M81.7067 55.9035C81.6667 55.9035 81.6283 55.8876 81.6 55.8593C81.5718 55.8311 81.5559 55.7927 81.5559 55.7527V27.4813C81.5559 27.4414 81.5718 27.403 81.6 27.3747C81.6283 27.3465 81.6667 27.3306 81.7067 27.3306C81.7467 27.3306 81.785 27.3465 81.8133 27.3747C81.8416 27.403 81.8575 27.4414 81.8575 27.4813V55.7527C81.8575 55.7927 81.8416 55.8311 81.8133 55.8593C81.785 55.8876 81.7467 55.9035 81.7067 55.9035Z" fill="#6C2C19"/>
<path d="M81.7067 92.879C81.6667 92.879 81.6283 92.8631 81.6 92.8348C81.5718 92.8065 81.5559 92.7682 81.5559 92.7282V64.4568C81.5559 64.4168 81.5718 64.3785 81.6 64.3502C81.6283 64.3219 81.6667 64.306 81.7067 64.306C81.7467 64.306 81.785 64.3219 81.8133 64.3502C81.8416 64.3785 81.8575 64.4168 81.8575 64.4568V92.7282C81.8575 92.7682 81.8416 92.8065 81.8133 92.8348C81.785 92.8631 81.7467 92.879 81.7067 92.879Z" fill="#6C2C19"/>
<path d="M69.2995 73.8485C68.1072 72.8524 67.2863 71.4827 66.9701 69.9616C66.9709 69.9556 66.9709 69.9495 66.9701 69.9435C66.9668 69.9296 66.9611 69.9163 66.9535 69.9043C66.9478 69.8974 66.9418 69.8908 66.9354 69.8847C66.9263 69.8847 66.9203 69.8681 66.9097 69.8606C66.8996 69.8551 66.889 69.8506 66.8781 69.847C66.8704 69.8431 66.8623 69.8401 66.854 69.838C66.8435 69.8364 66.8328 69.8364 66.8223 69.838C66.8123 69.8364 66.8021 69.8364 66.7921 69.838C66.783 69.8399 66.7743 69.8435 66.7665 69.8485C66.7559 69.8509 66.7457 69.855 66.7363 69.8606C66.7266 69.8683 66.7175 69.8769 66.7092 69.8862C66.7033 69.8919 66.6978 69.8979 66.6926 69.9043C66.6842 69.9167 66.6781 69.9305 66.6745 69.945C66.6737 69.9505 66.6737 69.9561 66.6745 69.9616C66.3582 71.4827 65.5374 72.8524 64.3451 73.8485C64.3248 73.865 64.3091 73.8864 64.2996 73.9107C64.2901 73.935 64.2871 73.9614 64.2908 73.9872C64.2868 74.0133 64.2897 74.04 64.2992 74.0646C64.3087 74.0892 64.3246 74.1109 64.3451 74.1274C65.5374 75.1235 66.3582 76.4932 66.6745 78.0144C66.6774 78.0333 66.6846 78.0514 66.6956 78.0671L66.7047 78.0777C66.7136 78.0893 66.7237 78.0999 66.7348 78.1094C66.7406 78.113 66.7466 78.116 66.7529 78.1184C66.7642 78.1255 66.7764 78.1311 66.7891 78.135H66.7982C66.8087 78.1365 66.8193 78.1365 66.8298 78.135C66.8403 78.1365 66.851 78.1365 66.8615 78.135H66.8705C66.8833 78.1311 66.8954 78.1255 66.9067 78.1184L66.9248 78.1094C66.936 78.0999 66.9461 78.0893 66.955 78.0777L66.964 78.0671C66.975 78.0514 66.9822 78.0333 66.9851 78.0144C67.3014 76.4932 68.1222 75.1235 69.3145 74.1274C69.3351 74.1109 69.3509 74.0892 69.3604 74.0646C69.3699 74.04 69.3728 74.0133 69.3688 73.9872C69.3709 73.96 69.3656 73.9327 69.3534 73.9083C69.3412 73.8838 69.3225 73.8632 69.2995 73.8485ZM66.8132 77.3374C66.4242 76.04 65.6769 74.8787 64.6572 73.9872C65.6768 73.0963 66.4242 71.9355 66.8132 70.6386C67.2031 71.9355 67.9509 73.0962 68.9708 73.9872C67.9512 74.8791 67.2034 76.0402 66.8132 77.3374Z" fill="#6C2C19"/>
<path d="M73.3976 84.1765C72.602 83.5472 72.0481 82.6626 71.8295 81.6721C71.8272 81.6648 71.8241 81.6578 71.8205 81.651C71.8164 81.6391 71.8113 81.6275 71.8054 81.6163C71.7991 81.6086 71.7921 81.6015 71.7843 81.5952C71.7779 81.5871 71.7703 81.5799 71.7617 81.5741C71.7503 81.5662 71.7375 81.5606 71.724 81.5575L71.7074 81.55C71.6954 81.5485 71.6832 81.5485 71.6712 81.55C71.6617 81.5484 71.6521 81.5484 71.6426 81.55C71.6353 81.5524 71.6282 81.5554 71.6215 81.559C71.6099 81.5628 71.5987 81.5679 71.5883 81.5741C71.58 81.5804 71.5725 81.5874 71.5657 81.5952C71.5583 81.6019 71.5512 81.6089 71.5446 81.6163C71.5386 81.6275 71.5336 81.6391 71.5295 81.651C71.5295 81.651 71.5295 81.6646 71.5205 81.6721C71.3025 82.6628 70.7484 83.5477 69.9524 84.1765C69.9343 84.1943 69.9199 84.2155 69.9101 84.2389C69.9003 84.2624 69.8953 84.2875 69.8953 84.3129C69.8953 84.3383 69.9003 84.3634 69.9101 84.3869C69.9199 84.4103 69.9343 84.4315 69.9524 84.4494C70.7484 85.0782 71.3025 85.963 71.5205 86.9537C71.5248 86.9725 71.5325 86.9903 71.5431 87.0065C71.5523 87.0215 71.5646 87.0343 71.5792 87.0441C71.5839 87.0477 71.589 87.0507 71.5943 87.0532C71.6058 87.0608 71.6186 87.0665 71.632 87.0698C71.6435 87.0713 71.6552 87.0713 71.6667 87.0698H71.6999H71.7074C71.7208 87.0665 71.7336 87.0608 71.7451 87.0532C71.7504 87.0507 71.7555 87.0477 71.7602 87.0441C71.7749 87.0339 71.7877 87.0212 71.7979 87.0065C71.8074 86.9899 71.8144 86.9722 71.819 86.9537C72.0376 85.9632 72.5914 85.0786 73.387 84.4494C73.4051 84.4315 73.4195 84.4103 73.4293 84.3869C73.4391 84.3634 73.4442 84.3383 73.4442 84.3129C73.4442 84.2875 73.4391 84.2624 73.4293 84.2389C73.4195 84.2155 73.4051 84.1943 73.387 84.1765H73.3976ZM71.6727 86.3506C71.3972 85.5605 70.9164 84.858 70.2796 84.3152C70.9161 83.7715 71.3969 83.0686 71.6727 82.2782C71.9486 83.0686 72.4294 83.7715 73.0659 84.3152C72.4291 84.858 71.9483 85.5605 71.6727 86.3506Z" fill="#6C2C19"/>
<path d="M68.0422 93.6434C68.2312 93.6434 68.3845 93.4901 68.3845 93.3011C68.3845 93.1121 68.2312 92.9589 68.0422 92.9589C67.8532 92.9589 67.7 93.1121 67.7 93.3011C67.7 93.4901 67.8532 93.6434 68.0422 93.6434Z" fill="#6C2C19"/>
<path d="M64.8187 89.4172C64.6398 89.4172 64.4649 89.3641 64.3161 89.2647C64.1673 89.1653 64.0514 89.024 63.9829 88.8587C63.9144 88.6934 63.8965 88.5115 63.9315 88.3361C63.9664 88.1606 64.0525 87.9994 64.179 87.8729C64.3055 87.7464 64.4667 87.6602 64.6422 87.6253C64.8177 87.5904 64.9996 87.6083 65.1649 87.6768C65.3302 87.7452 65.4715 87.8612 65.5709 88.01C65.6703 88.1587 65.7233 88.3336 65.7233 88.5126C65.7233 88.7525 65.628 88.9826 65.4584 89.1522C65.2887 89.3219 65.0586 89.4172 64.8187 89.4172ZM64.8187 87.9095C64.6994 87.9095 64.5828 87.9448 64.4836 88.0111C64.3845 88.0774 64.3072 88.1716 64.2615 88.2818C64.2159 88.392 64.2039 88.5132 64.2272 88.6302C64.2505 88.7472 64.3079 88.8547 64.3922 88.939C64.4766 89.0233 64.584 89.0808 64.701 89.104C64.818 89.1273 64.9393 89.1154 65.0495 89.0697C65.1597 89.0241 65.2539 88.9468 65.3201 88.8476C65.3864 88.7484 65.4218 88.6318 65.4218 88.5126C65.4218 88.3526 65.3583 88.1992 65.2452 88.0861C65.1321 87.973 64.9787 87.9095 64.8187 87.9095Z" fill="#6C2C19"/>
<path d="M65.2979 98.5058C65.1733 98.5058 65.0515 98.4689 64.9478 98.3996C64.8442 98.3304 64.7634 98.2319 64.7157 98.1168C64.668 98.0016 64.6555 97.8749 64.6798 97.7526C64.7042 97.6304 64.7642 97.5181 64.8523 97.43C64.9404 97.3418 65.0527 97.2818 65.175 97.2575C65.2973 97.2332 65.424 97.2456 65.5391 97.2933C65.6543 97.341 65.7527 97.4218 65.822 97.5255C65.8912 97.6291 65.9282 97.7509 65.9282 97.8756C65.9282 98.0427 65.8618 98.203 65.7436 98.3212C65.6254 98.4394 65.4651 98.5058 65.2979 98.5058ZM65.2979 97.5469C65.2329 97.5469 65.1694 97.5662 65.1153 97.6023C65.0613 97.6384 65.0191 97.6898 64.9943 97.7498C64.9694 97.8099 64.9629 97.876 64.9756 97.9397C64.9882 98.0035 65.0196 98.062 65.0655 98.108C65.1115 98.154 65.1701 98.1853 65.2338 98.198C65.2976 98.2106 65.3637 98.2041 65.4237 98.1793C65.4838 98.1544 65.5351 98.1122 65.5712 98.0582C65.6073 98.0041 65.6266 97.9406 65.6266 97.8756C65.6262 97.7885 65.5915 97.7052 65.5299 97.6436C65.4684 97.5821 65.385 97.5473 65.2979 97.5469Z" fill="#6C2C19"/>
<path d="M74.4712 15.2144L75.2643 14.6807L74.141 14.6641L74.3792 13.963L73.853 14.3445L73.5333 13.3584L73.1534 14.3113L72.6091 13.9117L72.8097 14.6596L71.6472 14.6505L72.5579 15.2958L72.0211 15.6909L72.6498 15.6863L72.199 16.8307L73.2469 16.1537L73.4474 16.888L73.7279 16.1145L74.6838 16.7417L74.3521 15.6562L75.0139 15.6275L74.4712 15.2144Z" fill="#6C2C19"/>
<path d="M15.6743 10.6083L16.4659 10.0746L15.3426 10.058L15.5809 9.35692L15.0547 9.73837L14.735 8.75232L14.3551 9.7052L13.8108 9.30565L14.0113 10.0535L12.8489 10.0444L13.7595 10.6897L13.2228 11.0848L13.853 11.0803L13.4007 12.2261L14.4501 11.5476L14.6506 12.2819L14.9295 11.5084L15.8854 12.1357L15.5553 11.0501L16.2171 11.0214L15.6743 10.6083Z" fill="#6C2C19"/>
<path d="M10.1709 23.3109L9.54674 22.6958L10.1634 22.0746C10.1881 22.0457 10.201 22.0086 10.1995 21.9707C10.1981 21.9327 10.1823 21.8967 10.1555 21.8699C10.1286 21.843 10.0926 21.8273 10.0547 21.8258C10.0167 21.8244 9.97966 21.8373 9.95082 21.862L9.33114 22.4847L8.70543 21.8695C8.67718 21.8414 8.63896 21.8257 8.59913 21.8257C8.55929 21.8257 8.52109 21.8414 8.49284 21.8695C8.47871 21.8835 8.46749 21.9002 8.45984 21.9186C8.45218 21.937 8.44824 21.9567 8.44824 21.9766C8.44824 21.9965 8.45218 22.0162 8.45984 22.0346C8.46749 22.0529 8.47871 22.0696 8.49284 22.0836L9.11704 22.6973L8.50038 23.3185C8.48625 23.3325 8.47502 23.3491 8.46736 23.3675C8.45971 23.3859 8.45577 23.4056 8.45577 23.4255C8.45577 23.4454 8.45971 23.4651 8.46736 23.4835C8.47502 23.5019 8.48625 23.5185 8.50038 23.5326C8.51447 23.5465 8.53117 23.5576 8.54954 23.5651C8.56791 23.5726 8.58758 23.5764 8.60743 23.5763C8.62737 23.5762 8.6471 23.5722 8.66547 23.5644C8.68385 23.5566 8.7005 23.5453 8.71447 23.531L9.33263 22.9084L9.95834 23.5235C9.98659 23.5516 10.0248 23.5673 10.0647 23.5673C10.1045 23.5673 10.1427 23.5516 10.1709 23.5235C10.199 23.4953 10.2148 23.457 10.2148 23.4172C10.2148 23.3774 10.199 23.3392 10.1709 23.3109Z" fill="#6C2C19"/>
<path d="M75.311 57.8093C75.5 57.8093 75.6533 57.656 75.6533 57.467C75.6533 57.278 75.5 57.1248 75.311 57.1248C75.122 57.1248 74.9688 57.278 74.9688 57.467C74.9688 57.656 75.122 57.8093 75.311 57.8093Z" fill="#6C2C19"/>
<path d="M19.4722 104.979L21.6418 104.597L19.4842 104.169L20.7613 102.378L18.8917 103.607L18.4545 101.414L18.076 103.581L16.2562 102.346L17.5091 104.158L15.344 104.528L17.5197 104.948L16.2245 106.747L18.1016 105.5L18.5329 107.711L18.9022 105.527L20.7296 106.779L19.4722 104.979Z" fill="#6C2C19"/>
<path d="M69.8032 102.718C71.2521 103.552 71.6276 104.075 72.2925 106.507C72.7358 104.683 73.271 103.326 74.6385 102.632C73.0991 101.674 72.8006 100.312 72.3166 98.9551C71.6562 100.804 71.1768 101.79 69.8032 102.718Z" fill="#6C2C19"/>
<path d="M55.1435 78.6838L55.9351 78.15L54.8134 78.135L55.0516 77.4339L54.5254 77.8138L54.2057 76.8278L53.8258 77.7806L53.28 77.3811L53.482 78.1289L52.3196 78.1214L53.2303 78.7652L52.6935 79.1602L53.3222 79.1557L52.8699 80.3016L53.9193 79.6231L54.1198 80.3573L54.3987 79.5839L55.3547 80.2111L55.0245 79.1255L55.6863 79.0969L55.1435 78.6838Z" fill="#6C2C19"/>
<path d="M43.2912 73.4037C27.5882 73.4037 14.8132 60.6287 14.8132 44.9257C14.8132 29.2227 27.5882 16.4478 43.2912 16.4478C58.9942 16.4478 71.7691 29.2227 71.7691 44.9257C71.7691 60.6287 58.9942 73.4037 43.2912 73.4037ZM43.2912 16.9785C27.8822 16.9785 15.3439 29.5152 15.3439 44.9257C15.3439 60.3362 27.8822 72.8729 43.2912 72.8729C58.7002 72.8729 71.2384 60.3362 71.2384 44.9257C71.2384 29.5152 58.7017 16.9785 43.2912 16.9785Z" fill="#6C2C19"/>
<path d="M53.5669 50.5169C53.7034 50.5722 53.8232 50.6623 53.9141 50.7784L53.9218 50.7882L53.9284 50.7987C54.0181 50.9403 54.0271 51.0925 54.011 51.2174C53.9953 51.3398 53.9531 51.4554 53.9173 51.5436L53.9169 51.5445C53.8864 51.6191 53.8547 51.6933 53.8238 51.7658L53.8233 51.7669C53.6691 52.1285 53.5361 52.4464 53.5144 52.7778C53.488 53.1805 53.6718 53.5621 53.9581 53.6726L54.612 53.9249L53.9459 54.1433C53.7605 54.2042 53.5997 54.3233 53.4875 54.483C53.3757 54.642 53.3182 54.8328 53.3233 55.0271C53.3328 55.2171 53.4017 55.4021 53.4902 55.6321L53.4934 55.6404C53.5542 55.7986 53.6238 55.9794 53.6623 56.1708L53.6624 56.171C53.8088 56.9013 53.4906 57.6118 53.1361 58.1644C53.0293 58.3309 52.9154 58.4928 52.8051 58.6496L52.8035 58.6519C52.5422 59.0233 52.302 59.3667 52.1492 59.749C51.9336 60.2888 51.936 60.9646 52.1324 61.3949L52.1818 61.5031L52.129 61.6097C51.4106 63.0599 49.7189 64.3996 47.4631 65.4315C45.1981 66.4676 42.3276 67.2106 39.1975 67.4431C33.5953 67.8592 27.1316 66.6414 21.8012 62.5031C22.3524 63.1667 22.939 63.8108 23.5612 64.4329C34.4806 75.3524 52.1846 75.3523 63.1041 64.4329C74.0236 53.5134 74.0236 35.8094 63.1041 24.8899C52.1846 13.9705 34.4807 13.9704 23.5612 24.8899C23.2205 25.2306 22.8904 25.5779 22.571 25.9313C25.5852 23.6055 30.6872 20.8596 37.801 21.1388C40.6916 21.2523 44.5152 22.0397 47.6901 23.9678C50.8738 25.9013 53.4124 28.9891 53.6789 33.6805M53.5669 50.5169L53.4293 33.6947M53.5669 50.5169L53.473 50.4708L53.3631 50.6954M53.5669 50.5169L53.3631 50.6954M53.6789 33.6805L53.4293 33.6947M53.6789 33.6805C53.6789 33.6805 53.6789 33.6805 53.6789 33.6804L53.4293 33.6947M53.6789 33.6805C53.7125 34.2668 53.7122 34.8615 53.712 35.448V35.4516C53.7113 37.1236 53.7154 38.7214 54.4296 40.1104L54.4297 40.1106C54.5842 40.4117 54.7703 40.6971 54.9596 40.9869L54.9668 40.998C55.1935 41.3451 55.4279 41.704 55.5824 42.075L55.6152 42.1537L55.5931 42.2361C55.1351 43.9382 54.0685 45.3725 53.0423 46.7524L53.0282 46.7715C52.7528 47.1418 52.4801 47.5085 52.2194 47.8786L52.2152 47.8846L52.2107 47.8903C52.0486 48.0941 51.9284 48.3279 51.857 48.5783M53.4293 33.6947C53.4625 34.2737 53.4622 34.8625 53.462 35.4515C53.4613 37.111 53.4606 38.7725 54.2073 40.2247C54.3687 40.5393 54.5621 40.8356 54.7503 41.1237C54.9822 41.4788 55.206 41.8215 55.3517 42.1712C54.9061 43.8272 53.8636 45.2291 52.8276 46.6223C52.5525 46.9922 52.2779 47.3614 52.015 47.7347C51.8305 47.9667 51.6942 48.2333 51.614 48.5187M51.857 48.5783C51.8575 48.5757 51.858 48.5732 51.8585 48.5706L51.614 48.5187M51.857 48.5783C51.8562 48.5809 51.8554 48.5836 51.8547 48.5863L51.614 48.5187M51.857 48.5783C51.777 48.9723 51.9743 49.4114 52.314 49.7457C52.6284 50.055 53.0304 50.2542 53.473 50.4708L53.3631 50.6954M51.614 48.5187C51.5054 49.0298 51.7633 49.5545 52.1387 49.9239C52.4868 50.2664 52.927 50.4819 53.3631 50.6954M21.626 27.0328C21.2443 27.3679 20.9143 27.6812 20.6362 27.9593C20.2924 28.5705 19.9493 29.142 19.6102 29.707C18.6107 31.3717 17.6456 32.9792 16.7991 35.3758L21.626 27.0328Z" stroke="#6C2C19" stroke-width="0.5"/>
<path d="M57.3177 54.6627C56.2738 54.6624 55.2339 54.5348 54.2208 54.2827C53.8844 54.2097 53.5596 54.0904 53.2559 53.9284C53.2256 53.9111 53.199 53.888 53.1776 53.8604C53.1563 53.8328 53.1406 53.8013 53.1314 53.7676C53.1222 53.7339 53.1198 53.6988 53.1242 53.6641C53.1286 53.6295 53.1398 53.5961 53.1571 53.5658C53.1745 53.5355 53.1976 53.5089 53.2252 53.4876C53.2528 53.4662 53.2843 53.4505 53.318 53.4413C53.3516 53.4322 53.3868 53.4297 53.4214 53.4341C53.456 53.4386 53.4894 53.4497 53.5197 53.4671C53.7811 53.6049 54.0601 53.7063 54.349 53.7686C55.3539 54.0181 56.3863 54.1401 57.4217 54.132C57.4921 54.132 57.5596 54.1599 57.6094 54.2097C57.6591 54.2595 57.6871 54.327 57.6871 54.3973C57.6871 54.4677 57.6591 54.5352 57.6094 54.585C57.5596 54.6347 57.4921 54.6627 57.4217 54.6627H57.3177Z" fill="#6C2C19"/>
<path d="M59.7647 55.7663H59.7511C59.6806 55.7624 59.6145 55.7307 59.5673 55.6781C59.5201 55.6255 59.4957 55.5564 59.4994 55.4858C59.5416 54.6973 59.2234 53.8273 58.5254 52.8398C58.3444 52.5834 58.1484 52.3271 57.9585 52.0859C57.5066 51.5315 57.1088 50.9353 56.7704 50.3053C56.7392 50.2421 56.7344 50.1691 56.757 50.1024C56.7796 50.0356 56.8278 49.9806 56.891 49.9494C56.9542 49.9183 57.0271 49.9134 57.0939 49.9361C57.1606 49.9587 57.2156 50.0069 57.2468 50.0701C57.5692 50.6698 57.9488 51.2368 58.3806 51.7632C58.5721 52.015 58.7726 52.2759 58.9581 52.5412C59.7285 53.6343 60.0783 54.6083 60.0301 55.5205C60.0248 55.5873 59.9945 55.6497 59.9454 55.6952C59.8962 55.7407 59.8317 55.7661 59.7647 55.7663Z" fill="#6C2C19"/>
<path d="M54.4154 51.3321C53.886 51.3316 53.3648 51.2017 52.8971 50.9537C52.8662 50.9377 52.8388 50.9157 52.8165 50.889C52.7942 50.8622 52.7775 50.8314 52.7672 50.7981C52.757 50.7648 52.7535 50.7299 52.7569 50.6952C52.7603 50.6606 52.7705 50.627 52.7871 50.5964C52.8201 50.5342 52.8763 50.4876 52.9435 50.4667C53.0107 50.4458 53.0834 50.4523 53.1459 50.4848C53.5369 50.6923 53.9727 50.801 54.4154 50.8014H54.4229C54.6988 50.8214 54.9726 50.7405 55.1934 50.5738C55.4949 50.3084 55.5025 49.7958 55.4949 49.4324C55.4966 49.365 55.5238 49.3007 55.5711 49.2527C55.6184 49.2046 55.6823 49.1764 55.7496 49.1737C55.817 49.171 55.8829 49.1941 55.9339 49.2382C55.9849 49.2823 56.0171 49.3442 56.0241 49.4113C56.0422 49.8802 56.0136 50.5511 55.5552 50.9658C55.2387 51.223 54.8377 51.3531 54.4305 51.3306L54.4154 51.3321Z" fill="#6C2C19"/>
<path d="M59.7586 43.6533C58.5818 43.6536 57.4198 43.3914 56.3571 42.8858C56.3256 42.8709 56.2974 42.8499 56.274 42.824C56.2507 42.7982 56.2327 42.768 56.221 42.7351C56.2093 42.7023 56.2041 42.6675 56.2059 42.6327C56.2077 42.5979 56.2163 42.5638 56.2312 42.5323C56.2462 42.5008 56.2672 42.4726 56.293 42.4492C56.3189 42.4258 56.3491 42.4078 56.3819 42.3961C56.4148 42.3844 56.4496 42.3793 56.4844 42.3811C56.5192 42.3828 56.5533 42.3914 56.5848 42.4064C58.1193 43.1282 59.8536 43.3069 61.503 42.913C61.5371 42.904 61.5727 42.9018 61.6077 42.9068C61.6426 42.9117 61.6762 42.9235 61.7066 42.9416C61.7369 42.9596 61.7633 42.9835 61.7843 43.012C61.8053 43.0404 61.8203 43.0727 61.8287 43.107C61.837 43.1413 61.8384 43.1769 61.8328 43.2117C61.8272 43.2466 61.8147 43.28 61.796 43.3099C61.7773 43.3399 61.7528 43.3658 61.724 43.3862C61.6952 43.4066 61.6626 43.421 61.6281 43.4286C61.0162 43.5784 60.3885 43.6538 59.7586 43.6533Z" fill="#6C2C19"/>
<path d="M62.5226 40.3331C62.6975 40.0316 60.751 38.8058 59.5659 38.3897C58.3808 37.9736 56.8068 37.7399 55.5719 37.9871C55.1061 38.0806 55.3247 39.0214 55.6051 39.3305C55.9066 39.6637 57.2636 39.3486 59.0955 39.5401C61.3405 39.7753 62.3748 40.5864 62.5226 40.3331Z" fill="#6C2C19"/>
<path d="M40.3693 72.1628H40.3376C35.0255 71.5267 29.9948 69.4261 25.8077 66.0957C25.7804 66.0739 25.7577 66.047 25.7409 66.0165C25.7241 65.9859 25.7135 65.9524 25.7096 65.9177C25.7058 65.8831 25.7088 65.848 25.7185 65.8145C25.7282 65.781 25.7444 65.7498 25.7662 65.7226C25.788 65.6953 25.8149 65.6727 25.8454 65.6559C25.876 65.639 25.9095 65.6284 25.9442 65.6245C25.9788 65.6207 26.0139 65.6237 26.0474 65.6334C26.0809 65.6431 26.1121 65.6593 26.1393 65.6811C30.249 68.9494 35.186 71.0113 40.3994 71.6366C40.4672 71.6439 40.5295 71.6768 40.5736 71.7288C40.6176 71.7807 40.64 71.8476 40.6362 71.9156C40.6323 71.9836 40.6024 72.0475 40.5528 72.0941C40.5031 72.1406 40.4374 72.1663 40.3693 72.1658V72.1628Z" fill="#6C2C19"/>
<path d="M43.5882 72.3514C43.0454 72.3514 42.5027 72.3348 41.9599 72.3016C41.9241 72.3009 41.8888 72.2929 41.8562 72.2782C41.8236 72.2635 41.7943 72.2424 41.77 72.216C41.7458 72.1897 41.7272 72.1587 41.7152 72.125C41.7032 72.0913 41.6982 72.0555 41.7005 72.0197C41.7027 71.984 41.7122 71.9491 41.7282 71.9172C41.7443 71.8852 41.7667 71.8568 41.794 71.8337C41.8213 71.8106 41.8531 71.7932 41.8873 71.7827C41.9215 71.7722 41.9574 71.7687 41.993 71.7724C47.9352 72.1332 53.8227 70.4568 58.6836 67.0201C58.7118 66.9998 58.7439 66.9852 58.7778 66.9773C58.8117 66.9694 58.8468 66.9683 58.8812 66.9741C58.9155 66.9798 58.9483 66.9923 58.9778 67.0108C59.0073 67.0293 59.0329 67.0535 59.053 67.0819C59.0936 67.1395 59.1097 67.2109 59.0978 67.2804C59.0859 67.3499 59.047 67.4119 58.9896 67.4528C54.485 70.6371 49.1048 72.3484 43.5882 72.3514Z" fill="#6C2C19"/>
<path d="M60.6256 66.0988C60.5717 66.0987 60.5192 66.0822 60.475 66.0515C60.4307 66.0208 60.3968 65.9774 60.3779 65.927C60.3589 65.8766 60.3557 65.8216 60.3687 65.7694C60.3817 65.7171 60.4103 65.6701 60.4507 65.6344C65.868 60.9183 68.5698 56.1358 69.7745 49.1399C69.7804 49.1056 69.7931 49.0727 69.8117 49.0433C69.8303 49.0138 69.8546 48.9883 69.8831 48.9682C69.9116 48.9481 69.9437 48.9338 69.9777 48.9262C70.0117 48.9185 70.047 48.9176 70.0813 48.9236C70.1157 48.9295 70.1485 48.9421 70.178 48.9608C70.2074 48.9794 70.2329 49.0037 70.253 49.0322C70.2731 49.0606 70.2874 49.0928 70.2951 49.1268C70.3027 49.1608 70.3036 49.196 70.2976 49.2304C69.0704 56.3619 66.3188 61.2304 60.799 66.034C60.751 66.0761 60.6894 66.0991 60.6256 66.0988Z" fill="#6C2C19"/>
<path d="M70.4742 47.5161H70.4636C70.3931 47.513 70.3267 47.482 70.2789 47.43C70.2312 47.378 70.206 47.3092 70.2088 47.2387C70.9265 29.9194 58.7742 22.4532 55.032 20.5775C55.0003 20.5623 54.9719 20.541 54.9485 20.5147C54.9251 20.4884 54.9072 20.4577 54.8957 20.4244C54.8843 20.3911 54.8796 20.3559 54.8819 20.3208C54.8842 20.2857 54.8935 20.2514 54.9092 20.2199C54.9249 20.1884 54.9467 20.1603 54.9734 20.1373C55 20.1143 55.031 20.0969 55.0644 20.086C55.0979 20.075 55.1332 20.0709 55.1683 20.0738C55.2033 20.0766 55.2375 20.0864 55.2688 20.1026C59.0833 22.0144 71.4708 29.6239 70.7396 47.2613C70.7368 47.3298 70.7076 47.3946 70.6582 47.4421C70.6087 47.4896 70.5428 47.5162 70.4742 47.5161Z" fill="#6C2C19"/>
<path d="M29.1186 21.9209C29.0728 21.9211 29.0277 21.9095 28.9878 21.887C28.9479 21.8645 28.9145 21.832 28.891 21.7927C28.8547 21.7325 28.8437 21.6603 28.8604 21.592C28.877 21.5237 28.92 21.4647 28.9799 21.4279C36.4989 16.8444 45.7157 16.0845 53.6478 19.397C53.68 19.4104 53.7092 19.4301 53.7338 19.4549C53.7584 19.4796 53.7778 19.509 53.7911 19.5412C53.8043 19.5735 53.811 19.6081 53.8109 19.6429C53.8108 19.6778 53.8038 19.7123 53.7903 19.7445C53.7769 19.7767 53.7572 19.8059 53.7324 19.8305C53.7077 19.855 53.6783 19.8745 53.6461 19.8877C53.6138 19.9009 53.5792 19.9077 53.5444 19.9076C53.5095 19.9074 53.4749 19.9004 53.4428 19.887C45.6734 16.6393 36.6316 17.3857 29.2558 21.8817C29.2144 21.9068 29.167 21.9203 29.1186 21.9209Z" fill="#6C2C19"/>
<path d="M43.5522 71.5055C39.455 71.5136 35.4129 70.5619 31.7497 68.7267C31.688 68.6943 31.6415 68.639 31.6203 68.5726C31.599 68.5062 31.6048 68.4341 31.6363 68.3719C31.6678 68.3097 31.7225 68.2624 31.7885 68.2403C31.8546 68.2181 31.9268 68.2227 31.9894 68.2533C35.3555 69.9328 39.0472 70.8584 42.8074 70.9656C46.5677 71.0729 50.3061 70.3593 53.7625 68.8745C53.7945 68.8606 53.8289 68.8532 53.8637 68.8526C53.8986 68.8521 53.9332 68.8584 53.9656 68.8712C53.998 68.884 54.0275 68.9031 54.0526 68.9273C54.0776 68.9515 54.0977 68.9805 54.1115 69.0125C54.1254 69.0444 54.1328 69.0788 54.1334 69.1137C54.134 69.1485 54.1276 69.1831 54.1148 69.2155C54.102 69.248 54.083 69.2775 54.0587 69.3026C54.0345 69.3276 54.0055 69.3476 53.9736 69.3615C50.6836 70.7834 47.1363 71.5132 43.5522 71.5055Z" fill="#6C2C19"/>
<path d="M55.3064 68.5714C55.2478 68.5714 55.1909 68.5521 55.1445 68.5163C55.0981 68.4806 55.0648 68.4305 55.0498 68.3739C55.0349 68.3173 55.039 68.2573 55.0617 68.2033C55.0844 68.1493 55.1243 68.1043 55.1752 68.0754C62.2887 64.0498 66.5329 58.6325 68.5307 51.0245C68.5485 50.9563 68.5926 50.898 68.6534 50.8624C68.7142 50.8268 68.7867 50.8167 68.8548 50.8345C68.923 50.8523 68.9813 50.8965 69.017 50.9573C69.0526 51.0181 69.0626 51.0905 69.0448 51.1587C67.0079 58.9144 62.6837 64.4372 55.4361 68.5368C55.3965 68.5591 55.3518 68.571 55.3064 68.5714Z" fill="#6C2C19"/>
<path d="M69.1973 49.5619H69.1581C69.1236 49.5569 69.0903 49.5452 69.0604 49.5273C69.0304 49.5094 69.0043 49.4857 68.9836 49.4577C68.9628 49.4296 68.9478 49.3978 68.9395 49.3639C68.9311 49.33 68.9296 49.2948 68.9349 49.2603C70.3959 39.3395 66.6477 29.8589 58.907 23.9019C58.8776 23.8814 58.8526 23.8551 58.8336 23.8247C58.8146 23.7943 58.8019 23.7603 58.7964 23.7248C58.7908 23.6894 58.7926 23.6532 58.8015 23.6184C58.8104 23.5836 58.8262 23.551 58.848 23.5226C58.8699 23.4941 58.8973 23.4703 58.9285 23.4528C58.9598 23.4352 58.9944 23.4241 59.03 23.4202C59.0657 23.4164 59.1018 23.4198 59.1361 23.4303C59.1704 23.4408 59.2023 23.4581 59.2297 23.4812C67.1257 29.5574 70.9508 39.2234 69.4596 49.3387C69.4496 49.4011 69.4176 49.4578 69.3696 49.4987C69.3215 49.5396 69.2604 49.562 69.1973 49.5619Z" fill="#6C2C19"/>
<path d="M47.8822 70.0957C47.8163 70.0952 47.7529 70.0701 47.7044 70.0254C47.6559 69.9807 47.6258 69.9195 47.6199 69.8538C47.6141 69.7881 47.6329 69.7226 47.6728 69.67C47.7127 69.6174 47.7707 69.5816 47.8355 69.5695C51.5671 68.8835 54.7017 67.5883 56.8985 65.8243C56.9534 65.7803 57.0236 65.76 57.0936 65.7677C57.1636 65.7755 57.2276 65.8108 57.2716 65.8658C57.3156 65.9207 57.336 65.9909 57.3282 66.0609C57.3204 66.1309 57.2851 66.1949 57.2302 66.2389C54.9686 68.0572 51.7496 69.3886 47.9305 70.0912C47.9146 70.0942 47.8984 70.0957 47.8822 70.0957Z" fill="#6C2C19"/>
<path d="M67.2491 53.461C67.2218 53.461 67.1948 53.4564 67.1691 53.4475C67.1359 53.437 67.105 53.4201 67.0783 53.3976C67.0515 53.3752 67.0295 53.3478 67.0134 53.3168C66.9973 53.2859 66.9874 53.252 66.9844 53.2173C66.9814 53.1825 66.9852 53.1475 66.9958 53.1142C68.2229 49.232 68.6033 45.1318 68.1115 41.0901C68.1029 41.0201 68.1224 40.9496 68.1658 40.8941C68.2092 40.8385 68.273 40.8025 68.3429 40.7939C68.4129 40.7853 68.4834 40.8048 68.539 40.8482C68.5945 40.8916 68.6306 40.9553 68.6392 41.0253C69.1383 45.1431 68.7507 49.32 67.5023 53.2756C67.4853 53.3294 67.4516 53.3764 67.4061 53.4098C67.3605 53.4431 67.3055 53.4611 67.2491 53.461Z" fill="#6C2C19"/>
<path d="M67.2415 37.0569C67.184 37.0569 67.1281 37.0382 67.0821 37.0037C67.0362 36.9692 67.0027 36.9206 66.9867 36.8654C66.0826 33.7892 64.565 30.9278 62.5254 28.4538C62.5031 28.427 62.4863 28.3961 62.476 28.3627C62.4657 28.3294 62.462 28.2944 62.4652 28.2597C62.4685 28.225 62.4785 28.1912 62.4947 28.1604C62.511 28.1295 62.5332 28.1022 62.56 28.0799C62.5869 28.0576 62.6178 28.0409 62.6511 28.0306C62.6844 28.0202 62.7194 28.0166 62.7542 28.0198C62.7889 28.023 62.8226 28.0331 62.8535 28.0493C62.8843 28.0656 62.9117 28.0878 62.9339 28.1146C65.0201 30.6453 66.5721 33.5724 67.4963 36.7192C67.5062 36.7528 67.5094 36.7879 67.5057 36.8227C67.5019 36.8575 67.4914 36.8912 67.4746 36.9219C67.4578 36.9526 67.435 36.9797 67.4077 37.0016C67.3804 37.0234 67.349 37.0397 67.3154 37.0494C67.2913 37.0556 67.2664 37.0581 67.2415 37.0569Z" fill="#6C2C19"/>
<path d="M64.3317 56.1205C64.2827 56.1209 64.2345 56.1076 64.1926 56.0821C64.1508 56.0567 64.1168 56.02 64.0946 55.9764C64.0724 55.9327 64.0628 55.8837 64.0668 55.8349C64.0709 55.786 64.0884 55.7393 64.1175 55.6999C64.9693 54.5212 65.588 53.1907 65.9404 51.7798C65.9487 51.7459 65.9636 51.7141 65.9842 51.686C66.0049 51.6579 66.0309 51.6341 66.0607 51.616C66.0905 51.598 66.1236 51.586 66.1581 51.5807C66.1925 51.5754 66.2277 51.577 66.2615 51.5853C66.2954 51.5936 66.3273 51.6085 66.3554 51.6292C66.3835 51.6498 66.4072 51.6758 66.4253 51.7056C66.4434 51.7354 66.4554 51.7685 66.4606 51.803C66.4659 51.8374 66.4643 51.8726 66.456 51.9064C66.0864 53.3833 65.4386 54.7762 64.5473 56.0105C64.5226 56.0446 64.4902 56.0724 64.4527 56.0915C64.4152 56.1107 64.3738 56.1206 64.3317 56.1205Z" fill="#6C2C19"/>
<path d="M67.0954 42.1817C67.0284 42.1812 66.9641 42.1554 66.9152 42.1096C66.8663 42.0638 66.8365 42.0013 66.8315 41.9345C66.6623 39.4987 66.1023 37.106 65.173 34.8481C65.157 34.8155 65.1478 34.7799 65.1461 34.7435C65.1443 34.7072 65.1501 34.6709 65.163 34.6369C65.1759 34.6028 65.1957 34.5718 65.2211 34.5458C65.2465 34.5197 65.2769 34.4991 65.3106 34.4853C65.3443 34.4716 65.3804 34.4649 65.4168 34.4656C65.4532 34.4664 65.489 34.4747 65.5221 34.4899C65.5552 34.5051 65.5847 34.527 65.609 34.5541C65.6332 34.5812 65.6516 34.6131 65.663 34.6476C66.6117 36.9535 67.1829 39.3972 67.3547 41.8847C67.3597 41.9549 67.3366 42.0242 67.2905 42.0773C67.2444 42.1305 67.1791 42.1631 67.109 42.1682L67.0954 42.1817Z" fill="#6C2C19"/>
<path d="M59.3773 64.7448C59.3229 64.7451 59.2697 64.7286 59.225 64.6977C59.1802 64.6667 59.1461 64.6227 59.1271 64.5717C59.1082 64.5207 59.1055 64.4651 59.1192 64.4125C59.1329 64.3598 59.1625 64.3127 59.2039 64.2774C62.2948 61.6268 64.4689 58.8903 65.666 56.1357C65.6799 56.1037 65.6999 56.0748 65.725 56.0505C65.75 56.0263 65.7796 56.0072 65.812 55.9944C65.8444 55.9816 65.879 55.9753 65.9139 55.9759C65.9487 55.9764 65.9831 55.9839 66.0151 55.9977C66.047 56.0116 66.076 56.0316 66.1002 56.0566C66.1245 56.0817 66.1435 56.1113 66.1563 56.1437C66.1691 56.1761 66.1755 56.2107 66.1749 56.2455C66.1743 56.2804 66.1669 56.3148 66.153 56.3468C64.9242 59.1692 62.7018 61.9691 59.5492 64.6739C59.5022 64.7174 59.4412 64.7425 59.3773 64.7448Z" fill="#6C2C19"/>
<path d="M29.6238 49.755C31.335 48.7719 31.7783 48.1522 32.5638 45.28C33.087 47.4361 33.7203 49.0373 35.3351 49.8575C33.5167 50.9913 33.164 52.5985 32.5925 54.2012C31.8115 52.0181 31.2461 50.8526 29.6238 49.755Z" fill="#6C2C19"/>
<path d="M35.335 36.5715C36.419 35.9955 36.6919 35.6337 37.197 33.9556C37.5287 35.2145 37.9298 36.1508 38.952 36.6303C37.8001 37.2937 37.5769 38.233 37.2151 39.1693C36.7251 37.8938 36.3617 37.2123 35.335 36.5715Z" fill="#6C2C19"/>
<path d="M29.6238 30.6356C29.6238 30.5163 29.6592 30.3997 29.7254 30.3005C29.7917 30.2013 29.8859 30.124 29.9961 30.0784C30.1063 30.0327 30.2276 30.0208 30.3446 30.0441C30.4615 30.0673 30.569 30.1248 30.6533 30.2091C30.7377 30.2935 30.7951 30.4009 30.8184 30.5179C30.8417 30.6349 30.8297 30.7562 30.7841 30.8664C30.7384 30.9766 30.6611 31.0707 30.5619 31.137C30.4628 31.2033 30.3462 31.2387 30.2269 31.2387C30.0669 31.2387 29.9135 31.1751 29.8004 31.062C29.6873 30.9489 29.6238 30.7955 29.6238 30.6356Z" fill="#6C2C19"/>
<path d="M37.4397 54.0595C37.4397 53.9402 37.4751 53.8236 37.5413 53.7245C37.6076 53.6253 37.7018 53.548 37.812 53.5023C37.9222 53.4567 38.0434 53.4447 38.1604 53.468C38.2774 53.4913 38.3849 53.5487 38.4692 53.6331C38.5536 53.7174 38.611 53.8249 38.6343 53.9419C38.6576 54.0588 38.6456 54.1801 38.6 54.2903C38.5543 54.4005 38.477 54.4947 38.3779 54.561C38.2787 54.6272 38.1621 54.6626 38.0428 54.6626C37.8828 54.6626 37.7294 54.5991 37.6163 54.486C37.5032 54.3729 37.4397 54.2195 37.4397 54.0595Z" fill="#6C2C19"/>
<path d="M34.916 25.3207C34.916 25.2372 34.9408 25.1556 34.9872 25.0862C35.0336 25.0168 35.0995 24.9626 35.1766 24.9307C35.2538 24.8987 35.3386 24.8904 35.4205 24.9067C35.5024 24.923 35.5776 24.9632 35.6367 25.0222C35.6957 25.0812 35.7359 25.1565 35.7522 25.2384C35.7685 25.3203 35.7602 25.4051 35.7282 25.4823C35.6963 25.5594 35.6422 25.6254 35.5727 25.6717C35.5033 25.7181 35.4217 25.7429 35.3382 25.7429C35.2262 25.7429 35.1188 25.6984 35.0397 25.6192C34.9605 25.5401 34.916 25.4327 34.916 25.3207Z" fill="#6C2C19"/>
<path d="M37.6826 60.7192L36.5638 60.7268V59.5206C36.5638 59.4858 36.5569 59.4514 36.5436 59.4193C36.5302 59.3871 36.5106 59.358 36.486 59.3335C36.4613 59.3089 36.4321 59.2895 36.3999 59.2764C36.3677 59.2632 36.3332 59.2565 36.2984 59.2567C36.2635 59.2567 36.2288 59.2636 36.1965 59.2771C36.1643 59.2905 36.1349 59.3102 36.1103 59.335C36.0856 59.3598 36.0661 59.3892 36.0528 59.4216C36.0396 59.4539 36.0329 59.4886 36.0331 59.5236L36.0406 60.7298L34.9204 60.7373C34.85 60.7373 34.7825 60.7653 34.7327 60.815C34.683 60.8648 34.655 60.9323 34.655 61.0027C34.655 61.073 34.683 61.1405 34.7327 61.1903C34.7825 61.2401 34.85 61.268 34.9204 61.268L36.0391 61.2605V62.4667C36.0399 62.5367 36.0682 62.6035 36.1178 62.6529C36.1674 62.7023 36.2345 62.7301 36.3045 62.7305C36.3393 62.7303 36.3738 62.7233 36.4059 62.7097C36.438 62.6962 36.4672 62.6765 36.4917 62.6517C36.5162 62.627 36.5356 62.5976 36.5487 62.5653C36.5619 62.533 36.5685 62.4985 36.5683 62.4637V61.2575H37.6886C37.7589 61.2575 37.8264 61.2295 37.8762 61.1798C37.926 61.13 37.9539 61.0625 37.9539 60.9921C37.9539 60.9217 37.926 60.8542 37.8762 60.8045C37.8264 60.7547 37.7589 60.7268 37.6886 60.7268L37.6826 60.7192Z" fill="#6C2C19"/>
<path d="M23.5657 43.5446C23.7989 43.5446 23.9879 43.3556 23.9879 43.1225C23.9879 42.8893 23.7989 42.7003 23.5657 42.7003C23.3326 42.7003 23.1436 42.8893 23.1436 43.1225C23.1436 43.3556 23.3326 43.5446 23.5657 43.5446Z" fill="#6C2C19"/>
<path d="M48.0679 43.522L46.2842 43.5341L46.2752 41.749C46.2748 41.6788 46.2467 41.6117 46.197 41.5623C46.1472 41.5129 46.08 41.4851 46.0099 41.4851C45.975 41.4853 45.9405 41.4924 45.9084 41.5059C45.8763 41.5194 45.8472 41.5391 45.8227 41.5639C45.7982 41.5887 45.7788 41.618 45.7656 41.6503C45.7525 41.6826 45.7458 41.7171 45.746 41.752L45.755 43.5371L43.9714 43.5477C43.901 43.5477 43.8335 43.5756 43.7838 43.6254C43.734 43.6752 43.7061 43.7427 43.7061 43.813C43.7061 43.8834 43.734 43.9509 43.7838 44.0007C43.8335 44.0504 43.901 44.0784 43.9714 44.0784L45.755 44.0678L45.7641 45.8515C45.7649 45.9215 45.7931 45.9884 45.8428 46.0377C45.8924 46.0871 45.9595 46.1149 46.0294 46.1153C46.0644 46.1153 46.0989 46.1084 46.1311 46.095C46.1633 46.0815 46.1926 46.0618 46.2171 46.037C46.2416 46.0122 46.261 45.9827 46.2741 45.9504C46.2872 45.918 46.2937 45.8834 46.2933 45.8485L46.2842 44.0648L48.0694 44.0528C48.1398 44.0528 48.2073 44.0248 48.2571 43.975C48.3068 43.9253 48.3348 43.8578 48.3348 43.7874C48.3348 43.717 48.3068 43.6495 48.2571 43.5998C48.2073 43.55 48.1398 43.522 48.0694 43.522H48.0679Z" fill="#6C2C19"/>
<path d="M21.9193 40.3649C21.6998 40.3652 21.485 40.3004 21.3024 40.1786C21.1197 40.0568 20.9772 39.8836 20.893 39.6809C20.8088 39.4782 20.7866 39.255 20.8292 39.0396C20.8719 38.8243 20.9775 38.6264 21.1326 38.4711C21.2877 38.3157 21.4854 38.2099 21.7007 38.1669C21.916 38.124 22.1392 38.1459 22.3421 38.2298C22.5449 38.3138 22.7183 38.456 22.8403 38.6385C22.9623 38.821 23.0275 39.0357 23.0275 39.2552C23.0271 39.5491 22.9102 39.8309 22.7025 40.0389C22.4948 40.2469 22.2132 40.3641 21.9193 40.3649ZM21.9193 38.6762C21.8047 38.6759 21.6926 38.7096 21.5972 38.7731C21.5018 38.8365 21.4274 38.9268 21.3833 39.0326C21.3393 39.1384 21.3276 39.2548 21.3497 39.3672C21.3719 39.4796 21.427 39.5829 21.5079 39.6641C21.5888 39.7452 21.6919 39.8005 21.8043 39.8229C21.9166 39.8454 22.0331 39.834 22.139 39.7902C22.2449 39.7465 22.3354 39.6723 22.3991 39.577C22.4628 39.4818 22.4967 39.3698 22.4967 39.2552C22.4971 39.1015 22.4366 38.9539 22.3283 38.8448C22.2201 38.7357 22.073 38.674 21.9193 38.6732V38.6762Z" fill="#6C2C19"/>
<path d="M44.6287 98.2314C44.5962 98.2311 44.5646 98.2212 44.5378 98.2029C44.5109 98.1847 44.4901 98.1589 44.4779 98.1288C44.2874 97.6713 43.9324 97.3017 43.4828 97.093C43.4428 97.0748 43.4117 97.0415 43.3963 97.0004C43.3809 96.9592 43.3824 96.9136 43.4006 96.8737C43.4188 96.8337 43.4522 96.8025 43.4933 96.7871C43.5344 96.7717 43.58 96.7733 43.62 96.7915C44.1443 97.0345 44.5589 97.4647 44.7825 97.9977C44.7908 98.0177 44.7952 98.0391 44.7953 98.0608C44.7954 98.0825 44.7911 98.1039 44.7829 98.124C44.7746 98.144 44.7624 98.1622 44.7471 98.1776C44.7318 98.1929 44.7136 98.205 44.6935 98.2133C44.6734 98.2238 44.6513 98.23 44.6287 98.2314Z" fill="#6C2C19"/>
<path d="M48.5501 93.4007L49.3869 92.0664H47.6937L47.1404 91.2025C47.2514 91.1019 47.3232 90.9652 47.3432 90.8167C47.3632 90.6682 47.33 90.5174 47.2495 90.3911C47.1689 90.2647 47.0463 90.1709 46.9033 90.1262C46.7603 90.0816 46.6061 90.089 46.468 90.1471L42.9067 84.5956C43.004 84.4817 43.0575 84.3368 43.0575 84.187C43.057 84.0351 43.0022 83.8883 42.9029 83.7733C42.8036 83.6582 42.6664 83.5825 42.5162 83.5598C42.5162 83.0879 42.5162 82.6341 42.5162 82.1893L42.9006 82.1802C42.7948 81.9695 42.6664 81.7708 42.5177 81.5877V81.2243C42.5177 81.1776 42.5177 81.1294 42.5177 81.0826C42.5794 81.0485 42.6313 80.9991 42.6685 80.9392C42.7057 80.8792 42.727 80.8108 42.7303 80.7404C42.7302 80.6556 42.7089 80.5721 42.6685 80.4976C42.6326 80.4304 42.5808 80.3729 42.5177 80.3303C42.5177 79.2749 42.5177 74.2194 42.5177 72.956C42.5177 72.9124 42.5004 72.8706 42.4696 72.8398C42.4387 72.8089 42.3969 72.7916 42.3534 72.7916C42.3534 72.7916 42.1875 72.867 42.1875 72.9575C42.1965 74.2059 42.1965 79.2537 42.1875 80.2941C42.1093 80.3284 42.0469 80.3908 42.0126 80.469C41.9891 80.5321 41.9773 80.5991 41.9779 80.6665C41.9758 80.7318 41.9844 80.797 42.0036 80.8595C42.0353 80.9516 42.1004 81.0285 42.186 81.0751V81.2259C42.186 81.3992 42.186 81.5726 42.186 81.749C42.091 81.8923 42.0005 82.037 41.9176 82.1878C42.0035 82.1878 42.094 82.1878 42.186 82.1878C42.186 82.6401 42.186 83.109 42.186 83.593C42.1019 83.6259 42.0259 83.6764 41.9629 83.7412C41.9 83.8059 41.8516 83.8833 41.8211 83.9683C41.7905 84.0533 41.7785 84.1438 41.7858 84.2338C41.793 84.3238 41.8195 84.4111 41.8633 84.4901L37.0055 92.0679H35.2414L36.1189 93.4505L30.8057 101.743H41.3748L42.3518 103.284L43.3183 101.743H44.7838C44.8159 101.816 44.8687 101.879 44.9356 101.922C45.0025 101.966 45.0808 101.989 45.1607 101.989C45.2407 101.989 45.3189 101.966 45.3859 101.922C45.4528 101.879 45.5055 101.816 45.5377 101.743H53.8965L48.5501 93.4007ZM48.7898 92.3966L48.3526 93.0947L47.9003 92.3966H48.7898ZM48.1596 93.4038L47.8581 93.8772L46.9142 92.3966H47.5098L48.1596 93.4038ZM43.5776 92.3981H46.5252L47.6651 94.1878L45.9659 96.9017C46.1821 95.9893 46.0586 95.0293 45.6185 94.2013C45.1784 93.3733 44.4518 92.7339 43.5746 92.4026L43.5776 92.3981ZM44.6843 93.4852C45.0191 93.8134 45.2849 94.2052 45.4661 94.6376C45.6474 95.07 45.7404 95.5342 45.7397 96.0031C45.7397 96.235 45.7165 96.4663 45.6704 96.6936C45.5871 96.3396 45.4366 96.0048 45.2271 95.7076C45.1833 95.6458 45.1366 95.5854 45.0914 95.5266C44.9852 95.4008 44.8946 95.2626 44.8215 95.115C44.7024 94.8451 44.7099 94.533 44.7175 94.2104V94.028C44.7243 93.8464 44.7132 93.6646 44.6843 93.4852ZM44.0993 93.0329C44.0993 93.0329 44.1083 93.0479 44.1144 93.054C44.3119 93.2379 44.4023 93.5455 44.3963 94.0234C44.3963 94.0822 44.3963 94.1425 44.3963 94.2014C44.3873 94.5527 44.3782 94.9175 44.5275 95.2568C44.6111 95.4278 44.7148 95.5883 44.8366 95.7347C44.8803 95.792 44.924 95.8478 44.9647 95.9066C45.2691 96.339 45.4314 96.8554 45.4291 97.3842C45.2733 96.8424 44.9911 96.3453 44.6059 95.9337L44.5411 95.8583C44.4062 95.7184 44.2897 95.5618 44.1943 95.3924C44.0765 95.111 44.0146 94.8094 44.0119 94.5044C44.0119 94.4441 44.0028 94.3853 43.9968 94.325C43.9631 93.7682 43.8022 93.2266 43.5264 92.7419C43.7258 92.8189 43.9176 92.9143 44.0993 93.0268V93.0329ZM43.6605 94.3416C43.6605 94.4004 43.6711 94.4592 43.6756 94.518C43.6611 94.8036 43.7073 95.089 43.8112 95.3554C43.9152 95.6218 44.0746 95.8631 44.2787 96.0634L44.3436 96.1358C44.9105 96.7916 45.1728 97.3827 45.1472 97.945C44.8513 98.3907 44.4573 98.7625 43.9953 99.0321C43.8176 98.4653 43.4312 97.9873 42.9142 97.6948C42.8087 97.6314 42.6986 97.5771 42.5931 97.5244C42.426 97.4481 42.2664 97.3563 42.1166 97.25C41.8556 97.0469 41.6643 96.7676 41.5693 96.4509C41.5024 96.21 41.4599 95.963 41.4427 95.7136C41.4246 95.5387 41.4065 95.3563 41.3703 95.1768C41.2119 94.3974 40.7615 93.7081 40.1114 93.25C40.5079 92.9299 40.9707 92.7023 41.4663 92.5836C41.9618 92.465 42.4776 92.4582 42.976 92.564C43.359 92.9605 43.5927 93.5575 43.6605 94.3416ZM40.9602 98.5632C40.8459 98.3216 40.7565 98.069 40.6933 97.8093C40.5742 97.3842 40.4506 96.9439 40.1219 96.6167C39.9888 96.4914 39.8421 96.3811 39.6847 96.288C39.5987 96.2323 39.5173 96.1795 39.4404 96.1207C39.1887 95.9291 38.9886 95.6778 38.8584 95.3894C38.9859 94.663 39.3388 93.9952 39.8671 93.4807C40.482 93.8883 40.9098 94.5233 41.0567 95.2462C41.0899 95.4121 41.1064 95.5779 41.126 95.7543C41.1451 96.0252 41.1916 96.2934 41.2648 96.5549C41.3812 96.9372 41.6129 97.2743 41.9282 97.5199C42.0942 97.6368 42.2708 97.7378 42.4559 97.8214C42.5614 97.8742 42.6624 97.9239 42.7574 97.9722C42.9872 98.101 43.1894 98.2738 43.3524 98.4808C43.5154 98.6877 43.636 98.9248 43.7073 99.1784C43.2918 99.3695 42.8421 99.4752 42.385 99.489V99.4693C42.0906 99.4498 41.8059 99.3565 41.5569 99.1982C41.308 99.0399 41.1028 98.8215 40.9602 98.5632ZM39.0635 97.2907H39.0469C38.8853 96.8812 38.8024 96.4448 38.8027 96.0046C38.8027 95.985 38.8027 95.9639 38.8027 95.9443C38.9263 96.1114 39.073 96.2601 39.2384 96.386C39.3243 96.4509 39.4148 96.5097 39.5022 96.567C39.6398 96.6479 39.7682 96.7434 39.8852 96.8519C40.1521 97.1173 40.2606 97.4972 40.3737 97.9073C40.4426 98.1884 40.5401 98.4618 40.6647 98.723C40.7901 98.9534 40.9579 99.158 41.1592 99.3261C40.5526 99.1174 40.0153 98.7454 39.6063 98.2511C39.6661 98.1535 39.6979 98.0414 39.6982 97.9269C39.6986 97.7581 39.632 97.5959 39.513 97.4761C39.394 97.3562 39.2324 97.2885 39.0635 97.2877V97.2907ZM38.4725 96.0061C38.4736 96.2188 38.4918 96.4311 38.5267 96.6409L37.0039 94.239L38.1724 92.4041H40.9662C40.234 92.6785 39.6029 93.1698 39.1573 93.8123C38.7117 94.4549 38.4728 95.2181 38.4725 96.0001V96.0061ZM38.6489 97.449C38.5793 97.508 38.5234 97.5814 38.4851 97.6643C38.4468 97.7471 38.4271 97.8372 38.4272 97.9284C38.4272 98.0972 38.4943 98.259 38.6136 98.3784C38.7329 98.4977 38.8947 98.5647 39.0635 98.5647C39.1525 98.5644 39.2405 98.5448 39.3213 98.5074L40.6903 100.666H32.9074L36.8079 94.5451L38.6489 97.449ZM40.137 99.1784C40.8086 99.6431 41.6133 99.8765 42.4294 99.8433C43.2454 99.8101 44.0285 99.5121 44.6602 98.9944L43.6047 100.666H41.0793L40.137 99.1784ZM47.8641 94.5044L51.8023 100.663H44.0013L47.8641 94.5044ZM42.6353 84.7961L46.2011 90.3597C46.1249 90.4527 46.0768 90.5656 46.0624 90.685C46.048 90.8044 46.0679 90.9254 46.1198 91.0339C46.1717 91.1424 46.2534 91.2339 46.3554 91.2976C46.4573 91.3614 46.5753 91.3948 46.6956 91.394C46.7465 91.3935 46.7972 91.3864 46.8464 91.3729L47.2987 92.077H46.7046L42.5177 85.5093C42.5177 85.2756 42.5177 85.0494 42.5177 84.8263C42.5577 84.8152 42.597 84.8016 42.6353 84.7856V84.7961ZM46.3172 92.0785H38.3835L39.8761 89.737C39.8957 89.737 39.9154 89.737 39.9365 89.737C40.0458 89.7366 40.1504 89.6929 40.2276 89.6154C40.3047 89.538 40.3481 89.4332 40.3481 89.3238C40.348 89.243 40.3244 89.1639 40.2802 89.0962L42.3518 85.8455L46.3172 92.0785ZM42.0955 84.7464C42.124 84.7629 42.1537 84.777 42.1845 84.7886C42.1845 85.0178 42.1845 85.25 42.1845 85.4897L40.0013 88.9138C39.9797 88.9122 39.9581 88.9122 39.9365 88.9138C39.8615 88.9136 39.7879 88.9339 39.7236 88.9725C39.6594 89.0111 39.6069 89.0666 39.5718 89.1328C39.5367 89.1991 39.5204 89.2737 39.5246 89.3485C39.5289 89.4234 39.5534 89.4956 39.5957 89.5576L37.9915 92.0739H37.3974L42.0955 84.7464ZM37.1818 92.4117H37.7849L36.8125 93.9375L36.5109 93.4671L37.1818 92.4117ZM35.837 92.4117H36.7898L36.3104 93.1655L35.837 92.4117ZM31.4042 101.425L36.3089 93.7732L36.6104 94.2451L32.3028 101.004H40.8969L41.1622 101.425H31.4042ZM42.3458 102.678L41.7608 101.755H42.9248L42.3458 102.678ZM43.1313 101.425H41.5497L41.2844 101.004H43.3952L43.1313 101.425ZM45.5346 101.425C45.5025 101.352 45.4498 101.289 45.3828 101.246C45.3159 101.202 45.2377 101.179 45.1577 101.179C45.0778 101.179 44.9996 101.202 44.9326 101.246C44.8657 101.289 44.8129 101.352 44.7808 101.425H43.5234L43.7857 101.004H52.4054L48.0586 94.1908L48.3601 93.7159L53.2979 101.42L45.5346 101.425Z" fill="#6C2C19"/>
<path d="M41.4231 77.2287C41.4231 77.0397 41.4792 76.8549 41.5842 76.6977C41.6892 76.5405 41.8385 76.4179 42.0132 76.3456C42.1879 76.2732 42.3801 76.2543 42.5655 76.2912C42.7509 76.3281 42.9213 76.4191 43.0549 76.5528C43.1886 76.6865 43.2797 76.8568 43.3166 77.0422C43.3534 77.2277 43.3345 77.4199 43.2621 77.5945C43.1898 77.7692 43.0673 77.9185 42.9101 78.0235C42.7529 78.1286 42.5681 78.1846 42.379 78.1846C42.2535 78.1846 42.1292 78.1599 42.0132 78.1119C41.8972 78.0638 41.7918 77.9934 41.7031 77.9046C41.6143 77.8159 41.5439 77.7105 41.4959 77.5945C41.4478 77.4786 41.4231 77.3543 41.4231 77.2287Z" fill="#6C2C19"/>
<path d="M42.379 74.3597C42.9069 74.3597 43.3349 73.9317 43.3349 73.4038C43.3349 72.8759 42.9069 72.4479 42.379 72.4479C41.8511 72.4479 41.4231 72.8759 41.4231 73.4038C41.4231 73.9317 41.8511 74.3597 42.379 74.3597Z" fill="#6C2C19"/>
<path d="M77.7656 29.5515C77.7656 29.6192 77.7455 29.6853 77.7079 29.7416C77.6703 29.7979 77.6168 29.8418 77.5543 29.8677C77.4917 29.8936 77.4229 29.9004 77.3565 29.8872C77.2901 29.874 77.2292 29.8414 77.1813 29.7935C77.1334 29.7456 77.1008 29.6846 77.0876 29.6183C77.0744 29.5519 77.0812 29.483 77.1071 29.4205C77.133 29.358 77.1769 29.3045 77.2332 29.2669C77.2895 29.2293 77.3556 29.2092 77.4233 29.2092C77.5141 29.2092 77.6011 29.2453 77.6653 29.3095C77.7295 29.3737 77.7656 29.4607 77.7656 29.5515Z" fill="#6C2C19"/>
<path d="M76.6693 33.672C76.8482 33.672 77.0231 33.7251 77.1719 33.8245C77.3207 33.9239 77.4366 34.0651 77.5051 34.2304C77.5736 34.3957 77.5915 34.5776 77.5565 34.7531C77.5216 34.9286 77.4355 35.0898 77.309 35.2163C77.1824 35.3428 77.0213 35.429 76.8458 35.4639C76.6703 35.4988 76.4884 35.4809 76.3231 35.4124C76.1578 35.3439 76.0165 35.228 75.9171 35.0792C75.8177 34.9305 75.7646 34.7556 75.7646 34.5766C75.7646 34.3367 75.86 34.1066 76.0296 33.937C76.1993 33.7673 76.4294 33.672 76.6693 33.672ZM76.6693 35.1797C76.7886 35.1797 76.9052 35.1444 77.0044 35.0781C77.1035 35.0118 77.1808 34.9176 77.2265 34.8074C77.2721 34.6972 77.2841 34.576 77.2608 34.459C77.2375 34.342 77.1801 34.2345 77.0958 34.1502C77.0114 34.0658 76.904 34.0084 76.787 33.9851C76.67 33.9619 76.5487 33.9738 76.4385 34.0195C76.3283 34.0651 76.2341 34.1424 76.1678 34.2416C76.1016 34.3408 76.0662 34.4574 76.0662 34.5766C76.0662 34.7366 76.1297 34.89 76.2428 35.0031C76.3559 35.1162 76.5093 35.1797 76.6693 35.1797Z" fill="#6C2C19"/>
<path d="M76.1898 24.5835C76.3144 24.5835 76.4363 24.6205 76.5399 24.6897C76.6436 24.759 76.7243 24.8574 76.772 24.9725C76.8197 25.0877 76.8322 25.2144 76.8079 25.3367C76.7836 25.4589 76.7236 25.5712 76.6354 25.6594C76.5473 25.7475 76.435 25.8075 76.3127 25.8318C76.1905 25.8562 76.0638 25.8437 75.9486 25.796C75.8335 25.7483 75.735 25.6675 75.6658 25.5639C75.5965 25.4602 75.5596 25.3384 75.5596 25.2137C75.5596 25.0466 75.6259 24.8863 75.7441 24.7681C75.8623 24.6499 76.0226 24.5835 76.1898 24.5835ZM76.1898 25.5424C76.2548 25.5424 76.3184 25.5231 76.3724 25.487C76.4265 25.4509 76.4686 25.3996 76.4935 25.3395C76.5183 25.2794 76.5249 25.2134 76.5122 25.1496C76.4995 25.0858 76.4682 25.0273 76.4222 24.9813C76.3762 24.9353 76.3177 24.904 76.2539 24.8914C76.1902 24.8787 76.1241 24.8852 76.064 24.9101C76.004 24.9349 75.9526 24.9771 75.9165 25.0311C75.8804 25.0852 75.8611 25.1487 75.8611 25.2137C75.8615 25.3008 75.8963 25.3841 75.9578 25.4457C76.0194 25.5073 76.1027 25.542 76.1898 25.5424Z" fill="#6C2C19"/>
</svg>
