<svg width="120" height="123" viewBox="0 0 120 123" fill="none" xmlns="http://www.w3.org/2000/svg">
<path d="M57.8692 22.1525L21.6075 68.7175H94.1308L57.8692 22.1525Z" stroke="#6C2C19" stroke-width="0.75" stroke-linecap="round" stroke-linejoin="round"/>
<path d="M57.8693 44.2719L27.0875 83.8015H88.6653L57.8693 44.2719Z" stroke="#6C2C19" stroke-width="0.75" stroke-linecap="round" stroke-linejoin="round"/>
<path d="M57.8692 101.626L94.1308 55.0605H21.6075L57.8692 101.626Z" stroke="#6C2C19" stroke-width="0.75" stroke-linecap="round" stroke-linejoin="round"/>
<path d="M57.8693 79.506L88.6653 39.9764H27.0875L57.8693 79.506Z" stroke="#6C2C19" stroke-width="0.75" stroke-linecap="round" stroke-linejoin="round"/>
<path d="M15.9124 45.0931H13.4618V40.6748C13.4618 40.5933 13.4618 40.4446 13.4618 40.2287C13.4618 40.0087 13.4639 39.7663 13.4679 39.5014C13.4761 39.2366 13.4863 38.9983 13.4985 38.7865C13.3926 38.9127 13.2928 39.0207 13.1991 39.1103C13.1094 39.2 13.0218 39.2835 12.9363 39.3609L11.9218 40.1981L10.6691 38.6581L13.7368 36.1587H15.9124V45.0931Z" fill="#6C2C19"/>
<path d="M17.0124 77.9155H10.5285V76.3266L12.7102 74.1206C13.1624 73.648 13.5128 73.2691 13.7613 72.9839C14.0139 72.6987 14.1911 72.4563 14.2929 72.2567C14.3948 72.057 14.4457 71.8493 14.4457 71.6333C14.4457 71.3685 14.3602 71.1771 14.189 71.0589C14.0179 70.9408 13.8163 70.8817 13.5841 70.8817C13.3029 70.8817 13.0178 70.9632 12.7285 71.1261C12.4433 71.285 12.1194 71.5213 11.7568 71.835L10.4307 70.2828C10.6996 70.0424 10.9848 69.8143 11.2863 69.5984C11.5878 69.3784 11.9442 69.1991 12.3557 69.0606C12.7672 68.9221 13.2683 68.8528 13.8591 68.8528C14.4661 68.8528 14.9916 68.9587 15.4357 69.1706C15.8839 69.3824 16.2301 69.6737 16.4746 70.0445C16.719 70.4111 16.8413 70.8287 16.8413 71.2972C16.8413 71.8146 16.7455 72.277 16.554 72.6845C16.3666 73.0878 16.0835 73.4931 15.7046 73.9006C15.3257 74.3039 14.8531 74.7622 14.2868 75.2755L13.6329 75.8622V75.9233H17.0124V77.9155Z" fill="#6C2C19"/>
<path d="M73.7954 10.9817C73.7954 11.4054 73.7038 11.7721 73.5204 12.0817C73.3412 12.3873 73.1008 12.6378 72.7993 12.8334C72.5019 13.0289 72.176 13.1756 71.8216 13.2734V13.31C72.5345 13.3997 73.0845 13.6176 73.4716 13.9639C73.8627 14.3061 74.0582 14.793 74.0582 15.4245C74.0582 15.9133 73.9278 16.3615 73.6671 16.7689C73.4064 17.1722 73.001 17.4961 72.451 17.7406C71.901 17.9809 71.1942 18.1011 70.3305 18.1011C69.7519 18.1011 69.259 18.0583 68.8516 17.9728C68.4442 17.8872 68.049 17.7691 67.666 17.6183V15.6139C68.0531 15.8135 68.4503 15.9622 68.8577 16.06C69.2692 16.1537 69.644 16.2006 69.9821 16.2006C70.5688 16.2006 70.9681 16.117 71.1799 15.95C71.3958 15.783 71.5038 15.5589 71.5038 15.2778C71.5038 15.0741 71.4529 14.9009 71.351 14.7583C71.2492 14.6158 71.0597 14.5058 70.7827 14.4283C70.5097 14.3509 70.1166 14.3122 69.6032 14.3122H69.0532V12.4973H69.6155C70.0718 12.4973 70.4323 12.4565 70.6971 12.375C70.966 12.2935 71.1595 12.1835 71.2777 12.045C71.3958 11.9024 71.4549 11.7395 71.4549 11.5561C71.4549 11.3199 71.3632 11.1447 71.1799 11.0306C70.9966 10.9165 70.7542 10.8595 70.4527 10.8595C70.1838 10.8595 69.9312 10.8962 69.6949 10.9695C69.4586 11.0428 69.2529 11.1243 69.0777 11.2139C68.9025 11.3036 68.7701 11.3769 68.6805 11.4339L67.6783 9.8206C68.049 9.56801 68.4727 9.35412 68.9494 9.17894C69.4301 9.00375 70.0575 8.91616 70.8316 8.91616C71.7523 8.91616 72.4754 9.0995 73.001 9.46616C73.5306 9.83282 73.7954 10.338 73.7954 10.9817Z" fill="#6C2C19"/>
<path d="M105.777 73.332H104.794V75.0614H102.41V73.332H98.8475V71.5598L102.563 66.127H104.794V71.5292H105.777V73.332ZM102.41 71.5292V70.4903C102.41 70.3966 102.412 70.2785 102.416 70.1359C102.42 69.9933 102.425 69.8507 102.429 69.7081C102.437 69.5614 102.443 69.4392 102.447 69.3414C102.455 69.2396 102.461 69.1846 102.465 69.1764H102.398C102.321 69.3598 102.249 69.5125 102.184 69.6348C102.119 69.7529 102.033 69.8935 101.928 70.0564L100.938 71.5292H102.41Z" fill="#6C2C19"/>
<path d="M67.0149 105.171C67.5119 105.171 67.9641 105.283 68.3715 105.507C68.7789 105.731 69.1049 106.057 69.3493 106.485C69.5938 106.913 69.716 107.434 69.716 108.049C69.716 108.713 69.5815 109.278 69.3126 109.742C69.0478 110.202 68.6465 110.553 68.1088 110.793C67.5751 111.029 66.9008 111.147 66.086 111.147C65.5686 111.147 65.096 111.107 64.6682 111.025C64.2445 110.948 63.8656 110.828 63.5316 110.665V108.685C63.8453 108.827 64.2221 108.958 64.6621 109.076C65.1062 109.19 65.5136 109.247 65.8843 109.247C66.1817 109.247 66.4343 109.204 66.6421 109.119C66.8499 109.033 67.0067 108.907 67.1127 108.74C67.2227 108.573 67.2777 108.367 67.2777 108.123C67.2777 107.784 67.1554 107.52 66.911 107.328C66.6666 107.133 66.2958 107.035 65.7988 107.035C65.5747 107.035 65.3547 107.057 65.1388 107.102C64.9229 107.147 64.7334 107.196 64.5705 107.249L63.6844 106.809L64.0205 102.091H69.1171V104.101H66.0738L65.9638 105.281C66.0942 105.256 66.2266 105.232 66.361 105.208C66.4995 105.183 66.7175 105.171 67.0149 105.171Z" fill="#6C2C19"/>
<path d="M31.9895 21.3376C31.9895 20.8243 32.0262 20.315 32.0995 19.8098C32.1729 19.3006 32.3053 18.8219 32.4967 18.3737C32.6882 17.9215 32.9591 17.5223 33.3095 17.176C33.6599 16.8256 34.1101 16.5506 34.6601 16.351C35.2101 16.1514 35.8802 16.0515 36.6706 16.0515C36.8458 16.0515 37.0597 16.0617 37.3123 16.0821C37.5649 16.1025 37.7747 16.1269 37.9417 16.1554V18.0437C37.7747 18.0112 37.5873 17.9847 37.3795 17.9643C37.1717 17.9399 36.9171 17.9276 36.6156 17.9276C36.0126 17.9276 35.536 18.0193 35.1856 18.2026C34.8393 18.3819 34.5888 18.6406 34.434 18.9787C34.2791 19.3169 34.1895 19.7223 34.1651 20.1948H34.2384C34.3443 19.9993 34.4727 19.8241 34.6234 19.6693C34.7782 19.5104 34.9677 19.3861 35.1917 19.2965C35.4158 19.2028 35.6867 19.156 36.0045 19.156C36.526 19.156 36.9741 19.27 37.3489 19.4982C37.7237 19.7223 38.011 20.0502 38.2106 20.4821C38.4102 20.9139 38.51 21.4395 38.51 22.0587C38.51 22.7269 38.3817 23.2993 38.125 23.7759C37.8724 24.2485 37.5099 24.6111 37.0373 24.8637C36.5688 25.1122 36.0086 25.2365 35.3567 25.2365C34.876 25.2365 34.4299 25.1591 34.0184 25.0043C33.611 24.8494 33.2545 24.6131 32.949 24.2954C32.6475 23.9735 32.4112 23.5682 32.2401 23.0793C32.073 22.5863 31.9895 22.0058 31.9895 21.3376ZM35.3017 23.3237C35.5584 23.3237 35.7662 23.2259 35.9251 23.0304C36.088 22.8348 36.1695 22.5272 36.1695 22.1076C36.1695 21.7695 36.1023 21.5047 35.9678 21.3132C35.8375 21.1176 35.6236 21.0198 35.3262 21.0198C35.1265 21.0198 34.9575 21.0687 34.8189 21.1665C34.6804 21.2602 34.5745 21.3804 34.5012 21.5271C34.4278 21.6737 34.3912 21.8265 34.3912 21.9854C34.3912 22.1443 34.4075 22.3032 34.4401 22.4621C34.4767 22.6209 34.5317 22.7656 34.6051 22.8959C34.6825 23.0222 34.7782 23.1261 34.8923 23.2076C35.0064 23.285 35.1428 23.3237 35.3017 23.3237Z" fill="#6C2C19"/>
<path d="M88.4944 98.1818L91.5621 91.2457H87.6938V89.2474H94.141V90.6713L90.9938 98.1818H88.4944Z" fill="#6C2C19"/>
<path d="M96.6165 33.1763C97.2072 33.1763 97.7246 33.2557 98.1687 33.4146C98.6168 33.5735 98.9672 33.8159 99.2198 34.1418C99.4724 34.4637 99.5987 34.8691 99.5987 35.3579C99.5987 35.7165 99.5315 36.0322 99.397 36.3052C99.2667 36.5741 99.0854 36.8103 98.8531 37.014C98.625 37.2137 98.3602 37.3868 98.0587 37.5335C98.3398 37.6924 98.6189 37.8777 98.8959 38.0896C99.1729 38.3014 99.4031 38.552 99.5865 38.8413C99.7698 39.1264 99.8615 39.4666 99.8615 39.8618C99.8615 40.3385 99.7454 40.7662 99.5131 41.1451C99.2809 41.5199 98.9244 41.8173 98.4437 42.0373C97.963 42.2533 97.3457 42.3612 96.592 42.3612C95.8383 42.3612 95.2211 42.2573 94.7404 42.0496C94.2596 41.8418 93.9052 41.5525 93.6771 41.1818C93.453 40.807 93.3409 40.3751 93.3409 39.8863C93.3409 39.4707 93.4102 39.1203 93.5487 38.8351C93.6913 38.55 93.8848 38.3076 94.1293 38.1079C94.3737 37.9083 94.6528 37.729 94.9665 37.5702C94.718 37.4031 94.4898 37.2137 94.2821 37.0018C94.0743 36.79 93.9093 36.5476 93.7871 36.2746C93.6648 36.0016 93.6037 35.692 93.6037 35.3457C93.6037 34.865 93.7321 34.4637 93.9887 34.1418C94.2454 33.82 94.5998 33.5796 95.052 33.4207C95.5083 33.2578 96.0298 33.1763 96.6165 33.1763ZM95.5532 39.7885C95.5532 40.037 95.6428 40.2387 95.822 40.3935C96.0013 40.5483 96.2498 40.6257 96.5676 40.6257C96.9383 40.6257 97.2093 40.5564 97.3804 40.4179C97.5556 40.2753 97.6431 40.0818 97.6431 39.8374C97.6431 39.654 97.5881 39.489 97.4781 39.3424C97.3722 39.1916 97.248 39.0613 97.1054 38.9513C96.9628 38.8413 96.8385 38.7557 96.7326 38.6946L96.5676 38.5968C96.3843 38.6905 96.2152 38.7964 96.0604 38.9146C95.9096 39.0287 95.7874 39.159 95.6937 39.3057C95.6 39.4483 95.5532 39.6092 95.5532 39.7885ZM96.6043 34.918C96.4046 34.918 96.2315 34.977 96.0848 35.0952C95.9382 35.2092 95.8648 35.3661 95.8648 35.5657C95.8648 35.6961 95.8954 35.8183 95.9565 35.9324C96.0217 36.0424 96.1072 36.1442 96.2132 36.2379C96.3232 36.3316 96.4454 36.4172 96.5798 36.4946C96.698 36.4253 96.8141 36.35 96.9281 36.2685C97.0422 36.187 97.138 36.0892 97.2154 35.9752C97.2928 35.8611 97.3315 35.7246 97.3315 35.5657C97.3315 35.3661 97.2581 35.2092 97.1115 35.0952C96.9689 34.977 96.7998 34.918 96.6043 34.918Z" fill="#6C2C19"/>
<path d="M41.3213 97.4458C41.3213 98.0854 41.2642 98.6721 41.1502 99.2058C41.0402 99.7395 40.867 100.216 40.6307 100.636C40.3985 101.051 40.099 101.406 39.7324 101.699C39.3657 101.988 38.9278 102.208 38.4185 102.359C37.9092 102.51 37.3226 102.585 36.6585 102.585C36.4752 102.585 36.2613 102.581 36.0169 102.573C35.7765 102.565 35.5728 102.549 35.4057 102.524V100.611C35.5809 100.64 35.7561 100.664 35.9313 100.685C36.1065 100.701 36.3102 100.709 36.5424 100.709C37.2146 100.709 37.7341 100.613 38.1007 100.422C38.4715 100.23 38.7322 99.9656 38.8829 99.6274C39.0337 99.2852 39.1213 98.892 39.1457 98.448H39.0724C38.9665 98.6476 38.8381 98.8269 38.6874 98.9858C38.5367 99.1406 38.3472 99.2628 38.1191 99.3524C37.8909 99.442 37.6078 99.4869 37.2696 99.4869C36.7685 99.4869 36.3326 99.3728 35.9619 99.1446C35.5952 98.9165 35.31 98.5865 35.1063 98.1546C34.9026 97.7187 34.8007 97.1891 34.8007 96.5658C34.8007 95.9017 34.927 95.3354 35.1796 94.8669C35.4363 94.3943 35.8009 94.0317 36.2735 93.7791C36.7502 93.5265 37.3165 93.4002 37.9724 93.4002C38.4368 93.4002 38.8707 93.4797 39.2741 93.6386C39.6815 93.7975 40.0379 94.0419 40.3435 94.3719C40.649 94.6978 40.8874 95.1154 41.0585 95.6247C41.2337 96.1339 41.3213 96.741 41.3213 97.4458ZM38.0335 95.3313C37.7524 95.3313 37.5324 95.4271 37.3735 95.6186C37.2187 95.81 37.1413 96.1176 37.1413 96.5413C37.1413 96.8754 37.2146 97.1402 37.3613 97.3358C37.508 97.5313 37.7239 97.6291 38.0091 97.6291C38.1883 97.6291 38.3452 97.5822 38.4796 97.4885C38.6181 97.3908 38.7261 97.2685 38.8035 97.1219C38.8809 96.9711 38.9196 96.8163 38.9196 96.6574C38.9196 96.4985 38.9013 96.3417 38.8646 96.1869C38.832 96.028 38.7791 95.8854 38.7057 95.7591C38.6365 95.6287 38.5448 95.5248 38.4307 95.4474C38.3207 95.37 38.1883 95.3313 38.0335 95.3313Z" fill="#6C2C19"/>
<circle cx="60" cy="60" r="59.5" stroke="#6C2C19"/>
</svg>
