<svg width="119" height="116" viewBox="0 0 119 116" fill="none" xmlns="http://www.w3.org/2000/svg">
<path d="M99.5105 46.0545L101.311 44.7042L100.507 43.6673L100.913 43.3297L101.106 43.5749C101.391 43.9326 101.685 44.3063 101.954 44.6881L99.3337 46.5971C99.0041 46.151 98.6786 45.725 98.3571 45.3151C98.1561 45.5288 97.9399 45.7276 97.71 45.9098C98.1441 46.4618 98.5687 47.0271 98.984 47.6058L99.1247 47.7826L103.067 44.9694L103.16 44.877L102.384 43.7919C102.32 43.7035 102.251 43.6151 102.183 43.5307L101.046 42.0839L99.7074 43.185C99.627 43.3739 99.5386 43.5588 99.4462 43.7396L100.081 44.5434L99.6793 44.8529L99.3618 44.451L99.1809 44.2219C99.0258 44.4845 98.854 44.7369 98.6665 44.9775L99.5105 46.0545Z" fill="#6C2C19"/>
<path d="M99.7596 112.78C99.9566 112.575 100.141 112.358 100.326 112.145L100.604 111.824L100.732 111.679L100.821 111.579H100.616L97.2679 108.661L97.1715 108.512L97.0389 108.669C96.5686 109.24 96.0502 109.782 95.5478 110.309C95.363 110.497 95.1821 110.686 95.0013 110.879L94.9008 110.988L96.5084 112.559L97.4166 111.607L97.8185 111.976L96.8781 112.961L96.633 113.21L94.3502 110.907C96.1588 109.09 97.8311 107.143 99.3537 105.08L101.974 106.989C101.709 107.367 101.415 107.736 101.13 108.098L100.933 108.347L100.511 108.014L101.315 106.981L99.5105 105.623L98.0195 107.519C97.915 107.652 97.8025 107.785 97.6899 107.921L97.4327 108.215L101.05 111.269L101.6 110.638L103.172 108.629C103.248 108.532 103.32 108.428 103.393 108.323L103.545 108.114L104.277 107.081C104.643 106.587 104.976 106.061 105.302 105.554L105.704 104.959C106.077 104.397 106.419 103.806 106.744 103.235L107.106 102.6L103.107 100.338L102.975 100.245L102.89 100.201V100.394L102.151 101.68L101.259 103.075L103.144 104.3L103.855 103.187L104.313 103.468L103.389 104.911L100.696 103.111L101.693 101.559C101.914 101.182 102.131 100.804 102.348 100.422L102.943 99.3933L103.622 98.063L103.807 97.7013C103.899 97.5285 103.988 97.3517 104.076 97.1708L104.422 96.4032L107.371 97.7415L107.018 98.5252C106.929 98.7221 106.829 98.9271 106.732 99.0999L106.636 99.2888L106.154 99.0476L106.178 98.9994C106.347 98.6739 106.519 98.3363 106.668 97.9947L106.724 97.858L104.687 96.9056L104.627 97.0462C104.486 97.3838 104.313 97.7134 104.148 98.0349C104.084 98.1514 104.024 98.268 103.963 98.3885L103.758 98.7904C103.602 99.1039 103.441 99.4174 103.272 99.7308L103.212 99.8675L107.343 102.17L107.44 101.989C107.697 101.503 107.946 101.013 108.195 100.523L108.597 99.7188C108.834 99.2164 109.063 98.7101 109.288 98.2037L109.65 97.3999L110.595 95.0408C110.723 94.7314 110.832 94.4179 110.936 94.1084L111.431 92.6375L111.503 92.4486L107.126 91.038L106.982 90.9415L106.941 91.1545C106.861 91.3836 106.785 91.6127 106.708 91.8418C106.467 92.5531 106.222 93.2846 105.929 93.9838L105.868 94.1245L107.966 94.9484L108.324 94.0321C108.364 93.9276 108.408 93.8271 108.444 93.7186L108.951 93.9035C108.915 94.012 108.87 94.1205 108.826 94.229L108.328 95.4949L105.322 94.2893L105.744 93.2243C105.828 93.0032 105.917 92.7862 105.989 92.5652L106.628 90.6723C106.744 90.2704 106.853 89.8926 106.966 89.5028C107.034 89.2536 107.106 89.0044 107.179 88.7593L107.311 88.281C107.343 88.1685 107.367 88.06 107.392 87.9515L107.617 86.9669L110.779 87.6782L110.47 89.0004L110.378 89.342L109.859 89.2054C109.948 88.8879 110.024 88.5664 110.092 88.2529L110.169 87.9274L107.982 87.4049L107.781 88.281L107.661 88.707L107.166 90.4553L107.134 90.5999L111.688 91.9905L111.736 91.7935C111.816 91.5042 111.897 91.2148 111.981 90.9295C112.13 90.403 112.283 89.8765 112.419 89.342L112.994 86.8624L113.44 84.3546C113.52 83.812 113.589 83.2695 113.657 82.7269L113.765 81.8388L113.798 81.6418L109.192 81.1475H109.059L108.854 82.7551C108.854 82.8596 108.826 82.9681 108.81 83.0726C108.794 83.177 108.778 83.3579 108.758 83.4986L108.593 84.3908L110.812 84.7645L110.888 84.3224C110.94 84.0451 110.992 83.7558 111.029 83.4664L111.559 83.5428L111.274 85.2307L108.087 84.648L108.268 83.6513C108.288 83.5428 108.308 83.4302 108.324 83.3177L108.637 80.8421L108.822 78.3504L108.854 77.0081L112.094 77.0724L112.07 78.0972C112.07 78.3343 112.07 78.5593 112.041 78.7844L111.503 78.7523C111.523 78.495 111.531 78.2338 111.535 77.9846C111.535 77.852 111.535 77.7194 111.535 77.5828V77.43L109.284 77.3537V78.2619C109.284 78.4187 109.284 78.5714 109.252 78.7281C109.252 78.8206 109.252 78.913 109.252 79.0054L109.14 80.5085V80.7054L113.854 81.1073L114.015 79.0175C114.015 78.8125 114.047 78.5915 114.047 78.3705L114.111 75.8305L114.047 73.2986C114.047 73.0736 114.047 72.8565 114.015 72.6556L113.854 70.5577L109.272 70.9837H109.116L109.24 72.6476C109.24 72.744 109.24 72.8364 109.24 72.9289C109.24 73.0816 109.268 73.2383 109.272 73.3951V74.3033L111.523 74.223V74.0743C111.523 73.9457 111.523 73.813 111.523 73.6724C111.523 73.4232 111.523 73.162 111.491 72.9048L112.029 72.8726C112.029 73.1017 112.053 73.3308 112.057 73.5558L112.082 74.5847L108.842 74.649L108.81 73.2986L108.625 70.8069L108.312 68.3353C108.312 68.2268 108.276 68.1143 108.256 68.0057L108.075 67.0091L111.262 66.4303L111.499 67.7606L111.547 68.1143L111.017 68.1906C110.98 67.9013 110.928 67.6079 110.876 67.3266L110.8 66.8925L108.581 67.2703L108.742 68.1544C108.766 68.2951 108.782 68.4398 108.798 68.5804C108.814 68.7211 108.826 68.7975 108.842 68.8979L109.027 70.393L109.075 70.5256L113.786 70.0353L113.774 69.8544C113.733 69.5611 113.697 69.2677 113.661 68.9783C113.593 68.4277 113.524 67.8812 113.444 67.3266L112.994 64.8188L112.423 62.3431C112.287 61.8126 112.134 61.2862 111.985 60.7597C111.901 60.4703 111.82 60.185 111.74 59.8956L111.692 59.7027L107.271 61.045L107.118 61.1013L107.657 62.9821C107.693 63.1268 107.733 63.2675 107.769 63.384L107.974 64.2642L110.161 63.7417L110.076 63.388C110.008 63.0826 109.939 62.7691 109.851 62.4637L110.37 62.3271L110.771 63.9909L107.609 64.7022L107.383 63.7176C107.359 63.6091 107.335 63.4966 107.303 63.388L107.17 62.9098C107.094 62.6486 107.018 62.3873 106.945 62.106C106.837 61.7282 106.732 61.3505 106.616 60.9687L105.981 59.0878C105.909 58.8547 105.816 58.6257 105.728 58.4086L105.334 57.3959L108.34 56.1902L108.838 57.4562C108.883 57.5647 108.927 57.6732 108.963 57.7817L108.457 57.9625C108.42 57.8581 108.376 57.7536 108.336 57.6531L107.978 56.7368L105.876 57.5406L105.941 57.6852C106.234 58.3885 106.483 59.124 106.72 59.8353C106.797 60.0604 106.873 60.2895 106.953 60.5145L107.01 60.6512L111.539 59.1923L110.96 57.5124C110.86 57.215 110.755 56.9096 110.635 56.6162L109.935 54.8439L109.686 54.2531L109.325 53.4493C109.1 52.9429 108.87 52.4366 108.629 51.9302L108.252 51.1947C107.994 50.6884 107.733 50.178 107.468 49.6756L107.367 49.5028L103.349 51.7011L103.18 51.7453L103.204 51.7855H103.172L103.264 51.882C103.433 52.1914 103.594 52.5049 103.75 52.8184L103.955 53.2203L104.156 53.6221C104.317 53.9316 104.482 54.2491 104.618 54.5706L104.679 54.7153L106.716 53.7628L106.66 53.6262C106.507 53.2725 106.327 52.9269 106.158 52.5933L106.64 52.3482C106.668 52.4084 106.7 52.4647 106.728 52.525C106.829 52.7179 106.929 52.9269 107.022 53.1117L107.375 53.8954L104.426 55.2337L104.076 54.4621C103.992 54.2853 103.899 54.1084 103.811 53.9316C103.722 53.7548 103.686 53.6945 103.626 53.5699L102.943 52.2356L102.352 51.2068C102.135 50.829 101.918 50.4512 101.693 50.0735L100.684 48.5543L103.377 46.7539L104.301 48.1966L103.843 48.478L103.136 47.3487L101.247 48.5543L102.119 49.9609L102.862 51.251V51.4479L102.959 51.3957L107.086 49.0527L106.684 48.3735C106.363 47.8148 106.033 47.2401 105.667 46.6936L105.266 46.0988C104.944 45.5924 104.606 45.0659 104.241 44.5756L103.505 43.5388L103.357 43.3298C103.284 43.2253 103.212 43.1208 103.131 43.0203L101.56 41.0109L101.014 40.3879L100.346 40.9546C100.236 41.4649 100.095 41.9681 99.9244 42.4617L100.933 41.6258C101.259 42.0276 101.576 42.4295 101.898 42.8515L102.219 43.2534C102.436 43.5146 102.621 43.8 102.834 44.0572L103.533 45.0378C103.875 45.5 104.192 45.9943 104.498 46.4725L105.362 47.8309L105.848 48.6628L103.24 50.182L102.838 49.4666L102.396 48.7794L102.826 48.5101L103.091 48.912L103.493 49.5992L105.45 48.4257L105.282 48.1404C105.245 48.0761 105.209 48.0118 105.169 47.9475L103.963 46.0787C103.855 45.9059 103.746 45.7371 103.622 45.5723L103.537 45.4196L103.413 45.5442L100.109 47.9153L99.5105 48.3172L99.6994 48.5825C101.315 50.9798 102.716 53.5148 103.887 56.1581L103.996 56.355L108.396 54.4139L108.521 54.3054L107.809 52.742C107.665 52.4366 107.512 52.1392 107.359 51.8418C107.267 51.6609 107.174 51.4841 107.086 51.3032L107.018 51.1666L104.988 52.2155L105.579 53.3649L105.125 53.586L104.377 52.1271L107.038 50.7084L107.239 51.1103C107.488 51.6006 107.741 52.0909 107.982 52.5772L108.903 54.6108C109.429 55.8888 109.984 57.2512 110.438 58.6297L107.572 59.5822L107.17 58.3443L107.046 58.0349L107.52 57.858C107.528 57.8858 107.539 57.9127 107.552 57.9384C107.6 58.063 107.653 58.1876 107.693 58.3403L107.95 59.0959L108.055 59.0597L110.108 58.3443L109.795 57.4361L108.915 55.1895L108.85 55.0488L104.385 56.9136L104.261 56.9779L104.373 57.2633L104.683 58.067C104.848 58.4689 105.012 58.8708 105.161 59.3008L105.86 61.3545L106.455 63.4443L106.953 65.5462L107.014 65.7632L111.169 64.875L111.692 64.7585H111.885L111.84 64.5736L111.672 63.8341C111.491 63.0304 111.306 62.2266 111.065 61.4228L111.021 61.2862L108.826 61.893L109.043 62.6687C109.092 62.8214 109.136 62.9821 109.176 63.1429L108.686 63.2635C108.645 63.0947 108.597 62.9299 108.549 62.7691L108.465 62.4717L108.244 61.668L111.137 60.816L111.539 62.2869C111.571 62.3954 111.595 62.5119 111.619 62.6245L112.17 64.9956L112.592 67.3748C112.616 67.4994 112.636 67.6199 112.656 67.7405L112.845 69.2556L109.851 69.6133L109.747 68.8095L109.71 68.5081C109.71 68.3433 109.67 68.1705 109.638 67.9977L110.136 67.9213C110.165 68.0781 110.185 68.2388 110.205 68.4076L110.305 69.2114L111.68 69.0306L112.564 68.91V68.7653C112.475 67.9294 112.323 67.0935 112.162 66.2857C112.118 66.0485 112.074 65.8154 112.033 65.5824L111.981 65.4578H111.852L107.255 66.354L107.118 66.3902L107.404 67.9977C107.452 68.275 107.504 68.5604 107.536 68.8497C107.568 69.1391 107.605 69.4164 107.645 69.6977C107.701 70.1317 107.757 70.5698 107.805 70.9958L107.97 73.17C107.97 73.3026 107.97 73.4353 107.99 73.5719L108.035 75.3402V75.5653L112.287 75.5251H113.01L112.966 73.7608C112.966 73.6603 112.966 73.5639 112.966 73.4634C112.966 73.2946 112.966 73.1218 112.942 72.953L112.869 72.0005L110.595 72.1613L110.659 72.9651C110.659 73.0655 110.659 73.166 110.679 73.2584V73.4353L110.177 73.4594C110.177 73.2665 110.177 73.0776 110.14 72.8847L110.06 71.8197L113.066 71.5705L113.179 73.0896L113.251 75.8747L113.179 78.6598L113.066 80.179L110.06 79.9338L110.14 78.8648C110.157 78.6746 110.169 78.4857 110.177 78.2981L110.679 78.3182V78.491C110.679 78.5875 110.679 78.6839 110.655 78.8125L110.595 79.6163L112.869 79.7771L112.942 78.8286C112.942 78.6558 112.962 78.483 112.966 78.3142C112.966 78.2137 112.966 78.1173 112.966 78.0128L113.006 76.4052V76.2525L108.75 76.2123H108.027L107.994 77.6189C107.994 77.7274 107.994 77.84 107.994 77.9485C107.994 78.1936 107.994 78.4508 107.958 78.7L107.797 80.8582L107.52 83.0163L107.154 85.1503L107.13 85.3714L111.298 86.1751L111.885 86.2837H112.013L112.033 86.1591C112.074 85.926 112.118 85.6889 112.162 85.4558C112.307 84.652 112.459 83.808 112.564 82.9761V82.8274L110.305 82.534L110.201 83.3378C110.181 83.4986 110.165 83.6553 110.136 83.808L109.638 83.7317C109.67 83.5588 109.69 83.386 109.71 83.2213L109.747 82.9198L109.851 82.1161L112.845 82.4697L112.656 83.9808C112.636 84.1054 112.616 84.226 112.592 84.3465L112.166 86.6775L111.615 89.0567C111.591 89.1692 111.567 89.2817 111.535 89.3943L111.133 90.8652L108.235 90.0172L108.461 89.2134L108.545 88.92C108.593 88.7593 108.641 88.5945 108.682 88.4257L109.172 88.5463C109.132 88.7151 109.083 88.8799 109.039 89.0245L108.822 89.7962L111.017 90.403L111.061 90.2623C111.302 89.4586 111.487 88.6548 111.668 87.851L111.836 87.1156L111.909 86.9347H111.72L107.15 85.9541L107.002 85.9179L106.925 86.2394C106.319 89.065 105.453 91.8284 104.337 94.4942L104.265 94.7072L108.706 96.564H108.87L109.791 94.2169L110.104 93.3127L107.946 92.5652L107.689 93.3247C107.649 93.4493 107.6 93.5699 107.552 93.6905L107.516 93.7829L107.042 93.6061L107.584 92.0548L110.45 93.0113C110 94.3938 109.445 95.7602 108.915 97.0302L107.994 99.0597C107.757 99.546 107.508 100.028 107.259 100.511L107.05 100.912L104.389 99.4978L105.137 98.0349L105.591 98.2519L105 99.4053L107.03 100.45L107.098 100.318C107.187 100.137 107.279 99.9599 107.371 99.7831C107.524 99.4817 107.677 99.1843 107.826 98.8748L108.489 97.4079L108.581 97.1949H108.38L104.136 95.3221L103.996 95.2498L103.859 95.5552C102.684 98.1944 101.277 100.724 99.6552 103.115L99.5386 103.28L99.627 103.372L103.043 105.707L103.553 106.053H103.674L103.718 105.992C103.843 105.832 103.951 105.663 104.06 105.49L105.266 103.621L105.366 103.444C105.398 103.388 105.43 103.328 105.466 103.271L105.543 103.143L103.586 101.973L102.906 103.071L102.476 102.805L102.923 102.11L103.324 101.399L105.933 102.914L105.45 103.75L104.53 105.168C104.225 105.647 103.907 106.137 103.566 106.603L102.87 107.584C102.673 107.857 102.468 108.142 102.255 108.408L101.954 108.789L100.985 110.043L98.6625 108.118L99.3618 107.23L99.6753 106.828L100.077 107.134L99.2734 108.15L101.046 109.585L102.187 108.134C102.255 108.05 102.324 107.966 102.384 107.877L103.156 106.796L103.075 106.708L99.7034 104.296L99.1166 103.894L98.9237 104.16C97.2387 106.506 95.3491 108.698 93.2772 110.71L93.0762 110.879L93.229 110.98L96.0824 113.926L96.5887 114.44L97.276 113.777L99.0523 111.924L98.2485 111.201L97.3523 110.377L96.4923 111.317L96.1266 110.968L97.0308 110.019L97.2478 109.77L99.4984 111.779L97.698 113.701C97.5734 113.833 97.4448 113.966 97.2961 114.102L95.6885 115.63H96.9545L98.0074 114.625C98.1923 114.44 98.3731 114.251 98.554 114.058L98.8875 113.709L99.7596 112.78Z" fill="#6C2C19"/>
<path d="M96.0542 114.946L92.7547 111.414L92.6502 111.309L92.4211 111.53C90.938 112.899 89.3717 114.174 87.7311 115.348L87.3533 115.622H88.8323L88.8725 115.589C90.2228 114.589 91.4847 113.56 92.6341 112.527L94.8164 114.918L94.4909 115.2L94.0086 115.622H95.3429L95.3831 115.581C95.5076 115.473 95.6242 115.36 95.7448 115.248L96.0542 114.946Z" fill="#6C2C19"/>
<path d="M25.792 112.828L25.2454 112.306L25.1289 112.209L21.9138 115.622H23.1194L25.1289 113.431L25.3821 113.656L26.3667 114.508L26.0412 114.89L25.0967 114.062L23.6861 115.642H24.8676L25.1771 115.288L25.579 115.642H26.5918L27.6045 114.436L25.792 112.828Z" fill="#6C2C19"/>
<path d="M92.6824 113.086L91.3642 114.227C91.2959 114.291 91.2235 114.356 91.1512 114.412L90.2912 115.091H90.0621L90.464 115.621H91.5651L91.3562 115.364C91.6937 115.103 92.0112 114.826 92.3247 114.56L92.61 114.311L92.9436 114.693L91.8625 115.63H93.1928L94.1734 114.778L92.6824 113.086Z" fill="#6C2C19"/>
<path d="M29.1116 113.897C26.8527 112.095 24.7562 110.098 22.8462 107.929L22.6894 107.789L19.0724 110.948L18.972 111.048L19.5909 111.759C19.6994 111.888 19.8199 112.013 19.9365 112.137L20.1415 112.354L21.3471 113.628L22.9547 112.021L22.0665 111.084L22.4322 110.739L23.1476 111.486C23.2842 111.631 23.4249 111.779 23.5495 111.92L21.4597 114.062C21.2949 113.905 21.1381 113.737 20.9854 113.576L20.0169 112.559C19.6391 112.181 19.2854 111.755 18.9398 111.353L18.5379 110.883L17.8145 110.043L16.8741 108.838C16.5325 108.404 16.1829 107.962 15.8613 107.499L18.3048 105.731L18.4977 106C18.5885 106.139 18.6864 106.273 18.7911 106.402L19.2975 107.045L18.8956 107.355L18.7871 107.218C18.5902 106.969 18.3852 106.712 18.1923 106.454L18.1039 106.334H18.0838L17.0951 107.077L16.2713 107.692L16.3637 107.813C16.5807 108.098 16.8058 108.383 17.0308 108.665L17.5854 109.368C17.8346 109.69 18.0958 110.023 18.3892 110.337L18.4897 110.441L22.171 107.339L22.3036 107.238L22.0786 106.993C20.231 104.77 18.5798 102.392 17.1434 99.8835L17.0228 99.6906L12.8713 102.054H12.6462L12.9517 102.58C13.1607 102.946 13.3536 103.312 13.5867 103.677L14.5351 105.16L16.4441 103.91L15.7488 102.825L16.1788 102.56L17.063 103.943L14.5552 105.623L13.4339 103.874C13.1848 103.472 12.9476 103.046 12.7105 102.628L12.3086 101.941L12.0313 101.459L11.2678 99.9679L11.0949 99.6344C10.9824 99.4174 10.8699 99.1963 10.7694 98.9713L10.3675 98.0911L13.1124 96.8493L13.1968 97.0301C13.3897 97.4602 13.5987 97.9062 13.8117 98.3322L13.3656 98.5573L13.1406 98.1152C13.0441 97.9223 12.9557 97.7133 12.8713 97.5285L12.807 97.3878L10.7332 98.3885L10.7975 98.5252C10.8377 98.6055 10.8739 98.6899 10.9101 98.7703C10.9824 98.9391 11.0548 99.1039 11.1391 99.2606L12.2403 101.407L12.2885 101.487H12.381L16.5687 99.2285L16.6812 99.1521L16.5405 98.8748C15.1663 96.3319 14.0282 93.6683 13.1406 90.9174L13.0602 90.7084L8.47864 92.1954L8.35004 92.3039L9.02521 94.3134L9.52356 95.5753L11.6455 94.7354L11.4285 94.1888C11.3441 93.9718 11.2557 93.7547 11.1753 93.5337L11.6495 93.3609C11.7701 93.6864 11.8987 94.0079 12.0273 94.3254C12.0997 94.5143 12.176 94.7032 12.2484 94.8881L9.45523 96.0294L8.89259 94.6108L7.99236 91.9583C7.8517 91.4961 7.71908 91.0339 7.59047 90.5718L7.37345 89.8122L7.22475 89.2817L6.87913 87.7907L9.82497 87.1356L10.042 88.0881C10.0902 88.3011 10.1384 88.5181 10.2027 88.7311L9.71646 88.8557L9.66824 88.6909C9.66824 88.6266 9.63608 88.5583 9.62001 88.494L9.41505 87.6018L7.19662 88.1283L7.40962 89.0526C7.44579 89.2214 7.49 89.3862 7.53823 89.551L7.62262 89.8403L8.06068 91.3836L8.09685 91.4961H8.20938L12.7186 90.1377L12.8673 90.0694L12.4975 88.7432C12.4654 88.6226 12.4332 88.5061 12.3971 88.3895C12.3328 88.1645 12.2644 87.9354 12.2162 87.6983L11.7299 85.5884L11.3481 83.4463C11.316 83.2775 11.2959 83.1047 11.2718 82.9158L11.0668 81.3082L11.0105 81.1073L6.25218 81.6177H6.06731L6.29237 83.386C6.29237 83.4784 6.31648 83.5749 6.32854 83.6673C6.32854 83.8401 6.37275 84.017 6.4049 84.1858L6.57369 85.1262L8.82025 84.7243L8.67557 83.9205C8.67557 83.812 8.6394 83.7075 8.62333 83.607V83.4302L9.11765 83.3579C9.1498 83.5749 9.18999 83.7919 9.22616 84.0049L9.39897 84.9775L6.43303 85.5241L6.16376 84.029L5.81814 81.264L5.63327 78.8527C5.63327 78.7321 5.63327 78.6075 5.60916 78.487L5.57299 76.9638L8.58715 76.9076L8.60725 77.7113C8.60725 77.8199 8.60725 77.9284 8.60725 78.0329C8.60725 78.1976 8.60725 78.3664 8.60725 78.5312L8.10489 78.5593C8.10489 78.3986 8.10489 78.2338 8.10489 78.065L8.08078 77.2612L6.6822 77.3054L5.8101 77.3336V77.4782C5.8101 78.282 5.87842 79.1179 5.93871 79.9137L5.99899 80.7175V80.8702L10.2429 80.4884L10.8337 80.4281L10.9583 80.4L10.8418 78.8447C10.8176 78.5473 10.7895 78.2418 10.7895 77.9364L10.7373 75.7702L10.7935 73.592L10.9462 71.4298V71.3575L10.9181 71.2249L6.13563 70.7747H5.99497V70.9154L5.93469 71.7192C5.8744 72.523 5.8101 73.3267 5.80608 74.1546V74.2993L8.07676 74.3716L8.10087 73.5679C8.10087 73.4031 8.10087 73.2423 8.10087 73.0776L8.60323 73.1057C8.60323 73.2705 8.60323 73.4393 8.60323 73.604C8.60323 73.7085 8.60323 73.817 8.60323 73.9255L8.58314 74.7293L5.56897 74.6731L5.60514 73.1539C5.60514 73.0334 5.61318 72.9128 5.62925 72.7922L5.8101 70.3809L6.15975 67.6119L6.42901 66.1128L9.39495 66.6594L9.22214 67.636C9.18195 67.845 9.14578 68.062 9.11363 68.279L8.61931 68.2067V68.0339C8.61931 67.9294 8.65548 67.8249 8.67155 67.7204L8.81623 66.9166L6.56967 66.5147L6.40088 67.4511C6.36873 67.6239 6.34461 67.7967 6.32452 67.9736C6.32452 68.066 6.32452 68.1625 6.28835 68.2589L6.08339 69.8665L6.05124 70.0353L10.8739 70.5497H11.0065L11.1834 69.1672C11.1834 69.0547 11.2115 68.9381 11.2276 68.8256C11.2557 68.5844 11.2838 68.3393 11.3361 68.0982L11.738 65.9641L12.2283 63.8462C12.2604 63.6854 12.3046 63.5287 12.3529 63.3679L12.811 61.7604L12.8552 61.5474L8.24957 60.1528H8.08881L7.61458 61.8126C7.59047 61.9051 7.56636 61.9975 7.53823 62.0859C7.49 62.2547 7.44177 62.4235 7.4056 62.5923L7.1926 63.5206L9.41103 64.0471L9.61599 63.1549C9.61599 63.0906 9.64412 63.0223 9.66422 62.962L9.71244 62.7892L10.1987 62.9178C10.1344 63.1308 10.0862 63.3478 10.038 63.5608L9.82095 64.5173L6.87109 63.8823L7.21269 62.4034L7.36541 61.8608L7.59449 61.0571C7.72309 60.611 7.84768 60.1649 7.99638 59.7228L8.70772 57.6008L9.45925 55.6637L12.2524 56.8051L12.0273 57.3677C11.9027 57.6892 11.7741 58.0107 11.6536 58.3323L11.1793 58.1594C11.2597 57.9424 11.3481 57.7254 11.4325 57.5084L11.6495 56.9538L9.52758 56.1179L9.02521 57.3959L8.37817 59.3008L8.35004 59.3932L8.41836 59.4575L12.9356 60.9405L13.0722 60.9727L13.1727 60.6753C14.0705 57.9257 15.2138 55.2625 16.5888 52.7179L16.6531 52.5209L12.4493 50.2181H12.2805L11.1432 52.4406C11.0548 52.6013 10.9824 52.7661 10.9101 52.9349C10.8739 53.0153 10.8377 53.0997 10.7975 53.18L10.7332 53.3167L11.6013 53.7186L12.807 54.2812L12.8713 54.1406C12.9557 53.9436 13.0441 53.7387 13.1365 53.5538L13.3656 53.1117L13.8117 53.3328C13.5947 53.7347 13.4098 54.1807 13.2129 54.5947L13.1124 54.8197L10.3675 53.5779L10.7694 52.6938C10.8699 52.4727 10.9824 52.2517 11.0949 52.0306C11.1552 51.9221 11.2115 51.8096 11.2637 51.7011L12.0273 50.2181L12.3046 49.7318C12.4413 49.5028 12.5699 49.2737 12.7065 49.0406C12.9436 48.6387 13.1807 48.2087 13.4259 47.8028L14.5512 46.0465L17.059 47.7264L16.1748 49.1089L15.7448 48.8437L16.4401 47.7545L14.5311 46.5087L13.5786 47.9917L12.9436 49.0928L12.7186 49.4947L12.799 49.5791L16.9063 51.9181L17.0349 51.9824L17.1876 51.7091C18.6271 49.1932 20.2852 46.8088 22.1429 44.5836L22.2916 44.4068L18.5902 41.3203L18.4776 41.2078L18.3731 41.3243C18.0918 41.6378 17.8306 41.9714 17.5694 42.2929L17.0429 42.964C16.8098 43.2574 16.5767 43.5548 16.3516 43.8522L16.2592 43.9728L18.0918 45.3312L18.1802 45.2146C18.3731 44.9574 18.5821 44.7042 18.775 44.451L18.8835 44.3104L19.2854 44.6238L18.7831 45.2628C18.6768 45.3914 18.5775 45.5255 18.4857 45.6647L18.2928 45.934L15.8533 44.1335C16.1748 43.6754 16.5285 43.2253 16.8741 42.7912L17.8025 41.5856L18.5299 40.7416C18.6665 40.5889 18.7991 40.4361 18.9318 40.2794C19.2774 39.8775 19.6391 39.4756 20.0169 39.0737L20.9814 38.061C21.1381 37.8962 21.2949 37.7314 21.4597 37.5707L23.5776 39.7208C23.4329 39.8614 23.2923 40.0101 23.1757 40.1548L22.4604 40.9023L22.0946 40.5567L22.9828 39.6203L21.3753 38.0128L20.1696 39.2948C20.0973 39.3752 20.0209 39.4515 19.9445 39.5279C19.8682 39.6042 19.7235 39.761 19.619 39.8856L19.0483 40.5165L18.9559 40.6331L22.171 43.4463L22.6171 43.8482L22.7256 43.9205L22.9265 43.6914C24.841 41.5265 26.9416 39.5336 29.2041 37.7355L29.405 37.5908L29.2844 37.4662L26.3788 33.7929L26.2863 33.6965L26.1778 33.7768C25.5067 34.2832 24.8596 34.8459 24.2367 35.3844L23.7062 35.8426L23.5897 35.943L25.1088 37.647L26.0894 36.7991L26.4149 37.2009L25.4223 38.061L25.1771 38.278L23.1395 36.0556C23.2199 35.9792 23.3043 35.9069 23.3887 35.8345L25.1249 34.3274L26.4431 33.2906L26.7686 33.0374C26.9495 32.8927 27.1343 32.748 27.3232 32.6114L29.1438 31.3133C29.3367 31.1806 29.5457 31.0561 29.7305 30.9114L29.9516 30.7707L31.5953 33.2986L31.5149 33.3508C31.31 33.4795 31.113 33.6081 30.904 33.7527L30.2369 34.227L29.9475 33.8251L30.4218 33.4915C30.5745 33.383 30.7232 33.2745 30.8799 33.178L31.0126 33.0936L30.2088 31.888L29.7426 31.1967L29.622 31.2691C29.4492 31.3736 29.2885 31.4861 29.1277 31.6026L27.6367 32.6636L26.9655 33.1258L26.8249 33.2182L26.9414 33.3388L29.7546 37.0402L29.835 37.209L30.1163 36.9839C31.7942 35.721 33.5529 34.5692 35.3811 33.5357C35.0797 33.383 34.7823 33.2142 34.4929 33.0414C32.9442 33.9362 31.4469 34.917 30.0078 35.9792L28.0788 33.379L29.4733 32.3903L29.7747 32.8324L28.7017 33.592L30.0199 35.4166L31.3662 34.4601L32.1298 33.9617L32.6322 33.6402L32.7527 33.5518L30.5906 30.1438L30.0601 29.6655L28.975 30.3327C28.8142 30.4331 28.6615 30.5416 28.5088 30.6502L26.9012 31.7996L25.4303 32.9329C24.9239 33.3348 24.4015 33.7367 23.9112 34.1787L23.3726 34.6489C22.9185 35.0508 22.4483 35.4527 22.0143 35.8546L21.8816 35.9913L25.0284 39.3511L25.1329 39.4555L25.78 38.8366L27.6045 37.2572L26.1618 35.5532L25.1691 36.4132L24.8114 36.0113L25.8362 35.1272L26.1175 34.9062L28.1712 37.422C26.1857 39.0442 24.3239 40.812 22.601 42.7108L20.1897 40.5487C20.3786 40.3357 20.5916 40.1468 20.7724 39.9257L21.3391 39.3109L21.741 39.6846L20.8327 40.6371L22.4925 42.1562L23.7946 40.7858C23.9112 40.6652 24.0277 40.5406 24.1523 40.4241L24.6949 39.9016L24.7994 39.7891L21.5039 36.3771L20.905 36.9437L19.1287 38.7844C18.984 38.9371 18.8353 39.0898 18.7027 39.2466L17.8708 40.2111L17.5613 40.5728C17.3845 40.7697 17.2117 40.9747 17.0429 41.1796L16.0261 42.4737C15.8412 42.7068 15.6564 42.9399 15.4755 43.1851L14.6235 44.3907L18.3772 47.0512L18.4937 47.1597L19.0322 46.4082L19.1769 46.2033C19.2734 46.0706 19.3698 45.934 19.4783 45.8014L20.5032 44.4992L18.7469 43.0926L17.9431 44.1295L17.5171 43.8L18.5701 42.4577L21.0698 44.5153C19.4536 46.5044 17.9892 48.6122 16.6892 50.821L13.876 49.1853C13.9202 49.1129 13.9644 49.0406 14.0046 48.9642L14.306 48.4498L14.7682 47.7264L15.2223 48.0158L14.9491 48.4458C14.8285 48.6307 14.7079 48.8155 14.5994 49.0084L14.5311 49.133L16.4561 50.2945L16.5325 50.1578C16.6186 50.0018 16.7125 49.8503 16.8138 49.7037L17.7382 48.2569L18.1401 47.634L18.2164 47.5054L14.302 44.8127L14.0127 45.2347C13.9644 45.299 13.9202 45.3713 13.872 45.4397L12.807 47.1035C12.6221 47.3768 12.4573 47.6661 12.2966 47.9475L11.5169 49.3018C10.6448 50.8812 9.90937 52.3722 9.25831 53.8592L9.16989 54.0401L13.3857 55.8888L13.5344 55.9571L13.5987 55.9852V55.7883L14.2176 54.4098C14.29 54.2451 14.3703 54.0843 14.4547 53.9195L14.9611 52.9389L12.9517 51.9141L12.3488 53.0836L11.8666 52.8545L12.6462 51.3314L15.5077 52.8425C14.3153 55.1097 13.3087 57.4698 12.4975 59.8996L9.4271 58.8668C9.47935 58.7221 9.52757 58.5734 9.57982 58.4247C9.70842 58.0228 9.84105 57.6209 9.98171 57.2552L10.4881 57.4481L10.3032 57.9223L10.042 58.6859L12.1599 59.4294L12.2082 59.2888C12.2484 59.1843 12.2845 59.0758 12.3167 58.9713C12.3488 58.8668 12.4051 58.706 12.4533 58.5694L13.2812 56.4675L13.3978 56.3509L13.3294 56.3188L13.2008 56.2866L8.94484 54.4982L7.94012 57.0542L7.13634 59.4656C6.96353 60.0322 6.79875 60.6069 6.63799 61.1817L6.43303 61.9091C6.37677 62.102 6.32452 62.311 6.27629 62.528L5.84627 64.3887L5.80608 64.5696L10.3032 65.5221L10.46 65.5542H10.4841V65.4336L10.8297 63.9306C10.8538 63.8381 10.8739 63.7497 10.894 63.6573C10.9261 63.5046 10.9623 63.3518 11.0065 63.2032L11.2557 62.327L9.08951 61.7282L9.04531 61.8769C9.01316 62.0055 8.97699 62.1301 8.94082 62.2547C8.86848 62.4998 8.79614 62.749 8.73987 63.0022L8.21742 62.8736C8.28574 62.5802 8.37014 62.2909 8.44248 62.0698L8.67155 61.2419L11.7822 62.1462L11.4165 63.4443L10.8538 65.8757L10.4157 68.3353L10.247 69.6655L7.03185 69.2636L7.16447 68.2308C7.1926 68.0138 7.22073 67.7887 7.2569 67.5677L7.7874 67.6521C7.74319 67.9053 7.71104 68.1625 7.67889 68.4116L7.63066 68.8135V68.9622L9.86114 69.2636L9.97367 68.3634C9.97367 68.2107 10.0219 68.058 10.05 67.9052L10.0983 67.632L10.3635 66.149V66.0043L5.71767 65.084L5.31578 67.1497C5.27559 67.3587 5.24344 67.5516 5.21531 67.7847L4.90183 70.3126L4.70491 72.8445C4.6808 73.391 4.66874 73.9376 4.65668 74.4842C4.65668 74.7856 4.65668 75.083 4.63257 75.3884V75.5813L9.23018 75.6135H9.38289L9.43514 73.7688C9.43514 73.5799 9.43514 73.3951 9.43514 73.2142L9.49944 72.31L7.2569 72.1613L7.22475 72.5913C7.22475 72.8806 7.18054 73.174 7.17251 73.4714L6.63799 73.4513L6.75052 71.7433L9.96563 72.0005L9.88928 72.9972C9.88928 73.1137 9.88928 73.2303 9.86114 73.3508L9.80086 75.8466L9.86114 78.3383C9.86114 78.4508 9.86114 78.5633 9.88928 78.6759L9.96563 79.6806L6.75052 79.9378L6.65005 78.5875V78.2338L7.18456 78.2097C7.18456 78.5031 7.21672 78.8005 7.23681 79.0858L7.26896 79.5239L9.5115 79.3671L9.4472 78.4709C9.4472 78.286 9.4472 78.0972 9.4472 77.9123L9.40701 76.2163V76.0636L4.65668 76.0998V76.3007C4.65668 76.5981 4.65668 76.8995 4.6808 77.2009C4.6808 77.7435 4.70491 78.2901 4.72902 78.8406L4.92595 81.3766L5.23942 83.8964C5.26755 84.1094 5.2997 84.3224 5.33989 84.5314L5.67748 86.4162L5.72169 86.5971L10.2228 85.7129H10.3876L10.0902 84.0531L10.042 83.7758C10.0139 83.6231 9.98573 83.4704 9.96563 83.3177L9.84909 82.4134L7.62262 82.7189V82.8676L7.67085 83.2695C7.703 83.5186 7.73515 83.7758 7.77936 84.029L7.24887 84.1134C7.2127 83.8924 7.18054 83.6633 7.15241 83.4463L7.02381 82.4215L10.2389 82.0196L10.4077 83.3619L10.8458 85.8174L11.4084 88.2288L11.7741 89.5229L8.66351 90.4271L8.43042 89.5992C8.35406 89.3299 8.27368 89.0567 8.20938 88.7753L8.73183 88.6467C8.79212 88.908 8.86446 89.1652 8.9368 89.4143C8.97297 89.5349 9.00512 89.6515 9.03727 89.772L9.08148 89.9207L11.2477 89.3179L10.9985 88.4458C10.9543 88.2971 10.9221 88.1484 10.886 87.9957C10.8498 87.843 10.8458 87.8108 10.8217 87.7224L10.4881 86.2515V86.0988H10.4519L5.8101 87.0874L6.28433 89.129C6.32988 89.338 6.38212 89.547 6.44107 89.7559L6.65809 90.5195C6.81483 91.0782 6.97558 91.6408 7.14437 92.1994L7.94815 94.6108L8.87651 96.9739L8.94885 97.1587L13.1928 95.3744L13.3455 95.3342V95.3101L13.4058 95.2819L13.2893 95.1694L12.4975 93.1037C12.4493 92.9751 12.4051 92.8425 12.3609 92.7018C12.3167 92.5611 12.2926 92.4888 12.2524 92.3843L12.2042 92.2436L10.0862 92.9952L10.3474 93.7628L10.5323 94.237L10.0259 94.4259C9.86918 94.024 9.73656 93.6422 9.62403 93.2564L9.47131 92.8103L12.5417 91.7774C13.359 94.2074 14.3711 96.5674 15.568 98.8346L12.7065 100.346L11.9269 98.8226L12.4091 98.5895L13.0079 99.759L15.0174 98.7382L14.5351 97.8018C14.4427 97.6249 14.3502 97.4481 14.2739 97.2632L13.655 95.8888V95.724L13.5786 95.7562L9.22616 97.6691L9.31457 97.846C9.96563 99.341 10.7051 100.832 11.5732 102.407L12.3569 103.77C12.5176 104.047 12.6784 104.332 12.8592 104.606L13.9323 106.27C13.9765 106.338 14.0207 106.41 14.0689 106.475L14.3583 106.897L18.1561 104.284L18.2847 104.2L16.8098 102.006C16.7174 101.861 16.6209 101.716 16.5365 101.559L16.4602 101.423L14.5351 102.58L14.6034 102.709C14.6999 102.886 14.8084 103.05 14.9169 103.219L15.2264 103.701L14.7722 103.991L14.3101 103.271C14.2096 103.099 14.1091 102.926 14.0127 102.753L13.88 102.532L16.6933 100.896C17.9932 103.105 19.4576 105.213 21.0738 107.202L18.562 109.24L17.5091 107.897L17.9351 107.568L18.7389 108.605L20.4951 107.198L19.4663 105.892C19.3538 105.755 19.2493 105.61 19.1488 105.462L18.5902 104.678L18.4817 104.541L18.3852 104.634L14.6235 107.302L15.4715 108.508C15.6524 108.753 15.8412 108.99 16.0261 109.223L17.0349 110.509C17.2117 110.731 17.4006 110.944 17.5854 111.161C17.6779 111.265 17.7743 111.374 17.8628 111.482L18.6947 112.439C18.8273 112.599 18.976 112.752 19.1287 112.913L20.6639 114.52L21.4958 115.324L24.6868 112.021L24.7953 111.9L24.1523 111.249C24.0398 111.144 23.9353 111.032 23.8268 110.919L23.6299 110.714L22.4925 109.509L20.8327 111.024L21.741 111.98L21.3391 112.354L20.7443 111.727C20.5514 111.526 20.3424 111.325 20.1656 111.108L22.5769 108.946C24.3076 110.853 26.1775 112.629 28.1712 114.259L27.066 115.622H28.1712L28.9227 114.665L29.3728 114.094L29.1116 113.897Z" fill="#6C2C19"/>
<path d="M30.052 114.637L29.8671 114.512L29.0231 115.622H31.4345L30.7553 115.135L30.052 114.637Z" fill="#6C2C19"/>
<path d="M54.5472 22.4314C54.4507 22.4314 54.3502 22.4314 54.2498 22.4556C54.081 22.4556 53.9082 22.4797 53.7394 22.5038L52.799 22.6203L53.016 24.4489C53.7403 24.3977 54.4601 24.2957 55.1701 24.1435L55.142 23.7979L54.2337 23.8702H54.0046H53.8318L53.7755 23.3357C53.9805 23.3116 54.1774 23.2955 54.3985 23.2754L55.4795 23.195L55.5398 23.9988C55.8304 23.9233 56.1162 23.8307 56.3959 23.7215L56.3155 22.4033V22.2426L54.5472 22.4314Z" fill="#6C2C19"/>
<path d="M57.0389 22.2788L57.0871 23.4081C57.6941 22.9763 58.3277 22.583 58.984 22.2306H58.0677H57.1916L57.0389 22.2788Z" fill="#6C2C19"/>
<path d="M59.4422 21.9854C60.0988 21.6572 60.7834 21.3882 61.4878 21.1817L59.6311 21.1375C59.4703 21.1375 59.3055 21.1375 59.1488 21.1375L56.6048 21.2018L53.9483 21.4027H53.7514L51.3401 21.7081L51.742 24.5214C51.963 24.5214 52.2644 24.5214 52.6181 24.4932L52.3488 22.4597L53.8519 22.2668L56.633 22.0578L59.0443 21.9975L59.4422 21.9854Z" fill="#6C2C19"/>
<path d="M49.3788 23.1629C49.5235 23.2393 49.6682 23.3157 49.8089 23.396L49.7526 23.0986L49.6079 23.1227L49.3788 23.1629Z" fill="#6C2C19"/>
<path d="M50.247 23.6613C50.6098 23.881 50.9516 24.134 51.2678 24.4168L50.8458 21.7885L48.6676 22.1702C48.4907 22.2024 48.3179 22.2345 48.1451 22.2747L47.7111 22.3752C48.1129 22.552 48.5751 22.7771 49.0373 22.9861L50.1023 22.7972L50.247 23.6613Z" fill="#6C2C19"/>
<path d="M106.435 75.8426C106.44 65.2623 102.876 54.9897 96.3195 46.6855C95.9293 46.8248 95.525 46.9204 95.1138 46.9709C99.259 52.0931 102.253 58.0476 103.893 64.4297C105.533 70.8118 105.779 77.4721 104.616 83.958C103.454 90.444 100.908 96.6037 97.1537 102.019C93.399 107.434 88.5227 111.977 82.8562 115.34L82.39 115.622H84.5281L84.5682 115.597C87.4878 113.734 90.1964 111.559 92.6462 109.111C97.0304 104.753 100.507 99.5687 102.873 93.8581C105.24 88.1475 106.451 82.0242 106.435 75.8426Z" fill="#6C2C19"/>
<path d="M13.4219 75.8425C13.4617 67.3418 15.8402 59.0159 20.2969 51.7769C24.7536 44.538 31.1165 38.6651 38.6887 34.8016C38.1771 34.6794 37.6737 34.525 37.1816 34.3395C30.7062 37.8081 25.1324 42.744 20.9062 48.7524C16.68 54.7608 13.9186 61.6749 12.843 68.9416C11.7673 76.2083 12.4073 83.6259 14.7116 90.601C17.0159 97.5761 20.9207 103.915 26.1136 109.111C28.5659 111.56 31.2772 113.735 34.1996 115.597L34.2398 115.621H36.3778L35.9116 115.34C29.0794 111.25 23.4191 105.465 19.479 98.5452C15.5389 91.6254 13.4525 83.8054 13.4219 75.8425Z" fill="#6C2C19"/>
<path d="M3.45498 75.8426C3.42718 66.4666 5.77071 57.2357 10.2677 49.0084C14.7646 40.7811 21.269 33.8245 29.1759 28.7855C28.8986 28.5041 28.6373 28.2309 28.3922 27.9817C25.0293 30.1666 21.9043 32.6976 19.0684 35.5332C8.46239 46.1189 2.45507 60.4577 2.34825 75.4421C2.24143 90.4266 8.04371 104.85 18.4977 115.585L18.5459 115.634H20.1012L19.844 115.376C14.6344 110.197 10.5036 104.037 7.69041 97.2508C4.87726 90.4649 3.43769 83.1885 3.45498 75.8426Z" fill="#6C2C19"/>
<path d="M116.402 75.8426C116.421 61.2914 110.859 47.287 100.861 36.7147C100.861 37.2211 100.829 37.7476 100.785 38.2741C110.447 48.8972 115.646 62.8349 115.3 77.1912C114.954 91.5475 109.091 105.219 98.9278 115.364L98.6706 115.622H100.226L100.274 115.573C110.633 104.945 116.422 90.6845 116.402 75.8426Z" fill="#6C2C19"/>
<path d="M76.0924 22.4557H76.1205C76.8359 22.3994 77.5553 22.3552 78.2505 22.3311L79.0543 22.303L78.3028 22.0377C65.8877 17.6936 52.3552 17.7589 39.9827 22.2226C40.3407 22.5028 40.7196 22.7554 41.116 22.9781C52.416 19.0764 64.6679 18.8919 76.0803 22.4517L76.0924 22.4557Z" fill="#6C2C19"/>
<path d="M59.3859 17.7937C67.312 17.7769 75.1562 19.3983 82.4262 22.556H82.4784H82.9406C83.3844 22.5568 83.8277 22.5246 84.2668 22.4596L84.7571 22.3832L84.307 22.1743C83.672 21.8769 83.037 21.5955 82.4141 21.3343C75.1328 18.2528 67.3044 16.6726 59.3979 16.6885C51.9931 16.7052 44.6521 18.0585 37.7281 20.6832C37.9853 20.9565 38.3872 21.2981 38.7007 21.5795C45.3181 19.1059 52.3213 17.8241 59.3859 17.7937Z" fill="#6C2C19"/>
<path d="M1.34111 75.8426C1.31663 66.1782 3.71775 56.6621 8.32449 48.1662C12.9312 39.6703 19.5963 32.4663 27.709 27.2141C27.4358 26.9046 27.1946 26.6233 26.9856 26.3661C19.8248 31.0425 13.7647 37.2179 9.22403 44.4656C4.68341 51.7133 1.77058 59.8605 0.686814 68.3441C-0.396951 76.8278 0.374199 85.4456 2.94697 93.602C5.51975 101.758 9.8328 109.259 15.5881 115.585L15.6323 115.638H17.1554L16.9183 115.384C6.89445 104.659 1.32549 90.5228 1.34111 75.8426Z" fill="#6C2C19"/>
<path d="M113.87 52.8224C110.901 45.7966 106.598 39.4133 101.198 34.026L100.797 33.6241C100.833 34.1225 100.865 34.6811 100.877 35.2759C111.326 45.9309 117.261 60.2061 117.447 75.1282C117.632 90.0503 112.054 104.469 101.874 115.38L101.636 115.634H103.16L103.204 115.581C110.775 107.225 115.802 96.8815 117.695 85.7659C119.588 74.6504 118.268 63.2253 113.89 52.8344L113.87 52.8224Z" fill="#6C2C19"/>
<mask id="path-21-inside-1_56_737" fill="white">
<path d="M88.133 101.684C88.5934 100.444 88.809 99.1274 88.768 97.8058C88.6675 93.4051 86.0633 89.7077 85.8985 89.4787C87.9832 91.6172 89.5612 94.1964 90.5162 97.0261C90.6992 97.5811 90.8508 98.146 90.9703 98.7181C91.1788 99.695 91.2945 100.689 91.3159 101.688C91.3159 102.03 91.3159 102.367 91.3159 102.697C91.3159 103.026 91.2798 103.34 91.2476 103.653C91.181 104.302 91.0763 104.946 90.9342 105.582C90.8297 106.032 90.7091 106.467 90.5725 106.88C90.4358 107.294 90.3233 107.612 90.1706 107.953C90.401 107.736 90.626 107.515 90.8457 107.29C91.0467 107.089 91.2476 106.888 91.4405 106.684C92.9017 105.176 94.2516 103.564 95.4795 101.861C95.9323 101.237 96.369 100.599 96.7897 99.9479C96.7369 99.3492 96.6456 98.7545 96.5164 98.1675C96.4802 97.9947 96.44 97.8259 96.3958 97.6531C94.6034 90.6321 87.7633 84.7645 84.2829 83.8844C84.604 84.9027 84.8169 85.9521 84.9179 87.0151C85.0291 88.1283 85.0075 89.2507 84.8536 90.3588C84.688 91.4783 84.3434 92.5639 83.8328 93.5739L83.4068 94.3134C83.2621 94.5545 83.1094 94.7715 82.9607 95.0046C82.6633 95.4588 82.382 95.9129 82.0966 96.3751C80.9703 98.2292 79.9519 100.147 79.0463 102.118C78.5962 103.103 78.1742 104.103 77.8125 105.128C77.4365 106.149 77.1672 107.207 77.0087 108.283C77.0395 107.185 77.2041 106.094 77.499 105.036C77.7816 103.971 78.1278 102.924 78.5359 101.901C79.3614 99.8559 80.3394 97.8758 81.4616 95.9772C81.7389 95.503 82.0283 95.0328 82.3217 94.5746C82.4664 94.3415 82.6311 94.1044 82.7638 93.8793L83.1656 93.2082C83.6407 92.2685 83.9687 91.2614 84.1382 90.2221C84.3125 89.1694 84.3665 88.1002 84.299 87.0352C84.2409 85.9664 84.0793 84.9059 83.8167 83.8683L83.7926 83.7759L83.8247 83.7035C83.8569 83.6392 83.889 83.5829 83.9172 83.5186C83.2516 82.0368 82.3105 80.6948 81.1441 79.5641C81.4609 79.9049 81.7411 80.278 81.9801 80.6773C82.4541 81.5008 82.7741 82.4037 82.9245 83.3418C83.0491 84.2835 83.0491 85.2375 82.9245 86.1791C82.8642 86.6494 82.7597 87.1075 82.6673 87.5697C82.5749 88.0319 82.4423 88.4739 82.3056 88.92C81.7701 90.6955 81.0775 92.4197 80.2359 94.0723C79.4125 95.726 78.4256 97.2931 77.29 98.7502C78.1661 97.1427 78.9619 95.4829 79.7014 93.811C80.055 92.9751 80.4127 92.1351 80.7141 91.2791C81.0155 90.4231 81.321 89.5671 81.5782 88.699C81.7148 88.265 81.8233 87.8269 81.9439 87.3888C82.0645 86.9508 82.1368 86.5167 82.2132 86.0747C82.3516 85.1977 82.388 84.3076 82.3217 83.4222C82.1835 81.7952 81.5142 80.2587 80.4167 79.0496C80.4368 79.3655 80.4368 79.6823 80.4167 79.9981C80.3924 80.4383 80.3454 80.8769 80.2761 81.3123C80.1307 82.182 79.9047 83.0364 79.6009 83.8643C78.9777 85.4981 78.1557 87.049 77.1534 88.482C76.2175 89.8995 75.3744 91.3762 74.6295 92.9028C74.2715 93.6722 73.9759 94.4692 73.7454 95.286C73.5289 96.115 73.381 96.9605 73.3033 97.8138C73.2386 96.0715 73.537 94.3347 74.1794 92.7139C74.8361 91.1084 75.6266 89.5611 76.5425 88.0881C76.9926 87.3406 77.4548 86.6333 77.8487 85.8898C78.2432 85.1479 78.5895 84.3814 78.8855 83.595C79.1775 82.8115 79.4034 82.0049 79.5607 81.1837C79.6389 80.773 79.6952 80.3585 79.7295 79.9418C79.763 79.5406 79.763 79.1374 79.7295 78.7362V78.5392L79.8621 78.4388L80.0028 78.3303C79.834 77.4842 79.4039 76.7124 78.773 76.1239C78.4073 78.9371 77.3543 81.5454 76.1045 84.0371C75.7749 84.664 75.4413 85.295 75.0716 85.9018C74.7019 86.5087 74.3361 87.1075 73.9463 87.7063C73.5565 88.3051 73.1425 88.8718 72.7406 89.4586C72.3388 90.0453 71.8766 90.5839 71.4466 91.1465L70.1605 92.8023C69.7586 93.3649 69.3567 93.9436 68.9549 94.5143C68.1845 95.6736 67.4905 96.8818 66.8771 98.1313C66.2542 99.38 65.7406 100.68 65.3419 102.018C65.1512 102.69 64.9983 103.373 64.8837 104.063C64.764 104.756 64.7102 105.458 64.723 106.161C64.6466 105.458 64.6466 104.75 64.723 104.047C64.7953 103.341 64.9066 102.639 65.0565 101.945C65.3724 100.558 65.8247 99.2048 66.4069 97.9063C66.9908 96.6071 67.6622 95.3489 68.4163 94.1406C68.8182 93.5498 69.2 92.9349 69.622 92.3763L70.896 90.6723C71.322 90.1096 71.76 89.5711 72.1659 88.9964C72.5719 88.4217 72.9697 87.8671 73.3475 87.2723C73.7253 86.6775 74.1191 86.1068 74.4688 85.504C74.8184 84.9011 75.16 84.2983 75.4936 83.6834C76.1445 82.4515 76.7216 81.182 77.2217 79.8816C77.7323 78.5965 78.1016 77.2597 78.3229 75.8948V75.7622L78.4113 75.7019L78.6886 75.505C79.1062 73.98 79.3078 72.404 79.2874 70.823C79.2704 69.4528 79.7763 68.1278 80.7021 67.1176C80.3685 67.3105 80.0309 67.4994 79.6813 67.6762C79.3316 67.853 78.9981 67.9977 78.6725 68.1504C78.3484 68.295 78.0319 68.456 77.7241 68.6327C76.4934 69.3145 75.5227 70.3841 74.9631 71.675C74.4076 73.0235 73.981 74.4216 73.6891 75.8506C73.6825 74.3595 73.9186 72.8772 74.3884 71.462C74.6512 70.731 75.0388 70.0512 75.5338 69.4525C76.0407 68.8607 76.6457 68.3604 77.3222 67.9736C77.6598 67.7927 78.0054 67.6239 78.3591 67.4752C78.7127 67.3265 79.0182 67.1939 79.3517 67.0372C80.0068 66.7358 80.6498 66.3942 81.2928 66.0485C81.9359 65.7029 82.5829 65.3171 83.2219 64.9313C84.9058 63.4564 87.4819 60.832 87.699 58.5372C87.8356 57.1065 87.8878 56.1862 87.9079 55.6075C87.8988 55.584 87.888 55.5612 87.8758 55.5391C87.6288 54.8937 87.4707 54.2177 87.4056 53.5297C87.3568 52.8564 87.4056 52.1796 87.5503 51.5203C87.7036 50.8687 87.933 50.2375 88.2335 49.6394C88.5261 49.0424 88.8949 48.4859 89.3306 47.9836C88.5979 49.0701 88.1148 50.3053 87.916 51.6006C87.8256 52.2311 87.8256 52.8711 87.916 53.5016C87.946 53.746 87.9943 53.9878 88.0606 54.225C88.3138 53.5176 88.8323 52.107 89.4472 50.6482C90.2453 49.0209 91.3925 47.5897 92.807 46.4565C93.2929 46.0487 93.8341 45.7118 94.4145 45.4557C93.9133 45.4767 93.4147 45.5385 92.9235 45.6406C92.6882 45.6812 92.4559 45.7376 92.2282 45.8094C92.0916 45.8456 91.955 45.8858 91.8264 45.9179C91.4687 46.0505 91.0989 46.155 90.7533 46.3198C89.3316 46.8979 88.0042 47.6849 86.8148 48.6548C85.614 49.6095 84.5163 50.6871 83.5394 51.8699C83.2942 52.1633 83.0411 52.4567 82.7999 52.7621L82.1207 53.6985C81.6586 54.3134 81.2245 54.9644 80.7784 55.6195C79.9023 56.9096 78.986 58.1836 78.0416 59.4415C77.1023 60.7106 76.0678 61.9063 74.947 63.0183C73.8269 64.1617 72.4645 65.0392 70.9603 65.5864C69.4587 66.0677 67.895 66.3277 66.3185 66.358C67.867 66.2027 69.3884 65.8446 70.8437 65.293C71.5547 64.9949 72.2289 64.616 72.8532 64.1637C73.4717 63.7048 74.0499 63.1939 74.5813 62.6365C75.6395 61.5003 76.6171 60.2917 77.5071 59.0195C78.4274 57.7576 79.2995 56.4675 80.1756 55.1734C80.6096 54.5264 81.0356 53.8753 81.5099 53.2363L82.2051 52.2678C82.4423 51.9543 82.7075 51.6609 82.9607 51.3555C83.9773 50.1299 85.1225 49.017 86.3767 48.0359C87.6161 47.0596 88.9935 46.2727 90.4639 45.7009C90.8377 45.5562 91.2235 45.4517 91.6053 45.3271L91.7219 45.299C92.0755 45.2227 92.4211 45.1182 92.7828 45.074C93.5773 44.9217 94.3898 44.8878 95.1942 44.9735H95.2786L95.3348 45.0458C95.3662 45.075 95.3944 45.1073 95.4192 45.1423C97.1273 44.7404 98.1481 42.7631 98.6665 40.8622C98.1844 40.561 97.6439 40.3655 97.0807 40.2886C96.5175 40.2117 95.9443 40.2551 95.3991 40.4161C94.7609 40.5901 94.18 40.9298 93.7152 41.4007C93.2355 41.9109 92.7847 42.4476 92.3649 43.0082C91.9478 43.5518 91.4441 44.023 90.8739 44.4028C90.8216 44.443 90.7654 44.4751 90.7171 44.5073C90.0745 44.8753 89.3632 45.1078 88.6273 45.1905C89.3005 44.9615 89.9327 44.6264 90.5001 44.1978L90.5926 44.1215C91.0907 43.6938 91.5251 43.1972 91.8826 42.6465C92.275 42.0219 92.7143 41.4281 93.1968 40.8702C93.7355 40.2959 94.4205 39.8791 95.1781 39.6645C95.9363 39.4391 96.7409 39.4197 97.5091 39.6083C97.8888 39.7031 98.2538 39.8491 98.5942 40.0423L98.8273 40.179C99.2291 38.2499 98.7951 37.5426 98.0677 37.1608C98.0849 37.1643 98.1027 37.1643 98.1199 37.1608C97.9138 37.1382 97.7097 37.1005 97.5091 37.0482C97.5148 36.8241 97.5054 36.5999 97.4809 36.3771C97.2961 35.292 96.0904 34.4882 95.0133 34.4159C92.6382 34.2672 92.2684 36.3047 91.754 38.0771C91.5192 38.9457 91.1141 39.759 90.5621 40.4696C90.0102 41.1803 89.3224 41.7741 88.5389 42.2165C87.7914 42.6372 86.9875 42.9485 86.1517 43.1409C86.7693 42.7006 87.3403 42.1983 87.8557 41.6418C88.9207 40.4924 90.0862 38.7442 90.1505 36.566C90.2509 32.7721 96.8861 29.5289 98.9679 35.1272C98.9649 34.9512 98.9529 34.7755 98.9317 34.6007C98.6544 32.3059 98.6022 31.6951 98.8916 30.7024C99.1809 29.7097 99.2613 28.9261 97.923 27.2703C96.5847 25.6145 96.9786 23.8783 92.7467 23.9346C88.5148 23.9909 84.307 24.3365 82.2694 23.5327C80.2319 22.7289 75.9517 23.5327 74.4085 23.7417C72.8652 23.9507 70.8156 23.1791 68.6414 23.4242C66.4672 23.6694 62.0062 22.0859 59.84 23.3157C58.2927 24.1918 57.6136 24.6218 57.2478 24.9956L57.3162 25.51L57.2639 25.6185C56.7729 26.6648 56.573 27.824 56.6852 28.9743C56.759 29.8375 56.5714 30.7029 56.1467 31.458C55.7669 32.18 55.2147 32.797 54.5391 33.2544C54.21 33.4779 53.846 33.6449 53.462 33.7487C53.4862 34.4721 53.4902 35.1955 53.4902 35.9149C53.4902 36.7468 53.4701 37.5787 53.5183 38.3905C53.5782 39.2111 53.7681 40.0169 54.081 40.7778C53.8453 40.428 53.6409 40.0582 53.4701 39.6726C53.3037 39.2855 53.181 38.8811 53.1044 38.4669C52.9654 37.6356 52.8755 36.7969 52.8351 35.9551L52.6985 33.4674C52.6625 32.9396 52.5845 32.4155 52.4654 31.9C52.4091 31.6348 52.3408 31.3736 52.2684 31.0963C51.7836 29.5268 51.1707 27.9999 50.4358 26.5308C50.2349 26.1289 50.0339 25.727 49.8169 25.301C48.5237 24.0032 46.8181 23.1973 44.9942 23.0223C44.8787 23.9379 44.4414 24.7826 43.7604 25.4055C43.039 27.6892 42.7861 30.095 43.017 32.4788C43.3465 33.0253 43.6961 33.5598 44.0659 34.0863C44.1061 34.1466 44.1543 34.2069 44.1945 34.2631C44.7968 35.0859 45.4691 35.8551 46.2039 36.562C46.9289 37.2738 47.7172 37.9181 48.559 38.487C48.9609 38.7924 49.415 39.0416 49.8571 39.2908C50.2992 39.5399 50.7694 39.7771 51.2195 40.0584C50.1775 39.8563 49.173 39.4943 48.2415 38.9853C47.771 38.7343 47.3185 38.4509 46.8871 38.1374C46.6621 37.9887 46.4852 37.7998 46.2602 37.635C46.0351 37.4702 45.8583 37.2894 45.6614 37.1005C45.2595 36.7227 44.9299 36.3168 44.5883 35.8948C44.2658 35.4702 43.9679 35.0274 43.6961 34.5686C43.6399 34.4641 43.5756 34.3596 43.5233 34.2551C43.4188 34.0582 43.3143 33.8532 43.2179 33.6442C43.2621 33.8653 43.3224 34.0903 43.3827 34.3154L43.4671 34.6007L43.5515 34.878L43.3224 35.0308C43.5073 35.8627 44.2869 38.3102 47.1082 40.7617C47.3011 40.826 47.5101 40.8903 47.699 40.9425C48.0607 41.0344 48.4288 41.0989 48.8001 41.1354C48.985 41.1354 49.1739 41.1716 49.3588 41.1756C49.5436 41.1797 49.7606 41.1997 49.9656 41.2198C50.3968 41.2679 50.8167 41.3889 51.2074 41.5775C51.7704 41.8605 52.2547 42.2782 52.6172 42.7936C52.9797 43.3089 53.2092 43.9059 53.2852 44.5314C52.9116 43.8644 52.4184 43.2718 51.8304 42.7832C51.27 42.3333 50.5919 42.0542 49.8772 41.9794C49.7044 41.9553 49.5276 41.9392 49.3105 41.9231C49.104 41.9102 48.8986 41.8834 48.6956 41.8428C48.514 41.8113 48.3342 41.7697 48.1571 41.7182C48.1792 41.743 48.2034 41.7659 48.2294 41.7865C48.8683 42.495 49.3759 43.3115 49.7285 44.1978L50.259 45.4638L50.5564 46.0666C50.6609 46.2676 50.7814 46.4444 50.898 46.6413C51.3635 47.3944 51.9564 48.0607 52.6502 48.6106C53.3294 49.1813 54.1131 49.6354 54.8928 50.182C55.2892 50.4608 55.658 50.7771 55.9939 51.1264C56.3215 51.4811 56.611 51.869 56.858 52.2838C57.3491 53.0844 57.7726 53.9246 58.124 54.7956C58.4815 55.6542 58.7836 56.5348 59.0282 57.432C58.6263 56.5921 58.2244 55.7642 57.7783 54.9604C57.3538 54.1503 56.8786 53.3677 56.3556 52.6174C56.1016 52.2544 55.818 51.9129 55.5077 51.5966C55.1874 51.2991 54.8418 51.0302 54.4748 50.7928C53.7273 50.2945 52.9034 49.8283 52.1559 49.2215C51.4053 48.6089 50.7686 47.8689 50.2751 47.0352C50.1625 46.8222 50.0339 46.6132 49.9335 46.4002L49.6361 45.7451C49.4713 45.303 49.3105 44.8449 49.1699 44.4229C48.886 43.5703 48.4726 42.7665 47.9441 42.0397C47.7758 41.8278 47.5888 41.6315 47.3855 41.4529C46.7384 42.2045 44.9742 44.4068 44.512 46.4082C44.317 47.0431 43.9787 47.6247 43.5233 48.1082C43.5233 48.3051 43.5233 48.5101 43.4912 48.7111V49.8806C43.5259 51.437 43.728 52.9851 44.094 54.4982C44.2687 55.2534 44.4861 55.9981 44.7451 56.7287C45.0146 57.4569 45.3217 58.1705 45.6654 58.8668C45.8422 59.2124 45.9949 59.5821 46.1999 59.9117L46.8027 60.9204C47.0015 61.2591 47.2188 61.5865 47.4538 61.901C47.6789 62.2266 47.9039 62.5521 48.125 62.8857C46.9473 61.7991 45.9394 60.5419 45.1349 59.1561C44.7261 58.4591 44.3675 57.7339 44.0619 56.9859C43.9132 56.6122 43.8006 56.2224 43.66 55.8446C43.5276 55.4618 43.4189 55.0712 43.3344 54.6751C42.9551 53.104 42.8022 51.4868 42.8803 49.8725C42.9205 49.4706 42.9366 49.0687 42.9848 48.695C41.1401 50.6522 38.1179 53.2122 36.3938 57.9022C33.9825 64.449 32.4111 71.5062 34.3522 78.2258L34.5331 78.2619L34.7501 78.3021L34.8265 78.5232C35.1882 79.5962 35.6302 80.6773 36.0763 81.7383C36.5224 82.7993 37.0168 83.8522 37.5472 84.8891C38.0777 85.926 38.6082 86.9508 39.1829 87.9635C39.7576 88.9763 40.3605 89.973 40.9593 90.9737C40.2009 90.0806 39.4899 89.1483 38.8293 88.1806C38.1621 87.22 37.5553 86.2073 36.9685 85.1865C36.3818 84.1657 35.8633 83.1127 35.3851 82.0357C34.9832 81.1194 34.5813 80.191 34.2678 79.2225C32.8366 83.249 30.9245 87.088 28.5731 90.6562C27.2862 92.6225 26.2354 94.7336 25.4424 96.9458C25.374 97.1266 25.3097 97.3074 25.2535 97.4923C24.7686 98.9308 24.4161 100.411 24.2005 101.913C24.1523 102.247 24.1081 102.58 24.0759 102.918C24.5743 103.561 25.0847 104.196 25.6192 104.811C25.5492 104.02 25.5398 103.224 25.5911 102.432V102.251C25.6111 101.977 25.6393 101.704 25.6714 101.427C25.8334 100.145 26.1463 98.886 26.6038 97.6772C26.7123 97.3959 26.8248 97.1105 26.9535 96.8292C28.008 94.4767 29.4969 92.3442 31.3421 90.5437C29.9294 92.4921 28.9422 94.7157 28.4445 97.0703C28.3641 97.4722 28.3038 97.9063 28.2636 98.3403C28.1532 99.452 28.2224 100.574 28.4686 101.664C28.5436 102.008 28.6389 102.348 28.7539 102.681C30.2208 106.957 32.1137 109.252 32.2624 111.12C34.3615 112.756 36.5976 114.208 38.9458 115.461H79.6129C81.5126 114.488 83.3405 113.382 85.0826 112.149C82.9607 109.641 85.8985 107.608 88.133 101.684ZM75.0113 73.7728C75.1004 73.219 75.2598 72.6788 75.4856 72.1653C75.704 71.6383 76.0097 71.1519 76.3898 70.7265C76.7545 70.2809 77.2423 69.9524 77.7924 69.7821C77.4383 70.1792 77.1296 70.6146 76.8721 71.0802C76.6216 71.5316 76.3949 71.9957 76.1929 72.4707C75.9759 72.9449 75.791 73.4393 75.5941 73.9296C75.5097 74.1787 75.4052 74.4279 75.3007 74.6811C75.203 74.9387 75.0917 75.1909 74.9671 75.4367C74.9377 75.1604 74.9243 74.8826 74.9269 74.6048C74.947 74.3234 74.9711 74.0461 75.0113 73.7728ZM47.5462 29.8866C47.7954 28.2308 48.8001 29.2476 48.5228 30.3608C48.4232 30.7373 48.4007 31.1299 48.4566 31.5153C48.5125 31.9007 48.6458 32.2708 48.8484 32.6033C48.9086 32.7078 48.9649 32.8163 49.0252 32.9289C49.0011 32.9048 48.8765 32.8043 48.7117 32.6355C48.2254 32.1412 47.3654 31.0882 47.5462 29.8866ZM46.9836 27.6119C47.6387 28.8577 45.6855 29.8384 47.9843 32.8364C48.4098 33.3739 48.8717 33.8815 49.3668 34.3556C48.5377 34.0748 47.7678 33.6429 47.0961 33.0816C46.2544 32.4021 45.6656 31.4595 45.4243 30.405C44.7772 27.431 46.224 26.1812 46.9836 27.6119ZM51.9027 38.704C51.9027 38.704 47.1765 37.6832 44.9782 34.1828C44.9058 34.0582 44.8295 33.9336 44.7652 33.809C42.9768 30.4251 44.8174 26.0043 44.9098 25.7712C44.8777 26.0083 44.2708 30.2844 45.9668 33.4071C46.3092 34.046 46.7608 34.62 47.3011 35.1031C50.1625 37.631 51.5732 34.9343 51.0547 32.1211C50.9631 31.5955 50.8051 31.0837 50.5845 30.5979C50.9379 31.0388 51.2299 31.5255 51.4526 32.0447C51.8886 32.9369 52.0293 33.9447 51.8545 34.9222C51.5638 36.1681 51.5804 37.466 51.9027 38.704ZM38.4997 90.821C38.2264 90.5678 37.9652 90.3065 37.6959 90.0373C37.1923 89.4855 36.7428 88.8866 36.3536 88.2489C35.9546 87.6102 35.6399 86.9226 35.4172 86.2033C35.166 85.4881 35.0943 84.7222 35.2082 83.9728C35.3921 84.6679 35.6494 85.3415 35.9759 85.9822C36.2893 86.6252 36.643 87.2401 37.0167 87.847C37.3905 88.4538 37.7803 89.0527 38.1702 89.6595C38.3792 89.9569 38.5721 90.2623 38.773 90.5718C38.974 90.8812 39.1749 91.1827 39.3557 91.5162C39.0664 91.2992 38.7851 91.0621 38.4997 90.821ZM42.3779 61.7805C42.1021 61.4795 41.8719 61.1396 41.6947 60.7717C41.5137 60.4036 41.3929 60.0087 41.3371 59.6022C41.2652 59.1931 41.2928 58.7727 41.4174 58.3765L42.39 60.4341L42.8763 61.4308C43.054 61.7836 43.2123 62.1459 43.3505 62.5159C42.9829 62.3342 42.6529 62.0847 42.3779 61.7805ZM44.3874 61.7523C44.0778 61.3965 43.7957 61.0176 43.5434 60.619C43.2971 60.2141 43.0796 59.7925 42.8924 59.3571C42.5131 58.4922 42.26 57.5772 42.1408 56.6403C42.0165 55.7115 42.0518 54.7682 42.2453 53.8512C42.3515 54.753 42.5152 55.647 42.7356 56.5278C42.9501 57.392 43.2378 58.2363 43.5957 59.0517C43.9453 59.8686 44.3719 60.6505 44.8697 61.3866C45.38 62.135 45.937 62.8505 46.5375 63.5287C45.7285 63.0649 45.0064 62.4638 44.4035 61.7523H44.3874ZM97.0991 31.249C97.4366 31.4822 97.7327 31.7702 97.9753 32.101C97.6396 31.8986 97.2874 31.7251 96.9223 31.5825C96.7471 31.5156 96.5671 31.4618 96.3838 31.4218L96.1145 31.3615L95.8412 31.3294C95.1167 31.261 94.3863 31.3671 93.7112 31.6388C93.3643 31.7716 93.0272 31.9287 92.7025 32.109C92.3689 32.2859 92.0635 32.5109 91.7339 32.7078C91.4044 32.9048 91.107 33.162 90.7975 33.4031C90.4881 33.6442 90.1907 33.9014 89.8571 34.1305C90.0621 33.7889 90.2952 33.4634 90.5323 33.1338C90.7694 32.8043 91.0748 32.531 91.3561 32.2416C91.5033 32.0969 91.6604 31.9626 91.8264 31.8398C91.9829 31.7041 92.1495 31.5805 92.3247 31.47L92.8592 31.1525C93.0468 31.0548 93.2417 30.9715 93.4419 30.9034C94.239 30.5843 95.1158 30.5224 95.9497 30.7265C96.3668 30.8283 96.7617 31.0054 97.1152 31.249H97.0991ZM95.7367 26.5469C95.8196 26.7869 95.8551 27.0408 95.8412 27.2944C95.8285 27.5421 95.7642 27.7844 95.6523 28.0057C95.6081 27.7606 95.58 27.5355 95.5398 27.3145C95.5016 27.0988 95.4465 26.8865 95.375 26.6795C95.2154 26.2556 94.9752 25.8667 94.6677 25.5341C94.9182 25.6001 95.1484 25.7272 95.3377 25.9039C95.5271 26.0806 95.6697 26.3016 95.7528 26.5469H95.7367ZM94.0207 25.7431C94.3212 26.0703 94.5559 26.4524 94.7119 26.8684C94.8542 27.2877 94.9261 27.7277 94.9249 28.1705C94.9223 28.3873 94.9035 28.6036 94.8686 28.8176C94.8247 29.0297 94.7683 29.239 94.6999 29.4445C94.6999 29.2235 94.6999 29.0185 94.6798 28.8095C94.6597 28.6005 94.6798 28.4076 94.6235 28.1866C94.5745 27.7838 94.4815 27.3876 94.3462 27.005C94.2095 26.6249 94.0215 26.2653 93.7876 25.936C93.5475 25.595 93.2637 25.287 92.9436 25.0197C93.3642 25.1668 93.7404 25.4185 94.0367 25.7511L94.0207 25.7431ZM93.3776 26.145C93.6338 26.4784 93.8172 26.8617 93.9162 27.2703C94.025 27.6789 94.0536 28.1047 94.0006 28.5242C93.9456 28.9593 93.7825 29.3738 93.5263 29.7298C93.2755 30.0664 92.9599 30.3492 92.598 30.5618C91.9134 30.9589 91.1387 31.1747 90.3474 31.1887C91.0222 30.8913 91.6602 30.5164 92.2483 30.0714C92.7804 29.673 93.1342 29.081 93.233 28.4237C93.2737 28.0933 93.2642 27.7586 93.2048 27.431C93.1489 27.0968 93.0361 26.7746 92.8713 26.4786C92.5104 25.8467 92.0032 25.3106 91.3923 24.9152C92.1929 25.0654 92.9075 25.5117 93.3937 26.1651L93.3776 26.145ZM87.49 25.8034C89.0332 24.7906 90.91 24.9353 91.6897 26.1128C92.4694 27.2904 91.8505 29.0748 90.3153 30.0915C88.78 31.1083 86.9032 30.9636 86.1195 29.7821C85.3358 28.6005 85.9749 26.8523 87.5061 25.8235L87.49 25.8034ZM82.6151 41.4127C83.0401 41.4054 83.4594 41.3139 83.8489 41.1435C84.2229 40.9656 84.5401 40.6874 84.7652 40.3397C84.8978 40.1187 85.0304 39.8454 85.1671 39.5721C85.2474 39.4194 85.3358 39.2707 85.4283 39.126C85.6871 38.7227 85.9979 38.3551 86.3526 38.0329C86.6964 37.7097 87.1085 37.4679 87.5583 37.3255C87.1486 37.537 86.7862 37.8296 86.4933 38.1856C86.2004 38.5312 85.9495 38.9102 85.7458 39.3149C85.6654 39.4837 85.581 39.6565 85.5087 39.8293C85.4929 39.8632 85.4794 39.8981 85.4685 39.9338C85.3921 40.1388 85.2916 40.3638 85.1831 40.5969C84.9334 41.0555 84.5566 41.4323 84.098 41.682C83.6471 41.9141 83.1533 42.0509 82.6472 42.0839C82.1632 42.1261 81.6764 42.1261 81.1924 42.0839C80.2359 41.9995 79.3156 41.8187 78.3992 41.6539C77.9811 41.5446 77.5491 41.4972 77.1172 41.5132C76.6835 41.5478 76.2549 41.63 75.8392 41.7584C74.9734 42.0301 74.1352 42.3826 73.3354 42.8113C71.7058 43.6954 70.1339 44.682 68.6293 45.7652C69.959 44.4331 71.4431 43.2647 73.0501 42.2848C73.8617 41.7812 74.7271 41.37 75.6302 41.0591C76.1002 40.9017 76.5872 40.8006 77.0811 40.7577C77.3363 40.7317 77.5934 40.7317 77.8487 40.7577C78.1219 40.7858 78.3229 40.834 78.56 40.8782C79.4683 41.0591 80.3725 41.2359 81.2728 41.3404C81.722 41.4105 82.1765 41.4415 82.6311 41.4328L82.6151 41.4127ZM68.1993 24.5254C69.626 24.5013 71.0487 24.5736 72.4754 24.6781C73.9021 24.7826 75.2886 24.9795 76.7073 25.2206C78.1139 25.4459 79.5067 25.7505 80.8789 26.1329C79.4562 26.0566 78.0416 25.94 76.635 25.8195L72.4071 25.4537C71.6998 25.3935 71.0005 25.3292 70.2972 25.2809C69.5939 25.2327 68.8906 25.1845 68.1832 25.1322C66.7726 25.0438 65.37 24.9795 63.9393 24.9313C65.3447 24.6715 66.7702 24.5356 68.1993 24.5254ZM60.9372 26.989C61.532 26.5338 62.2114 26.2014 62.9358 26.0109C63.6602 25.8205 64.4152 25.7759 65.157 25.8797C65.157 25.8797 66.0814 26.2053 65.4022 26.7599C64.723 27.3145 63.3927 25.6547 61.2265 27.0935C60.5905 27.5179 60.0663 28.0895 59.6983 28.7598C59.3303 29.43 59.1294 30.1791 59.1126 30.9435C59.0515 30.1832 59.1872 29.4199 59.5068 28.7272C59.8264 28.0346 60.319 27.4359 60.9372 26.989ZM61.6766 31.4097C61.4152 31.9197 61.117 32.41 60.7845 32.8766C60.4393 33.393 59.9315 33.7792 59.3417 33.9738C59.8316 33.6523 60.2215 33.1998 60.467 32.6676C60.684 32.2658 60.8689 31.8237 61.0457 31.3816C61.0899 31.2771 61.1341 31.1686 61.1823 31.0601C61.4055 30.4842 61.6883 29.9333 62.0263 29.4164C62.3969 28.8521 62.9312 28.4146 63.5575 28.1625C64.1929 27.9635 64.8698 27.9372 65.5187 28.0861C66.1332 28.2167 66.725 28.4374 67.275 28.7412C68.3564 29.3264 69.2623 30.1892 69.8993 31.2409C69.0602 30.4199 68.08 29.7569 67.0057 29.2837C66.6182 29.1099 66.2143 28.9753 65.8 28.8819C65.968 29.0169 66.1144 29.1768 66.2341 29.3561C66.4041 29.5989 66.5237 29.8734 66.5859 30.1632C66.648 30.453 66.6515 30.7524 66.596 31.0436C66.5405 31.3348 66.4273 31.6119 66.2629 31.8586C66.0985 32.1053 65.8864 32.3165 65.639 32.4798C65.3916 32.6431 65.114 32.7552 64.8225 32.8094C64.5311 32.8637 64.2318 32.8589 63.9422 32.7955C63.6526 32.7321 63.3787 32.6113 63.1366 32.4402C62.8945 32.2692 62.6892 32.0513 62.5327 31.7996C62.455 31.6916 62.3915 31.5741 62.3438 31.4499C62.2181 31.1598 62.1578 30.8456 62.167 30.5296C62.0142 30.7868 61.8736 31.0521 61.7289 31.3334C61.7125 31.3569 61.6951 31.3797 61.6766 31.4017V31.4097ZM63.6057 34.223C63.2877 34.1616 62.9736 34.0811 62.6653 33.9818C62.3667 33.8657 62.0755 33.7315 61.7932 33.5799C62.1187 33.5799 62.4282 33.5799 62.7376 33.6241H63.6459C64.2256 33.6094 64.801 33.5202 65.358 33.3589C65.8973 33.1809 66.3969 32.8997 66.8289 32.531C66.9934 32.392 67.1466 32.2401 67.287 32.0769C67.5488 31.7891 67.7804 31.4754 67.9783 31.1405C67.9631 31.4925 67.8827 31.8386 67.7411 32.1613C67.621 32.4507 67.4599 32.7213 67.2629 32.965C66.8331 33.5032 66.2545 33.9029 65.5991 34.1145C64.9491 34.2897 64.2682 34.3186 63.6057 34.1988V34.223ZM75.6945 98.1635C75.4672 96.7318 75.5328 95.2688 75.8874 93.8633C76.2237 92.4445 76.7652 91.0825 77.495 89.8203C77.6799 89.5068 77.8768 89.2054 78.0657 88.8919C78.2546 88.5784 78.4475 88.3011 78.6444 88.0118L79.207 87.1196C79.3758 86.8061 79.5687 86.5127 79.7295 86.2033C80.0759 85.5957 80.3819 84.9661 80.6458 84.3184C80.7806 83.9951 80.8947 83.6635 80.9874 83.3257C81.089 82.9868 81.1391 82.6346 81.1361 82.2808C81.2238 82.6342 81.2456 83.0007 81.2004 83.3619C81.1622 83.7238 81.0977 84.0824 81.0075 84.435C80.8218 85.1347 80.5744 85.8166 80.268 86.4725C79.9706 87.1298 79.6365 87.7698 79.2673 88.3895L78.7007 89.3058C78.5238 89.6073 78.3349 89.9006 78.1661 90.2061C77.4731 91.4151 76.9087 92.6934 76.4822 94.02C76.0469 95.3544 75.7823 96.7385 75.6945 98.1394V98.1635Z"/>
</mask>
<path d="M88.133 101.684C88.5934 100.444 88.809 99.1274 88.768 97.8058C88.6675 93.4051 86.0633 89.7077 85.8985 89.4787C87.9832 91.6172 89.5612 94.1964 90.5162 97.0261C90.6992 97.5811 90.8508 98.146 90.9703 98.7181C91.1788 99.695 91.2945 100.689 91.3159 101.688C91.3159 102.03 91.3159 102.367 91.3159 102.697C91.3159 103.026 91.2798 103.34 91.2476 103.653C91.181 104.302 91.0763 104.946 90.9342 105.582C90.8297 106.032 90.7091 106.467 90.5725 106.88C90.4358 107.294 90.3233 107.612 90.1706 107.953C90.401 107.736 90.626 107.515 90.8457 107.29C91.0467 107.089 91.2476 106.888 91.4405 106.684C92.9017 105.176 94.2516 103.564 95.4795 101.861C95.9323 101.237 96.369 100.599 96.7897 99.9479C96.7369 99.3492 96.6456 98.7545 96.5164 98.1675C96.4802 97.9947 96.44 97.8259 96.3958 97.6531C94.6034 90.6321 87.7633 84.7645 84.2829 83.8844C84.604 84.9027 84.8169 85.9521 84.9179 87.0151C85.0291 88.1283 85.0075 89.2507 84.8536 90.3588C84.688 91.4783 84.3434 92.5639 83.8328 93.5739L83.4068 94.3134C83.2621 94.5545 83.1094 94.7715 82.9607 95.0046C82.6633 95.4588 82.382 95.9129 82.0966 96.3751C80.9703 98.2292 79.9519 100.147 79.0463 102.118C78.5962 103.103 78.1742 104.103 77.8125 105.128C77.4365 106.149 77.1672 107.207 77.0087 108.283C77.0395 107.185 77.2041 106.094 77.499 105.036C77.7816 103.971 78.1278 102.924 78.5359 101.901C79.3614 99.8559 80.3394 97.8758 81.4616 95.9772C81.7389 95.503 82.0283 95.0328 82.3217 94.5746C82.4664 94.3415 82.6311 94.1044 82.7638 93.8793L83.1656 93.2082C83.6407 92.2685 83.9687 91.2614 84.1382 90.2221C84.3125 89.1694 84.3665 88.1002 84.299 87.0352C84.2409 85.9664 84.0793 84.9059 83.8167 83.8683L83.7926 83.7759L83.8247 83.7035C83.8569 83.6392 83.889 83.5829 83.9172 83.5186C83.2516 82.0368 82.3105 80.6948 81.1441 79.5641C81.4609 79.9049 81.7411 80.278 81.9801 80.6773C82.4541 81.5008 82.7741 82.4037 82.9245 83.3418C83.0491 84.2835 83.0491 85.2375 82.9245 86.1791C82.8642 86.6494 82.7597 87.1075 82.6673 87.5697C82.5749 88.0319 82.4423 88.4739 82.3056 88.92C81.7701 90.6955 81.0775 92.4197 80.2359 94.0723C79.4125 95.726 78.4256 97.2931 77.29 98.7502C78.1661 97.1427 78.9619 95.4829 79.7014 93.811C80.055 92.9751 80.4127 92.1351 80.7141 91.2791C81.0155 90.4231 81.321 89.5671 81.5782 88.699C81.7148 88.265 81.8233 87.8269 81.9439 87.3888C82.0645 86.9508 82.1368 86.5167 82.2132 86.0747C82.3516 85.1977 82.388 84.3076 82.3217 83.4222C82.1835 81.7952 81.5142 80.2587 80.4167 79.0496C80.4368 79.3655 80.4368 79.6823 80.4167 79.9981C80.3924 80.4383 80.3454 80.8769 80.2761 81.3123C80.1307 82.182 79.9047 83.0364 79.6009 83.8643C78.9777 85.4981 78.1557 87.049 77.1534 88.482C76.2175 89.8995 75.3744 91.3762 74.6295 92.9028C74.2715 93.6722 73.9759 94.4692 73.7454 95.286C73.5289 96.115 73.381 96.9605 73.3033 97.8138C73.2386 96.0715 73.537 94.3347 74.1794 92.7139C74.8361 91.1084 75.6266 89.5611 76.5425 88.0881C76.9926 87.3406 77.4548 86.6333 77.8487 85.8898C78.2432 85.1479 78.5895 84.3814 78.8855 83.595C79.1775 82.8115 79.4034 82.0049 79.5607 81.1837C79.6389 80.773 79.6952 80.3585 79.7295 79.9418C79.763 79.5406 79.763 79.1374 79.7295 78.7362V78.5392L79.8621 78.4388L80.0028 78.3303C79.834 77.4842 79.4039 76.7124 78.773 76.1239C78.4073 78.9371 77.3543 81.5454 76.1045 84.0371C75.7749 84.664 75.4413 85.295 75.0716 85.9018C74.7019 86.5087 74.3361 87.1075 73.9463 87.7063C73.5565 88.3051 73.1425 88.8718 72.7406 89.4586C72.3388 90.0453 71.8766 90.5839 71.4466 91.1465L70.1605 92.8023C69.7586 93.3649 69.3567 93.9436 68.9549 94.5143C68.1845 95.6736 67.4905 96.8818 66.8771 98.1313C66.2542 99.38 65.7406 100.68 65.3419 102.018C65.1512 102.69 64.9983 103.373 64.8837 104.063C64.764 104.756 64.7102 105.458 64.723 106.161C64.6466 105.458 64.6466 104.75 64.723 104.047C64.7953 103.341 64.9066 102.639 65.0565 101.945C65.3724 100.558 65.8247 99.2048 66.4069 97.9063C66.9908 96.6071 67.6622 95.3489 68.4163 94.1406C68.8182 93.5498 69.2 92.9349 69.622 92.3763L70.896 90.6723C71.322 90.1096 71.76 89.5711 72.1659 88.9964C72.5719 88.4217 72.9697 87.8671 73.3475 87.2723C73.7253 86.6775 74.1191 86.1068 74.4688 85.504C74.8184 84.9011 75.16 84.2983 75.4936 83.6834C76.1445 82.4515 76.7216 81.182 77.2217 79.8816C77.7323 78.5965 78.1016 77.2597 78.3229 75.8948V75.7622L78.4113 75.7019L78.6886 75.505C79.1062 73.98 79.3078 72.404 79.2874 70.823C79.2704 69.4528 79.7763 68.1278 80.7021 67.1176C80.3685 67.3105 80.0309 67.4994 79.6813 67.6762C79.3316 67.853 78.9981 67.9977 78.6725 68.1504C78.3484 68.295 78.0319 68.456 77.7241 68.6327C76.4934 69.3145 75.5227 70.3841 74.9631 71.675C74.4076 73.0235 73.981 74.4216 73.6891 75.8506C73.6825 74.3595 73.9186 72.8772 74.3884 71.462C74.6512 70.731 75.0388 70.0512 75.5338 69.4525C76.0407 68.8607 76.6457 68.3604 77.3222 67.9736C77.6598 67.7927 78.0054 67.6239 78.3591 67.4752C78.7127 67.3265 79.0182 67.1939 79.3517 67.0372C80.0068 66.7358 80.6498 66.3942 81.2928 66.0485C81.9359 65.7029 82.5829 65.3171 83.2219 64.9313C84.9058 63.4564 87.4819 60.832 87.699 58.5372C87.8356 57.1065 87.8878 56.1862 87.9079 55.6075C87.8988 55.584 87.888 55.5612 87.8758 55.5391C87.6288 54.8937 87.4707 54.2177 87.4056 53.5297C87.3568 52.8564 87.4056 52.1796 87.5503 51.5203C87.7036 50.8687 87.933 50.2375 88.2335 49.6394C88.5261 49.0424 88.8949 48.4859 89.3306 47.9836C88.5979 49.0701 88.1148 50.3053 87.916 51.6006C87.8256 52.2311 87.8256 52.8711 87.916 53.5016C87.946 53.746 87.9943 53.9878 88.0606 54.225C88.3138 53.5176 88.8323 52.107 89.4472 50.6482C90.2453 49.0209 91.3925 47.5897 92.807 46.4565C93.2929 46.0487 93.8341 45.7118 94.4145 45.4557C93.9133 45.4767 93.4147 45.5385 92.9235 45.6406C92.6882 45.6812 92.4559 45.7376 92.2282 45.8094C92.0916 45.8456 91.955 45.8858 91.8264 45.9179C91.4687 46.0505 91.0989 46.155 90.7533 46.3198C89.3316 46.8979 88.0042 47.6849 86.8148 48.6548C85.614 49.6095 84.5163 50.6871 83.5394 51.8699C83.2942 52.1633 83.0411 52.4567 82.7999 52.7621L82.1207 53.6985C81.6586 54.3134 81.2245 54.9644 80.7784 55.6195C79.9023 56.9096 78.986 58.1836 78.0416 59.4415C77.1023 60.7106 76.0678 61.9063 74.947 63.0183C73.8269 64.1617 72.4645 65.0392 70.9603 65.5864C69.4587 66.0677 67.895 66.3277 66.3185 66.358C67.867 66.2027 69.3884 65.8446 70.8437 65.293C71.5547 64.9949 72.2289 64.616 72.8532 64.1637C73.4717 63.7048 74.0499 63.1939 74.5813 62.6365C75.6395 61.5003 76.6171 60.2917 77.5071 59.0195C78.4274 57.7576 79.2995 56.4675 80.1756 55.1734C80.6096 54.5264 81.0356 53.8753 81.5099 53.2363L82.2051 52.2678C82.4423 51.9543 82.7075 51.6609 82.9607 51.3555C83.9773 50.1299 85.1225 49.017 86.3767 48.0359C87.6161 47.0596 88.9935 46.2727 90.4639 45.7009C90.8377 45.5562 91.2235 45.4517 91.6053 45.3271L91.7219 45.299C92.0755 45.2227 92.4211 45.1182 92.7828 45.074C93.5773 44.9217 94.3898 44.8878 95.1942 44.9735H95.2786L95.3348 45.0458C95.3662 45.075 95.3944 45.1073 95.4192 45.1423C97.1273 44.7404 98.1481 42.7631 98.6665 40.8622C98.1844 40.561 97.6439 40.3655 97.0807 40.2886C96.5175 40.2117 95.9443 40.2551 95.3991 40.4161C94.7609 40.5901 94.18 40.9298 93.7152 41.4007C93.2355 41.9109 92.7847 42.4476 92.3649 43.0082C91.9478 43.5518 91.4441 44.023 90.8739 44.4028C90.8216 44.443 90.7654 44.4751 90.7171 44.5073C90.0745 44.8753 89.3632 45.1078 88.6273 45.1905C89.3005 44.9615 89.9327 44.6264 90.5001 44.1978L90.5926 44.1215C91.0907 43.6938 91.5251 43.1972 91.8826 42.6465C92.275 42.0219 92.7143 41.4281 93.1968 40.8702C93.7355 40.2959 94.4205 39.8791 95.1781 39.6645C95.9363 39.4391 96.7409 39.4197 97.5091 39.6083C97.8888 39.7031 98.2538 39.8491 98.5942 40.0423L98.8273 40.179C99.2291 38.2499 98.7951 37.5426 98.0677 37.1608C98.0849 37.1643 98.1027 37.1643 98.1199 37.1608C97.9138 37.1382 97.7097 37.1005 97.5091 37.0482C97.5148 36.8241 97.5054 36.5999 97.4809 36.3771C97.2961 35.292 96.0904 34.4882 95.0133 34.4159C92.6382 34.2672 92.2684 36.3047 91.754 38.0771C91.5192 38.9457 91.1141 39.759 90.5621 40.4696C90.0102 41.1803 89.3224 41.7741 88.5389 42.2165C87.7914 42.6372 86.9875 42.9485 86.1517 43.1409C86.7693 42.7006 87.3403 42.1983 87.8557 41.6418C88.9207 40.4924 90.0862 38.7442 90.1505 36.566C90.2509 32.7721 96.8861 29.5289 98.9679 35.1272C98.9649 34.9512 98.9529 34.7755 98.9317 34.6007C98.6544 32.3059 98.6022 31.6951 98.8916 30.7024C99.1809 29.7097 99.2613 28.9261 97.923 27.2703C96.5847 25.6145 96.9786 23.8783 92.7467 23.9346C88.5148 23.9909 84.307 24.3365 82.2694 23.5327C80.2319 22.7289 75.9517 23.5327 74.4085 23.7417C72.8652 23.9507 70.8156 23.1791 68.6414 23.4242C66.4672 23.6694 62.0062 22.0859 59.84 23.3157C58.2927 24.1918 57.6136 24.6218 57.2478 24.9956L57.3162 25.51L57.2639 25.6185C56.7729 26.6648 56.573 27.824 56.6852 28.9743C56.759 29.8375 56.5714 30.7029 56.1467 31.458C55.7669 32.18 55.2147 32.797 54.5391 33.2544C54.21 33.4779 53.846 33.6449 53.462 33.7487C53.4862 34.4721 53.4902 35.1955 53.4902 35.9149C53.4902 36.7468 53.4701 37.5787 53.5183 38.3905C53.5782 39.2111 53.7681 40.0169 54.081 40.7778C53.8453 40.428 53.6409 40.0582 53.4701 39.6726C53.3037 39.2855 53.181 38.8811 53.1044 38.4669C52.9654 37.6356 52.8755 36.7969 52.8351 35.9551L52.6985 33.4674C52.6625 32.9396 52.5845 32.4155 52.4654 31.9C52.4091 31.6348 52.3408 31.3736 52.2684 31.0963C51.7836 29.5268 51.1707 27.9999 50.4358 26.5308C50.2349 26.1289 50.0339 25.727 49.8169 25.301C48.5237 24.0032 46.8181 23.1973 44.9942 23.0223C44.8787 23.9379 44.4414 24.7826 43.7604 25.4055C43.039 27.6892 42.7861 30.095 43.017 32.4788C43.3465 33.0253 43.6961 33.5598 44.0659 34.0863C44.1061 34.1466 44.1543 34.2069 44.1945 34.2631C44.7968 35.0859 45.4691 35.8551 46.2039 36.562C46.9289 37.2738 47.7172 37.9181 48.559 38.487C48.9609 38.7924 49.415 39.0416 49.8571 39.2908C50.2992 39.5399 50.7694 39.7771 51.2195 40.0584C50.1775 39.8563 49.173 39.4943 48.2415 38.9853C47.771 38.7343 47.3185 38.4509 46.8871 38.1374C46.6621 37.9887 46.4852 37.7998 46.2602 37.635C46.0351 37.4702 45.8583 37.2894 45.6614 37.1005C45.2595 36.7227 44.9299 36.3168 44.5883 35.8948C44.2658 35.4702 43.9679 35.0274 43.6961 34.5686C43.6399 34.4641 43.5756 34.3596 43.5233 34.2551C43.4188 34.0582 43.3143 33.8532 43.2179 33.6442C43.2621 33.8653 43.3224 34.0903 43.3827 34.3154L43.4671 34.6007L43.5515 34.878L43.3224 35.0308C43.5073 35.8627 44.2869 38.3102 47.1082 40.7617C47.3011 40.826 47.5101 40.8903 47.699 40.9425C48.0607 41.0344 48.4288 41.0989 48.8001 41.1354C48.985 41.1354 49.1739 41.1716 49.3588 41.1756C49.5436 41.1797 49.7606 41.1997 49.9656 41.2198C50.3968 41.2679 50.8167 41.3889 51.2074 41.5775C51.7704 41.8605 52.2547 42.2782 52.6172 42.7936C52.9797 43.3089 53.2092 43.9059 53.2852 44.5314C52.9116 43.8644 52.4184 43.2718 51.8304 42.7832C51.27 42.3333 50.5919 42.0542 49.8772 41.9794C49.7044 41.9553 49.5276 41.9392 49.3105 41.9231C49.104 41.9102 48.8986 41.8834 48.6956 41.8428C48.514 41.8113 48.3342 41.7697 48.1571 41.7182C48.1792 41.743 48.2034 41.7659 48.2294 41.7865C48.8683 42.495 49.3759 43.3115 49.7285 44.1978L50.259 45.4638L50.5564 46.0666C50.6609 46.2676 50.7814 46.4444 50.898 46.6413C51.3635 47.3944 51.9564 48.0607 52.6502 48.6106C53.3294 49.1813 54.1131 49.6354 54.8928 50.182C55.2892 50.4608 55.658 50.7771 55.9939 51.1264C56.3215 51.4811 56.611 51.869 56.858 52.2838C57.3491 53.0844 57.7726 53.9246 58.124 54.7956C58.4815 55.6542 58.7836 56.5348 59.0282 57.432C58.6263 56.5921 58.2244 55.7642 57.7783 54.9604C57.3538 54.1503 56.8786 53.3677 56.3556 52.6174C56.1016 52.2544 55.818 51.9129 55.5077 51.5966C55.1874 51.2991 54.8418 51.0302 54.4748 50.7928C53.7273 50.2945 52.9034 49.8283 52.1559 49.2215C51.4053 48.6089 50.7686 47.8689 50.2751 47.0352C50.1625 46.8222 50.0339 46.6132 49.9335 46.4002L49.6361 45.7451C49.4713 45.303 49.3105 44.8449 49.1699 44.4229C48.886 43.5703 48.4726 42.7665 47.9441 42.0397C47.7758 41.8278 47.5888 41.6315 47.3855 41.4529C46.7384 42.2045 44.9742 44.4068 44.512 46.4082C44.317 47.0431 43.9787 47.6247 43.5233 48.1082C43.5233 48.3051 43.5233 48.5101 43.4912 48.7111V49.8806C43.5259 51.437 43.728 52.9851 44.094 54.4982C44.2687 55.2534 44.4861 55.9981 44.7451 56.7287C45.0146 57.4569 45.3217 58.1705 45.6654 58.8668C45.8422 59.2124 45.9949 59.5821 46.1999 59.9117L46.8027 60.9204C47.0015 61.2591 47.2188 61.5865 47.4538 61.901C47.6789 62.2266 47.9039 62.5521 48.125 62.8857C46.9473 61.7991 45.9394 60.5419 45.1349 59.1561C44.7261 58.4591 44.3675 57.7339 44.0619 56.9859C43.9132 56.6122 43.8006 56.2224 43.66 55.8446C43.5276 55.4618 43.4189 55.0712 43.3344 54.6751C42.9551 53.104 42.8022 51.4868 42.8803 49.8725C42.9205 49.4706 42.9366 49.0687 42.9848 48.695C41.1401 50.6522 38.1179 53.2122 36.3938 57.9022C33.9825 64.449 32.4111 71.5062 34.3522 78.2258L34.5331 78.2619L34.7501 78.3021L34.8265 78.5232C35.1882 79.5962 35.6302 80.6773 36.0763 81.7383C36.5224 82.7993 37.0168 83.8522 37.5472 84.8891C38.0777 85.926 38.6082 86.9508 39.1829 87.9635C39.7576 88.9763 40.3605 89.973 40.9593 90.9737C40.2009 90.0806 39.4899 89.1483 38.8293 88.1806C38.1621 87.22 37.5553 86.2073 36.9685 85.1865C36.3818 84.1657 35.8633 83.1127 35.3851 82.0357C34.9832 81.1194 34.5813 80.191 34.2678 79.2225C32.8366 83.249 30.9245 87.088 28.5731 90.6562C27.2862 92.6225 26.2354 94.7336 25.4424 96.9458C25.374 97.1266 25.3097 97.3074 25.2535 97.4923C24.7686 98.9308 24.4161 100.411 24.2005 101.913C24.1523 102.247 24.1081 102.58 24.0759 102.918C24.5743 103.561 25.0847 104.196 25.6192 104.811C25.5492 104.02 25.5398 103.224 25.5911 102.432V102.251C25.6111 101.977 25.6393 101.704 25.6714 101.427C25.8334 100.145 26.1463 98.886 26.6038 97.6772C26.7123 97.3959 26.8248 97.1105 26.9535 96.8292C28.008 94.4767 29.4969 92.3442 31.3421 90.5437C29.9294 92.4921 28.9422 94.7157 28.4445 97.0703C28.3641 97.4722 28.3038 97.9063 28.2636 98.3403C28.1532 99.452 28.2224 100.574 28.4686 101.664C28.5436 102.008 28.6389 102.348 28.7539 102.681C30.2208 106.957 32.1137 109.252 32.2624 111.12C34.3615 112.756 36.5976 114.208 38.9458 115.461H79.6129C81.5126 114.488 83.3405 113.382 85.0826 112.149C82.9607 109.641 85.8985 107.608 88.133 101.684ZM75.0113 73.7728C75.1004 73.219 75.2598 72.6788 75.4856 72.1653C75.704 71.6383 76.0097 71.1519 76.3898 70.7265C76.7545 70.2809 77.2423 69.9524 77.7924 69.7821C77.4383 70.1792 77.1296 70.6146 76.8721 71.0802C76.6216 71.5316 76.3949 71.9957 76.1929 72.4707C75.9759 72.9449 75.791 73.4393 75.5941 73.9296C75.5097 74.1787 75.4052 74.4279 75.3007 74.6811C75.203 74.9387 75.0917 75.1909 74.9671 75.4367C74.9377 75.1604 74.9243 74.8826 74.9269 74.6048C74.947 74.3234 74.9711 74.0461 75.0113 73.7728ZM47.5462 29.8866C47.7954 28.2308 48.8001 29.2476 48.5228 30.3608C48.4232 30.7373 48.4007 31.1299 48.4566 31.5153C48.5125 31.9007 48.6458 32.2708 48.8484 32.6033C48.9086 32.7078 48.9649 32.8163 49.0252 32.9289C49.0011 32.9048 48.8765 32.8043 48.7117 32.6355C48.2254 32.1412 47.3654 31.0882 47.5462 29.8866ZM46.9836 27.6119C47.6387 28.8577 45.6855 29.8384 47.9843 32.8364C48.4098 33.3739 48.8717 33.8815 49.3668 34.3556C48.5377 34.0748 47.7678 33.6429 47.0961 33.0816C46.2544 32.4021 45.6656 31.4595 45.4243 30.405C44.7772 27.431 46.224 26.1812 46.9836 27.6119ZM51.9027 38.704C51.9027 38.704 47.1765 37.6832 44.9782 34.1828C44.9058 34.0582 44.8295 33.9336 44.7652 33.809C42.9768 30.4251 44.8174 26.0043 44.9098 25.7712C44.8777 26.0083 44.2708 30.2844 45.9668 33.4071C46.3092 34.046 46.7608 34.62 47.3011 35.1031C50.1625 37.631 51.5732 34.9343 51.0547 32.1211C50.9631 31.5955 50.8051 31.0837 50.5845 30.5979C50.9379 31.0388 51.2299 31.5255 51.4526 32.0447C51.8886 32.9369 52.0293 33.9447 51.8545 34.9222C51.5638 36.1681 51.5804 37.466 51.9027 38.704ZM38.4997 90.821C38.2264 90.5678 37.9652 90.3065 37.6959 90.0373C37.1923 89.4855 36.7428 88.8866 36.3536 88.2489C35.9546 87.6102 35.6399 86.9226 35.4172 86.2033C35.166 85.4881 35.0943 84.7222 35.2082 83.9728C35.3921 84.6679 35.6494 85.3415 35.9759 85.9822C36.2893 86.6252 36.643 87.2401 37.0167 87.847C37.3905 88.4538 37.7803 89.0527 38.1702 89.6595C38.3792 89.9569 38.5721 90.2623 38.773 90.5718C38.974 90.8812 39.1749 91.1827 39.3557 91.5162C39.0664 91.2992 38.7851 91.0621 38.4997 90.821ZM42.3779 61.7805C42.1021 61.4795 41.8719 61.1396 41.6947 60.7717C41.5137 60.4036 41.3929 60.0087 41.3371 59.6022C41.2652 59.1931 41.2928 58.7727 41.4174 58.3765L42.39 60.4341L42.8763 61.4308C43.054 61.7836 43.2123 62.1459 43.3505 62.5159C42.9829 62.3342 42.6529 62.0847 42.3779 61.7805ZM44.3874 61.7523C44.0778 61.3965 43.7957 61.0176 43.5434 60.619C43.2971 60.2141 43.0796 59.7925 42.8924 59.3571C42.5131 58.4922 42.26 57.5772 42.1408 56.6403C42.0165 55.7115 42.0518 54.7682 42.2453 53.8512C42.3515 54.753 42.5152 55.647 42.7356 56.5278C42.9501 57.392 43.2378 58.2363 43.5957 59.0517C43.9453 59.8686 44.3719 60.6505 44.8697 61.3866C45.38 62.135 45.937 62.8505 46.5375 63.5287C45.7285 63.0649 45.0064 62.4638 44.4035 61.7523H44.3874ZM97.0991 31.249C97.4366 31.4822 97.7327 31.7702 97.9753 32.101C97.6396 31.8986 97.2874 31.7251 96.9223 31.5825C96.7471 31.5156 96.5671 31.4618 96.3838 31.4218L96.1145 31.3615L95.8412 31.3294C95.1167 31.261 94.3863 31.3671 93.7112 31.6388C93.3643 31.7716 93.0272 31.9287 92.7025 32.109C92.3689 32.2859 92.0635 32.5109 91.7339 32.7078C91.4044 32.9048 91.107 33.162 90.7975 33.4031C90.4881 33.6442 90.1907 33.9014 89.8571 34.1305C90.0621 33.7889 90.2952 33.4634 90.5323 33.1338C90.7694 32.8043 91.0748 32.531 91.3561 32.2416C91.5033 32.0969 91.6604 31.9626 91.8264 31.8398C91.9829 31.7041 92.1495 31.5805 92.3247 31.47L92.8592 31.1525C93.0468 31.0548 93.2417 30.9715 93.4419 30.9034C94.239 30.5843 95.1158 30.5224 95.9497 30.7265C96.3668 30.8283 96.7617 31.0054 97.1152 31.249H97.0991ZM95.7367 26.5469C95.8196 26.7869 95.8551 27.0408 95.8412 27.2944C95.8285 27.5421 95.7642 27.7844 95.6523 28.0057C95.6081 27.7606 95.58 27.5355 95.5398 27.3145C95.5016 27.0988 95.4465 26.8865 95.375 26.6795C95.2154 26.2556 94.9752 25.8667 94.6677 25.5341C94.9182 25.6001 95.1484 25.7272 95.3377 25.9039C95.5271 26.0806 95.6697 26.3016 95.7528 26.5469H95.7367ZM94.0207 25.7431C94.3212 26.0703 94.5559 26.4524 94.7119 26.8684C94.8542 27.2877 94.9261 27.7277 94.9249 28.1705C94.9223 28.3873 94.9035 28.6036 94.8686 28.8176C94.8247 29.0297 94.7683 29.239 94.6999 29.4445C94.6999 29.2235 94.6999 29.0185 94.6798 28.8095C94.6597 28.6005 94.6798 28.4076 94.6235 28.1866C94.5745 27.7838 94.4815 27.3876 94.3462 27.005C94.2095 26.6249 94.0215 26.2653 93.7876 25.936C93.5475 25.595 93.2637 25.287 92.9436 25.0197C93.3642 25.1668 93.7404 25.4185 94.0367 25.7511L94.0207 25.7431ZM93.3776 26.145C93.6338 26.4784 93.8172 26.8617 93.9162 27.2703C94.025 27.6789 94.0536 28.1047 94.0006 28.5242C93.9456 28.9593 93.7825 29.3738 93.5263 29.7298C93.2755 30.0664 92.9599 30.3492 92.598 30.5618C91.9134 30.9589 91.1387 31.1747 90.3474 31.1887C91.0222 30.8913 91.6602 30.5164 92.2483 30.0714C92.7804 29.673 93.1342 29.081 93.233 28.4237C93.2737 28.0933 93.2642 27.7586 93.2048 27.431C93.1489 27.0968 93.0361 26.7746 92.8713 26.4786C92.5104 25.8467 92.0032 25.3106 91.3923 24.9152C92.1929 25.0654 92.9075 25.5117 93.3937 26.1651L93.3776 26.145ZM87.49 25.8034C89.0332 24.7906 90.91 24.9353 91.6897 26.1128C92.4694 27.2904 91.8505 29.0748 90.3153 30.0915C88.78 31.1083 86.9032 30.9636 86.1195 29.7821C85.3358 28.6005 85.9749 26.8523 87.5061 25.8235L87.49 25.8034ZM82.6151 41.4127C83.0401 41.4054 83.4594 41.3139 83.8489 41.1435C84.2229 40.9656 84.5401 40.6874 84.7652 40.3397C84.8978 40.1187 85.0304 39.8454 85.1671 39.5721C85.2474 39.4194 85.3358 39.2707 85.4283 39.126C85.6871 38.7227 85.9979 38.3551 86.3526 38.0329C86.6964 37.7097 87.1085 37.4679 87.5583 37.3255C87.1486 37.537 86.7862 37.8296 86.4933 38.1856C86.2004 38.5312 85.9495 38.9102 85.7458 39.3149C85.6654 39.4837 85.581 39.6565 85.5087 39.8293C85.4929 39.8632 85.4794 39.8981 85.4685 39.9338C85.3921 40.1388 85.2916 40.3638 85.1831 40.5969C84.9334 41.0555 84.5566 41.4323 84.098 41.682C83.6471 41.9141 83.1533 42.0509 82.6472 42.0839C82.1632 42.1261 81.6764 42.1261 81.1924 42.0839C80.2359 41.9995 79.3156 41.8187 78.3992 41.6539C77.9811 41.5446 77.5491 41.4972 77.1172 41.5132C76.6835 41.5478 76.2549 41.63 75.8392 41.7584C74.9734 42.0301 74.1352 42.3826 73.3354 42.8113C71.7058 43.6954 70.1339 44.682 68.6293 45.7652C69.959 44.4331 71.4431 43.2647 73.0501 42.2848C73.8617 41.7812 74.7271 41.37 75.6302 41.0591C76.1002 40.9017 76.5872 40.8006 77.0811 40.7577C77.3363 40.7317 77.5934 40.7317 77.8487 40.7577C78.1219 40.7858 78.3229 40.834 78.56 40.8782C79.4683 41.0591 80.3725 41.2359 81.2728 41.3404C81.722 41.4105 82.1765 41.4415 82.6311 41.4328L82.6151 41.4127ZM68.1993 24.5254C69.626 24.5013 71.0487 24.5736 72.4754 24.6781C73.9021 24.7826 75.2886 24.9795 76.7073 25.2206C78.1139 25.4459 79.5067 25.7505 80.8789 26.1329C79.4562 26.0566 78.0416 25.94 76.635 25.8195L72.4071 25.4537C71.6998 25.3935 71.0005 25.3292 70.2972 25.2809C69.5939 25.2327 68.8906 25.1845 68.1832 25.1322C66.7726 25.0438 65.37 24.9795 63.9393 24.9313C65.3447 24.6715 66.7702 24.5356 68.1993 24.5254ZM60.9372 26.989C61.532 26.5338 62.2114 26.2014 62.9358 26.0109C63.6602 25.8205 64.4152 25.7759 65.157 25.8797C65.157 25.8797 66.0814 26.2053 65.4022 26.7599C64.723 27.3145 63.3927 25.6547 61.2265 27.0935C60.5905 27.5179 60.0663 28.0895 59.6983 28.7598C59.3303 29.43 59.1294 30.1791 59.1126 30.9435C59.0515 30.1832 59.1872 29.4199 59.5068 28.7272C59.8264 28.0346 60.319 27.4359 60.9372 26.989ZM61.6766 31.4097C61.4152 31.9197 61.117 32.41 60.7845 32.8766C60.4393 33.393 59.9315 33.7792 59.3417 33.9738C59.8316 33.6523 60.2215 33.1998 60.467 32.6676C60.684 32.2658 60.8689 31.8237 61.0457 31.3816C61.0899 31.2771 61.1341 31.1686 61.1823 31.0601C61.4055 30.4842 61.6883 29.9333 62.0263 29.4164C62.3969 28.8521 62.9312 28.4146 63.5575 28.1625C64.1929 27.9635 64.8698 27.9372 65.5187 28.0861C66.1332 28.2167 66.725 28.4374 67.275 28.7412C68.3564 29.3264 69.2623 30.1892 69.8993 31.2409C69.0602 30.4199 68.08 29.7569 67.0057 29.2837C66.6182 29.1099 66.2143 28.9753 65.8 28.8819C65.968 29.0169 66.1144 29.1768 66.2341 29.3561C66.4041 29.5989 66.5237 29.8734 66.5859 30.1632C66.648 30.453 66.6515 30.7524 66.596 31.0436C66.5405 31.3348 66.4273 31.6119 66.2629 31.8586C66.0985 32.1053 65.8864 32.3165 65.639 32.4798C65.3916 32.6431 65.114 32.7552 64.8225 32.8094C64.5311 32.8637 64.2318 32.8589 63.9422 32.7955C63.6526 32.7321 63.3787 32.6113 63.1366 32.4402C62.8945 32.2692 62.6892 32.0513 62.5327 31.7996C62.455 31.6916 62.3915 31.5741 62.3438 31.4499C62.2181 31.1598 62.1578 30.8456 62.167 30.5296C62.0142 30.7868 61.8736 31.0521 61.7289 31.3334C61.7125 31.3569 61.6951 31.3797 61.6766 31.4017V31.4097ZM63.6057 34.223C63.2877 34.1616 62.9736 34.0811 62.6653 33.9818C62.3667 33.8657 62.0755 33.7315 61.7932 33.5799C62.1187 33.5799 62.4282 33.5799 62.7376 33.6241H63.6459C64.2256 33.6094 64.801 33.5202 65.358 33.3589C65.8973 33.1809 66.3969 32.8997 66.8289 32.531C66.9934 32.392 67.1466 32.2401 67.287 32.0769C67.5488 31.7891 67.7804 31.4754 67.9783 31.1405C67.9631 31.4925 67.8827 31.8386 67.7411 32.1613C67.621 32.4507 67.4599 32.7213 67.2629 32.965C66.8331 33.5032 66.2545 33.9029 65.5991 34.1145C64.9491 34.2897 64.2682 34.3186 63.6057 34.1988V34.223ZM75.6945 98.1635C75.4672 96.7318 75.5328 95.2688 75.8874 93.8633C76.2237 92.4445 76.7652 91.0825 77.495 89.8203C77.6799 89.5068 77.8768 89.2054 78.0657 88.8919C78.2546 88.5784 78.4475 88.3011 78.6444 88.0118L79.207 87.1196C79.3758 86.8061 79.5687 86.5127 79.7295 86.2033C80.0759 85.5957 80.3819 84.9661 80.6458 84.3184C80.7806 83.9951 80.8947 83.6635 80.9874 83.3257C81.089 82.9868 81.1391 82.6346 81.1361 82.2808C81.2238 82.6342 81.2456 83.0007 81.2004 83.3619C81.1622 83.7238 81.0977 84.0824 81.0075 84.435C80.8218 85.1347 80.5744 85.8166 80.268 86.4725C79.9706 87.1298 79.6365 87.7698 79.2673 88.3895L78.7007 89.3058C78.5238 89.6073 78.3349 89.9006 78.1661 90.2061C77.4731 91.4151 76.9087 92.6934 76.4822 94.02C76.0469 95.3544 75.7823 96.7385 75.6945 98.1394V98.1635Z" fill="#6C2C19" stroke="#6C2C19" stroke-width="2" mask="url(#path-21-inside-1_56_737)"/>
<path d="M42.6392 34.4882C41.6747 31.0079 42.3458 27.5396 42.8402 25.7632C40.5213 25.2287 27.1665 21.246 28.4967 0.970703C26.669 3.74281 25.5326 6.91281 25.183 10.2148C24.8333 13.5168 25.2806 16.8545 26.4873 19.9479C30.3454 30.0353 39.2513 33.3147 42.6392 34.4882ZM28.1712 13.4895C28.4096 15.1483 28.903 16.7601 29.6341 18.268C30.3548 19.7671 31.2666 21.1666 32.3468 22.4316C32.8913 23.055 33.4739 23.6443 34.091 24.1959C34.4045 24.4691 34.6899 24.7746 35.0234 25.0238C35.357 25.2729 35.6825 25.5261 36.0121 25.7833C36.1718 25.9175 36.3381 26.0436 36.5104 26.1611L37.0369 26.5027L38.0858 27.198C38.8052 27.628 39.5527 28.0017 40.2801 28.4679C39.4764 28.1786 38.6726 27.8731 37.905 27.5315L36.7716 26.9327C36.3878 26.7454 36.0196 26.5277 35.6705 26.2817C35.3128 26.0446 34.9591 25.8034 34.6055 25.5583C34.2518 25.3131 33.9423 25.0157 33.6048 24.7545C32.9498 24.194 32.3335 23.5898 31.7601 22.946C30.641 21.6253 29.7426 20.1324 29.0996 18.5252C28.4296 16.9335 28.1129 15.2155 28.1712 13.4895Z" fill="#6C2C19"/>
<path d="M56.4883 25.2448C56.0864 25.1443 55.3951 25.1082 54.1011 25.4256C52.9763 25.7165 51.8185 25.8597 50.6569 25.8517L50.9141 26.2817C51.3347 27.0078 51.7205 27.7553 52.0715 28.5242C52.4273 29.2937 52.7281 30.0874 52.9717 30.8994C53.1767 31.5763 53.3114 32.2726 53.3736 32.9771C54.1445 32.6699 54.8006 32.1302 55.2507 31.4331C55.7009 30.7359 55.9227 29.9159 55.8854 29.0869C55.7619 27.8256 55.9697 26.5539 56.4883 25.3975V25.2448Z" fill="#6C2C19"/>
<path d="M89.4552 13.7105C89.6161 15.4513 89.4289 17.2066 88.9045 18.8743C88.3801 20.542 87.529 22.0887 86.4009 23.4241C88.3098 23.4523 90.5363 23.3438 92.7748 23.3156C93.1767 23.3156 93.5585 23.3156 93.8921 23.3478C98.4857 13.2162 86.7987 5.21053 85.9749 4.672C86.3285 4.96538 88.9247 7.3325 89.4552 13.7105ZM91.1472 11.7774C91.5374 12.8457 91.7782 13.9628 91.8625 15.097C91.9356 16.2283 91.8627 17.3642 91.6455 18.4769C91.548 19.0317 91.4138 19.5795 91.2436 20.1166C91.0628 20.6471 90.8417 21.1615 90.6127 21.6679C90.677 21.1092 90.8015 20.5707 90.8739 20.0242L90.9784 19.2204L91.0346 18.8185L91.0628 18.4166C91.0628 18.1473 91.103 17.874 91.1311 17.6128V16.809V16.4072V16.0053C91.1311 15.74 91.1311 15.4667 91.0909 15.2015L91.0186 14.3977C90.9945 14.1325 90.9382 13.8632 90.906 13.5939C90.8739 13.3247 90.8096 13.0594 90.7614 12.7902C90.7131 12.5209 90.6408 12.2597 90.5765 11.9864C90.312 10.9201 89.9404 9.88331 89.4673 8.89183C90.2061 9.73774 90.7764 10.7172 91.1472 11.7774Z" fill="#6C2C19"/>
</svg>
