<svg width="122" height="122" viewBox="0 0 122 122" fill="none" xmlns="http://www.w3.org/2000/svg">
<path d="M95.7422 31.4805L93.7298 31.2828L93.8761 30.2291C93.8841 30.1693 93.8803 30.1084 93.8647 30.0501C93.8492 29.9917 93.8223 29.937 93.7856 29.889C93.7488 29.8411 93.703 29.8009 93.6507 29.7707C93.5984 29.7405 93.5406 29.721 93.4807 29.7132L91.4604 29.4898L91.6067 28.4322C91.6153 28.3722 91.6119 28.311 91.5966 28.2523C91.5813 28.1936 91.5544 28.1385 91.5176 28.0903C91.4808 28.0421 91.4348 28.0017 91.3822 27.9715C91.3296 27.9413 91.2715 27.9218 91.2113 27.9143L88.7245 27.6395C88.606 27.6296 88.4883 27.6664 88.3965 27.742C88.3046 27.8175 88.2459 27.926 88.2328 28.0442C88.2196 28.1624 88.2531 28.281 88.3261 28.3749C88.3991 28.4688 88.5059 28.5305 88.6237 28.5469L90.644 28.7702L90.4977 29.8278C90.4895 29.8885 90.4934 29.9501 90.5094 30.0092C90.5253 30.0683 90.553 30.1236 90.5906 30.1718C90.6279 30.2197 90.6744 30.2596 90.7273 30.2891C90.7803 30.3186 90.8387 30.3372 90.899 30.3438L92.9213 30.5691L92.773 31.6267C92.7572 31.7492 92.7907 31.8729 92.8659 31.9707C92.9041 32.019 92.9516 32.0591 93.0056 32.0887C93.0596 32.1182 93.119 32.1366 93.1802 32.1427L95.1926 32.3404L95.0463 33.394C95.0383 33.4537 95.0421 33.5145 95.0577 33.5727C95.0733 33.631 95.1002 33.6856 95.1369 33.7333C95.1737 33.7811 95.2195 33.8212 95.2719 33.8511C95.3242 33.8811 95.3819 33.9004 95.4417 33.908C95.4627 33.9099 95.4839 33.9099 95.5049 33.908C95.6155 33.908 95.7223 33.868 95.8055 33.7953C95.8888 33.7226 95.9428 33.6221 95.9576 33.5126L96.1691 31.9905C96.1849 31.868 96.1515 31.7443 96.0762 31.6465C96.0353 31.597 95.9844 31.5566 95.9268 31.528C95.8693 31.4994 95.8064 31.4832 95.7422 31.4805Z" fill="#6C2C19"/>
<path d="M88.0821 31.5772C88.0734 31.6374 88.077 31.6987 88.0926 31.7575C88.1083 31.8163 88.1356 31.8713 88.1731 31.9192C88.2105 31.9675 88.2573 32.0078 88.3106 32.0377C88.3639 32.0675 88.4227 32.0864 88.4834 32.0932L90.5037 32.3185L90.3574 33.3761C90.3486 33.4368 90.3523 33.4986 90.3683 33.5577C90.3843 33.6169 90.4122 33.6721 90.4504 33.7201C90.4883 33.7682 90.5355 33.8081 90.5891 33.8377C90.6428 33.8672 90.7018 33.8857 90.7627 33.8921L92.7771 34.0897L92.6308 35.1414C92.6227 35.2013 92.6266 35.2621 92.6421 35.3205C92.6576 35.3789 92.6845 35.4336 92.7213 35.4815C92.758 35.5295 92.8038 35.5697 92.8562 35.5998C92.9085 35.63 92.9662 35.6496 93.0261 35.6574H93.0894C93.1999 35.6574 93.3067 35.6174 93.3899 35.5446C93.4732 35.4719 93.5272 35.3715 93.5421 35.262L93.7516 33.7399C93.7599 33.6792 93.7559 33.6175 93.7399 33.5585C93.7238 33.4994 93.6961 33.4442 93.6583 33.396C93.6205 33.3479 93.5734 33.3079 93.5198 33.2783C93.4662 33.2487 93.4073 33.2302 93.3464 33.2239L91.332 33.0262L91.4783 31.9726C91.487 31.9124 91.4834 31.8511 91.4678 31.7923C91.4522 31.7335 91.4248 31.6785 91.3874 31.6306C91.3498 31.5824 91.303 31.5422 91.2497 31.5123C91.1964 31.4824 91.1377 31.4635 91.077 31.4566L89.0508 31.2451L89.1971 30.1895C89.2057 30.129 89.2021 30.0674 89.1865 30.0083C89.1709 29.9492 89.1435 29.8939 89.1061 29.8455C89.0684 29.7975 89.0216 29.7574 88.9683 29.7275C88.9151 29.6977 88.8564 29.6787 88.7958 29.6716L86.3089 29.3968C86.2485 29.3884 86.187 29.3922 86.128 29.408C86.0691 29.4237 86.0139 29.4512 85.9657 29.4886C85.9175 29.5261 85.8774 29.5728 85.8476 29.6261C85.8178 29.6793 85.7989 29.738 85.7922 29.7987C85.7855 29.8593 85.7909 29.9207 85.8083 29.9792C85.8257 30.0377 85.8546 30.0921 85.8934 30.1392C85.9322 30.1864 85.98 30.2252 86.0341 30.2536C86.0881 30.2819 86.1473 30.2991 86.2081 30.3042L88.2284 30.5275L88.0821 31.5772Z" fill="#6C2C19"/>
<path d="M97.8989 49.0779C98.6902 49.5668 99.6018 49.8262 100.532 49.8271C100.864 49.8265 101.195 49.7941 101.52 49.7302L101.934 51.0369C100.842 51.4979 99.9488 52.3297 99.4111 53.3854C99.3558 53.4931 99.3456 53.6184 99.3827 53.7337C99.4197 53.849 99.5011 53.9448 99.6088 54.0001C99.7164 54.0548 99.8412 54.0647 99.956 54.0277C100.071 53.9907 100.166 53.9097 100.222 53.8025C100.646 52.9663 101.344 52.3003 102.198 51.9146L102.612 53.2213C102.641 53.3136 102.699 53.3942 102.777 53.4514C102.855 53.5086 102.95 53.5395 103.046 53.5395C103.093 53.5391 103.14 53.5318 103.185 53.5178C103.242 53.4998 103.295 53.4707 103.341 53.4321C103.387 53.3936 103.425 53.3463 103.453 53.2931C103.481 53.2398 103.498 53.1816 103.503 53.1218C103.508 53.062 103.501 53.0018 103.483 52.9445L103.068 51.6319C103.994 51.4369 104.958 51.5675 105.798 52.0016C105.906 52.0566 106.032 52.0665 106.147 52.0291C106.262 51.9916 106.358 51.9099 106.413 51.8019C106.468 51.6939 106.478 51.5685 106.44 51.4532C106.403 51.3379 106.321 51.2422 106.213 51.1871C105.162 50.6465 103.954 50.4939 102.801 50.7562L102.406 49.4733C103.423 49.0695 104.28 48.3449 104.847 47.4095C104.907 47.3063 104.924 47.1839 104.895 47.0684C104.865 46.9529 104.792 46.8534 104.69 46.7912C104.589 46.729 104.467 46.7091 104.351 46.7356C104.234 46.7621 104.133 46.8329 104.069 46.9331C103.611 47.6789 102.927 48.2597 102.117 48.5916L101.722 47.3719C101.706 47.3121 101.679 47.256 101.641 47.2072C101.603 47.1584 101.555 47.1178 101.501 47.0879C101.447 47.058 101.387 47.0395 101.326 47.0333C101.264 47.0272 101.202 47.0337 101.143 47.0523C101.084 47.0709 101.029 47.1014 100.982 47.1418C100.935 47.1821 100.897 47.2316 100.87 47.2872C100.843 47.3428 100.827 47.4033 100.824 47.4651C100.821 47.5269 100.831 47.5887 100.852 47.6467L101.23 48.8446C100.24 49.0193 99.2201 48.8252 98.3634 48.299C98.3123 48.266 98.255 48.2435 98.195 48.2329C98.1351 48.2224 98.0736 48.2239 98.0142 48.2374C97.9548 48.251 97.8987 48.2763 97.8493 48.3118C97.7998 48.3473 97.758 48.3924 97.7262 48.4444C97.6944 48.4963 97.6733 48.5541 97.6642 48.6143C97.6551 48.6746 97.6581 48.736 97.6731 48.795C97.6881 48.8541 97.7148 48.9095 97.7515 48.9581C97.7882 49.0066 97.8343 49.0474 97.887 49.0779H97.8989Z" fill="#6C2C19"/>
<path d="M105.887 68.9151C104.887 68.0315 103.019 68.4327 102.81 68.4822C102.748 68.4916 102.689 68.5137 102.636 68.547C102.583 68.5803 102.537 68.6241 102.502 68.6757C102.467 68.7273 102.442 68.7856 102.43 68.847C102.419 68.9084 102.419 68.9716 102.433 69.0326C102.447 69.0936 102.472 69.1512 102.509 69.2018C102.546 69.2524 102.593 69.2949 102.647 69.3267C102.7 69.3585 102.76 69.3789 102.822 69.3867C102.884 69.3944 102.947 69.3893 103.007 69.3717C103.42 69.2749 104.723 69.1128 105.277 69.5991C105.5 69.7967 105.587 70.0992 105.545 70.5262C105.535 70.609 105.507 70.6885 105.462 70.7589C105.417 70.8294 105.357 70.8889 105.286 70.9334C104.927 71.2023 103.865 71.6213 100.829 71.3881C99.0398 71.2517 97.4385 70.9492 97.4227 70.9472C97.3238 70.9262 97.2207 70.9385 97.1295 70.9824C97.0384 71.0263 96.9644 71.0992 96.9191 71.1896C96.8739 71.2801 96.86 71.3831 96.8796 71.4823C96.8991 71.5815 96.9511 71.6715 97.0274 71.738C97.0954 71.8116 97.1857 71.8609 97.2844 71.8783C97.3002 71.8783 98.9053 72.1571 100.629 72.6532C103.557 73.4973 104.403 74.2584 104.648 74.63C104.699 74.6958 104.734 74.7724 104.752 74.8539C104.769 74.9354 104.767 75.0197 104.747 75.1005C104.638 75.5156 104.45 75.7687 104.174 75.8754C103.486 76.1403 102.347 75.5473 101.965 75.2962C101.865 75.2337 101.743 75.2129 101.627 75.2383C101.511 75.2637 101.41 75.3332 101.344 75.4322C101.279 75.5312 101.254 75.6518 101.276 75.7685C101.298 75.8852 101.364 75.9888 101.461 76.0573C101.775 76.2572 102.105 76.4279 102.45 76.5673C102.868 76.7448 103.316 76.842 103.77 76.8539C104.016 76.8568 104.26 76.8139 104.49 76.7274C105.194 76.4586 105.494 75.8201 105.623 75.3318C105.673 75.1282 105.681 74.9162 105.643 74.7097C105.606 74.5032 105.526 74.3069 105.407 74.1339C105.012 73.5052 104.081 72.9142 102.667 72.3666C104.168 72.3429 105.237 72.1116 105.83 71.6668C106.002 71.5467 106.146 71.3912 106.253 71.2109C106.36 71.0306 106.428 70.8295 106.451 70.6211C106.554 69.7078 106.2 69.1997 105.887 68.9151Z" fill="#6C2C19"/>
<path d="M95.6672 90.1855L92.0674 90.1025C92.2104 89.5433 92.1751 88.9534 91.9663 88.4153C91.7574 87.8772 91.3856 87.4179 90.9028 87.1016C90.42 86.7853 89.8503 86.6279 89.2736 86.6513C88.6969 86.6748 88.142 86.878 87.6865 87.2325C87.231 87.5871 86.8977 88.0751 86.7333 88.6284C86.5689 89.1817 86.5816 89.7725 86.7697 90.3182C86.9577 90.8639 87.3117 91.3372 87.7821 91.6718C88.2524 92.0063 88.8156 92.1855 89.3928 92.1841C89.4918 92.1839 89.5908 92.1786 89.6893 92.1683L89.9324 95.8194C89.94 95.935 89.9911 96.0434 90.0755 96.1227C90.1599 96.2019 90.2713 96.2462 90.3871 96.2464H90.4168C90.5372 96.2383 90.6496 96.1828 90.7293 96.092C90.8089 96.0013 90.8494 95.8826 90.8418 95.7621L90.5848 91.9113C91.0114 91.7062 91.3782 91.3952 91.6503 91.0079L95.6434 91.1008C95.7645 91.1024 95.8813 91.0558 95.9681 90.9713C96.0548 90.8867 96.1044 90.7712 96.106 90.6501C96.1076 90.529 96.061 90.4122 95.9765 90.3255C95.8919 90.2387 95.7764 90.1891 95.6553 90.1875L95.6672 90.1855ZM89.3928 91.2728C89.0268 91.2728 88.6691 91.1643 88.3648 90.961C88.0605 90.7577 87.8234 90.4687 87.6833 90.1306C87.5433 89.7925 87.5066 89.4204 87.578 89.0615C87.6494 88.7026 87.8257 88.3729 88.0844 88.1141C88.3432 87.8554 88.6729 87.6792 89.0318 87.6078C89.3907 87.5364 89.7628 87.573 90.1009 87.7131C90.4389 87.8531 90.7279 88.0903 90.9312 88.3945C91.1345 88.6988 91.2431 89.0565 91.2431 89.4225C91.2425 89.9131 91.0474 90.3834 90.7006 90.7303C90.3537 91.0772 89.8833 91.2723 89.3928 91.2728Z" fill="#6C2C19"/>
<path d="M75.9131 104.169C75.2569 104.009 74.5814 103.943 73.9066 103.972L72.9043 99.1325C73.4712 98.8454 73.9971 98.4837 74.468 98.0571C74.5153 98.0177 74.5542 97.9692 74.5823 97.9143C74.6104 97.8595 74.6271 97.7996 74.6314 97.7382C74.6357 97.6767 74.6276 97.615 74.6074 97.5568C74.5873 97.4986 74.5556 97.4451 74.5142 97.3995C74.4728 97.3538 74.4227 97.317 74.3667 97.2913C74.3108 97.2656 74.2502 97.2514 74.1886 97.2497C74.1271 97.248 74.0658 97.2587 74.0085 97.2813C73.9512 97.3039 73.899 97.3378 73.8552 97.3811C71.3051 99.6959 67.5077 99.0949 67.4503 99.0851C67.3902 99.0723 67.3281 99.0718 67.2677 99.0836C67.2074 99.0954 67.1501 99.1193 67.0992 99.1538C67.0483 99.1883 67.0049 99.2327 66.9716 99.2844C66.9383 99.3361 66.9157 99.394 66.9053 99.4546C66.8949 99.5152 66.8969 99.5773 66.9111 99.6371C66.9253 99.6969 66.9514 99.7533 66.9879 99.8028C67.0244 99.8523 67.0705 99.8939 67.1235 99.9251C67.1765 99.9563 67.2352 99.9765 67.2962 99.9845C67.7542 100.053 68.2168 100.085 68.6799 100.081C68.8618 100.081 69.0575 100.081 69.273 100.066L70.2614 104.936C69.7104 105.198 69.1866 105.513 68.6977 105.877C68.6223 105.936 68.5671 106.016 68.5399 106.107C68.5127 106.199 68.5149 106.296 68.5461 106.386C68.5774 106.476 68.6361 106.554 68.714 106.609C68.7919 106.664 68.8851 106.693 68.9804 106.692C69.0813 106.692 69.1795 106.659 69.2591 106.597C69.2907 106.573 72.3568 104.225 75.7075 105.061C75.7666 105.078 75.8287 105.084 75.8899 105.077C75.9512 105.069 76.0104 105.05 76.0639 105.019C76.1174 104.989 76.1641 104.947 76.2013 104.898C76.2384 104.849 76.2652 104.793 76.2801 104.733C76.2949 104.673 76.2974 104.611 76.2876 104.55C76.2777 104.489 76.2556 104.431 76.2226 104.379C76.1896 104.327 76.1463 104.282 76.0955 104.247C76.0447 104.212 75.9873 104.188 75.9269 104.175L75.9131 104.169ZM70.1803 99.9687C70.8192 99.8796 71.4468 99.7225 72.0523 99.5002L72.9953 104.047C72.35 104.148 71.7173 104.317 71.1074 104.551L70.1803 99.9687Z" fill="#6C2C19"/>
<path d="M32.7909 88.869C32.4727 88.8693 32.1591 88.9443 31.8753 89.0879C31.5914 89.2316 31.3453 89.4399 31.1566 89.696C30.968 89.9522 30.8421 90.249 30.7891 90.5627C30.7361 90.8764 30.7575 91.1982 30.8516 91.5021C30.397 92.0417 29.4086 93.0123 28.6198 92.9511C28.2422 92.9214 27.922 92.6486 27.6314 92.1149C27.3645 91.6128 27.3211 91.17 27.497 90.7667C27.8924 89.8791 29.2761 89.3296 29.7822 89.1852C30.0985 89.1141 32.4528 88.5467 33.1546 87.4219C33.2514 87.2745 33.3173 87.109 33.3482 86.9353C33.3791 86.7617 33.3744 86.5836 33.3345 86.4118C33.036 85.1545 31.7728 84.9865 31.1462 85.0715C31.0867 85.0797 31.0295 85.0995 30.9777 85.1298C30.9259 85.1601 30.8806 85.2003 30.8443 85.2481C30.7711 85.3447 30.7392 85.4664 30.7558 85.5865C30.7723 85.7065 30.8358 85.8151 30.9324 85.8883C31.0289 85.9616 31.1506 85.9934 31.2707 85.9769C31.3122 85.9769 32.2591 85.8484 32.4469 86.6213C32.46 86.6756 32.4609 86.7321 32.4496 86.7868C32.4383 86.8414 32.4151 86.8929 32.3817 86.9376C31.9863 87.5544 30.4543 88.098 29.5726 88.2977H29.5548C29.4619 88.3234 27.3072 88.9144 26.6608 90.3911C26.3702 91.0573 26.4256 91.7749 26.8249 92.534C27.2578 93.3563 27.837 93.7991 28.5427 93.8545H28.685C29.3354 93.8545 30.0392 93.5204 30.7805 92.8661C30.9764 92.6927 31.1625 92.5086 31.3379 92.3145C31.5724 92.5526 31.8621 92.7291 32.1813 92.8282C32.5004 92.9273 32.8391 92.946 33.1673 92.8827C33.4954 92.8193 33.8028 92.6759 34.0621 92.4651C34.3214 92.2544 34.5246 91.9828 34.6537 91.6745C34.7828 91.3662 34.8336 91.0309 34.8018 90.6982C34.77 90.3656 34.6565 90.0459 34.4714 89.7677C34.2863 89.4895 34.0353 89.2613 33.7407 89.1035C33.4461 88.9456 33.1171 88.863 32.783 88.863L32.7909 88.869ZM32.7909 92.0141C32.5698 92.0144 32.3536 91.9492 32.1696 91.8267C31.9856 91.7041 31.8422 91.5297 31.7574 91.3255C31.6726 91.1213 31.6503 90.8966 31.6934 90.6798C31.7364 90.4629 31.8428 90.2637 31.9991 90.1074C32.1555 89.9511 32.3546 89.8447 32.5715 89.8016C32.7883 89.7586 33.0131 89.7809 33.2172 89.8657C33.4214 89.9504 33.5958 90.0939 33.7184 90.2779C33.841 90.4619 33.9062 90.6781 33.9058 90.8991C33.9053 91.1947 33.7876 91.478 33.5787 91.6869C33.3697 91.8959 33.0864 92.0135 32.7909 92.0141Z" fill="#6C2C19"/>
<path d="M51.7821 101.202C51.3894 101.203 51.0053 101.317 50.6765 101.532C50.3477 101.747 50.0883 102.052 49.93 102.412C49.7717 102.771 49.7212 103.169 49.7847 103.556C49.8482 103.944 50.0229 104.304 50.2877 104.594C50.1078 104.594 49.918 104.594 49.7203 104.567C48.0855 104.417 46.6128 103.683 45.3457 102.392C45.3043 102.347 45.2543 102.311 45.1986 102.286C45.1429 102.26 45.0827 102.246 45.0215 102.245C44.9603 102.243 44.8995 102.254 44.8425 102.276C44.7856 102.298 44.7337 102.332 44.6899 102.375C44.6462 102.418 44.6115 102.469 44.588 102.525C44.5644 102.582 44.5524 102.642 44.5527 102.704C44.553 102.765 44.5656 102.825 44.5898 102.881C44.614 102.938 44.6492 102.988 44.6933 103.031C45.8463 104.261 47.3614 105.092 49.0186 105.403C49.4453 105.479 49.8779 105.517 50.3114 105.518C50.8835 105.524 51.4541 105.457 52.0095 105.32C52.1573 105.286 52.3011 105.236 52.4384 105.172C52.897 105.02 53.2864 104.709 53.5365 104.296C53.7865 103.883 53.8808 103.394 53.8024 102.917C53.724 102.44 53.478 102.007 53.1087 101.696C52.7395 101.384 52.2711 101.215 51.7881 101.218L51.7821 101.202ZM51.7821 104.349C51.5612 104.349 51.3453 104.284 51.1616 104.161C50.978 104.038 50.8348 103.864 50.7503 103.66C50.6657 103.456 50.6436 103.231 50.6867 103.015C50.7298 102.798 50.8362 102.599 50.9924 102.443C51.1486 102.286 51.3476 102.18 51.5643 102.137C51.7809 102.094 52.0055 102.116 52.2096 102.201C52.4137 102.285 52.5881 102.428 52.7108 102.612C52.8335 102.796 52.899 103.012 52.899 103.232C52.8985 103.528 52.7807 103.812 52.5713 104.022C52.362 104.231 52.0782 104.349 51.7821 104.349Z" fill="#6C2C19"/>
<path d="M51.6968 98.9804C50.2595 98.3825 48.6764 98.2269 47.1502 98.5336C47.0291 98.545 46.9093 98.5675 46.7924 98.6008H46.7726C46.3538 98.7212 45.9849 98.9729 45.7201 99.3189C45.4553 99.665 45.3087 100.087 45.302 100.523C45.2953 100.958 45.4288 101.385 45.6827 101.739C45.9367 102.093 46.2978 102.356 46.7126 102.489C47.1275 102.622 47.5742 102.618 47.9868 102.478C48.3994 102.338 48.7561 102.069 49.0042 101.711C49.2524 101.353 49.3789 100.925 49.365 100.489C49.3512 100.054 49.1977 99.6343 48.9273 99.2927C49.9429 99.3158 50.9391 99.5751 51.8372 100.05C52.5292 100.402 53.142 100.892 53.6381 101.489C53.6635 101.547 53.7007 101.599 53.7473 101.641C53.794 101.684 53.849 101.716 53.9089 101.736C53.9561 101.752 54.0055 101.76 54.0552 101.76C54.1509 101.759 54.2441 101.729 54.3217 101.673C54.3994 101.617 54.4575 101.538 54.4881 101.447C54.577 101.181 54.4149 100.973 54.156 100.686C53.4667 99.9495 52.6284 99.368 51.6968 98.9804ZM47.334 101.671C47.0644 101.67 46.8042 101.571 46.6016 101.393C46.3991 101.215 46.2679 100.97 46.2324 100.703C46.197 100.435 46.2596 100.164 46.4087 99.9394C46.5578 99.7147 46.7833 99.5517 47.0434 99.4805L47.1779 99.4528C47.2294 99.4435 47.2816 99.4383 47.334 99.437C47.6302 99.437 47.9143 99.5547 48.1238 99.7641C48.3333 99.9736 48.4509 100.258 48.4509 100.554C48.4509 100.85 48.3333 101.134 48.1238 101.344C47.9143 101.553 47.6302 101.671 47.334 101.671ZM53.5946 101.301C53.5946 101.255 53.602 101.209 53.6163 101.165C53.6024 101.209 53.595 101.255 53.5946 101.301Z" fill="#6C2C19"/>
<path d="M23.9368 67.5768C23.6175 67.9349 23.2415 68.2381 22.8239 68.4743C21.883 67.865 20.7623 67.5951 19.6472 67.7093C17.1761 67.907 16.9607 68.7886 16.9804 69.1622C16.9943 69.4014 17.1327 69.8284 17.8542 70.1269C16.8658 70.3799 16.2945 70.5836 16.0948 70.9967C16.0499 71.0891 16.0266 71.1905 16.0266 71.2932C16.0266 71.396 16.0499 71.4974 16.0948 71.5897C16.334 72.1156 17.0615 72.2263 17.6763 72.2638C17.8265 72.2638 17.9866 72.2777 18.1606 72.2777C17.0516 72.7323 16.9033 72.9913 16.8183 73.1376C16.774 73.2114 16.7451 73.2934 16.7336 73.3787C16.722 73.4641 16.728 73.5508 16.7511 73.6338C16.8994 74.1398 17.5418 74.2268 18.2238 74.2426C18.4116 74.2426 18.6192 74.2426 18.8544 74.2426C17.8048 74.719 17.0378 75.1421 16.9686 75.1796C16.8801 75.2287 16.8104 75.3058 16.7705 75.3988C16.7306 75.4917 16.7227 75.5953 16.748 75.6933C16.7733 75.7913 16.8305 75.878 16.9105 75.94C16.9905 76.0019 17.0888 76.0356 17.19 76.0356C17.2675 76.036 17.3438 76.0163 17.4114 75.9783C17.445 75.9605 20.4794 74.2881 22.7665 73.8354C23.1283 73.782 23.3596 73.7445 23.3596 73.7425C23.4734 73.7198 23.5743 73.6546 23.6418 73.5602C23.7093 73.4658 23.7383 73.3493 23.723 73.2342C23.7076 73.1192 23.649 73.0143 23.5591 72.9409C23.4692 72.8675 23.3548 72.8311 23.239 72.8391C23.0413 72.8589 22.8298 72.8925 22.6143 72.934C22.1142 73.0071 21.3591 73.1119 20.5723 73.1949C19.7367 73.3027 18.8941 73.347 18.0519 73.3274C18.8202 72.9823 19.6131 72.6948 20.424 72.4675C21.7327 72.0721 22.9939 71.7598 22.9939 71.7578C23.1106 71.7301 23.2118 71.6577 23.2756 71.556C23.3393 71.4544 23.3605 71.3317 23.3345 71.2146C23.3086 71.0974 23.2375 70.9952 23.1368 70.93C23.036 70.8648 22.9137 70.8419 22.7962 70.8662C22.7843 70.8662 21.4381 71.1133 20.0069 71.2616C18.3266 71.4336 17.5419 71.3664 17.1841 71.2893C17.5794 71.143 18.2495 70.9789 18.7813 70.8484C19.2795 70.7279 19.8251 70.5954 20.3825 70.4373C21.192 70.2187 21.9805 69.929 22.7389 69.5714C23.1162 69.9061 23.4181 70.3171 23.6245 70.7773C23.6479 70.8879 23.7115 70.986 23.803 71.0524C23.8946 71.1188 24.0075 71.1489 24.1199 71.1369C24.2324 71.1248 24.3364 71.0714 24.4117 70.9871C24.4871 70.9028 24.5285 70.7935 24.5279 70.6804C24.5279 70.4551 24.1978 69.7454 23.5672 69.099C23.9642 68.8447 24.3241 68.5367 24.6366 68.1837C24.7105 68.0911 24.7455 67.9735 24.7342 67.8556C24.723 67.7377 24.6664 67.6287 24.5764 67.5518C24.4863 67.4748 24.3699 67.4359 24.2517 67.4431C24.1335 67.4504 24.0227 67.5033 23.9428 67.5907L23.9368 67.5768ZM20.1908 69.5279C18.7418 69.5754 18.0519 69.271 17.9016 69.1148C18.0143 68.9982 18.4848 68.7194 19.7084 68.6186C20.4355 68.5474 21.1685 68.6666 21.8355 68.9646C21.299 69.185 20.7498 69.3731 20.1908 69.5279Z" fill="#6C2C19"/>
<path d="M17.5972 51.1001C18.1713 51.3353 18.813 51.3452 19.3941 51.1278L18.9533 52.8654C18.9233 52.9826 18.941 53.1069 19.0025 53.211C19.064 53.3152 19.1643 53.3906 19.2814 53.4209C19.3189 53.4302 19.3575 53.4349 19.3961 53.4347C19.4974 53.4347 19.5958 53.4008 19.6756 53.3385C19.7555 53.2762 19.8123 53.189 19.8369 53.0908L20.5387 50.3232C20.5622 50.2289 20.5551 50.1296 20.5182 50.0396C20.4814 49.9497 20.4169 49.8738 20.3339 49.8231C20.251 49.7724 20.1541 49.7494 20.0572 49.7576C19.9604 49.7658 19.8687 49.8047 19.7954 49.8686C19.7954 49.8686 18.896 50.6435 17.9491 50.2501C17.7715 50.1523 17.6191 50.0147 17.5039 49.8479C17.3886 49.6812 17.3136 49.49 17.2849 49.2894C17.2389 49.0461 17.2569 48.7952 17.3369 48.561C17.4169 48.3267 17.5563 48.1173 17.7415 47.953C17.9281 47.7715 18.1627 47.647 18.4176 47.5941C18.6725 47.5412 18.9372 47.5622 19.1806 47.6545C19.4329 47.7469 19.6537 47.9092 19.8171 48.1223C19.9806 48.3355 20.08 48.5908 20.1038 48.8584C20.1165 48.9628 20.1648 49.0596 20.2406 49.1324C20.3164 49.2053 20.415 49.2498 20.5198 49.2584C20.6245 49.2669 20.7291 49.2391 20.8157 49.1796C20.9024 49.1201 20.9658 49.0325 20.9953 48.9316L21.7702 46.164C21.803 46.0474 21.7881 45.9225 21.7288 45.8168C21.6695 45.7112 21.5706 45.6334 21.454 45.6006C21.3373 45.5679 21.2124 45.5828 21.1068 45.6421C21.0011 45.7014 20.9233 45.8003 20.8906 45.9169L20.4596 47.4529C20.2001 47.1527 19.868 46.9241 19.4949 46.7887C19.0914 46.6398 18.6542 46.6072 18.2331 46.6946C17.812 46.7819 17.4239 46.9858 17.1129 47.2829C16.8166 47.5534 16.5943 47.8952 16.4674 48.2758C16.3404 48.6564 16.3129 49.0632 16.3874 49.4574C16.5238 50.2086 16.9982 50.851 17.5972 51.1001Z" fill="#6C2C19"/>
<path d="M20.8943 53.8301C20.9344 53.8402 20.9755 53.8455 21.0169 53.8459C21.1165 53.846 21.2135 53.8133 21.2927 53.753C21.372 53.6926 21.4293 53.6079 21.4557 53.5118L23.3436 46.6859C23.3708 46.5709 23.3525 46.4498 23.2923 46.3481C23.2321 46.2463 23.1348 46.1719 23.0209 46.1404C22.907 46.1089 22.7853 46.1228 22.6814 46.1792C22.5775 46.2356 22.4996 46.3301 22.4639 46.4427L20.5761 53.2687C20.5439 53.3853 20.5594 53.5099 20.619 53.6152C20.6787 53.7205 20.7777 53.7978 20.8943 53.8301Z" fill="#6C2C19"/>
<path d="M36.197 30.3813C36.1407 30.3609 36.0809 30.352 36.0211 30.3549C35.9613 30.3578 35.9027 30.3726 35.8487 30.3983C35.7946 30.4241 35.7462 30.4603 35.7062 30.5049C35.6663 30.5494 35.6356 30.6015 35.6159 30.658C35.5467 30.8557 35.2798 31.3756 34.8765 31.5239C34.7382 31.5626 34.5929 31.5696 34.4516 31.5442C34.3102 31.5189 34.1764 31.4619 34.0601 31.3776C33.9 31.2807 33.4671 30.6481 33.1389 30.1915C32.6668 29.4743 32.138 28.796 31.5575 28.1633C30.7865 27.3825 30.0926 27.1512 29.4917 27.4714C29.361 27.5403 29.2479 27.6384 29.1612 27.758C29.0744 27.8777 29.0164 28.0157 28.9916 28.1613C28.9406 28.4818 28.9733 28.81 29.0865 29.1141C28.8939 29.0046 28.6839 28.929 28.4657 28.8908C28.3131 28.8641 28.1565 28.8708 28.0067 28.9104C27.8569 28.9499 27.7174 29.0215 27.5979 29.1201C27.483 29.2175 27.3905 29.3385 27.3266 29.475C27.2628 29.6115 27.2293 29.7601 27.2283 29.9108C27.2192 30.1122 27.2487 30.3135 27.3152 30.5038C26.9707 30.3844 26.6161 30.2964 26.2557 30.2409C26.1384 30.2292 26.0212 30.2632 25.9285 30.3359C25.8358 30.4086 25.7747 30.5144 25.7582 30.631C25.7416 30.7476 25.7707 30.8662 25.8395 30.9618C25.9082 31.0575 26.0113 31.1229 26.1272 31.1443C26.5107 31.1997 27.6038 31.4567 28.0447 31.9805C28.1613 32.1169 28.3214 32.3008 28.5092 32.5103C28.697 32.7198 28.8651 32.9571 29.0786 33.2061C29.9681 34.24 30.8577 35.0782 30.8873 35.1137C30.974 35.1909 31.0868 35.2321 31.2028 35.2291C31.3188 35.2261 31.4292 35.179 31.5118 35.0975C31.5943 35.0159 31.6427 34.906 31.6472 34.7901C31.6516 34.6742 31.6118 34.5609 31.5357 34.4733C31.5179 34.4535 30.0966 32.9195 29.2248 31.943C28.5863 31.1226 28.1277 30.3615 28.1415 29.9424C28.1415 29.8554 28.1692 29.8337 28.185 29.8218C28.2008 29.81 28.2345 29.7803 28.3313 29.7942C28.8137 29.8653 29.6024 30.6145 30.3793 31.5278L30.4228 31.5911C31.1878 32.7179 31.9726 33.6628 32.0042 33.7023C32.0793 33.7906 32.1852 33.847 32.3004 33.8602C32.4156 33.8733 32.5314 33.8421 32.6244 33.7729C32.7175 33.7038 32.7808 33.6019 32.8014 33.4878C32.822 33.3737 32.7985 33.2561 32.7356 33.1587C32.7099 33.1191 32.0813 32.1703 31.2649 31.1661L31.1028 30.9684C29.8594 29.1161 29.8574 28.4855 29.8871 28.3333C29.8871 28.2878 29.9049 28.2819 29.9187 28.274C30.1836 28.1336 30.6501 28.5448 30.9071 28.8018C31.4493 29.3986 31.9437 30.0371 32.3857 30.7114C32.9491 31.5199 33.2852 31.9864 33.5975 32.1683C34.2934 32.5736 34.8488 32.5063 35.1928 32.3798C36.0666 32.0576 36.4323 31.0732 36.4718 30.9625C36.5124 30.8489 36.5063 30.724 36.4548 30.615C36.4032 30.506 36.3105 30.4219 36.197 30.3813Z" fill="#6C2C19"/>
<path d="M47.4649 23.3854C47.5132 23.4211 47.5681 23.4469 47.6265 23.4613C47.6848 23.4756 47.7454 23.4783 47.8048 23.4691C47.8641 23.4599 47.9211 23.4391 47.9724 23.4077C48.0236 23.3764 48.0682 23.3352 48.1034 23.2865L49.5564 21.2919L50.8018 22.221C50.8495 22.2599 50.9047 22.2886 50.9638 22.3056C51.023 22.3226 51.085 22.3274 51.1461 22.3198C51.2072 22.3122 51.2661 22.2924 51.3194 22.2614C51.3726 22.2305 51.419 22.1891 51.4558 22.1397C51.4926 22.0904 51.519 22.0341 51.5335 21.9743C51.5481 21.9144 51.5503 21.8523 51.5402 21.7915C51.53 21.7308 51.5077 21.6728 51.4746 21.6209C51.4415 21.569 51.3982 21.5244 51.3474 21.4896L50.0901 20.5546L52.3101 17.5064L52.8853 19.331C52.9147 19.4233 52.9726 19.5039 53.0508 19.5611C53.129 19.6183 53.2233 19.6492 53.3202 19.6492C53.3671 19.6494 53.4137 19.6428 53.4586 19.6295C53.5739 19.5927 53.6699 19.5117 53.7255 19.4042C53.7811 19.2967 53.7917 19.1715 53.7551 19.0562L52.909 16.3697C52.8962 16.3296 52.8776 16.2916 52.8537 16.257C52.8478 16.2503 52.8425 16.243 52.8379 16.2353C52.8123 16.2018 52.7824 16.1719 52.7489 16.1463C52.7144 16.1218 52.6764 16.1025 52.6362 16.089H52.6105C52.5701 16.0767 52.5282 16.07 52.486 16.0692H49.0898C49.0275 16.0651 48.9649 16.0739 48.9061 16.0949C48.8472 16.1159 48.7933 16.1488 48.7477 16.1915C48.7021 16.2343 48.6657 16.2859 48.6409 16.3432C48.616 16.4006 48.6032 16.4624 48.6032 16.5249C48.6032 16.5874 48.616 16.6492 48.6409 16.7065C48.6657 16.7639 48.7021 16.8155 48.7477 16.8582C48.7933 16.9009 48.8472 16.9338 48.9061 16.9549C48.9649 16.9759 49.0275 16.9846 49.0898 16.9805H51.5806L49.3626 20.0268L48.0066 18.989C47.9588 18.9501 47.9036 18.9214 47.8445 18.9044C47.7853 18.8874 47.7233 18.8826 47.6622 18.8902C47.6011 18.8978 47.5422 18.9177 47.489 18.9486C47.4357 18.9796 47.3893 19.021 47.3525 19.0703C47.3157 19.1197 47.2893 19.1759 47.2748 19.2358C47.2603 19.2956 47.258 19.3577 47.2681 19.4185C47.2783 19.4792 47.3006 19.5372 47.3337 19.5891C47.3668 19.641 47.4101 19.6857 47.461 19.7204L48.8249 20.7384L47.3661 22.7449C47.33 22.7933 47.304 22.8483 47.2894 22.9069C47.2749 22.9654 47.2722 23.0262 47.2814 23.0858C47.2906 23.1455 47.3115 23.2026 47.343 23.2541C47.3745 23.3055 47.416 23.3501 47.4649 23.3854Z" fill="#6C2C19"/>
<path d="M69.7018 23.1402C69.6422 23.1347 69.5822 23.1411 69.525 23.1588C69.4679 23.1766 69.4148 23.2054 69.3689 23.2437C69.3229 23.282 69.2849 23.3289 69.2571 23.3819C69.2292 23.4349 69.2121 23.4928 69.2066 23.5524C69.2012 23.6119 69.2075 23.672 69.2253 23.7291C69.243 23.7863 69.2719 23.8393 69.3102 23.8853C69.3484 23.9313 69.3954 23.9693 69.4483 23.9971C69.5013 24.025 69.5592 24.0421 69.6188 24.0475C69.7058 24.0554 69.7908 24.0594 69.8738 24.0594C71.0302 24.0594 71.9119 23.3379 72.6413 22.6321C72.805 23.0884 73.1356 23.4656 73.5665 23.6878C73.8023 23.7977 74.0578 23.8594 74.3178 23.8693C74.5778 23.8791 74.8372 23.8369 75.0807 23.7451C75.3032 23.6709 75.5081 23.5519 75.6828 23.3956C75.8576 23.2392 75.9985 23.0487 76.0968 22.8358C76.2051 22.5803 76.2588 22.305 76.2544 22.0275C76.25 21.75 76.1875 21.4766 76.0711 21.2247C75.9673 21.0055 75.8161 20.8121 75.6284 20.6586C75.4407 20.5051 75.2212 20.3953 74.9858 20.3371C74.3374 20.1631 73.78 20.4043 73.264 20.7997C73.264 20.1829 73.3055 19.5226 73.351 18.9454C73.4538 17.6071 73.521 16.7235 73.0149 16.3617C72.9252 16.298 72.8224 16.2551 72.7141 16.2359C72.6057 16.2168 72.4944 16.2219 72.3883 16.251C72.0562 16.336 71.5561 16.6325 70.6092 18.1903C70.623 17.3995 70.6092 16.6424 70.4827 16.3459C70.3835 16.1024 70.2147 15.8935 69.9974 15.7455C69.7801 15.5975 69.5239 15.5168 69.261 15.5137V16.419C69.3425 16.4208 69.4219 16.4459 69.4895 16.4915C69.5572 16.537 69.6103 16.6011 69.6425 16.676C69.7532 16.9765 69.7117 18.6904 69.6129 20.1058C69.6057 20.2114 69.6355 20.3162 69.6971 20.4023C69.7588 20.4884 69.8484 20.5504 69.9506 20.5777C70.0529 20.605 70.1615 20.5959 70.2578 20.552C70.3541 20.5082 70.4322 20.4322 70.4787 20.3371C70.4787 20.3371 70.8741 19.5464 71.3505 18.7339C71.9574 17.7178 72.3191 17.3501 72.4931 17.2058C72.5205 17.7598 72.504 18.315 72.4437 18.8663C72.3463 19.7685 72.3317 20.6777 72.4002 21.5825L72.3349 21.6477C71.5501 22.4246 70.7476 23.2252 69.7018 23.1402ZM74.7446 21.2187C74.8521 21.2434 74.9528 21.2917 75.0393 21.3601C75.1258 21.4285 75.196 21.5152 75.2448 21.6141C75.3044 21.7479 75.3361 21.8924 75.3382 22.0389C75.3402 22.1853 75.3125 22.3307 75.2566 22.4661C75.2065 22.5646 75.1371 22.6522 75.0525 22.7235C74.968 22.7948 74.87 22.8484 74.7644 22.8812C74.5088 22.979 74.2252 22.9734 73.9737 22.8654C73.6614 22.7092 73.4775 22.3593 73.3807 21.9067C73.9223 21.3808 74.3315 21.1001 74.7446 21.2108V21.2187Z" fill="#6C2C19"/>
<path d="M76.1817 69.769V52.2288L60.9919 43.4597L45.8041 52.2288V69.769L60.9919 78.5381L76.1817 69.769Z" stroke="#6C2C19" stroke-width="0.7" stroke-miterlimit="10"/>
<path d="M61.4685 43.4558C61.4685 43.55 61.4405 43.6421 61.3882 43.7205C61.3358 43.7988 61.2614 43.8599 61.1744 43.8959C61.0873 43.932 60.9915 43.9414 60.8991 43.923C60.8067 43.9047 60.7218 43.8593 60.6552 43.7927C60.5885 43.726 60.5432 43.6411 60.5248 43.5487C60.5064 43.4563 60.5158 43.3605 60.5519 43.2735C60.588 43.1864 60.649 43.112 60.7274 43.0597C60.8057 43.0073 60.8978 42.9794 60.992 42.9794C61.1184 42.9794 61.2396 43.0296 61.3289 43.1189C61.4183 43.2083 61.4685 43.3294 61.4685 43.4558Z" fill="#6C2C19"/>
<path d="M60.9901 79.0601C61.2532 79.0601 61.4665 78.8468 61.4665 78.5837C61.4665 78.3206 61.2532 78.1073 60.9901 78.1073C60.727 78.1073 60.5137 78.3206 60.5137 78.5837C60.5137 78.8468 60.727 79.0601 60.9901 79.0601Z" fill="#6C2C19"/>
<path d="M76.4328 52.6381C76.3512 52.6853 76.2575 52.7073 76.1634 52.7012C76.0693 52.6952 75.9792 52.6613 75.9044 52.604C75.8296 52.5467 75.7734 52.4685 75.7431 52.3792C75.7127 52.29 75.7095 52.1938 75.7339 52.1027C75.7582 52.0116 75.809 51.9299 75.8799 51.8677C75.9507 51.8055 76.0384 51.7658 76.1319 51.7535C76.2253 51.7412 76.3203 51.7568 76.4049 51.7985C76.4894 51.8402 76.5597 51.9061 76.6068 51.9877C76.6693 52.0972 76.6861 52.2269 76.6535 52.3487C76.621 52.4705 76.5416 52.5745 76.4328 52.6381Z" fill="#6C2C19"/>
<path d="M46.0256 70.2257C45.944 70.273 45.8503 70.2949 45.7562 70.2889C45.6622 70.2828 45.572 70.249 45.4972 70.1916C45.4224 70.1343 45.3662 70.0561 45.3359 69.9669C45.3055 69.8776 45.3023 69.7814 45.3267 69.6903C45.351 69.5993 45.4018 69.5175 45.4727 69.4553C45.5435 69.3932 45.6312 69.3534 45.7247 69.3411C45.8181 69.3288 45.9131 69.3445 45.9977 69.3862C46.0822 69.4279 46.1525 69.4937 46.1996 69.5754C46.2626 69.6847 46.2797 69.8146 46.2471 69.9365C46.2145 70.0585 46.1348 70.1625 46.0256 70.2257Z" fill="#6C2C19"/>
<path d="M75.9684 70.2079C75.8868 70.1608 75.8209 70.0906 75.7792 70.006C75.7375 69.9215 75.7218 69.8265 75.7342 69.733C75.7465 69.6396 75.7862 69.5519 75.8484 69.481C75.9105 69.4102 75.9923 69.3594 76.0834 69.335C76.1744 69.3107 76.2707 69.3139 76.3599 69.3442C76.4491 69.3746 76.5274 69.4307 76.5847 69.5055C76.642 69.5804 76.6758 69.6705 76.6819 69.7646C76.688 69.8586 76.666 69.9524 76.6188 70.034C76.5555 70.1432 76.4515 70.2229 76.3296 70.2555C76.2076 70.2881 76.0777 70.271 75.9684 70.2079Z" fill="#6C2C19"/>
<path d="M45.5432 52.6559C45.4615 52.6088 45.3957 52.5386 45.354 52.454C45.3123 52.3695 45.2966 52.2745 45.3089 52.181C45.3212 52.0876 45.361 51.9999 45.4232 51.929C45.4853 51.8582 45.5671 51.8074 45.6582 51.783C45.7492 51.7587 45.8454 51.7619 45.9347 51.7922C46.0239 51.8226 46.1021 51.8787 46.1595 51.9535C46.2168 52.0284 46.2506 52.1185 46.2567 52.2126C46.2628 52.3066 46.2408 52.4004 46.1936 52.482C46.1624 52.5362 46.1209 52.5838 46.0713 52.622C46.0217 52.6601 45.965 52.6881 45.9046 52.7043C45.8441 52.7204 45.7811 52.7245 45.7191 52.7162C45.657 52.7079 45.5973 52.6874 45.5432 52.6559Z" fill="#6C2C19"/>
<path d="M60.9999 47.0793C63.0022 47.0793 64.6254 45.4561 64.6254 43.4538C64.6254 41.4515 63.0022 39.8284 60.9999 39.8284C58.9976 39.8284 57.3745 41.4515 57.3745 43.4538C57.3745 45.4561 58.9976 47.0793 60.9999 47.0793Z" stroke="#6C2C19" stroke-width="0.7" stroke-miterlimit="10"/>
<path d="M60.9999 82.1716C63.0022 82.1716 64.6254 80.5484 64.6254 78.5461C64.6254 76.5438 63.0022 74.9207 60.9999 74.9207C58.9976 74.9207 57.3745 76.5438 57.3745 78.5461C57.3745 80.5484 58.9976 82.1716 60.9999 82.1716Z" stroke="#6C2C19" stroke-width="0.7" stroke-miterlimit="10"/>
<path d="M78.0124 55.374C77.3906 55.7318 76.6767 55.8972 75.9609 55.8493C75.2451 55.8014 74.5595 55.5423 73.991 55.1048C73.4224 54.6673 72.9963 54.0711 72.7666 53.3914C72.5369 52.7118 72.5139 51.9793 72.7005 51.2865C72.8871 50.5938 73.2749 49.972 73.8149 49.4997C74.3549 49.0273 75.0228 48.7257 75.7342 48.633C76.4456 48.5402 77.1685 48.6605 77.8115 48.9786C78.4546 49.2967 78.9888 49.7984 79.3468 50.4201C79.5845 50.833 79.7385 51.2886 79.8001 51.7611C79.8617 52.2335 79.8296 52.7134 79.7057 53.1734C79.5818 53.6334 79.3685 54.0646 79.078 54.4421C78.7874 54.8197 78.4254 55.1363 78.0124 55.374Z" stroke="#6C2C19" stroke-width="0.7" stroke-miterlimit="10"/>
<path d="M47.615 72.9103C46.9937 73.2691 46.2799 73.4355 45.5639 73.3886C44.8479 73.3416 44.162 73.0834 43.5928 72.6466C43.0236 72.2097 42.5967 71.6139 42.3662 70.9344C42.1356 70.255 42.1118 69.5224 42.2976 68.8294C42.4834 68.1364 42.8706 67.514 43.4102 67.0411C43.9498 66.5681 44.6175 66.2658 45.3289 66.1724C46.0402 66.0789 46.7634 66.1986 47.4068 66.5161C48.0502 66.8337 48.5849 67.3349 48.9434 67.9565C49.424 68.7896 49.554 69.7795 49.3049 70.7084C49.0558 71.6374 48.448 72.4294 47.615 72.9103Z" stroke="#6C2C19" stroke-width="0.7" stroke-miterlimit="10"/>
<path d="M74.4045 72.8865C73.7818 72.5301 73.2788 71.997 72.9593 71.3545C72.6397 70.7121 72.518 69.9893 72.6095 69.2777C72.701 68.566 73.0016 67.8975 73.4732 67.3568C73.9449 66.8161 74.5664 66.4275 75.259 66.2402C75.9517 66.0529 76.6843 66.0753 77.3642 66.3047C78.044 66.534 78.6406 66.9599 79.0782 67.5285C79.5159 68.0971 79.775 68.7827 79.8228 69.4986C79.8705 70.2146 79.7048 70.9286 79.3465 71.5502C78.8677 72.3821 78.0784 72.99 77.1519 73.2405C76.2254 73.4911 75.2373 73.3637 74.4045 72.8865Z" stroke="#6C2C19" stroke-width="0.7" stroke-miterlimit="10"/>
<path d="M43.9799 55.4017C43.3571 55.0453 42.8541 54.5121 42.5346 53.8697C42.2151 53.2272 42.0933 52.5044 42.1848 51.7928C42.2763 51.0811 42.5769 50.4126 43.0486 49.8719C43.5202 49.3312 44.1417 48.9426 44.8344 48.7553C45.527 48.568 46.2596 48.5905 46.9395 48.8198C47.6194 49.0492 48.2159 49.4751 48.6536 50.0436C49.0912 50.6122 49.3504 51.2979 49.3981 52.0138C49.4459 52.7297 49.2801 53.4437 48.9219 54.0654C48.4427 54.8968 47.6534 55.5044 46.727 55.7549C45.8007 56.0054 44.8128 55.8784 43.9799 55.4017Z" stroke="#6C2C19" stroke-width="0.7" stroke-miterlimit="10"/>
<path d="M60.9999 82.2151C72.7166 82.2151 82.215 72.7168 82.215 61C82.215 49.2832 72.7166 39.7849 60.9999 39.7849C49.2831 39.7849 39.7848 49.2832 39.7848 61C39.7848 72.7168 49.2831 82.2151 60.9999 82.2151Z" stroke="#6C2C19" stroke-width="0.7" stroke-miterlimit="10"/>
<path d="M5.00503 61H39.7454" stroke="#6C2C19" stroke-width="0.7" stroke-miterlimit="10"/>
<path d="M82.2546 61H116.997" stroke="#6C2C19" stroke-width="0.7" stroke-miterlimit="10"/>
<path d="M61 5.005V39.7454" stroke="#6C2C19" stroke-width="0.7" stroke-miterlimit="10"/>
<path d="M61 82.2546V116.997" stroke="#6C2C19" stroke-width="0.7" stroke-miterlimit="10"/>
<path d="M12.503 33.0065L42.5919 50.3747" stroke="#6C2C19" stroke-width="0.7" stroke-miterlimit="10"/>
<path d="M79.408 71.6254L109.497 88.9936" stroke="#6C2C19" stroke-width="0.7" stroke-miterlimit="10"/>
<path d="M88.9935 12.5031L71.6253 42.592" stroke="#6C2C19" stroke-width="0.7" stroke-miterlimit="10"/>
<path d="M50.3745 79.4081L33.0063 109.497" stroke="#6C2C19" stroke-width="0.7" stroke-miterlimit="10"/>
<path d="M32.9311 12.5465L50.3448 42.6078" stroke="#6C2C19" stroke-width="0.7" stroke-miterlimit="10"/>
<path d="M71.6549 79.3922L89.0705 109.453" stroke="#6C2C19" stroke-width="0.7" stroke-miterlimit="10"/>
<path d="M109.453 32.9313L79.3922 50.345" stroke="#6C2C19" stroke-width="0.7" stroke-miterlimit="10"/>
<path d="M42.6076 71.655L12.5464 89.0707" stroke="#6C2C19" stroke-width="0.7" stroke-miterlimit="10"/>
<path d="M61.0001 116.926C91.8871 116.926 116.926 91.887 116.926 61C116.926 30.1131 91.8871 5.07422 61.0001 5.07422C30.1131 5.07422 5.0743 30.1131 5.0743 61C5.0743 91.887 30.1131 116.926 61.0001 116.926Z" stroke="#6C2C19" stroke-width="0.7" stroke-miterlimit="10"/>
<path d="M60.9999 91.4626C77.8239 91.4626 91.4625 77.8241 91.4625 61C91.4625 44.176 77.8239 30.5375 60.9999 30.5375C44.1759 30.5375 30.5373 44.176 30.5373 61C30.5373 77.8241 44.1759 91.4626 60.9999 91.4626Z" stroke="#6C2C19" stroke-width="0.7" stroke-miterlimit="10"/>
<path d="M61 121C94.1371 121 121 94.1371 121 61C121 27.8629 94.1371 1 61 1C27.8629 1 1 27.8629 1 61C1 94.1371 27.8629 121 61 121Z" stroke="#6C2C19" stroke-width="0.7" stroke-miterlimit="10"/>
</svg>
