<svg width="120" height="120" viewBox="0 0 120 120" fill="none" xmlns="http://www.w3.org/2000/svg">
<path d="M94.5438 44.1044L59.8469 84.6889L25.135 44.1044H1L59.8469 112.929L118.679 44.1044H94.5438Z" stroke="#6C2C19" stroke-width="1.2" stroke-linecap="round" stroke-linejoin="round"/>
<path d="M46.9778 18.6359L7.35208 120L57.9592 29.2727L51.0528 25.2427L46.9778 18.6359Z" fill="#6C2C19"/>
<path d="M72.9571 17.3836C74.1355 10.1398 69.2185 3.31222 61.9747 2.13379C54.7309 0.955361 47.9034 5.87231 46.725 13.1161C45.5465 20.3599 50.4635 27.1875 57.7073 28.3659C64.9511 29.5443 71.7786 24.6274 72.9571 17.3836Z" stroke="#6C2C19" stroke-width="1.2" stroke-linecap="round" stroke-linejoin="round"/>
<path d="M65.1054 15.2802C65.1054 16.3238 64.7957 17.3439 64.2156 18.2115C63.6355 19.079 62.811 19.7549 61.8465 20.1536C60.882 20.5523 59.821 20.6559 58.7976 20.4512C57.7742 20.2465 56.8346 19.7428 56.0977 19.0037C55.3608 18.2647 54.8598 17.3237 54.658 16.2998C54.4562 15.2758 54.5628 14.2151 54.9642 13.2517C55.3656 12.2884 56.0439 11.4658 56.9131 10.8882C57.7822 10.3105 58.8033 10.0038 59.8469 10.0067C61.2429 10.0107 62.5804 10.568 63.5661 11.5566C64.5518 12.5451 65.1054 13.8842 65.1054 15.2802Z" fill="#6C2C19"/>
<path d="M86.319 53.4826L72.7009 18.6359L68.2365 25.8719L61.7196 29.2727L79.6673 61.4527L86.319 53.4826Z" fill="#6C2C19"/>
<path d="M89.2106 78.5615L112.327 120L93.9597 73.0184L89.2106 78.5615Z" fill="#6C2C19"/>
</svg>
