<svg width="140" height="113" viewBox="0 0 140 113" fill="none" xmlns="http://www.w3.org/2000/svg">
<path d="M65.4852 57.4223C65.4852 57.4223 65.4852 56.9989 65.4852 56.1978C65.4425 55.0855 65.3046 53.979 65.0732 52.8903C64.6753 51.0694 64.1358 49.2824 63.4595 47.5456C62.5578 45.1568 61.4948 42.832 60.2779 40.5873C57.0024 34.4937 52.9769 28.8343 48.2954 23.7408C45.4731 20.6205 42.3487 17.7875 38.968 15.2832C35.3762 12.5324 31.2943 10.4895 26.9397 9.26328C24.721 8.71921 22.4254 8.56048 20.153 8.79404C17.8517 9.10155 15.6387 9.88079 13.6524 11.083C13.0909 11.392 12.5517 11.7401 12.0387 12.1244C11.5672 12.4554 11.1163 12.8147 10.6883 13.2002C9.75159 13.9979 8.89316 14.8832 8.12466 15.8439C6.50914 17.8637 5.27228 20.1591 4.47381 22.6192C2.78582 28.0545 2.61172 33.8472 3.97025 39.3741C5.24061 45.0965 7.48376 50.67 9.6239 56.4495C10.7436 59.3575 12.2157 62.1172 14.0072 64.6668C15.834 67.2356 17.7937 69.7071 19.8783 72.0715C24.0528 76.8778 28.7819 81.1727 33.9667 84.8666C39.2151 88.6543 44.7348 92.0511 50.4813 95.0295C53.3424 96.5401 56.2036 98.1081 59.1449 99.4929C62.0547 100.922 65.1298 101.987 68.3006 102.663C69.8553 103.002 71.4371 103.201 73.0272 103.258C74.545 103.342 76.0666 103.188 77.5364 102.8C78.1993 102.625 78.8347 102.36 79.4248 102.011C79.5591 101.937 79.6823 101.844 79.791 101.736C79.8711 101.667 79.9856 101.576 80.1115 101.45C80.3623 101.204 80.5992 100.944 80.821 100.672C81.7627 99.4505 82.5686 98.1304 83.2244 96.7347C84.5211 93.7926 85.6671 90.7864 86.6578 87.7278C87.7222 84.6606 88.8209 81.582 89.8394 78.4805C91.9315 72.3369 93.2389 65.9537 93.7306 59.4824C94.3021 53.2047 94.436 46.8949 94.1312 40.5987C93.892 34.6044 93.2843 28.6304 92.3115 22.7107C91.8154 19.8893 91.0489 17.1222 90.0225 14.4477C89.0342 11.8709 87.5879 9.49419 85.7537 7.43214C84.7965 6.50406 83.6998 5.73171 82.5034 5.14322C82.217 4.98286 81.9186 4.8451 81.6107 4.73121C81.3246 4.62821 80.9813 4.45653 80.7295 4.38786L78.7267 3.76984C76.2349 3.09068 73.6467 2.83535 71.0702 3.01451C66.208 3.4437 61.6795 5.66712 58.3666 9.25184C55.1967 12.5933 52.7843 16.5788 51.2939 20.9368C49.897 24.906 49.1248 29.068 49.0049 33.2741C48.8628 36.9571 49.2482 40.6414 50.1494 44.2152C50.3439 45.0392 50.6186 45.8175 50.8475 46.5957C51.0764 47.3739 51.4083 48.095 51.7173 48.7931C52.0263 49.4912 52.3468 50.2008 52.6901 50.7844C53.0334 51.3681 53.434 52.1349 53.8346 52.7186C55.0528 54.7908 56.6712 56.5998 58.5955 58.0403C59.8754 59.0526 61.474 59.576 63.1047 59.5167C63.536 59.4845 63.9527 59.3465 64.318 59.115C64.6833 58.8834 64.9859 58.5654 65.1991 58.1891C65.3042 58.0135 65.3742 57.8192 65.4051 57.6169C65.4051 57.4796 65.4051 57.4109 65.4051 57.4109L65.4852 57.4223ZM67.591 57.5597C67.591 57.5597 67.591 57.697 67.5109 57.9602C67.4463 58.3625 67.3107 58.75 67.1104 59.1047C66.7414 59.7748 66.2272 60.3539 65.6053 60.7995C64.9835 61.245 64.2699 61.5458 63.5167 61.6798C61.2837 62.0094 59.0089 61.4775 57.1535 60.1919C54.8196 58.6007 52.8657 56.5139 51.4312 54.0805C51.0192 53.4282 50.6873 52.7873 50.2867 52.112C49.8862 51.4368 49.5657 50.6242 49.1423 49.8231C48.7188 49.022 48.5357 48.2209 48.2153 47.3968C47.8948 46.5728 47.6888 45.6916 47.4828 44.7989C46.5625 40.9678 46.1774 37.0278 46.3383 33.091C46.5359 28.6336 47.3446 24.2244 48.7417 19.9869C50.2354 15.187 52.7321 10.7593 56.0663 6.99724C57.9337 4.98032 60.1469 3.31367 62.6012 2.07604C65.1847 0.804846 68.0093 0.0986791 70.8871 0.00456399C73.8118 -0.0510539 76.7239 0.402026 79.4935 1.34359L81.4734 2.07604C81.8968 2.22482 82.183 2.38505 82.5377 2.54528C82.8886 2.69783 83.2289 2.8737 83.5563 3.07172C84.879 3.82865 86.1049 4.74328 87.2072 5.79555C88.4507 6.7748 89.5557 7.91825 90.4918 9.19461C91.4252 10.4252 92.2558 11.7305 92.9753 13.0972C94.4546 15.8489 95.6069 18.7642 96.4087 21.7837C97.237 24.8187 97.7962 27.9207 98.0796 31.0539C98.387 34.218 98.4711 37.3999 98.3313 40.5758C98.0377 47.0128 97.3536 53.4259 96.2828 59.7799C95.1383 66.1889 94.0739 72.6437 92.9867 79.2358C91.9674 85.964 89.7544 92.4559 86.4518 98.4056C85.6073 99.9874 84.5984 101.476 83.4419 102.846C83.123 103.213 82.7829 103.561 82.4233 103.888C82.0333 104.258 81.6034 104.585 81.1415 104.86C80.2826 105.344 79.3626 105.709 78.4062 105.948C74.8829 106.623 71.2632 106.623 67.7398 105.948C64.3064 105.353 60.9646 104.563 57.6342 103.659C54.3073 102.768 51.0669 101.58 47.952 100.111C35.805 94.0786 25.2412 85.2827 17.1087 74.4291C15.1563 71.8058 13.3786 69.057 11.7869 66.2004L6.93442 57.8687C5.2958 55.1302 3.96034 52.2214 2.95168 49.1936C1.9851 46.205 1.26173 43.1431 0.788642 40.0379C-0.296441 33.9791 -0.26153 27.7727 0.891644 21.7265C1.55898 18.6973 2.78965 15.8206 4.51959 13.246C5.40333 11.9917 6.42442 10.8401 7.56387 9.81262C8.67756 8.79543 9.89775 7.9014 11.2033 7.14603C13.802 5.63172 16.685 4.66942 19.6723 4.3192C22.502 4.07575 25.3524 4.32748 28.0956 5.06309C30.6372 5.76621 33.0849 6.77295 35.3858 8.06159C37.5179 9.27967 39.55 10.665 41.4629 12.2046C44.948 14.9875 48.1421 18.1164 50.9963 21.5434C55.6074 27.04 59.5385 33.073 62.7042 39.5115C63.8998 41.8876 64.9322 44.3425 65.7942 46.8589C66.4593 48.7226 66.976 50.6361 67.3393 52.5813C67.5615 53.8356 67.6726 55.107 67.6711 56.3809C67.6711 57.1934 67.6711 57.6055 67.6711 57.6055L67.591 57.5597Z" fill="#6C2C19"/>
<path d="M106.021 80.7719C106.021 80.7719 106.192 80.5087 106.387 80.1196C106.717 79.4747 106.996 78.805 107.222 78.1168C108.062 75.3997 108.532 72.5818 108.619 69.7393C108.82 65.3159 108.509 60.884 107.692 56.5321C107.242 53.9047 106.497 51.3363 105.471 48.8757C104.467 46.2402 102.727 43.9484 100.459 42.2721C99.2451 41.4824 97.8596 40.9957 96.4187 40.853C95.6582 40.7663 94.8903 40.7663 94.1298 40.853C93.3508 40.9373 92.5833 41.1062 91.8409 41.3565C88.6938 42.5854 86.0118 44.771 84.173 47.6053C82.0664 50.6177 80.5445 53.9992 79.6867 57.5736C78.8095 61.2976 78.3186 65.102 78.2218 68.9267C78.0398 72.8282 78.2007 76.7382 78.7024 80.6117C78.958 82.576 79.3869 84.5139 79.9842 86.4027C80.6022 88.394 81.3347 90.2824 82.1358 92.2051C83.6941 96.0351 85.6504 99.6907 87.9726 103.112C89.1156 104.776 90.4356 106.311 91.9095 107.69C93.195 108.978 94.8521 109.831 96.6476 110.127C97.6117 110.139 98.5743 110.05 99.5202 109.864C100.527 109.674 101.524 109.433 102.507 109.143C104.492 108.525 106.409 107.708 108.23 106.705C111.795 104.574 115.02 101.92 117.797 98.8315C120.679 95.9373 123.392 92.8804 125.923 89.6758C128.35 86.519 130.466 83.1347 132.24 79.5702C133.989 76.1719 135.231 72.5359 135.926 68.7779C136.532 65.1614 136.361 61.4419 134.781 58.5578C134.402 57.8522 133.928 57.2015 133.374 56.6237C132.81 56.0271 132.193 55.4831 131.531 54.9986C130.266 54.0884 128.841 53.4245 127.331 53.0415C124.431 52.41 121.413 52.5922 118.61 53.568C115.899 54.4548 113.355 55.7852 111.079 57.5049C108.976 59.0675 107.087 60.899 105.46 62.9526C102.393 66.8666 100.962 71.0668 101.203 74.5918C101.227 76.1306 101.562 77.6487 102.187 79.0552C102.583 79.9897 103.319 80.7385 104.247 81.1496C104.471 81.2507 104.715 81.2963 104.961 81.2823C105.206 81.2684 105.444 81.1953 105.655 81.0695C105.779 80.9823 105.888 80.8739 105.975 80.749L106.021 80.7719ZM107.486 81.6646C107.428 81.7379 107.375 81.8143 107.325 81.8935C107.152 82.1157 106.948 82.3122 106.719 82.4772C106.285 82.774 105.788 82.964 105.266 83.0316C104.745 83.0992 104.215 83.0426 103.72 82.8663C102.337 82.3241 101.203 81.2884 100.539 79.9593C99.6978 78.3372 99.1918 76.5623 99.051 74.7406C98.784 72.5187 98.963 70.2659 99.5775 68.1141C100.294 65.6021 101.402 63.219 102.862 61.0528C104.491 58.5868 106.473 56.3735 108.745 54.4835C111.295 52.3274 114.225 50.6662 117.385 49.5852C120.972 48.3285 124.876 48.3083 128.475 49.528C130.349 50.1918 132.078 51.2098 133.568 52.5265C134.314 53.179 135.014 53.8827 135.662 54.6323C136.323 55.4323 136.899 56.2991 137.379 57.2188C139.091 60.9747 139.599 65.1683 138.833 69.2242C138.195 73.2855 136.993 77.2378 135.262 80.9665C133.523 84.8028 131.419 88.4629 128.979 91.8961C126.547 95.4735 123.675 98.7303 120.43 101.59C117.005 104.345 113.317 106.756 109.42 108.788C107.466 109.845 105.434 110.752 103.343 111.501C102.285 111.884 101.208 112.208 100.115 112.474C99.5546 112.588 98.9709 112.725 98.4445 112.805C97.8352 112.937 97.2136 113.002 96.5904 113C94.0746 112.867 91.6799 111.877 89.8037 110.196C88.0436 108.734 86.4816 107.049 85.1572 105.183C82.6087 101.61 80.4523 97.7734 78.7253 93.7387C77.867 91.7702 77.0544 89.7216 76.2991 87.7417C75.5377 85.6787 74.9258 83.5636 74.4679 81.4128C73.5803 77.2119 73.3716 72.896 73.8499 68.6291C74.8989 60.6256 77.7986 52.9767 82.3189 46.2892C84.4792 43.0993 87.527 40.6125 91.0855 39.1363C91.9809 38.8046 92.9095 38.5706 93.8552 38.4381C94.7803 38.3105 95.7162 38.2798 96.6476 38.3466C98.5013 38.4784 100.297 39.0471 101.889 40.0061C104.72 41.8812 106.914 44.5709 108.184 47.7198C109.323 50.3965 110.115 53.208 110.541 56.0858C111.193 60.68 111.235 65.34 110.667 69.9453C110.357 72.9184 109.743 75.852 108.836 78.7004C108.588 79.4883 108.274 80.2539 107.898 80.9893C107.623 81.5158 107.497 81.6875 107.497 81.7104L107.486 81.6646Z" fill="#6C2C19"/>
</svg>
