<svg width="450" height="614" viewBox="0 0 450 614" fill="none" xmlns="http://www.w3.org/2000/svg">
<g clip-path="url(#clip0_22_4790)">
<g clip-path="url(#clip1_22_4790)">
<path d="M324.5 533.379C337.678 591.09 368.679 702.805 389.676 708.569C390.417 708.787 391.194 708.856 391.961 708.772C412.933 706.385 417.097 603.378 417.097 603.378L414.736 381.217L424.892 377.028C420.677 346.078 380.028 307.891 348.443 277.601C331.127 261.022 316.528 246.829 312.11 237.511C299.593 211.207 310.891 473.484 324.5 533.379Z" fill="#73407D"/>
<g style="mix-blend-mode:multiply" opacity="0.3">
<path d="M324.5 533.379C337.678 591.09 368.679 702.805 389.676 708.569C388.711 640.473 384.751 543.382 370.151 516.215C349.687 478.13 326.481 304.007 348.367 277.551C331.051 260.971 316.452 246.778 312.034 237.46C299.593 211.207 310.891 473.484 324.5 533.379Z" fill="#664A75"/>
</g>
<path d="M369.618 362.124C363.093 479.476 367.841 710.625 393.942 708.822C420.042 707.02 423.038 528.555 423.622 526.193C424.206 523.832 420.652 383.68 420.652 383.68C420.652 383.68 389.194 344.148 381.983 344.757C374.772 345.367 369.618 362.124 369.618 362.124Z" fill="#27213D"/>
<path d="M361.925 362.581C364.692 363.394 406.611 378.272 406.611 378.272L404.25 357.529C404.25 357.529 387.213 338.359 383.938 336.76C380.663 335.16 359.411 342.752 359.411 342.752L361.925 362.581Z" fill="#EBA87F"/>
<path d="M384.065 336.76C401.838 359.915 414.914 583.041 410.166 644.155C405.418 705.268 391.961 708.822 391.961 708.822C391.961 708.822 407.017 707.223 418.874 651.746C430.731 596.269 433.727 421.993 424.816 377.079C415.904 332.164 384.065 336.76 384.065 336.76Z" fill="#73407D"/>
<path d="M369.948 327.721C362.331 333.814 359.234 322.643 359.183 314.315C359.132 305.987 345.142 297.659 341.182 301.341C337.221 305.022 353.089 319.114 351.896 326.731C350.703 334.348 352.15 354.05 361.925 362.607C371.7 371.163 384.192 364.231 385.614 363.546C387.036 362.86 401.229 372.382 407.094 370.884C412.959 369.386 412.172 364.892 411.283 363.089C410.394 361.286 384.75 352.451 384.624 349.429C384.497 346.408 418.595 339.654 419.56 334.195C420.525 328.737 418.138 324.725 414.939 324.471C411.74 324.217 383.887 339.502 379.698 337.166C375.509 334.83 390.514 303.601 388.991 300.376C387.467 297.152 378.276 294.486 376.093 299.081C373.909 303.677 372.817 325.461 369.948 327.721Z" fill="#FFC393"/>
<path d="M125.546 533.379C112.368 591.09 81.3927 702.805 60.3699 708.569C59.6291 708.787 58.8524 708.856 58.0848 708.772C37.1128 706.385 32.9489 603.378 32.9489 603.378L35.3355 381.217L25.1796 377.028C29.3943 346.129 70.0434 307.942 101.628 277.728C118.944 261.149 133.543 246.956 137.961 237.638C150.428 211.207 139.129 473.484 125.546 533.379Z" fill="#73407D"/>
<g style="mix-blend-mode:multiply" opacity="0.3">
<path d="M125.546 533.379C112.368 591.09 81.3927 702.805 60.3699 708.569C61.3347 640.473 65.2955 543.382 79.8947 516.215C100.359 478.13 123.591 304.007 101.679 277.551C118.995 260.971 133.594 246.778 138.012 237.46C150.428 211.207 139.129 473.484 125.546 533.379Z" fill="#664A75"/>
</g>
<path d="M364.21 966.021C361.671 970.084 355.451 972.039 347.377 972.978C329.604 975.086 303.249 972.191 292.205 975.771C285.418 977.7 278.478 979.042 271.461 979.783C241.341 983.16 210.904 982.459 180.972 977.701C176.732 977.015 172.441 976.457 168.277 976.025C138.875 972.978 109.195 975.187 92.1072 973.765C83.6778 973.08 78.3205 971.48 77.5588 967.976C75.0198 956.297 81.4181 908.945 87.7147 830.465C90.2537 798.677 97.5406 734.796 105.945 658.931C117.903 550.491 132.223 417.728 138.621 319.165C138.799 316.372 138.977 313.579 139.155 310.862L312.11 315.94C312.11 315.94 313.126 335.744 314.827 366.466C319.27 447.079 328.258 602.744 335.139 672.718C336.434 685.692 338.059 700.215 339.836 715.728C351.515 815.688 370.938 954.799 364.21 966.021Z" fill="#73407D"/>
<g style="mix-blend-mode:multiply" opacity="0.4">
<path d="M340.014 715.83C329.731 662.714 318.077 610.386 313.456 618.333C304.468 633.897 278.748 779.203 256.887 838.895C235.027 898.586 199.024 888.202 195.165 877.817C191.305 867.433 220.884 825.92 220.884 825.92L200.293 784.408C200.293 784.408 141.16 534.013 128.288 559.962C122.626 571.387 113.942 614.423 106.021 658.982C117.979 550.542 132.299 417.779 138.697 319.215C170.536 327.238 289.082 359.585 314.903 366.618C319.346 447.205 328.334 602.896 335.215 672.87C336.637 685.794 338.236 700.317 340.014 715.83Z" fill="#664A75"/>
</g>
<path d="M110.312 157.101C112.851 179.165 132.832 203.818 132.832 203.818C132.832 203.818 123.184 206.357 123.819 212.248C124.454 218.138 134.737 227.177 134.737 227.177L312.846 224.638C312.846 224.638 326.989 214.279 327.649 210.369C328.309 206.459 321.2 203.895 321.2 203.895C321.2 203.895 343.06 172.741 342.426 166.927C341.791 161.113 317.34 135.139 317.34 135.139L110.312 157.101Z" fill="#522E59"/>
<path d="M312.821 421.435C312.161 432.124 310.561 446.444 308.302 463.303C303.554 498.721 295.81 545.464 287.05 593.781C268.11 698.21 244.599 809.95 236.956 830.77C224.084 865.782 184.882 888.481 175.233 872.917C165.585 857.353 139.865 803.501 154.642 799.617C169.419 795.732 186.151 808.046 186.151 808.046C186.151 808.046 170.079 812.591 166.22 815.841C162.361 819.091 163.021 829.45 164.316 837.904C165.611 846.359 190.01 847.629 199.659 838.539C209.307 829.45 201.588 806.116 195.165 754.753C188.944 705.166 149.59 564.329 141.236 460.738C141.084 458.986 140.957 457.234 140.83 455.483C140.703 453.731 140.602 452.156 140.526 450.405C134.077 345.976 132.909 161.113 132.909 161.113C132.909 161.113 128.389 135.723 144.486 100.761C160.584 65.7993 211.871 27.6637 224.084 25.074C224.084 25.074 242.745 30.1519 266.535 51.0224C290.326 71.8928 318.508 115.233 323.104 149.637C306.397 199.578 317.975 339.705 312.821 421.435Z" fill="#FFF0DD"/>
<g style="mix-blend-mode:multiply" opacity="0.9">
<path d="M308.353 463.303C303.605 498.721 295.861 545.464 287.101 593.781C268.16 698.209 244.649 809.95 237.007 830.77C224.134 865.782 184.932 888.481 175.284 872.917C165.636 857.353 139.916 803.501 154.693 799.616C169.47 795.732 186.202 808.046 186.202 808.046C186.202 808.046 170.13 812.591 166.271 815.841C162.412 819.091 163.072 829.45 164.367 837.904C165.662 846.359 190.061 847.629 199.709 838.539C209.358 829.45 201.639 806.116 195.215 754.753C188.995 705.166 149.641 564.329 141.287 460.738C141.135 458.986 141.008 457.234 140.881 455.483C153.373 504.003 178.433 574.358 221.088 588.957C262.651 603.251 291.494 524.695 308.353 463.303Z" fill="#F1DEC1"/>
</g>
<g style="mix-blend-mode:multiply" opacity="0.3">
<path d="M312.821 424.989C310.739 458.174 299.974 526.041 287.05 597.361C296.394 496.563 308.175 228.904 295.886 227.355C282.176 225.628 271.893 231.671 241.019 242.056C210.145 252.44 184.45 211.791 172.466 231.671C161.193 250.358 140.856 346.078 141.262 464.42C140.983 460.967 140.754 457.539 140.526 454.264C134.102 349.81 132.909 164.947 132.909 164.947C132.304 160.658 132.134 156.32 132.401 151.998C133.333 135.592 137.428 119.522 144.461 104.671C160.431 69.5316 211.871 31.2691 224.084 28.6539C224.084 28.6539 242.745 33.8588 266.535 54.6023C290.326 75.3458 318.508 118.839 323.104 153.318C306.397 203.158 317.975 343.285 312.821 424.989Z" fill="#F1DEC1"/>
</g>
<path d="M163.986 99.06C159.923 109.216 165.585 164.566 174.599 180.13C183.612 195.694 273.289 186.63 277.453 180.79C281.617 174.95 281.008 101.65 278.113 92.8902C275.219 84.1307 240.536 63.5142 226.394 64.4536C212.252 65.393 165.915 94.1851 163.986 99.06Z" fill="#FFC393"/>
<path d="M202.934 190.793C218.777 216.006 229.644 214.381 242.999 186.731C238.251 177.768 223.423 174.036 223.423 174.036L202.934 190.793Z" fill="#EBA87F"/>
<path d="M241.882 183.075C239.971 187.222 237.521 191.097 234.595 194.602C231.885 198.135 228.067 200.657 223.753 201.762C218.472 202.777 213.978 198.436 210.779 193.764C208.631 190.538 206.835 187.091 205.422 183.481L223.195 170.025L241.882 183.075Z" fill="#82172A"/>
<path d="M182.139 127.344C185.669 130.924 217.482 118.585 218.777 115.665C220.072 112.745 218.447 104.646 213.699 99.7709C208.951 94.8961 180.21 110.485 179.245 112.694C178.28 114.903 180.845 126.049 182.139 127.344Z" fill="#FFF0DD"/>
<path d="M231.878 118.305C231.574 122.089 258.081 133.692 263.996 133.539C269.912 133.387 273.187 116.503 272.172 114.979C271.156 113.456 249.143 103.199 237.667 103.63C235.077 103.706 232.183 115.386 231.878 118.305Z" fill="#FFF0DD"/>
<path d="M222.814 179.165C217.349 173.215 210.304 168.944 202.502 166.851C198.719 165.531 184.399 174.62 179.931 171.37C175.462 168.12 175.767 155.857 175.767 155.857C175.767 155.857 183.384 159.742 184.348 155.222C185.313 150.703 173.025 148.392 169.597 155.527C166.169 162.662 161.98 173.046 167.87 185.385C173.761 197.725 202.197 203.158 222.814 179.165Z" fill="#FFF0DD"/>
<path d="M215.73 154.841C215.73 154.841 204.152 156.771 201.918 160.681C199.684 164.591 209.535 183.71 226.673 179.8C233.427 171.37 215.73 154.841 215.73 154.841Z" fill="#FFC393"/>
<path d="M219.285 130.848C218.955 131.813 219.59 147.377 215.73 151.592C211.871 155.806 201.918 156.67 199.989 160.351C198.059 164.033 202.528 189.219 234.697 177.87C218.625 181.12 204.787 176.854 202.553 162.306C201.918 158.091 215.73 158.091 218.625 152.556C221.519 147.021 219.285 130.848 219.285 130.848Z" fill="#E0875E"/>
<path d="M223.119 179.165C230.609 170.735 243.964 165.531 247.874 164.236C251.784 162.941 262.981 174.62 267.602 171.37C272.223 168.12 271.867 155.857 271.867 155.857C271.867 155.857 264.047 159.742 262.981 155.222C261.914 150.703 274.711 148.392 278.215 155.527C281.719 162.662 286.035 173.046 279.992 185.385C273.949 197.725 244.472 203.158 223.119 179.165Z" fill="#FFF0DD"/>
<path d="M249.245 137.856C249.245 142.324 246.706 145.93 243.608 145.93C240.511 145.93 237.946 142.324 237.946 137.856C237.946 133.387 240.485 129.782 243.608 129.782C246.731 129.782 249.245 133.387 249.245 137.856Z" fill="#272F44"/>
<path d="M210.652 137.856C210.652 142.324 208.113 145.93 205.016 145.93C201.918 145.93 199.379 142.324 199.379 137.856C199.379 133.387 201.918 129.782 205.016 129.782C208.113 129.782 210.652 133.387 210.652 137.856Z" fill="#272F44"/>
<g style="mix-blend-mode:multiply" opacity="0.3">
<path d="M323.104 153.318C323.104 153.318 241.019 71.5628 220.453 75.879C199.887 80.1953 152.738 108.023 132.807 164.896C132.807 164.896 132.528 160.046 132.299 151.947C133.231 135.542 137.326 119.471 144.359 104.62C160.431 69.5316 211.871 31.2691 224.084 28.6539C224.084 28.6539 242.745 33.8588 266.535 54.6023C290.326 75.3458 318.508 118.839 323.104 153.318Z" fill="#C15A45"/>
</g>
<path d="M132.807 164.896C132.147 166.851 110.286 157.101 110.286 157.101C110.286 157.101 127.653 77.961 221.519 17C294.185 46.1729 342.4 166.8 342.4 166.8L323.104 153.318C323.104 153.318 315.969 94.9214 225.378 35.1537C169.445 63.0572 148.219 105.864 132.807 164.896Z" fill="#522E59"/>
<path d="M80.3771 362.124C86.9023 479.476 82.1544 710.625 56.0536 708.822C29.9529 707.02 26.9569 528.555 26.3729 526.193C25.7889 523.832 29.3435 383.68 29.3435 383.68C29.3435 383.68 60.8015 344.148 67.9107 344.757C75.0199 345.367 80.3771 362.124 80.3771 362.124Z" fill="#27213D"/>
<path d="M88.0702 362.581C85.3027 363.394 43.384 378.272 43.384 378.272L45.7707 357.529C45.7707 357.529 62.7819 338.359 65.9302 336.76C69.0785 335.16 90.4822 342.752 90.4822 342.752L88.0702 362.581Z" fill="#EBA87F"/>
<path d="M65.9302 336.76C48.1574 359.915 35.0816 583.041 39.8295 644.155C44.5774 705.268 58.034 708.822 58.034 708.822C58.034 708.822 42.9778 707.223 31.1208 651.746C19.2637 596.269 16.3693 421.993 25.1796 377.079C33.9898 332.164 65.9302 336.76 65.9302 336.76Z" fill="#73407D"/>
<path d="M80.0471 327.721C87.664 333.814 90.7616 322.643 90.8123 314.315C90.8631 305.987 104.853 297.659 108.814 301.341C112.775 305.022 96.9059 319.114 98.0992 326.731C99.2926 334.348 97.8453 354.05 87.9433 362.607C78.0413 371.163 65.6764 364.231 64.2546 363.546C62.8327 362.86 48.6398 372.382 42.7748 370.884C36.9097 369.386 37.6968 364.892 38.5854 363.089C39.4741 361.286 65.1178 352.451 65.2448 349.429C65.3717 346.408 31.2732 339.654 30.3083 334.195C29.3435 328.737 31.7556 324.725 34.9293 324.471C38.103 324.217 65.9811 339.502 70.1704 337.166C74.3597 334.83 59.532 303.601 61.0301 300.376C62.5281 297.152 71.7192 294.486 73.9281 299.081C76.137 303.677 77.305 325.461 80.0471 327.721Z" fill="#FFC393"/>
<path style="mix-blend-mode:screen" opacity="0.9" d="M229.242 503C295.24 503 348.742 449.05 348.742 382.5C348.742 315.95 295.24 262 229.242 262C163.244 262 109.742 315.95 109.742 382.5C109.742 449.05 163.244 503 229.242 503Z" fill="url(#paint0_radial_22_4790)"/>
<path d="M145.654 418.794C144.025 403.851 146.491 388.747 152.789 375.098C179.118 320.155 266.688 313.325 296.724 371.798C301.467 381.317 304.542 391.579 305.814 402.138C318.965 500.245 155.633 527.615 145.654 418.794Z" fill="url(#paint1_radial_22_4790)"/>
<g opacity="0.5">
<path d="M221.291 425.751C218.433 425.846 215.639 426.621 213.141 428.011C210.582 429.414 208.444 431.474 206.945 433.977C205.456 436.558 204.825 439.546 205.143 442.508C205.416 445.521 206.736 448.342 208.875 450.481C209.98 451.527 211.285 452.338 212.712 452.866C214.139 453.394 215.658 453.628 217.178 453.553C218.726 453.527 220.249 453.161 221.64 452.481C223.031 451.801 224.255 450.823 225.226 449.617C225.461 449.296 225.56 448.896 225.503 448.502C225.446 448.108 225.237 447.752 224.921 447.51C224.604 447.277 224.208 447.178 223.818 447.235C223.428 447.292 223.077 447.501 222.839 447.815C222.141 448.691 221.258 449.403 220.253 449.899C219.248 450.395 218.146 450.663 217.025 450.684C215.886 450.749 214.745 450.587 213.668 450.207C212.592 449.828 211.601 449.239 210.754 448.475C209.11 446.739 208.069 444.52 207.786 442.147C207.502 439.773 207.991 437.372 209.18 435.298C210.464 433.198 212.25 431.452 214.378 430.215C216.505 428.978 218.907 428.291 221.367 428.214C223.872 428.18 226.357 428.658 228.671 429.619C230.985 430.579 233.079 432.002 234.823 433.8C238.526 437.345 240.68 442.208 240.815 447.332C240.799 452.513 239.007 457.532 235.737 461.551C232.582 465.664 228.169 468.634 223.17 470.006C218.156 471.305 212.878 471.173 207.936 469.625C202.934 468.112 198.399 465.351 194.758 461.602C191.108 457.792 188.312 453.248 186.557 448.272C184.762 443.284 183.902 438.008 184.018 432.708C184.057 427.399 185.362 422.176 187.827 417.474C190.354 412.803 194.43 409.158 199.354 407.166C204.255 405.165 209.597 404.491 214.842 405.211C220.101 405.972 225.152 407.786 229.695 410.543C234.25 413.308 238.453 416.616 242.212 420.394C238.488 416.565 234.31 413.205 229.771 410.39C225.238 407.551 220.177 405.66 214.892 404.83C209.57 404.038 204.132 404.66 199.125 406.633C196.627 407.646 194.312 409.061 192.27 410.822C190.254 412.628 188.54 414.745 187.192 417.093C184.623 421.895 183.231 427.238 183.13 432.682C182.951 438.109 183.768 443.522 185.542 448.653C187.317 453.806 190.154 458.529 193.87 462.516C197.637 466.471 202.345 469.406 207.555 471.047C212.774 472.762 218.373 472.964 223.703 471.63C229.075 470.207 233.841 467.08 237.286 462.719C240.859 458.371 242.839 452.934 242.897 447.307C242.808 441.616 240.482 436.189 236.423 432.2C234.473 430.151 232.125 428.523 229.523 427.414C226.92 426.305 224.119 425.739 221.291 425.751Z" fill="white"/>
<path d="M271.664 410.492C270.768 412.593 269.68 414.607 268.414 416.509C263.252 424.16 255.57 429.757 246.706 432.327C255.649 429.868 263.442 424.34 268.719 416.712C271.371 412.88 273.251 408.568 274.254 404.017C274.708 401.741 274.971 399.431 275.041 397.111C275.062 394.791 274.893 392.472 274.533 390.18C274.118 387.889 273.506 385.638 272.705 383.452C271.861 381.272 270.806 379.181 269.557 377.206C267.036 373.262 263.65 369.945 259.655 367.507C255.695 365.015 251.231 363.433 246.586 362.875C241.941 362.318 237.229 362.798 232.792 364.282C228.248 365.795 224.306 368.722 221.545 372.636C218.941 376.774 218.032 381.757 219.006 386.549C219.408 388.935 220.271 391.22 221.545 393.277C222.861 395.309 224.539 397.082 226.496 398.508C230.441 401.348 235.254 402.722 240.105 402.392C242.542 402.239 244.925 401.6 247.112 400.514C249.351 399.416 251.287 397.786 252.749 395.766C254.223 393.671 255.053 391.191 255.135 388.631C255.25 386.001 254.422 383.417 252.799 381.344C251.955 380.324 250.917 379.482 249.744 378.868C248.572 378.253 247.289 377.878 245.97 377.764C244.614 377.601 243.239 377.767 241.962 378.249C240.684 378.731 239.542 379.514 238.632 380.532C237.708 381.605 237.101 382.915 236.88 384.315C236.609 385.831 236.927 387.393 237.769 388.682C238.223 389.307 238.799 389.834 239.462 390.231C240.126 390.628 240.862 390.887 241.628 390.992C242.42 391.101 243.227 391.032 243.989 390.789C244.807 390.515 245.53 390.013 246.071 389.342C246.306 389.021 246.405 388.62 246.348 388.226C246.291 387.832 246.082 387.477 245.767 387.235C245.609 387.117 245.43 387.033 245.239 386.986C245.048 386.939 244.85 386.93 244.656 386.961C244.462 386.992 244.276 387.061 244.109 387.165C243.942 387.268 243.798 387.404 243.685 387.565C243.469 387.798 243.197 387.972 242.894 388.07C242.592 388.168 242.27 388.186 241.958 388.123C241.587 388.088 241.226 387.978 240.899 387.799C240.571 387.62 240.284 387.376 240.054 387.082C239.67 386.336 239.525 385.49 239.639 384.659C239.752 383.828 240.119 383.052 240.689 382.436C241.318 381.732 242.109 381.19 242.993 380.859C243.878 380.527 244.829 380.415 245.767 380.532C247.723 380.692 249.542 381.602 250.844 383.071C252.09 384.661 252.737 386.638 252.673 388.657C252.643 390.723 252.007 392.736 250.844 394.445C249.561 396.134 247.928 397.526 246.057 398.525C244.185 399.524 242.12 400.107 240.003 400.234C235.654 400.577 231.32 399.402 227.74 396.908C225.961 395.65 224.429 394.075 223.22 392.262C221.443 389.492 220.48 386.28 220.439 382.989C220.399 379.699 221.283 376.463 222.992 373.651C225.51 369.983 229.142 367.223 233.351 365.78C237.587 364.299 242.099 363.778 246.561 364.257C251.023 364.736 255.322 366.201 259.147 368.548C261.07 369.71 262.866 371.072 264.504 372.61C266.119 374.152 267.574 375.853 268.846 377.688C270.076 379.59 271.122 381.605 271.969 383.705C272.787 385.829 273.415 388.022 273.848 390.256C274.728 394.75 274.728 399.371 273.848 403.865C273.332 406.138 272.601 408.357 271.664 410.492Z" fill="white"/>
<path d="M278.012 433.038C276.131 431.428 273.85 430.358 271.41 429.94C268.98 429.6 266.504 430.026 264.326 431.159C262.193 432.311 260.307 433.873 258.778 435.755C257.248 437.637 256.106 439.803 255.415 442.128C256.15 439.845 257.33 437.73 258.885 435.904C260.441 434.078 262.342 432.578 264.479 431.489C266.607 430.459 269.002 430.113 271.334 430.499C273.649 430.945 275.794 432.026 277.529 433.622C279.305 435.146 280.609 437.146 281.287 439.385C281.895 441.648 281.973 444.02 281.515 446.317C281.054 448.631 280.295 450.876 279.256 452.994C278.262 455.131 277.045 457.156 275.625 459.037C274.251 460.873 272.523 462.414 270.543 463.57C268.563 464.725 266.372 465.472 264.098 465.765C261.918 466.053 259.706 465.587 257.827 464.445C256.975 463.83 256.268 463.037 255.755 462.12C255.241 461.204 254.935 460.186 254.856 459.139C254.62 457.016 255.201 454.882 256.481 453.172C257.023 452.352 257.791 451.707 258.692 451.315C259.594 450.922 260.59 450.8 261.559 450.963C262.465 451.149 263.296 451.6 263.946 452.258C264.225 452.544 264.439 452.887 264.57 453.265C264.702 453.642 264.749 454.044 264.707 454.442C264.565 455.272 264.111 456.017 263.438 456.524C263.173 456.752 262.854 456.907 262.511 456.974C262.168 457.041 261.814 457.017 261.483 456.904C261.3 456.836 261.105 456.805 260.909 456.812C260.714 456.82 260.522 456.867 260.344 456.949C260.167 457.032 260.008 457.149 259.877 457.294C259.745 457.439 259.644 457.609 259.579 457.793C259.453 458.167 259.475 458.576 259.64 458.934C259.805 459.293 260.101 459.575 260.467 459.723C261.282 460.014 262.163 460.067 263.006 459.875C263.81 459.702 264.559 459.336 265.19 458.809C266.448 457.823 267.269 456.382 267.475 454.797C267.577 453.936 267.463 453.064 267.145 452.258C266.862 451.525 266.429 450.86 265.875 450.303C264.836 449.239 263.484 448.536 262.016 448.297C260.568 448.043 259.077 448.247 257.751 448.881C256.495 449.517 255.415 450.449 254.602 451.598C253.043 453.812 252.364 456.527 252.698 459.215C252.843 460.571 253.285 461.879 253.991 463.046C254.698 464.213 255.652 465.211 256.786 465.969C259.084 467.309 261.77 467.828 264.403 467.441C266.891 467.069 269.28 466.204 271.43 464.896C273.579 463.588 275.446 461.864 276.92 459.824C278.347 457.818 279.572 455.675 280.576 453.426C281.603 451.178 282.328 448.805 282.734 446.368C283.163 443.905 283.016 441.376 282.302 438.979C281.47 436.629 279.981 434.567 278.012 433.038Z" fill="white"/>
<path d="M193.413 402.316C196.009 402.066 198.456 400.989 200.395 399.244C202.3 397.552 203.787 395.439 204.737 393.074C206.423 388.377 206.748 383.299 205.676 378.424C205.012 373.559 203.371 368.878 200.852 364.663C199.488 362.548 197.621 360.803 195.418 359.585C194.312 358.983 193.123 358.547 191.889 358.29C190.679 358.038 189.443 357.935 188.208 357.986C183.253 358.22 178.571 360.325 175.107 363.876C171.784 367.402 169.195 371.554 167.49 376.089C165.661 380.546 164.242 385.16 163.25 389.875C161.284 399.316 161.026 409.033 162.488 418.566C163.212 423.31 164.376 427.977 165.966 432.505C166.728 434.777 167.742 436.957 168.988 439.005C170.238 441.088 171.982 442.832 174.066 444.083C172.051 442.804 170.371 441.063 169.165 439.005C167.952 436.945 166.972 434.757 166.246 432.479C164.713 427.946 163.608 423.279 162.945 418.54C160.943 404.287 162.838 389.758 168.429 376.495C170.179 372.118 172.767 368.125 176.046 364.739C179.331 361.432 183.752 359.498 188.411 359.331C189.547 359.31 190.681 359.429 191.788 359.687C192.892 359.921 193.954 360.323 194.936 360.88C196.913 362.003 198.579 363.6 199.786 365.526C202.141 369.581 203.644 374.073 204.203 378.729C205.172 383.276 204.829 388.004 203.213 392.363C202.351 394.447 201.012 396.3 199.303 397.771C197.667 399.219 195.613 400.109 193.438 400.31C191.229 400.352 189.044 399.839 187.084 398.819C185.123 397.799 183.45 396.304 182.216 394.471C180.902 392.664 180.017 390.582 179.63 388.382C179.243 386.182 179.363 383.922 179.981 381.776C180.541 379.706 181.74 377.866 183.409 376.52C185.08 375.217 187.13 374.495 189.249 374.464C190.244 374.431 191.234 374.625 192.144 375.029C193.054 375.434 193.861 376.039 194.504 376.799C195.14 377.58 195.607 378.484 195.873 379.454C196.14 380.425 196.201 381.44 196.053 382.436C195.911 383.366 195.526 384.242 194.936 384.975C194.377 385.668 193.612 386.165 192.753 386.397C192.377 386.484 191.986 386.484 191.61 386.397C191.286 386.327 190.987 386.169 190.747 385.94C190.524 385.75 190.359 385.503 190.269 385.225C190.18 384.947 190.169 384.649 190.239 384.366C190.256 384.316 190.256 384.263 190.239 384.213C190.394 383.849 190.402 383.438 190.26 383.069C190.117 382.699 189.837 382.399 189.477 382.233C189.297 382.154 189.104 382.111 188.907 382.108C188.711 382.105 188.516 382.141 188.334 382.215C188.152 382.288 187.986 382.397 187.847 382.535C187.707 382.674 187.597 382.838 187.522 383.02V383.172C187.194 384.074 187.194 385.063 187.522 385.965C187.773 386.783 188.237 387.52 188.868 388.098C189.503 388.696 190.296 389.101 191.153 389.266C191.94 389.432 192.753 389.432 193.54 389.266C194.959 388.842 196.225 388.014 197.181 386.882C198.137 385.75 198.742 384.364 198.922 382.893C199.105 381.51 199.001 380.104 198.617 378.763C198.232 377.422 197.576 376.174 196.688 375.098C195.782 374.004 194.635 373.135 193.336 372.559C192.063 372.045 190.698 371.795 189.325 371.823C186.638 371.869 184.045 372.817 181.962 374.514C179.915 376.206 178.449 378.497 177.773 381.065C177.084 383.546 176.98 386.153 177.468 388.682C177.913 391.219 178.958 393.612 180.515 395.664C182.031 397.724 183.993 399.417 186.253 400.615C188.431 401.845 190.913 402.435 193.413 402.316Z" fill="white"/>
<path d="M295.099 409.349C294.918 404.22 294.255 399.12 293.119 394.115C291.954 389.089 290.252 384.203 288.041 379.542C285.814 374.913 283.135 370.516 280.043 366.415C276.867 362.38 273.35 358.626 269.531 355.193C265.648 351.858 261.476 348.876 257.065 346.281C254.831 345.062 252.596 343.742 250.261 342.752C247.912 341.756 245.504 340.908 243.05 340.213C240.552 339.506 238.006 338.98 235.433 338.639C234.163 338.41 232.894 338.359 231.624 338.232C230.355 338.105 229.085 338.105 227.765 338.232C222.612 338.287 217.515 339.303 212.734 341.228C211.566 341.761 210.373 342.244 209.231 342.904C208.097 343.567 207.026 344.332 206.031 345.189C203.913 346.9 202.48 349.315 201.994 351.994C201.834 353.397 202.054 354.817 202.629 356.107C203.205 357.355 204.076 358.445 205.168 359.28C207.388 360.865 210.058 361.693 212.785 361.642C215.552 361.636 218.236 360.697 220.402 358.976C221.556 358.031 222.431 356.79 222.932 355.385C223.433 353.98 223.542 352.465 223.246 351.003C222.892 349.474 221.989 348.127 220.707 347.22C220.043 346.743 219.287 346.409 218.487 346.238C217.688 346.068 216.861 346.065 216.06 346.23C215.225 346.448 214.454 346.865 213.814 347.444C213.173 348.023 212.681 348.747 212.379 349.556C212.06 350.362 211.93 351.231 211.998 352.095C212.086 353.026 212.448 353.909 213.039 354.634C213.174 354.774 213.336 354.885 213.515 354.961C213.693 355.037 213.886 355.076 214.08 355.076C214.274 355.076 214.467 355.037 214.645 354.961C214.824 354.885 214.986 354.774 215.121 354.634C215.399 354.354 215.554 353.975 215.554 353.58C215.554 353.186 215.399 352.807 215.121 352.527C214.881 352.223 214.726 351.86 214.673 351.476C214.619 351.093 214.669 350.701 214.816 350.343C214.944 349.939 215.164 349.57 215.459 349.265C215.754 348.961 216.117 348.73 216.517 348.591C217.469 348.43 218.446 348.626 219.262 349.141C220.077 349.657 220.673 350.456 220.935 351.384C221.175 352.453 221.122 353.566 220.783 354.607C220.443 355.648 219.829 356.578 219.006 357.3C217.208 358.841 214.947 359.735 212.582 359.839C210.173 360.014 207.775 359.37 205.778 358.011C204.812 357.365 204.019 356.494 203.467 355.472C202.962 354.413 202.751 353.238 202.858 352.07C203.241 349.637 204.495 347.426 206.387 345.849C207.307 345.005 208.311 344.256 209.383 343.615C210.468 342.979 211.587 342.403 212.734 341.888C217.398 339.866 222.405 338.754 227.486 338.613C228.755 338.613 230.025 338.613 231.294 338.613C232.564 338.613 233.833 338.765 235.077 338.969C237.601 339.283 240.097 339.792 242.542 340.492C244.997 341.186 247.405 342.034 249.753 343.031C252.089 344.047 254.323 345.291 256.557 346.509C260.995 349.06 265.185 352.018 269.074 355.345C272.948 358.703 276.47 362.446 279.586 366.517C282.642 370.636 285.279 375.05 287.457 379.694C291.752 389.059 294.028 399.224 294.134 409.527C294.205 412.058 293.773 414.578 292.865 416.941C291.869 419.211 290.057 421.023 287.787 422.019C286.698 422.527 285.51 422.79 284.308 422.79C283.106 422.79 281.919 422.527 280.83 422.019C278.615 421.057 276.814 419.338 275.752 417.169C275.456 416.051 275.419 414.88 275.643 413.745C275.868 412.61 276.348 411.541 277.047 410.619C277.637 409.725 278.544 409.09 279.586 408.841C279.822 408.815 280.06 408.815 280.297 408.841C280.539 408.85 280.778 408.892 281.008 408.968C281.475 409.084 281.904 409.32 282.252 409.654C282.988 410.359 283.514 411.254 283.769 412.241C284.025 413.228 284.001 414.266 283.699 415.24C283.559 415.554 283.325 415.818 283.03 415.995C282.735 416.172 282.392 416.254 282.049 416.23C281.84 416.125 281.671 415.956 281.566 415.747C281.566 415.494 281.566 415.367 281.566 415.392C281.774 415.055 281.84 414.65 281.749 414.264C281.659 413.879 281.42 413.545 281.084 413.335C280.918 413.229 280.732 413.157 280.538 413.124C280.344 413.091 280.145 413.097 279.954 413.142C279.762 413.187 279.581 413.27 279.422 413.386C279.263 413.502 279.129 413.649 279.027 413.818C278.723 414.349 278.582 414.959 278.621 415.57C278.645 416.115 278.802 416.647 279.078 417.118C279.338 417.593 279.701 418.004 280.141 418.32C280.58 418.636 281.084 418.85 281.617 418.947C282.597 419.128 283.608 418.918 284.435 418.363C285.188 417.881 285.788 417.194 286.162 416.382C286.745 414.871 286.745 413.196 286.162 411.685C285.675 410.231 284.797 408.939 283.623 407.953C282.999 407.44 282.257 407.091 281.465 406.937C281.086 406.823 280.692 406.771 280.297 406.785C279.893 406.773 279.491 406.824 279.103 406.937C277.64 407.364 276.39 408.325 275.6 409.628C274.835 410.817 274.317 412.146 274.076 413.539C273.814 414.95 273.937 416.406 274.432 417.753C275.02 419.03 275.887 420.158 276.971 421.054C277.984 421.941 279.133 422.661 280.373 423.187C281.617 423.743 282.972 424.003 284.334 423.948C285.69 423.899 287.021 423.571 288.244 422.984C290.686 421.824 292.6 419.783 293.601 417.271C294.642 414.762 295.152 412.065 295.099 409.349Z" fill="white"/>
</g>
<g style="mix-blend-mode:multiply" opacity="0.2">
<path d="M148.701 435.729C147.183 430.186 146.164 424.519 145.654 418.794C144.025 403.851 146.491 388.747 152.789 375.098C117.497 456.498 241.196 459.926 277.986 433.063C302.462 415.29 303.554 390.51 296.749 371.721C300.91 379.971 303.786 388.807 305.28 397.924C305.534 399.269 305.737 400.641 305.915 402.037C318.255 494.761 173.304 524.34 148.701 435.729Z" fill="#7E8678"/>
</g>
<g style="mix-blend-mode:multiply" opacity="0.2">
<path d="M148.701 435.729C181.556 489.607 256.659 480.72 276.844 464.902C298.197 448.145 306.499 426.589 305.331 399.041C305.331 398.66 305.331 398.279 305.331 397.924C305.585 399.269 305.788 400.641 305.966 402.037C318.255 494.761 173.304 524.34 148.701 435.729Z" fill="#7E8678"/>
</g>
<path d="M225.048 540.589C219.843 534.851 213.699 498.341 216.67 472.164C217.914 461.17 220.783 452.004 225.962 447.662C233.326 441.544 240.612 449.795 243.735 470.31C243.735 470.742 243.888 471.148 243.938 471.605C247.163 493.06 232.462 548.714 225.048 540.589Z" fill="#4D2E21"/>
<g style="mix-blend-mode:screen">
<path d="M243.837 470.31C237.896 461.475 226.572 456.6 216.67 472.164C217.914 461.17 220.783 452.004 225.962 447.662C233.326 441.544 240.612 449.795 243.837 470.31Z" fill="#695D35"/>
</g>
<path d="M223.043 539.244C181.936 553.005 134.432 515.276 142.76 474.576C143.559 470.498 144.785 466.515 146.416 462.693C157.867 436.643 182.723 447.942 183.866 464.394C184.45 472.672 181.454 474.753 177.493 476.328C172.568 478.283 166.169 479.451 163.326 490.724C158.248 511.036 192.854 541.503 223.703 532.642C223.703 532.566 228.831 534.978 223.043 539.244Z" fill="#4D2E21"/>
<g style="mix-blend-mode:screen">
<path d="M177.493 476.251C176.96 466.222 161.929 453.705 146.416 462.617C157.867 436.567 182.723 447.866 183.866 464.318C184.45 472.595 181.403 474.677 177.493 476.251Z" fill="#695D35"/>
</g>
<path d="M229.822 539.244C224.464 535.054 229.212 532.642 229.212 532.642C257.7 541.63 289.767 511.086 285.07 490.724C283.496 484.021 280.779 480.898 277.859 479.044C271.943 475.287 265.164 476.835 266.078 464.394C266.992 449.871 284.994 439.385 296.546 454.975C300.487 460.873 303.087 467.564 304.163 474.576C311.729 515.199 267.729 552.929 229.822 539.244Z" fill="#4D2E21"/>
<g style="mix-blend-mode:screen">
<path d="M296.445 454.899C286.035 454.416 272.502 465.055 277.808 478.968C271.893 475.21 265.114 476.759 266.028 464.318C266.942 449.795 284.943 439.309 296.445 454.899Z" fill="#695D35"/>
</g>
<path d="M204.432 539.751C183.663 560.063 184.831 597.259 196.815 607.415C208.799 617.571 230.634 618.815 221.748 630.774C212.861 642.733 193.819 648.141 201.563 662.511C209.307 676.882 225.302 709.229 218.777 725.402C212.252 741.575 221.138 779.889 218.777 790.654C216.416 801.419 207.504 813.505 209.865 822.391C212.227 831.278 223.525 840.367 218.168 851.742C212.811 863.116 208.012 882.21 209.865 887.668C211.719 893.127 225.886 897.824 220.021 917.603C214.156 937.382 207.555 949.34 207.555 956.526C207.555 963.711 215.172 964.32 215.172 979.377C215.172 994.433 235.331 976.381 235.331 976.381C235.331 976.381 228.222 952.413 228.806 944.643C229.39 936.874 241.857 895.539 237.718 885.942C233.579 876.345 225.252 873.983 231.193 861.39C237.134 848.797 237.109 834.451 233.554 818.887C229.999 803.323 234.163 753.61 239.495 733.247C244.827 712.885 268.567 647.633 262.041 639.305C255.516 630.977 237.109 632.729 243.659 619.552C250.21 606.374 266.205 596.701 261.432 584.818C256.659 572.936 247.772 557.27 257.878 543.509C267.983 529.748 204.432 539.751 204.432 539.751Z" fill="#4D2E21"/>
<path opacity="0.3" d="M168.708 363.901C152.433 391.83 271.994 363.901 261.889 347.728C251.784 331.555 194.733 318.987 168.708 363.901Z" fill="white"/>
<path opacity="0.7" d="M199.354 342.828C190.467 351.892 242.517 348.642 239.978 341.558C237.439 334.475 210.348 331.58 199.354 342.828Z" fill="white"/>
<path opacity="0.7" d="M175.462 360.525C174.243 368.548 199.43 350.902 195.596 348.084C191.762 345.265 177.417 347.677 175.462 360.525Z" fill="white"/>
</g>
</g>
<defs>
<radialGradient id="paint0_radial_22_4790" cx="0" cy="0" r="1" gradientUnits="userSpaceOnUse" gradientTransform="translate(229.498 381.792) scale(120.128 120.067)">
<stop offset="0.01" stop-color="#A7FFF9"/>
<stop offset="0.1" stop-color="#A3F9F3"/>
<stop offset="0.23" stop-color="#99E9E4"/>
<stop offset="0.36" stop-color="#87CECA"/>
<stop offset="0.52" stop-color="#6FA9A5"/>
<stop offset="0.67" stop-color="#4F7976"/>
<stop offset="0.84" stop-color="#2A403E"/>
<stop offset="1"/>
</radialGradient>
<radialGradient id="paint1_radial_22_4790" cx="0" cy="0" r="1" gradientUnits="userSpaceOnUse" gradientTransform="translate(227.312 363.539) scale(85.9312 85.9311)">
<stop offset="0.01" stop-color="#A7FFF9"/>
<stop offset="0.26" stop-color="#A2F9F7"/>
<stop offset="0.59" stop-color="#94E9F3"/>
<stop offset="0.96" stop-color="#7DCFEC"/>
<stop offset="1" stop-color="#7ACBEB"/>
</radialGradient>
<clipPath id="clip0_22_4790">
<rect width="450" height="614" fill="white"/>
</clipPath>
<clipPath id="clip1_22_4790">
<rect width="409.995" height="1004.8" fill="white" transform="translate(20 17)"/>
</clipPath>
</defs>
</svg>
